<?xml version="1.0" encoding="UTF-8" standalone="no"?>
<!DOCTYPE svg PUBLIC "-//W3C//DTD SVG 1.1//EN"
 "http://www.w3.org/Graphics/SVG/1.1/DTD/svg11.dtd">
<!-- Generated by graphviz version 8.1.0 (20230707.0739)
 -->
<!-- Title: src/bulk/bulk_event.hpp Pages: 1 -->
<svg width="405pt" height="164pt"
 viewBox="0.00 0.00 404.88 164.00" xmlns="http://www.w3.org/2000/svg" xmlns:xlink="http://www.w3.org/1999/xlink">
<g id="graph0" class="graph" transform="scale(1 1) rotate(0) translate(4 160)">
<title>src/bulk/bulk_event.hpp</title>
<!-- Node1 -->
<g id="Node000001" class="node">
<title>Node1</title>
<g id="a_Node000001"><a xlink:title=" ">
<polygon fill="#999999" stroke="#666666" points="243.88,-156 125.12,-156 125.12,-133 243.88,-133 243.88,-156"/>
<text text-anchor="middle" x="184.5" y="-142.5" font-family="Helvetica,sans-Serif" font-size="10.00">src/bulk/bulk_event.hpp</text>
</a>
</g>
</g>
<!-- Node2 -->
<g id="Node000002" class="node">
<title>Node2</title>
<g id="a_Node000002"><a xlink:href="bulk__translator_8hpp.html" target="_top" xlink:title=" ">
<polygon fill="white" stroke="#666666" points="109,-97 0,-97 0,-59 109,-59 109,-97"/>
<text text-anchor="start" x="8" y="-83.5" font-family="Helvetica,sans-Serif" font-size="10.00">src/bulk/provider/bulk</text>
<text text-anchor="middle" x="54.5" y="-68.5" font-family="Helvetica,sans-Serif" font-size="10.00">_translator.hpp</text>
</a>
</g>
</g>
<!-- Node1&#45;&gt;Node2 -->
<g id="edge1_Node000001_Node000002" class="edge">
<title>Node1&#45;&gt;Node2</title>
<g id="a_edge1_Node000001_Node000002"><a xlink:title=" ">
<path fill="none" stroke="#63b8ff" d="M152.76,-127.75C134.33,-118.61 111.01,-107.04 91.71,-97.46"/>
<polygon fill="#63b8ff" stroke="#63b8ff" points="150.93,-131.25 161.45,-132.56 154.04,-124.98 150.93,-131.25"/>
</a>
</g>
</g>
<!-- Node4 -->
<g id="Node000004" class="node">
<title>Node4</title>
<g id="a_Node000004"><a xlink:href="file__writer_8hpp.html" target="_top" xlink:title=" ">
<polygon fill="white" stroke="#666666" points="241.62,-89.5 127.38,-89.5 127.38,-66.5 241.62,-66.5 241.62,-89.5"/>
<text text-anchor="middle" x="184.5" y="-76" font-family="Helvetica,sans-Serif" font-size="10.00">src/logs/file_writer.hpp</text>
</a>
</g>
</g>
<!-- Node1&#45;&gt;Node4 -->
<g id="edge3_Node000001_Node000004" class="edge">
<title>Node1&#45;&gt;Node4</title>
<g id="a_edge3_Node000001_Node000004"><a xlink:title=" ">
<path fill="none" stroke="#63b8ff" d="M184.5,-121.82C184.5,-111.05 184.5,-98.5 184.5,-89.78"/>
<polygon fill="#63b8ff" stroke="#63b8ff" points="181,-121.56 184.5,-131.56 188,-121.56 181,-121.56"/>
</a>
</g>
</g>
<!-- Node5 -->
<g id="Node000005" class="node">
<title>Node5</title>
<g id="a_Node000005"><a xlink:href="ostream__writer_8hpp.html" target="_top" xlink:title=" ">
<polygon fill="white" stroke="#666666" points="396.88,-89.5 260.12,-89.5 260.12,-66.5 396.88,-66.5 396.88,-89.5"/>
<text text-anchor="middle" x="328.5" y="-76" font-family="Helvetica,sans-Serif" font-size="10.00">src/logs/ostream_writer.hpp</text>
</a>
</g>
</g>
<!-- Node1&#45;&gt;Node5 -->
<g id="edge5_Node000001_Node000005" class="edge">
<title>Node1&#45;&gt;Node5</title>
<g id="a_edge5_Node000001_Node000005"><a xlink:title=" ">
<path fill="none" stroke="#63b8ff" d="M218.83,-128.12C245.04,-116.38 280.53,-100.48 303.95,-90"/>
<polygon fill="#63b8ff" stroke="#63b8ff" points="217.62,-125.28 209.93,-132.56 220.48,-131.66 217.62,-125.28"/>
</a>
</g>
</g>
<!-- Node3 -->
<g id="Node000003" class="node">
<title>Node3</title>
<g id="a_Node000003"><a xlink:href="main_8cpp.html" target="_top" xlink:title=" ">
<polygon fill="white" stroke="#666666" points="220.62,-23 148.38,-23 148.38,0 220.62,0 220.62,-23"/>
<text text-anchor="middle" x="184.5" y="-9.5" font-family="Helvetica,sans-Serif" font-size="10.00">src/main.cpp</text>
</a>
</g>
</g>
<!-- Node2&#45;&gt;Node3 -->
<g id="edge2_Node000002_Node000003" class="edge">
<title>Node2&#45;&gt;Node3</title>
<g id="a_edge2_Node000002_Node000003"><a xlink:title=" ">
<path fill="none" stroke="#63b8ff" d="M101.45,-53.71C122.37,-43.33 146,-31.6 162.69,-23.32"/>
<polygon fill="#63b8ff" stroke="#63b8ff" points="100.16,-50.94 92.75,-58.52 103.27,-57.21 100.16,-50.94"/>
</a>
</g>
</g>
<!-- Node4&#45;&gt;Node3 -->
<g id="edge4_Node000004_Node000003" class="edge">
<title>Node4&#45;&gt;Node3</title>
<g id="a_edge4_Node000004_Node000003"><a xlink:title=" ">
<path fill="none" stroke="#63b8ff" d="M184.5,-55.32C184.5,-44.55 184.5,-32 184.5,-23.28"/>
<polygon fill="#63b8ff" stroke="#63b8ff" points="181,-55.06 184.5,-65.06 188,-55.06 181,-55.06"/>
</a>
</g>
</g>
<!-- Node5&#45;&gt;Node3 -->
<g id="edge6_Node000005_Node000003" class="edge">
<title>Node5&#45;&gt;Node3</title>
<g id="a_edge6_Node000005_Node000003"><a xlink:title=" ">
<path fill="none" stroke="#63b8ff" d="M294.17,-61.62C267.96,-49.88 232.47,-33.98 209.05,-23.5"/>
<polygon fill="#63b8ff" stroke="#63b8ff" points="292.52,-65.16 303.07,-66.06 295.38,-58.78 292.52,-65.16"/>
</a>
</g>
</g>
</g>
</svg>
