<?xml version="1.0" encoding="UTF-8" standalone="no"?>
<!DOCTYPE svg PUBLIC "-//W3C//DTD SVG 1.1//EN"
 "http://www.w3.org/Graphics/SVG/1.1/DTD/svg11.dtd">
<!-- Generated by graphviz version 8.1.0 (20230707.0739)
 -->
<!-- Title: src/bulk/provider/bulk_translator.hpp Pages: 1 -->
<!--zoomable 223 -->

<svg id="main" version="1.1" xmlns="http://www.w3.org/2000/svg" xmlns:xlink="http://www.w3.org/1999/xlink" xml:space="preserve" onload="init(evt)">
<style type="text/css"><![CDATA[
.node, .edge {opacity: 0.7;}
.node.selected, .edge.selected {opacity: 1;}
.edge:hover path { stroke: red; }
.edge:hover polygon { stroke: red; fill: red; }
]]></style>

<defs>
  <circle id="rim" cx="0" cy="0" r="7"/>
  <circle id="rim2" cx="0" cy="0" r="3.5"/>
  <g id="zoomPlus">
    <use xlink:href="#rim" fill="#404040"><set attributeName="fill" to="#808080" begin="zoomplus.mouseover" end="zoomplus.mouseout"/></use>
    <path d="M-4,0h8M0,-4v8" fill="none" stroke="white" stroke-width="1.5" pointer-events="none"/>
  </g>
  <g id="zoomMin">
    <use xlink:href="#rim" fill="#404040"><set attributeName="fill" to="#808080" begin="zoomminus.mouseover" end="zoomminus.mouseout"/></use>
    <path d="M-4,0h8" fill="none" stroke="white" stroke-width="1.5" pointer-events="none"/>
  </g>
  <g id="arrowUp" transform="translate(30 24)">
    <use xlink:href="#rim"/>
    <path pointer-events="none" fill="none" stroke="white" stroke-width="1.5" d="M0,-3.0v7 M-2.5,-0.5L0,-3.0L2.5,-0.5"/>
  </g>
  <g id="arrowRight" transform="rotate(90) translate(36 -43)">
    <use xlink:href="#rim"/>
    <path pointer-events="none" fill="none" stroke="white" stroke-width="1.5" d="M0,-3.0v7 M-2.5,-0.5L0,-3.0L2.5,-0.5"/>
  </g>
  <g id="arrowDown" transform="rotate(180) translate(-30 -48)">
    <use xlink:href="#rim"/>
    <path pointer-events="none" fill="none" stroke="white" stroke-width="1.5" d="M0,-3.0v7 M-2.5,-0.5L0,-3.0L2.5,-0.5"/>
  </g>
  <g id="arrowLeft" transform="rotate(270) translate(-36 17)">
    <use xlink:href="#rim"/>
    <path pointer-events="none" fill="none" stroke="white" stroke-width="1.5" d="M0,-3.0v7 M-2.5,-0.5L0,-3.0L2.5,-0.5"/>
  </g>
  <g id="resetDef">
    <use xlink:href="#rim2" fill="#404040"><set attributeName="fill" to="#808080" begin="reset.mouseover" end="reset.mouseout"/></use>
  </g>
</defs>
<script type="application/ecmascript">
var viewWidth = 694;
var viewHeight = 223;
var sectionId = 'dynsection-0';
</script>
<script type="application/ecmascript" xlink:href="svg.min.js"/>
<svg id="graph" class="graph">
<g id="viewport">
<title>src/bulk/provider/bulk_translator.hpp</title>
<!-- Node1 -->
<g id="Node000001" class="node">
<title>Node1</title>
<g id="a_Node000001"><a xlink:title=" ">
<polygon fill="#999999" stroke="#666666" points="342.38,-215 233.38,-215 233.38,-177 342.38,-177 342.38,-215"/>
<text text-anchor="start" x="241.38" y="-201.5" font-family="Helvetica,sans-Serif" font-size="10.00">src/bulk/provider/bulk</text>
<text text-anchor="middle" x="287.88" y="-186.5" font-family="Helvetica,sans-Serif" font-size="10.00">_translator.hpp</text>
</a>
</g>
</g>
<!-- Node2 -->
<g id="Node000002" class="node">
<title>Node2</title>
<g id="a_Node000002"><a xlink:title=" ">
<polygon fill="#e0e0e0" stroke="#999999" points="61.75,-141 0,-141 0,-118 61.75,-118 61.75,-141"/>
<text text-anchor="middle" x="30.88" y="-127.5" font-family="Helvetica,sans-Serif" font-size="10.00">type_traits</text>
</a>
</g>
</g>
<!-- Node1&#45;&gt;Node2 -->
<g id="edge1_Node000001_Node000002" class="edge">
<title>Node1&#45;&gt;Node2</title>
<g id="a_edge1_Node000001_Node000002"><a xlink:title=" ">
<path fill="none" stroke="#63b8ff" d="M233.06,-181.24C185.08,-169.2 116.42,-151.97 72.74,-141.01"/>
<polygon fill="#63b8ff" stroke="#63b8ff" points="73.76,-137.4 63.2,-138.36 72.05,-144.19 73.76,-137.4"/>
</a>
</g>
</g>
<!-- Node3 -->
<g id="Node000003" class="node">
<title>Node3</title>
<g id="a_Node000003"><a xlink:title=" ">
<polygon fill="#e0e0e0" stroke="#999999" points="87.12,-23 42.62,-23 42.62,0 87.12,0 87.12,-23"/>
<text text-anchor="middle" x="64.88" y="-9.5" font-family="Helvetica,sans-Serif" font-size="10.00">variant</text>
</a>
</g>
</g>
<!-- Node1&#45;&gt;Node3 -->
<g id="edge2_Node000001_Node000003" class="edge">
<title>Node1&#45;&gt;Node3</title>
<g id="a_edge2_Node000001_Node000003"><a xlink:title=" ">
<path fill="none" stroke="#63b8ff" d="M233.02,-186.03C201.14,-178.49 161.86,-164.94 133.88,-141 99.88,-111.92 79.95,-61.78 70.85,-33.5"/>
<polygon fill="#63b8ff" stroke="#63b8ff" points="73.97,-32.71 67.71,-24.16 67.27,-34.75 73.97,-32.71"/>
</a>
</g>
</g>
<!-- Node4 -->
<g id="Node000004" class="node">
<title>Node4</title>
<g id="a_Node000004"><a xlink:title=" ">
<polygon fill="#e0e0e0" stroke="#999999" points="501,-82 458.75,-82 458.75,-59 501,-59 501,-82"/>
<text text-anchor="middle" x="479.88" y="-68.5" font-family="Helvetica,sans-Serif" font-size="10.00">vector</text>
</a>
</g>
</g>
<!-- Node1&#45;&gt;Node4 -->
<g id="edge3_Node000001_Node000004" class="edge">
<title>Node1&#45;&gt;Node4</title>
<g id="a_edge3_Node000001_Node000004"><a xlink:title=" ">
<path fill="none" stroke="#63b8ff" d="M342.77,-185.03C373.65,-177.2 411.4,-163.7 438.88,-141 454.43,-128.15 465.46,-107.75 472.13,-92.38"/>
<polygon fill="#63b8ff" stroke="#63b8ff" points="475.73,-93.83 476.22,-83.24 469.24,-91.21 475.73,-93.83"/>
</a>
</g>
</g>
<!-- Node5 -->
<g id="Node000005" class="node">
<title>Node5</title>
<g id="a_Node000005"><a xlink:href="token__event_8hpp.html" target="_top" xlink:title=" ">
<polygon fill="white" stroke="#666666" points="282,-141 155.75,-141 155.75,-118 282,-118 282,-141"/>
<text text-anchor="middle" x="218.88" y="-127.5" font-family="Helvetica,sans-Serif" font-size="10.00">../../cmd/token_event.hpp</text>
</a>
</g>
</g>
<!-- Node1&#45;&gt;Node5 -->
<g id="edge4_Node000001_Node000005" class="edge">
<title>Node1&#45;&gt;Node5</title>
<g id="a_edge4_Node000001_Node000005"><a xlink:title=" ">
<path fill="none" stroke="#63b8ff" d="M268.29,-176.69C258.89,-167.91 247.67,-157.42 238.3,-148.65"/>
<polygon fill="#63b8ff" stroke="#63b8ff" points="241.01,-146.46 231.31,-142.19 236.23,-151.58 241.01,-146.46"/>
</a>
</g>
</g>
<!-- Node10 -->
<g id="Node000010" class="node">
<title>Node10</title>
<g id="a_Node000010"><a xlink:href="overload_8hpp.html" target="_top" xlink:title=" ">
<polygon fill="white" stroke="#666666" points="206.25,-23 105.5,-23 105.5,0 206.25,0 206.25,-23"/>
<text text-anchor="middle" x="155.88" y="-9.5" font-family="Helvetica,sans-Serif" font-size="10.00">../utils/overload.hpp</text>
</a>
</g>
</g>
<!-- Node1&#45;&gt;Node10 -->
<g id="edge17_Node000001_Node000010" class="edge">
<title>Node1&#45;&gt;Node10</title>
<g id="a_edge17_Node000001_Node000010"><a xlink:title=" ">
<path fill="none" stroke="#63b8ff" d="M233.06,-189.04C202.25,-182.56 166.19,-169.08 146.88,-141 124.71,-108.77 137.03,-60.6 147.06,-33.31"/>
<polygon fill="#63b8ff" stroke="#63b8ff" points="150.59,-34.91 150.98,-24.32 144.07,-32.35 150.59,-34.91"/>
</a>
</g>
</g>
<!-- Node11 -->
<g id="Node000011" class="node">
<title>Node11</title>
<g id="a_Node000011"><a xlink:href="publisher_8hpp.html" target="_top" xlink:title=" ">
<polygon fill="white" stroke="#666666" points="413.62,-141 300.12,-141 300.12,-118 413.62,-118 413.62,-141"/>
<text text-anchor="middle" x="356.88" y="-127.5" font-family="Helvetica,sans-Serif" font-size="10.00">../../core/publisher.hpp</text>
</a>
</g>
</g>
<!-- Node1&#45;&gt;Node11 -->
<g id="edge11_Node000001_Node000011" class="edge">
<title>Node1&#45;&gt;Node11</title>
<g id="a_edge11_Node000001_Node000011"><a xlink:title=" ">
<path fill="none" stroke="#63b8ff" d="M307.46,-176.69C316.86,-167.91 328.08,-157.42 337.45,-148.65"/>
<polygon fill="#63b8ff" stroke="#63b8ff" points="339.52,-151.58 344.44,-142.19 334.74,-146.46 339.52,-151.58"/>
</a>
</g>
</g>
<!-- Node13 -->
<g id="Node000013" class="node">
<title>Node13</title>
<g id="a_Node000013"><a xlink:href="subscriber_8hpp.html" target="_top" xlink:title=" ">
<polygon fill="white" stroke="#666666" points="440.75,-82 361,-82 361,-59 440.75,-59 440.75,-82"/>
<text text-anchor="middle" x="400.88" y="-68.5" font-family="Helvetica,sans-Serif" font-size="10.00">subscriber.hpp</text>
</a>
</g>
</g>
<!-- Node1&#45;&gt;Node13 -->
<g id="edge16_Node000001_Node000013" class="edge">
<title>Node1&#45;&gt;Node13</title>
<g id="a_edge16_Node000001_Node000013"><a xlink:title=" ">
<path fill="none" stroke="#63b8ff" d="M342.82,-187.82C371.8,-180.94 404.97,-167.44 422.88,-141 433.06,-125.96 424.9,-105.93 415.78,-91.24"/>
<polygon fill="#63b8ff" stroke="#63b8ff" points="418.33,-89.77 409.82,-83.46 412.54,-93.7 418.33,-89.77"/>
</a>
</g>
</g>
<!-- Node15 -->
<g id="Node000015" class="node">
<title>Node15</title>
<g id="a_Node000015"><a xlink:href="bulk__event_8hpp.html" target="_top" xlink:title=" ">
<polygon fill="white" stroke="#666666" points="598,-141 507.75,-141 507.75,-118 598,-118 598,-141"/>
<text text-anchor="middle" x="552.88" y="-127.5" font-family="Helvetica,sans-Serif" font-size="10.00">../bulk_event.hpp</text>
</a>
</g>
</g>
<!-- Node1&#45;&gt;Node15 -->
<g id="edge18_Node000001_Node000015" class="edge">
<title>Node1&#45;&gt;Node15</title>
<g id="a_edge18_Node000001_Node000015"><a xlink:title=" ">
<path fill="none" stroke="#63b8ff" d="M342.78,-181.64C387.98,-170.64 451.76,-155.11 497.17,-144.06"/>
<polygon fill="#63b8ff" stroke="#63b8ff" points="497.83,-147.26 506.72,-141.49 496.18,-140.45 497.83,-147.26"/>
</a>
</g>
</g>
<!-- Node6 -->
<g id="Node000006" class="node">
<title>Node6</title>
<g id="a_Node000006"><a xlink:href="token_8hpp.html" target="_top" xlink:title=" ">
<polygon fill="white" stroke="#666666" points="259.88,-82 201.88,-82 201.88,-59 259.88,-59 259.88,-82"/>
<text text-anchor="middle" x="230.88" y="-68.5" font-family="Helvetica,sans-Serif" font-size="10.00">token.hpp</text>
</a>
</g>
</g>
<!-- Node5&#45;&gt;Node6 -->
<g id="edge5_Node000005_Node000006" class="edge">
<title>Node5&#45;&gt;Node6</title>
<g id="a_edge5_Node000005_Node000006"><a xlink:title=" ">
<path fill="none" stroke="#63b8ff" d="M221.19,-117.51C222.65,-110.57 224.59,-101.37 226.34,-93.02"/>
<polygon fill="#63b8ff" stroke="#63b8ff" points="229.93,-93.96 228.57,-83.46 223.08,-92.52 229.93,-93.96"/>
</a>
</g>
</g>
<!-- Node6&#45;&gt;Node3 -->
<g id="edge9_Node000006_Node000003" class="edge">
<title>Node6&#45;&gt;Node3</title>
<g id="a_edge9_Node000006_Node000003"><a xlink:title=" ">
<path fill="none" stroke="#63b8ff" d="M201.58,-59.44C172.44,-49.43 127.82,-34.11 97.55,-23.72"/>
<polygon fill="#63b8ff" stroke="#63b8ff" points="99.08,-20.2 88.49,-20.26 96.81,-26.82 99.08,-20.2"/>
</a>
</g>
</g>
<!-- Node7 -->
<g id="Node000007" class="node">
<title>Node7</title>
<g id="a_Node000007"><a xlink:title=" ">
<polygon fill="#e0e0e0" stroke="#999999" points="325.75,-23 282,-23 282,0 325.75,0 325.75,-23"/>
<text text-anchor="middle" x="303.88" y="-9.5" font-family="Helvetica,sans-Serif" font-size="10.00">format</text>
</a>
</g>
</g>
<!-- Node6&#45;&gt;Node7 -->
<g id="edge6_Node000006_Node000007" class="edge">
<title>Node6&#45;&gt;Node7</title>
<g id="a_edge6_Node000006_Node000007"><a xlink:title=" ">
<path fill="none" stroke="#63b8ff" d="M244.95,-58.51C255.25,-50.47 269.44,-39.39 281.32,-30.11"/>
<polygon fill="#63b8ff" stroke="#63b8ff" points="283.12,-32.37 288.84,-23.46 278.81,-26.85 283.12,-32.37"/>
</a>
</g>
</g>
<!-- Node8 -->
<g id="Node000008" class="node">
<title>Node8</title>
<g id="a_Node000008"><a xlink:title=" ">
<polygon fill="#e0e0e0" stroke="#999999" points="395.5,-23 344.25,-23 344.25,0 395.5,0 395.5,-23"/>
<text text-anchor="middle" x="369.88" y="-9.5" font-family="Helvetica,sans-Serif" font-size="10.00">ostream</text>
</a>
</g>
</g>
<!-- Node6&#45;&gt;Node8 -->
<g id="edge7_Node000006_Node000008" class="edge">
<title>Node6&#45;&gt;Node8</title>
<g id="a_edge7_Node000006_Node000008"><a xlink:title=" ">
<path fill="none" stroke="#63b8ff" d="M257.68,-58.51C279.39,-49.6 310.19,-36.98 334.02,-27.2"/>
<polygon fill="#63b8ff" stroke="#63b8ff" points="335.17,-30.1 343.1,-23.07 332.52,-23.63 335.17,-30.1"/>
</a>
</g>
</g>
<!-- Node9 -->
<g id="Node000009" class="node">
<title>Node9</title>
<g id="a_Node000009"><a xlink:title=" ">
<polygon fill="#e0e0e0" stroke="#999999" points="263.88,-23 223.88,-23 223.88,0 263.88,0 263.88,-23"/>
<text text-anchor="middle" x="243.88" y="-9.5" font-family="Helvetica,sans-Serif" font-size="10.00">string</text>
</a>
</g>
</g>
<!-- Node6&#45;&gt;Node9 -->
<g id="edge8_Node000006_Node000009" class="edge">
<title>Node6&#45;&gt;Node9</title>
<g id="a_edge8_Node000006_Node000009"><a xlink:title=" ">
<path fill="none" stroke="#63b8ff" d="M233.38,-58.51C234.96,-51.57 237.06,-42.37 238.97,-34.02"/>
<polygon fill="#63b8ff" stroke="#63b8ff" points="242.56,-34.98 241.38,-24.46 235.74,-33.43 242.56,-34.98"/>
</a>
</g>
</g>
<!-- Node6&#45;&gt;Node10 -->
<g id="edge10_Node000006_Node000010" class="edge">
<title>Node6&#45;&gt;Node10</title>
<g id="a_edge10_Node000006_Node000010"><a xlink:title=" ">
<path fill="none" stroke="#63b8ff" d="M216.41,-58.51C205.73,-50.39 190.96,-39.17 178.69,-29.84"/>
<polygon fill="#63b8ff" stroke="#63b8ff" points="181.37,-26.72 171.29,-23.46 177.14,-32.29 181.37,-26.72"/>
</a>
</g>
</g>
<!-- Node12 -->
<g id="Node000012" class="node">
<title>Node12</title>
<g id="a_Node000012"><a xlink:title=" ">
<polygon fill="#e0e0e0" stroke="#999999" points="343.27,-82 314.48,-82 314.48,-59 343.27,-59 343.27,-82"/>
<text text-anchor="middle" x="328.88" y="-68.5" font-family="Helvetica,sans-Serif" font-size="10.00">list</text>
</a>
</g>
</g>
<!-- Node11&#45;&gt;Node12 -->
<g id="edge12_Node000011_Node000012" class="edge">
<title>Node11&#45;&gt;Node12</title>
<g id="a_edge12_Node000011_Node000012"><a xlink:title=" ">
<path fill="none" stroke="#63b8ff" d="M351.48,-117.51C347.95,-110.33 343.24,-100.74 339.03,-92.17"/>
<polygon fill="#63b8ff" stroke="#63b8ff" points="341.81,-90.89 334.26,-83.46 335.52,-93.98 341.81,-90.89"/>
</a>
</g>
</g>
<!-- Node11&#45;&gt;Node13 -->
<g id="edge13_Node000011_Node000013" class="edge">
<title>Node11&#45;&gt;Node13</title>
<g id="a_edge13_Node000011_Node000013"><a xlink:title=" ">
<path fill="none" stroke="#63b8ff" d="M365.36,-117.51C371.14,-110.02 378.96,-99.89 385.79,-91.05"/>
<polygon fill="#63b8ff" stroke="#63b8ff" points="389.08,-93.51 392.42,-83.46 383.54,-89.23 389.08,-93.51"/>
</a>
</g>
</g>
<!-- Node13&#45;&gt;Node7 -->
<g id="edge14_Node000013_Node000007" class="edge">
<title>Node13&#45;&gt;Node7</title>
<g id="a_edge14_Node000013_Node000007"><a xlink:title=" ">
<path fill="none" stroke="#63b8ff" d="M382.17,-58.51C367.81,-50.07 347.77,-38.29 331.55,-28.76"/>
<polygon fill="#63b8ff" stroke="#63b8ff" points="333.92,-25.51 323.52,-23.46 330.37,-31.54 333.92,-25.51"/>
</a>
</g>
</g>
<!-- Node14 -->
<g id="Node000014" class="node">
<title>Node14</title>
<g id="a_Node000014"><a xlink:title=" ">
<polygon fill="#e0e0e0" stroke="#999999" points="464.12,-23 413.62,-23 413.62,0 464.12,0 464.12,-23"/>
<text text-anchor="middle" x="438.88" y="-9.5" font-family="Helvetica,sans-Serif" font-size="10.00">typeinfo</text>
</a>
</g>
</g>
<!-- Node13&#45;&gt;Node14 -->
<g id="edge15_Node000013_Node000014" class="edge">
<title>Node13&#45;&gt;Node14</title>
<g id="a_edge15_Node000013_Node000014"><a xlink:title=" ">
<path fill="none" stroke="#63b8ff" d="M408.2,-58.51C413.09,-51.18 419.66,-41.32 425.47,-32.61"/>
<polygon fill="#63b8ff" stroke="#63b8ff" points="428.94,-34.72 431.57,-24.46 423.11,-30.84 428.94,-34.72"/>
</a>
</g>
</g>
<!-- Node15&#45;&gt;Node4 -->
<g id="edge22_Node000015_Node000004" class="edge">
<title>Node15&#45;&gt;Node4</title>
<g id="a_edge22_Node000015_Node000004"><a xlink:title=" ">
<path fill="none" stroke="#63b8ff" d="M538.8,-117.51C528.5,-109.47 514.31,-98.39 502.43,-89.11"/>
<polygon fill="#63b8ff" stroke="#63b8ff" points="504.94,-85.85 494.91,-82.46 500.63,-91.37 504.94,-85.85"/>
</a>
</g>
</g>
<!-- Node15&#45;&gt;Node8 -->
<g id="edge20_Node000015_Node000008" class="edge">
<title>Node15&#45;&gt;Node8</title>
<g id="a_edge20_Node000015_Node000008"><a xlink:title=" ">
<path fill="none" stroke="#63b8ff" d="M548.95,-117.69C542.89,-102.45 529.8,-74.75 509.88,-59 505.64,-55.65 446.3,-36.56 406.24,-23.9"/>
<polygon fill="#63b8ff" stroke="#63b8ff" points="407.36,-20.27 396.77,-20.6 405.26,-26.94 407.36,-20.27"/>
</a>
</g>
</g>
<!-- Node16 -->
<g id="Node000016" class="node">
<title>Node16</title>
<g id="a_Node000016"><a xlink:title=" ">
<polygon fill="#e0e0e0" stroke="#999999" points="602.5,-82 557.25,-82 557.25,-59 602.5,-59 602.5,-82"/>
<text text-anchor="middle" x="579.88" y="-68.5" font-family="Helvetica,sans-Serif" font-size="10.00">chrono</text>
</a>
</g>
</g>
<!-- Node15&#45;&gt;Node16 -->
<g id="edge19_Node000015_Node000016" class="edge">
<title>Node15&#45;&gt;Node16</title>
<g id="a_edge19_Node000015_Node000016"><a xlink:title=" ">
<path fill="none" stroke="#63b8ff" d="M558.08,-117.51C561.48,-110.33 566.02,-100.74 570.08,-92.17"/>
<polygon fill="#63b8ff" stroke="#63b8ff" points="573.57,-93.99 574.69,-83.46 567.24,-91 573.57,-93.99"/>
</a>
</g>
</g>
<!-- Node17 -->
<g id="Node000017" class="node">
<title>Node17</title>
<g id="a_Node000017"><a xlink:title=" ">
<polygon fill="#e0e0e0" stroke="#999999" points="685.62,-82 620.12,-82 620.12,-59 685.62,-59 685.62,-82"/>
<text text-anchor="middle" x="652.88" y="-68.5" font-family="Helvetica,sans-Serif" font-size="10.00">string_view</text>
</a>
</g>
</g>
<!-- Node15&#45;&gt;Node17 -->
<g id="edge21_Node000015_Node000017" class="edge">
<title>Node15&#45;&gt;Node17</title>
<g id="a_edge21_Node000015_Node000017"><a xlink:title=" ">
<path fill="none" stroke="#63b8ff" d="M572.16,-117.51C586.96,-109.07 607.63,-97.29 624.34,-87.76"/>
<polygon fill="#63b8ff" stroke="#63b8ff" points="625.7,-90.45 632.65,-82.46 622.23,-84.37 625.7,-90.45"/>
</a>
</g>
</g>
</g>
</svg>

<g id="navigator" transform="translate(0 0)" fill="#404254">
  <rect fill="#f2f5e9" fill-opacity="0.5" stroke="#606060" stroke-width=".5" x="0" y="0" width="60" height="60"/>
  <use id="zoomplus" xlink:href="#zoomPlus" x="17" y="9" onmousedown="handleZoom(evt,'in')"/>
  <use id="zoomminus" xlink:href="#zoomMin" x="42" y="9" onmousedown="handleZoom(evt,'out')"/>
  <use id="reset" xlink:href="#resetDef" x="30" y="36" onmousedown="handleReset()"/>
   <use id="arrowup" xlink:href="#arrowUp" x="0" y="0" onmousedown="handlePan(0,-1)"/>
  <use id="arrowright" xlink:href="#arrowRight" x="0" y="0" onmousedown="handlePan(1,0)"/>
  <use id="arrowdown" xlink:href="#arrowDown" x="0" y="0" onmousedown="handlePan(0,1)"/>
  <use id="arrowleft" xlink:href="#arrowLeft" x="0" y="0" onmousedown="handlePan(-1,0)"/>
</g>
<svg viewBox="0 0 15 15" width="100%" height="30px" preserveAspectRatio="xMaxYMin meet">
 <g id="arrow_out" transform="scale(0.3 0.3)">
  <a xlink:href="bulk__translator_8hpp__incl_org.svg" target="_base">
   <rect id="button" ry="5" rx="5" y="6" x="6" height="38" width="38"
        fill="#f2f5e9" fill-opacity="0.5" stroke="#606060" stroke-width="1.0"/>
   <path id="arrow"
     d="M 11.500037,31.436501 C 11.940474,20.09759 22.043105,11.32322 32.158766,21.979434 L 37.068811,17.246167 C 37.068811,17.246167 37.088388,32 37.088388,32 L 22.160133,31.978069 C 22.160133,31.978069 26.997745,27.140456 26.997745,27.140456 C 18.528582,18.264221 13.291696,25.230495 11.500037,31.436501 z"
     style="fill:#404040;"/>
  </a>
 </g>
</svg>

<style type='text/css'>
<![CDATA[
[data-mouse-over-selected='false'] { opacity: 0.7; }
[data-mouse-over-selected='true']  { opacity: 1.0; }
]]>
</style>
<script type="application/ecmascript"><![CDATA[
document.addEventListener('DOMContentLoaded', (event) => {
  highlightEdges();
  highlightAdjacentNodes();
});
]]></script>
</svg>
