<?xml version="1.0" encoding="UTF-8" standalone="no"?>
<!DOCTYPE svg PUBLIC "-//W3C//DTD SVG 1.1//EN"
 "http://www.w3.org/Graphics/SVG/1.1/DTD/svg11.dtd">
<!-- Generated by graphviz version 8.1.0 (20230707.0739)
 -->
<!-- Title: src/bulk/bulk_event.hpp Pages: 1 -->
<svg width="266pt" height="90pt"
 viewBox="0.00 0.00 265.75 90.00" xmlns="http://www.w3.org/2000/svg" xmlns:xlink="http://www.w3.org/1999/xlink">
<g id="graph0" class="graph" transform="scale(1 1) rotate(0) translate(4 86)">
<title>src/bulk/bulk_event.hpp</title>
<!-- Node1 -->
<g id="Node000001" class="node">
<title>Node1</title>
<g id="a_Node000001"><a xlink:title=" ">
<polygon fill="#999999" stroke="#666666" points="186,-82 67.25,-82 67.25,-59 186,-59 186,-82"/>
<text text-anchor="middle" x="126.62" y="-68.5" font-family="Helvetica,sans-Serif" font-size="10.00">src/bulk/bulk_event.hpp</text>
</a>
</g>
</g>
<!-- Node2 -->
<g id="Node000002" class="node">
<title>Node2</title>
<g id="a_Node000002"><a xlink:title=" ">
<polygon fill="#e0e0e0" stroke="#999999" points="45.25,-23 0,-23 0,0 45.25,0 45.25,-23"/>
<text text-anchor="middle" x="22.62" y="-9.5" font-family="Helvetica,sans-Serif" font-size="10.00">chrono</text>
</a>
</g>
</g>
<!-- Node1&#45;&gt;Node2 -->
<g id="edge1_Node000001_Node000002" class="edge">
<title>Node1&#45;&gt;Node2</title>
<g id="a_edge1_Node000001_Node000002"><a xlink:title=" ">
<path fill="none" stroke="#63b8ff" d="M106.57,-58.51C91.03,-49.99 69.28,-38.07 51.81,-28.5"/>
<polygon fill="#63b8ff" stroke="#63b8ff" points="54.07,-25.19 43.62,-23.46 50.7,-31.33 54.07,-25.19"/>
</a>
</g>
</g>
<!-- Node3 -->
<g id="Node000003" class="node">
<title>Node3</title>
<g id="a_Node000003"><a xlink:title=" ">
<polygon fill="#e0e0e0" stroke="#999999" points="114.25,-23 63,-23 63,0 114.25,0 114.25,-23"/>
<text text-anchor="middle" x="88.62" y="-9.5" font-family="Helvetica,sans-Serif" font-size="10.00">ostream</text>
</a>
</g>
</g>
<!-- Node1&#45;&gt;Node3 -->
<g id="edge2_Node000001_Node000003" class="edge">
<title>Node1&#45;&gt;Node3</title>
<g id="a_edge2_Node000001_Node000003"><a xlink:title=" ">
<path fill="none" stroke="#63b8ff" d="M119.3,-58.51C114.41,-51.18 107.84,-41.32 102.03,-32.61"/>
<polygon fill="#63b8ff" stroke="#63b8ff" points="104.39,-30.84 95.93,-24.46 98.56,-34.72 104.39,-30.84"/>
</a>
</g>
</g>
<!-- Node4 -->
<g id="Node000004" class="node">
<title>Node4</title>
<g id="a_Node000004"><a xlink:title=" ">
<polygon fill="#e0e0e0" stroke="#999999" points="197.38,-23 131.88,-23 131.88,0 197.38,0 197.38,-23"/>
<text text-anchor="middle" x="164.62" y="-9.5" font-family="Helvetica,sans-Serif" font-size="10.00">string_view</text>
</a>
</g>
</g>
<!-- Node1&#45;&gt;Node4 -->
<g id="edge3_Node000001_Node000004" class="edge">
<title>Node1&#45;&gt;Node4</title>
<g id="a_edge3_Node000001_Node000004"><a xlink:title=" ">
<path fill="none" stroke="#63b8ff" d="M133.95,-58.51C138.84,-51.18 145.41,-41.32 151.22,-32.61"/>
<polygon fill="#63b8ff" stroke="#63b8ff" points="154.69,-34.72 157.32,-24.46 148.86,-30.84 154.69,-34.72"/>
</a>
</g>
</g>
<!-- Node5 -->
<g id="Node000005" class="node">
<title>Node5</title>
<g id="a_Node000005"><a xlink:title=" ">
<polygon fill="#e0e0e0" stroke="#999999" points="257.75,-23 215.5,-23 215.5,0 257.75,0 257.75,-23"/>
<text text-anchor="middle" x="236.62" y="-9.5" font-family="Helvetica,sans-Serif" font-size="10.00">vector</text>
</a>
</g>
</g>
<!-- Node1&#45;&gt;Node5 -->
<g id="edge4_Node000001_Node000005" class="edge">
<title>Node1&#45;&gt;Node5</title>
<g id="a_edge4_Node000001_Node000005"><a xlink:title=" ">
<path fill="none" stroke="#63b8ff" d="M147.83,-58.51C164.27,-49.99 187.28,-38.07 205.75,-28.5"/>
<polygon fill="#63b8ff" stroke="#63b8ff" points="207.21,-31.16 214.48,-23.46 203.99,-24.95 207.21,-31.16"/>
</a>
</g>
</g>
</g>
</svg>
