<?xml version="1.0" encoding="UTF-8" standalone="no"?>
<!DOCTYPE svg PUBLIC "-//W3C//DTD SVG 1.1//EN"
 "http://www.w3.org/Graphics/SVG/1.1/DTD/svg11.dtd">
<!-- Generated by graphviz version 8.1.0 (20230707.0739)
 -->
<!-- Title: cmd::provider::ConsoleParser::run Pages: 1 -->
<!--zoomable 172 -->

<svg id="main" version="1.1" xmlns="http://www.w3.org/2000/svg" xmlns:xlink="http://www.w3.org/1999/xlink" xml:space="preserve" onload="init(evt)">
<style type="text/css"><![CDATA[
.node, .edge {opacity: 0.7;}
.node.selected, .edge.selected {opacity: 1;}
.edge:hover path { stroke: red; }
.edge:hover polygon { stroke: red; fill: red; }
]]></style>

<defs>
  <circle id="rim" cx="0" cy="0" r="7"/>
  <circle id="rim2" cx="0" cy="0" r="3.5"/>
  <g id="zoomPlus">
    <use xlink:href="#rim" fill="#404040"><set attributeName="fill" to="#808080" begin="zoomplus.mouseover" end="zoomplus.mouseout"/></use>
    <path d="M-4,0h8M0,-4v8" fill="none" stroke="white" stroke-width="1.5" pointer-events="none"/>
  </g>
  <g id="zoomMin">
    <use xlink:href="#rim" fill="#404040"><set attributeName="fill" to="#808080" begin="zoomminus.mouseover" end="zoomminus.mouseout"/></use>
    <path d="M-4,0h8" fill="none" stroke="white" stroke-width="1.5" pointer-events="none"/>
  </g>
  <g id="arrowUp" transform="translate(30 24)">
    <use xlink:href="#rim"/>
    <path pointer-events="none" fill="none" stroke="white" stroke-width="1.5" d="M0,-3.0v7 M-2.5,-0.5L0,-3.0L2.5,-0.5"/>
  </g>
  <g id="arrowRight" transform="rotate(90) translate(36 -43)">
    <use xlink:href="#rim"/>
    <path pointer-events="none" fill="none" stroke="white" stroke-width="1.5" d="M0,-3.0v7 M-2.5,-0.5L0,-3.0L2.5,-0.5"/>
  </g>
  <g id="arrowDown" transform="rotate(180) translate(-30 -48)">
    <use xlink:href="#rim"/>
    <path pointer-events="none" fill="none" stroke="white" stroke-width="1.5" d="M0,-3.0v7 M-2.5,-0.5L0,-3.0L2.5,-0.5"/>
  </g>
  <g id="arrowLeft" transform="rotate(270) translate(-36 17)">
    <use xlink:href="#rim"/>
    <path pointer-events="none" fill="none" stroke="white" stroke-width="1.5" d="M0,-3.0v7 M-2.5,-0.5L0,-3.0L2.5,-0.5"/>
  </g>
  <g id="resetDef">
    <use xlink:href="#rim2" fill="#404040"><set attributeName="fill" to="#808080" begin="reset.mouseover" end="reset.mouseout"/></use>
  </g>
</defs>
<script type="application/ecmascript">
var viewWidth = 558;
var viewHeight = 172;
var sectionId = 'dynsection-5';
</script>
<script type="application/ecmascript" xlink:href="svg.min.js"/>
<svg id="graph" class="graph">
<g id="viewport">
<title>cmd::provider::ConsoleParser::run</title>
<!-- Node1 -->
<g id="Node000001" class="node">
<title>Node1</title>
<g id="a_Node000001"><a xlink:title="parse all input stream passed to ctor while at least one subscriber is alive">
<polygon fill="#999999" stroke="#666666" points="165.25,-86.5 0,-86.5 0,-63.5 165.25,-63.5 165.25,-86.5"/>
<text text-anchor="middle" x="82.62" y="-73" font-family="Helvetica,sans-Serif" font-size="10.00">cmd::provider::ConsoleParser::run</text>
</a>
</g>
</g>
<!-- Node2 -->
<g id="Node000002" class="node">
<title>Node2</title>
<g id="a_Node000002"><a xlink:href="classcmd_1_1provider_1_1ConsoleParser.html#a6fe1081ace8221b60aa8f996d9c91099" target="_top" xlink:title=" ">
<polygon fill="white" stroke="#666666" points="354.12,-150 208.38,-150 208.38,-112 354.12,-112 354.12,-150"/>
<text text-anchor="start" x="216.38" y="-136.5" font-family="Helvetica,sans-Serif" font-size="10.00">cmd::provider::ConsoleParser</text>
<text text-anchor="middle" x="281.25" y="-121.5" font-family="Helvetica,sans-Serif" font-size="10.00">::advance</text>
</a>
</g>
</g>
<!-- Node1&#45;&gt;Node2 -->
<g id="edge1_Node000001_Node000002" class="edge">
<title>Node1&#45;&gt;Node2</title>
<g id="a_edge1_Node000001_Node000002"><a xlink:title=" ">
<path fill="none" stroke="#63b8ff" d="M125.32,-86.88C147.52,-93.2 175.55,-101.18 201.65,-108.61"/>
<polygon fill="#63b8ff" stroke="#63b8ff" points="200.34,-112.17 210.92,-111.54 202.26,-105.43 200.34,-112.17"/>
</a>
</g>
</g>
<!-- Node6 -->
<g id="Node000006" class="node">
<title>Node6</title>
<g id="a_Node000006"><a xlink:href="classcore_1_1PublisherMixin.html#a49835882356b1bcd3e414c3ee2d49b81" target="_top" xlink:title=" ">
<polygon fill="white" stroke="#666666" points="361.25,-94 201.25,-94 201.25,-56 361.25,-56 361.25,-94"/>
<text text-anchor="start" x="209.25" y="-80.5" font-family="Helvetica,sans-Serif" font-size="10.00">core::PublisherMixin</text>
<text text-anchor="middle" x="281.25" y="-65.5" font-family="Helvetica,sans-Serif" font-size="10.00">&lt; TokenEvent &gt;::hasSubscription</text>
</a>
</g>
</g>
<!-- Node1&#45;&gt;Node6 -->
<g id="edge5_Node000001_Node000006" class="edge">
<title>Node1&#45;&gt;Node6</title>
<g id="a_edge5_Node000001_Node000006"><a xlink:title=" ">
<path fill="none" stroke="#63b8ff" d="M165.59,-75C173.72,-75 182.01,-75 190.22,-75"/>
<polygon fill="#63b8ff" stroke="#63b8ff" points="189.94,-78.5 199.94,-75 189.94,-71.5 189.94,-78.5"/>
</a>
</g>
</g>
<!-- Node7 -->
<g id="Node000007" class="node">
<title>Node7</title>
<g id="a_Node000007"><a xlink:href="classcore_1_1PublisherMixin.html#a27f123fa8c1a5dfd358bb3a3eed8f5a0" target="_top" xlink:title=" ">
<polygon fill="white" stroke="#666666" points="338.38,-38 224.12,-38 224.12,0 338.38,0 338.38,-38"/>
<text text-anchor="start" x="232.12" y="-24.5" font-family="Helvetica,sans-Serif" font-size="10.00">core::PublisherMixin</text>
<text text-anchor="middle" x="281.25" y="-9.5" font-family="Helvetica,sans-Serif" font-size="10.00">&lt; TokenEvent &gt;::notify</text>
</a>
</g>
</g>
<!-- Node1&#45;&gt;Node7 -->
<g id="edge6_Node000001_Node000007" class="edge">
<title>Node1&#45;&gt;Node7</title>
<g id="a_edge6_Node000001_Node000007"><a xlink:title=" ">
<path fill="none" stroke="#63b8ff" d="M125.32,-63.12C150.83,-55.86 184.04,-46.4 213.17,-38.11"/>
<polygon fill="#63b8ff" stroke="#63b8ff" points="214.03,-41.21 222.69,-35.11 212.11,-34.48 214.03,-41.21"/>
</a>
</g>
</g>
<!-- Node3 -->
<g id="Node000003" class="node">
<title>Node3</title>
<g id="a_Node000003"><a xlink:href="namespaceutils.html#af77d46f5a6a71518d18de591874f0456" target="_top" xlink:title=" ">
<polygon fill="white" stroke="#666666" points="453.75,-142.5 397.25,-142.5 397.25,-119.5 453.75,-119.5 453.75,-142.5"/>
<text text-anchor="middle" x="425.5" y="-129" font-family="Helvetica,sans-Serif" font-size="10.00">utils::trim</text>
</a>
</g>
</g>
<!-- Node2&#45;&gt;Node3 -->
<g id="edge2_Node000002_Node000003" class="edge">
<title>Node2&#45;&gt;Node3</title>
<g id="a_edge2_Node000002_Node000003"><a xlink:title=" ">
<path fill="none" stroke="#63b8ff" d="M354.21,-131C365.11,-131 375.98,-131 385.8,-131"/>
<polygon fill="#63b8ff" stroke="#63b8ff" points="385.78,-134.5 395.78,-131 385.78,-127.5 385.78,-134.5"/>
</a>
</g>
</g>
<!-- Node4 -->
<g id="Node000004" class="node">
<title>Node4</title>
<g id="a_Node000004"><a xlink:href="namespaceutils.html#abc67f95c776ecd87a570bc5c477a88ce" target="_top" xlink:title=" ">
<polygon fill="white" stroke="#666666" points="549.25,-163.5 490.5,-163.5 490.5,-140.5 549.25,-140.5 549.25,-163.5"/>
<text text-anchor="middle" x="519.88" y="-150" font-family="Helvetica,sans-Serif" font-size="10.00">utils::ltrim</text>
</a>
</g>
</g>
<!-- Node3&#45;&gt;Node4 -->
<g id="edge3_Node000003_Node000004" class="edge">
<title>Node3&#45;&gt;Node4</title>
<g id="a_edge3_Node000003_Node000004"><a xlink:title=" ">
<path fill="none" stroke="#63b8ff" d="M454.22,-137.3C462.21,-139.12 471.09,-141.14 479.65,-143.08"/>
<polygon fill="#63b8ff" stroke="#63b8ff" points="478.69,-146.68 489.22,-145.49 480.24,-139.86 478.69,-146.68"/>
</a>
</g>
</g>
<!-- Node5 -->
<g id="Node000005" class="node">
<title>Node5</title>
<g id="a_Node000005"><a xlink:href="namespaceutils.html#aaf24e560b46e53b9e45345d9e6c3244a" target="_top" xlink:title=" ">
<polygon fill="white" stroke="#666666" points="550,-122.5 489.75,-122.5 489.75,-99.5 550,-99.5 550,-122.5"/>
<text text-anchor="middle" x="519.88" y="-109" font-family="Helvetica,sans-Serif" font-size="10.00">utils::rtrim</text>
</a>
</g>
</g>
<!-- Node3&#45;&gt;Node5 -->
<g id="edge4_Node000003_Node000005" class="edge">
<title>Node3&#45;&gt;Node5</title>
<g id="a_edge4_Node000003_Node000005"><a xlink:title=" ">
<path fill="none" stroke="#63b8ff" d="M454.22,-125C461.98,-123.32 470.57,-121.46 478.89,-119.66"/>
<polygon fill="#63b8ff" stroke="#63b8ff" points="479.54,-122.88 488.57,-117.34 478.06,-116.04 479.54,-122.88"/>
</a>
</g>
</g>
</g>
</svg>

<g id="navigator" transform="translate(0 0)" fill="#404254">
  <rect fill="#f2f5e9" fill-opacity="0.5" stroke="#606060" stroke-width=".5" x="0" y="0" width="60" height="60"/>
  <use id="zoomplus" xlink:href="#zoomPlus" x="17" y="9" onmousedown="handleZoom(evt,'in')"/>
  <use id="zoomminus" xlink:href="#zoomMin" x="42" y="9" onmousedown="handleZoom(evt,'out')"/>
  <use id="reset" xlink:href="#resetDef" x="30" y="36" onmousedown="handleReset()"/>
   <use id="arrowup" xlink:href="#arrowUp" x="0" y="0" onmousedown="handlePan(0,-1)"/>
  <use id="arrowright" xlink:href="#arrowRight" x="0" y="0" onmousedown="handlePan(1,0)"/>
  <use id="arrowdown" xlink:href="#arrowDown" x="0" y="0" onmousedown="handlePan(0,1)"/>
  <use id="arrowleft" xlink:href="#arrowLeft" x="0" y="0" onmousedown="handlePan(-1,0)"/>
</g>
<svg viewBox="0 0 15 15" width="100%" height="30px" preserveAspectRatio="xMaxYMin meet">
 <g id="arrow_out" transform="scale(0.3 0.3)">
  <a xlink:href="classcmd_1_1provider_1_1ConsoleParser_a115637f7e4df3f4706246853783d2fe6_cgraph_org.svg" target="_base">
   <rect id="button" ry="5" rx="5" y="6" x="6" height="38" width="38"
        fill="#f2f5e9" fill-opacity="0.5" stroke="#606060" stroke-width="1.0"/>
   <path id="arrow"
     d="M 11.500037,31.436501 C 11.940474,20.09759 22.043105,11.32322 32.158766,21.979434 L 37.068811,17.246167 C 37.068811,17.246167 37.088388,32 37.088388,32 L 22.160133,31.978069 C 22.160133,31.978069 26.997745,27.140456 26.997745,27.140456 C 18.528582,18.264221 13.291696,25.230495 11.500037,31.436501 z"
     style="fill:#404040;"/>
  </a>
 </g>
</svg>

<style type='text/css'>
<![CDATA[
[data-mouse-over-selected='false'] { opacity: 0.7; }
[data-mouse-over-selected='true']  { opacity: 1.0; }
]]>
</style>
<script type="application/ecmascript"><![CDATA[
document.addEventListener('DOMContentLoaded', (event) => {
  highlightEdges();
  highlightAdjacentNodes();
});
]]></script>
</svg>
