<?xml version="1.0" encoding="UTF-8" standalone="no"?>
<!DOCTYPE svg PUBLIC "-//W3C//DTD SVG 1.1//EN"
 "http://www.w3.org/Graphics/SVG/1.1/DTD/svg11.dtd">
<!-- Generated by graphviz version 8.1.0 (20230707.0739)
 -->
<!-- Title: logs::OutputStreamWriter Pages: 1 -->
<svg width="635pt" height="1181pt"
 viewBox="0.00 0.00 634.50 1181.00" xmlns="http://www.w3.org/2000/svg" xmlns:xlink="http://www.w3.org/1999/xlink">
<g id="graph0" class="graph" transform="scale(1 1) rotate(0) translate(4 1177)">
<title>logs::OutputStreamWriter</title>
<!-- Node1 -->
<g id="Node000001" class="node">
<title>Node1</title>
<g id="a_Node000001"><a xlink:title=" ">
<polygon fill="#999999" stroke="none" points="357,-302 201,-302 201,0 357,0 357,-302"/>
<text text-anchor="start" x="223.88" y="-288.5" font-family="Helvetica,sans-Serif" font-size="10.00">logs::OutputStreamWriter</text>
<text text-anchor="start" x="277.5" y="-269.5" font-family="Helvetica,sans-Serif" font-size="10.00"> </text>
<text text-anchor="start" x="205" y="-250.5" font-family="Helvetica,sans-Serif" font-size="10.00">+</text>
<text text-anchor="start" x="215" y="-250.5" font-family="Helvetica,sans-Serif" font-size="10.00">core::SubscriptionStatus</text>
<text text-anchor="start" x="215" y="-235.5" font-family="Helvetica,sans-Serif" font-size="10.00"> onEvent(bulk::BulkEvent</text>
<text text-anchor="start" x="215" y="-220.5" font-family="Helvetica,sans-Serif" font-size="10.00"> const &amp;event) override</text>
<text text-anchor="start" x="205" y="-201.5" font-family="Helvetica,sans-Serif" font-size="10.00">+</text>
<text text-anchor="start" x="215" y="-201.5" font-family="Helvetica,sans-Serif" font-size="10.00">core::SubscriptionStatus</text>
<text text-anchor="start" x="215" y="-186.5" font-family="Helvetica,sans-Serif" font-size="10.00"> onEvent(cmd::TokenEvent</text>
<text text-anchor="start" x="215" y="-171.5" font-family="Helvetica,sans-Serif" font-size="10.00"> const &amp;event) override</text>
<text text-anchor="start" x="205" y="-152.5" font-family="Helvetica,sans-Serif" font-size="10.00">+</text>
<text text-anchor="start" x="215" y="-152.5" font-family="Helvetica,sans-Serif" font-size="10.00">static std::shared</text>
<text text-anchor="start" x="215" y="-137.5" font-family="Helvetica,sans-Serif" font-size="10.00">_ptr&lt; OutputStreamWriter</text>
<text text-anchor="start" x="215" y="-122.5" font-family="Helvetica,sans-Serif" font-size="10.00"> &gt; create(std::ostream</text>
<text text-anchor="start" x="215" y="-107.5" font-family="Helvetica,sans-Serif" font-size="10.00"> &amp;out, std::string_view</text>
<text text-anchor="start" x="215" y="-92.5" font-family="Helvetica,sans-Serif" font-size="10.00"> local_name=&quot;&quot;)</text>
<text text-anchor="start" x="206.5" y="-73.5" font-family="Helvetica,sans-Serif" font-size="10.00">&#45;</text>
<text text-anchor="start" x="215" y="-73.5" font-family="Helvetica,sans-Serif" font-size="10.00">OutputStreamWriter</text>
<text text-anchor="start" x="215" y="-58.5" font-family="Helvetica,sans-Serif" font-size="10.00">(std::ostream &amp;out,</text>
<text text-anchor="start" x="215" y="-43.5" font-family="Helvetica,sans-Serif" font-size="10.00"> std::string_view local_name)</text>
<text text-anchor="start" x="206.5" y="-24.5" font-family="Helvetica,sans-Serif" font-size="10.00">&#45;</text>
<text text-anchor="start" x="215" y="-24.5" font-family="Helvetica,sans-Serif" font-size="10.00">std::string getSubscriber</text>
<text text-anchor="start" x="215" y="-9.5" font-family="Helvetica,sans-Serif" font-size="10.00">Name() const noexcept override</text>
<polygon fill="#666666" stroke="#666666" points="201,-281 201,-281 357,-281 357,-281 201,-281"/>
<polygon fill="#666666" stroke="#666666" points="201,-262 201,-262 357,-262 357,-262 201,-262"/>
<polygon fill="none" stroke="#666666" points="201,0 201,-302 357,-302 357,0 201,0"/>
</a>
</g>
</g>
<!-- Node2 -->
<g id="Node000002" class="node">
<title>Node2</title>
<g id="a_Node000002"><a xlink:href="structcore_1_1SubscriberBase.html" target="_top" xlink:title=" ">
<polygon fill="white" stroke="none" points="196,-625 62,-625 62,-353 196,-353 196,-625"/>
<text text-anchor="start" x="82.13" y="-611.5" font-family="Helvetica,sans-Serif" font-size="10.00">core::SubscriberBase</text>
<text text-anchor="start" x="82.5" y="-596.5" font-family="Helvetica,sans-Serif" font-size="10.00">&lt; cmd::TokenEvent &gt;</text>
<text text-anchor="start" x="127.5" y="-577.5" font-family="Helvetica,sans-Serif" font-size="10.00"> </text>
<text text-anchor="start" x="66" y="-558.5" font-family="Helvetica,sans-Serif" font-size="10.00">+</text>
<text text-anchor="start" x="76" y="-558.5" font-family="Helvetica,sans-Serif" font-size="10.00">virtual ~SubscriberBase</text>
<text text-anchor="start" x="76" y="-543.5" font-family="Helvetica,sans-Serif" font-size="10.00">()=default</text>
<text text-anchor="start" x="66" y="-524.5" font-family="Helvetica,sans-Serif" font-size="10.00">+</text>
<text text-anchor="start" x="76" y="-524.5" font-family="Helvetica,sans-Serif" font-size="10.00">virtual SubscriptionStatus</text>
<text text-anchor="start" x="76" y="-509.5" font-family="Helvetica,sans-Serif" font-size="10.00"> onEvent(cmd::TokenEvent</text>
<text text-anchor="start" x="76" y="-494.5" font-family="Helvetica,sans-Serif" font-size="10.00"> const &amp;event)=0</text>
<text text-anchor="start" x="66" y="-475.5" font-family="Helvetica,sans-Serif" font-size="10.00">+</text>
<text text-anchor="start" x="76" y="-475.5" font-family="Helvetica,sans-Serif" font-size="10.00">virtual SubscriptionStatus</text>
<text text-anchor="start" x="76" y="-460.5" font-family="Helvetica,sans-Serif" font-size="10.00"> getSubscriptionStatus()</text>
<text text-anchor="start" x="76" y="-445.5" font-family="Helvetica,sans-Serif" font-size="10.00"> noexcept</text>
<text text-anchor="start" x="66" y="-426.5" font-family="Helvetica,sans-Serif" font-size="10.00">+</text>
<text text-anchor="start" x="76" y="-426.5" font-family="Helvetica,sans-Serif" font-size="10.00">virtual std::string</text>
<text text-anchor="start" x="76" y="-411.5" font-family="Helvetica,sans-Serif" font-size="10.00"> getSubscriberID() final</text>
<text text-anchor="start" x="66.38" y="-392.5" font-family="Helvetica,sans-Serif" font-size="10.00">#</text>
<text text-anchor="start" x="76" y="-392.5" font-family="Helvetica,sans-Serif" font-size="10.00">virtual std::string</text>
<text text-anchor="start" x="76" y="-377.5" font-family="Helvetica,sans-Serif" font-size="10.00"> getSubscriberName()</text>
<text text-anchor="start" x="76" y="-362.5" font-family="Helvetica,sans-Serif" font-size="10.00"> const noexcept</text>
<polygon fill="#666666" stroke="#666666" points="62,-589 62,-589 196,-589 196,-589 62,-589"/>
<polygon fill="#666666" stroke="#666666" points="62,-570 62,-570 196,-570 196,-570 62,-570"/>
<polygon fill="none" stroke="#666666" points="62,-353 62,-625 196,-625 196,-353 62,-353"/>
</a>
</g>
</g>
<!-- Node2&#45;&gt;Node1 -->
<g id="edge1_Node000001_Node000002" class="edge">
<title>Node2&#45;&gt;Node1</title>
<g id="a_edge1_Node000001_Node000002"><a xlink:title=" ">
<path fill="none" stroke="#63b8ff" d="M193.59,-343.33C199.71,-329.61 205.93,-315.69 212.07,-301.93"/>
<polygon fill="none" stroke="#63b8ff" points="190.03,-341.71 189.15,-352.27 196.42,-344.57 190.03,-341.71"/>
</a>
</g>
</g>
<!-- Node3 -->
<g id="Node000003" class="node">
<title>Node3</title>
<g id="a_Node000003"><a xlink:title=" ">
<polygon fill="white" stroke="none" points="156.5,-1060 103.5,-1060 103.5,-999 156.5,-999 156.5,-1060"/>
<text text-anchor="start" x="108.25" y="-1046.5" font-family="Helvetica,sans-Serif" font-size="10.00">std::string</text>
<text text-anchor="start" x="128.5" y="-1027.5" font-family="Helvetica,sans-Serif" font-size="10.00"> </text>
<text text-anchor="start" x="128.5" y="-1008.5" font-family="Helvetica,sans-Serif" font-size="10.00"> </text>
<polygon fill="#666666" stroke="#666666" points="103.5,-1039 103.5,-1039 156.5,-1039 156.5,-1039 103.5,-1039"/>
<polygon fill="#666666" stroke="#666666" points="103.5,-1020 103.5,-1020 156.5,-1020 156.5,-1020 103.5,-1020"/>
<polygon fill="none" stroke="#666666" points="103.5,-999 103.5,-1060 156.5,-1060 156.5,-999 103.5,-999"/>
</a>
</g>
</g>
<!-- Node3&#45;&gt;Node1 -->
<g id="edge14_Node000001_Node000003" class="edge">
<title>Node3&#45;&gt;Node1</title>
<g id="a_edge14_Node000001_Node000003"><a xlink:title=" ">
<path fill="none" stroke="#63b8ff" d="M113.43,-999.25C105.83,-984.38 97.52,-965.74 93,-948 27.63,-691.15 -55.54,-594.8 53,-353 81.26,-290.05 140.05,-238.77 190.59,-203.76"/>
<polygon fill="none" stroke="#63b8ff" points="190.56,-203.78 193.28,-197.1 200.49,-197.04 197.77,-203.72 190.56,-203.78"/>
</a>
</g>
<text text-anchor="middle" x="28.63" y="-648.5" font-family="Helvetica,sans-Serif" font-size="10.00" fill="grey"> &#45;_name</text>
</g>
<!-- Node3&#45;&gt;Node2 -->
<g id="edge2_Node000002_Node000003" class="edge">
<title>Node3&#45;&gt;Node2</title>
<g id="a_edge2_Node000002_Node000003"><a xlink:title=" ">
<path fill="none" stroke="#63b8ff" d="M118.68,-999.17C113.46,-984.12 107.86,-965.35 105.25,-948 89.79,-845.08 96.31,-727.86 106.39,-637.77"/>
<polygon fill="none" stroke="#63b8ff" points="106.39,-637.78 103.11,-631.36 107.77,-625.86 111.05,-632.28 106.39,-637.78"/>
</a>
</g>
<text text-anchor="middle" x="115.38" y="-810" font-family="Helvetica,sans-Serif" font-size="10.00" fill="grey"> &#45;_id</text>
</g>
<!-- Node5 -->
<g id="Node000005" class="node">
<title>Node5</title>
<g id="a_Node000005"><a xlink:href="structcore_1_1SubscriberBase.html" target="_top" xlink:title=" ">
<polygon fill="white" stroke="none" points="265,-948 133,-948 133,-676 265,-676 265,-948"/>
<text text-anchor="start" x="152.13" y="-934.5" font-family="Helvetica,sans-Serif" font-size="10.00">core::SubscriberBase</text>
<text text-anchor="start" x="167.13" y="-919.5" font-family="Helvetica,sans-Serif" font-size="10.00">&lt; EventType &gt;</text>
<text text-anchor="start" x="197.5" y="-900.5" font-family="Helvetica,sans-Serif" font-size="10.00"> </text>
<text text-anchor="start" x="137" y="-881.5" font-family="Helvetica,sans-Serif" font-size="10.00">+</text>
<text text-anchor="start" x="147" y="-881.5" font-family="Helvetica,sans-Serif" font-size="10.00">virtual ~SubscriberBase</text>
<text text-anchor="start" x="147" y="-866.5" font-family="Helvetica,sans-Serif" font-size="10.00">()=default</text>
<text text-anchor="start" x="137" y="-847.5" font-family="Helvetica,sans-Serif" font-size="10.00">+</text>
<text text-anchor="start" x="147" y="-847.5" font-family="Helvetica,sans-Serif" font-size="10.00">virtual SubscriptionStatus</text>
<text text-anchor="start" x="147" y="-832.5" font-family="Helvetica,sans-Serif" font-size="10.00"> onEvent(EventType const</text>
<text text-anchor="start" x="147" y="-817.5" font-family="Helvetica,sans-Serif" font-size="10.00"> &amp;event)=0</text>
<text text-anchor="start" x="137" y="-798.5" font-family="Helvetica,sans-Serif" font-size="10.00">+</text>
<text text-anchor="start" x="147" y="-798.5" font-family="Helvetica,sans-Serif" font-size="10.00">virtual SubscriptionStatus</text>
<text text-anchor="start" x="147" y="-783.5" font-family="Helvetica,sans-Serif" font-size="10.00"> getSubscriptionStatus()</text>
<text text-anchor="start" x="147" y="-768.5" font-family="Helvetica,sans-Serif" font-size="10.00"> noexcept</text>
<text text-anchor="start" x="137" y="-749.5" font-family="Helvetica,sans-Serif" font-size="10.00">+</text>
<text text-anchor="start" x="147" y="-749.5" font-family="Helvetica,sans-Serif" font-size="10.00">virtual std::string</text>
<text text-anchor="start" x="147" y="-734.5" font-family="Helvetica,sans-Serif" font-size="10.00"> getSubscriberID() final</text>
<text text-anchor="start" x="137.38" y="-715.5" font-family="Helvetica,sans-Serif" font-size="10.00">#</text>
<text text-anchor="start" x="147" y="-715.5" font-family="Helvetica,sans-Serif" font-size="10.00">virtual std::string</text>
<text text-anchor="start" x="147" y="-700.5" font-family="Helvetica,sans-Serif" font-size="10.00"> getSubscriberName()</text>
<text text-anchor="start" x="147" y="-685.5" font-family="Helvetica,sans-Serif" font-size="10.00"> const noexcept</text>
<polygon fill="#666666" stroke="#666666" points="133,-912 133,-912 265,-912 265,-912 133,-912"/>
<polygon fill="#666666" stroke="#666666" points="133,-893 133,-893 265,-893 265,-893 133,-893"/>
<polygon fill="none" stroke="#666666" points="133,-676 133,-948 265,-948 265,-676 133,-676"/>
</a>
</g>
</g>
<!-- Node3&#45;&gt;Node5 -->
<g id="edge5_Node000005_Node000003" class="edge">
<title>Node3&#45;&gt;Node5</title>
<g id="a_edge5_Node000005_Node000003"><a xlink:title=" ">
<path fill="none" stroke="#63b8ff" d="M139.31,-999.44C142.88,-988.29 147.24,-974.66 151.97,-959.91"/>
<polygon fill="none" stroke="#63b8ff" points="151.89,-960.14 149.91,-953.21 155.55,-948.71 157.53,-955.65 151.89,-960.14"/>
</a>
</g>
<text text-anchor="middle" x="158.38" y="-971.5" font-family="Helvetica,sans-Serif" font-size="10.00" fill="grey"> &#45;_id</text>
</g>
<!-- Node6 -->
<g id="Node000006" class="node">
<title>Node6</title>
<g id="a_Node000006"><a xlink:href="structcore_1_1SubscriberBase.html" target="_top" xlink:title=" ">
<polygon fill="white" stroke="none" points="344,-625 214,-625 214,-353 344,-353 344,-625"/>
<text text-anchor="start" x="232.13" y="-611.5" font-family="Helvetica,sans-Serif" font-size="10.00">core::SubscriberBase</text>
<text text-anchor="start" x="235.88" y="-596.5" font-family="Helvetica,sans-Serif" font-size="10.00">&lt; bulk::BulkEvent &gt;</text>
<text text-anchor="start" x="277.5" y="-577.5" font-family="Helvetica,sans-Serif" font-size="10.00"> </text>
<text text-anchor="start" x="218" y="-558.5" font-family="Helvetica,sans-Serif" font-size="10.00">+</text>
<text text-anchor="start" x="228" y="-558.5" font-family="Helvetica,sans-Serif" font-size="10.00">virtual ~SubscriberBase</text>
<text text-anchor="start" x="228" y="-543.5" font-family="Helvetica,sans-Serif" font-size="10.00">()=default</text>
<text text-anchor="start" x="218" y="-524.5" font-family="Helvetica,sans-Serif" font-size="10.00">+</text>
<text text-anchor="start" x="228" y="-524.5" font-family="Helvetica,sans-Serif" font-size="10.00">virtual SubscriptionStatus</text>
<text text-anchor="start" x="228" y="-509.5" font-family="Helvetica,sans-Serif" font-size="10.00"> onEvent(bulk::BulkEvent</text>
<text text-anchor="start" x="228" y="-494.5" font-family="Helvetica,sans-Serif" font-size="10.00"> const &amp;event)=0</text>
<text text-anchor="start" x="218" y="-475.5" font-family="Helvetica,sans-Serif" font-size="10.00">+</text>
<text text-anchor="start" x="228" y="-475.5" font-family="Helvetica,sans-Serif" font-size="10.00">virtual SubscriptionStatus</text>
<text text-anchor="start" x="228" y="-460.5" font-family="Helvetica,sans-Serif" font-size="10.00"> getSubscriptionStatus()</text>
<text text-anchor="start" x="228" y="-445.5" font-family="Helvetica,sans-Serif" font-size="10.00"> noexcept</text>
<text text-anchor="start" x="218" y="-426.5" font-family="Helvetica,sans-Serif" font-size="10.00">+</text>
<text text-anchor="start" x="228" y="-426.5" font-family="Helvetica,sans-Serif" font-size="10.00">virtual std::string</text>
<text text-anchor="start" x="228" y="-411.5" font-family="Helvetica,sans-Serif" font-size="10.00"> getSubscriberID() final</text>
<text text-anchor="start" x="218.38" y="-392.5" font-family="Helvetica,sans-Serif" font-size="10.00">#</text>
<text text-anchor="start" x="228" y="-392.5" font-family="Helvetica,sans-Serif" font-size="10.00">virtual std::string</text>
<text text-anchor="start" x="228" y="-377.5" font-family="Helvetica,sans-Serif" font-size="10.00"> getSubscriberName()</text>
<text text-anchor="start" x="228" y="-362.5" font-family="Helvetica,sans-Serif" font-size="10.00"> const noexcept</text>
<polygon fill="#666666" stroke="#666666" points="214,-589 214,-589 344,-589 344,-589 214,-589"/>
<polygon fill="#666666" stroke="#666666" points="214,-570 214,-570 344,-570 344,-570 214,-570"/>
<polygon fill="none" stroke="#666666" points="214,-353 214,-625 344,-625 344,-353 214,-353"/>
</a>
</g>
</g>
<!-- Node3&#45;&gt;Node6 -->
<g id="edge7_Node000006_Node000003" class="edge">
<title>Node3&#45;&gt;Node6</title>
<g id="a_edge7_Node000006_Node000003"><a xlink:title=" ">
<path fill="none" stroke="#63b8ff" d="M156.4,-1021.23C189.33,-1010.74 244.84,-988.06 274,-948 355.21,-836.44 354.9,-779.07 332,-643 331.71,-641.23 331.39,-639.45 331.06,-637.67"/>
<polygon fill="none" stroke="#63b8ff" points="331.04,-637.57 325.9,-632.51 328.6,-625.82 333.74,-630.89 331.04,-637.57"/>
</a>
</g>
<text text-anchor="middle" x="355.38" y="-810" font-family="Helvetica,sans-Serif" font-size="10.00" fill="grey"> &#45;_id</text>
</g>
<!-- Node4 -->
<g id="Node000004" class="node">
<title>Node4</title>
<g id="a_Node000004"><a xlink:title=" ">
<polygon fill="white" stroke="none" points="174,-1173 86,-1173 86,-1097 174,-1097 174,-1173"/>
<text text-anchor="start" x="91" y="-1159.5" font-family="Helvetica,sans-Serif" font-size="10.00">std::basic_string&lt;</text>
<text text-anchor="start" x="113.5" y="-1144.5" font-family="Helvetica,sans-Serif" font-size="10.00"> Char &gt;</text>
<text text-anchor="start" x="128.5" y="-1125.5" font-family="Helvetica,sans-Serif" font-size="10.00"> </text>
<text text-anchor="start" x="128.5" y="-1106.5" font-family="Helvetica,sans-Serif" font-size="10.00"> </text>
<polygon fill="#666666" stroke="#666666" points="86,-1137 86,-1137 174,-1137 174,-1137 86,-1137"/>
<polygon fill="#666666" stroke="#666666" points="86,-1118 86,-1118 174,-1118 174,-1118 86,-1118"/>
<polygon fill="none" stroke="#666666" points="86,-1097 86,-1173 174,-1173 174,-1097 86,-1097"/>
</a>
</g>
</g>
<!-- Node4&#45;&gt;Node3 -->
<g id="edge3_Node000003_Node000004" class="edge">
<title>Node4&#45;&gt;Node3</title>
<g id="a_edge3_Node000003_Node000004"><a xlink:title=" ">
<path fill="none" stroke="#63b8ff" d="M130,-1086.3C130,-1077.22 130,-1067.98 130,-1059.69"/>
<polygon fill="none" stroke="#63b8ff" points="126.5,-1086.22 130,-1096.22 133.5,-1086.22 126.5,-1086.22"/>
</a>
</g>
</g>
<!-- Node5&#45;&gt;Node2 -->
<g id="edge4_Node000002_Node000005" class="edge">
<title>Node5&#45;&gt;Node2</title>
<g id="a_edge4_Node000002_Node000005"><a xlink:title=" ">
<path fill="none" stroke="orange" d="M131.78,-665.59C131.15,-663.05 130.55,-660.52 130,-658 127.67,-647.31 126,-636.15 124.85,-624.89"/>
<polygon fill="orange" stroke="orange" points="128.62,-666.3 134.62,-675.03 135.38,-664.47 128.62,-666.3"/>
</a>
</g>
<text text-anchor="middle" x="178" y="-648.5" font-family="Helvetica,sans-Serif" font-size="10.00" fill="grey"> &lt; cmd::TokenEvent &gt;</text>
</g>
<!-- Node5&#45;&gt;Node6 -->
<g id="edge8_Node000006_Node000005" class="edge">
<title>Node5&#45;&gt;Node6</title>
<g id="a_edge8_Node000006_Node000005"><a xlink:title=" ">
<path fill="none" stroke="orange" d="M235.17,-665.87C238.57,-652.23 242.01,-638.44 245.38,-624.91"/>
<polygon fill="orange" stroke="orange" points="231.61,-664.71 232.58,-675.26 238.4,-666.41 231.61,-664.71"/>
</a>
</g>
<text text-anchor="middle" x="283.63" y="-648.5" font-family="Helvetica,sans-Serif" font-size="10.00" fill="grey"> &lt; bulk::BulkEvent &gt;</text>
</g>
<!-- Node6&#45;&gt;Node1 -->
<g id="edge6_Node000001_Node000006" class="edge">
<title>Node6&#45;&gt;Node1</title>
<g id="a_edge6_Node000001_Node000006"><a xlink:title=" ">
<path fill="none" stroke="#63b8ff" d="M279,-342.53C279,-329.07 279,-315.42 279,-301.93"/>
<polygon fill="none" stroke="#63b8ff" points="275.5,-342.27 279,-352.27 282.5,-342.27 275.5,-342.27"/>
</a>
</g>
</g>
<!-- Node7 -->
<g id="Node000007" class="node">
<title>Node7</title>
<g id="a_Node000007"><a xlink:title=" ">
<polygon fill="white" stroke="none" points="522,-527 362,-527 362,-451 522,-451 522,-527"/>
<text text-anchor="start" x="367" y="-513.5" font-family="Helvetica,sans-Serif" font-size="10.00">std::enable_shared</text>
<text text-anchor="start" x="367" y="-498.5" font-family="Helvetica,sans-Serif" font-size="10.00">_from_this&lt; OutputStreamWriter &gt;</text>
<text text-anchor="start" x="440.5" y="-479.5" font-family="Helvetica,sans-Serif" font-size="10.00"> </text>
<text text-anchor="start" x="440.5" y="-460.5" font-family="Helvetica,sans-Serif" font-size="10.00"> </text>
<polygon fill="#666666" stroke="#666666" points="362,-491 362,-491 522,-491 522,-491 362,-491"/>
<polygon fill="#666666" stroke="#666666" points="362,-472 362,-472 522,-472 522,-472 362,-472"/>
<polygon fill="none" stroke="#666666" points="362,-451 362,-527 522,-527 522,-451 362,-451"/>
</a>
</g>
</g>
<!-- Node7&#45;&gt;Node1 -->
<g id="edge9_Node000001_Node000007" class="edge">
<title>Node7&#45;&gt;Node1</title>
<g id="a_edge9_Node000001_Node000007"><a xlink:title=" ">
<path fill="none" stroke="#63b8ff" d="M419.33,-441.26C401.66,-404.84 376.11,-352.17 351.63,-301.71"/>
<polygon fill="none" stroke="#63b8ff" points="416.58,-442.61 424.09,-450.08 422.88,-439.56 416.58,-442.61"/>
</a>
</g>
</g>
<!-- Node8 -->
<g id="Node000008" class="node">
<title>Node8</title>
<g id="a_Node000008"><a xlink:title=" ">
<polygon fill="white" stroke="none" points="604,-519.5 540,-519.5 540,-458.5 604,-458.5 604,-519.5"/>
<text text-anchor="start" x="544.63" y="-506" font-family="Helvetica,sans-Serif" font-size="10.00">std::ostream</text>
<text text-anchor="start" x="570.5" y="-487" font-family="Helvetica,sans-Serif" font-size="10.00"> </text>
<text text-anchor="start" x="570.5" y="-468" font-family="Helvetica,sans-Serif" font-size="10.00"> </text>
<polygon fill="#666666" stroke="#666666" points="540,-498.5 540,-498.5 604,-498.5 604,-498.5 540,-498.5"/>
<polygon fill="#666666" stroke="#666666" points="540,-479.5 540,-479.5 604,-479.5 604,-479.5 540,-479.5"/>
<polygon fill="none" stroke="#666666" points="540,-458.5 540,-519.5 604,-519.5 604,-458.5 540,-458.5"/>
</a>
</g>
</g>
<!-- Node8&#45;&gt;Node1 -->
<g id="edge10_Node000001_Node000008" class="edge">
<title>Node8&#45;&gt;Node1</title>
<g id="a_edge10_Node000001_Node000008"><a xlink:title=" ">
<path fill="none" stroke="#63b8ff" d="M568.27,-458.7C563.46,-429.78 552.94,-385.33 531,-353 488.95,-291.03 422,-238.92 367.67,-203.3"/>
<polygon fill="none" stroke="#63b8ff" points="367.82,-203.39 360.61,-203.5 357.74,-196.88 364.95,-196.78 367.82,-203.39"/>
</a>
</g>
<text text-anchor="middle" x="528.38" y="-325.5" font-family="Helvetica,sans-Serif" font-size="10.00" fill="grey"> &#45;_out</text>
</g>
<!-- Node9 -->
<g id="Node000009" class="node">
<title>Node9</title>
<g id="a_Node000009"><a xlink:title=" ">
<polygon fill="white" stroke="none" points="618.5,-850 525.5,-850 525.5,-774 618.5,-774 618.5,-850"/>
<text text-anchor="start" x="530.38" y="-836.5" font-family="Helvetica,sans-Serif" font-size="10.00">std::basic_ostream</text>
<text text-anchor="start" x="552.5" y="-821.5" font-family="Helvetica,sans-Serif" font-size="10.00">&lt; Char &gt;</text>
<text text-anchor="start" x="570.5" y="-802.5" font-family="Helvetica,sans-Serif" font-size="10.00"> </text>
<text text-anchor="start" x="570.5" y="-783.5" font-family="Helvetica,sans-Serif" font-size="10.00"> </text>
<polygon fill="#666666" stroke="#666666" points="525.5,-814 525.5,-814 618.5,-814 618.5,-814 525.5,-814"/>
<polygon fill="#666666" stroke="#666666" points="525.5,-795 525.5,-795 618.5,-795 618.5,-795 525.5,-795"/>
<polygon fill="none" stroke="#666666" points="525.5,-774 525.5,-850 618.5,-850 618.5,-774 525.5,-774"/>
</a>
</g>
</g>
<!-- Node9&#45;&gt;Node8 -->
<g id="edge11_Node000008_Node000009" class="edge">
<title>Node9&#45;&gt;Node8</title>
<g id="a_edge11_Node000008_Node000009"><a xlink:title=" ">
<path fill="none" stroke="#63b8ff" d="M572,-763.45C572,-696.09 572,-574.92 572,-519.32"/>
<polygon fill="none" stroke="#63b8ff" points="568.5,-763.18 572,-773.18 575.5,-763.18 568.5,-763.18"/>
</a>
</g>
</g>
<!-- Node10 -->
<g id="Node000010" class="node">
<title>Node10</title>
<g id="a_Node000010"><a xlink:title=" ">
<polygon fill="white" stroke="none" points="626.5,-1060 517.5,-1060 517.5,-999 626.5,-999 626.5,-1060"/>
<text text-anchor="start" x="522.13" y="-1046.5" font-family="Helvetica,sans-Serif" font-size="10.00">std::basic_ios&lt; Char &gt;</text>
<text text-anchor="start" x="570.5" y="-1027.5" font-family="Helvetica,sans-Serif" font-size="10.00"> </text>
<text text-anchor="start" x="570.5" y="-1008.5" font-family="Helvetica,sans-Serif" font-size="10.00"> </text>
<polygon fill="#666666" stroke="#666666" points="517.5,-1039 517.5,-1039 626.5,-1039 626.5,-1039 517.5,-1039"/>
<polygon fill="#666666" stroke="#666666" points="517.5,-1020 517.5,-1020 626.5,-1020 626.5,-1020 517.5,-1020"/>
<polygon fill="none" stroke="#666666" points="517.5,-999 517.5,-1060 626.5,-1060 626.5,-999 517.5,-999"/>
</a>
</g>
</g>
<!-- Node10&#45;&gt;Node9 -->
<g id="edge12_Node000009_Node000010" class="edge">
<title>Node10&#45;&gt;Node9</title>
<g id="a_edge12_Node000009_Node000010"><a xlink:title=" ">
<path fill="none" stroke="#63b8ff" d="M572,-988.58C572,-948.88 572,-888.48 572,-849.88"/>
<polygon fill="none" stroke="#63b8ff" points="568.5,-988.44 572,-998.44 575.5,-988.44 568.5,-988.44"/>
</a>
</g>
</g>
<!-- Node11 -->
<g id="Node000011" class="node">
<title>Node11</title>
<g id="a_Node000011"><a xlink:title=" ">
<polygon fill="white" stroke="none" points="606,-1165.5 538,-1165.5 538,-1104.5 606,-1104.5 606,-1165.5"/>
<text text-anchor="start" x="542.75" y="-1152" font-family="Helvetica,sans-Serif" font-size="10.00">std::ios_base</text>
<text text-anchor="start" x="570.5" y="-1133" font-family="Helvetica,sans-Serif" font-size="10.00"> </text>
<text text-anchor="start" x="570.5" y="-1114" font-family="Helvetica,sans-Serif" font-size="10.00"> </text>
<polygon fill="#666666" stroke="#666666" points="538,-1144.5 538,-1144.5 606,-1144.5 606,-1144.5 538,-1144.5"/>
<polygon fill="#666666" stroke="#666666" points="538,-1125.5 538,-1125.5 606,-1125.5 606,-1125.5 538,-1125.5"/>
<polygon fill="none" stroke="#666666" points="538,-1104.5 538,-1165.5 606,-1165.5 606,-1104.5 538,-1104.5"/>
</a>
</g>
</g>
<!-- Node11&#45;&gt;Node10 -->
<g id="edge13_Node000010_Node000011" class="edge">
<title>Node11&#45;&gt;Node10</title>
<g id="a_edge13_Node000010_Node000011"><a xlink:title=" ">
<path fill="none" stroke="#63b8ff" d="M572,-1093.71C572,-1082.46 572,-1070.45 572,-1059.96"/>
<polygon fill="none" stroke="#63b8ff" points="568.5,-1093.62 572,-1103.62 575.5,-1093.62 568.5,-1093.62"/>
</a>
</g>
</g>
</g>
</svg>
