<?xml version="1.0" encoding="UTF-8" standalone="no"?>
<!DOCTYPE svg PUBLIC "-//W3C//DTD SVG 1.1//EN"
 "http://www.w3.org/Graphics/SVG/1.1/DTD/svg11.dtd">
<!-- Generated by graphviz version 8.1.0 (20230707.0739)
 -->
<!-- Title: cmd::provider::InputStreamParser Pages: 1 -->
<!--zoomable 1482 -->

<svg id="main" version="1.1" xmlns="http://www.w3.org/2000/svg" xmlns:xlink="http://www.w3.org/1999/xlink" xml:space="preserve" onload="init(evt)">
<style type="text/css"><![CDATA[
.node, .edge {opacity: 0.7;}
.node.selected, .edge.selected {opacity: 1;}
.edge:hover path { stroke: red; }
.edge:hover polygon { stroke: red; fill: red; }
]]></style>

<defs>
  <circle id="rim" cx="0" cy="0" r="7"/>
  <circle id="rim2" cx="0" cy="0" r="3.5"/>
  <g id="zoomPlus">
    <use xlink:href="#rim" fill="#404040"><set attributeName="fill" to="#808080" begin="zoomplus.mouseover" end="zoomplus.mouseout"/></use>
    <path d="M-4,0h8M0,-4v8" fill="none" stroke="white" stroke-width="1.5" pointer-events="none"/>
  </g>
  <g id="zoomMin">
    <use xlink:href="#rim" fill="#404040"><set attributeName="fill" to="#808080" begin="zoomminus.mouseover" end="zoomminus.mouseout"/></use>
    <path d="M-4,0h8" fill="none" stroke="white" stroke-width="1.5" pointer-events="none"/>
  </g>
  <g id="arrowUp" transform="translate(30 24)">
    <use xlink:href="#rim"/>
    <path pointer-events="none" fill="none" stroke="white" stroke-width="1.5" d="M0,-3.0v7 M-2.5,-0.5L0,-3.0L2.5,-0.5"/>
  </g>
  <g id="arrowRight" transform="rotate(90) translate(36 -43)">
    <use xlink:href="#rim"/>
    <path pointer-events="none" fill="none" stroke="white" stroke-width="1.5" d="M0,-3.0v7 M-2.5,-0.5L0,-3.0L2.5,-0.5"/>
  </g>
  <g id="arrowDown" transform="rotate(180) translate(-30 -48)">
    <use xlink:href="#rim"/>
    <path pointer-events="none" fill="none" stroke="white" stroke-width="1.5" d="M0,-3.0v7 M-2.5,-0.5L0,-3.0L2.5,-0.5"/>
  </g>
  <g id="arrowLeft" transform="rotate(270) translate(-36 17)">
    <use xlink:href="#rim"/>
    <path pointer-events="none" fill="none" stroke="white" stroke-width="1.5" d="M0,-3.0v7 M-2.5,-0.5L0,-3.0L2.5,-0.5"/>
  </g>
  <g id="resetDef">
    <use xlink:href="#rim2" fill="#404040"><set attributeName="fill" to="#808080" begin="reset.mouseover" end="reset.mouseout"/></use>
  </g>
</defs>
<script type="application/ecmascript">
var viewWidth = 358;
var viewHeight = 1482;
var sectionId = 'dynsection-1';
</script>
<script type="application/ecmascript" xlink:href="svg.min.js"/>
<svg id="graph" class="graph">
<g id="viewport">
<title>cmd::provider::InputStreamParser</title>
<!-- Node1 -->
<g id="Node000001" class="node">
<title>Node1</title>
<g id="a_Node000001"><a xlink:title="Command parser from input stream.">
<polygon fill="#999999" stroke="none" points="288.5,-310 141.5,-310 141.5,0 288.5,0 288.5,-310"/>
<text text-anchor="start" x="155.75" y="-296.5" font-family="Helvetica,sans-Serif" font-size="10.00">cmd::provider::InputStream</text>
<text text-anchor="start" x="200.75" y="-281.5" font-family="Helvetica,sans-Serif" font-size="10.00">Parser</text>
<text text-anchor="start" x="147" y="-262.5" font-family="Helvetica,sans-Serif" font-size="10.00">&#45;</text>
<text text-anchor="start" x="155.5" y="-262.5" font-family="Helvetica,sans-Serif" font-size="10.00">size_t _index</text>
<text text-anchor="start" x="145.5" y="-243.5" font-family="Helvetica,sans-Serif" font-size="10.00">+</text>
<text text-anchor="start" x="155.5" y="-243.5" font-family="Helvetica,sans-Serif" font-size="10.00">InputStreamParser</text>
<text text-anchor="start" x="155.5" y="-228.5" font-family="Helvetica,sans-Serif" font-size="10.00">(InputStreamParser const</text>
<text text-anchor="start" x="155.5" y="-213.5" font-family="Helvetica,sans-Serif" font-size="10.00"> &amp;)=delete</text>
<text text-anchor="start" x="145.5" y="-194.5" font-family="Helvetica,sans-Serif" font-size="10.00">+</text>
<text text-anchor="start" x="155.5" y="-194.5" font-family="Helvetica,sans-Serif" font-size="10.00">InputStreamParser &amp;</text>
<text text-anchor="start" x="155.5" y="-179.5" font-family="Helvetica,sans-Serif" font-size="10.00"> operator=(InputStreamParser</text>
<text text-anchor="start" x="155.5" y="-164.5" font-family="Helvetica,sans-Serif" font-size="10.00"> const &amp;)=delete</text>
<text text-anchor="start" x="145.5" y="-145.5" font-family="Helvetica,sans-Serif" font-size="10.00">+</text>
<text text-anchor="start" x="155.5" y="-145.5" font-family="Helvetica,sans-Serif" font-size="10.00">~InputStreamParser()</text>
<text text-anchor="start" x="145.5" y="-126.5" font-family="Helvetica,sans-Serif" font-size="10.00">+</text>
<text text-anchor="start" x="155.5" y="-126.5" font-family="Helvetica,sans-Serif" font-size="10.00">void run()</text>
<text text-anchor="start" x="145.5" y="-107.5" font-family="Helvetica,sans-Serif" font-size="10.00">+</text>
<text text-anchor="start" x="155.5" y="-107.5" font-family="Helvetica,sans-Serif" font-size="10.00">static InputStreamParser</text>
<text text-anchor="start" x="155.5" y="-92.5" font-family="Helvetica,sans-Serif" font-size="10.00"> &amp; instance()</text>
<text text-anchor="start" x="147" y="-73.5" font-family="Helvetica,sans-Serif" font-size="10.00">&#45;</text>
<text text-anchor="start" x="155.5" y="-73.5" font-family="Helvetica,sans-Serif" font-size="10.00">InputStreamParser</text>
<text text-anchor="start" x="155.5" y="-58.5" font-family="Helvetica,sans-Serif" font-size="10.00">(std::istream &amp;in=std</text>
<text text-anchor="start" x="155.5" y="-43.5" font-family="Helvetica,sans-Serif" font-size="10.00">::cin, size_t index_from</text>
<text text-anchor="start" x="155.5" y="-28.5" font-family="Helvetica,sans-Serif" font-size="10.00">=0) noexcept</text>
<text text-anchor="start" x="147" y="-9.5" font-family="Helvetica,sans-Serif" font-size="10.00">&#45;</text>
<text text-anchor="start" x="155.5" y="-9.5" font-family="Helvetica,sans-Serif" font-size="10.00">Token advance()</text>
<polygon fill="#666666" stroke="#666666" points="141.5,-274 141.5,-274 288.5,-274 288.5,-274 141.5,-274"/>
<polygon fill="#666666" stroke="#666666" points="141.5,-255 141.5,-255 153.5,-255 153.5,-255 141.5,-255"/>
<polygon fill="#666666" stroke="#666666" points="153.5,-255 153.5,-255 288.5,-255 288.5,-255 153.5,-255"/>
<polygon fill="none" stroke="#666666" points="141.5,0 141.5,-310 288.5,-310 288.5,0 141.5,0"/>
</a>
</g>
</g>
<!-- Node2 -->
<g id="Node000002" class="node">
<title>Node2</title>
<g id="a_Node000002"><a xlink:href="classcore_1_1PublisherMixin.html" target="_top" xlink:title=" ">
<polygon fill="white" stroke="none" points="231.5,-724 72.5,-724 72.5,-361 231.5,-361 231.5,-724"/>
<text text-anchor="start" x="107.75" y="-710.5" font-family="Helvetica,sans-Serif" font-size="10.00">core::PublisherMixin</text>
<text text-anchor="start" x="117.88" y="-695.5" font-family="Helvetica,sans-Serif" font-size="10.00">&lt; TokenEvent &gt;</text>
<text text-anchor="start" x="150.5" y="-676.5" font-family="Helvetica,sans-Serif" font-size="10.00"> </text>
<text text-anchor="start" x="76.5" y="-657.5" font-family="Helvetica,sans-Serif" font-size="10.00">+</text>
<text text-anchor="start" x="86.5" y="-657.5" font-family="Helvetica,sans-Serif" font-size="10.00">virtual ~PublisherMixin</text>
<text text-anchor="start" x="86.5" y="-642.5" font-family="Helvetica,sans-Serif" font-size="10.00">()=default</text>
<text text-anchor="start" x="76.5" y="-623.5" font-family="Helvetica,sans-Serif" font-size="10.00">+</text>
<text text-anchor="start" x="86.5" y="-623.5" font-family="Helvetica,sans-Serif" font-size="10.00">void subscribe(SPtrSubscriber</text>
<text text-anchor="start" x="86.5" y="-608.5" font-family="Helvetica,sans-Serif" font-size="10.00"> const &amp;subscriber, bool own)</text>
<text text-anchor="start" x="76.5" y="-589.5" font-family="Helvetica,sans-Serif" font-size="10.00">+</text>
<text text-anchor="start" x="86.5" y="-589.5" font-family="Helvetica,sans-Serif" font-size="10.00">void subscribe(SPtrSubscriber</text>
<text text-anchor="start" x="86.5" y="-574.5" font-family="Helvetica,sans-Serif" font-size="10.00"> &amp;&amp;subscriber)</text>
<text text-anchor="start" x="76.5" y="-555.5" font-family="Helvetica,sans-Serif" font-size="10.00">+</text>
<text text-anchor="start" x="86.5" y="-555.5" font-family="Helvetica,sans-Serif" font-size="10.00">void unsubscribe(SPtrSubscriber</text>
<text text-anchor="start" x="86.5" y="-540.5" font-family="Helvetica,sans-Serif" font-size="10.00"> const &amp;subscriber)</text>
<text text-anchor="start" x="76.5" y="-521.5" font-family="Helvetica,sans-Serif" font-size="10.00">+</text>
<text text-anchor="start" x="86.5" y="-521.5" font-family="Helvetica,sans-Serif" font-size="10.00">void clear()</text>
<text text-anchor="start" x="76.88" y="-502.5" font-family="Helvetica,sans-Serif" font-size="10.00">#</text>
<text text-anchor="start" x="86.5" y="-502.5" font-family="Helvetica,sans-Serif" font-size="10.00">PublisherMixin()</text>
<text text-anchor="start" x="76.88" y="-483.5" font-family="Helvetica,sans-Serif" font-size="10.00">#</text>
<text text-anchor="start" x="86.5" y="-483.5" font-family="Helvetica,sans-Serif" font-size="10.00">void notify(const TokenEvent</text>
<text text-anchor="start" x="86.5" y="-468.5" font-family="Helvetica,sans-Serif" font-size="10.00"> &amp;event)</text>
<text text-anchor="start" x="78" y="-449.5" font-family="Helvetica,sans-Serif" font-size="10.00">&#45;</text>
<text text-anchor="start" x="86.5" y="-449.5" font-family="Helvetica,sans-Serif" font-size="10.00">std::optional&lt; SPtrSubscriber</text>
<text text-anchor="start" x="86.5" y="-434.5" font-family="Helvetica,sans-Serif" font-size="10.00"> &gt; _getSPtrSubscriber(std</text>
<text text-anchor="start" x="86.5" y="-419.5" font-family="Helvetica,sans-Serif" font-size="10.00">::list&lt; VPtrSubscriber &gt;::</text>
<text text-anchor="start" x="86.5" y="-404.5" font-family="Helvetica,sans-Serif" font-size="10.00">iterator &amp;it)</text>
<text text-anchor="start" x="78" y="-385.5" font-family="Helvetica,sans-Serif" font-size="10.00">&#45;</text>
<text text-anchor="start" x="86.5" y="-385.5" font-family="Helvetica,sans-Serif" font-size="10.00">auto _find(std::string</text>
<text text-anchor="start" x="86.5" y="-370.5" font-family="Helvetica,sans-Serif" font-size="10.00">_view id)</text>
<polygon fill="#666666" stroke="#666666" points="72.5,-688 72.5,-688 231.5,-688 231.5,-688 72.5,-688"/>
<polygon fill="#666666" stroke="#666666" points="72.5,-669 72.5,-669 231.5,-669 231.5,-669 72.5,-669"/>
<polygon fill="none" stroke="#666666" points="72.5,-361 72.5,-724 231.5,-724 231.5,-361 72.5,-361"/>
</a>
</g>
</g>
<!-- Node2&#45;&gt;Node1 -->
<g id="edge1_Node000001_Node000002" class="edge">
<title>Node2&#45;&gt;Node1</title>
<g id="a_edge1_Node000001_Node000002"><a xlink:title=" ">
<path fill="none" stroke="#63b8ff" d="M183.18,-350.71C185.42,-337.02 187.66,-323.32 189.85,-309.88"/>
<polygon fill="none" stroke="#63b8ff" points="179.63,-349.73 181.47,-360.17 186.54,-350.86 179.63,-349.73"/>
</a>
</g>
</g>
<!-- Node3 -->
<g id="Node000003" class="node">
<title>Node3</title>
<g id="a_Node000003"><a xlink:title=" ">
<polygon fill="white" stroke="none" points="126,-1250 0,-1250 0,-1189 126,-1189 126,-1250"/>
<text text-anchor="start" x="4.88" y="-1236.5" font-family="Helvetica,sans-Serif" font-size="10.00">std::list&lt; VPtrSubscriber &gt;</text>
<text text-anchor="start" x="4" y="-1217.5" font-family="Helvetica,sans-Serif" font-size="10.00">+</text>
<text text-anchor="start" x="14" y="-1217.5" font-family="Helvetica,sans-Serif" font-size="10.00">VPtrSubscriber elements</text>
<text text-anchor="start" x="61.5" y="-1198.5" font-family="Helvetica,sans-Serif" font-size="10.00"> </text>
<polygon fill="#666666" stroke="#666666" points="0,-1229 0,-1229 126,-1229 126,-1229 0,-1229"/>
<polygon fill="#666666" stroke="#666666" points="0,-1210 0,-1210 12,-1210 12,-1210 0,-1210"/>
<polygon fill="#666666" stroke="#666666" points="12,-1210 12,-1210 126,-1210 126,-1210 12,-1210"/>
<polygon fill="none" stroke="#666666" points="0,-1189 0,-1250 126,-1250 126,-1189 0,-1189"/>
</a>
</g>
</g>
<!-- Node3&#45;&gt;Node2 -->
<g id="edge2_Node000002_Node000003" class="edge">
<title>Node3&#45;&gt;Node2</title>
<g id="a_edge2_Node000002_Node000003"><a xlink:title=" ">
<path fill="none" stroke="#63b8ff" d="M48.09,-1189.13C41.35,-1174.22 34.14,-1155.59 30.75,-1138 0.2,-979.59 -7.79,-931.66 30.75,-775 38.66,-742.87 51.9,-710.26 66.79,-680.04"/>
<polygon fill="none" stroke="#63b8ff" points="66.76,-680.11 65.9,-672.95 72.17,-669.39 73.04,-676.55 66.76,-680.11"/>
</a>
</g>
<text text-anchor="middle" x="47.12" y="-954.5" font-family="Helvetica,sans-Serif" font-size="10.00" fill="grey"> &#45;_subs</text>
</g>
<!-- Node6 -->
<g id="Node000006" class="node">
<title>Node6</title>
<g id="a_Node000006"><a xlink:href="classcore_1_1PublisherMixin.html" target="_top" xlink:title=" ">
<polygon fill="white" stroke="none" points="231.5,-1138 72.5,-1138 72.5,-775 231.5,-775 231.5,-1138"/>
<text text-anchor="start" x="107.75" y="-1124.5" font-family="Helvetica,sans-Serif" font-size="10.00">core::PublisherMixin</text>
<text text-anchor="start" x="120.12" y="-1109.5" font-family="Helvetica,sans-Serif" font-size="10.00">&lt; EventType &gt;</text>
<text text-anchor="start" x="150.5" y="-1090.5" font-family="Helvetica,sans-Serif" font-size="10.00"> </text>
<text text-anchor="start" x="76.5" y="-1071.5" font-family="Helvetica,sans-Serif" font-size="10.00">+</text>
<text text-anchor="start" x="86.5" y="-1071.5" font-family="Helvetica,sans-Serif" font-size="10.00">virtual ~PublisherMixin</text>
<text text-anchor="start" x="86.5" y="-1056.5" font-family="Helvetica,sans-Serif" font-size="10.00">()=default</text>
<text text-anchor="start" x="76.5" y="-1037.5" font-family="Helvetica,sans-Serif" font-size="10.00">+</text>
<text text-anchor="start" x="86.5" y="-1037.5" font-family="Helvetica,sans-Serif" font-size="10.00">void subscribe(SPtrSubscriber</text>
<text text-anchor="start" x="86.5" y="-1022.5" font-family="Helvetica,sans-Serif" font-size="10.00"> const &amp;subscriber, bool own)</text>
<text text-anchor="start" x="76.5" y="-1003.5" font-family="Helvetica,sans-Serif" font-size="10.00">+</text>
<text text-anchor="start" x="86.5" y="-1003.5" font-family="Helvetica,sans-Serif" font-size="10.00">void subscribe(SPtrSubscriber</text>
<text text-anchor="start" x="86.5" y="-988.5" font-family="Helvetica,sans-Serif" font-size="10.00"> &amp;&amp;subscriber)</text>
<text text-anchor="start" x="76.5" y="-969.5" font-family="Helvetica,sans-Serif" font-size="10.00">+</text>
<text text-anchor="start" x="86.5" y="-969.5" font-family="Helvetica,sans-Serif" font-size="10.00">void unsubscribe(SPtrSubscriber</text>
<text text-anchor="start" x="86.5" y="-954.5" font-family="Helvetica,sans-Serif" font-size="10.00"> const &amp;subscriber)</text>
<text text-anchor="start" x="76.5" y="-935.5" font-family="Helvetica,sans-Serif" font-size="10.00">+</text>
<text text-anchor="start" x="86.5" y="-935.5" font-family="Helvetica,sans-Serif" font-size="10.00">void clear()</text>
<text text-anchor="start" x="76.88" y="-916.5" font-family="Helvetica,sans-Serif" font-size="10.00">#</text>
<text text-anchor="start" x="86.5" y="-916.5" font-family="Helvetica,sans-Serif" font-size="10.00">PublisherMixin()</text>
<text text-anchor="start" x="76.88" y="-897.5" font-family="Helvetica,sans-Serif" font-size="10.00">#</text>
<text text-anchor="start" x="86.5" y="-897.5" font-family="Helvetica,sans-Serif" font-size="10.00">void notify(const EventType</text>
<text text-anchor="start" x="86.5" y="-882.5" font-family="Helvetica,sans-Serif" font-size="10.00"> &amp;event)</text>
<text text-anchor="start" x="78" y="-863.5" font-family="Helvetica,sans-Serif" font-size="10.00">&#45;</text>
<text text-anchor="start" x="86.5" y="-863.5" font-family="Helvetica,sans-Serif" font-size="10.00">std::optional&lt; SPtrSubscriber</text>
<text text-anchor="start" x="86.5" y="-848.5" font-family="Helvetica,sans-Serif" font-size="10.00"> &gt; _getSPtrSubscriber(std</text>
<text text-anchor="start" x="86.5" y="-833.5" font-family="Helvetica,sans-Serif" font-size="10.00">::list&lt; VPtrSubscriber &gt;::</text>
<text text-anchor="start" x="86.5" y="-818.5" font-family="Helvetica,sans-Serif" font-size="10.00">iterator &amp;it)</text>
<text text-anchor="start" x="78" y="-799.5" font-family="Helvetica,sans-Serif" font-size="10.00">&#45;</text>
<text text-anchor="start" x="86.5" y="-799.5" font-family="Helvetica,sans-Serif" font-size="10.00">auto _find(std::string</text>
<text text-anchor="start" x="86.5" y="-784.5" font-family="Helvetica,sans-Serif" font-size="10.00">_view id)</text>
<polygon fill="#666666" stroke="#666666" points="72.5,-1102 72.5,-1102 231.5,-1102 231.5,-1102 72.5,-1102"/>
<polygon fill="#666666" stroke="#666666" points="72.5,-1083 72.5,-1083 231.5,-1083 231.5,-1083 72.5,-1083"/>
<polygon fill="none" stroke="#666666" points="72.5,-775 72.5,-1138 231.5,-1138 231.5,-775 72.5,-775"/>
</a>
</g>
</g>
<!-- Node3&#45;&gt;Node6 -->
<g id="edge6_Node000006_Node000003" class="edge">
<title>Node3&#45;&gt;Node6</title>
<g id="a_edge6_Node000006_Node000003"><a xlink:title=" ">
<path fill="none" stroke="#63b8ff" d="M73.04,-1189.07C76.77,-1178.13 81.33,-1164.74 86.36,-1149.98"/>
<polygon fill="none" stroke="#63b8ff" points="86.33,-1150.08 84.48,-1143.11 90.2,-1138.73 92.05,-1145.7 86.33,-1150.08"/>
</a>
</g>
<text text-anchor="middle" x="99.12" y="-1161.5" font-family="Helvetica,sans-Serif" font-size="10.00" fill="grey"> &#45;_subs</text>
</g>
<!-- Node4 -->
<g id="Node000004" class="node">
<title>Node4</title>
<g id="a_Node000004"><a xlink:title=" ">
<polygon fill="white" stroke="none" points="96,-1362 30,-1362 30,-1301 96,-1301 96,-1362"/>
<text text-anchor="start" x="34.88" y="-1348.5" font-family="Helvetica,sans-Serif" font-size="10.00">std::list&lt; T &gt;</text>
<text text-anchor="start" x="61.5" y="-1329.5" font-family="Helvetica,sans-Serif" font-size="10.00"> </text>
<text text-anchor="start" x="61.5" y="-1310.5" font-family="Helvetica,sans-Serif" font-size="10.00"> </text>
<polygon fill="#666666" stroke="#666666" points="30,-1341 30,-1341 96,-1341 96,-1341 30,-1341"/>
<polygon fill="#666666" stroke="#666666" points="30,-1322 30,-1322 96,-1322 96,-1322 30,-1322"/>
<polygon fill="none" stroke="#666666" points="30,-1301 30,-1362 96,-1362 96,-1301 30,-1301"/>
</a>
</g>
</g>
<!-- Node4&#45;&gt;Node3 -->
<g id="edge3_Node000003_Node000004" class="edge">
<title>Node4&#45;&gt;Node3</title>
<g id="a_edge3_Node000003_Node000004"><a xlink:title=" ">
<path fill="none" stroke="orange" d="M63,-1290.13C63,-1276.73 63,-1262.07 63,-1249.68"/>
<polygon fill="orange" stroke="orange" points="59.5,-1290.02 63,-1300.02 66.5,-1290.02 59.5,-1290.02"/>
</a>
</g>
<text text-anchor="middle" x="106.5" y="-1273.5" font-family="Helvetica,sans-Serif" font-size="10.00" fill="grey"> &lt; VPtrSubscriber &gt;</text>
</g>
<!-- Node5 -->
<g id="Node000005" class="node">
<title>Node5</title>
<g id="a_Node000005"><a xlink:title=" ">
<polygon fill="white" stroke="none" points="71,-1474 55,-1474 55,-1413 71,-1413 71,-1474"/>
<text text-anchor="start" x="60" y="-1460.5" font-family="Helvetica,sans-Serif" font-size="10.00">T</text>
<text text-anchor="start" x="61.5" y="-1441.5" font-family="Helvetica,sans-Serif" font-size="10.00"> </text>
<text text-anchor="start" x="61.5" y="-1422.5" font-family="Helvetica,sans-Serif" font-size="10.00"> </text>
<polygon fill="#666666" stroke="#666666" points="55,-1453 55,-1453 71,-1453 71,-1453 55,-1453"/>
<polygon fill="#666666" stroke="#666666" points="55,-1434 55,-1434 71,-1434 71,-1434 55,-1434"/>
<polygon fill="none" stroke="#666666" points="55,-1413 55,-1474 71,-1474 71,-1413 55,-1413"/>
</a>
</g>
</g>
<!-- Node5&#45;&gt;Node4 -->
<g id="edge4_Node000004_Node000005" class="edge">
<title>Node5&#45;&gt;Node4</title>
<g id="a_edge4_Node000004_Node000005"><a xlink:title=" ">
<path fill="none" stroke="#63b8ff" d="M63,-1413.02C63,-1401.21 63,-1387.39 63,-1374.56"/>
<polygon fill="none" stroke="#63b8ff" points="63,-1374.58 59,-1368.58 63,-1362.58 67,-1368.58 63,-1374.58"/>
</a>
</g>
<text text-anchor="middle" x="87.38" y="-1385.5" font-family="Helvetica,sans-Serif" font-size="10.00" fill="grey"> +elements</text>
</g>
<!-- Node6&#45;&gt;Node2 -->
<g id="edge5_Node000002_Node000006" class="edge">
<title>Node6&#45;&gt;Node2</title>
<g id="a_edge5_Node000002_Node000006"><a xlink:title=" ">
<path fill="none" stroke="orange" d="M152,-764.32C152,-750.85 152,-737.3 152,-723.9"/>
<polygon fill="orange" stroke="orange" points="148.5,-764.09 152,-774.09 155.5,-764.09 148.5,-764.09"/>
</a>
</g>
<text text-anchor="middle" x="187.62" y="-747.5" font-family="Helvetica,sans-Serif" font-size="10.00" fill="grey"> &lt; TokenEvent &gt;</text>
</g>
<!-- Node7 -->
<g id="Node000007" class="node">
<title>Node7</title>
<g id="a_Node000007"><a xlink:title=" ">
<polygon fill="white" stroke="none" points="317.5,-573 256.5,-573 256.5,-512 317.5,-512 317.5,-573"/>
<text text-anchor="start" x="261.12" y="-559.5" font-family="Helvetica,sans-Serif" font-size="10.00">std::istream</text>
<text text-anchor="start" x="285.5" y="-540.5" font-family="Helvetica,sans-Serif" font-size="10.00"> </text>
<text text-anchor="start" x="285.5" y="-521.5" font-family="Helvetica,sans-Serif" font-size="10.00"> </text>
<polygon fill="#666666" stroke="#666666" points="256.5,-552 256.5,-552 317.5,-552 317.5,-552 256.5,-552"/>
<polygon fill="#666666" stroke="#666666" points="256.5,-533 256.5,-533 317.5,-533 317.5,-533 256.5,-533"/>
<polygon fill="none" stroke="#666666" points="256.5,-512 256.5,-573 317.5,-573 317.5,-512 256.5,-512"/>
</a>
</g>
</g>
<!-- Node7&#45;&gt;Node1 -->
<g id="edge7_Node000001_Node000007" class="edge">
<title>Node7&#45;&gt;Node1</title>
<g id="a_edge7_Node000001_Node000007"><a xlink:title=" ">
<path fill="none" stroke="#63b8ff" d="M281.53,-512.21C273.91,-471.43 259.53,-394.44 246.08,-322.43"/>
<polygon fill="none" stroke="#63b8ff" points="246.13,-322.68 241.1,-317.51 243.93,-310.88 248.96,-316.04 246.13,-322.68"/>
</a>
</g>
<text text-anchor="middle" x="258.38" y="-333.5" font-family="Helvetica,sans-Serif" font-size="10.00" fill="grey"> &#45;_in</text>
</g>
<!-- Node8 -->
<g id="Node000008" class="node">
<title>Node8</title>
<g id="a_Node000008"><a xlink:title=" ">
<polygon fill="white" stroke="none" points="340,-994.5 250,-994.5 250,-918.5 340,-918.5 340,-994.5"/>
<text text-anchor="start" x="254.88" y="-981" font-family="Helvetica,sans-Serif" font-size="10.00">std::basic_istream</text>
<text text-anchor="start" x="275.5" y="-966" font-family="Helvetica,sans-Serif" font-size="10.00">&lt; Char &gt;</text>
<text text-anchor="start" x="293.5" y="-947" font-family="Helvetica,sans-Serif" font-size="10.00"> </text>
<text text-anchor="start" x="293.5" y="-928" font-family="Helvetica,sans-Serif" font-size="10.00"> </text>
<polygon fill="#666666" stroke="#666666" points="250,-958.5 250,-958.5 340,-958.5 340,-958.5 250,-958.5"/>
<polygon fill="#666666" stroke="#666666" points="250,-939.5 250,-939.5 340,-939.5 340,-939.5 250,-939.5"/>
<polygon fill="none" stroke="#666666" points="250,-918.5 250,-994.5 340,-994.5 340,-918.5 250,-918.5"/>
</a>
</g>
</g>
<!-- Node8&#45;&gt;Node7 -->
<g id="edge8_Node000007_Node000008" class="edge">
<title>Node8&#45;&gt;Node7</title>
<g id="a_edge8_Node000007_Node000008"><a xlink:title=" ">
<path fill="none" stroke="#63b8ff" d="M294.07,-907.82C292.4,-821.82 288.94,-643.18 287.57,-572.85"/>
<polygon fill="none" stroke="#63b8ff" points="290.59,-907.65 294.28,-917.58 297.59,-907.51 290.59,-907.65"/>
</a>
</g>
</g>
<!-- Node9 -->
<g id="Node000009" class="node">
<title>Node9</title>
<g id="a_Node000009"><a xlink:title=" ">
<polygon fill="white" stroke="none" points="349.5,-1250 240.5,-1250 240.5,-1189 349.5,-1189 349.5,-1250"/>
<text text-anchor="start" x="245.12" y="-1236.5" font-family="Helvetica,sans-Serif" font-size="10.00">std::basic_ios&lt; Char &gt;</text>
<text text-anchor="start" x="293.5" y="-1217.5" font-family="Helvetica,sans-Serif" font-size="10.00"> </text>
<text text-anchor="start" x="293.5" y="-1198.5" font-family="Helvetica,sans-Serif" font-size="10.00"> </text>
<polygon fill="#666666" stroke="#666666" points="240.5,-1229 240.5,-1229 349.5,-1229 349.5,-1229 240.5,-1229"/>
<polygon fill="#666666" stroke="#666666" points="240.5,-1210 240.5,-1210 349.5,-1210 349.5,-1210 240.5,-1210"/>
<polygon fill="none" stroke="#666666" points="240.5,-1189 240.5,-1250 349.5,-1250 349.5,-1189 240.5,-1189"/>
</a>
</g>
</g>
<!-- Node9&#45;&gt;Node8 -->
<g id="edge9_Node000008_Node000009" class="edge">
<title>Node9&#45;&gt;Node8</title>
<g id="a_edge9_Node000008_Node000009"><a xlink:title=" ">
<path fill="none" stroke="#63b8ff" d="M295,-1178.31C295,-1128.11 295,-1042.94 295,-994.36"/>
<polygon fill="none" stroke="#63b8ff" points="291.5,-1178.07 295,-1188.07 298.5,-1178.07 291.5,-1178.07"/>
</a>
</g>
</g>
<!-- Node10 -->
<g id="Node000010" class="node">
<title>Node10</title>
<g id="a_Node000010"><a xlink:title=" ">
<polygon fill="white" stroke="none" points="329,-1362 261,-1362 261,-1301 329,-1301 329,-1362"/>
<text text-anchor="start" x="265.75" y="-1348.5" font-family="Helvetica,sans-Serif" font-size="10.00">std::ios_base</text>
<text text-anchor="start" x="293.5" y="-1329.5" font-family="Helvetica,sans-Serif" font-size="10.00"> </text>
<text text-anchor="start" x="293.5" y="-1310.5" font-family="Helvetica,sans-Serif" font-size="10.00"> </text>
<polygon fill="#666666" stroke="#666666" points="261,-1341 261,-1341 329,-1341 329,-1341 261,-1341"/>
<polygon fill="#666666" stroke="#666666" points="261,-1322 261,-1322 329,-1322 329,-1322 261,-1322"/>
<polygon fill="none" stroke="#666666" points="261,-1301 261,-1362 329,-1362 329,-1301 261,-1301"/>
</a>
</g>
</g>
<!-- Node10&#45;&gt;Node9 -->
<g id="edge10_Node000009_Node000010" class="edge">
<title>Node10&#45;&gt;Node9</title>
<g id="a_edge10_Node000009_Node000010"><a xlink:title=" ">
<path fill="none" stroke="#63b8ff" d="M295,-1290.13C295,-1276.73 295,-1262.07 295,-1249.68"/>
<polygon fill="none" stroke="#63b8ff" points="291.5,-1290.02 295,-1300.02 298.5,-1290.02 291.5,-1290.02"/>
</a>
</g>
</g>
</g>
</svg>

<g id="navigator" transform="translate(0 0)" fill="#404254">
  <rect fill="#f2f5e9" fill-opacity="0.5" stroke="#606060" stroke-width=".5" x="0" y="0" width="60" height="60"/>
  <use id="zoomplus" xlink:href="#zoomPlus" x="17" y="9" onmousedown="handleZoom(evt,'in')"/>
  <use id="zoomminus" xlink:href="#zoomMin" x="42" y="9" onmousedown="handleZoom(evt,'out')"/>
  <use id="reset" xlink:href="#resetDef" x="30" y="36" onmousedown="handleReset()"/>
   <use id="arrowup" xlink:href="#arrowUp" x="0" y="0" onmousedown="handlePan(0,-1)"/>
  <use id="arrowright" xlink:href="#arrowRight" x="0" y="0" onmousedown="handlePan(1,0)"/>
  <use id="arrowdown" xlink:href="#arrowDown" x="0" y="0" onmousedown="handlePan(0,1)"/>
  <use id="arrowleft" xlink:href="#arrowLeft" x="0" y="0" onmousedown="handlePan(-1,0)"/>
</g>
<svg viewBox="0 0 15 15" width="100%" height="30px" preserveAspectRatio="xMaxYMin meet">
 <g id="arrow_out" transform="scale(0.3 0.3)">
  <a xlink:href="classcmd_1_1provider_1_1InputStreamParser__coll__graph_org.svg" target="_base">
   <rect id="button" ry="5" rx="5" y="6" x="6" height="38" width="38"
        fill="#f2f5e9" fill-opacity="0.5" stroke="#606060" stroke-width="1.0"/>
   <path id="arrow"
     d="M 11.500037,31.436501 C 11.940474,20.09759 22.043105,11.32322 32.158766,21.979434 L 37.068811,17.246167 C 37.068811,17.246167 37.088388,32 37.088388,32 L 22.160133,31.978069 C 22.160133,31.978069 26.997745,27.140456 26.997745,27.140456 C 18.528582,18.264221 13.291696,25.230495 11.500037,31.436501 z"
     style="fill:#404040;"/>
  </a>
 </g>
</svg>

<style type='text/css'>
<![CDATA[
[data-mouse-over-selected='false'] { opacity: 0.7; }
[data-mouse-over-selected='true']  { opacity: 1.0; }
]]>
</style>
<script type="application/ecmascript"><![CDATA[
document.addEventListener('DOMContentLoaded', (event) => {
  highlightEdges();
  highlightAdjacentNodes();
});
]]></script>
</svg>
