<?xml version="1.0" encoding="UTF-8" standalone="no"?>
<!DOCTYPE svg PUBLIC "-//W3C//DTD SVG 1.1//EN"
 "http://www.w3.org/Graphics/SVG/1.1/DTD/svg11.dtd">
<!-- Generated by graphviz version 8.1.0 (20230707.0739)
 -->
<!-- Title: core::PublisherMixin::_getShared Pages: 1 -->
<svg width="394pt" height="256pt"
 viewBox="0.00 0.00 393.50 256.00" xmlns="http://www.w3.org/2000/svg" xmlns:xlink="http://www.w3.org/1999/xlink">
<g id="graph0" class="graph" transform="scale(1 1) rotate(0) translate(4 252)">
<title>core::PublisherMixin::_getShared</title>
<!-- Node1 -->
<g id="Node000001" class="node">
<title>Node1</title>
<g id="a_Node000001"><a xlink:title=" ">
<polygon fill="#999999" stroke="#666666" points="385.5,-94 281,-94 281,-56 385.5,-56 385.5,-94"/>
<text text-anchor="start" x="289" y="-80.5" font-family="Helvetica,sans-Serif" font-size="10.00">core::PublisherMixin</text>
<text text-anchor="middle" x="333.25" y="-65.5" font-family="Helvetica,sans-Serif" font-size="10.00">::_getShared</text>
</a>
</g>
</g>
<!-- Node2 -->
<g id="Node000002" class="node">
<title>Node2</title>
<g id="a_Node000002"><a xlink:href="classcore_1_1PublisherMixin.html#a29f48e4fb42994d2b8622d0ebc7fd535" target="_top" xlink:title=" ">
<polygon fill="white" stroke="#666666" points="245,-164 140.5,-164 140.5,-126 245,-126 245,-164"/>
<text text-anchor="start" x="148.5" y="-150.5" font-family="Helvetica,sans-Serif" font-size="10.00">core::PublisherMixin</text>
<text text-anchor="middle" x="192.75" y="-135.5" font-family="Helvetica,sans-Serif" font-size="10.00">::_findSteady</text>
</a>
</g>
</g>
<!-- Node1&#45;&gt;Node2 -->
<g id="edge1_Node000001_Node000002" class="edge">
<title>Node1&#45;&gt;Node2</title>
<g id="a_edge1_Node000001_Node000002"><a xlink:title=" ">
<path fill="none" stroke="#63b8ff" d="M283.93,-99.42C266.97,-107.99 248.16,-117.5 232.12,-125.61"/>
<polygon fill="#63b8ff" stroke="#63b8ff" points="285.32,-102.13 292.67,-94.5 282.17,-95.89 285.32,-102.13"/>
</a>
</g>
</g>
<!-- Node6 -->
<g id="Node000006" class="node">
<title>Node6</title>
<g id="a_Node000006"><a xlink:href="classcore_1_1PublisherMixin.html#a72070264789468b09da400a011ea2079" target="_top" xlink:title=" ">
<polygon fill="white" stroke="#666666" points="245,-94 140.5,-94 140.5,-56 245,-56 245,-94"/>
<text text-anchor="start" x="148.5" y="-80.5" font-family="Helvetica,sans-Serif" font-size="10.00">core::PublisherMixin</text>
<text text-anchor="middle" x="192.75" y="-65.5" font-family="Helvetica,sans-Serif" font-size="10.00">::_refresh</text>
</a>
</g>
</g>
<!-- Node1&#45;&gt;Node6 -->
<g id="edge5_Node000001_Node000006" class="edge">
<title>Node1&#45;&gt;Node6</title>
<g id="a_edge5_Node000001_Node000006"><a xlink:title=" ">
<path fill="none" stroke="#63b8ff" d="M269.7,-75C261.56,-75 253.3,-75 245.37,-75"/>
<polygon fill="#63b8ff" stroke="#63b8ff" points="269.68,-78.5 279.68,-75 269.68,-71.5 269.68,-78.5"/>
</a>
</g>
</g>
<!-- Node8 -->
<g id="Node000008" class="node">
<title>Node8</title>
<g id="a_Node000008"><a xlink:href="classcore_1_1PublisherMixin.html#a27f123fa8c1a5dfd358bb3a3eed8f5a0" target="_top" xlink:title=" ">
<polygon fill="white" stroke="#666666" points="245,-38 140.5,-38 140.5,0 245,0 245,-38"/>
<text text-anchor="start" x="148.5" y="-24.5" font-family="Helvetica,sans-Serif" font-size="10.00">core::PublisherMixin</text>
<text text-anchor="middle" x="192.75" y="-9.5" font-family="Helvetica,sans-Serif" font-size="10.00">::notify</text>
</a>
</g>
</g>
<!-- Node1&#45;&gt;Node8 -->
<g id="edge7_Node000001_Node000008" class="edge">
<title>Node1&#45;&gt;Node8</title>
<g id="a_edge7_Node000001_Node000008"><a xlink:title=" ">
<path fill="none" stroke="#63b8ff" d="M274.03,-51.46C263.26,-47.11 252.13,-42.61 241.72,-38.39"/>
<polygon fill="#63b8ff" stroke="#63b8ff" points="272.62,-55.07 283.2,-55.57 275.24,-48.58 272.62,-55.07"/>
</a>
</g>
</g>
<!-- Node3 -->
<g id="Node000003" class="node">
<title>Node3</title>
<g id="a_Node000003"><a xlink:href="classcore_1_1PublisherMixin.html#abe716c0c4aaea0af1d37cd510657c294" target="_top" xlink:title=" ">
<polygon fill="white" stroke="#666666" points="104.5,-248 0,-248 0,-210 104.5,-210 104.5,-248"/>
<text text-anchor="start" x="8" y="-234.5" font-family="Helvetica,sans-Serif" font-size="10.00">core::PublisherMixin</text>
<text text-anchor="middle" x="52.25" y="-219.5" font-family="Helvetica,sans-Serif" font-size="10.00">::subscribe</text>
</a>
</g>
</g>
<!-- Node2&#45;&gt;Node3 -->
<g id="edge2_Node000002_Node000003" class="edge">
<title>Node2&#45;&gt;Node3</title>
<g id="a_edge2_Node000002_Node000003"><a xlink:title=" ">
<path fill="none" stroke="#63b8ff" d="M153.53,-170.35C138.41,-180.17 120.78,-191.34 104.5,-201 99.7,-203.84 94.6,-206.76 89.55,-209.58"/>
<polygon fill="#63b8ff" stroke="#63b8ff" points="155.13,-172.84 161.59,-164.45 151.3,-166.98 155.13,-172.84"/>
</a>
</g>
</g>
<!-- Node4 -->
<g id="Node000004" class="node">
<title>Node4</title>
<g id="a_Node000004"><a xlink:href="classcore_1_1PublisherMixin.html#a34d1d319d899087a9052b6bdf3c07a52" target="_top" xlink:title=" ">
<polygon fill="white" stroke="#666666" points="104.5,-192 0,-192 0,-154 104.5,-154 104.5,-192"/>
<text text-anchor="start" x="8" y="-178.5" font-family="Helvetica,sans-Serif" font-size="10.00">core::PublisherMixin</text>
<text text-anchor="middle" x="52.25" y="-163.5" font-family="Helvetica,sans-Serif" font-size="10.00">::subscribe</text>
</a>
</g>
</g>
<!-- Node2&#45;&gt;Node4 -->
<g id="edge3_Node000002_Node000004" class="edge">
<title>Node2&#45;&gt;Node4</title>
<g id="a_edge3_Node000002_Node000004"><a xlink:title=" ">
<path fill="none" stroke="#63b8ff" d="M129.48,-157.59C121.25,-159.25 112.89,-160.94 104.87,-162.57"/>
<polygon fill="#63b8ff" stroke="#63b8ff" points="130.07,-160.84 139.18,-155.43 128.68,-153.98 130.07,-160.84"/>
</a>
</g>
</g>
<!-- Node5 -->
<g id="Node000005" class="node">
<title>Node5</title>
<g id="a_Node000005"><a xlink:href="classcore_1_1PublisherMixin.html#a049b90591ec7644ad1e86d8bdef86cc6" target="_top" xlink:title=" ">
<polygon fill="white" stroke="#666666" points="104.5,-136 0,-136 0,-98 104.5,-98 104.5,-136"/>
<text text-anchor="start" x="8" y="-122.5" font-family="Helvetica,sans-Serif" font-size="10.00">core::PublisherMixin</text>
<text text-anchor="middle" x="52.25" y="-107.5" font-family="Helvetica,sans-Serif" font-size="10.00">::unsubscribe</text>
</a>
</g>
</g>
<!-- Node2&#45;&gt;Node5 -->
<g id="edge4_Node000002_Node000005" class="edge">
<title>Node2&#45;&gt;Node5</title>
<g id="a_edge4_Node000002_Node000005"><a xlink:title=" ">
<path fill="none" stroke="#63b8ff" d="M129.48,-132.41C121.25,-130.75 112.89,-129.06 104.87,-127.43"/>
<polygon fill="#63b8ff" stroke="#63b8ff" points="128.68,-136.02 139.18,-134.57 130.07,-129.16 128.68,-136.02"/>
</a>
</g>
</g>
<!-- Node7 -->
<g id="Node000007" class="node">
<title>Node7</title>
<g id="a_Node000007"><a xlink:href="classcore_1_1PublisherMixin.html#a49835882356b1bcd3e414c3ee2d49b81" target="_top" xlink:title=" ">
<polygon fill="white" stroke="#666666" points="104.5,-80 0,-80 0,-42 104.5,-42 104.5,-80"/>
<text text-anchor="start" x="8" y="-66.5" font-family="Helvetica,sans-Serif" font-size="10.00">core::PublisherMixin</text>
<text text-anchor="middle" x="52.25" y="-51.5" font-family="Helvetica,sans-Serif" font-size="10.00">::hasSubscription</text>
</a>
</g>
</g>
<!-- Node6&#45;&gt;Node7 -->
<g id="edge6_Node000006_Node000007" class="edge">
<title>Node6&#45;&gt;Node7</title>
<g id="a_edge6_Node000006_Node000007"><a xlink:title=" ">
<path fill="none" stroke="#63b8ff" d="M129.48,-68.71C121.25,-67.87 112.89,-67.03 104.87,-66.22"/>
<polygon fill="#63b8ff" stroke="#63b8ff" points="128.88,-72.26 139.18,-69.79 129.58,-65.3 128.88,-72.26"/>
</a>
</g>
</g>
</g>
</svg>
