<?xml version="1.0" encoding="UTF-8" standalone="no"?>
<!DOCTYPE svg PUBLIC "-//W3C//DTD SVG 1.1//EN"
 "http://www.w3.org/Graphics/SVG/1.1/DTD/svg11.dtd">
<!-- Generated by graphviz version 8.1.0 (20230707.0739)
 -->
<!-- Title: core::PublisherMixin::_find Pages: 1 -->
<svg width="253pt" height="158pt"
 viewBox="0.00 0.00 253.00 158.00" xmlns="http://www.w3.org/2000/svg" xmlns:xlink="http://www.w3.org/1999/xlink">
<g id="graph0" class="graph" transform="scale(1 1) rotate(0) translate(4 154)">
<title>core::PublisherMixin::_find</title>
<!-- Node1 -->
<g id="Node000001" class="node">
<title>Node1</title>
<g id="a_Node000001"><a xlink:title=" ">
<polygon fill="#999999" stroke="#666666" points="245,-94 140.5,-94 140.5,-56 245,-56 245,-94"/>
<text text-anchor="start" x="148.5" y="-80.5" font-family="Helvetica,sans-Serif" font-size="10.00">core::PublisherMixin</text>
<text text-anchor="middle" x="192.75" y="-65.5" font-family="Helvetica,sans-Serif" font-size="10.00">::_find</text>
</a>
</g>
</g>
<!-- Node2 -->
<g id="Node000002" class="node">
<title>Node2</title>
<g id="a_Node000002"><a xlink:href="classcore_1_1PublisherMixin.html#abe716c0c4aaea0af1d37cd510657c294" target="_top" xlink:title=" ">
<polygon fill="white" stroke="#666666" points="104.5,-150 0,-150 0,-112 104.5,-112 104.5,-150"/>
<text text-anchor="start" x="8" y="-136.5" font-family="Helvetica,sans-Serif" font-size="10.00">core::PublisherMixin</text>
<text text-anchor="middle" x="52.25" y="-121.5" font-family="Helvetica,sans-Serif" font-size="10.00">::subscribe</text>
</a>
</g>
</g>
<!-- Node1&#45;&gt;Node2 -->
<g id="edge1_Node000001_Node000002" class="edge">
<title>Node1&#45;&gt;Node2</title>
<g id="a_edge1_Node000001_Node000002"><a xlink:title=" ">
<path fill="none" stroke="#63b8ff" d="M133.53,-98.54C122.76,-102.89 111.63,-107.39 101.22,-111.61"/>
<polygon fill="#63b8ff" stroke="#63b8ff" points="134.74,-101.42 142.7,-94.43 132.12,-94.93 134.74,-101.42"/>
</a>
</g>
</g>
<!-- Node3 -->
<g id="Node000003" class="node">
<title>Node3</title>
<g id="a_Node000003"><a xlink:href="classcore_1_1PublisherMixin.html#a34d1d319d899087a9052b6bdf3c07a52" target="_top" xlink:title=" ">
<polygon fill="white" stroke="#666666" points="104.5,-94 0,-94 0,-56 104.5,-56 104.5,-94"/>
<text text-anchor="start" x="8" y="-80.5" font-family="Helvetica,sans-Serif" font-size="10.00">core::PublisherMixin</text>
<text text-anchor="middle" x="52.25" y="-65.5" font-family="Helvetica,sans-Serif" font-size="10.00">::subscribe</text>
</a>
</g>
</g>
<!-- Node1&#45;&gt;Node3 -->
<g id="edge2_Node000001_Node000003" class="edge">
<title>Node1&#45;&gt;Node3</title>
<g id="a_edge2_Node000001_Node000003"><a xlink:title=" ">
<path fill="none" stroke="#63b8ff" d="M129.2,-75C121.06,-75 112.8,-75 104.87,-75"/>
<polygon fill="#63b8ff" stroke="#63b8ff" points="129.18,-78.5 139.18,-75 129.18,-71.5 129.18,-78.5"/>
</a>
</g>
</g>
<!-- Node4 -->
<g id="Node000004" class="node">
<title>Node4</title>
<g id="a_Node000004"><a xlink:href="classcore_1_1PublisherMixin.html#a049b90591ec7644ad1e86d8bdef86cc6" target="_top" xlink:title=" ">
<polygon fill="white" stroke="#666666" points="104.5,-38 0,-38 0,0 104.5,0 104.5,-38"/>
<text text-anchor="start" x="8" y="-24.5" font-family="Helvetica,sans-Serif" font-size="10.00">core::PublisherMixin</text>
<text text-anchor="middle" x="52.25" y="-9.5" font-family="Helvetica,sans-Serif" font-size="10.00">::unsubscribe</text>
</a>
</g>
</g>
<!-- Node1&#45;&gt;Node4 -->
<g id="edge3_Node000001_Node000004" class="edge">
<title>Node1&#45;&gt;Node4</title>
<g id="a_edge3_Node000001_Node000004"><a xlink:title=" ">
<path fill="none" stroke="#63b8ff" d="M133.53,-51.46C122.76,-47.11 111.63,-42.61 101.22,-38.39"/>
<polygon fill="#63b8ff" stroke="#63b8ff" points="132.12,-55.07 142.7,-55.57 134.74,-48.58 132.12,-55.07"/>
</a>
</g>
</g>
</g>
</svg>
