<?xml version="1.0" encoding="UTF-8" standalone="no"?>
<!DOCTYPE svg PUBLIC "-//W3C//DTD SVG 1.1//EN"
 "http://www.w3.org/Graphics/SVG/1.1/DTD/svg11.dtd">
<!-- Generated by graphviz version 8.1.0 (20230707.0739)
 -->
<!-- Title: io::istream2istream_redirect Pages: 1 -->
<svg width="145pt" height="667pt"
 viewBox="0.00 0.00 145.00 667.00" xmlns="http://www.w3.org/2000/svg" xmlns:xlink="http://www.w3.org/1999/xlink">
<g id="graph0" class="graph" transform="scale(1 1) rotate(0) translate(4 663)">
<title>io::istream2istream_redirect</title>
<!-- Node1 -->
<g id="Node000001" class="node">
<title>Node1</title>
<g id="a_Node000001"><a xlink:title=" ">
<polygon fill="#999999" stroke="none" points="137,-223 0,-223 0,0 137,0 137,-223"/>
<text text-anchor="start" x="26.88" y="-209.5" font-family="Helvetica,sans-Serif" font-size="10.00">io::istream2istream</text>
<text text-anchor="start" x="49.75" y="-194.5" font-family="Helvetica,sans-Serif" font-size="10.00">_redirect</text>
<text text-anchor="start" x="5.5" y="-175.5" font-family="Helvetica,sans-Serif" font-size="10.00">&#45;</text>
<text text-anchor="start" x="14" y="-175.5" font-family="Helvetica,sans-Serif" font-size="10.00">std::streambuf * _saved</text>
<text text-anchor="start" x="4" y="-156.5" font-family="Helvetica,sans-Serif" font-size="10.00">+</text>
<text text-anchor="start" x="14" y="-156.5" font-family="Helvetica,sans-Serif" font-size="10.00">istream2istream_redirect</text>
<text text-anchor="start" x="14" y="-141.5" font-family="Helvetica,sans-Serif" font-size="10.00">(std::istream &amp;from, std</text>
<text text-anchor="start" x="14" y="-126.5" font-family="Helvetica,sans-Serif" font-size="10.00">::istream &amp;to=std::cin)</text>
<text text-anchor="start" x="4" y="-107.5" font-family="Helvetica,sans-Serif" font-size="10.00">+</text>
<text text-anchor="start" x="14" y="-107.5" font-family="Helvetica,sans-Serif" font-size="10.00">istream2istream_redirect</text>
<text text-anchor="start" x="14" y="-92.5" font-family="Helvetica,sans-Serif" font-size="10.00">(const istream2istream</text>
<text text-anchor="start" x="14" y="-77.5" font-family="Helvetica,sans-Serif" font-size="10.00">_redirect &amp;)=delete</text>
<text text-anchor="start" x="4" y="-58.5" font-family="Helvetica,sans-Serif" font-size="10.00">+</text>
<text text-anchor="start" x="14" y="-58.5" font-family="Helvetica,sans-Serif" font-size="10.00">void operator=(const</text>
<text text-anchor="start" x="14" y="-43.5" font-family="Helvetica,sans-Serif" font-size="10.00"> istream2istream_redirect</text>
<text text-anchor="start" x="14" y="-28.5" font-family="Helvetica,sans-Serif" font-size="10.00"> &amp;)=delete</text>
<text text-anchor="start" x="4" y="-9.5" font-family="Helvetica,sans-Serif" font-size="10.00">+</text>
<text text-anchor="start" x="14" y="-9.5" font-family="Helvetica,sans-Serif" font-size="10.00">~istream2istream_redirect()</text>
<polygon fill="#666666" stroke="#666666" points="0,-187 0,-187 137,-187 137,-187 0,-187"/>
<polygon fill="#666666" stroke="#666666" points="0,-168 0,-168 12,-168 12,-168 0,-168"/>
<polygon fill="#666666" stroke="#666666" points="12,-168 12,-168 137,-168 137,-168 12,-168"/>
<polygon fill="none" stroke="#666666" points="0,0 0,-223 137,-223 137,0 0,0"/>
</a>
</g>
</g>
<!-- Node2 -->
<g id="Node000002" class="node">
<title>Node2</title>
<g id="a_Node000002"><a xlink:title=" ">
<polygon fill="white" stroke="none" points="99,-350 38,-350 38,-289 99,-289 99,-350"/>
<text text-anchor="start" x="42.62" y="-336.5" font-family="Helvetica,sans-Serif" font-size="10.00">std::istream</text>
<text text-anchor="start" x="67" y="-317.5" font-family="Helvetica,sans-Serif" font-size="10.00"> </text>
<text text-anchor="start" x="67" y="-298.5" font-family="Helvetica,sans-Serif" font-size="10.00"> </text>
<polygon fill="#666666" stroke="#666666" points="38,-329 38,-329 99,-329 99,-329 38,-329"/>
<polygon fill="#666666" stroke="#666666" points="38,-310 38,-310 99,-310 99,-310 38,-310"/>
<polygon fill="none" stroke="#666666" points="38,-289 38,-350 99,-350 99,-289 38,-289"/>
</a>
</g>
</g>
<!-- Node2&#45;&gt;Node1 -->
<g id="edge1_Node000001_Node000002" class="edge">
<title>Node2&#45;&gt;Node1</title>
<g id="a_edge1_Node000001_Node000002"><a xlink:title=" ">
<path fill="none" stroke="#63b8ff" d="M68.5,-289.42C68.5,-274.7 68.5,-255.73 68.5,-235.7"/>
<polygon fill="none" stroke="#63b8ff" points="68.5,-235.67 64.5,-229.67 68.5,-223.67 72.5,-229.67 68.5,-235.67"/>
</a>
</g>
<text text-anchor="middle" x="83.88" y="-261.5" font-family="Helvetica,sans-Serif" font-size="10.00" fill="grey"> &#45;_from</text>
<text text-anchor="middle" x="83.88" y="-246.5" font-family="Helvetica,sans-Serif" font-size="10.00" fill="grey">&#45;_to</text>
</g>
<!-- Node3 -->
<g id="Node000003" class="node">
<title>Node3</title>
<g id="a_Node000003"><a xlink:title=" ">
<polygon fill="white" stroke="none" points="113.5,-463 23.5,-463 23.5,-387 113.5,-387 113.5,-463"/>
<text text-anchor="start" x="28.38" y="-449.5" font-family="Helvetica,sans-Serif" font-size="10.00">std::basic_istream</text>
<text text-anchor="start" x="49" y="-434.5" font-family="Helvetica,sans-Serif" font-size="10.00">&lt; Char &gt;</text>
<text text-anchor="start" x="67" y="-415.5" font-family="Helvetica,sans-Serif" font-size="10.00"> </text>
<text text-anchor="start" x="67" y="-396.5" font-family="Helvetica,sans-Serif" font-size="10.00"> </text>
<polygon fill="#666666" stroke="#666666" points="23.5,-427 23.5,-427 113.5,-427 113.5,-427 23.5,-427"/>
<polygon fill="#666666" stroke="#666666" points="23.5,-408 23.5,-408 113.5,-408 113.5,-408 23.5,-408"/>
<polygon fill="none" stroke="#666666" points="23.5,-387 23.5,-463 113.5,-463 113.5,-387 23.5,-387"/>
</a>
</g>
</g>
<!-- Node3&#45;&gt;Node2 -->
<g id="edge2_Node000002_Node000003" class="edge">
<title>Node3&#45;&gt;Node2</title>
<g id="a_edge2_Node000002_Node000003"><a xlink:title=" ">
<path fill="none" stroke="#63b8ff" d="M68.5,-376.3C68.5,-367.22 68.5,-357.98 68.5,-349.69"/>
<polygon fill="none" stroke="#63b8ff" points="65,-376.22 68.5,-386.22 72,-376.22 65,-376.22"/>
</a>
</g>
</g>
<!-- Node4 -->
<g id="Node000004" class="node">
<title>Node4</title>
<g id="a_Node000004"><a xlink:title=" ">
<polygon fill="white" stroke="none" points="123,-561 14,-561 14,-500 123,-500 123,-561"/>
<text text-anchor="start" x="18.62" y="-547.5" font-family="Helvetica,sans-Serif" font-size="10.00">std::basic_ios&lt; Char &gt;</text>
<text text-anchor="start" x="67" y="-528.5" font-family="Helvetica,sans-Serif" font-size="10.00"> </text>
<text text-anchor="start" x="67" y="-509.5" font-family="Helvetica,sans-Serif" font-size="10.00"> </text>
<polygon fill="#666666" stroke="#666666" points="14,-540 14,-540 123,-540 123,-540 14,-540"/>
<polygon fill="#666666" stroke="#666666" points="14,-521 14,-521 123,-521 123,-521 14,-521"/>
<polygon fill="none" stroke="#666666" points="14,-500 14,-561 123,-561 123,-500 14,-500"/>
</a>
</g>
</g>
<!-- Node4&#45;&gt;Node3 -->
<g id="edge3_Node000003_Node000004" class="edge">
<title>Node4&#45;&gt;Node3</title>
<g id="a_edge3_Node000003_Node000004"><a xlink:title=" ">
<path fill="none" stroke="#63b8ff" d="M68.5,-489.38C68.5,-480.65 68.5,-471.44 68.5,-462.84"/>
<polygon fill="none" stroke="#63b8ff" points="65,-489.12 68.5,-499.12 72,-489.12 65,-489.12"/>
</a>
</g>
</g>
<!-- Node5 -->
<g id="Node000005" class="node">
<title>Node5</title>
<g id="a_Node000005"><a xlink:title=" ">
<polygon fill="white" stroke="none" points="102.5,-659 34.5,-659 34.5,-598 102.5,-598 102.5,-659"/>
<text text-anchor="start" x="39.25" y="-645.5" font-family="Helvetica,sans-Serif" font-size="10.00">std::ios_base</text>
<text text-anchor="start" x="67" y="-626.5" font-family="Helvetica,sans-Serif" font-size="10.00"> </text>
<text text-anchor="start" x="67" y="-607.5" font-family="Helvetica,sans-Serif" font-size="10.00"> </text>
<polygon fill="#666666" stroke="#666666" points="34.5,-638 34.5,-638 102.5,-638 102.5,-638 34.5,-638"/>
<polygon fill="#666666" stroke="#666666" points="34.5,-619 34.5,-619 102.5,-619 102.5,-619 34.5,-619"/>
<polygon fill="none" stroke="#666666" points="34.5,-598 34.5,-659 102.5,-659 102.5,-598 34.5,-598"/>
</a>
</g>
</g>
<!-- Node5&#45;&gt;Node4 -->
<g id="edge4_Node000004_Node000005" class="edge">
<title>Node5&#45;&gt;Node4</title>
<g id="a_edge4_Node000004_Node000005"><a xlink:title=" ">
<path fill="none" stroke="#63b8ff" d="M68.5,-587.29C68.5,-578.47 68.5,-569.28 68.5,-560.98"/>
<polygon fill="none" stroke="#63b8ff" points="65,-587.18 68.5,-597.18 72,-587.18 65,-587.18"/>
</a>
</g>
</g>
</g>
</svg>
