<?xml version="1.0" encoding="UTF-8" standalone="no"?>
<!DOCTYPE svg PUBLIC "-//W3C//DTD SVG 1.1//EN"
 "http://www.w3.org/Graphics/SVG/1.1/DTD/svg11.dtd">
<!-- Generated by graphviz version 8.1.0 (20230707.0739)
 -->
<!-- Title: core::PublisherMixin&lt; EventType &gt; Pages: 1 -->
<svg width="175pt" height="730pt"
 viewBox="0.00 0.00 174.50 730.00" xmlns="http://www.w3.org/2000/svg" xmlns:xlink="http://www.w3.org/1999/xlink">
<g id="graph0" class="graph" transform="scale(1 1) rotate(0) translate(4 726)">
<title>core::PublisherMixin&lt; EventType &gt;</title>
<!-- Node1 -->
<g id="Node000001" class="node">
<title>Node1</title>
<g id="a_Node000001"><a xlink:title=" ">
<polygon fill="#999999" stroke="none" points="159,-386 0,-386 0,0 159,0 159,-386"/>
<text text-anchor="start" x="35.25" y="-372.5" font-family="Helvetica,sans-Serif" font-size="10.00">core::PublisherMixin</text>
<text text-anchor="start" x="47.62" y="-357.5" font-family="Helvetica,sans-Serif" font-size="10.00">&lt; EventType &gt;</text>
<text text-anchor="start" x="78" y="-338.5" font-family="Helvetica,sans-Serif" font-size="10.00"> </text>
<text text-anchor="start" x="4" y="-319.5" font-family="Helvetica,sans-Serif" font-size="10.00">+</text>
<text text-anchor="start" x="14" y="-319.5" font-family="Helvetica,sans-Serif" font-size="10.00">virtual ~PublisherMixin</text>
<text text-anchor="start" x="14" y="-304.5" font-family="Helvetica,sans-Serif" font-size="10.00">()=default</text>
<text text-anchor="start" x="4" y="-285.5" font-family="Helvetica,sans-Serif" font-size="10.00">+</text>
<text text-anchor="start" x="14" y="-285.5" font-family="Helvetica,sans-Serif" font-size="10.00">void subscribe(SPtrSubscriber</text>
<text text-anchor="start" x="14" y="-270.5" font-family="Helvetica,sans-Serif" font-size="10.00"> const &amp;subscriber, bool own)</text>
<text text-anchor="start" x="4" y="-251.5" font-family="Helvetica,sans-Serif" font-size="10.00">+</text>
<text text-anchor="start" x="14" y="-251.5" font-family="Helvetica,sans-Serif" font-size="10.00">void subscribe(SPtrSubscriber</text>
<text text-anchor="start" x="14" y="-236.5" font-family="Helvetica,sans-Serif" font-size="10.00"> &amp;&amp;subscriber)</text>
<text text-anchor="start" x="4" y="-217.5" font-family="Helvetica,sans-Serif" font-size="10.00">+</text>
<text text-anchor="start" x="14" y="-217.5" font-family="Helvetica,sans-Serif" font-size="10.00">bool hasSubscription()</text>
<text text-anchor="start" x="4" y="-198.5" font-family="Helvetica,sans-Serif" font-size="10.00">+</text>
<text text-anchor="start" x="14" y="-198.5" font-family="Helvetica,sans-Serif" font-size="10.00">void unsubscribe(SPtrSubscriber</text>
<text text-anchor="start" x="14" y="-183.5" font-family="Helvetica,sans-Serif" font-size="10.00"> const &amp;subscriber)</text>
<text text-anchor="start" x="4" y="-164.5" font-family="Helvetica,sans-Serif" font-size="10.00">+</text>
<text text-anchor="start" x="14" y="-164.5" font-family="Helvetica,sans-Serif" font-size="10.00">void clear()</text>
<text text-anchor="start" x="4.38" y="-145.5" font-family="Helvetica,sans-Serif" font-size="10.00">#</text>
<text text-anchor="start" x="14" y="-145.5" font-family="Helvetica,sans-Serif" font-size="10.00">PublisherMixin()</text>
<text text-anchor="start" x="4.38" y="-126.5" font-family="Helvetica,sans-Serif" font-size="10.00">#</text>
<text text-anchor="start" x="14" y="-126.5" font-family="Helvetica,sans-Serif" font-size="10.00">void notify(EventType</text>
<text text-anchor="start" x="14" y="-111.5" font-family="Helvetica,sans-Serif" font-size="10.00"> const &amp;event)</text>
<text text-anchor="start" x="5.5" y="-92.5" font-family="Helvetica,sans-Serif" font-size="10.00">&#45;</text>
<text text-anchor="start" x="14" y="-92.5" font-family="Helvetica,sans-Serif" font-size="10.00">std::optional&lt; SPtrSubscriber</text>
<text text-anchor="start" x="14" y="-77.5" font-family="Helvetica,sans-Serif" font-size="10.00"> &gt; _getShared(VPtrSubscriber</text>
<text text-anchor="start" x="14" y="-62.5" font-family="Helvetica,sans-Serif" font-size="10.00"> const &amp;vptr)</text>
<text text-anchor="start" x="5.5" y="-43.5" font-family="Helvetica,sans-Serif" font-size="10.00">&#45;</text>
<text text-anchor="start" x="14" y="-43.5" font-family="Helvetica,sans-Serif" font-size="10.00">auto _findSteady(std</text>
<text text-anchor="start" x="14" y="-28.5" font-family="Helvetica,sans-Serif" font-size="10.00">::string_view id)</text>
<text text-anchor="start" x="5.5" y="-9.5" font-family="Helvetica,sans-Serif" font-size="10.00">&#45;</text>
<text text-anchor="start" x="14" y="-9.5" font-family="Helvetica,sans-Serif" font-size="10.00">void _refresh()</text>
<polygon fill="#666666" stroke="#666666" points="0,-350 0,-350 159,-350 159,-350 0,-350"/>
<polygon fill="#666666" stroke="#666666" points="0,-331 0,-331 159,-331 159,-331 0,-331"/>
<polygon fill="none" stroke="#666666" points="0,0 0,-386 159,-386 159,0 0,0"/>
</a>
</g>
</g>
<!-- Node2 -->
<g id="Node000002" class="node">
<title>Node2</title>
<g id="a_Node000002"><a xlink:title=" ">
<polygon fill="white" stroke="none" points="142.5,-498 16.5,-498 16.5,-437 142.5,-437 142.5,-498"/>
<text text-anchor="start" x="21.38" y="-484.5" font-family="Helvetica,sans-Serif" font-size="10.00">std::list&lt; VPtrSubscriber &gt;</text>
<text text-anchor="start" x="20.5" y="-465.5" font-family="Helvetica,sans-Serif" font-size="10.00">+</text>
<text text-anchor="start" x="30.5" y="-465.5" font-family="Helvetica,sans-Serif" font-size="10.00">VPtrSubscriber elements</text>
<text text-anchor="start" x="78" y="-446.5" font-family="Helvetica,sans-Serif" font-size="10.00"> </text>
<polygon fill="#666666" stroke="#666666" points="16.5,-477 16.5,-477 142.5,-477 142.5,-477 16.5,-477"/>
<polygon fill="#666666" stroke="#666666" points="16.5,-458 16.5,-458 28.5,-458 28.5,-458 16.5,-458"/>
<polygon fill="#666666" stroke="#666666" points="28.5,-458 28.5,-458 142.5,-458 142.5,-458 28.5,-458"/>
<polygon fill="none" stroke="#666666" points="16.5,-437 16.5,-498 142.5,-498 142.5,-437 16.5,-437"/>
</a>
</g>
</g>
<!-- Node2&#45;&gt;Node1 -->
<g id="edge1_Node000001_Node000002" class="edge">
<title>Node2&#45;&gt;Node1</title>
<g id="a_edge1_Node000001_Node000002"><a xlink:title=" ">
<path fill="none" stroke="#63b8ff" d="M79.5,-437.08C79.5,-426.38 79.5,-413.33 79.5,-398.88"/>
<polygon fill="none" stroke="#63b8ff" points="79.5,-398.76 75.5,-392.76 79.5,-386.76 83.5,-392.76 79.5,-398.76"/>
</a>
</g>
<text text-anchor="middle" x="95.62" y="-409.5" font-family="Helvetica,sans-Serif" font-size="10.00" fill="grey"> &#45;_subs</text>
</g>
<!-- Node3 -->
<g id="Node000003" class="node">
<title>Node3</title>
<g id="a_Node000003"><a xlink:title=" ">
<polygon fill="white" stroke="none" points="112.5,-610 46.5,-610 46.5,-549 112.5,-549 112.5,-610"/>
<text text-anchor="start" x="51.38" y="-596.5" font-family="Helvetica,sans-Serif" font-size="10.00">std::list&lt; T &gt;</text>
<text text-anchor="start" x="78" y="-577.5" font-family="Helvetica,sans-Serif" font-size="10.00"> </text>
<text text-anchor="start" x="78" y="-558.5" font-family="Helvetica,sans-Serif" font-size="10.00"> </text>
<polygon fill="#666666" stroke="#666666" points="46.5,-589 46.5,-589 112.5,-589 112.5,-589 46.5,-589"/>
<polygon fill="#666666" stroke="#666666" points="46.5,-570 46.5,-570 112.5,-570 112.5,-570 46.5,-570"/>
<polygon fill="none" stroke="#666666" points="46.5,-549 46.5,-610 112.5,-610 112.5,-549 46.5,-549"/>
</a>
</g>
</g>
<!-- Node3&#45;&gt;Node2 -->
<g id="edge2_Node000002_Node000003" class="edge">
<title>Node3&#45;&gt;Node2</title>
<g id="a_edge2_Node000002_Node000003"><a xlink:title=" ">
<path fill="none" stroke="orange" d="M79.5,-538.13C79.5,-524.73 79.5,-510.07 79.5,-497.68"/>
<polygon fill="orange" stroke="orange" points="76,-538.02 79.5,-548.02 83,-538.02 76,-538.02"/>
</a>
</g>
<text text-anchor="middle" x="123" y="-521.5" font-family="Helvetica,sans-Serif" font-size="10.00" fill="grey"> &lt; VPtrSubscriber &gt;</text>
</g>
<!-- Node4 -->
<g id="Node000004" class="node">
<title>Node4</title>
<g id="a_Node000004"><a xlink:title=" ">
<polygon fill="white" stroke="none" points="87.5,-722 71.5,-722 71.5,-661 87.5,-661 87.5,-722"/>
<text text-anchor="start" x="76.5" y="-708.5" font-family="Helvetica,sans-Serif" font-size="10.00">T</text>
<text text-anchor="start" x="78" y="-689.5" font-family="Helvetica,sans-Serif" font-size="10.00"> </text>
<text text-anchor="start" x="78" y="-670.5" font-family="Helvetica,sans-Serif" font-size="10.00"> </text>
<polygon fill="#666666" stroke="#666666" points="71.5,-701 71.5,-701 87.5,-701 87.5,-701 71.5,-701"/>
<polygon fill="#666666" stroke="#666666" points="71.5,-682 71.5,-682 87.5,-682 87.5,-682 71.5,-682"/>
<polygon fill="none" stroke="#666666" points="71.5,-661 71.5,-722 87.5,-722 87.5,-661 71.5,-661"/>
</a>
</g>
</g>
<!-- Node4&#45;&gt;Node3 -->
<g id="edge3_Node000003_Node000004" class="edge">
<title>Node4&#45;&gt;Node3</title>
<g id="a_edge3_Node000003_Node000004"><a xlink:title=" ">
<path fill="none" stroke="#63b8ff" d="M79.5,-661.02C79.5,-649.21 79.5,-635.39 79.5,-622.56"/>
<polygon fill="none" stroke="#63b8ff" points="79.5,-622.58 75.5,-616.58 79.5,-610.58 83.5,-616.58 79.5,-622.58"/>
</a>
</g>
<text text-anchor="middle" x="103.88" y="-633.5" font-family="Helvetica,sans-Serif" font-size="10.00" fill="grey"> +elements</text>
</g>
</g>
</svg>
