<?xml version="1.0" encoding="UTF-8" standalone="no"?>
<!DOCTYPE svg PUBLIC "-//W3C//DTD SVG 1.1//EN"
 "http://www.w3.org/Graphics/SVG/1.1/DTD/svg11.dtd">
<!-- Generated by graphviz version 8.1.0 (20230707.0739)
 -->
<!-- Title: core::PublisherMixin::hasSubscription Pages: 1 -->
<svg width="394pt" height="46pt"
 viewBox="0.00 0.00 393.50 46.00" xmlns="http://www.w3.org/2000/svg" xmlns:xlink="http://www.w3.org/1999/xlink">
<g id="graph0" class="graph" transform="scale(1 1) rotate(0) translate(4 42)">
<title>core::PublisherMixin::hasSubscription</title>
<!-- Node1 -->
<g id="Node000001" class="node">
<title>Node1</title>
<g id="a_Node000001"><a xlink:title=" ">
<polygon fill="#999999" stroke="#666666" points="104.5,-38 0,-38 0,0 104.5,0 104.5,-38"/>
<text text-anchor="start" x="8" y="-24.5" font-family="Helvetica,sans-Serif" font-size="10.00">core::PublisherMixin</text>
<text text-anchor="middle" x="52.25" y="-9.5" font-family="Helvetica,sans-Serif" font-size="10.00">::hasSubscription</text>
</a>
</g>
</g>
<!-- Node2 -->
<g id="Node000002" class="node">
<title>Node2</title>
<g id="a_Node000002"><a xlink:href="classcore_1_1PublisherMixin.html#a72070264789468b09da400a011ea2079" target="_top" xlink:title=" ">
<polygon fill="white" stroke="#666666" points="245,-38 140.5,-38 140.5,0 245,0 245,-38"/>
<text text-anchor="start" x="148.5" y="-24.5" font-family="Helvetica,sans-Serif" font-size="10.00">core::PublisherMixin</text>
<text text-anchor="middle" x="192.75" y="-9.5" font-family="Helvetica,sans-Serif" font-size="10.00">::_refresh</text>
</a>
</g>
</g>
<!-- Node1&#45;&gt;Node2 -->
<g id="edge1_Node000001_Node000002" class="edge">
<title>Node1&#45;&gt;Node2</title>
<g id="a_edge1_Node000001_Node000002"><a xlink:title=" ">
<path fill="none" stroke="#63b8ff" d="M104.82,-19C112.75,-19 121.02,-19 129.16,-19"/>
<polygon fill="#63b8ff" stroke="#63b8ff" points="129.13,-22.5 139.13,-19 129.13,-15.5 129.13,-22.5"/>
</a>
</g>
</g>
<!-- Node3 -->
<g id="Node000003" class="node">
<title>Node3</title>
<g id="a_Node000003"><a xlink:href="classcore_1_1PublisherMixin.html#add83b0ee1c605a09fc5d557928a07ea8" target="_top" xlink:title=" ">
<polygon fill="white" stroke="#666666" points="385.5,-38 281,-38 281,0 385.5,0 385.5,-38"/>
<text text-anchor="start" x="289" y="-24.5" font-family="Helvetica,sans-Serif" font-size="10.00">core::PublisherMixin</text>
<text text-anchor="middle" x="333.25" y="-9.5" font-family="Helvetica,sans-Serif" font-size="10.00">::_getShared</text>
</a>
</g>
</g>
<!-- Node2&#45;&gt;Node3 -->
<g id="edge2_Node000002_Node000003" class="edge">
<title>Node2&#45;&gt;Node3</title>
<g id="a_edge2_Node000002_Node000003"><a xlink:title=" ">
<path fill="none" stroke="#63b8ff" d="M245.32,-19C253.25,-19 261.52,-19 269.66,-19"/>
<polygon fill="#63b8ff" stroke="#63b8ff" points="269.63,-22.5 279.63,-19 269.63,-15.5 269.63,-22.5"/>
</a>
</g>
</g>
</g>
</svg>
