<?xml version="1.0" encoding="UTF-8" standalone="no"?>
<!DOCTYPE svg PUBLIC "-//W3C//DTD SVG 1.1//EN"
 "http://www.w3.org/Graphics/SVG/1.1/DTD/svg11.dtd">
<!-- Generated by graphviz version 8.1.0 (20230707.0739)
 -->
<!-- Title: io::istream2file_redirect Pages: 1 -->
<!--zoomable 810 -->

<svg id="main" version="1.1" xmlns="http://www.w3.org/2000/svg" xmlns:xlink="http://www.w3.org/1999/xlink" xml:space="preserve" onload="init(evt)">
<style type="text/css"><![CDATA[
.node, .edge {opacity: 0.7;}
.node.selected, .edge.selected {opacity: 1;}
.edge:hover path { stroke: red; }
.edge:hover polygon { stroke: red; fill: red; }
]]></style>

<defs>
  <circle id="rim" cx="0" cy="0" r="7"/>
  <circle id="rim2" cx="0" cy="0" r="3.5"/>
  <g id="zoomPlus">
    <use xlink:href="#rim" fill="#404040"><set attributeName="fill" to="#808080" begin="zoomplus.mouseover" end="zoomplus.mouseout"/></use>
    <path d="M-4,0h8M0,-4v8" fill="none" stroke="white" stroke-width="1.5" pointer-events="none"/>
  </g>
  <g id="zoomMin">
    <use xlink:href="#rim" fill="#404040"><set attributeName="fill" to="#808080" begin="zoomminus.mouseover" end="zoomminus.mouseout"/></use>
    <path d="M-4,0h8" fill="none" stroke="white" stroke-width="1.5" pointer-events="none"/>
  </g>
  <g id="arrowUp" transform="translate(30 24)">
    <use xlink:href="#rim"/>
    <path pointer-events="none" fill="none" stroke="white" stroke-width="1.5" d="M0,-3.0v7 M-2.5,-0.5L0,-3.0L2.5,-0.5"/>
  </g>
  <g id="arrowRight" transform="rotate(90) translate(36 -43)">
    <use xlink:href="#rim"/>
    <path pointer-events="none" fill="none" stroke="white" stroke-width="1.5" d="M0,-3.0v7 M-2.5,-0.5L0,-3.0L2.5,-0.5"/>
  </g>
  <g id="arrowDown" transform="rotate(180) translate(-30 -48)">
    <use xlink:href="#rim"/>
    <path pointer-events="none" fill="none" stroke="white" stroke-width="1.5" d="M0,-3.0v7 M-2.5,-0.5L0,-3.0L2.5,-0.5"/>
  </g>
  <g id="arrowLeft" transform="rotate(270) translate(-36 17)">
    <use xlink:href="#rim"/>
    <path pointer-events="none" fill="none" stroke="white" stroke-width="1.5" d="M0,-3.0v7 M-2.5,-0.5L0,-3.0L2.5,-0.5"/>
  </g>
  <g id="resetDef">
    <use xlink:href="#rim2" fill="#404040"><set attributeName="fill" to="#808080" begin="reset.mouseover" end="reset.mouseout"/></use>
  </g>
</defs>
<script type="application/ecmascript">
var viewWidth = 206;
var viewHeight = 810;
var sectionId = 'dynsection-0';
</script>
<script type="application/ecmascript" xlink:href="svg.min.js"/>
<svg id="graph" class="graph">
<g id="viewport">
<title>io::istream2file_redirect</title>
<!-- Node1 -->
<g id="Node000001" class="node">
<title>Node1</title>
<g id="a_Node000001"><a xlink:title=" ">
<polygon fill="#999999" stroke="none" points="147.5,-208 12.5,-208 12.5,0 147.5,0 147.5,-208"/>
<text text-anchor="start" x="29.38" y="-194.5" font-family="Helvetica,sans-Serif" font-size="10.00">io::istream2file_redirect</text>
<text text-anchor="start" x="18" y="-175.5" font-family="Helvetica,sans-Serif" font-size="10.00">&#45;</text>
<text text-anchor="start" x="26.5" y="-175.5" font-family="Helvetica,sans-Serif" font-size="10.00">std::streambuf * _saved</text>
<text text-anchor="start" x="16.5" y="-156.5" font-family="Helvetica,sans-Serif" font-size="10.00">+</text>
<text text-anchor="start" x="26.5" y="-156.5" font-family="Helvetica,sans-Serif" font-size="10.00">istream2file_redirect</text>
<text text-anchor="start" x="26.5" y="-141.5" font-family="Helvetica,sans-Serif" font-size="10.00">(std::string_view filename,</text>
<text text-anchor="start" x="26.5" y="-126.5" font-family="Helvetica,sans-Serif" font-size="10.00"> std::istream &amp;to=std::cin)</text>
<text text-anchor="start" x="16.5" y="-107.5" font-family="Helvetica,sans-Serif" font-size="10.00">+</text>
<text text-anchor="start" x="26.5" y="-107.5" font-family="Helvetica,sans-Serif" font-size="10.00">istream2file_redirect</text>
<text text-anchor="start" x="26.5" y="-92.5" font-family="Helvetica,sans-Serif" font-size="10.00">(const istream2file_redirect</text>
<text text-anchor="start" x="26.5" y="-77.5" font-family="Helvetica,sans-Serif" font-size="10.00"> &amp;)=delete</text>
<text text-anchor="start" x="16.5" y="-58.5" font-family="Helvetica,sans-Serif" font-size="10.00">+</text>
<text text-anchor="start" x="26.5" y="-58.5" font-family="Helvetica,sans-Serif" font-size="10.00">void operator=(const</text>
<text text-anchor="start" x="26.5" y="-43.5" font-family="Helvetica,sans-Serif" font-size="10.00"> istream2file_redirect</text>
<text text-anchor="start" x="26.5" y="-28.5" font-family="Helvetica,sans-Serif" font-size="10.00"> &amp;)=delete</text>
<text text-anchor="start" x="16.5" y="-9.5" font-family="Helvetica,sans-Serif" font-size="10.00">+</text>
<text text-anchor="start" x="26.5" y="-9.5" font-family="Helvetica,sans-Serif" font-size="10.00">~istream2file_redirect()</text>
<polygon fill="#666666" stroke="#666666" points="12.5,-187 12.5,-187 147.5,-187 147.5,-187 12.5,-187"/>
<polygon fill="#666666" stroke="#666666" points="12.5,-168 12.5,-168 24.5,-168 24.5,-168 12.5,-168"/>
<polygon fill="#666666" stroke="#666666" points="24.5,-168 24.5,-168 147.5,-168 147.5,-168 24.5,-168"/>
<polygon fill="none" stroke="#666666" points="12.5,0 12.5,-208 147.5,-208 147.5,0 12.5,0"/>
</a>
</g>
</g>
<!-- Node2 -->
<g id="Node000002" class="node">
<title>Node2</title>
<g id="a_Node000002"><a xlink:title=" ">
<polygon fill="white" stroke="none" points="93.5,-399 32.5,-399 32.5,-338 93.5,-338 93.5,-399"/>
<text text-anchor="start" x="37.12" y="-385.5" font-family="Helvetica,sans-Serif" font-size="10.00">std::istream</text>
<text text-anchor="start" x="61.5" y="-366.5" font-family="Helvetica,sans-Serif" font-size="10.00"> </text>
<text text-anchor="start" x="61.5" y="-347.5" font-family="Helvetica,sans-Serif" font-size="10.00"> </text>
<polygon fill="#666666" stroke="#666666" points="32.5,-378 32.5,-378 93.5,-378 93.5,-378 32.5,-378"/>
<polygon fill="#666666" stroke="#666666" points="32.5,-359 32.5,-359 93.5,-359 93.5,-359 32.5,-359"/>
<polygon fill="none" stroke="#666666" points="32.5,-338 32.5,-399 93.5,-399 93.5,-338 32.5,-338"/>
</a>
</g>
</g>
<!-- Node2&#45;&gt;Node1 -->
<g id="edge1_Node000001_Node000002" class="edge">
<title>Node2&#45;&gt;Node1</title>
<g id="a_edge1_Node000001_Node000002"><a xlink:title=" ">
<path fill="none" stroke="#63b8ff" d="M64.9,-338.15C66.75,-309.54 69.69,-264.14 72.49,-220.98"/>
<polygon fill="none" stroke="#63b8ff" points="72.5,-220.86 68.89,-214.61 73.27,-208.88 76.88,-215.13 72.5,-220.86"/>
</a>
</g>
<text text-anchor="middle" x="79.75" y="-287.5" font-family="Helvetica,sans-Serif" font-size="10.00" fill="grey"> &#45;_to</text>
</g>
<!-- Node3 -->
<g id="Node000003" class="node">
<title>Node3</title>
<g id="a_Node000003"><a xlink:title=" ">
<polygon fill="white" stroke="none" points="90,-606 0,-606 0,-530 90,-530 90,-606"/>
<text text-anchor="start" x="4.88" y="-592.5" font-family="Helvetica,sans-Serif" font-size="10.00">std::basic_istream</text>
<text text-anchor="start" x="25.5" y="-577.5" font-family="Helvetica,sans-Serif" font-size="10.00">&lt; Char &gt;</text>
<text text-anchor="start" x="43.5" y="-558.5" font-family="Helvetica,sans-Serif" font-size="10.00"> </text>
<text text-anchor="start" x="43.5" y="-539.5" font-family="Helvetica,sans-Serif" font-size="10.00"> </text>
<polygon fill="#666666" stroke="#666666" points="0,-570 0,-570 90,-570 90,-570 0,-570"/>
<polygon fill="#666666" stroke="#666666" points="0,-551 0,-551 90,-551 90,-551 0,-551"/>
<polygon fill="none" stroke="#666666" points="0,-530 0,-606 90,-606 90,-530 0,-530"/>
</a>
</g>
</g>
<!-- Node3&#45;&gt;Node2 -->
<g id="edge2_Node000002_Node000003" class="edge">
<title>Node3&#45;&gt;Node2</title>
<g id="a_edge2_Node000002_Node000003"><a xlink:title=" ">
<path fill="none" stroke="#63b8ff" d="M49.32,-519.63C52.74,-482.07 57.42,-430.77 60.32,-398.91"/>
<polygon fill="none" stroke="#63b8ff" points="45.77,-519.04 48.34,-529.31 52.74,-519.67 45.77,-519.04"/>
</a>
</g>
</g>
<!-- Node4 -->
<g id="Node000004" class="node">
<title>Node4</title>
<g id="a_Node000004"><a xlink:title=" ">
<polygon fill="white" stroke="none" points="152.5,-704 43.5,-704 43.5,-643 152.5,-643 152.5,-704"/>
<text text-anchor="start" x="48.12" y="-690.5" font-family="Helvetica,sans-Serif" font-size="10.00">std::basic_ios&lt; Char &gt;</text>
<text text-anchor="start" x="96.5" y="-671.5" font-family="Helvetica,sans-Serif" font-size="10.00"> </text>
<text text-anchor="start" x="96.5" y="-652.5" font-family="Helvetica,sans-Serif" font-size="10.00"> </text>
<polygon fill="#666666" stroke="#666666" points="43.5,-683 43.5,-683 152.5,-683 152.5,-683 43.5,-683"/>
<polygon fill="#666666" stroke="#666666" points="43.5,-664 43.5,-664 152.5,-664 152.5,-664 43.5,-664"/>
<polygon fill="none" stroke="#666666" points="43.5,-643 43.5,-704 152.5,-704 152.5,-643 43.5,-643"/>
</a>
</g>
</g>
<!-- Node4&#45;&gt;Node3 -->
<g id="edge3_Node000003_Node000004" class="edge">
<title>Node4&#45;&gt;Node3</title>
<g id="a_edge3_Node000003_Node000004"><a xlink:title=" ">
<path fill="none" stroke="#63b8ff" d="M78.05,-633.54C73.4,-624.46 68.47,-614.83 63.87,-605.84"/>
<polygon fill="none" stroke="#63b8ff" points="75.28,-634.81 82.95,-642.12 81.51,-631.62 75.28,-634.81"/>
</a>
</g>
</g>
<!-- Node8 -->
<g id="Node000008" class="node">
<title>Node8</title>
<g id="a_Node000008"><a xlink:title=" ">
<polygon fill="white" stroke="none" points="198,-606 108,-606 108,-530 198,-530 198,-606"/>
<text text-anchor="start" x="112.88" y="-592.5" font-family="Helvetica,sans-Serif" font-size="10.00">std::basic_istream</text>
<text text-anchor="start" x="133.5" y="-577.5" font-family="Helvetica,sans-Serif" font-size="10.00">&lt; Char &gt;</text>
<text text-anchor="start" x="151.5" y="-558.5" font-family="Helvetica,sans-Serif" font-size="10.00"> </text>
<text text-anchor="start" x="151.5" y="-539.5" font-family="Helvetica,sans-Serif" font-size="10.00"> </text>
<polygon fill="#666666" stroke="#666666" points="108,-570 108,-570 198,-570 198,-570 108,-570"/>
<polygon fill="#666666" stroke="#666666" points="108,-551 108,-551 198,-551 198,-551 108,-551"/>
<polygon fill="none" stroke="#666666" points="108,-530 108,-606 198,-606 198,-530 108,-530"/>
</a>
</g>
</g>
<!-- Node4&#45;&gt;Node8 -->
<g id="edge8_Node000008_Node000004" class="edge">
<title>Node4&#45;&gt;Node8</title>
<g id="a_edge8_Node000008_Node000004"><a xlink:title=" ">
<path fill="none" stroke="#63b8ff" d="M118.7,-633.54C123.53,-624.46 128.65,-614.83 133.42,-605.84"/>
<polygon fill="none" stroke="#63b8ff" points="115.22,-631.64 113.61,-642.12 121.4,-634.93 115.22,-631.64"/>
</a>
</g>
</g>
<!-- Node5 -->
<g id="Node000005" class="node">
<title>Node5</title>
<g id="a_Node000005"><a xlink:title=" ">
<polygon fill="white" stroke="none" points="132,-802 64,-802 64,-741 132,-741 132,-802"/>
<text text-anchor="start" x="68.75" y="-788.5" font-family="Helvetica,sans-Serif" font-size="10.00">std::ios_base</text>
<text text-anchor="start" x="96.5" y="-769.5" font-family="Helvetica,sans-Serif" font-size="10.00"> </text>
<text text-anchor="start" x="96.5" y="-750.5" font-family="Helvetica,sans-Serif" font-size="10.00"> </text>
<polygon fill="#666666" stroke="#666666" points="64,-781 64,-781 132,-781 132,-781 64,-781"/>
<polygon fill="#666666" stroke="#666666" points="64,-762 64,-762 132,-762 132,-762 64,-762"/>
<polygon fill="none" stroke="#666666" points="64,-741 64,-802 132,-802 132,-741 64,-741"/>
</a>
</g>
</g>
<!-- Node5&#45;&gt;Node4 -->
<g id="edge4_Node000004_Node000005" class="edge">
<title>Node5&#45;&gt;Node4</title>
<g id="a_edge4_Node000004_Node000005"><a xlink:title=" ">
<path fill="none" stroke="#63b8ff" d="M98,-730.29C98,-721.47 98,-712.28 98,-703.98"/>
<polygon fill="none" stroke="#63b8ff" points="94.5,-730.18 98,-740.18 101.5,-730.18 94.5,-730.18"/>
</a>
</g>
</g>
<!-- Node6 -->
<g id="Node000006" class="node">
<title>Node6</title>
<g id="a_Node000006"><a xlink:title=" ">
<polygon fill="white" stroke="none" points="167,-320 103,-320 103,-259 167,-259 167,-320"/>
<text text-anchor="start" x="107.62" y="-306.5" font-family="Helvetica,sans-Serif" font-size="10.00">std::ifstream</text>
<text text-anchor="start" x="133.5" y="-287.5" font-family="Helvetica,sans-Serif" font-size="10.00"> </text>
<text text-anchor="start" x="133.5" y="-268.5" font-family="Helvetica,sans-Serif" font-size="10.00"> </text>
<polygon fill="#666666" stroke="#666666" points="103,-299 103,-299 167,-299 167,-299 103,-299"/>
<polygon fill="#666666" stroke="#666666" points="103,-280 103,-280 167,-280 167,-280 103,-280"/>
<polygon fill="none" stroke="#666666" points="103,-259 103,-320 167,-320 167,-259 103,-259"/>
</a>
</g>
</g>
<!-- Node6&#45;&gt;Node1 -->
<g id="edge5_Node000001_Node000006" class="edge">
<title>Node6&#45;&gt;Node1</title>
<g id="a_edge5_Node000001_Node000006"><a xlink:title=" ">
<path fill="none" stroke="#63b8ff" d="M126.16,-259.02C122.82,-247.86 118.78,-234.37 114.49,-220.07"/>
<polygon fill="none" stroke="#63b8ff" points="114.55,-220.27 108.99,-215.67 111.1,-208.77 116.66,-213.37 114.55,-220.27"/>
</a>
</g>
<text text-anchor="middle" x="136.38" y="-231.5" font-family="Helvetica,sans-Serif" font-size="10.00" fill="grey"> &#45;_from</text>
</g>
<!-- Node7 -->
<g id="Node000007" class="node">
<title>Node7</title>
<g id="a_Node000007"><a xlink:title=" ">
<polygon fill="white" stroke="none" points="190.5,-493 97.5,-493 97.5,-417 190.5,-417 190.5,-493"/>
<text text-anchor="start" x="102.38" y="-479.5" font-family="Helvetica,sans-Serif" font-size="10.00">std::basic_ifstream</text>
<text text-anchor="start" x="124.5" y="-464.5" font-family="Helvetica,sans-Serif" font-size="10.00">&lt; Char &gt;</text>
<text text-anchor="start" x="142.5" y="-445.5" font-family="Helvetica,sans-Serif" font-size="10.00"> </text>
<text text-anchor="start" x="142.5" y="-426.5" font-family="Helvetica,sans-Serif" font-size="10.00"> </text>
<polygon fill="#666666" stroke="#666666" points="97.5,-457 97.5,-457 190.5,-457 190.5,-457 97.5,-457"/>
<polygon fill="#666666" stroke="#666666" points="97.5,-438 97.5,-438 190.5,-438 190.5,-438 97.5,-438"/>
<polygon fill="none" stroke="#666666" points="97.5,-417 97.5,-493 190.5,-493 190.5,-417 97.5,-417"/>
</a>
</g>
</g>
<!-- Node7&#45;&gt;Node6 -->
<g id="edge6_Node000006_Node000007" class="edge">
<title>Node7&#45;&gt;Node6</title>
<g id="a_edge6_Node000006_Node000007"><a xlink:title=" ">
<path fill="none" stroke="#63b8ff" d="M141.39,-406.55C139.85,-378.59 137.95,-344.07 136.62,-319.98"/>
<polygon fill="none" stroke="#63b8ff" points="137.94,-406.51 141.98,-416.31 144.93,-406.13 137.94,-406.51"/>
</a>
</g>
</g>
<!-- Node8&#45;&gt;Node7 -->
<g id="edge7_Node000007_Node000008" class="edge">
<title>Node8&#45;&gt;Node7</title>
<g id="a_edge7_Node000007_Node000008"><a xlink:title=" ">
<path fill="none" stroke="#63b8ff" d="M149.12,-519.09C148.4,-510.28 147.67,-501.22 146.98,-492.8"/>
<polygon fill="none" stroke="#63b8ff" points="145.71,-519.35 150,-529.04 152.68,-518.79 145.71,-519.35"/>
</a>
</g>
</g>
</g>
</svg>

<g id="navigator" transform="translate(0 0)" fill="#404254">
  <rect fill="#f2f5e9" fill-opacity="0.5" stroke="#606060" stroke-width=".5" x="0" y="0" width="60" height="60"/>
  <use id="zoomplus" xlink:href="#zoomPlus" x="17" y="9" onmousedown="handleZoom(evt,'in')"/>
  <use id="zoomminus" xlink:href="#zoomMin" x="42" y="9" onmousedown="handleZoom(evt,'out')"/>
  <use id="reset" xlink:href="#resetDef" x="30" y="36" onmousedown="handleReset()"/>
   <use id="arrowup" xlink:href="#arrowUp" x="0" y="0" onmousedown="handlePan(0,-1)"/>
  <use id="arrowright" xlink:href="#arrowRight" x="0" y="0" onmousedown="handlePan(1,0)"/>
  <use id="arrowdown" xlink:href="#arrowDown" x="0" y="0" onmousedown="handlePan(0,1)"/>
  <use id="arrowleft" xlink:href="#arrowLeft" x="0" y="0" onmousedown="handlePan(-1,0)"/>
</g>
<svg viewBox="0 0 15 15" width="100%" height="30px" preserveAspectRatio="xMaxYMin meet">
 <g id="arrow_out" transform="scale(0.3 0.3)">
  <a xlink:href="classio_1_1istream2file__redirect__coll__graph_org.svg" target="_base">
   <rect id="button" ry="5" rx="5" y="6" x="6" height="38" width="38"
        fill="#f2f5e9" fill-opacity="0.5" stroke="#606060" stroke-width="1.0"/>
   <path id="arrow"
     d="M 11.500037,31.436501 C 11.940474,20.09759 22.043105,11.32322 32.158766,21.979434 L 37.068811,17.246167 C 37.068811,17.246167 37.088388,32 37.088388,32 L 22.160133,31.978069 C 22.160133,31.978069 26.997745,27.140456 26.997745,27.140456 C 18.528582,18.264221 13.291696,25.230495 11.500037,31.436501 z"
     style="fill:#404040;"/>
  </a>
 </g>
</svg>

<style type='text/css'>
<![CDATA[
[data-mouse-over-selected='false'] { opacity: 0.7; }
[data-mouse-over-selected='true']  { opacity: 1.0; }
]]>
</style>
<script type="application/ecmascript"><![CDATA[
document.addEventListener('DOMContentLoaded', (event) => {
  highlightEdges();
  highlightAdjacentNodes();
});
]]></script>
</svg>
