<?xml version="1.0" encoding="UTF-8" standalone="no"?>
<!DOCTYPE svg PUBLIC "-//W3C//DTD SVG 1.1//EN"
 "http://www.w3.org/Graphics/SVG/1.1/DTD/svg11.dtd">
<!-- Generated by graphviz version 8.1.0 (20230707.0739)
 -->
<!-- Title: utils::defer Pages: 1 -->
<svg width="106pt" height="137pt"
 viewBox="0.00 0.00 106.00 137.00" xmlns="http://www.w3.org/2000/svg" xmlns:xlink="http://www.w3.org/1999/xlink">
<g id="graph0" class="graph" transform="scale(1 1) rotate(0) translate(4 133)">
<title>utils::defer</title>
<!-- Node1 -->
<g id="Node000001" class="node">
<title>Node1</title>
<g id="a_Node000001"><a xlink:title="defer wrapper">
<polygon fill="#999999" stroke="none" points="98,-129 0,-129 0,0 98,0 98,-129"/>
<text text-anchor="start" x="26.12" y="-115.5" font-family="Helvetica,sans-Serif" font-size="10.00">utils::defer</text>
<text text-anchor="start" x="5.5" y="-96.5" font-family="Helvetica,sans-Serif" font-size="10.00">&#45;</text>
<text text-anchor="start" x="14" y="-96.5" font-family="Helvetica,sans-Serif" font-size="10.00">std::function&lt; void</text>
<text text-anchor="start" x="14" y="-81.5" font-family="Helvetica,sans-Serif" font-size="10.00">()&gt; _f</text>
<text text-anchor="start" x="4" y="-62.5" font-family="Helvetica,sans-Serif" font-size="10.00">+</text>
<text text-anchor="start" x="14" y="-62.5" font-family="Helvetica,sans-Serif" font-size="10.00">defer(std::function</text>
<text text-anchor="start" x="14" y="-47.5" font-family="Helvetica,sans-Serif" font-size="10.00">&lt; void()&gt; f)</text>
<text text-anchor="start" x="4" y="-28.5" font-family="Helvetica,sans-Serif" font-size="10.00">+</text>
<text text-anchor="start" x="14" y="-28.5" font-family="Helvetica,sans-Serif" font-size="10.00">~defer()</text>
<text text-anchor="start" x="5.5" y="-9.5" font-family="Helvetica,sans-Serif" font-size="10.00">&#45;</text>
<text text-anchor="start" x="14" y="-9.5" font-family="Helvetica,sans-Serif" font-size="10.00">defer()</text>
<polygon fill="#666666" stroke="#666666" points="0,-108 0,-108 98,-108 98,-108 0,-108"/>
<polygon fill="#666666" stroke="#666666" points="0,-74 0,-74 12,-74 12,-74 0,-74"/>
<polygon fill="#666666" stroke="#666666" points="12,-74 12,-74 98,-74 98,-74 12,-74"/>
<polygon fill="none" stroke="#666666" points="0,0 0,-129 98,-129 98,0 0,0"/>
</a>
</g>
</g>
</g>
</svg>
