<?xml version="1.0" encoding="UTF-8" standalone="no"?>
<!DOCTYPE svg PUBLIC "-//W3C//DTD SVG 1.1//EN"
 "http://www.w3.org/Graphics/SVG/1.1/DTD/svg11.dtd">
<!-- Generated by graphviz version 8.1.0 (20230707.0739)
 -->
<!-- Title: logs::FileWriter Pages: 1 -->
<svg width="273pt" height="1116pt"
 viewBox="0.00 0.00 272.50 1116.00" xmlns="http://www.w3.org/2000/svg" xmlns:xlink="http://www.w3.org/1999/xlink">
<g id="graph0" class="graph" transform="scale(1 1) rotate(0) translate(4 1112)">
<title>logs::FileWriter</title>
<!-- Node1 -->
<g id="Node000001" class="node">
<title>Node1</title>
<g id="a_Node000001"><a xlink:title=" ">
<polygon fill="#999999" stroke="none" points="217.5,-476 54.5,-476 54.5,0 217.5,0 217.5,-476"/>
<text text-anchor="start" x="103.38" y="-462.5" font-family="Helvetica,sans-Serif" font-size="10.00">logs::FileWriter</text>
<text text-anchor="start" x="60" y="-443.5" font-family="Helvetica,sans-Serif" font-size="10.00">&#45;</text>
<text text-anchor="start" x="68.5" y="-443.5" font-family="Helvetica,sans-Serif" font-size="10.00">fs::path const _output_dir</text>
<text text-anchor="start" x="60" y="-424.5" font-family="Helvetica,sans-Serif" font-size="10.00">&#45;</text>
<text text-anchor="start" x="68.5" y="-424.5" font-family="Helvetica,sans-Serif" font-size="10.00">std::string const </text>
<text text-anchor="start" x="68.5" y="-409.5" font-family="Helvetica,sans-Serif" font-size="10.00">_local_name</text>
<text text-anchor="start" x="60" y="-390.5" font-family="Helvetica,sans-Serif" font-size="10.00">&#45;</text>
<text text-anchor="start" x="68.5" y="-390.5" font-family="Helvetica,sans-Serif" font-size="10.00">std::string const _name</text>
<text text-anchor="start" x="60" y="-371.5" font-family="Helvetica,sans-Serif" font-size="10.00">&#45;</text>
<text text-anchor="start" x="68.5" y="-371.5" font-family="Helvetica,sans-Serif" font-size="10.00">size_t _bulk_counter</text>
<text text-anchor="start" x="60" y="-352.5" font-family="Helvetica,sans-Serif" font-size="10.00">&#45;</text>
<text text-anchor="start" x="68.5" y="-352.5" font-family="Helvetica,sans-Serif" font-size="10.00">core::SubscriptionStatus</text>
<text text-anchor="start" x="68.5" y="-337.5" font-family="Helvetica,sans-Serif" font-size="10.00"> _subs_state</text>
<text text-anchor="start" x="58.5" y="-318.5" font-family="Helvetica,sans-Serif" font-size="10.00">+</text>
<text text-anchor="start" x="68.5" y="-318.5" font-family="Helvetica,sans-Serif" font-size="10.00">core::SubscriptionStatus</text>
<text text-anchor="start" x="68.5" y="-303.5" font-family="Helvetica,sans-Serif" font-size="10.00"> getSubscriptionStatus</text>
<text text-anchor="start" x="68.5" y="-288.5" font-family="Helvetica,sans-Serif" font-size="10.00">() noexcept override</text>
<text text-anchor="start" x="58.5" y="-269.5" font-family="Helvetica,sans-Serif" font-size="10.00">+</text>
<text text-anchor="start" x="68.5" y="-269.5" font-family="Helvetica,sans-Serif" font-size="10.00">void setSubscriptionStatus</text>
<text text-anchor="start" x="68.5" y="-254.5" font-family="Helvetica,sans-Serif" font-size="10.00">(core::SubscriptionStatus</text>
<text text-anchor="start" x="68.5" y="-239.5" font-family="Helvetica,sans-Serif" font-size="10.00"> state) noexcept</text>
<text text-anchor="start" x="58.5" y="-220.5" font-family="Helvetica,sans-Serif" font-size="10.00">+</text>
<text text-anchor="start" x="68.5" y="-220.5" font-family="Helvetica,sans-Serif" font-size="10.00">core::SubscriptionStatus</text>
<text text-anchor="start" x="68.5" y="-205.5" font-family="Helvetica,sans-Serif" font-size="10.00"> onEvent(bulk::BulkEvent</text>
<text text-anchor="start" x="68.5" y="-190.5" font-family="Helvetica,sans-Serif" font-size="10.00"> const &amp;event) override</text>
<text text-anchor="start" x="58.5" y="-171.5" font-family="Helvetica,sans-Serif" font-size="10.00">+</text>
<text text-anchor="start" x="68.5" y="-171.5" font-family="Helvetica,sans-Serif" font-size="10.00">static auto create</text>
<text text-anchor="start" x="68.5" y="-156.5" font-family="Helvetica,sans-Serif" font-size="10.00">(std::string_view output</text>
<text text-anchor="start" x="68.5" y="-141.5" font-family="Helvetica,sans-Serif" font-size="10.00">_directory, std::string</text>
<text text-anchor="start" x="68.5" y="-126.5" font-family="Helvetica,sans-Serif" font-size="10.00">_view name=&quot;&quot;)</text>
<text text-anchor="start" x="60" y="-107.5" font-family="Helvetica,sans-Serif" font-size="10.00">&#45;</text>
<text text-anchor="start" x="68.5" y="-107.5" font-family="Helvetica,sans-Serif" font-size="10.00">FileWriter(std::string</text>
<text text-anchor="start" x="68.5" y="-92.5" font-family="Helvetica,sans-Serif" font-size="10.00">_view local_name=&quot;&quot;, std</text>
<text text-anchor="start" x="68.5" y="-77.5" font-family="Helvetica,sans-Serif" font-size="10.00">::string_view output_directory=&quot;&quot;)</text>
<text text-anchor="start" x="60" y="-58.5" font-family="Helvetica,sans-Serif" font-size="10.00">&#45;</text>
<text text-anchor="start" x="68.5" y="-58.5" font-family="Helvetica,sans-Serif" font-size="10.00">std::string getSubscriber</text>
<text text-anchor="start" x="68.5" y="-43.5" font-family="Helvetica,sans-Serif" font-size="10.00">Name() const noexcept override</text>
<text text-anchor="start" x="60" y="-24.5" font-family="Helvetica,sans-Serif" font-size="10.00">&#45;</text>
<text text-anchor="start" x="68.5" y="-24.5" font-family="Helvetica,sans-Serif" font-size="10.00">size_t _instanceNum</text>
<text text-anchor="start" x="68.5" y="-9.5" font-family="Helvetica,sans-Serif" font-size="10.00">() const</text>
<polygon fill="#666666" stroke="#666666" points="54.5,-455 54.5,-455 217.5,-455 217.5,-455 54.5,-455"/>
<polygon fill="#666666" stroke="#666666" points="54.5,-330 54.5,-330 66.5,-330 66.5,-330 54.5,-330"/>
<polygon fill="#666666" stroke="#666666" points="66.5,-330 66.5,-330 217.5,-330 217.5,-330 66.5,-330"/>
<polygon fill="none" stroke="#666666" points="54.5,0 54.5,-476 217.5,-476 217.5,0 54.5,0"/>
</a>
</g>
</g>
<!-- Node2 -->
<g id="Node000002" class="node">
<title>Node2</title>
<g id="a_Node000002"><a xlink:href="structcore_1_1SubscriberBase.html" target="_top" xlink:title=" ">
<polygon fill="white" stroke="none" points="131,-785 1,-785 1,-513 131,-513 131,-785"/>
<text text-anchor="start" x="19.12" y="-771.5" font-family="Helvetica,sans-Serif" font-size="10.00">core::SubscriberBase</text>
<text text-anchor="start" x="22.88" y="-756.5" font-family="Helvetica,sans-Serif" font-size="10.00">&lt; bulk::BulkEvent &gt;</text>
<text text-anchor="start" x="6.5" y="-737.5" font-family="Helvetica,sans-Serif" font-size="10.00">&#45;</text>
<text text-anchor="start" x="15" y="-737.5" font-family="Helvetica,sans-Serif" font-size="10.00">std::string _id</text>
<text text-anchor="start" x="5" y="-718.5" font-family="Helvetica,sans-Serif" font-size="10.00">+</text>
<text text-anchor="start" x="15" y="-718.5" font-family="Helvetica,sans-Serif" font-size="10.00">virtual ~SubscriberBase</text>
<text text-anchor="start" x="15" y="-703.5" font-family="Helvetica,sans-Serif" font-size="10.00">()=default</text>
<text text-anchor="start" x="5" y="-684.5" font-family="Helvetica,sans-Serif" font-size="10.00">+</text>
<text text-anchor="start" x="15" y="-684.5" font-family="Helvetica,sans-Serif" font-size="10.00">virtual SubscriptionStatus</text>
<text text-anchor="start" x="15" y="-669.5" font-family="Helvetica,sans-Serif" font-size="10.00"> onEvent(bulk::BulkEvent</text>
<text text-anchor="start" x="15" y="-654.5" font-family="Helvetica,sans-Serif" font-size="10.00"> const &amp;event)=0</text>
<text text-anchor="start" x="5" y="-635.5" font-family="Helvetica,sans-Serif" font-size="10.00">+</text>
<text text-anchor="start" x="15" y="-635.5" font-family="Helvetica,sans-Serif" font-size="10.00">virtual SubscriptionStatus</text>
<text text-anchor="start" x="15" y="-620.5" font-family="Helvetica,sans-Serif" font-size="10.00"> getSubscriptionStatus()</text>
<text text-anchor="start" x="15" y="-605.5" font-family="Helvetica,sans-Serif" font-size="10.00"> noexcept</text>
<text text-anchor="start" x="5" y="-586.5" font-family="Helvetica,sans-Serif" font-size="10.00">+</text>
<text text-anchor="start" x="15" y="-586.5" font-family="Helvetica,sans-Serif" font-size="10.00">virtual std::string</text>
<text text-anchor="start" x="15" y="-571.5" font-family="Helvetica,sans-Serif" font-size="10.00"> getSubscriberID() final</text>
<text text-anchor="start" x="5.38" y="-552.5" font-family="Helvetica,sans-Serif" font-size="10.00">#</text>
<text text-anchor="start" x="15" y="-552.5" font-family="Helvetica,sans-Serif" font-size="10.00">virtual std::string</text>
<text text-anchor="start" x="15" y="-537.5" font-family="Helvetica,sans-Serif" font-size="10.00"> getSubscriberName()</text>
<text text-anchor="start" x="15" y="-522.5" font-family="Helvetica,sans-Serif" font-size="10.00"> const noexcept</text>
<polygon fill="#666666" stroke="#666666" points="1,-749 1,-749 131,-749 131,-749 1,-749"/>
<polygon fill="#666666" stroke="#666666" points="1,-730 1,-730 13,-730 13,-730 1,-730"/>
<polygon fill="#666666" stroke="#666666" points="13,-730 13,-730 131,-730 131,-730 13,-730"/>
<polygon fill="none" stroke="#666666" points="1,-513 1,-785 131,-785 131,-513 1,-513"/>
</a>
</g>
</g>
<!-- Node2&#45;&gt;Node1 -->
<g id="edge1_Node000001_Node000002" class="edge">
<title>Node2&#45;&gt;Node1</title>
<g id="a_edge1_Node000001_Node000002"><a xlink:title=" ">
<path fill="none" stroke="#63b8ff" d="M90.9,-502.54C92.41,-493.71 93.95,-484.72 95.5,-475.64"/>
<polygon fill="none" stroke="#63b8ff" points="87.3,-501.78 89.07,-512.23 94.2,-502.96 87.3,-501.78"/>
</a>
</g>
</g>
<!-- Node3 -->
<g id="Node000003" class="node">
<title>Node3</title>
<g id="a_Node000003"><a xlink:href="structcore_1_1SubscriberBase.html" target="_top" xlink:title=" ">
<polygon fill="white" stroke="none" points="132,-1108 0,-1108 0,-836 132,-836 132,-1108"/>
<text text-anchor="start" x="19.12" y="-1094.5" font-family="Helvetica,sans-Serif" font-size="10.00">core::SubscriberBase</text>
<text text-anchor="start" x="34.12" y="-1079.5" font-family="Helvetica,sans-Serif" font-size="10.00">&lt; EventType &gt;</text>
<text text-anchor="start" x="5.5" y="-1060.5" font-family="Helvetica,sans-Serif" font-size="10.00">&#45;</text>
<text text-anchor="start" x="14" y="-1060.5" font-family="Helvetica,sans-Serif" font-size="10.00">std::string _id</text>
<text text-anchor="start" x="4" y="-1041.5" font-family="Helvetica,sans-Serif" font-size="10.00">+</text>
<text text-anchor="start" x="14" y="-1041.5" font-family="Helvetica,sans-Serif" font-size="10.00">virtual ~SubscriberBase</text>
<text text-anchor="start" x="14" y="-1026.5" font-family="Helvetica,sans-Serif" font-size="10.00">()=default</text>
<text text-anchor="start" x="4" y="-1007.5" font-family="Helvetica,sans-Serif" font-size="10.00">+</text>
<text text-anchor="start" x="14" y="-1007.5" font-family="Helvetica,sans-Serif" font-size="10.00">virtual SubscriptionStatus</text>
<text text-anchor="start" x="14" y="-992.5" font-family="Helvetica,sans-Serif" font-size="10.00"> onEvent(EventType const</text>
<text text-anchor="start" x="14" y="-977.5" font-family="Helvetica,sans-Serif" font-size="10.00"> &amp;event)=0</text>
<text text-anchor="start" x="4" y="-958.5" font-family="Helvetica,sans-Serif" font-size="10.00">+</text>
<text text-anchor="start" x="14" y="-958.5" font-family="Helvetica,sans-Serif" font-size="10.00">virtual SubscriptionStatus</text>
<text text-anchor="start" x="14" y="-943.5" font-family="Helvetica,sans-Serif" font-size="10.00"> getSubscriptionStatus()</text>
<text text-anchor="start" x="14" y="-928.5" font-family="Helvetica,sans-Serif" font-size="10.00"> noexcept</text>
<text text-anchor="start" x="4" y="-909.5" font-family="Helvetica,sans-Serif" font-size="10.00">+</text>
<text text-anchor="start" x="14" y="-909.5" font-family="Helvetica,sans-Serif" font-size="10.00">virtual std::string</text>
<text text-anchor="start" x="14" y="-894.5" font-family="Helvetica,sans-Serif" font-size="10.00"> getSubscriberID() final</text>
<text text-anchor="start" x="4.38" y="-875.5" font-family="Helvetica,sans-Serif" font-size="10.00">#</text>
<text text-anchor="start" x="14" y="-875.5" font-family="Helvetica,sans-Serif" font-size="10.00">virtual std::string</text>
<text text-anchor="start" x="14" y="-860.5" font-family="Helvetica,sans-Serif" font-size="10.00"> getSubscriberName()</text>
<text text-anchor="start" x="14" y="-845.5" font-family="Helvetica,sans-Serif" font-size="10.00"> const noexcept</text>
<polygon fill="#666666" stroke="#666666" points="0,-1072 0,-1072 132,-1072 132,-1072 0,-1072"/>
<polygon fill="#666666" stroke="#666666" points="0,-1053 0,-1053 12,-1053 12,-1053 0,-1053"/>
<polygon fill="#666666" stroke="#666666" points="12,-1053 12,-1053 132,-1053 132,-1053 12,-1053"/>
<polygon fill="none" stroke="#666666" points="0,-836 0,-1108 132,-1108 132,-836 0,-836"/>
</a>
</g>
</g>
<!-- Node3&#45;&gt;Node2 -->
<g id="edge2_Node000002_Node000003" class="edge">
<title>Node3&#45;&gt;Node2</title>
<g id="a_edge2_Node000002_Node000003"><a xlink:title=" ">
<path fill="none" stroke="orange" d="M66,-825.47C66,-811.96 66,-798.31 66,-784.91"/>
<polygon fill="orange" stroke="orange" points="62.5,-825.26 66,-835.26 69.5,-825.26 62.5,-825.26"/>
</a>
</g>
<text text-anchor="middle" x="110.62" y="-808.5" font-family="Helvetica,sans-Serif" font-size="10.00" fill="grey"> &lt; bulk::BulkEvent &gt;</text>
</g>
<!-- Node4 -->
<g id="Node000004" class="node">
<title>Node4</title>
<g id="a_Node000004"><a xlink:title=" ">
<polygon fill="white" stroke="none" points="264.5,-687 149.5,-687 149.5,-611 264.5,-611 264.5,-687"/>
<text text-anchor="start" x="154.5" y="-673.5" font-family="Helvetica,sans-Serif" font-size="10.00">std::enable_shared</text>
<text text-anchor="start" x="154.5" y="-658.5" font-family="Helvetica,sans-Serif" font-size="10.00">_from_this&lt; FileWriter &gt;</text>
<text text-anchor="start" x="205.5" y="-639.5" font-family="Helvetica,sans-Serif" font-size="10.00"> </text>
<text text-anchor="start" x="205.5" y="-620.5" font-family="Helvetica,sans-Serif" font-size="10.00"> </text>
<polygon fill="#666666" stroke="#666666" points="149.5,-651 149.5,-651 264.5,-651 264.5,-651 149.5,-651"/>
<polygon fill="#666666" stroke="#666666" points="149.5,-632 149.5,-632 264.5,-632 264.5,-632 149.5,-632"/>
<polygon fill="none" stroke="#666666" points="149.5,-611 149.5,-687 264.5,-687 264.5,-611 149.5,-611"/>
</a>
</g>
</g>
<!-- Node4&#45;&gt;Node1 -->
<g id="edge3_Node000001_Node000004" class="edge">
<title>Node4&#45;&gt;Node1</title>
<g id="a_edge3_Node000001_Node000004"><a xlink:title=" ">
<path fill="none" stroke="#63b8ff" d="M198.76,-600.53C193.18,-568.38 185.34,-523.22 177.09,-475.68"/>
<polygon fill="none" stroke="#63b8ff" points="195.48,-601.09 200.64,-610.34 202.37,-599.89 195.48,-601.09"/>
</a>
</g>
</g>
</g>
</svg>
