<?xml version="1.0" encoding="UTF-8" standalone="no"?>
<!DOCTYPE svg PUBLIC "-//W3C//DTD SVG 1.1//EN"
 "http://www.w3.org/Graphics/SVG/1.1/DTD/svg11.dtd">
<!-- Generated by graphviz version 8.1.0 (20230707.0739)
 -->
<!-- Title: cmd::provider::ConsoleParser Pages: 1 -->
<!--zoomable 1439 -->

<svg id="main" version="1.1" xmlns="http://www.w3.org/2000/svg" xmlns:xlink="http://www.w3.org/1999/xlink" xml:space="preserve" onload="init(evt)">
<style type="text/css"><![CDATA[
.node, .edge {opacity: 0.7;}
.node.selected, .edge.selected {opacity: 1;}
.edge:hover path { stroke: red; }
.edge:hover polygon { stroke: red; fill: red; }
]]></style>

<defs>
  <circle id="rim" cx="0" cy="0" r="7"/>
  <circle id="rim2" cx="0" cy="0" r="3.5"/>
  <g id="zoomPlus">
    <use xlink:href="#rim" fill="#404040"><set attributeName="fill" to="#808080" begin="zoomplus.mouseover" end="zoomplus.mouseout"/></use>
    <path d="M-4,0h8M0,-4v8" fill="none" stroke="white" stroke-width="1.5" pointer-events="none"/>
  </g>
  <g id="zoomMin">
    <use xlink:href="#rim" fill="#404040"><set attributeName="fill" to="#808080" begin="zoomminus.mouseover" end="zoomminus.mouseout"/></use>
    <path d="M-4,0h8" fill="none" stroke="white" stroke-width="1.5" pointer-events="none"/>
  </g>
  <g id="arrowUp" transform="translate(30 24)">
    <use xlink:href="#rim"/>
    <path pointer-events="none" fill="none" stroke="white" stroke-width="1.5" d="M0,-3.0v7 M-2.5,-0.5L0,-3.0L2.5,-0.5"/>
  </g>
  <g id="arrowRight" transform="rotate(90) translate(36 -43)">
    <use xlink:href="#rim"/>
    <path pointer-events="none" fill="none" stroke="white" stroke-width="1.5" d="M0,-3.0v7 M-2.5,-0.5L0,-3.0L2.5,-0.5"/>
  </g>
  <g id="arrowDown" transform="rotate(180) translate(-30 -48)">
    <use xlink:href="#rim"/>
    <path pointer-events="none" fill="none" stroke="white" stroke-width="1.5" d="M0,-3.0v7 M-2.5,-0.5L0,-3.0L2.5,-0.5"/>
  </g>
  <g id="arrowLeft" transform="rotate(270) translate(-36 17)">
    <use xlink:href="#rim"/>
    <path pointer-events="none" fill="none" stroke="white" stroke-width="1.5" d="M0,-3.0v7 M-2.5,-0.5L0,-3.0L2.5,-0.5"/>
  </g>
  <g id="resetDef">
    <use xlink:href="#rim2" fill="#404040"><set attributeName="fill" to="#808080" begin="reset.mouseover" end="reset.mouseout"/></use>
  </g>
</defs>
<script type="application/ecmascript">
var viewWidth = 281;
var viewHeight = 1439;
var sectionId = 'dynsection-1';
</script>
<script type="application/ecmascript" xlink:href="svg.min.js"/>
<svg id="graph" class="graph">
<g id="viewport">
<title>cmd::provider::ConsoleParser</title>
<!-- Node1 -->
<g id="Node000001" class="node">
<title>Node1</title>
<g id="a_Node000001"><a xlink:title="Command parser from input stream.">
<polygon fill="#999999" stroke="none" points="154.5,-235 4.5,-235 4.5,0 154.5,0 154.5,-235"/>
<text text-anchor="start" x="14.62" y="-221.5" font-family="Helvetica,sans-Serif" font-size="10.00">cmd::provider::ConsoleParser</text>
<text text-anchor="start" x="78" y="-202.5" font-family="Helvetica,sans-Serif" font-size="10.00"> </text>
<text text-anchor="start" x="8.5" y="-183.5" font-family="Helvetica,sans-Serif" font-size="10.00">+</text>
<text text-anchor="start" x="18.5" y="-183.5" font-family="Helvetica,sans-Serif" font-size="10.00">ConsoleParser(ConsoleParser</text>
<text text-anchor="start" x="18.5" y="-168.5" font-family="Helvetica,sans-Serif" font-size="10.00"> const &amp;)=delete</text>
<text text-anchor="start" x="8.5" y="-149.5" font-family="Helvetica,sans-Serif" font-size="10.00">+</text>
<text text-anchor="start" x="18.5" y="-149.5" font-family="Helvetica,sans-Serif" font-size="10.00">ConsoleParser &amp; operator</text>
<text text-anchor="start" x="18.5" y="-134.5" font-family="Helvetica,sans-Serif" font-size="10.00">=(ConsoleParser const &amp;)</text>
<text text-anchor="start" x="18.5" y="-119.5" font-family="Helvetica,sans-Serif" font-size="10.00">=delete</text>
<text text-anchor="start" x="8.5" y="-100.5" font-family="Helvetica,sans-Serif" font-size="10.00">+</text>
<text text-anchor="start" x="18.5" y="-100.5" font-family="Helvetica,sans-Serif" font-size="10.00">~ConsoleParser()</text>
<text text-anchor="start" x="8.5" y="-81.5" font-family="Helvetica,sans-Serif" font-size="10.00">+</text>
<text text-anchor="start" x="18.5" y="-81.5" font-family="Helvetica,sans-Serif" font-size="10.00">void run()</text>
<text text-anchor="start" x="8.5" y="-62.5" font-family="Helvetica,sans-Serif" font-size="10.00">+</text>
<text text-anchor="start" x="18.5" y="-62.5" font-family="Helvetica,sans-Serif" font-size="10.00">static ConsoleParser</text>
<text text-anchor="start" x="18.5" y="-47.5" font-family="Helvetica,sans-Serif" font-size="10.00"> &amp; instance()</text>
<text text-anchor="start" x="10" y="-28.5" font-family="Helvetica,sans-Serif" font-size="10.00">&#45;</text>
<text text-anchor="start" x="18.5" y="-28.5" font-family="Helvetica,sans-Serif" font-size="10.00">ConsoleParser() noexcept</text>
<text text-anchor="start" x="10" y="-9.5" font-family="Helvetica,sans-Serif" font-size="10.00">&#45;</text>
<text text-anchor="start" x="18.5" y="-9.5" font-family="Helvetica,sans-Serif" font-size="10.00">Token advance()</text>
<polygon fill="#666666" stroke="#666666" points="4.5,-214 4.5,-214 154.5,-214 154.5,-214 4.5,-214"/>
<polygon fill="#666666" stroke="#666666" points="4.5,-195 4.5,-195 154.5,-195 154.5,-195 4.5,-195"/>
<polygon fill="none" stroke="#666666" points="4.5,0 4.5,-235 154.5,-235 154.5,0 4.5,0"/>
</a>
</g>
</g>
<!-- Node2 -->
<g id="Node000002" class="node">
<title>Node2</title>
<g id="a_Node000002"><a xlink:href="classcore_1_1PublisherMixin.html" target="_top" xlink:title=" ">
<polygon fill="white" stroke="none" points="159,-658 0,-658 0,-272 159,-272 159,-658"/>
<text text-anchor="start" x="35.25" y="-644.5" font-family="Helvetica,sans-Serif" font-size="10.00">core::PublisherMixin</text>
<text text-anchor="start" x="45.38" y="-629.5" font-family="Helvetica,sans-Serif" font-size="10.00">&lt; TokenEvent &gt;</text>
<text text-anchor="start" x="78" y="-610.5" font-family="Helvetica,sans-Serif" font-size="10.00"> </text>
<text text-anchor="start" x="4" y="-591.5" font-family="Helvetica,sans-Serif" font-size="10.00">+</text>
<text text-anchor="start" x="14" y="-591.5" font-family="Helvetica,sans-Serif" font-size="10.00">virtual ~PublisherMixin</text>
<text text-anchor="start" x="14" y="-576.5" font-family="Helvetica,sans-Serif" font-size="10.00">()=default</text>
<text text-anchor="start" x="4" y="-557.5" font-family="Helvetica,sans-Serif" font-size="10.00">+</text>
<text text-anchor="start" x="14" y="-557.5" font-family="Helvetica,sans-Serif" font-size="10.00">void subscribe(SPtrSubscriber</text>
<text text-anchor="start" x="14" y="-542.5" font-family="Helvetica,sans-Serif" font-size="10.00"> const &amp;subscriber, bool own)</text>
<text text-anchor="start" x="4" y="-523.5" font-family="Helvetica,sans-Serif" font-size="10.00">+</text>
<text text-anchor="start" x="14" y="-523.5" font-family="Helvetica,sans-Serif" font-size="10.00">void subscribe(SPtrSubscriber</text>
<text text-anchor="start" x="14" y="-508.5" font-family="Helvetica,sans-Serif" font-size="10.00"> &amp;&amp;subscriber)</text>
<text text-anchor="start" x="4" y="-489.5" font-family="Helvetica,sans-Serif" font-size="10.00">+</text>
<text text-anchor="start" x="14" y="-489.5" font-family="Helvetica,sans-Serif" font-size="10.00">bool hasSubscription()</text>
<text text-anchor="start" x="4" y="-470.5" font-family="Helvetica,sans-Serif" font-size="10.00">+</text>
<text text-anchor="start" x="14" y="-470.5" font-family="Helvetica,sans-Serif" font-size="10.00">void unsubscribe(SPtrSubscriber</text>
<text text-anchor="start" x="14" y="-455.5" font-family="Helvetica,sans-Serif" font-size="10.00"> const &amp;subscriber)</text>
<text text-anchor="start" x="4" y="-436.5" font-family="Helvetica,sans-Serif" font-size="10.00">+</text>
<text text-anchor="start" x="14" y="-436.5" font-family="Helvetica,sans-Serif" font-size="10.00">void clear()</text>
<text text-anchor="start" x="4.38" y="-417.5" font-family="Helvetica,sans-Serif" font-size="10.00">#</text>
<text text-anchor="start" x="14" y="-417.5" font-family="Helvetica,sans-Serif" font-size="10.00">PublisherMixin()</text>
<text text-anchor="start" x="4.38" y="-398.5" font-family="Helvetica,sans-Serif" font-size="10.00">#</text>
<text text-anchor="start" x="14" y="-398.5" font-family="Helvetica,sans-Serif" font-size="10.00">void notify(TokenEvent</text>
<text text-anchor="start" x="14" y="-383.5" font-family="Helvetica,sans-Serif" font-size="10.00"> const &amp;event)</text>
<text text-anchor="start" x="5.5" y="-364.5" font-family="Helvetica,sans-Serif" font-size="10.00">&#45;</text>
<text text-anchor="start" x="14" y="-364.5" font-family="Helvetica,sans-Serif" font-size="10.00">std::optional&lt; SPtrSubscriber</text>
<text text-anchor="start" x="14" y="-349.5" font-family="Helvetica,sans-Serif" font-size="10.00"> &gt; _getShared(VPtrSubscriber</text>
<text text-anchor="start" x="14" y="-334.5" font-family="Helvetica,sans-Serif" font-size="10.00"> const &amp;vptr)</text>
<text text-anchor="start" x="5.5" y="-315.5" font-family="Helvetica,sans-Serif" font-size="10.00">&#45;</text>
<text text-anchor="start" x="14" y="-315.5" font-family="Helvetica,sans-Serif" font-size="10.00">auto _findSteady(std</text>
<text text-anchor="start" x="14" y="-300.5" font-family="Helvetica,sans-Serif" font-size="10.00">::string_view id)</text>
<text text-anchor="start" x="5.5" y="-281.5" font-family="Helvetica,sans-Serif" font-size="10.00">&#45;</text>
<text text-anchor="start" x="14" y="-281.5" font-family="Helvetica,sans-Serif" font-size="10.00">void _refresh()</text>
<polygon fill="#666666" stroke="#666666" points="0,-622 0,-622 159,-622 159,-622 0,-622"/>
<polygon fill="#666666" stroke="#666666" points="0,-603 0,-603 159,-603 159,-603 0,-603"/>
<polygon fill="none" stroke="#666666" points="0,-272 0,-658 159,-658 159,-272 0,-272"/>
</a>
</g>
</g>
<!-- Node2&#45;&gt;Node1 -->
<g id="edge1_Node000001_Node000002" class="edge">
<title>Node2&#45;&gt;Node1</title>
<g id="a_edge1_Node000001_Node000002"><a xlink:title=" ">
<path fill="none" stroke="#63b8ff" d="M79.5,-261.18C79.5,-252.31 79.5,-243.55 79.5,-234.99"/>
<polygon fill="none" stroke="#63b8ff" points="76,-261.05 79.5,-271.05 83,-261.05 76,-261.05"/>
</a>
</g>
</g>
<!-- Node3 -->
<g id="Node000003" class="node">
<title>Node3</title>
<g id="a_Node000003"><a xlink:title=" ">
<polygon fill="white" stroke="none" points="142.5,-1207 16.5,-1207 16.5,-1146 142.5,-1146 142.5,-1207"/>
<text text-anchor="start" x="21.38" y="-1193.5" font-family="Helvetica,sans-Serif" font-size="10.00">std::list&lt; VPtrSubscriber &gt;</text>
<text text-anchor="start" x="20.5" y="-1174.5" font-family="Helvetica,sans-Serif" font-size="10.00">+</text>
<text text-anchor="start" x="30.5" y="-1174.5" font-family="Helvetica,sans-Serif" font-size="10.00">VPtrSubscriber elements</text>
<text text-anchor="start" x="78" y="-1155.5" font-family="Helvetica,sans-Serif" font-size="10.00"> </text>
<polygon fill="#666666" stroke="#666666" points="16.5,-1186 16.5,-1186 142.5,-1186 142.5,-1186 16.5,-1186"/>
<polygon fill="#666666" stroke="#666666" points="16.5,-1167 16.5,-1167 28.5,-1167 28.5,-1167 16.5,-1167"/>
<polygon fill="#666666" stroke="#666666" points="28.5,-1167 28.5,-1167 142.5,-1167 142.5,-1167 28.5,-1167"/>
<polygon fill="none" stroke="#666666" points="16.5,-1146 16.5,-1207 142.5,-1207 142.5,-1146 16.5,-1146"/>
</a>
</g>
</g>
<!-- Node3&#45;&gt;Node2 -->
<g id="edge2_Node000002_Node000003" class="edge">
<title>Node3&#45;&gt;Node2</title>
<g id="a_edge2_Node000002_Node000003"><a xlink:title=" ">
<path fill="none" stroke="#63b8ff" d="M76.21,-1146.1C74.67,-1130.87 73.01,-1111.96 72.25,-1095 65.89,-953.41 67.84,-793.72 71.31,-670.68"/>
<polygon fill="none" stroke="#63b8ff" points="71.31,-670.65 67.49,-664.54 71.66,-658.65 75.48,-664.77 71.31,-670.65"/>
</a>
</g>
<text text-anchor="middle" x="88.62" y="-900" font-family="Helvetica,sans-Serif" font-size="10.00" fill="grey"> &#45;_subs</text>
</g>
<!-- Node6 -->
<g id="Node000006" class="node">
<title>Node6</title>
<g id="a_Node000006"><a xlink:href="classcore_1_1PublisherMixin.html" target="_top" xlink:title=" ">
<polygon fill="white" stroke="none" points="273,-1095 114,-1095 114,-709 273,-709 273,-1095"/>
<text text-anchor="start" x="149.25" y="-1081.5" font-family="Helvetica,sans-Serif" font-size="10.00">core::PublisherMixin</text>
<text text-anchor="start" x="161.62" y="-1066.5" font-family="Helvetica,sans-Serif" font-size="10.00">&lt; EventType &gt;</text>
<text text-anchor="start" x="192" y="-1047.5" font-family="Helvetica,sans-Serif" font-size="10.00"> </text>
<text text-anchor="start" x="118" y="-1028.5" font-family="Helvetica,sans-Serif" font-size="10.00">+</text>
<text text-anchor="start" x="128" y="-1028.5" font-family="Helvetica,sans-Serif" font-size="10.00">virtual ~PublisherMixin</text>
<text text-anchor="start" x="128" y="-1013.5" font-family="Helvetica,sans-Serif" font-size="10.00">()=default</text>
<text text-anchor="start" x="118" y="-994.5" font-family="Helvetica,sans-Serif" font-size="10.00">+</text>
<text text-anchor="start" x="128" y="-994.5" font-family="Helvetica,sans-Serif" font-size="10.00">void subscribe(SPtrSubscriber</text>
<text text-anchor="start" x="128" y="-979.5" font-family="Helvetica,sans-Serif" font-size="10.00"> const &amp;subscriber, bool own)</text>
<text text-anchor="start" x="118" y="-960.5" font-family="Helvetica,sans-Serif" font-size="10.00">+</text>
<text text-anchor="start" x="128" y="-960.5" font-family="Helvetica,sans-Serif" font-size="10.00">void subscribe(SPtrSubscriber</text>
<text text-anchor="start" x="128" y="-945.5" font-family="Helvetica,sans-Serif" font-size="10.00"> &amp;&amp;subscriber)</text>
<text text-anchor="start" x="118" y="-926.5" font-family="Helvetica,sans-Serif" font-size="10.00">+</text>
<text text-anchor="start" x="128" y="-926.5" font-family="Helvetica,sans-Serif" font-size="10.00">bool hasSubscription()</text>
<text text-anchor="start" x="118" y="-907.5" font-family="Helvetica,sans-Serif" font-size="10.00">+</text>
<text text-anchor="start" x="128" y="-907.5" font-family="Helvetica,sans-Serif" font-size="10.00">void unsubscribe(SPtrSubscriber</text>
<text text-anchor="start" x="128" y="-892.5" font-family="Helvetica,sans-Serif" font-size="10.00"> const &amp;subscriber)</text>
<text text-anchor="start" x="118" y="-873.5" font-family="Helvetica,sans-Serif" font-size="10.00">+</text>
<text text-anchor="start" x="128" y="-873.5" font-family="Helvetica,sans-Serif" font-size="10.00">void clear()</text>
<text text-anchor="start" x="118.38" y="-854.5" font-family="Helvetica,sans-Serif" font-size="10.00">#</text>
<text text-anchor="start" x="128" y="-854.5" font-family="Helvetica,sans-Serif" font-size="10.00">PublisherMixin()</text>
<text text-anchor="start" x="118.38" y="-835.5" font-family="Helvetica,sans-Serif" font-size="10.00">#</text>
<text text-anchor="start" x="128" y="-835.5" font-family="Helvetica,sans-Serif" font-size="10.00">void notify(EventType</text>
<text text-anchor="start" x="128" y="-820.5" font-family="Helvetica,sans-Serif" font-size="10.00"> const &amp;event)</text>
<text text-anchor="start" x="119.5" y="-801.5" font-family="Helvetica,sans-Serif" font-size="10.00">&#45;</text>
<text text-anchor="start" x="128" y="-801.5" font-family="Helvetica,sans-Serif" font-size="10.00">std::optional&lt; SPtrSubscriber</text>
<text text-anchor="start" x="128" y="-786.5" font-family="Helvetica,sans-Serif" font-size="10.00"> &gt; _getShared(VPtrSubscriber</text>
<text text-anchor="start" x="128" y="-771.5" font-family="Helvetica,sans-Serif" font-size="10.00"> const &amp;vptr)</text>
<text text-anchor="start" x="119.5" y="-752.5" font-family="Helvetica,sans-Serif" font-size="10.00">&#45;</text>
<text text-anchor="start" x="128" y="-752.5" font-family="Helvetica,sans-Serif" font-size="10.00">auto _findSteady(std</text>
<text text-anchor="start" x="128" y="-737.5" font-family="Helvetica,sans-Serif" font-size="10.00">::string_view id)</text>
<text text-anchor="start" x="119.5" y="-718.5" font-family="Helvetica,sans-Serif" font-size="10.00">&#45;</text>
<text text-anchor="start" x="128" y="-718.5" font-family="Helvetica,sans-Serif" font-size="10.00">void _refresh()</text>
<polygon fill="#666666" stroke="#666666" points="114,-1059 114,-1059 273,-1059 273,-1059 114,-1059"/>
<polygon fill="#666666" stroke="#666666" points="114,-1040 114,-1040 273,-1040 273,-1040 114,-1040"/>
<polygon fill="none" stroke="#666666" points="114,-709 114,-1095 273,-1095 273,-709 114,-709"/>
</a>
</g>
</g>
<!-- Node3&#45;&gt;Node6 -->
<g id="edge6_Node000006_Node000003" class="edge">
<title>Node3&#45;&gt;Node6</title>
<g id="a_edge6_Node000006_Node000003"><a xlink:title=" ">
<path fill="none" stroke="#63b8ff" d="M91.81,-1146.08C96.63,-1134.56 102.59,-1120.32 109.19,-1104.54"/>
<polygon fill="none" stroke="#63b8ff" points="109.12,-1104.7 107.74,-1097.62 113.75,-1093.63 115.12,-1100.71 109.12,-1104.7"/>
</a>
</g>
<text text-anchor="middle" x="120.62" y="-1118.5" font-family="Helvetica,sans-Serif" font-size="10.00" fill="grey"> &#45;_subs</text>
</g>
<!-- Node4 -->
<g id="Node000004" class="node">
<title>Node4</title>
<g id="a_Node000004"><a xlink:title=" ">
<polygon fill="white" stroke="none" points="112.5,-1319 46.5,-1319 46.5,-1258 112.5,-1258 112.5,-1319"/>
<text text-anchor="start" x="51.38" y="-1305.5" font-family="Helvetica,sans-Serif" font-size="10.00">std::list&lt; T &gt;</text>
<text text-anchor="start" x="78" y="-1286.5" font-family="Helvetica,sans-Serif" font-size="10.00"> </text>
<text text-anchor="start" x="78" y="-1267.5" font-family="Helvetica,sans-Serif" font-size="10.00"> </text>
<polygon fill="#666666" stroke="#666666" points="46.5,-1298 46.5,-1298 112.5,-1298 112.5,-1298 46.5,-1298"/>
<polygon fill="#666666" stroke="#666666" points="46.5,-1279 46.5,-1279 112.5,-1279 112.5,-1279 46.5,-1279"/>
<polygon fill="none" stroke="#666666" points="46.5,-1258 46.5,-1319 112.5,-1319 112.5,-1258 46.5,-1258"/>
</a>
</g>
</g>
<!-- Node4&#45;&gt;Node3 -->
<g id="edge3_Node000003_Node000004" class="edge">
<title>Node4&#45;&gt;Node3</title>
<g id="a_edge3_Node000003_Node000004"><a xlink:title=" ">
<path fill="none" stroke="orange" d="M79.5,-1247.13C79.5,-1233.73 79.5,-1219.07 79.5,-1206.68"/>
<polygon fill="orange" stroke="orange" points="76,-1247.02 79.5,-1257.02 83,-1247.02 76,-1247.02"/>
</a>
</g>
<text text-anchor="middle" x="123" y="-1230.5" font-family="Helvetica,sans-Serif" font-size="10.00" fill="grey"> &lt; VPtrSubscriber &gt;</text>
</g>
<!-- Node5 -->
<g id="Node000005" class="node">
<title>Node5</title>
<g id="a_Node000005"><a xlink:title=" ">
<polygon fill="white" stroke="none" points="87.5,-1431 71.5,-1431 71.5,-1370 87.5,-1370 87.5,-1431"/>
<text text-anchor="start" x="76.5" y="-1417.5" font-family="Helvetica,sans-Serif" font-size="10.00">T</text>
<text text-anchor="start" x="78" y="-1398.5" font-family="Helvetica,sans-Serif" font-size="10.00"> </text>
<text text-anchor="start" x="78" y="-1379.5" font-family="Helvetica,sans-Serif" font-size="10.00"> </text>
<polygon fill="#666666" stroke="#666666" points="71.5,-1410 71.5,-1410 87.5,-1410 87.5,-1410 71.5,-1410"/>
<polygon fill="#666666" stroke="#666666" points="71.5,-1391 71.5,-1391 87.5,-1391 87.5,-1391 71.5,-1391"/>
<polygon fill="none" stroke="#666666" points="71.5,-1370 71.5,-1431 87.5,-1431 87.5,-1370 71.5,-1370"/>
</a>
</g>
</g>
<!-- Node5&#45;&gt;Node4 -->
<g id="edge4_Node000004_Node000005" class="edge">
<title>Node5&#45;&gt;Node4</title>
<g id="a_edge4_Node000004_Node000005"><a xlink:title=" ">
<path fill="none" stroke="#63b8ff" d="M79.5,-1370.02C79.5,-1358.21 79.5,-1344.39 79.5,-1331.56"/>
<polygon fill="none" stroke="#63b8ff" points="79.5,-1331.58 75.5,-1325.58 79.5,-1319.58 83.5,-1325.58 79.5,-1331.58"/>
</a>
</g>
<text text-anchor="middle" x="103.88" y="-1342.5" font-family="Helvetica,sans-Serif" font-size="10.00" fill="grey"> +elements</text>
</g>
<!-- Node6&#45;&gt;Node2 -->
<g id="edge5_Node000002_Node000006" class="edge">
<title>Node6&#45;&gt;Node2</title>
<g id="a_edge5_Node000002_Node000006"><a xlink:title=" ">
<path fill="none" stroke="orange" d="M140.51,-698.82C136.93,-685.15 133.33,-671.4 129.76,-657.79"/>
<polygon fill="orange" stroke="orange" points="137.33,-699.47 143.25,-708.25 144.1,-697.69 137.33,-699.47"/>
</a>
</g>
<text text-anchor="middle" x="172.12" y="-681.5" font-family="Helvetica,sans-Serif" font-size="10.00" fill="grey"> &lt; TokenEvent &gt;</text>
</g>
</g>
</svg>

<g id="navigator" transform="translate(0 0)" fill="#404254">
  <rect fill="#f2f5e9" fill-opacity="0.5" stroke="#606060" stroke-width=".5" x="0" y="0" width="60" height="60"/>
  <use id="zoomplus" xlink:href="#zoomPlus" x="17" y="9" onmousedown="handleZoom(evt,'in')"/>
  <use id="zoomminus" xlink:href="#zoomMin" x="42" y="9" onmousedown="handleZoom(evt,'out')"/>
  <use id="reset" xlink:href="#resetDef" x="30" y="36" onmousedown="handleReset()"/>
   <use id="arrowup" xlink:href="#arrowUp" x="0" y="0" onmousedown="handlePan(0,-1)"/>
  <use id="arrowright" xlink:href="#arrowRight" x="0" y="0" onmousedown="handlePan(1,0)"/>
  <use id="arrowdown" xlink:href="#arrowDown" x="0" y="0" onmousedown="handlePan(0,1)"/>
  <use id="arrowleft" xlink:href="#arrowLeft" x="0" y="0" onmousedown="handlePan(-1,0)"/>
</g>
<svg viewBox="0 0 15 15" width="100%" height="30px" preserveAspectRatio="xMaxYMin meet">
 <g id="arrow_out" transform="scale(0.3 0.3)">
  <a xlink:href="classcmd_1_1provider_1_1ConsoleParser__coll__graph_org.svg" target="_base">
   <rect id="button" ry="5" rx="5" y="6" x="6" height="38" width="38"
        fill="#f2f5e9" fill-opacity="0.5" stroke="#606060" stroke-width="1.0"/>
   <path id="arrow"
     d="M 11.500037,31.436501 C 11.940474,20.09759 22.043105,11.32322 32.158766,21.979434 L 37.068811,17.246167 C 37.068811,17.246167 37.088388,32 37.088388,32 L 22.160133,31.978069 C 22.160133,31.978069 26.997745,27.140456 26.997745,27.140456 C 18.528582,18.264221 13.291696,25.230495 11.500037,31.436501 z"
     style="fill:#404040;"/>
  </a>
 </g>
</svg>

<style type='text/css'>
<![CDATA[
[data-mouse-over-selected='false'] { opacity: 0.7; }
[data-mouse-over-selected='true']  { opacity: 1.0; }
]]>
</style>
<script type="application/ecmascript"><![CDATA[
document.addEventListener('DOMContentLoaded', (event) => {
  highlightEdges();
  highlightAdjacentNodes();
});
]]></script>
</svg>
