<?xml version="1.0" encoding="UTF-8" standalone="no"?>
<!DOCTYPE svg PUBLIC "-//W3C//DTD SVG 1.1//EN"
 "http://www.w3.org/Graphics/SVG/1.1/DTD/svg11.dtd">
<!-- Generated by graphviz version 8.1.0 (20230707.0739)
 -->
<!-- Title: bulk::provider::BulkTranslator Pages: 1 -->
<!--zoomable 1159 -->

<svg id="main" version="1.1" xmlns="http://www.w3.org/2000/svg" xmlns:xlink="http://www.w3.org/1999/xlink" xml:space="preserve" onload="init(evt)">
<style type="text/css"><![CDATA[
.node, .edge {opacity: 0.7;}
.node.selected, .edge.selected {opacity: 1;}
.edge:hover path { stroke: red; }
.edge:hover polygon { stroke: red; fill: red; }
]]></style>

<defs>
  <circle id="rim" cx="0" cy="0" r="7"/>
  <circle id="rim2" cx="0" cy="0" r="3.5"/>
  <g id="zoomPlus">
    <use xlink:href="#rim" fill="#404040"><set attributeName="fill" to="#808080" begin="zoomplus.mouseover" end="zoomplus.mouseout"/></use>
    <path d="M-4,0h8M0,-4v8" fill="none" stroke="white" stroke-width="1.5" pointer-events="none"/>
  </g>
  <g id="zoomMin">
    <use xlink:href="#rim" fill="#404040"><set attributeName="fill" to="#808080" begin="zoomminus.mouseover" end="zoomminus.mouseout"/></use>
    <path d="M-4,0h8" fill="none" stroke="white" stroke-width="1.5" pointer-events="none"/>
  </g>
  <g id="arrowUp" transform="translate(30 24)">
    <use xlink:href="#rim"/>
    <path pointer-events="none" fill="none" stroke="white" stroke-width="1.5" d="M0,-3.0v7 M-2.5,-0.5L0,-3.0L2.5,-0.5"/>
  </g>
  <g id="arrowRight" transform="rotate(90) translate(36 -43)">
    <use xlink:href="#rim"/>
    <path pointer-events="none" fill="none" stroke="white" stroke-width="1.5" d="M0,-3.0v7 M-2.5,-0.5L0,-3.0L2.5,-0.5"/>
  </g>
  <g id="arrowDown" transform="rotate(180) translate(-30 -48)">
    <use xlink:href="#rim"/>
    <path pointer-events="none" fill="none" stroke="white" stroke-width="1.5" d="M0,-3.0v7 M-2.5,-0.5L0,-3.0L2.5,-0.5"/>
  </g>
  <g id="arrowLeft" transform="rotate(270) translate(-36 17)">
    <use xlink:href="#rim"/>
    <path pointer-events="none" fill="none" stroke="white" stroke-width="1.5" d="M0,-3.0v7 M-2.5,-0.5L0,-3.0L2.5,-0.5"/>
  </g>
  <g id="resetDef">
    <use xlink:href="#rim2" fill="#404040"><set attributeName="fill" to="#808080" begin="reset.mouseover" end="reset.mouseout"/></use>
  </g>
</defs>
<script type="application/ecmascript">
var viewWidth = 474;
var viewHeight = 1159;
var sectionId = 'dynsection-0';
</script>
<script type="application/ecmascript" xlink:href="svg.min.js"/>
<svg id="graph" class="graph">
<g id="viewport">
<title>bulk::provider::BulkTranslator</title>
<!-- Node1 -->
<g id="Node000001" class="node">
<title>Node1</title>
<g id="a_Node000001"><a xlink:title=" ">
<polygon fill="#999999" stroke="none" points="305,-261 159,-261 159,0 305,0 305,-261"/>
<text text-anchor="start" x="168.62" y="-247.5" font-family="Helvetica,sans-Serif" font-size="10.00">bulk::provider::BulkTranslator</text>
<text text-anchor="start" x="164.5" y="-228.5" font-family="Helvetica,sans-Serif" font-size="10.00">&#45;</text>
<text text-anchor="start" x="173" y="-228.5" font-family="Helvetica,sans-Serif" font-size="10.00">const size_t _BULK_SIZE</text>
<text text-anchor="start" x="164.5" y="-209.5" font-family="Helvetica,sans-Serif" font-size="10.00">&#45;</text>
<text text-anchor="start" x="173" y="-209.5" font-family="Helvetica,sans-Serif" font-size="10.00">VState _state</text>
<text text-anchor="start" x="164.5" y="-190.5" font-family="Helvetica,sans-Serif" font-size="10.00">&#45;</text>
<text text-anchor="start" x="173" y="-190.5" font-family="Helvetica,sans-Serif" font-size="10.00">BulkEvent _bulk</text>
<text text-anchor="start" x="163" y="-171.5" font-family="Helvetica,sans-Serif" font-size="10.00">+</text>
<text text-anchor="start" x="173" y="-171.5" font-family="Helvetica,sans-Serif" font-size="10.00">core::SubscriptionStatus</text>
<text text-anchor="start" x="173" y="-156.5" font-family="Helvetica,sans-Serif" font-size="10.00"> getSubscriptionStatus</text>
<text text-anchor="start" x="173" y="-141.5" font-family="Helvetica,sans-Serif" font-size="10.00">() noexcept override</text>
<text text-anchor="start" x="163" y="-122.5" font-family="Helvetica,sans-Serif" font-size="10.00">+</text>
<text text-anchor="start" x="173" y="-122.5" font-family="Helvetica,sans-Serif" font-size="10.00">core::SubscriptionStatus</text>
<text text-anchor="start" x="173" y="-107.5" font-family="Helvetica,sans-Serif" font-size="10.00"> onEvent(cmd::TokenEvent</text>
<text text-anchor="start" x="173" y="-92.5" font-family="Helvetica,sans-Serif" font-size="10.00"> const &amp;event) override</text>
<text text-anchor="start" x="163" y="-73.5" font-family="Helvetica,sans-Serif" font-size="10.00">+</text>
<text text-anchor="start" x="173" y="-73.5" font-family="Helvetica,sans-Serif" font-size="10.00">static std::shared</text>
<text text-anchor="start" x="173" y="-58.5" font-family="Helvetica,sans-Serif" font-size="10.00">_ptr&lt; BulkTranslator</text>
<text text-anchor="start" x="173" y="-43.5" font-family="Helvetica,sans-Serif" font-size="10.00"> &gt; create(size_t BULK_SIZE)</text>
<text text-anchor="start" x="164.5" y="-24.5" font-family="Helvetica,sans-Serif" font-size="10.00">&#45;</text>
<text text-anchor="start" x="173" y="-24.5" font-family="Helvetica,sans-Serif" font-size="10.00">BulkTranslator(size</text>
<text text-anchor="start" x="173" y="-9.5" font-family="Helvetica,sans-Serif" font-size="10.00">_t BULK_SIZE)</text>
<polygon fill="#666666" stroke="#666666" points="159,-240 159,-240 305,-240 305,-240 159,-240"/>
<polygon fill="#666666" stroke="#666666" points="159,-183 159,-183 171,-183 171,-183 159,-183"/>
<polygon fill="#666666" stroke="#666666" points="171,-183 171,-183 305,-183 305,-183 171,-183"/>
<polygon fill="none" stroke="#666666" points="159,0 159,-261 305,-261 305,0 159,0"/>
</a>
</g>
</g>
<!-- Node2 -->
<g id="Node000002" class="node">
<title>Node2</title>
<g id="a_Node000002"><a xlink:href="structcore_1_1SubscriberBase.html" target="_top" xlink:title=" ">
<polygon fill="white" stroke="none" points="134,-634.5 0,-634.5 0,-362.5 134,-362.5 134,-634.5"/>
<text text-anchor="start" x="20.12" y="-621" font-family="Helvetica,sans-Serif" font-size="10.00">core::SubscriberBase</text>
<text text-anchor="start" x="20.5" y="-606" font-family="Helvetica,sans-Serif" font-size="10.00">&lt; cmd::TokenEvent &gt;</text>
<text text-anchor="start" x="5.5" y="-587" font-family="Helvetica,sans-Serif" font-size="10.00">&#45;</text>
<text text-anchor="start" x="14" y="-587" font-family="Helvetica,sans-Serif" font-size="10.00">std::string _id</text>
<text text-anchor="start" x="4" y="-568" font-family="Helvetica,sans-Serif" font-size="10.00">+</text>
<text text-anchor="start" x="14" y="-568" font-family="Helvetica,sans-Serif" font-size="10.00">virtual ~SubscriberBase</text>
<text text-anchor="start" x="14" y="-553" font-family="Helvetica,sans-Serif" font-size="10.00">()=default</text>
<text text-anchor="start" x="4" y="-534" font-family="Helvetica,sans-Serif" font-size="10.00">+</text>
<text text-anchor="start" x="14" y="-534" font-family="Helvetica,sans-Serif" font-size="10.00">virtual SubscriptionStatus</text>
<text text-anchor="start" x="14" y="-519" font-family="Helvetica,sans-Serif" font-size="10.00"> onEvent(cmd::TokenEvent</text>
<text text-anchor="start" x="14" y="-504" font-family="Helvetica,sans-Serif" font-size="10.00"> const &amp;event)=0</text>
<text text-anchor="start" x="4" y="-485" font-family="Helvetica,sans-Serif" font-size="10.00">+</text>
<text text-anchor="start" x="14" y="-485" font-family="Helvetica,sans-Serif" font-size="10.00">virtual SubscriptionStatus</text>
<text text-anchor="start" x="14" y="-470" font-family="Helvetica,sans-Serif" font-size="10.00"> getSubscriptionStatus()</text>
<text text-anchor="start" x="14" y="-455" font-family="Helvetica,sans-Serif" font-size="10.00"> noexcept</text>
<text text-anchor="start" x="4" y="-436" font-family="Helvetica,sans-Serif" font-size="10.00">+</text>
<text text-anchor="start" x="14" y="-436" font-family="Helvetica,sans-Serif" font-size="10.00">virtual std::string</text>
<text text-anchor="start" x="14" y="-421" font-family="Helvetica,sans-Serif" font-size="10.00"> getSubscriberID() final</text>
<text text-anchor="start" x="4.38" y="-402" font-family="Helvetica,sans-Serif" font-size="10.00">#</text>
<text text-anchor="start" x="14" y="-402" font-family="Helvetica,sans-Serif" font-size="10.00">virtual std::string</text>
<text text-anchor="start" x="14" y="-387" font-family="Helvetica,sans-Serif" font-size="10.00"> getSubscriberName()</text>
<text text-anchor="start" x="14" y="-372" font-family="Helvetica,sans-Serif" font-size="10.00"> const noexcept</text>
<polygon fill="#666666" stroke="#666666" points="0,-598.5 0,-598.5 134,-598.5 134,-598.5 0,-598.5"/>
<polygon fill="#666666" stroke="#666666" points="0,-579.5 0,-579.5 12,-579.5 12,-579.5 0,-579.5"/>
<polygon fill="#666666" stroke="#666666" points="12,-579.5 12,-579.5 134,-579.5 134,-579.5 12,-579.5"/>
<polygon fill="none" stroke="#666666" points="0,-362.5 0,-634.5 134,-634.5 134,-362.5 0,-362.5"/>
</a>
</g>
</g>
<!-- Node2&#45;&gt;Node1 -->
<g id="edge1_Node000001_Node000002" class="edge">
<title>Node2&#45;&gt;Node1</title>
<g id="a_edge1_Node000001_Node000002"><a xlink:title=" ">
<path fill="none" stroke="#63b8ff" d="M119.68,-352.68C127.16,-334.13 135.02,-315.51 143,-298 148.57,-285.77 154.64,-273.19 160.91,-260.68"/>
<polygon fill="none" stroke="#63b8ff" points="116.15,-351.08 115.69,-361.66 122.65,-353.68 116.15,-351.08"/>
</a>
</g>
</g>
<!-- Node3 -->
<g id="Node000003" class="node">
<title>Node3</title>
<g id="a_Node000003"><a xlink:href="structcore_1_1SubscriberBase.html" target="_top" xlink:title=" ">
<polygon fill="white" stroke="none" points="133,-1086.5 1,-1086.5 1,-814.5 133,-814.5 133,-1086.5"/>
<text text-anchor="start" x="20.12" y="-1073" font-family="Helvetica,sans-Serif" font-size="10.00">core::SubscriberBase</text>
<text text-anchor="start" x="35.12" y="-1058" font-family="Helvetica,sans-Serif" font-size="10.00">&lt; EventType &gt;</text>
<text text-anchor="start" x="6.5" y="-1039" font-family="Helvetica,sans-Serif" font-size="10.00">&#45;</text>
<text text-anchor="start" x="15" y="-1039" font-family="Helvetica,sans-Serif" font-size="10.00">std::string _id</text>
<text text-anchor="start" x="5" y="-1020" font-family="Helvetica,sans-Serif" font-size="10.00">+</text>
<text text-anchor="start" x="15" y="-1020" font-family="Helvetica,sans-Serif" font-size="10.00">virtual ~SubscriberBase</text>
<text text-anchor="start" x="15" y="-1005" font-family="Helvetica,sans-Serif" font-size="10.00">()=default</text>
<text text-anchor="start" x="5" y="-986" font-family="Helvetica,sans-Serif" font-size="10.00">+</text>
<text text-anchor="start" x="15" y="-986" font-family="Helvetica,sans-Serif" font-size="10.00">virtual SubscriptionStatus</text>
<text text-anchor="start" x="15" y="-971" font-family="Helvetica,sans-Serif" font-size="10.00"> onEvent(EventType const</text>
<text text-anchor="start" x="15" y="-956" font-family="Helvetica,sans-Serif" font-size="10.00"> &amp;event)=0</text>
<text text-anchor="start" x="5" y="-937" font-family="Helvetica,sans-Serif" font-size="10.00">+</text>
<text text-anchor="start" x="15" y="-937" font-family="Helvetica,sans-Serif" font-size="10.00">virtual SubscriptionStatus</text>
<text text-anchor="start" x="15" y="-922" font-family="Helvetica,sans-Serif" font-size="10.00"> getSubscriptionStatus()</text>
<text text-anchor="start" x="15" y="-907" font-family="Helvetica,sans-Serif" font-size="10.00"> noexcept</text>
<text text-anchor="start" x="5" y="-888" font-family="Helvetica,sans-Serif" font-size="10.00">+</text>
<text text-anchor="start" x="15" y="-888" font-family="Helvetica,sans-Serif" font-size="10.00">virtual std::string</text>
<text text-anchor="start" x="15" y="-873" font-family="Helvetica,sans-Serif" font-size="10.00"> getSubscriberID() final</text>
<text text-anchor="start" x="5.38" y="-854" font-family="Helvetica,sans-Serif" font-size="10.00">#</text>
<text text-anchor="start" x="15" y="-854" font-family="Helvetica,sans-Serif" font-size="10.00">virtual std::string</text>
<text text-anchor="start" x="15" y="-839" font-family="Helvetica,sans-Serif" font-size="10.00"> getSubscriberName()</text>
<text text-anchor="start" x="15" y="-824" font-family="Helvetica,sans-Serif" font-size="10.00"> const noexcept</text>
<polygon fill="#666666" stroke="#666666" points="1,-1050.5 1,-1050.5 133,-1050.5 133,-1050.5 1,-1050.5"/>
<polygon fill="#666666" stroke="#666666" points="1,-1031.5 1,-1031.5 13,-1031.5 13,-1031.5 1,-1031.5"/>
<polygon fill="#666666" stroke="#666666" points="13,-1031.5 13,-1031.5 133,-1031.5 133,-1031.5 13,-1031.5"/>
<polygon fill="none" stroke="#666666" points="1,-814.5 1,-1086.5 133,-1086.5 133,-814.5 1,-814.5"/>
</a>
</g>
</g>
<!-- Node3&#45;&gt;Node2 -->
<g id="edge2_Node000002_Node000003" class="edge">
<title>Node3&#45;&gt;Node2</title>
<g id="a_edge2_Node000002_Node000003"><a xlink:title=" ">
<path fill="none" stroke="orange" d="M67,-803.98C67,-749.43 67,-687.73 67,-634.2"/>
<polygon fill="orange" stroke="orange" points="63.5,-803.79 67,-813.79 70.5,-803.79 63.5,-803.79"/>
</a>
</g>
<text text-anchor="middle" x="115" y="-722.5" font-family="Helvetica,sans-Serif" font-size="10.00" fill="grey"> &lt; cmd::TokenEvent &gt;</text>
</g>
<!-- Node4 -->
<g id="Node000004" class="node">
<title>Node4</title>
<g id="a_Node000004"><a xlink:href="classcore_1_1PublisherMixin.html" target="_top" xlink:title=" ">
<polygon fill="white" stroke="none" points="311.5,-699 152.5,-699 152.5,-298 311.5,-298 311.5,-699"/>
<text text-anchor="start" x="187.75" y="-685.5" font-family="Helvetica,sans-Serif" font-size="10.00">core::PublisherMixin</text>
<text text-anchor="start" x="200.88" y="-670.5" font-family="Helvetica,sans-Serif" font-size="10.00">&lt; BulkEvent &gt;</text>
<text text-anchor="start" x="158" y="-651.5" font-family="Helvetica,sans-Serif" font-size="10.00">&#45;</text>
<text text-anchor="start" x="166.5" y="-651.5" font-family="Helvetica,sans-Serif" font-size="10.00">std::list&lt; VPtrSubscriber</text>
<text text-anchor="start" x="166.5" y="-636.5" font-family="Helvetica,sans-Serif" font-size="10.00"> &gt; _subs</text>
<text text-anchor="start" x="156.5" y="-617.5" font-family="Helvetica,sans-Serif" font-size="10.00">+</text>
<text text-anchor="start" x="166.5" y="-617.5" font-family="Helvetica,sans-Serif" font-size="10.00">virtual ~PublisherMixin</text>
<text text-anchor="start" x="166.5" y="-602.5" font-family="Helvetica,sans-Serif" font-size="10.00">()=default</text>
<text text-anchor="start" x="156.5" y="-583.5" font-family="Helvetica,sans-Serif" font-size="10.00">+</text>
<text text-anchor="start" x="166.5" y="-583.5" font-family="Helvetica,sans-Serif" font-size="10.00">void subscribe(SPtrSubscriber</text>
<text text-anchor="start" x="166.5" y="-568.5" font-family="Helvetica,sans-Serif" font-size="10.00"> const &amp;subscriber, bool own)</text>
<text text-anchor="start" x="156.5" y="-549.5" font-family="Helvetica,sans-Serif" font-size="10.00">+</text>
<text text-anchor="start" x="166.5" y="-549.5" font-family="Helvetica,sans-Serif" font-size="10.00">void subscribe(SPtrSubscriber</text>
<text text-anchor="start" x="166.5" y="-534.5" font-family="Helvetica,sans-Serif" font-size="10.00"> &amp;&amp;subscriber)</text>
<text text-anchor="start" x="156.5" y="-515.5" font-family="Helvetica,sans-Serif" font-size="10.00">+</text>
<text text-anchor="start" x="166.5" y="-515.5" font-family="Helvetica,sans-Serif" font-size="10.00">bool hasSubscription()</text>
<text text-anchor="start" x="156.5" y="-496.5" font-family="Helvetica,sans-Serif" font-size="10.00">+</text>
<text text-anchor="start" x="166.5" y="-496.5" font-family="Helvetica,sans-Serif" font-size="10.00">void unsubscribe(SPtrSubscriber</text>
<text text-anchor="start" x="166.5" y="-481.5" font-family="Helvetica,sans-Serif" font-size="10.00"> const &amp;subscriber)</text>
<text text-anchor="start" x="156.5" y="-462.5" font-family="Helvetica,sans-Serif" font-size="10.00">+</text>
<text text-anchor="start" x="166.5" y="-462.5" font-family="Helvetica,sans-Serif" font-size="10.00">void clear()</text>
<text text-anchor="start" x="156.88" y="-443.5" font-family="Helvetica,sans-Serif" font-size="10.00">#</text>
<text text-anchor="start" x="166.5" y="-443.5" font-family="Helvetica,sans-Serif" font-size="10.00">PublisherMixin()</text>
<text text-anchor="start" x="156.88" y="-424.5" font-family="Helvetica,sans-Serif" font-size="10.00">#</text>
<text text-anchor="start" x="166.5" y="-424.5" font-family="Helvetica,sans-Serif" font-size="10.00">void notify(BulkEvent</text>
<text text-anchor="start" x="166.5" y="-409.5" font-family="Helvetica,sans-Serif" font-size="10.00"> const &amp;event)</text>
<text text-anchor="start" x="158" y="-390.5" font-family="Helvetica,sans-Serif" font-size="10.00">&#45;</text>
<text text-anchor="start" x="166.5" y="-390.5" font-family="Helvetica,sans-Serif" font-size="10.00">std::optional&lt; SPtrSubscriber</text>
<text text-anchor="start" x="166.5" y="-375.5" font-family="Helvetica,sans-Serif" font-size="10.00"> &gt; _getShared(VPtrSubscriber</text>
<text text-anchor="start" x="166.5" y="-360.5" font-family="Helvetica,sans-Serif" font-size="10.00"> const &amp;vptr)</text>
<text text-anchor="start" x="158" y="-341.5" font-family="Helvetica,sans-Serif" font-size="10.00">&#45;</text>
<text text-anchor="start" x="166.5" y="-341.5" font-family="Helvetica,sans-Serif" font-size="10.00">auto _findSteady(std</text>
<text text-anchor="start" x="166.5" y="-326.5" font-family="Helvetica,sans-Serif" font-size="10.00">::string_view id)</text>
<text text-anchor="start" x="158" y="-307.5" font-family="Helvetica,sans-Serif" font-size="10.00">&#45;</text>
<text text-anchor="start" x="166.5" y="-307.5" font-family="Helvetica,sans-Serif" font-size="10.00">void _refresh()</text>
<polygon fill="#666666" stroke="#666666" points="152.5,-663 152.5,-663 311.5,-663 311.5,-663 152.5,-663"/>
<polygon fill="#666666" stroke="#666666" points="152.5,-629 152.5,-629 164.5,-629 164.5,-629 152.5,-629"/>
<polygon fill="#666666" stroke="#666666" points="164.5,-629 164.5,-629 311.5,-629 311.5,-629 164.5,-629"/>
<polygon fill="none" stroke="#666666" points="152.5,-298 152.5,-699 311.5,-699 311.5,-298 152.5,-298"/>
</a>
</g>
</g>
<!-- Node4&#45;&gt;Node1 -->
<g id="edge3_Node000001_Node000004" class="edge">
<title>Node4&#45;&gt;Node1</title>
<g id="a_edge3_Node000001_Node000004"><a xlink:title=" ">
<path fill="none" stroke="#63b8ff" d="M232,-287.46C232,-278.37 232,-269.37 232,-260.55"/>
<polygon fill="none" stroke="#63b8ff" points="228.5,-287.17 232,-297.17 235.5,-287.17 228.5,-287.17"/>
</a>
</g>
</g>
<!-- Node5 -->
<g id="Node000005" class="node">
<title>Node5</title>
<g id="a_Node000005"><a xlink:href="classcore_1_1PublisherMixin.html" target="_top" xlink:title=" ">
<polygon fill="white" stroke="none" points="311.5,-1151 152.5,-1151 152.5,-750 311.5,-750 311.5,-1151"/>
<text text-anchor="start" x="187.75" y="-1137.5" font-family="Helvetica,sans-Serif" font-size="10.00">core::PublisherMixin</text>
<text text-anchor="start" x="200.12" y="-1122.5" font-family="Helvetica,sans-Serif" font-size="10.00">&lt; EventType &gt;</text>
<text text-anchor="start" x="158" y="-1103.5" font-family="Helvetica,sans-Serif" font-size="10.00">&#45;</text>
<text text-anchor="start" x="166.5" y="-1103.5" font-family="Helvetica,sans-Serif" font-size="10.00">std::list&lt; VPtrSubscriber</text>
<text text-anchor="start" x="166.5" y="-1088.5" font-family="Helvetica,sans-Serif" font-size="10.00"> &gt; _subs</text>
<text text-anchor="start" x="156.5" y="-1069.5" font-family="Helvetica,sans-Serif" font-size="10.00">+</text>
<text text-anchor="start" x="166.5" y="-1069.5" font-family="Helvetica,sans-Serif" font-size="10.00">virtual ~PublisherMixin</text>
<text text-anchor="start" x="166.5" y="-1054.5" font-family="Helvetica,sans-Serif" font-size="10.00">()=default</text>
<text text-anchor="start" x="156.5" y="-1035.5" font-family="Helvetica,sans-Serif" font-size="10.00">+</text>
<text text-anchor="start" x="166.5" y="-1035.5" font-family="Helvetica,sans-Serif" font-size="10.00">void subscribe(SPtrSubscriber</text>
<text text-anchor="start" x="166.5" y="-1020.5" font-family="Helvetica,sans-Serif" font-size="10.00"> const &amp;subscriber, bool own)</text>
<text text-anchor="start" x="156.5" y="-1001.5" font-family="Helvetica,sans-Serif" font-size="10.00">+</text>
<text text-anchor="start" x="166.5" y="-1001.5" font-family="Helvetica,sans-Serif" font-size="10.00">void subscribe(SPtrSubscriber</text>
<text text-anchor="start" x="166.5" y="-986.5" font-family="Helvetica,sans-Serif" font-size="10.00"> &amp;&amp;subscriber)</text>
<text text-anchor="start" x="156.5" y="-967.5" font-family="Helvetica,sans-Serif" font-size="10.00">+</text>
<text text-anchor="start" x="166.5" y="-967.5" font-family="Helvetica,sans-Serif" font-size="10.00">bool hasSubscription()</text>
<text text-anchor="start" x="156.5" y="-948.5" font-family="Helvetica,sans-Serif" font-size="10.00">+</text>
<text text-anchor="start" x="166.5" y="-948.5" font-family="Helvetica,sans-Serif" font-size="10.00">void unsubscribe(SPtrSubscriber</text>
<text text-anchor="start" x="166.5" y="-933.5" font-family="Helvetica,sans-Serif" font-size="10.00"> const &amp;subscriber)</text>
<text text-anchor="start" x="156.5" y="-914.5" font-family="Helvetica,sans-Serif" font-size="10.00">+</text>
<text text-anchor="start" x="166.5" y="-914.5" font-family="Helvetica,sans-Serif" font-size="10.00">void clear()</text>
<text text-anchor="start" x="156.88" y="-895.5" font-family="Helvetica,sans-Serif" font-size="10.00">#</text>
<text text-anchor="start" x="166.5" y="-895.5" font-family="Helvetica,sans-Serif" font-size="10.00">PublisherMixin()</text>
<text text-anchor="start" x="156.88" y="-876.5" font-family="Helvetica,sans-Serif" font-size="10.00">#</text>
<text text-anchor="start" x="166.5" y="-876.5" font-family="Helvetica,sans-Serif" font-size="10.00">void notify(EventType</text>
<text text-anchor="start" x="166.5" y="-861.5" font-family="Helvetica,sans-Serif" font-size="10.00"> const &amp;event)</text>
<text text-anchor="start" x="158" y="-842.5" font-family="Helvetica,sans-Serif" font-size="10.00">&#45;</text>
<text text-anchor="start" x="166.5" y="-842.5" font-family="Helvetica,sans-Serif" font-size="10.00">std::optional&lt; SPtrSubscriber</text>
<text text-anchor="start" x="166.5" y="-827.5" font-family="Helvetica,sans-Serif" font-size="10.00"> &gt; _getShared(VPtrSubscriber</text>
<text text-anchor="start" x="166.5" y="-812.5" font-family="Helvetica,sans-Serif" font-size="10.00"> const &amp;vptr)</text>
<text text-anchor="start" x="158" y="-793.5" font-family="Helvetica,sans-Serif" font-size="10.00">&#45;</text>
<text text-anchor="start" x="166.5" y="-793.5" font-family="Helvetica,sans-Serif" font-size="10.00">auto _findSteady(std</text>
<text text-anchor="start" x="166.5" y="-778.5" font-family="Helvetica,sans-Serif" font-size="10.00">::string_view id)</text>
<text text-anchor="start" x="158" y="-759.5" font-family="Helvetica,sans-Serif" font-size="10.00">&#45;</text>
<text text-anchor="start" x="166.5" y="-759.5" font-family="Helvetica,sans-Serif" font-size="10.00">void _refresh()</text>
<polygon fill="#666666" stroke="#666666" points="152.5,-1115 152.5,-1115 311.5,-1115 311.5,-1115 152.5,-1115"/>
<polygon fill="#666666" stroke="#666666" points="152.5,-1081 152.5,-1081 164.5,-1081 164.5,-1081 152.5,-1081"/>
<polygon fill="#666666" stroke="#666666" points="164.5,-1081 164.5,-1081 311.5,-1081 311.5,-1081 164.5,-1081"/>
<polygon fill="none" stroke="#666666" points="152.5,-750 152.5,-1151 311.5,-1151 311.5,-750 152.5,-750"/>
</a>
</g>
</g>
<!-- Node5&#45;&gt;Node4 -->
<g id="edge4_Node000004_Node000005" class="edge">
<title>Node5&#45;&gt;Node4</title>
<g id="a_edge4_Node000004_Node000005"><a xlink:title=" ">
<path fill="none" stroke="orange" d="M232,-739.35C232,-725.85 232,-712.28 232,-698.83"/>
<polygon fill="orange" stroke="orange" points="228.5,-739.16 232,-749.16 235.5,-739.16 228.5,-739.16"/>
</a>
</g>
<text text-anchor="middle" x="264.62" y="-722.5" font-family="Helvetica,sans-Serif" font-size="10.00" fill="grey"> &lt; BulkEvent &gt;</text>
</g>
<!-- Node6 -->
<g id="Node000006" class="node">
<title>Node6</title>
<g id="a_Node000006"><a xlink:title=" ">
<polygon fill="white" stroke="none" points="466,-536.5 330,-536.5 330,-460.5 466,-460.5 466,-536.5"/>
<text text-anchor="start" x="335" y="-523" font-family="Helvetica,sans-Serif" font-size="10.00">std::enable_shared</text>
<text text-anchor="start" x="335" y="-508" font-family="Helvetica,sans-Serif" font-size="10.00">_from_this&lt; BulkTranslator &gt;</text>
<text text-anchor="start" x="396.5" y="-489" font-family="Helvetica,sans-Serif" font-size="10.00"> </text>
<text text-anchor="start" x="396.5" y="-470" font-family="Helvetica,sans-Serif" font-size="10.00"> </text>
<polygon fill="#666666" stroke="#666666" points="330,-500.5 330,-500.5 466,-500.5 466,-500.5 330,-500.5"/>
<polygon fill="#666666" stroke="#666666" points="330,-481.5 330,-481.5 466,-481.5 466,-481.5 330,-481.5"/>
<polygon fill="none" stroke="#666666" points="330,-460.5 330,-536.5 466,-536.5 466,-460.5 330,-460.5"/>
</a>
</g>
</g>
<!-- Node6&#45;&gt;Node1 -->
<g id="edge5_Node000001_Node000006" class="edge">
<title>Node6&#45;&gt;Node1</title>
<g id="a_edge5_Node000001_Node000006"><a xlink:title=" ">
<path fill="none" stroke="#63b8ff" d="M381.3,-450.38C366.42,-409.55 343.43,-349.17 320,-298 314.42,-285.81 308.37,-273.26 302.14,-260.77"/>
<polygon fill="none" stroke="#63b8ff" points="378.29,-451.37 384.99,-459.58 384.87,-448.98 378.29,-451.37"/>
</a>
</g>
</g>
</g>
</svg>

<g id="navigator" transform="translate(0 0)" fill="#404254">
  <rect fill="#f2f5e9" fill-opacity="0.5" stroke="#606060" stroke-width=".5" x="0" y="0" width="60" height="60"/>
  <use id="zoomplus" xlink:href="#zoomPlus" x="17" y="9" onmousedown="handleZoom(evt,'in')"/>
  <use id="zoomminus" xlink:href="#zoomMin" x="42" y="9" onmousedown="handleZoom(evt,'out')"/>
  <use id="reset" xlink:href="#resetDef" x="30" y="36" onmousedown="handleReset()"/>
   <use id="arrowup" xlink:href="#arrowUp" x="0" y="0" onmousedown="handlePan(0,-1)"/>
  <use id="arrowright" xlink:href="#arrowRight" x="0" y="0" onmousedown="handlePan(1,0)"/>
  <use id="arrowdown" xlink:href="#arrowDown" x="0" y="0" onmousedown="handlePan(0,1)"/>
  <use id="arrowleft" xlink:href="#arrowLeft" x="0" y="0" onmousedown="handlePan(-1,0)"/>
</g>
<svg viewBox="0 0 15 15" width="100%" height="30px" preserveAspectRatio="xMaxYMin meet">
 <g id="arrow_out" transform="scale(0.3 0.3)">
  <a xlink:href="classbulk_1_1provider_1_1BulkTranslator__inherit__graph_org.svg" target="_base">
   <rect id="button" ry="5" rx="5" y="6" x="6" height="38" width="38"
        fill="#f2f5e9" fill-opacity="0.5" stroke="#606060" stroke-width="1.0"/>
   <path id="arrow"
     d="M 11.500037,31.436501 C 11.940474,20.09759 22.043105,11.32322 32.158766,21.979434 L 37.068811,17.246167 C 37.068811,17.246167 37.088388,32 37.088388,32 L 22.160133,31.978069 C 22.160133,31.978069 26.997745,27.140456 26.997745,27.140456 C 18.528582,18.264221 13.291696,25.230495 11.500037,31.436501 z"
     style="fill:#404040;"/>
  </a>
 </g>
</svg>

<style type='text/css'>
<![CDATA[
[data-mouse-over-selected='false'] { opacity: 0.7; }
[data-mouse-over-selected='true']  { opacity: 1.0; }
]]>
</style>
<script type="application/ecmascript"><![CDATA[
document.addEventListener('DOMContentLoaded', (event) => {
  highlightEdges();
  highlightAdjacentNodes();
});
]]></script>
</svg>
