<?xml version="1.0" encoding="UTF-8" standalone="no"?>
<!DOCTYPE svg PUBLIC "-//W3C//DTD SVG 1.1//EN"
 "http://www.w3.org/Graphics/SVG/1.1/DTD/svg11.dtd">
<!-- Generated by graphviz version 8.1.0 (20230707.0739)
 -->
<!-- Title: io::istream2istream_redirect Pages: 1 -->
<!--zoomable 667 -->

<svg id="main" version="1.1" xmlns="http://www.w3.org/2000/svg" xmlns:xlink="http://www.w3.org/1999/xlink" xml:space="preserve" onload="init(evt)">
<style type="text/css"><![CDATA[
.node, .edge {opacity: 0.7;}
.node.selected, .edge.selected {opacity: 1;}
.edge:hover path { stroke: red; }
.edge:hover polygon { stroke: red; fill: red; }
]]></style>

<defs>
  <circle id="rim" cx="0" cy="0" r="7"/>
  <circle id="rim2" cx="0" cy="0" r="3.5"/>
  <g id="zoomPlus">
    <use xlink:href="#rim" fill="#404040"><set attributeName="fill" to="#808080" begin="zoomplus.mouseover" end="zoomplus.mouseout"/></use>
    <path d="M-4,0h8M0,-4v8" fill="none" stroke="white" stroke-width="1.5" pointer-events="none"/>
  </g>
  <g id="zoomMin">
    <use xlink:href="#rim" fill="#404040"><set attributeName="fill" to="#808080" begin="zoomminus.mouseover" end="zoomminus.mouseout"/></use>
    <path d="M-4,0h8" fill="none" stroke="white" stroke-width="1.5" pointer-events="none"/>
  </g>
  <g id="arrowUp" transform="translate(30 24)">
    <use xlink:href="#rim"/>
    <path pointer-events="none" fill="none" stroke="white" stroke-width="1.5" d="M0,-3.0v7 M-2.5,-0.5L0,-3.0L2.5,-0.5"/>
  </g>
  <g id="arrowRight" transform="rotate(90) translate(36 -43)">
    <use xlink:href="#rim"/>
    <path pointer-events="none" fill="none" stroke="white" stroke-width="1.5" d="M0,-3.0v7 M-2.5,-0.5L0,-3.0L2.5,-0.5"/>
  </g>
  <g id="arrowDown" transform="rotate(180) translate(-30 -48)">
    <use xlink:href="#rim"/>
    <path pointer-events="none" fill="none" stroke="white" stroke-width="1.5" d="M0,-3.0v7 M-2.5,-0.5L0,-3.0L2.5,-0.5"/>
  </g>
  <g id="arrowLeft" transform="rotate(270) translate(-36 17)">
    <use xlink:href="#rim"/>
    <path pointer-events="none" fill="none" stroke="white" stroke-width="1.5" d="M0,-3.0v7 M-2.5,-0.5L0,-3.0L2.5,-0.5"/>
  </g>
  <g id="resetDef">
    <use xlink:href="#rim2" fill="#404040"><set attributeName="fill" to="#808080" begin="reset.mouseover" end="reset.mouseout"/></use>
  </g>
</defs>
<script type="application/ecmascript">
var viewWidth = 145;
var viewHeight = 667;
var sectionId = 'dynsection-0';
</script>
<script type="application/ecmascript" xlink:href="svg.min.js"/>
<svg id="graph" class="graph">
<g id="viewport">
<title>io::istream2istream_redirect</title>
<!-- Node1 -->
<g id="Node000001" class="node">
<title>Node1</title>
<g id="a_Node000001"><a xlink:title=" ">
<polygon fill="#999999" stroke="none" points="137,-223 0,-223 0,0 137,0 137,-223"/>
<text text-anchor="start" x="26.88" y="-209.5" font-family="Helvetica,sans-Serif" font-size="10.00">io::istream2istream</text>
<text text-anchor="start" x="49.75" y="-194.5" font-family="Helvetica,sans-Serif" font-size="10.00">_redirect</text>
<text text-anchor="start" x="5.5" y="-175.5" font-family="Helvetica,sans-Serif" font-size="10.00">&#45;</text>
<text text-anchor="start" x="14" y="-175.5" font-family="Helvetica,sans-Serif" font-size="10.00">std::streambuf * _saved</text>
<text text-anchor="start" x="4" y="-156.5" font-family="Helvetica,sans-Serif" font-size="10.00">+</text>
<text text-anchor="start" x="14" y="-156.5" font-family="Helvetica,sans-Serif" font-size="10.00">istream2istream_redirect</text>
<text text-anchor="start" x="14" y="-141.5" font-family="Helvetica,sans-Serif" font-size="10.00">(std::istream &amp;from, std</text>
<text text-anchor="start" x="14" y="-126.5" font-family="Helvetica,sans-Serif" font-size="10.00">::istream &amp;to=std::cin)</text>
<text text-anchor="start" x="4" y="-107.5" font-family="Helvetica,sans-Serif" font-size="10.00">+</text>
<text text-anchor="start" x="14" y="-107.5" font-family="Helvetica,sans-Serif" font-size="10.00">istream2istream_redirect</text>
<text text-anchor="start" x="14" y="-92.5" font-family="Helvetica,sans-Serif" font-size="10.00">(const istream2istream</text>
<text text-anchor="start" x="14" y="-77.5" font-family="Helvetica,sans-Serif" font-size="10.00">_redirect &amp;)=delete</text>
<text text-anchor="start" x="4" y="-58.5" font-family="Helvetica,sans-Serif" font-size="10.00">+</text>
<text text-anchor="start" x="14" y="-58.5" font-family="Helvetica,sans-Serif" font-size="10.00">void operator=(const</text>
<text text-anchor="start" x="14" y="-43.5" font-family="Helvetica,sans-Serif" font-size="10.00"> istream2istream_redirect</text>
<text text-anchor="start" x="14" y="-28.5" font-family="Helvetica,sans-Serif" font-size="10.00"> &amp;)=delete</text>
<text text-anchor="start" x="4" y="-9.5" font-family="Helvetica,sans-Serif" font-size="10.00">+</text>
<text text-anchor="start" x="14" y="-9.5" font-family="Helvetica,sans-Serif" font-size="10.00">~istream2istream_redirect()</text>
<polygon fill="#666666" stroke="#666666" points="0,-187 0,-187 137,-187 137,-187 0,-187"/>
<polygon fill="#666666" stroke="#666666" points="0,-168 0,-168 12,-168 12,-168 0,-168"/>
<polygon fill="#666666" stroke="#666666" points="12,-168 12,-168 137,-168 137,-168 12,-168"/>
<polygon fill="none" stroke="#666666" points="0,0 0,-223 137,-223 137,0 0,0"/>
</a>
</g>
</g>
<!-- Node2 -->
<g id="Node000002" class="node">
<title>Node2</title>
<g id="a_Node000002"><a xlink:title=" ">
<polygon fill="white" stroke="none" points="99,-350 38,-350 38,-289 99,-289 99,-350"/>
<text text-anchor="start" x="42.62" y="-336.5" font-family="Helvetica,sans-Serif" font-size="10.00">std::istream</text>
<text text-anchor="start" x="67" y="-317.5" font-family="Helvetica,sans-Serif" font-size="10.00"> </text>
<text text-anchor="start" x="67" y="-298.5" font-family="Helvetica,sans-Serif" font-size="10.00"> </text>
<polygon fill="#666666" stroke="#666666" points="38,-329 38,-329 99,-329 99,-329 38,-329"/>
<polygon fill="#666666" stroke="#666666" points="38,-310 38,-310 99,-310 99,-310 38,-310"/>
<polygon fill="none" stroke="#666666" points="38,-289 38,-350 99,-350 99,-289 38,-289"/>
</a>
</g>
</g>
<!-- Node2&#45;&gt;Node1 -->
<g id="edge1_Node000001_Node000002" class="edge">
<title>Node2&#45;&gt;Node1</title>
<g id="a_edge1_Node000001_Node000002"><a xlink:title=" ">
<path fill="none" stroke="#63b8ff" d="M68.5,-289.42C68.5,-274.7 68.5,-255.73 68.5,-235.7"/>
<polygon fill="none" stroke="#63b8ff" points="68.5,-235.67 64.5,-229.67 68.5,-223.67 72.5,-229.67 68.5,-235.67"/>
</a>
</g>
<text text-anchor="middle" x="83.88" y="-261.5" font-family="Helvetica,sans-Serif" font-size="10.00" fill="grey"> &#45;_from</text>
<text text-anchor="middle" x="83.88" y="-246.5" font-family="Helvetica,sans-Serif" font-size="10.00" fill="grey">&#45;_to</text>
</g>
<!-- Node3 -->
<g id="Node000003" class="node">
<title>Node3</title>
<g id="a_Node000003"><a xlink:title=" ">
<polygon fill="white" stroke="none" points="113.5,-463 23.5,-463 23.5,-387 113.5,-387 113.5,-463"/>
<text text-anchor="start" x="28.38" y="-449.5" font-family="Helvetica,sans-Serif" font-size="10.00">std::basic_istream</text>
<text text-anchor="start" x="49" y="-434.5" font-family="Helvetica,sans-Serif" font-size="10.00">&lt; Char &gt;</text>
<text text-anchor="start" x="67" y="-415.5" font-family="Helvetica,sans-Serif" font-size="10.00"> </text>
<text text-anchor="start" x="67" y="-396.5" font-family="Helvetica,sans-Serif" font-size="10.00"> </text>
<polygon fill="#666666" stroke="#666666" points="23.5,-427 23.5,-427 113.5,-427 113.5,-427 23.5,-427"/>
<polygon fill="#666666" stroke="#666666" points="23.5,-408 23.5,-408 113.5,-408 113.5,-408 23.5,-408"/>
<polygon fill="none" stroke="#666666" points="23.5,-387 23.5,-463 113.5,-463 113.5,-387 23.5,-387"/>
</a>
</g>
</g>
<!-- Node3&#45;&gt;Node2 -->
<g id="edge2_Node000002_Node000003" class="edge">
<title>Node3&#45;&gt;Node2</title>
<g id="a_edge2_Node000002_Node000003"><a xlink:title=" ">
<path fill="none" stroke="#63b8ff" d="M68.5,-376.3C68.5,-367.22 68.5,-357.98 68.5,-349.69"/>
<polygon fill="none" stroke="#63b8ff" points="65,-376.22 68.5,-386.22 72,-376.22 65,-376.22"/>
</a>
</g>
</g>
<!-- Node4 -->
<g id="Node000004" class="node">
<title>Node4</title>
<g id="a_Node000004"><a xlink:title=" ">
<polygon fill="white" stroke="none" points="123,-561 14,-561 14,-500 123,-500 123,-561"/>
<text text-anchor="start" x="18.62" y="-547.5" font-family="Helvetica,sans-Serif" font-size="10.00">std::basic_ios&lt; Char &gt;</text>
<text text-anchor="start" x="67" y="-528.5" font-family="Helvetica,sans-Serif" font-size="10.00"> </text>
<text text-anchor="start" x="67" y="-509.5" font-family="Helvetica,sans-Serif" font-size="10.00"> </text>
<polygon fill="#666666" stroke="#666666" points="14,-540 14,-540 123,-540 123,-540 14,-540"/>
<polygon fill="#666666" stroke="#666666" points="14,-521 14,-521 123,-521 123,-521 14,-521"/>
<polygon fill="none" stroke="#666666" points="14,-500 14,-561 123,-561 123,-500 14,-500"/>
</a>
</g>
</g>
<!-- Node4&#45;&gt;Node3 -->
<g id="edge3_Node000003_Node000004" class="edge">
<title>Node4&#45;&gt;Node3</title>
<g id="a_edge3_Node000003_Node000004"><a xlink:title=" ">
<path fill="none" stroke="#63b8ff" d="M68.5,-489.38C68.5,-480.65 68.5,-471.44 68.5,-462.84"/>
<polygon fill="none" stroke="#63b8ff" points="65,-489.12 68.5,-499.12 72,-489.12 65,-489.12"/>
</a>
</g>
</g>
<!-- Node5 -->
<g id="Node000005" class="node">
<title>Node5</title>
<g id="a_Node000005"><a xlink:title=" ">
<polygon fill="white" stroke="none" points="102.5,-659 34.5,-659 34.5,-598 102.5,-598 102.5,-659"/>
<text text-anchor="start" x="39.25" y="-645.5" font-family="Helvetica,sans-Serif" font-size="10.00">std::ios_base</text>
<text text-anchor="start" x="67" y="-626.5" font-family="Helvetica,sans-Serif" font-size="10.00"> </text>
<text text-anchor="start" x="67" y="-607.5" font-family="Helvetica,sans-Serif" font-size="10.00"> </text>
<polygon fill="#666666" stroke="#666666" points="34.5,-638 34.5,-638 102.5,-638 102.5,-638 34.5,-638"/>
<polygon fill="#666666" stroke="#666666" points="34.5,-619 34.5,-619 102.5,-619 102.5,-619 34.5,-619"/>
<polygon fill="none" stroke="#666666" points="34.5,-598 34.5,-659 102.5,-659 102.5,-598 34.5,-598"/>
</a>
</g>
</g>
<!-- Node5&#45;&gt;Node4 -->
<g id="edge4_Node000004_Node000005" class="edge">
<title>Node5&#45;&gt;Node4</title>
<g id="a_edge4_Node000004_Node000005"><a xlink:title=" ">
<path fill="none" stroke="#63b8ff" d="M68.5,-587.29C68.5,-578.47 68.5,-569.28 68.5,-560.98"/>
<polygon fill="none" stroke="#63b8ff" points="65,-587.18 68.5,-597.18 72,-587.18 65,-587.18"/>
</a>
</g>
</g>
</g>
</svg>

<g id="navigator" transform="translate(0 0)" fill="#404254">
  <rect fill="#f2f5e9" fill-opacity="0.5" stroke="#606060" stroke-width=".5" x="0" y="0" width="60" height="60"/>
  <use id="zoomplus" xlink:href="#zoomPlus" x="17" y="9" onmousedown="handleZoom(evt,'in')"/>
  <use id="zoomminus" xlink:href="#zoomMin" x="42" y="9" onmousedown="handleZoom(evt,'out')"/>
  <use id="reset" xlink:href="#resetDef" x="30" y="36" onmousedown="handleReset()"/>
   <use id="arrowup" xlink:href="#arrowUp" x="0" y="0" onmousedown="handlePan(0,-1)"/>
  <use id="arrowright" xlink:href="#arrowRight" x="0" y="0" onmousedown="handlePan(1,0)"/>
  <use id="arrowdown" xlink:href="#arrowDown" x="0" y="0" onmousedown="handlePan(0,1)"/>
  <use id="arrowleft" xlink:href="#arrowLeft" x="0" y="0" onmousedown="handlePan(-1,0)"/>
</g>
<svg viewBox="0 0 15 15" width="100%" height="30px" preserveAspectRatio="xMaxYMin meet">
 <g id="arrow_out" transform="scale(0.3 0.3)">
  <a xlink:href="classio_1_1istream2istream__redirect__coll__graph_org.svg" target="_base">
   <rect id="button" ry="5" rx="5" y="6" x="6" height="38" width="38"
        fill="#f2f5e9" fill-opacity="0.5" stroke="#606060" stroke-width="1.0"/>
   <path id="arrow"
     d="M 11.500037,31.436501 C 11.940474,20.09759 22.043105,11.32322 32.158766,21.979434 L 37.068811,17.246167 C 37.068811,17.246167 37.088388,32 37.088388,32 L 22.160133,31.978069 C 22.160133,31.978069 26.997745,27.140456 26.997745,27.140456 C 18.528582,18.264221 13.291696,25.230495 11.500037,31.436501 z"
     style="fill:#404040;"/>
  </a>
 </g>
</svg>

<style type='text/css'>
<![CDATA[
[data-mouse-over-selected='false'] { opacity: 0.7; }
[data-mouse-over-selected='true']  { opacity: 1.0; }
]]>
</style>
<script type="application/ecmascript"><![CDATA[
document.addEventListener('DOMContentLoaded', (event) => {
  highlightEdges();
  highlightAdjacentNodes();
});
]]></script>
</svg>
