<?xml version="1.0" encoding="UTF-8" standalone="no"?>
<!DOCTYPE svg PUBLIC "-//W3C//DTD SVG 1.1//EN"
 "http://www.w3.org/Graphics/SVG/1.1/DTD/svg11.dtd">
<!-- Generated by graphviz version 8.1.0 (20230707.0739)
 -->
<!-- Title: cmd::provider::ConsoleParser Pages: 1 -->
<svg width="167pt" height="1133pt"
 viewBox="0.00 0.00 167.00 1133.00" xmlns="http://www.w3.org/2000/svg" xmlns:xlink="http://www.w3.org/1999/xlink">
<g id="graph0" class="graph" transform="scale(1 1) rotate(0) translate(4 1129)">
<title>cmd::provider::ConsoleParser</title>
<!-- Node1 -->
<g id="Node000001" class="node">
<title>Node1</title>
<g id="a_Node000001"><a xlink:title="Command parser from input stream.">
<polygon fill="#999999" stroke="none" points="154.5,-235 4.5,-235 4.5,0 154.5,0 154.5,-235"/>
<text text-anchor="start" x="14.62" y="-221.5" font-family="Helvetica,sans-Serif" font-size="10.00">cmd::provider::ConsoleParser</text>
<text text-anchor="start" x="78" y="-202.5" font-family="Helvetica,sans-Serif" font-size="10.00"> </text>
<text text-anchor="start" x="8.5" y="-183.5" font-family="Helvetica,sans-Serif" font-size="10.00">+</text>
<text text-anchor="start" x="18.5" y="-183.5" font-family="Helvetica,sans-Serif" font-size="10.00">ConsoleParser(ConsoleParser</text>
<text text-anchor="start" x="18.5" y="-168.5" font-family="Helvetica,sans-Serif" font-size="10.00"> const &amp;)=delete</text>
<text text-anchor="start" x="8.5" y="-149.5" font-family="Helvetica,sans-Serif" font-size="10.00">+</text>
<text text-anchor="start" x="18.5" y="-149.5" font-family="Helvetica,sans-Serif" font-size="10.00">ConsoleParser &amp; operator</text>
<text text-anchor="start" x="18.5" y="-134.5" font-family="Helvetica,sans-Serif" font-size="10.00">=(ConsoleParser const &amp;)</text>
<text text-anchor="start" x="18.5" y="-119.5" font-family="Helvetica,sans-Serif" font-size="10.00">=delete</text>
<text text-anchor="start" x="8.5" y="-100.5" font-family="Helvetica,sans-Serif" font-size="10.00">+</text>
<text text-anchor="start" x="18.5" y="-100.5" font-family="Helvetica,sans-Serif" font-size="10.00">~ConsoleParser()</text>
<text text-anchor="start" x="8.5" y="-81.5" font-family="Helvetica,sans-Serif" font-size="10.00">+</text>
<text text-anchor="start" x="18.5" y="-81.5" font-family="Helvetica,sans-Serif" font-size="10.00">void run()</text>
<text text-anchor="start" x="8.5" y="-62.5" font-family="Helvetica,sans-Serif" font-size="10.00">+</text>
<text text-anchor="start" x="18.5" y="-62.5" font-family="Helvetica,sans-Serif" font-size="10.00">static ConsoleParser</text>
<text text-anchor="start" x="18.5" y="-47.5" font-family="Helvetica,sans-Serif" font-size="10.00"> &amp; instance()</text>
<text text-anchor="start" x="10" y="-28.5" font-family="Helvetica,sans-Serif" font-size="10.00">&#45;</text>
<text text-anchor="start" x="18.5" y="-28.5" font-family="Helvetica,sans-Serif" font-size="10.00">ConsoleParser() noexcept</text>
<text text-anchor="start" x="10" y="-9.5" font-family="Helvetica,sans-Serif" font-size="10.00">&#45;</text>
<text text-anchor="start" x="18.5" y="-9.5" font-family="Helvetica,sans-Serif" font-size="10.00">Token advance()</text>
<polygon fill="#666666" stroke="#666666" points="4.5,-214 4.5,-214 154.5,-214 154.5,-214 4.5,-214"/>
<polygon fill="#666666" stroke="#666666" points="4.5,-195 4.5,-195 154.5,-195 154.5,-195 4.5,-195"/>
<polygon fill="none" stroke="#666666" points="4.5,0 4.5,-235 154.5,-235 154.5,0 4.5,0"/>
</a>
</g>
</g>
<!-- Node2 -->
<g id="Node000002" class="node">
<title>Node2</title>
<g id="a_Node000002"><a xlink:href="classcore_1_1PublisherMixin.html" target="_top" xlink:title=" ">
<polygon fill="white" stroke="none" points="159,-673 0,-673 0,-272 159,-272 159,-673"/>
<text text-anchor="start" x="35.25" y="-659.5" font-family="Helvetica,sans-Serif" font-size="10.00">core::PublisherMixin</text>
<text text-anchor="start" x="45.38" y="-644.5" font-family="Helvetica,sans-Serif" font-size="10.00">&lt; TokenEvent &gt;</text>
<text text-anchor="start" x="5.5" y="-625.5" font-family="Helvetica,sans-Serif" font-size="10.00">&#45;</text>
<text text-anchor="start" x="14" y="-625.5" font-family="Helvetica,sans-Serif" font-size="10.00">std::list&lt; VPtrSubscriber</text>
<text text-anchor="start" x="14" y="-610.5" font-family="Helvetica,sans-Serif" font-size="10.00"> &gt; _subs</text>
<text text-anchor="start" x="4" y="-591.5" font-family="Helvetica,sans-Serif" font-size="10.00">+</text>
<text text-anchor="start" x="14" y="-591.5" font-family="Helvetica,sans-Serif" font-size="10.00">virtual ~PublisherMixin</text>
<text text-anchor="start" x="14" y="-576.5" font-family="Helvetica,sans-Serif" font-size="10.00">()=default</text>
<text text-anchor="start" x="4" y="-557.5" font-family="Helvetica,sans-Serif" font-size="10.00">+</text>
<text text-anchor="start" x="14" y="-557.5" font-family="Helvetica,sans-Serif" font-size="10.00">void subscribe(SPtrSubscriber</text>
<text text-anchor="start" x="14" y="-542.5" font-family="Helvetica,sans-Serif" font-size="10.00"> const &amp;subscriber, bool own)</text>
<text text-anchor="start" x="4" y="-523.5" font-family="Helvetica,sans-Serif" font-size="10.00">+</text>
<text text-anchor="start" x="14" y="-523.5" font-family="Helvetica,sans-Serif" font-size="10.00">void subscribe(SPtrSubscriber</text>
<text text-anchor="start" x="14" y="-508.5" font-family="Helvetica,sans-Serif" font-size="10.00"> &amp;&amp;subscriber)</text>
<text text-anchor="start" x="4" y="-489.5" font-family="Helvetica,sans-Serif" font-size="10.00">+</text>
<text text-anchor="start" x="14" y="-489.5" font-family="Helvetica,sans-Serif" font-size="10.00">bool hasSubscription()</text>
<text text-anchor="start" x="4" y="-470.5" font-family="Helvetica,sans-Serif" font-size="10.00">+</text>
<text text-anchor="start" x="14" y="-470.5" font-family="Helvetica,sans-Serif" font-size="10.00">void unsubscribe(SPtrSubscriber</text>
<text text-anchor="start" x="14" y="-455.5" font-family="Helvetica,sans-Serif" font-size="10.00"> const &amp;subscriber)</text>
<text text-anchor="start" x="4" y="-436.5" font-family="Helvetica,sans-Serif" font-size="10.00">+</text>
<text text-anchor="start" x="14" y="-436.5" font-family="Helvetica,sans-Serif" font-size="10.00">void clear()</text>
<text text-anchor="start" x="4.38" y="-417.5" font-family="Helvetica,sans-Serif" font-size="10.00">#</text>
<text text-anchor="start" x="14" y="-417.5" font-family="Helvetica,sans-Serif" font-size="10.00">PublisherMixin()</text>
<text text-anchor="start" x="4.38" y="-398.5" font-family="Helvetica,sans-Serif" font-size="10.00">#</text>
<text text-anchor="start" x="14" y="-398.5" font-family="Helvetica,sans-Serif" font-size="10.00">void notify(TokenEvent</text>
<text text-anchor="start" x="14" y="-383.5" font-family="Helvetica,sans-Serif" font-size="10.00"> const &amp;event)</text>
<text text-anchor="start" x="5.5" y="-364.5" font-family="Helvetica,sans-Serif" font-size="10.00">&#45;</text>
<text text-anchor="start" x="14" y="-364.5" font-family="Helvetica,sans-Serif" font-size="10.00">std::optional&lt; SPtrSubscriber</text>
<text text-anchor="start" x="14" y="-349.5" font-family="Helvetica,sans-Serif" font-size="10.00"> &gt; _getShared(VPtrSubscriber</text>
<text text-anchor="start" x="14" y="-334.5" font-family="Helvetica,sans-Serif" font-size="10.00"> const &amp;vptr)</text>
<text text-anchor="start" x="5.5" y="-315.5" font-family="Helvetica,sans-Serif" font-size="10.00">&#45;</text>
<text text-anchor="start" x="14" y="-315.5" font-family="Helvetica,sans-Serif" font-size="10.00">auto _findSteady(std</text>
<text text-anchor="start" x="14" y="-300.5" font-family="Helvetica,sans-Serif" font-size="10.00">::string_view id)</text>
<text text-anchor="start" x="5.5" y="-281.5" font-family="Helvetica,sans-Serif" font-size="10.00">&#45;</text>
<text text-anchor="start" x="14" y="-281.5" font-family="Helvetica,sans-Serif" font-size="10.00">void _refresh()</text>
<polygon fill="#666666" stroke="#666666" points="0,-637 0,-637 159,-637 159,-637 0,-637"/>
<polygon fill="#666666" stroke="#666666" points="0,-603 0,-603 12,-603 12,-603 0,-603"/>
<polygon fill="#666666" stroke="#666666" points="12,-603 12,-603 159,-603 159,-603 12,-603"/>
<polygon fill="none" stroke="#666666" points="0,-272 0,-673 159,-673 159,-272 0,-272"/>
</a>
</g>
</g>
<!-- Node2&#45;&gt;Node1 -->
<g id="edge1_Node000001_Node000002" class="edge">
<title>Node2&#45;&gt;Node1</title>
<g id="a_edge1_Node000001_Node000002"><a xlink:title=" ">
<path fill="none" stroke="#63b8ff" d="M79.5,-261.12C79.5,-252.21 79.5,-243.42 79.5,-234.84"/>
<polygon fill="none" stroke="#63b8ff" points="76,-261.05 79.5,-271.05 83,-261.05 76,-261.05"/>
</a>
</g>
</g>
<!-- Node3 -->
<g id="Node000003" class="node">
<title>Node3</title>
<g id="a_Node000003"><a xlink:href="classcore_1_1PublisherMixin.html" target="_top" xlink:title=" ">
<polygon fill="white" stroke="none" points="159,-1125 0,-1125 0,-724 159,-724 159,-1125"/>
<text text-anchor="start" x="35.25" y="-1111.5" font-family="Helvetica,sans-Serif" font-size="10.00">core::PublisherMixin</text>
<text text-anchor="start" x="47.62" y="-1096.5" font-family="Helvetica,sans-Serif" font-size="10.00">&lt; EventType &gt;</text>
<text text-anchor="start" x="5.5" y="-1077.5" font-family="Helvetica,sans-Serif" font-size="10.00">&#45;</text>
<text text-anchor="start" x="14" y="-1077.5" font-family="Helvetica,sans-Serif" font-size="10.00">std::list&lt; VPtrSubscriber</text>
<text text-anchor="start" x="14" y="-1062.5" font-family="Helvetica,sans-Serif" font-size="10.00"> &gt; _subs</text>
<text text-anchor="start" x="4" y="-1043.5" font-family="Helvetica,sans-Serif" font-size="10.00">+</text>
<text text-anchor="start" x="14" y="-1043.5" font-family="Helvetica,sans-Serif" font-size="10.00">virtual ~PublisherMixin</text>
<text text-anchor="start" x="14" y="-1028.5" font-family="Helvetica,sans-Serif" font-size="10.00">()=default</text>
<text text-anchor="start" x="4" y="-1009.5" font-family="Helvetica,sans-Serif" font-size="10.00">+</text>
<text text-anchor="start" x="14" y="-1009.5" font-family="Helvetica,sans-Serif" font-size="10.00">void subscribe(SPtrSubscriber</text>
<text text-anchor="start" x="14" y="-994.5" font-family="Helvetica,sans-Serif" font-size="10.00"> const &amp;subscriber, bool own)</text>
<text text-anchor="start" x="4" y="-975.5" font-family="Helvetica,sans-Serif" font-size="10.00">+</text>
<text text-anchor="start" x="14" y="-975.5" font-family="Helvetica,sans-Serif" font-size="10.00">void subscribe(SPtrSubscriber</text>
<text text-anchor="start" x="14" y="-960.5" font-family="Helvetica,sans-Serif" font-size="10.00"> &amp;&amp;subscriber)</text>
<text text-anchor="start" x="4" y="-941.5" font-family="Helvetica,sans-Serif" font-size="10.00">+</text>
<text text-anchor="start" x="14" y="-941.5" font-family="Helvetica,sans-Serif" font-size="10.00">bool hasSubscription()</text>
<text text-anchor="start" x="4" y="-922.5" font-family="Helvetica,sans-Serif" font-size="10.00">+</text>
<text text-anchor="start" x="14" y="-922.5" font-family="Helvetica,sans-Serif" font-size="10.00">void unsubscribe(SPtrSubscriber</text>
<text text-anchor="start" x="14" y="-907.5" font-family="Helvetica,sans-Serif" font-size="10.00"> const &amp;subscriber)</text>
<text text-anchor="start" x="4" y="-888.5" font-family="Helvetica,sans-Serif" font-size="10.00">+</text>
<text text-anchor="start" x="14" y="-888.5" font-family="Helvetica,sans-Serif" font-size="10.00">void clear()</text>
<text text-anchor="start" x="4.38" y="-869.5" font-family="Helvetica,sans-Serif" font-size="10.00">#</text>
<text text-anchor="start" x="14" y="-869.5" font-family="Helvetica,sans-Serif" font-size="10.00">PublisherMixin()</text>
<text text-anchor="start" x="4.38" y="-850.5" font-family="Helvetica,sans-Serif" font-size="10.00">#</text>
<text text-anchor="start" x="14" y="-850.5" font-family="Helvetica,sans-Serif" font-size="10.00">void notify(EventType</text>
<text text-anchor="start" x="14" y="-835.5" font-family="Helvetica,sans-Serif" font-size="10.00"> const &amp;event)</text>
<text text-anchor="start" x="5.5" y="-816.5" font-family="Helvetica,sans-Serif" font-size="10.00">&#45;</text>
<text text-anchor="start" x="14" y="-816.5" font-family="Helvetica,sans-Serif" font-size="10.00">std::optional&lt; SPtrSubscriber</text>
<text text-anchor="start" x="14" y="-801.5" font-family="Helvetica,sans-Serif" font-size="10.00"> &gt; _getShared(VPtrSubscriber</text>
<text text-anchor="start" x="14" y="-786.5" font-family="Helvetica,sans-Serif" font-size="10.00"> const &amp;vptr)</text>
<text text-anchor="start" x="5.5" y="-767.5" font-family="Helvetica,sans-Serif" font-size="10.00">&#45;</text>
<text text-anchor="start" x="14" y="-767.5" font-family="Helvetica,sans-Serif" font-size="10.00">auto _findSteady(std</text>
<text text-anchor="start" x="14" y="-752.5" font-family="Helvetica,sans-Serif" font-size="10.00">::string_view id)</text>
<text text-anchor="start" x="5.5" y="-733.5" font-family="Helvetica,sans-Serif" font-size="10.00">&#45;</text>
<text text-anchor="start" x="14" y="-733.5" font-family="Helvetica,sans-Serif" font-size="10.00">void _refresh()</text>
<polygon fill="#666666" stroke="#666666" points="0,-1089 0,-1089 159,-1089 159,-1089 0,-1089"/>
<polygon fill="#666666" stroke="#666666" points="0,-1055 0,-1055 12,-1055 12,-1055 0,-1055"/>
<polygon fill="#666666" stroke="#666666" points="12,-1055 12,-1055 159,-1055 159,-1055 12,-1055"/>
<polygon fill="none" stroke="#666666" points="0,-724 0,-1125 159,-1125 159,-724 0,-724"/>
</a>
</g>
</g>
<!-- Node3&#45;&gt;Node2 -->
<g id="edge2_Node000002_Node000003" class="edge">
<title>Node3&#45;&gt;Node2</title>
<g id="a_edge2_Node000002_Node000003"><a xlink:title=" ">
<path fill="none" stroke="orange" d="M79.5,-713.35C79.5,-699.85 79.5,-686.28 79.5,-672.83"/>
<polygon fill="orange" stroke="orange" points="76,-713.16 79.5,-723.16 83,-713.16 76,-713.16"/>
</a>
</g>
<text text-anchor="middle" x="115.12" y="-696.5" font-family="Helvetica,sans-Serif" font-size="10.00" fill="grey"> &lt; TokenEvent &gt;</text>
</g>
</g>
</svg>
