<?xml version="1.0" encoding="UTF-8" standalone="no"?>
<!DOCTYPE svg PUBLIC "-//W3C//DTD SVG 1.1//EN"
 "http://www.w3.org/Graphics/SVG/1.1/DTD/svg11.dtd">
<!-- Generated by graphviz version 8.1.0 (20230707.0739)
 -->
<!-- Title: logs::FileWriter Pages: 1 -->
<!--zoomable 1303 -->

<svg id="main" version="1.1" xmlns="http://www.w3.org/2000/svg" xmlns:xlink="http://www.w3.org/1999/xlink" xml:space="preserve" onload="init(evt)">
<style type="text/css"><![CDATA[
.node, .edge {opacity: 0.7;}
.node.selected, .edge.selected {opacity: 1;}
.edge:hover path { stroke: red; }
.edge:hover polygon { stroke: red; fill: red; }
]]></style>

<defs>
  <circle id="rim" cx="0" cy="0" r="7"/>
  <circle id="rim2" cx="0" cy="0" r="3.5"/>
  <g id="zoomPlus">
    <use xlink:href="#rim" fill="#404040"><set attributeName="fill" to="#808080" begin="zoomplus.mouseover" end="zoomplus.mouseout"/></use>
    <path d="M-4,0h8M0,-4v8" fill="none" stroke="white" stroke-width="1.5" pointer-events="none"/>
  </g>
  <g id="zoomMin">
    <use xlink:href="#rim" fill="#404040"><set attributeName="fill" to="#808080" begin="zoomminus.mouseover" end="zoomminus.mouseout"/></use>
    <path d="M-4,0h8" fill="none" stroke="white" stroke-width="1.5" pointer-events="none"/>
  </g>
  <g id="arrowUp" transform="translate(30 24)">
    <use xlink:href="#rim"/>
    <path pointer-events="none" fill="none" stroke="white" stroke-width="1.5" d="M0,-3.0v7 M-2.5,-0.5L0,-3.0L2.5,-0.5"/>
  </g>
  <g id="arrowRight" transform="rotate(90) translate(36 -43)">
    <use xlink:href="#rim"/>
    <path pointer-events="none" fill="none" stroke="white" stroke-width="1.5" d="M0,-3.0v7 M-2.5,-0.5L0,-3.0L2.5,-0.5"/>
  </g>
  <g id="arrowDown" transform="rotate(180) translate(-30 -48)">
    <use xlink:href="#rim"/>
    <path pointer-events="none" fill="none" stroke="white" stroke-width="1.5" d="M0,-3.0v7 M-2.5,-0.5L0,-3.0L2.5,-0.5"/>
  </g>
  <g id="arrowLeft" transform="rotate(270) translate(-36 17)">
    <use xlink:href="#rim"/>
    <path pointer-events="none" fill="none" stroke="white" stroke-width="1.5" d="M0,-3.0v7 M-2.5,-0.5L0,-3.0L2.5,-0.5"/>
  </g>
  <g id="resetDef">
    <use xlink:href="#rim2" fill="#404040"><set attributeName="fill" to="#808080" begin="reset.mouseover" end="reset.mouseout"/></use>
  </g>
</defs>
<script type="application/ecmascript">
var viewWidth = 292;
var viewHeight = 1303;
var sectionId = 'dynsection-1';
</script>
<script type="application/ecmascript" xlink:href="svg.min.js"/>
<svg id="graph" class="graph">
<g id="viewport">
<title>logs::FileWriter</title>
<!-- Node1 -->
<g id="Node000001" class="node">
<title>Node1</title>
<g id="a_Node000001"><a xlink:title=" ">
<polygon fill="#999999" stroke="none" points="167.15,-423 4.15,-423 4.15,0 167.15,0 167.15,-423"/>
<text text-anchor="start" x="53.03" y="-409.5" font-family="Helvetica,sans-Serif" font-size="10.00">logs::FileWriter</text>
<text text-anchor="start" x="9.65" y="-390.5" font-family="Helvetica,sans-Serif" font-size="10.00">&#45;</text>
<text text-anchor="start" x="18.15" y="-390.5" font-family="Helvetica,sans-Serif" font-size="10.00">fs::path const _output_dir</text>
<text text-anchor="start" x="9.65" y="-371.5" font-family="Helvetica,sans-Serif" font-size="10.00">&#45;</text>
<text text-anchor="start" x="18.15" y="-371.5" font-family="Helvetica,sans-Serif" font-size="10.00">size_t _bulk_counter</text>
<text text-anchor="start" x="9.65" y="-352.5" font-family="Helvetica,sans-Serif" font-size="10.00">&#45;</text>
<text text-anchor="start" x="18.15" y="-352.5" font-family="Helvetica,sans-Serif" font-size="10.00">core::SubscriptionStatus</text>
<text text-anchor="start" x="18.15" y="-337.5" font-family="Helvetica,sans-Serif" font-size="10.00"> _subs_state</text>
<text text-anchor="start" x="8.15" y="-318.5" font-family="Helvetica,sans-Serif" font-size="10.00">+</text>
<text text-anchor="start" x="18.15" y="-318.5" font-family="Helvetica,sans-Serif" font-size="10.00">core::SubscriptionStatus</text>
<text text-anchor="start" x="18.15" y="-303.5" font-family="Helvetica,sans-Serif" font-size="10.00"> getSubscriptionStatus</text>
<text text-anchor="start" x="18.15" y="-288.5" font-family="Helvetica,sans-Serif" font-size="10.00">() noexcept override</text>
<text text-anchor="start" x="8.15" y="-269.5" font-family="Helvetica,sans-Serif" font-size="10.00">+</text>
<text text-anchor="start" x="18.15" y="-269.5" font-family="Helvetica,sans-Serif" font-size="10.00">void setSubscriptionStatus</text>
<text text-anchor="start" x="18.15" y="-254.5" font-family="Helvetica,sans-Serif" font-size="10.00">(core::SubscriptionStatus</text>
<text text-anchor="start" x="18.15" y="-239.5" font-family="Helvetica,sans-Serif" font-size="10.00"> state) noexcept</text>
<text text-anchor="start" x="8.15" y="-220.5" font-family="Helvetica,sans-Serif" font-size="10.00">+</text>
<text text-anchor="start" x="18.15" y="-220.5" font-family="Helvetica,sans-Serif" font-size="10.00">core::SubscriptionStatus</text>
<text text-anchor="start" x="18.15" y="-205.5" font-family="Helvetica,sans-Serif" font-size="10.00"> onEvent(bulk::BulkEvent</text>
<text text-anchor="start" x="18.15" y="-190.5" font-family="Helvetica,sans-Serif" font-size="10.00"> const &amp;event) override</text>
<text text-anchor="start" x="8.15" y="-171.5" font-family="Helvetica,sans-Serif" font-size="10.00">+</text>
<text text-anchor="start" x="18.15" y="-171.5" font-family="Helvetica,sans-Serif" font-size="10.00">static auto create</text>
<text text-anchor="start" x="18.15" y="-156.5" font-family="Helvetica,sans-Serif" font-size="10.00">(std::string_view output</text>
<text text-anchor="start" x="18.15" y="-141.5" font-family="Helvetica,sans-Serif" font-size="10.00">_directory, std::string</text>
<text text-anchor="start" x="18.15" y="-126.5" font-family="Helvetica,sans-Serif" font-size="10.00">_view name=&quot;&quot;)</text>
<text text-anchor="start" x="9.65" y="-107.5" font-family="Helvetica,sans-Serif" font-size="10.00">&#45;</text>
<text text-anchor="start" x="18.15" y="-107.5" font-family="Helvetica,sans-Serif" font-size="10.00">FileWriter(std::string</text>
<text text-anchor="start" x="18.15" y="-92.5" font-family="Helvetica,sans-Serif" font-size="10.00">_view local_name=&quot;&quot;, std</text>
<text text-anchor="start" x="18.15" y="-77.5" font-family="Helvetica,sans-Serif" font-size="10.00">::string_view output_directory=&quot;&quot;)</text>
<text text-anchor="start" x="9.65" y="-58.5" font-family="Helvetica,sans-Serif" font-size="10.00">&#45;</text>
<text text-anchor="start" x="18.15" y="-58.5" font-family="Helvetica,sans-Serif" font-size="10.00">std::string getSubscriber</text>
<text text-anchor="start" x="18.15" y="-43.5" font-family="Helvetica,sans-Serif" font-size="10.00">Name() const noexcept override</text>
<text text-anchor="start" x="9.65" y="-24.5" font-family="Helvetica,sans-Serif" font-size="10.00">&#45;</text>
<text text-anchor="start" x="18.15" y="-24.5" font-family="Helvetica,sans-Serif" font-size="10.00">size_t _instanceNum</text>
<text text-anchor="start" x="18.15" y="-9.5" font-family="Helvetica,sans-Serif" font-size="10.00">() const</text>
<polygon fill="#666666" stroke="#666666" points="4.15,-402 4.15,-402 167.15,-402 167.15,-402 4.15,-402"/>
<polygon fill="#666666" stroke="#666666" points="4.15,-330 4.15,-330 16.15,-330 16.15,-330 4.15,-330"/>
<polygon fill="#666666" stroke="#666666" points="16.15,-330 16.15,-330 167.15,-330 167.15,-330 16.15,-330"/>
<polygon fill="none" stroke="#666666" points="4.15,0 4.15,-423 167.15,-423 167.15,0 4.15,0"/>
</a>
</g>
</g>
<!-- Node2 -->
<g id="Node000002" class="node">
<title>Node2</title>
<g id="a_Node000002"><a xlink:href="structcore_1_1SubscriberBase.html" target="_top" xlink:title=" ">
<polygon fill="white" stroke="none" points="150.65,-732 20.65,-732 20.65,-460 150.65,-460 150.65,-732"/>
<text text-anchor="start" x="38.78" y="-718.5" font-family="Helvetica,sans-Serif" font-size="10.00">core::SubscriberBase</text>
<text text-anchor="start" x="42.53" y="-703.5" font-family="Helvetica,sans-Serif" font-size="10.00">&lt; bulk::BulkEvent &gt;</text>
<text text-anchor="start" x="84.15" y="-684.5" font-family="Helvetica,sans-Serif" font-size="10.00"> </text>
<text text-anchor="start" x="24.65" y="-665.5" font-family="Helvetica,sans-Serif" font-size="10.00">+</text>
<text text-anchor="start" x="34.65" y="-665.5" font-family="Helvetica,sans-Serif" font-size="10.00">virtual ~SubscriberBase</text>
<text text-anchor="start" x="34.65" y="-650.5" font-family="Helvetica,sans-Serif" font-size="10.00">()=default</text>
<text text-anchor="start" x="24.65" y="-631.5" font-family="Helvetica,sans-Serif" font-size="10.00">+</text>
<text text-anchor="start" x="34.65" y="-631.5" font-family="Helvetica,sans-Serif" font-size="10.00">virtual SubscriptionStatus</text>
<text text-anchor="start" x="34.65" y="-616.5" font-family="Helvetica,sans-Serif" font-size="10.00"> onEvent(bulk::BulkEvent</text>
<text text-anchor="start" x="34.65" y="-601.5" font-family="Helvetica,sans-Serif" font-size="10.00"> const &amp;event)=0</text>
<text text-anchor="start" x="24.65" y="-582.5" font-family="Helvetica,sans-Serif" font-size="10.00">+</text>
<text text-anchor="start" x="34.65" y="-582.5" font-family="Helvetica,sans-Serif" font-size="10.00">virtual SubscriptionStatus</text>
<text text-anchor="start" x="34.65" y="-567.5" font-family="Helvetica,sans-Serif" font-size="10.00"> getSubscriptionStatus()</text>
<text text-anchor="start" x="34.65" y="-552.5" font-family="Helvetica,sans-Serif" font-size="10.00"> noexcept</text>
<text text-anchor="start" x="24.65" y="-533.5" font-family="Helvetica,sans-Serif" font-size="10.00">+</text>
<text text-anchor="start" x="34.65" y="-533.5" font-family="Helvetica,sans-Serif" font-size="10.00">virtual std::string</text>
<text text-anchor="start" x="34.65" y="-518.5" font-family="Helvetica,sans-Serif" font-size="10.00"> getSubscriberID() final</text>
<text text-anchor="start" x="25.03" y="-499.5" font-family="Helvetica,sans-Serif" font-size="10.00">#</text>
<text text-anchor="start" x="34.65" y="-499.5" font-family="Helvetica,sans-Serif" font-size="10.00">virtual std::string</text>
<text text-anchor="start" x="34.65" y="-484.5" font-family="Helvetica,sans-Serif" font-size="10.00"> getSubscriberName()</text>
<text text-anchor="start" x="34.65" y="-469.5" font-family="Helvetica,sans-Serif" font-size="10.00"> const noexcept</text>
<polygon fill="#666666" stroke="#666666" points="20.65,-696 20.65,-696 150.65,-696 150.65,-696 20.65,-696"/>
<polygon fill="#666666" stroke="#666666" points="20.65,-677 20.65,-677 150.65,-677 150.65,-677 20.65,-677"/>
<polygon fill="none" stroke="#666666" points="20.65,-460 20.65,-732 150.65,-732 150.65,-460 20.65,-460"/>
</a>
</g>
</g>
<!-- Node2&#45;&gt;Node1 -->
<g id="edge1_Node000001_Node000002" class="edge">
<title>Node2&#45;&gt;Node1</title>
<g id="a_edge1_Node000001_Node000002"><a xlink:title=" ">
<path fill="none" stroke="#63b8ff" d="M85.65,-449.24C85.65,-440.57 85.65,-431.77 85.65,-422.91"/>
<polygon fill="none" stroke="#63b8ff" points="82.15,-449.14 85.65,-459.14 89.15,-449.14 82.15,-449.14"/>
</a>
</g>
</g>
<!-- Node3 -->
<g id="Node000003" class="node">
<title>Node3</title>
<g id="a_Node000003"><a xlink:title=" ">
<polygon fill="white" stroke="none" points="95.15,-1182 42.15,-1182 42.15,-1121 95.15,-1121 95.15,-1182"/>
<text text-anchor="start" x="46.9" y="-1168.5" font-family="Helvetica,sans-Serif" font-size="10.00">std::string</text>
<text text-anchor="start" x="67.15" y="-1149.5" font-family="Helvetica,sans-Serif" font-size="10.00"> </text>
<text text-anchor="start" x="67.15" y="-1130.5" font-family="Helvetica,sans-Serif" font-size="10.00"> </text>
<polygon fill="#666666" stroke="#666666" points="42.15,-1161 42.15,-1161 95.15,-1161 95.15,-1161 42.15,-1161"/>
<polygon fill="#666666" stroke="#666666" points="42.15,-1142 42.15,-1142 95.15,-1142 95.15,-1142 42.15,-1142"/>
<polygon fill="none" stroke="#666666" points="42.15,-1121 42.15,-1182 95.15,-1182 95.15,-1121 42.15,-1121"/>
</a>
</g>
</g>
<!-- Node3&#45;&gt;Node1 -->
<g id="edge7_Node000001_Node000003" class="edge">
<title>Node3&#45;&gt;Node1</title>
<g id="a_edge7_Node000001_Node000003"><a xlink:title=" ">
<path fill="none" stroke="#63b8ff" d="M61.47,-1121.07C39.1,-1025.36 -25.57,-714.4 11.65,-460 12.84,-451.9 14.23,-443.69 15.79,-435.43"/>
<polygon fill="none" stroke="#63b8ff" points="15.78,-435.53 13.03,-428.87 18.12,-423.76 20.87,-430.43 15.78,-435.53"/>
</a>
</g>
<text text-anchor="middle" x="38.03" y="-770.5" font-family="Helvetica,sans-Serif" font-size="10.00" fill="grey"> &#45;_local_name</text>
<text text-anchor="middle" x="38.03" y="-755.5" font-family="Helvetica,sans-Serif" font-size="10.00" fill="grey">&#45;_name</text>
</g>
<!-- Node3&#45;&gt;Node2 -->
<g id="edge2_Node000002_Node000003" class="edge">
<title>Node3&#45;&gt;Node2</title>
<g id="a_edge2_Node000002_Node000003"><a xlink:title=" ">
<path fill="none" stroke="#63b8ff" d="M69.3,-1121.25C70.66,-1060.84 74.02,-917.93 77.9,-798 78.46,-780.8 79.09,-762.77 79.74,-744.87"/>
<polygon fill="none" stroke="#63b8ff" points="79.75,-744.76 75.97,-738.62 80.19,-732.77 83.97,-738.91 79.75,-744.76"/>
</a>
</g>
<text text-anchor="middle" x="88.03" y="-932" font-family="Helvetica,sans-Serif" font-size="10.00" fill="grey"> &#45;_id</text>
</g>
<!-- Node5 -->
<g id="Node000005" class="node">
<title>Node5</title>
<g id="a_Node000005"><a xlink:href="structcore_1_1SubscriberBase.html" target="_top" xlink:title=" ">
<polygon fill="white" stroke="none" points="237.65,-1070 105.65,-1070 105.65,-798 237.65,-798 237.65,-1070"/>
<text text-anchor="start" x="124.78" y="-1056.5" font-family="Helvetica,sans-Serif" font-size="10.00">core::SubscriberBase</text>
<text text-anchor="start" x="139.78" y="-1041.5" font-family="Helvetica,sans-Serif" font-size="10.00">&lt; EventType &gt;</text>
<text text-anchor="start" x="170.15" y="-1022.5" font-family="Helvetica,sans-Serif" font-size="10.00"> </text>
<text text-anchor="start" x="109.65" y="-1003.5" font-family="Helvetica,sans-Serif" font-size="10.00">+</text>
<text text-anchor="start" x="119.65" y="-1003.5" font-family="Helvetica,sans-Serif" font-size="10.00">virtual ~SubscriberBase</text>
<text text-anchor="start" x="119.65" y="-988.5" font-family="Helvetica,sans-Serif" font-size="10.00">()=default</text>
<text text-anchor="start" x="109.65" y="-969.5" font-family="Helvetica,sans-Serif" font-size="10.00">+</text>
<text text-anchor="start" x="119.65" y="-969.5" font-family="Helvetica,sans-Serif" font-size="10.00">virtual SubscriptionStatus</text>
<text text-anchor="start" x="119.65" y="-954.5" font-family="Helvetica,sans-Serif" font-size="10.00"> onEvent(EventType const</text>
<text text-anchor="start" x="119.65" y="-939.5" font-family="Helvetica,sans-Serif" font-size="10.00"> &amp;event)=0</text>
<text text-anchor="start" x="109.65" y="-920.5" font-family="Helvetica,sans-Serif" font-size="10.00">+</text>
<text text-anchor="start" x="119.65" y="-920.5" font-family="Helvetica,sans-Serif" font-size="10.00">virtual SubscriptionStatus</text>
<text text-anchor="start" x="119.65" y="-905.5" font-family="Helvetica,sans-Serif" font-size="10.00"> getSubscriptionStatus()</text>
<text text-anchor="start" x="119.65" y="-890.5" font-family="Helvetica,sans-Serif" font-size="10.00"> noexcept</text>
<text text-anchor="start" x="109.65" y="-871.5" font-family="Helvetica,sans-Serif" font-size="10.00">+</text>
<text text-anchor="start" x="119.65" y="-871.5" font-family="Helvetica,sans-Serif" font-size="10.00">virtual std::string</text>
<text text-anchor="start" x="119.65" y="-856.5" font-family="Helvetica,sans-Serif" font-size="10.00"> getSubscriberID() final</text>
<text text-anchor="start" x="110.03" y="-837.5" font-family="Helvetica,sans-Serif" font-size="10.00">#</text>
<text text-anchor="start" x="119.65" y="-837.5" font-family="Helvetica,sans-Serif" font-size="10.00">virtual std::string</text>
<text text-anchor="start" x="119.65" y="-822.5" font-family="Helvetica,sans-Serif" font-size="10.00"> getSubscriberName()</text>
<text text-anchor="start" x="119.65" y="-807.5" font-family="Helvetica,sans-Serif" font-size="10.00"> const noexcept</text>
<polygon fill="#666666" stroke="#666666" points="105.65,-1034 105.65,-1034 237.65,-1034 237.65,-1034 105.65,-1034"/>
<polygon fill="#666666" stroke="#666666" points="105.65,-1015 105.65,-1015 237.65,-1015 237.65,-1015 105.65,-1015"/>
<polygon fill="none" stroke="#666666" points="105.65,-798 105.65,-1070 237.65,-1070 237.65,-798 105.65,-798"/>
</a>
</g>
</g>
<!-- Node3&#45;&gt;Node5 -->
<g id="edge5_Node000005_Node000003" class="edge">
<title>Node3&#45;&gt;Node5</title>
<g id="a_edge5_Node000005_Node000003"><a xlink:title=" ">
<path fill="none" stroke="#63b8ff" d="M82.54,-1121.44C87.92,-1110.18 94.51,-1096.39 101.65,-1081.47"/>
<polygon fill="none" stroke="#63b8ff" points="101.63,-1081.5 100.61,-1074.36 106.81,-1070.67 107.83,-1077.81 101.63,-1081.5"/>
</a>
</g>
<text text-anchor="middle" x="106.03" y="-1093.5" font-family="Helvetica,sans-Serif" font-size="10.00" fill="grey"> &#45;_id</text>
</g>
<!-- Node4 -->
<g id="Node000004" class="node">
<title>Node4</title>
<g id="a_Node000004"><a xlink:title=" ">
<polygon fill="white" stroke="none" points="112.65,-1295 24.65,-1295 24.65,-1219 112.65,-1219 112.65,-1295"/>
<text text-anchor="start" x="29.65" y="-1281.5" font-family="Helvetica,sans-Serif" font-size="10.00">std::basic_string&lt;</text>
<text text-anchor="start" x="52.15" y="-1266.5" font-family="Helvetica,sans-Serif" font-size="10.00"> Char &gt;</text>
<text text-anchor="start" x="67.15" y="-1247.5" font-family="Helvetica,sans-Serif" font-size="10.00"> </text>
<text text-anchor="start" x="67.15" y="-1228.5" font-family="Helvetica,sans-Serif" font-size="10.00"> </text>
<polygon fill="#666666" stroke="#666666" points="24.65,-1259 24.65,-1259 112.65,-1259 112.65,-1259 24.65,-1259"/>
<polygon fill="#666666" stroke="#666666" points="24.65,-1240 24.65,-1240 112.65,-1240 112.65,-1240 24.65,-1240"/>
<polygon fill="none" stroke="#666666" points="24.65,-1219 24.65,-1295 112.65,-1295 112.65,-1219 24.65,-1219"/>
</a>
</g>
</g>
<!-- Node4&#45;&gt;Node3 -->
<g id="edge3_Node000003_Node000004" class="edge">
<title>Node4&#45;&gt;Node3</title>
<g id="a_edge3_Node000003_Node000004"><a xlink:title=" ">
<path fill="none" stroke="#63b8ff" d="M68.65,-1208.3C68.65,-1199.22 68.65,-1189.98 68.65,-1181.69"/>
<polygon fill="none" stroke="#63b8ff" points="65.15,-1208.22 68.65,-1218.22 72.15,-1208.22 65.15,-1208.22"/>
</a>
</g>
</g>
<!-- Node5&#45;&gt;Node2 -->
<g id="edge4_Node000002_Node000005" class="edge">
<title>Node5&#45;&gt;Node2</title>
<g id="a_edge4_Node000002_Node000005"><a xlink:title=" ">
<path fill="none" stroke="orange" d="M134.46,-787.69C129.7,-769.11 124.85,-750.16 120.14,-731.76"/>
<polygon fill="orange" stroke="orange" points="131.3,-788.45 137.17,-797.27 138.08,-786.72 131.3,-788.45"/>
</a>
</g>
<text text-anchor="middle" x="176.28" y="-763" font-family="Helvetica,sans-Serif" font-size="10.00" fill="grey"> &lt; bulk::BulkEvent &gt;</text>
</g>
<!-- Node6 -->
<g id="Node000006" class="node">
<title>Node6</title>
<g id="a_Node000006"><a xlink:title=" ">
<polygon fill="white" stroke="none" points="284.15,-634 169.15,-634 169.15,-558 284.15,-558 284.15,-634"/>
<text text-anchor="start" x="174.15" y="-620.5" font-family="Helvetica,sans-Serif" font-size="10.00">std::enable_shared</text>
<text text-anchor="start" x="174.15" y="-605.5" font-family="Helvetica,sans-Serif" font-size="10.00">_from_this&lt; FileWriter &gt;</text>
<text text-anchor="start" x="225.15" y="-586.5" font-family="Helvetica,sans-Serif" font-size="10.00"> </text>
<text text-anchor="start" x="225.15" y="-567.5" font-family="Helvetica,sans-Serif" font-size="10.00"> </text>
<polygon fill="#666666" stroke="#666666" points="169.15,-598 169.15,-598 284.15,-598 284.15,-598 169.15,-598"/>
<polygon fill="#666666" stroke="#666666" points="169.15,-579 169.15,-579 284.15,-579 284.15,-579 169.15,-579"/>
<polygon fill="none" stroke="#666666" points="169.15,-558 169.15,-634 284.15,-634 284.15,-558 169.15,-558"/>
</a>
</g>
</g>
<!-- Node6&#45;&gt;Node1 -->
<g id="edge6_Node000001_Node000006" class="edge">
<title>Node6&#45;&gt;Node1</title>
<g id="a_edge6_Node000001_Node000006"><a xlink:title=" ">
<path fill="none" stroke="#63b8ff" d="M209.42,-548.27C197.46,-515.8 180.58,-470.01 163.12,-422.66"/>
<polygon fill="none" stroke="#63b8ff" points="206.39,-549.15 213.13,-557.32 212.96,-546.73 206.39,-549.15"/>
</a>
</g>
</g>
</g>
</svg>

<g id="navigator" transform="translate(0 0)" fill="#404254">
  <rect fill="#f2f5e9" fill-opacity="0.5" stroke="#606060" stroke-width=".5" x="0" y="0" width="60" height="60"/>
  <use id="zoomplus" xlink:href="#zoomPlus" x="17" y="9" onmousedown="handleZoom(evt,'in')"/>
  <use id="zoomminus" xlink:href="#zoomMin" x="42" y="9" onmousedown="handleZoom(evt,'out')"/>
  <use id="reset" xlink:href="#resetDef" x="30" y="36" onmousedown="handleReset()"/>
   <use id="arrowup" xlink:href="#arrowUp" x="0" y="0" onmousedown="handlePan(0,-1)"/>
  <use id="arrowright" xlink:href="#arrowRight" x="0" y="0" onmousedown="handlePan(1,0)"/>
  <use id="arrowdown" xlink:href="#arrowDown" x="0" y="0" onmousedown="handlePan(0,1)"/>
  <use id="arrowleft" xlink:href="#arrowLeft" x="0" y="0" onmousedown="handlePan(-1,0)"/>
</g>
<svg viewBox="0 0 15 15" width="100%" height="30px" preserveAspectRatio="xMaxYMin meet">
 <g id="arrow_out" transform="scale(0.3 0.3)">
  <a xlink:href="classlogs_1_1FileWriter__coll__graph_org.svg" target="_base">
   <rect id="button" ry="5" rx="5" y="6" x="6" height="38" width="38"
        fill="#f2f5e9" fill-opacity="0.5" stroke="#606060" stroke-width="1.0"/>
   <path id="arrow"
     d="M 11.500037,31.436501 C 11.940474,20.09759 22.043105,11.32322 32.158766,21.979434 L 37.068811,17.246167 C 37.068811,17.246167 37.088388,32 37.088388,32 L 22.160133,31.978069 C 22.160133,31.978069 26.997745,27.140456 26.997745,27.140456 C 18.528582,18.264221 13.291696,25.230495 11.500037,31.436501 z"
     style="fill:#404040;"/>
  </a>
 </g>
</svg>

<style type='text/css'>
<![CDATA[
[data-mouse-over-selected='false'] { opacity: 0.7; }
[data-mouse-over-selected='true']  { opacity: 1.0; }
]]>
</style>
<script type="application/ecmascript"><![CDATA[
document.addEventListener('DOMContentLoaded', (event) => {
  highlightEdges();
  highlightAdjacentNodes();
});
]]></script>
</svg>
