<?xml version="1.0" encoding="UTF-8" standalone="no"?>
<!DOCTYPE svg PUBLIC "-//W3C//DTD SVG 1.1//EN"
 "http://www.w3.org/Graphics/SVG/1.1/DTD/svg11.dtd">
<!-- Generated by graphviz version 8.1.0 (20230707.0739)
 -->
<!-- Title: logs::OutputStreamWriter Pages: 1 -->
<svg width="468pt" height="961pt"
 viewBox="0.00 0.00 468.00 961.00" xmlns="http://www.w3.org/2000/svg" xmlns:xlink="http://www.w3.org/1999/xlink">
<g id="graph0" class="graph" transform="scale(1 1) rotate(0) translate(4 957)">
<title>logs::OutputStreamWriter</title>
<!-- Node1 -->
<g id="Node000001" class="node">
<title>Node1</title>
<g id="a_Node000001"><a xlink:title=" ">
<polygon fill="#999999" stroke="none" points="295,-321 139,-321 139,0 295,0 295,-321"/>
<text text-anchor="start" x="161.88" y="-307.5" font-family="Helvetica,sans-Serif" font-size="10.00">logs::OutputStreamWriter</text>
<text text-anchor="start" x="144.5" y="-288.5" font-family="Helvetica,sans-Serif" font-size="10.00">&#45;</text>
<text text-anchor="start" x="153" y="-288.5" font-family="Helvetica,sans-Serif" font-size="10.00">std::ostream &amp; _out</text>
<text text-anchor="start" x="144.5" y="-269.5" font-family="Helvetica,sans-Serif" font-size="10.00">&#45;</text>
<text text-anchor="start" x="153" y="-269.5" font-family="Helvetica,sans-Serif" font-size="10.00">std::string const _name</text>
<text text-anchor="start" x="143" y="-250.5" font-family="Helvetica,sans-Serif" font-size="10.00">+</text>
<text text-anchor="start" x="153" y="-250.5" font-family="Helvetica,sans-Serif" font-size="10.00">core::SubscriptionStatus</text>
<text text-anchor="start" x="153" y="-235.5" font-family="Helvetica,sans-Serif" font-size="10.00"> onEvent(bulk::BulkEvent</text>
<text text-anchor="start" x="153" y="-220.5" font-family="Helvetica,sans-Serif" font-size="10.00"> const &amp;event) override</text>
<text text-anchor="start" x="143" y="-201.5" font-family="Helvetica,sans-Serif" font-size="10.00">+</text>
<text text-anchor="start" x="153" y="-201.5" font-family="Helvetica,sans-Serif" font-size="10.00">core::SubscriptionStatus</text>
<text text-anchor="start" x="153" y="-186.5" font-family="Helvetica,sans-Serif" font-size="10.00"> onEvent(cmd::TokenEvent</text>
<text text-anchor="start" x="153" y="-171.5" font-family="Helvetica,sans-Serif" font-size="10.00"> const &amp;event) override</text>
<text text-anchor="start" x="143" y="-152.5" font-family="Helvetica,sans-Serif" font-size="10.00">+</text>
<text text-anchor="start" x="153" y="-152.5" font-family="Helvetica,sans-Serif" font-size="10.00">static std::shared</text>
<text text-anchor="start" x="153" y="-137.5" font-family="Helvetica,sans-Serif" font-size="10.00">_ptr&lt; OutputStreamWriter</text>
<text text-anchor="start" x="153" y="-122.5" font-family="Helvetica,sans-Serif" font-size="10.00"> &gt; create(std::ostream</text>
<text text-anchor="start" x="153" y="-107.5" font-family="Helvetica,sans-Serif" font-size="10.00"> &amp;out, std::string_view</text>
<text text-anchor="start" x="153" y="-92.5" font-family="Helvetica,sans-Serif" font-size="10.00"> local_name=&quot;&quot;)</text>
<text text-anchor="start" x="144.5" y="-73.5" font-family="Helvetica,sans-Serif" font-size="10.00">&#45;</text>
<text text-anchor="start" x="153" y="-73.5" font-family="Helvetica,sans-Serif" font-size="10.00">OutputStreamWriter</text>
<text text-anchor="start" x="153" y="-58.5" font-family="Helvetica,sans-Serif" font-size="10.00">(std::ostream &amp;out,</text>
<text text-anchor="start" x="153" y="-43.5" font-family="Helvetica,sans-Serif" font-size="10.00"> std::string_view local_name)</text>
<text text-anchor="start" x="144.5" y="-24.5" font-family="Helvetica,sans-Serif" font-size="10.00">&#45;</text>
<text text-anchor="start" x="153" y="-24.5" font-family="Helvetica,sans-Serif" font-size="10.00">std::string getSubscriber</text>
<text text-anchor="start" x="153" y="-9.5" font-family="Helvetica,sans-Serif" font-size="10.00">Name() const noexcept override</text>
<polygon fill="#666666" stroke="#666666" points="139,-300 139,-300 295,-300 295,-300 139,-300"/>
<polygon fill="#666666" stroke="#666666" points="139,-262 139,-262 151,-262 151,-262 139,-262"/>
<polygon fill="#666666" stroke="#666666" points="151,-262 151,-262 295,-262 295,-262 151,-262"/>
<polygon fill="none" stroke="#666666" points="139,0 139,-321 295,-321 295,0 139,0"/>
</a>
</g>
</g>
<!-- Node2 -->
<g id="Node000002" class="node">
<title>Node2</title>
<g id="a_Node000002"><a xlink:href="structcore_1_1SubscriberBase.html" target="_top" xlink:title=" ">
<polygon fill="white" stroke="none" points="134,-630 0,-630 0,-358 134,-358 134,-630"/>
<text text-anchor="start" x="20.12" y="-616.5" font-family="Helvetica,sans-Serif" font-size="10.00">core::SubscriberBase</text>
<text text-anchor="start" x="20.5" y="-601.5" font-family="Helvetica,sans-Serif" font-size="10.00">&lt; cmd::TokenEvent &gt;</text>
<text text-anchor="start" x="5.5" y="-582.5" font-family="Helvetica,sans-Serif" font-size="10.00">&#45;</text>
<text text-anchor="start" x="14" y="-582.5" font-family="Helvetica,sans-Serif" font-size="10.00">std::string _id</text>
<text text-anchor="start" x="4" y="-563.5" font-family="Helvetica,sans-Serif" font-size="10.00">+</text>
<text text-anchor="start" x="14" y="-563.5" font-family="Helvetica,sans-Serif" font-size="10.00">virtual ~SubscriberBase</text>
<text text-anchor="start" x="14" y="-548.5" font-family="Helvetica,sans-Serif" font-size="10.00">()=default</text>
<text text-anchor="start" x="4" y="-529.5" font-family="Helvetica,sans-Serif" font-size="10.00">+</text>
<text text-anchor="start" x="14" y="-529.5" font-family="Helvetica,sans-Serif" font-size="10.00">virtual SubscriptionStatus</text>
<text text-anchor="start" x="14" y="-514.5" font-family="Helvetica,sans-Serif" font-size="10.00"> onEvent(cmd::TokenEvent</text>
<text text-anchor="start" x="14" y="-499.5" font-family="Helvetica,sans-Serif" font-size="10.00"> const &amp;event)=0</text>
<text text-anchor="start" x="4" y="-480.5" font-family="Helvetica,sans-Serif" font-size="10.00">+</text>
<text text-anchor="start" x="14" y="-480.5" font-family="Helvetica,sans-Serif" font-size="10.00">virtual SubscriptionStatus</text>
<text text-anchor="start" x="14" y="-465.5" font-family="Helvetica,sans-Serif" font-size="10.00"> getSubscriptionStatus()</text>
<text text-anchor="start" x="14" y="-450.5" font-family="Helvetica,sans-Serif" font-size="10.00"> noexcept</text>
<text text-anchor="start" x="4" y="-431.5" font-family="Helvetica,sans-Serif" font-size="10.00">+</text>
<text text-anchor="start" x="14" y="-431.5" font-family="Helvetica,sans-Serif" font-size="10.00">virtual std::string</text>
<text text-anchor="start" x="14" y="-416.5" font-family="Helvetica,sans-Serif" font-size="10.00"> getSubscriberID() final</text>
<text text-anchor="start" x="4.38" y="-397.5" font-family="Helvetica,sans-Serif" font-size="10.00">#</text>
<text text-anchor="start" x="14" y="-397.5" font-family="Helvetica,sans-Serif" font-size="10.00">virtual std::string</text>
<text text-anchor="start" x="14" y="-382.5" font-family="Helvetica,sans-Serif" font-size="10.00"> getSubscriberName()</text>
<text text-anchor="start" x="14" y="-367.5" font-family="Helvetica,sans-Serif" font-size="10.00"> const noexcept</text>
<polygon fill="#666666" stroke="#666666" points="0,-594 0,-594 134,-594 134,-594 0,-594"/>
<polygon fill="#666666" stroke="#666666" points="0,-575 0,-575 12,-575 12,-575 0,-575"/>
<polygon fill="#666666" stroke="#666666" points="12,-575 12,-575 134,-575 134,-575 12,-575"/>
<polygon fill="none" stroke="#666666" points="0,-358 0,-630 134,-630 134,-358 0,-358"/>
</a>
</g>
</g>
<!-- Node2&#45;&gt;Node1 -->
<g id="edge1_Node000001_Node000002" class="edge">
<title>Node2&#45;&gt;Node1</title>
<g id="a_edge1_Node000001_Node000002"><a xlink:title=" ">
<path fill="none" stroke="#63b8ff" d="M132.46,-348.34C136.57,-339.24 140.73,-330.06 144.87,-320.91"/>
<polygon fill="none" stroke="#63b8ff" points="128.94,-346.61 128.01,-357.17 135.32,-349.5 128.94,-346.61"/>
</a>
</g>
</g>
<!-- Node3 -->
<g id="Node000003" class="node">
<title>Node3</title>
<g id="a_Node000003"><a xlink:href="structcore_1_1SubscriberBase.html" target="_top" xlink:title=" ">
<polygon fill="white" stroke="none" points="207,-953 75,-953 75,-681 207,-681 207,-953"/>
<text text-anchor="start" x="94.12" y="-939.5" font-family="Helvetica,sans-Serif" font-size="10.00">core::SubscriberBase</text>
<text text-anchor="start" x="109.12" y="-924.5" font-family="Helvetica,sans-Serif" font-size="10.00">&lt; EventType &gt;</text>
<text text-anchor="start" x="80.5" y="-905.5" font-family="Helvetica,sans-Serif" font-size="10.00">&#45;</text>
<text text-anchor="start" x="89" y="-905.5" font-family="Helvetica,sans-Serif" font-size="10.00">std::string _id</text>
<text text-anchor="start" x="79" y="-886.5" font-family="Helvetica,sans-Serif" font-size="10.00">+</text>
<text text-anchor="start" x="89" y="-886.5" font-family="Helvetica,sans-Serif" font-size="10.00">virtual ~SubscriberBase</text>
<text text-anchor="start" x="89" y="-871.5" font-family="Helvetica,sans-Serif" font-size="10.00">()=default</text>
<text text-anchor="start" x="79" y="-852.5" font-family="Helvetica,sans-Serif" font-size="10.00">+</text>
<text text-anchor="start" x="89" y="-852.5" font-family="Helvetica,sans-Serif" font-size="10.00">virtual SubscriptionStatus</text>
<text text-anchor="start" x="89" y="-837.5" font-family="Helvetica,sans-Serif" font-size="10.00"> onEvent(EventType const</text>
<text text-anchor="start" x="89" y="-822.5" font-family="Helvetica,sans-Serif" font-size="10.00"> &amp;event)=0</text>
<text text-anchor="start" x="79" y="-803.5" font-family="Helvetica,sans-Serif" font-size="10.00">+</text>
<text text-anchor="start" x="89" y="-803.5" font-family="Helvetica,sans-Serif" font-size="10.00">virtual SubscriptionStatus</text>
<text text-anchor="start" x="89" y="-788.5" font-family="Helvetica,sans-Serif" font-size="10.00"> getSubscriptionStatus()</text>
<text text-anchor="start" x="89" y="-773.5" font-family="Helvetica,sans-Serif" font-size="10.00"> noexcept</text>
<text text-anchor="start" x="79" y="-754.5" font-family="Helvetica,sans-Serif" font-size="10.00">+</text>
<text text-anchor="start" x="89" y="-754.5" font-family="Helvetica,sans-Serif" font-size="10.00">virtual std::string</text>
<text text-anchor="start" x="89" y="-739.5" font-family="Helvetica,sans-Serif" font-size="10.00"> getSubscriberID() final</text>
<text text-anchor="start" x="79.38" y="-720.5" font-family="Helvetica,sans-Serif" font-size="10.00">#</text>
<text text-anchor="start" x="89" y="-720.5" font-family="Helvetica,sans-Serif" font-size="10.00">virtual std::string</text>
<text text-anchor="start" x="89" y="-705.5" font-family="Helvetica,sans-Serif" font-size="10.00"> getSubscriberName()</text>
<text text-anchor="start" x="89" y="-690.5" font-family="Helvetica,sans-Serif" font-size="10.00"> const noexcept</text>
<polygon fill="#666666" stroke="#666666" points="75,-917 75,-917 207,-917 207,-917 75,-917"/>
<polygon fill="#666666" stroke="#666666" points="75,-898 75,-898 87,-898 87,-898 75,-898"/>
<polygon fill="#666666" stroke="#666666" points="87,-898 87,-898 207,-898 207,-898 87,-898"/>
<polygon fill="none" stroke="#666666" points="75,-681 75,-953 207,-953 207,-681 75,-681"/>
</a>
</g>
</g>
<!-- Node3&#45;&gt;Node2 -->
<g id="edge2_Node000002_Node000003" class="edge">
<title>Node3&#45;&gt;Node2</title>
<g id="a_edge2_Node000002_Node000003"><a xlink:title=" ">
<path fill="none" stroke="orange" d="M92.83,-670.63C92.2,-668.07 91.59,-665.53 91,-663 88.49,-652.24 86.21,-641.03 84.13,-629.72"/>
<polygon fill="orange" stroke="orange" points="89.67,-671.38 95.54,-680.2 96.45,-669.65 89.67,-671.38"/>
</a>
</g>
<text text-anchor="middle" x="139" y="-653.5" font-family="Helvetica,sans-Serif" font-size="10.00" fill="grey"> &lt; cmd::TokenEvent &gt;</text>
</g>
<!-- Node4 -->
<g id="Node000004" class="node">
<title>Node4</title>
<g id="a_Node000004"><a xlink:href="structcore_1_1SubscriberBase.html" target="_top" xlink:title=" ">
<polygon fill="white" stroke="none" points="282,-630 152,-630 152,-358 282,-358 282,-630"/>
<text text-anchor="start" x="170.12" y="-616.5" font-family="Helvetica,sans-Serif" font-size="10.00">core::SubscriberBase</text>
<text text-anchor="start" x="173.88" y="-601.5" font-family="Helvetica,sans-Serif" font-size="10.00">&lt; bulk::BulkEvent &gt;</text>
<text text-anchor="start" x="157.5" y="-582.5" font-family="Helvetica,sans-Serif" font-size="10.00">&#45;</text>
<text text-anchor="start" x="166" y="-582.5" font-family="Helvetica,sans-Serif" font-size="10.00">std::string _id</text>
<text text-anchor="start" x="156" y="-563.5" font-family="Helvetica,sans-Serif" font-size="10.00">+</text>
<text text-anchor="start" x="166" y="-563.5" font-family="Helvetica,sans-Serif" font-size="10.00">virtual ~SubscriberBase</text>
<text text-anchor="start" x="166" y="-548.5" font-family="Helvetica,sans-Serif" font-size="10.00">()=default</text>
<text text-anchor="start" x="156" y="-529.5" font-family="Helvetica,sans-Serif" font-size="10.00">+</text>
<text text-anchor="start" x="166" y="-529.5" font-family="Helvetica,sans-Serif" font-size="10.00">virtual SubscriptionStatus</text>
<text text-anchor="start" x="166" y="-514.5" font-family="Helvetica,sans-Serif" font-size="10.00"> onEvent(bulk::BulkEvent</text>
<text text-anchor="start" x="166" y="-499.5" font-family="Helvetica,sans-Serif" font-size="10.00"> const &amp;event)=0</text>
<text text-anchor="start" x="156" y="-480.5" font-family="Helvetica,sans-Serif" font-size="10.00">+</text>
<text text-anchor="start" x="166" y="-480.5" font-family="Helvetica,sans-Serif" font-size="10.00">virtual SubscriptionStatus</text>
<text text-anchor="start" x="166" y="-465.5" font-family="Helvetica,sans-Serif" font-size="10.00"> getSubscriptionStatus()</text>
<text text-anchor="start" x="166" y="-450.5" font-family="Helvetica,sans-Serif" font-size="10.00"> noexcept</text>
<text text-anchor="start" x="156" y="-431.5" font-family="Helvetica,sans-Serif" font-size="10.00">+</text>
<text text-anchor="start" x="166" y="-431.5" font-family="Helvetica,sans-Serif" font-size="10.00">virtual std::string</text>
<text text-anchor="start" x="166" y="-416.5" font-family="Helvetica,sans-Serif" font-size="10.00"> getSubscriberID() final</text>
<text text-anchor="start" x="156.38" y="-397.5" font-family="Helvetica,sans-Serif" font-size="10.00">#</text>
<text text-anchor="start" x="166" y="-397.5" font-family="Helvetica,sans-Serif" font-size="10.00">virtual std::string</text>
<text text-anchor="start" x="166" y="-382.5" font-family="Helvetica,sans-Serif" font-size="10.00"> getSubscriberName()</text>
<text text-anchor="start" x="166" y="-367.5" font-family="Helvetica,sans-Serif" font-size="10.00"> const noexcept</text>
<polygon fill="#666666" stroke="#666666" points="152,-594 152,-594 282,-594 282,-594 152,-594"/>
<polygon fill="#666666" stroke="#666666" points="152,-575 152,-575 164,-575 164,-575 152,-575"/>
<polygon fill="#666666" stroke="#666666" points="164,-575 164,-575 282,-575 282,-575 164,-575"/>
<polygon fill="none" stroke="#666666" points="152,-358 152,-630 282,-630 282,-358 152,-358"/>
</a>
</g>
</g>
<!-- Node3&#45;&gt;Node4 -->
<g id="edge4_Node000004_Node000003" class="edge">
<title>Node3&#45;&gt;Node4</title>
<g id="a_edge4_Node000004_Node000003"><a xlink:title=" ">
<path fill="none" stroke="orange" d="M185.16,-670.57C185.79,-668.03 186.4,-665.5 187,-663 189.58,-652.19 192.05,-640.95 194.38,-629.62"/>
<polygon fill="orange" stroke="orange" points="181.56,-669.52 182.49,-680.07 188.34,-671.24 181.56,-669.52"/>
</a>
</g>
<text text-anchor="middle" x="235.62" y="-653.5" font-family="Helvetica,sans-Serif" font-size="10.00" fill="grey"> &lt; bulk::BulkEvent &gt;</text>
</g>
<!-- Node4&#45;&gt;Node1 -->
<g id="edge3_Node000001_Node000004" class="edge">
<title>Node4&#45;&gt;Node1</title>
<g id="a_edge3_Node000001_Node000004"><a xlink:title=" ">
<path fill="none" stroke="#63b8ff" d="M217,-347.18C217,-338.46 217,-329.67 217,-320.91"/>
<polygon fill="none" stroke="#63b8ff" points="213.5,-347.17 217,-357.17 220.5,-347.17 213.5,-347.17"/>
</a>
</g>
</g>
<!-- Node5 -->
<g id="Node000005" class="node">
<title>Node5</title>
<g id="a_Node000005"><a xlink:title=" ">
<polygon fill="white" stroke="none" points="460,-532 300,-532 300,-456 460,-456 460,-532"/>
<text text-anchor="start" x="305" y="-518.5" font-family="Helvetica,sans-Serif" font-size="10.00">std::enable_shared</text>
<text text-anchor="start" x="305" y="-503.5" font-family="Helvetica,sans-Serif" font-size="10.00">_from_this&lt; OutputStreamWriter &gt;</text>
<text text-anchor="start" x="378.5" y="-484.5" font-family="Helvetica,sans-Serif" font-size="10.00"> </text>
<text text-anchor="start" x="378.5" y="-465.5" font-family="Helvetica,sans-Serif" font-size="10.00"> </text>
<polygon fill="#666666" stroke="#666666" points="300,-496 300,-496 460,-496 460,-496 300,-496"/>
<polygon fill="#666666" stroke="#666666" points="300,-477 300,-477 460,-477 460,-477 300,-477"/>
<polygon fill="none" stroke="#666666" points="300,-456 300,-532 460,-532 460,-456 300,-456"/>
</a>
</g>
</g>
<!-- Node5&#45;&gt;Node1 -->
<g id="edge5_Node000001_Node000005" class="edge">
<title>Node5&#45;&gt;Node1</title>
<g id="a_edge5_Node000001_Node000005"><a xlink:title=" ">
<path fill="none" stroke="#63b8ff" d="M357.29,-446.81C340.91,-413.49 317.75,-366.4 294.97,-320.06"/>
<polygon fill="none" stroke="#63b8ff" points="354.38,-447.83 361.93,-455.26 360.66,-444.74 354.38,-447.83"/>
</a>
</g>
</g>
</g>
</svg>
