<?xml version="1.0" encoding="UTF-8" standalone="no"?>
<!DOCTYPE svg PUBLIC "-//W3C//DTD SVG 1.1//EN"
 "http://www.w3.org/Graphics/SVG/1.1/DTD/svg11.dtd">
<!-- Generated by graphviz version 8.1.0 (20230707.0739)
 -->
<!-- Title: cmd::provider::InputStreamParser Pages: 1 -->
<svg width="167pt" height="1181pt"
 viewBox="0.00 0.00 167.00 1181.00" xmlns="http://www.w3.org/2000/svg" xmlns:xlink="http://www.w3.org/1999/xlink">
<g id="graph0" class="graph" transform="scale(1 1) rotate(0) translate(4 1177)">
<title>cmd::provider::InputStreamParser</title>
<!-- Node1 -->
<g id="Node000001" class="node">
<title>Node1</title>
<g id="a_Node000001"><a xlink:title="Command parser from input stream.">
<polygon fill="#999999" stroke="none" points="153,-329 6,-329 6,0 153,0 153,-329"/>
<text text-anchor="start" x="20.25" y="-315.5" font-family="Helvetica,sans-Serif" font-size="10.00">cmd::provider::InputStream</text>
<text text-anchor="start" x="65.25" y="-300.5" font-family="Helvetica,sans-Serif" font-size="10.00">Parser</text>
<text text-anchor="start" x="11.5" y="-281.5" font-family="Helvetica,sans-Serif" font-size="10.00">&#45;</text>
<text text-anchor="start" x="20" y="-281.5" font-family="Helvetica,sans-Serif" font-size="10.00">std::istream &amp; _in</text>
<text text-anchor="start" x="11.5" y="-262.5" font-family="Helvetica,sans-Serif" font-size="10.00">&#45;</text>
<text text-anchor="start" x="20" y="-262.5" font-family="Helvetica,sans-Serif" font-size="10.00">size_t _index</text>
<text text-anchor="start" x="10" y="-243.5" font-family="Helvetica,sans-Serif" font-size="10.00">+</text>
<text text-anchor="start" x="20" y="-243.5" font-family="Helvetica,sans-Serif" font-size="10.00">InputStreamParser</text>
<text text-anchor="start" x="20" y="-228.5" font-family="Helvetica,sans-Serif" font-size="10.00">(InputStreamParser const</text>
<text text-anchor="start" x="20" y="-213.5" font-family="Helvetica,sans-Serif" font-size="10.00"> &amp;)=delete</text>
<text text-anchor="start" x="10" y="-194.5" font-family="Helvetica,sans-Serif" font-size="10.00">+</text>
<text text-anchor="start" x="20" y="-194.5" font-family="Helvetica,sans-Serif" font-size="10.00">InputStreamParser &amp;</text>
<text text-anchor="start" x="20" y="-179.5" font-family="Helvetica,sans-Serif" font-size="10.00"> operator=(InputStreamParser</text>
<text text-anchor="start" x="20" y="-164.5" font-family="Helvetica,sans-Serif" font-size="10.00"> const &amp;)=delete</text>
<text text-anchor="start" x="10" y="-145.5" font-family="Helvetica,sans-Serif" font-size="10.00">+</text>
<text text-anchor="start" x="20" y="-145.5" font-family="Helvetica,sans-Serif" font-size="10.00">~InputStreamParser()</text>
<text text-anchor="start" x="10" y="-126.5" font-family="Helvetica,sans-Serif" font-size="10.00">+</text>
<text text-anchor="start" x="20" y="-126.5" font-family="Helvetica,sans-Serif" font-size="10.00">void run()</text>
<text text-anchor="start" x="10" y="-107.5" font-family="Helvetica,sans-Serif" font-size="10.00">+</text>
<text text-anchor="start" x="20" y="-107.5" font-family="Helvetica,sans-Serif" font-size="10.00">static InputStreamParser</text>
<text text-anchor="start" x="20" y="-92.5" font-family="Helvetica,sans-Serif" font-size="10.00"> &amp; instance()</text>
<text text-anchor="start" x="11.5" y="-73.5" font-family="Helvetica,sans-Serif" font-size="10.00">&#45;</text>
<text text-anchor="start" x="20" y="-73.5" font-family="Helvetica,sans-Serif" font-size="10.00">InputStreamParser</text>
<text text-anchor="start" x="20" y="-58.5" font-family="Helvetica,sans-Serif" font-size="10.00">(std::istream &amp;in=std</text>
<text text-anchor="start" x="20" y="-43.5" font-family="Helvetica,sans-Serif" font-size="10.00">::cin, size_t index_from</text>
<text text-anchor="start" x="20" y="-28.5" font-family="Helvetica,sans-Serif" font-size="10.00">=0) noexcept</text>
<text text-anchor="start" x="11.5" y="-9.5" font-family="Helvetica,sans-Serif" font-size="10.00">&#45;</text>
<text text-anchor="start" x="20" y="-9.5" font-family="Helvetica,sans-Serif" font-size="10.00">Token advance()</text>
<polygon fill="#666666" stroke="#666666" points="6,-293 6,-293 153,-293 153,-293 6,-293"/>
<polygon fill="#666666" stroke="#666666" points="6,-255 6,-255 18,-255 18,-255 6,-255"/>
<polygon fill="#666666" stroke="#666666" points="18,-255 18,-255 153,-255 153,-255 18,-255"/>
<polygon fill="none" stroke="#666666" points="6,0 6,-329 153,-329 153,0 6,0"/>
</a>
</g>
</g>
<!-- Node2 -->
<g id="Node000002" class="node">
<title>Node2</title>
<g id="a_Node000002"><a xlink:href="classcore_1_1PublisherMixin.html" target="_top" xlink:title=" ">
<polygon fill="white" stroke="none" points="159,-744 0,-744 0,-366 159,-366 159,-744"/>
<text text-anchor="start" x="35.25" y="-730.5" font-family="Helvetica,sans-Serif" font-size="10.00">core::PublisherMixin</text>
<text text-anchor="start" x="45.38" y="-715.5" font-family="Helvetica,sans-Serif" font-size="10.00">&lt; TokenEvent &gt;</text>
<text text-anchor="start" x="5.5" y="-696.5" font-family="Helvetica,sans-Serif" font-size="10.00">&#45;</text>
<text text-anchor="start" x="14" y="-696.5" font-family="Helvetica,sans-Serif" font-size="10.00">std::list&lt; VPtrSubscriber</text>
<text text-anchor="start" x="14" y="-681.5" font-family="Helvetica,sans-Serif" font-size="10.00"> &gt; _subs</text>
<text text-anchor="start" x="4" y="-662.5" font-family="Helvetica,sans-Serif" font-size="10.00">+</text>
<text text-anchor="start" x="14" y="-662.5" font-family="Helvetica,sans-Serif" font-size="10.00">virtual ~PublisherMixin</text>
<text text-anchor="start" x="14" y="-647.5" font-family="Helvetica,sans-Serif" font-size="10.00">()=default</text>
<text text-anchor="start" x="4" y="-628.5" font-family="Helvetica,sans-Serif" font-size="10.00">+</text>
<text text-anchor="start" x="14" y="-628.5" font-family="Helvetica,sans-Serif" font-size="10.00">void subscribe(SPtrSubscriber</text>
<text text-anchor="start" x="14" y="-613.5" font-family="Helvetica,sans-Serif" font-size="10.00"> const &amp;subscriber, bool own)</text>
<text text-anchor="start" x="4" y="-594.5" font-family="Helvetica,sans-Serif" font-size="10.00">+</text>
<text text-anchor="start" x="14" y="-594.5" font-family="Helvetica,sans-Serif" font-size="10.00">void subscribe(SPtrSubscriber</text>
<text text-anchor="start" x="14" y="-579.5" font-family="Helvetica,sans-Serif" font-size="10.00"> &amp;&amp;subscriber)</text>
<text text-anchor="start" x="4" y="-560.5" font-family="Helvetica,sans-Serif" font-size="10.00">+</text>
<text text-anchor="start" x="14" y="-560.5" font-family="Helvetica,sans-Serif" font-size="10.00">void unsubscribe(SPtrSubscriber</text>
<text text-anchor="start" x="14" y="-545.5" font-family="Helvetica,sans-Serif" font-size="10.00"> const &amp;subscriber)</text>
<text text-anchor="start" x="4" y="-526.5" font-family="Helvetica,sans-Serif" font-size="10.00">+</text>
<text text-anchor="start" x="14" y="-526.5" font-family="Helvetica,sans-Serif" font-size="10.00">void clear()</text>
<text text-anchor="start" x="4.38" y="-507.5" font-family="Helvetica,sans-Serif" font-size="10.00">#</text>
<text text-anchor="start" x="14" y="-507.5" font-family="Helvetica,sans-Serif" font-size="10.00">PublisherMixin()</text>
<text text-anchor="start" x="4.38" y="-488.5" font-family="Helvetica,sans-Serif" font-size="10.00">#</text>
<text text-anchor="start" x="14" y="-488.5" font-family="Helvetica,sans-Serif" font-size="10.00">void notify(const TokenEvent</text>
<text text-anchor="start" x="14" y="-473.5" font-family="Helvetica,sans-Serif" font-size="10.00"> &amp;event)</text>
<text text-anchor="start" x="5.5" y="-454.5" font-family="Helvetica,sans-Serif" font-size="10.00">&#45;</text>
<text text-anchor="start" x="14" y="-454.5" font-family="Helvetica,sans-Serif" font-size="10.00">std::optional&lt; SPtrSubscriber</text>
<text text-anchor="start" x="14" y="-439.5" font-family="Helvetica,sans-Serif" font-size="10.00"> &gt; _getSPtrSubscriber(std</text>
<text text-anchor="start" x="14" y="-424.5" font-family="Helvetica,sans-Serif" font-size="10.00">::list&lt; VPtrSubscriber &gt;::</text>
<text text-anchor="start" x="14" y="-409.5" font-family="Helvetica,sans-Serif" font-size="10.00">iterator &amp;it)</text>
<text text-anchor="start" x="5.5" y="-390.5" font-family="Helvetica,sans-Serif" font-size="10.00">&#45;</text>
<text text-anchor="start" x="14" y="-390.5" font-family="Helvetica,sans-Serif" font-size="10.00">auto _find(std::string</text>
<text text-anchor="start" x="14" y="-375.5" font-family="Helvetica,sans-Serif" font-size="10.00">_view id)</text>
<polygon fill="#666666" stroke="#666666" points="0,-708 0,-708 159,-708 159,-708 0,-708"/>
<polygon fill="#666666" stroke="#666666" points="0,-674 0,-674 12,-674 12,-674 0,-674"/>
<polygon fill="#666666" stroke="#666666" points="12,-674 12,-674 159,-674 159,-674 12,-674"/>
<polygon fill="none" stroke="#666666" points="0,-366 0,-744 159,-744 159,-366 0,-366"/>
</a>
</g>
</g>
<!-- Node2&#45;&gt;Node1 -->
<g id="edge1_Node000001_Node000002" class="edge">
<title>Node2&#45;&gt;Node1</title>
<g id="a_edge1_Node000001_Node000002"><a xlink:title=" ">
<path fill="none" stroke="#63b8ff" d="M79.5,-355.26C79.5,-346.44 79.5,-337.64 79.5,-328.92"/>
<polygon fill="none" stroke="#63b8ff" points="76,-355.01 79.5,-365.01 83,-355.01 76,-355.01"/>
</a>
</g>
</g>
<!-- Node3 -->
<g id="Node000003" class="node">
<title>Node3</title>
<g id="a_Node000003"><a xlink:href="classcore_1_1PublisherMixin.html" target="_top" xlink:title=" ">
<polygon fill="white" stroke="none" points="159,-1173 0,-1173 0,-795 159,-795 159,-1173"/>
<text text-anchor="start" x="35.25" y="-1159.5" font-family="Helvetica,sans-Serif" font-size="10.00">core::PublisherMixin</text>
<text text-anchor="start" x="47.62" y="-1144.5" font-family="Helvetica,sans-Serif" font-size="10.00">&lt; EventType &gt;</text>
<text text-anchor="start" x="5.5" y="-1125.5" font-family="Helvetica,sans-Serif" font-size="10.00">&#45;</text>
<text text-anchor="start" x="14" y="-1125.5" font-family="Helvetica,sans-Serif" font-size="10.00">std::list&lt; VPtrSubscriber</text>
<text text-anchor="start" x="14" y="-1110.5" font-family="Helvetica,sans-Serif" font-size="10.00"> &gt; _subs</text>
<text text-anchor="start" x="4" y="-1091.5" font-family="Helvetica,sans-Serif" font-size="10.00">+</text>
<text text-anchor="start" x="14" y="-1091.5" font-family="Helvetica,sans-Serif" font-size="10.00">virtual ~PublisherMixin</text>
<text text-anchor="start" x="14" y="-1076.5" font-family="Helvetica,sans-Serif" font-size="10.00">()=default</text>
<text text-anchor="start" x="4" y="-1057.5" font-family="Helvetica,sans-Serif" font-size="10.00">+</text>
<text text-anchor="start" x="14" y="-1057.5" font-family="Helvetica,sans-Serif" font-size="10.00">void subscribe(SPtrSubscriber</text>
<text text-anchor="start" x="14" y="-1042.5" font-family="Helvetica,sans-Serif" font-size="10.00"> const &amp;subscriber, bool own)</text>
<text text-anchor="start" x="4" y="-1023.5" font-family="Helvetica,sans-Serif" font-size="10.00">+</text>
<text text-anchor="start" x="14" y="-1023.5" font-family="Helvetica,sans-Serif" font-size="10.00">void subscribe(SPtrSubscriber</text>
<text text-anchor="start" x="14" y="-1008.5" font-family="Helvetica,sans-Serif" font-size="10.00"> &amp;&amp;subscriber)</text>
<text text-anchor="start" x="4" y="-989.5" font-family="Helvetica,sans-Serif" font-size="10.00">+</text>
<text text-anchor="start" x="14" y="-989.5" font-family="Helvetica,sans-Serif" font-size="10.00">void unsubscribe(SPtrSubscriber</text>
<text text-anchor="start" x="14" y="-974.5" font-family="Helvetica,sans-Serif" font-size="10.00"> const &amp;subscriber)</text>
<text text-anchor="start" x="4" y="-955.5" font-family="Helvetica,sans-Serif" font-size="10.00">+</text>
<text text-anchor="start" x="14" y="-955.5" font-family="Helvetica,sans-Serif" font-size="10.00">void clear()</text>
<text text-anchor="start" x="4.38" y="-936.5" font-family="Helvetica,sans-Serif" font-size="10.00">#</text>
<text text-anchor="start" x="14" y="-936.5" font-family="Helvetica,sans-Serif" font-size="10.00">PublisherMixin()</text>
<text text-anchor="start" x="4.38" y="-917.5" font-family="Helvetica,sans-Serif" font-size="10.00">#</text>
<text text-anchor="start" x="14" y="-917.5" font-family="Helvetica,sans-Serif" font-size="10.00">void notify(const EventType</text>
<text text-anchor="start" x="14" y="-902.5" font-family="Helvetica,sans-Serif" font-size="10.00"> &amp;event)</text>
<text text-anchor="start" x="5.5" y="-883.5" font-family="Helvetica,sans-Serif" font-size="10.00">&#45;</text>
<text text-anchor="start" x="14" y="-883.5" font-family="Helvetica,sans-Serif" font-size="10.00">std::optional&lt; SPtrSubscriber</text>
<text text-anchor="start" x="14" y="-868.5" font-family="Helvetica,sans-Serif" font-size="10.00"> &gt; _getSPtrSubscriber(std</text>
<text text-anchor="start" x="14" y="-853.5" font-family="Helvetica,sans-Serif" font-size="10.00">::list&lt; VPtrSubscriber &gt;::</text>
<text text-anchor="start" x="14" y="-838.5" font-family="Helvetica,sans-Serif" font-size="10.00">iterator &amp;it)</text>
<text text-anchor="start" x="5.5" y="-819.5" font-family="Helvetica,sans-Serif" font-size="10.00">&#45;</text>
<text text-anchor="start" x="14" y="-819.5" font-family="Helvetica,sans-Serif" font-size="10.00">auto _find(std::string</text>
<text text-anchor="start" x="14" y="-804.5" font-family="Helvetica,sans-Serif" font-size="10.00">_view id)</text>
<polygon fill="#666666" stroke="#666666" points="0,-1137 0,-1137 159,-1137 159,-1137 0,-1137"/>
<polygon fill="#666666" stroke="#666666" points="0,-1103 0,-1103 12,-1103 12,-1103 0,-1103"/>
<polygon fill="#666666" stroke="#666666" points="12,-1103 12,-1103 159,-1103 159,-1103 12,-1103"/>
<polygon fill="none" stroke="#666666" points="0,-795 0,-1173 159,-1173 159,-795 0,-795"/>
</a>
</g>
</g>
<!-- Node3&#45;&gt;Node2 -->
<g id="edge2_Node000002_Node000003" class="edge">
<title>Node3&#45;&gt;Node2</title>
<g id="a_edge2_Node000002_Node000003"><a xlink:title=" ">
<path fill="none" stroke="orange" d="M79.5,-784.3C79.5,-770.83 79.5,-757.27 79.5,-743.86"/>
<polygon fill="orange" stroke="orange" points="76,-784.09 79.5,-794.09 83,-784.09 76,-784.09"/>
</a>
</g>
<text text-anchor="middle" x="115.12" y="-767.5" font-family="Helvetica,sans-Serif" font-size="10.00" fill="grey"> &lt; TokenEvent &gt;</text>
</g>
</g>
</svg>
