<?xml version="1.0" encoding="UTF-8" standalone="no"?>
<!DOCTYPE svg PUBLIC "-//W3C//DTD SVG 1.1//EN"
 "http://www.w3.org/Graphics/SVG/1.1/DTD/svg11.dtd">
<!-- Generated by graphviz version 8.1.0 (20230707.0739)
 -->
<!-- Title: cmd::provider::InputStreamParser::run Pages: 1 -->
<svg width="473pt" height="115pt"
 viewBox="0.00 0.00 473.25 114.50" xmlns="http://www.w3.org/2000/svg" xmlns:xlink="http://www.w3.org/1999/xlink">
<g id="graph0" class="graph" transform="scale(1 1) rotate(0) translate(4 110.5)">
<title>cmd::provider::InputStreamParser::run</title>
<!-- Node1 -->
<g id="Node000001" class="node">
<title>Node1</title>
<g id="a_Node000001"><a xlink:title=" ">
<polygon fill="#999999" stroke="#666666" points="134.5,-66 0,-66 0,-28 134.5,-28 134.5,-66"/>
<text text-anchor="start" x="8" y="-52.5" font-family="Helvetica,sans-Serif" font-size="10.00">cmd::provider::InputStream</text>
<text text-anchor="middle" x="67.25" y="-37.5" font-family="Helvetica,sans-Serif" font-size="10.00">Parser::run</text>
</a>
</g>
</g>
<!-- Node2 -->
<g id="Node000002" class="node">
<title>Node2</title>
<g id="a_Node000002"><a xlink:href="classcmd_1_1provider_1_1InputStreamParser.html#a383e3dafa0cde3d6cedce8f64a139695" target="_top" xlink:title=" ">
<polygon fill="white" stroke="#666666" points="305,-94 170.5,-94 170.5,-56 305,-56 305,-94"/>
<text text-anchor="start" x="178.5" y="-80.5" font-family="Helvetica,sans-Serif" font-size="10.00">cmd::provider::InputStream</text>
<text text-anchor="middle" x="237.75" y="-65.5" font-family="Helvetica,sans-Serif" font-size="10.00">Parser::advance</text>
</a>
</g>
</g>
<!-- Node1&#45;&gt;Node2 -->
<g id="edge1_Node000001_Node000002" class="edge">
<title>Node1&#45;&gt;Node2</title>
<g id="a_edge1_Node000001_Node000002"><a xlink:title=" ">
<path fill="none" stroke="#63b8ff" d="M134.85,-58.07C142.9,-59.41 151.19,-60.78 159.39,-62.14"/>
<polygon fill="#63b8ff" stroke="#63b8ff" points="158.65,-65.74 169.09,-63.92 159.8,-58.83 158.65,-65.74"/>
</a>
</g>
</g>
<!-- Node7 -->
<g id="Node000007" class="node">
<title>Node7</title>
<g id="a_Node000007"><a xlink:href="classcore_1_1PublisherMixin.html#a18252a76064e49d5ad2c3a7e80e1afca" target="_top" xlink:title=" ">
<polygon fill="white" stroke="#666666" points="294.88,-38 180.62,-38 180.62,0 294.88,0 294.88,-38"/>
<text text-anchor="start" x="188.62" y="-24.5" font-family="Helvetica,sans-Serif" font-size="10.00">core::PublisherMixin</text>
<text text-anchor="middle" x="237.75" y="-9.5" font-family="Helvetica,sans-Serif" font-size="10.00">&lt; TokenEvent &gt;::notify</text>
</a>
</g>
</g>
<!-- Node1&#45;&gt;Node7 -->
<g id="edge6_Node000001_Node000007" class="edge">
<title>Node1&#45;&gt;Node7</title>
<g id="a_edge6_Node000001_Node000007"><a xlink:title=" ">
<path fill="none" stroke="#63b8ff" d="M134.85,-35.93C146.21,-34.05 158.02,-32.08 169.4,-30.19"/>
<polygon fill="#63b8ff" stroke="#63b8ff" points="169.86,-33.5 179.15,-28.4 168.72,-26.59 169.86,-33.5"/>
</a>
</g>
</g>
<!-- Node3 -->
<g id="Node000003" class="node">
<title>Node3</title>
<g id="a_Node000003"><a xlink:href="str__utils_8hpp.html#a86929e5a9d17a6a6a9199ed166538ea7" target="_top" xlink:title=" ">
<polygon fill="white" stroke="#666666" points="393,-106.5 341,-106.5 341,-83.5 393,-83.5 393,-106.5"/>
<text text-anchor="middle" x="367" y="-93" font-family="Helvetica,sans-Serif" font-size="10.00">to_lower</text>
</a>
</g>
</g>
<!-- Node2&#45;&gt;Node3 -->
<g id="edge2_Node000002_Node000003" class="edge">
<title>Node2&#45;&gt;Node3</title>
<g id="a_edge2_Node000002_Node000003"><a xlink:title=" ">
<path fill="none" stroke="#63b8ff" d="M305.36,-85.47C313.84,-86.8 322.25,-88.12 329.99,-89.34"/>
<polygon fill="#63b8ff" stroke="#63b8ff" points="329.35,-92.94 339.77,-91.04 330.44,-86.02 329.35,-92.94"/>
</a>
</g>
</g>
<!-- Node4 -->
<g id="Node000004" class="node">
<title>Node4</title>
<g id="a_Node000004"><a xlink:href="str__utils_8hpp.html#a12812f4bf3870494fc2b1ddc24f4436f" target="_top" xlink:title=" ">
<polygon fill="white" stroke="#666666" points="383.25,-65.5 350.75,-65.5 350.75,-42.5 383.25,-42.5 383.25,-65.5"/>
<text text-anchor="middle" x="367" y="-52" font-family="Helvetica,sans-Serif" font-size="10.00">trim</text>
</a>
</g>
</g>
<!-- Node2&#45;&gt;Node4 -->
<g id="edge3_Node000002_Node000004" class="edge">
<title>Node2&#45;&gt;Node4</title>
<g id="a_edge3_Node000002_Node000004"><a xlink:title=" ">
<path fill="none" stroke="#63b8ff" d="M305.36,-64.01C317.46,-62.01 329.42,-60.04 339.47,-58.38"/>
<polygon fill="#63b8ff" stroke="#63b8ff" points="340,-61.67 349.3,-56.59 338.86,-54.77 340,-61.67"/>
</a>
</g>
</g>
<!-- Node5 -->
<g id="Node000005" class="node">
<title>Node5</title>
<g id="a_Node000005"><a xlink:href="str__utils_8hpp.html#a764fb822a1518a1937c49ebde2095dae" target="_top" xlink:title=" ">
<polygon fill="white" stroke="#666666" points="464.5,-86.5 429.75,-86.5 429.75,-63.5 464.5,-63.5 464.5,-86.5"/>
<text text-anchor="middle" x="447.12" y="-73" font-family="Helvetica,sans-Serif" font-size="10.00">ltrim</text>
</a>
</g>
</g>
<!-- Node4&#45;&gt;Node5 -->
<g id="edge4_Node000004_Node000005" class="edge">
<title>Node4&#45;&gt;Node5</title>
<g id="a_edge4_Node000004_Node000005"><a xlink:title=" ">
<path fill="none" stroke="#63b8ff" d="M383.43,-58.15C393.58,-60.88 407.13,-64.52 419.04,-67.72"/>
<polygon fill="#63b8ff" stroke="#63b8ff" points="417.8,-71.28 428.37,-70.5 419.62,-64.52 417.8,-71.28"/>
</a>
</g>
</g>
<!-- Node6 -->
<g id="Node000006" class="node">
<title>Node6</title>
<g id="a_Node000006"><a xlink:href="str__utils_8hpp.html#a5be516a938c0d307178060719c609cab" target="_top" xlink:title=" ">
<polygon fill="white" stroke="#666666" points="465.25,-45.5 429,-45.5 429,-22.5 465.25,-22.5 465.25,-45.5"/>
<text text-anchor="middle" x="447.12" y="-32" font-family="Helvetica,sans-Serif" font-size="10.00">rtrim</text>
</a>
</g>
</g>
<!-- Node4&#45;&gt;Node6 -->
<g id="edge5_Node000004_Node000006" class="edge">
<title>Node4&#45;&gt;Node6</title>
<g id="a_edge5_Node000004_Node000006"><a xlink:title=" ">
<path fill="none" stroke="#63b8ff" d="M383.43,-50.05C393.28,-47.53 406.32,-44.19 417.96,-41.21"/>
<polygon fill="#63b8ff" stroke="#63b8ff" points="418.72,-44.37 427.54,-38.5 416.98,-37.59 418.72,-44.37"/>
</a>
</g>
</g>
</g>
</svg>
