<?xml version="1.0" encoding="UTF-8" standalone="no"?>
<!DOCTYPE svg PUBLIC "-//W3C//DTD SVG 1.1//EN"
 "http://www.w3.org/Graphics/SVG/1.1/DTD/svg11.dtd">
<!-- Generated by graphviz version 8.1.0 (20230707.0739)
 -->
<!-- Title: cmd::provider::InputStreamParser::advance Pages: 1 -->
<svg width="303pt" height="92pt"
 viewBox="0.00 0.00 302.75 92.00" xmlns="http://www.w3.org/2000/svg" xmlns:xlink="http://www.w3.org/1999/xlink">

<svg id="main" version="1.1" xmlns="http://www.w3.org/2000/svg" xmlns:xlink="http://www.w3.org/1999/xlink" xml:space="preserve" onload="init(evt)">
<style type="text/css"><![CDATA[
.node, .edge {opacity: 0.7;}
.node.selected, .edge.selected {opacity: 1;}
.edge:hover path { stroke: red; }
.edge:hover polygon { stroke: red; fill: red; }
]]></style>
<script type="application/ecmascript" xlink:href="svg.min.js"/>
<svg id="graph" class="graph">
<g id="graph0" class="graph" transform="scale(1 1) rotate(0) translate(4 88)">
<title>cmd::provider::InputStreamParser::advance</title>
<!-- Node1 -->
<g id="Node000001" class="node">
<title>Node1</title>
<g id="a_Node000001"><a xlink:title=" ">
<polygon fill="#999999" stroke="#666666" points="134.5,-70.5 0,-70.5 0,-32.5 134.5,-32.5 134.5,-70.5"/>
<text text-anchor="start" x="8" y="-57" font-family="Helvetica,sans-Serif" font-size="10.00">cmd::provider::InputStream</text>
<text text-anchor="middle" x="67.25" y="-42" font-family="Helvetica,sans-Serif" font-size="10.00">Parser::advance</text>
</a>
</g>
</g>
<!-- Node2 -->
<g id="Node000002" class="node">
<title>Node2</title>
<g id="a_Node000002"><a xlink:href="str__utils_8hpp.html#a86929e5a9d17a6a6a9199ed166538ea7" target="_top" xlink:title=" ">
<polygon fill="white" stroke="#666666" points="222.5,-84 170.5,-84 170.5,-61 222.5,-61 222.5,-84"/>
<text text-anchor="middle" x="196.5" y="-70.5" font-family="Helvetica,sans-Serif" font-size="10.00">to_lower</text>
</a>
</g>
</g>
<!-- Node1&#45;&gt;Node2 -->
<g id="edge1_Node000001_Node000002" class="edge">
<title>Node1&#45;&gt;Node2</title>
<g id="a_edge1_Node000001_Node000002"><a xlink:title=" ">
<path fill="none" stroke="#63b8ff" d="M134.86,-62.49C143.34,-63.89 151.75,-65.28 159.49,-66.56"/>
<polygon fill="#63b8ff" stroke="#63b8ff" points="158.84,-70.16 169.27,-68.34 159.98,-63.26 158.84,-70.16"/>
</a>
</g>
</g>
<!-- Node3 -->
<g id="Node000003" class="node">
<title>Node3</title>
<g id="a_Node000003"><a xlink:href="str__utils_8hpp.html#a12812f4bf3870494fc2b1ddc24f4436f" target="_top" xlink:title=" ">
<polygon fill="white" stroke="#666666" points="212.75,-43 180.25,-43 180.25,-20 212.75,-20 212.75,-43"/>
<text text-anchor="middle" x="196.5" y="-29.5" font-family="Helvetica,sans-Serif" font-size="10.00">trim</text>
</a>
</g>
</g>
<!-- Node1&#45;&gt;Node3 -->
<g id="edge2_Node000001_Node000003" class="edge">
<title>Node1&#45;&gt;Node3</title>
<g id="a_edge2_Node000001_Node000003"><a xlink:title=" ">
<path fill="none" stroke="#63b8ff" d="M134.86,-41.03C146.96,-39.13 158.92,-37.25 168.97,-35.67"/>
<polygon fill="#63b8ff" stroke="#63b8ff" points="169.47,-38.98 178.8,-33.97 168.38,-32.06 169.47,-38.98"/>
</a>
</g>
</g>
<!-- Node4 -->
<g id="Node000004" class="node">
<title>Node4</title>
<g id="a_Node000004"><a xlink:href="str__utils_8hpp.html#a764fb822a1518a1937c49ebde2095dae" target="_top" xlink:title=" ">
<polygon fill="white" stroke="#666666" points="294,-64 259.25,-64 259.25,-41 294,-41 294,-64"/>
<text text-anchor="middle" x="276.62" y="-50.5" font-family="Helvetica,sans-Serif" font-size="10.00">ltrim</text>
</a>
</g>
</g>
<!-- Node3&#45;&gt;Node4 -->
<g id="edge3_Node000003_Node000004" class="edge">
<title>Node3&#45;&gt;Node4</title>
<g id="a_edge3_Node000003_Node000004"><a xlink:title=" ">
<path fill="none" stroke="#63b8ff" d="M212.93,-35.65C223.08,-38.38 236.63,-42.02 248.54,-45.22"/>
<polygon fill="#63b8ff" stroke="#63b8ff" points="247.3,-48.78 257.87,-48 249.12,-42.02 247.3,-48.78"/>
</a>
</g>
</g>
<!-- Node5 -->
<g id="Node000005" class="node">
<title>Node5</title>
<g id="a_Node000005"><a xlink:href="str__utils_8hpp.html#a5be516a938c0d307178060719c609cab" target="_top" xlink:title=" ">
<polygon fill="white" stroke="#666666" points="294.75,-23 258.5,-23 258.5,0 294.75,0 294.75,-23"/>
<text text-anchor="middle" x="276.62" y="-9.5" font-family="Helvetica,sans-Serif" font-size="10.00">rtrim</text>
</a>
</g>
</g>
<!-- Node3&#45;&gt;Node5 -->
<g id="edge4_Node000003_Node000005" class="edge">
<title>Node3&#45;&gt;Node5</title>
<g id="a_edge4_Node000003_Node000005"><a xlink:title=" ">
<path fill="none" stroke="#63b8ff" d="M212.93,-27.55C222.78,-25.03 235.82,-21.69 247.46,-18.71"/>
<polygon fill="#63b8ff" stroke="#63b8ff" points="248.22,-21.87 257.04,-16 246.48,-15.09 248.22,-21.87"/>
</a>
</g>
</g>
</g>
</svg>
</svg>

<style type='text/css'>
<![CDATA[
[data-mouse-over-selected='false'] { opacity: 0.7; }
[data-mouse-over-selected='true']  { opacity: 1.0; }
]]>
</style>
<script type="application/ecmascript"><![CDATA[
document.addEventListener('DOMContentLoaded', (event) => {
  highlightEdges();
  highlightAdjacentNodes();
});
]]></script>
</svg>
