<?xml version="1.0" encoding="UTF-8" standalone="no"?>
<!DOCTYPE svg PUBLIC "-//W3C//DTD SVG 1.1//EN"
 "http://www.w3.org/Graphics/SVG/1.1/DTD/svg11.dtd">
<!-- Generated by graphviz version 8.1.0 (20230707.0739)
 -->
<!-- Title: logs::ConsoleWriter Pages: 1 -->
<!--zoomable 1073 -->

<svg id="main" version="1.1" xmlns="http://www.w3.org/2000/svg" xmlns:xlink="http://www.w3.org/1999/xlink" xml:space="preserve" onload="init(evt)">
<style type="text/css"><![CDATA[
.node, .edge {opacity: 0.7;}
.node.selected, .edge.selected {opacity: 1;}
.edge:hover path { stroke: red; }
.edge:hover polygon { stroke: red; fill: red; }
]]></style>

<defs>
  <circle id="rim" cx="0" cy="0" r="7"/>
  <circle id="rim2" cx="0" cy="0" r="3.5"/>
  <g id="zoomPlus">
    <use xlink:href="#rim" fill="#404040"><set attributeName="fill" to="#808080" begin="zoomplus.mouseover" end="zoomplus.mouseout"/></use>
    <path d="M-4,0h8M0,-4v8" fill="none" stroke="white" stroke-width="1.5" pointer-events="none"/>
  </g>
  <g id="zoomMin">
    <use xlink:href="#rim" fill="#404040"><set attributeName="fill" to="#808080" begin="zoomminus.mouseover" end="zoomminus.mouseout"/></use>
    <path d="M-4,0h8" fill="none" stroke="white" stroke-width="1.5" pointer-events="none"/>
  </g>
  <g id="arrowUp" transform="translate(30 24)">
    <use xlink:href="#rim"/>
    <path pointer-events="none" fill="none" stroke="white" stroke-width="1.5" d="M0,-3.0v7 M-2.5,-0.5L0,-3.0L2.5,-0.5"/>
  </g>
  <g id="arrowRight" transform="rotate(90) translate(36 -43)">
    <use xlink:href="#rim"/>
    <path pointer-events="none" fill="none" stroke="white" stroke-width="1.5" d="M0,-3.0v7 M-2.5,-0.5L0,-3.0L2.5,-0.5"/>
  </g>
  <g id="arrowDown" transform="rotate(180) translate(-30 -48)">
    <use xlink:href="#rim"/>
    <path pointer-events="none" fill="none" stroke="white" stroke-width="1.5" d="M0,-3.0v7 M-2.5,-0.5L0,-3.0L2.5,-0.5"/>
  </g>
  <g id="arrowLeft" transform="rotate(270) translate(-36 17)">
    <use xlink:href="#rim"/>
    <path pointer-events="none" fill="none" stroke="white" stroke-width="1.5" d="M0,-3.0v7 M-2.5,-0.5L0,-3.0L2.5,-0.5"/>
  </g>
  <g id="resetDef">
    <use xlink:href="#rim2" fill="#404040"><set attributeName="fill" to="#808080" begin="reset.mouseover" end="reset.mouseout"/></use>
  </g>
</defs>
<script type="application/ecmascript">
var viewWidth = 444;
var viewHeight = 1073;
var sectionId = 'dynsection-1';
</script>
<script type="application/ecmascript" xlink:href="svg.min.js"/>
<svg id="graph" class="graph">
<g id="viewport">
<title>logs::ConsoleWriter</title>
<!-- Node1 -->
<g id="Node000001" class="node">
<title>Node1</title>
<g id="a_Node000001"><a xlink:title=" ">
<polygon fill="#999999" stroke="none" points="284,-208 150,-208 150,0 284,0 284,-208"/>
<text text-anchor="start" x="174.25" y="-194.5" font-family="Helvetica,sans-Serif" font-size="10.00">logs::ConsoleWriter</text>
<text text-anchor="start" x="215.5" y="-175.5" font-family="Helvetica,sans-Serif" font-size="10.00"> </text>
<text text-anchor="start" x="154" y="-156.5" font-family="Helvetica,sans-Serif" font-size="10.00">+</text>
<text text-anchor="start" x="164" y="-156.5" font-family="Helvetica,sans-Serif" font-size="10.00">core::SubscriptionStatus</text>
<text text-anchor="start" x="164" y="-141.5" font-family="Helvetica,sans-Serif" font-size="10.00"> onEvent(bulk::BulkEvent</text>
<text text-anchor="start" x="164" y="-126.5" font-family="Helvetica,sans-Serif" font-size="10.00"> const &amp;event) override</text>
<text text-anchor="start" x="154" y="-107.5" font-family="Helvetica,sans-Serif" font-size="10.00">+</text>
<text text-anchor="start" x="164" y="-107.5" font-family="Helvetica,sans-Serif" font-size="10.00">core::SubscriptionStatus</text>
<text text-anchor="start" x="164" y="-92.5" font-family="Helvetica,sans-Serif" font-size="10.00"> onEvent(cmd::TokenEvent</text>
<text text-anchor="start" x="164" y="-77.5" font-family="Helvetica,sans-Serif" font-size="10.00"> const &amp;event) override</text>
<text text-anchor="start" x="154" y="-58.5" font-family="Helvetica,sans-Serif" font-size="10.00">+</text>
<text text-anchor="start" x="164" y="-58.5" font-family="Helvetica,sans-Serif" font-size="10.00">static std::shared</text>
<text text-anchor="start" x="164" y="-43.5" font-family="Helvetica,sans-Serif" font-size="10.00">_ptr&lt; ConsoleWriter</text>
<text text-anchor="start" x="164" y="-28.5" font-family="Helvetica,sans-Serif" font-size="10.00"> &gt; create()</text>
<text text-anchor="start" x="155.5" y="-9.5" font-family="Helvetica,sans-Serif" font-size="10.00">&#45;</text>
<text text-anchor="start" x="164" y="-9.5" font-family="Helvetica,sans-Serif" font-size="10.00">ConsoleWriter()</text>
<polygon fill="#666666" stroke="#666666" points="150,-187 150,-187 284,-187 284,-187 150,-187"/>
<polygon fill="#666666" stroke="#666666" points="150,-168 150,-168 284,-168 284,-168 150,-168"/>
<polygon fill="none" stroke="#666666" points="150,0 150,-208 284,-208 284,0 150,0"/>
</a>
</g>
</g>
<!-- Node2 -->
<g id="Node000002" class="node">
<title>Node2</title>
<g id="a_Node000002"><a xlink:href="structcore_1_1SubscriberBase.html" target="_top" xlink:title=" ">
<polygon fill="white" stroke="none" points="134,-517 0,-517 0,-245 134,-245 134,-517"/>
<text text-anchor="start" x="20.12" y="-503.5" font-family="Helvetica,sans-Serif" font-size="10.00">core::SubscriberBase</text>
<text text-anchor="start" x="20.5" y="-488.5" font-family="Helvetica,sans-Serif" font-size="10.00">&lt; cmd::TokenEvent &gt;</text>
<text text-anchor="start" x="65.5" y="-469.5" font-family="Helvetica,sans-Serif" font-size="10.00"> </text>
<text text-anchor="start" x="4" y="-450.5" font-family="Helvetica,sans-Serif" font-size="10.00">+</text>
<text text-anchor="start" x="14" y="-450.5" font-family="Helvetica,sans-Serif" font-size="10.00">virtual ~SubscriberBase</text>
<text text-anchor="start" x="14" y="-435.5" font-family="Helvetica,sans-Serif" font-size="10.00">()=default</text>
<text text-anchor="start" x="4" y="-416.5" font-family="Helvetica,sans-Serif" font-size="10.00">+</text>
<text text-anchor="start" x="14" y="-416.5" font-family="Helvetica,sans-Serif" font-size="10.00">virtual SubscriptionStatus</text>
<text text-anchor="start" x="14" y="-401.5" font-family="Helvetica,sans-Serif" font-size="10.00"> onEvent(cmd::TokenEvent</text>
<text text-anchor="start" x="14" y="-386.5" font-family="Helvetica,sans-Serif" font-size="10.00"> const &amp;event)=0</text>
<text text-anchor="start" x="4" y="-367.5" font-family="Helvetica,sans-Serif" font-size="10.00">+</text>
<text text-anchor="start" x="14" y="-367.5" font-family="Helvetica,sans-Serif" font-size="10.00">virtual SubscriptionStatus</text>
<text text-anchor="start" x="14" y="-352.5" font-family="Helvetica,sans-Serif" font-size="10.00"> getSubscriptionStatus()</text>
<text text-anchor="start" x="14" y="-337.5" font-family="Helvetica,sans-Serif" font-size="10.00"> noexcept</text>
<text text-anchor="start" x="4" y="-318.5" font-family="Helvetica,sans-Serif" font-size="10.00">+</text>
<text text-anchor="start" x="14" y="-318.5" font-family="Helvetica,sans-Serif" font-size="10.00">virtual std::string</text>
<text text-anchor="start" x="14" y="-303.5" font-family="Helvetica,sans-Serif" font-size="10.00"> getSubscriberName()</text>
<text text-anchor="start" x="14" y="-288.5" font-family="Helvetica,sans-Serif" font-size="10.00"> const noexcept</text>
<text text-anchor="start" x="4" y="-269.5" font-family="Helvetica,sans-Serif" font-size="10.00">+</text>
<text text-anchor="start" x="14" y="-269.5" font-family="Helvetica,sans-Serif" font-size="10.00">virtual std::string</text>
<text text-anchor="start" x="14" y="-254.5" font-family="Helvetica,sans-Serif" font-size="10.00"> _subscriberID() final</text>
<polygon fill="#666666" stroke="#666666" points="0,-481 0,-481 134,-481 134,-481 0,-481"/>
<polygon fill="#666666" stroke="#666666" points="0,-462 0,-462 134,-462 134,-462 0,-462"/>
<polygon fill="none" stroke="#666666" points="0,-245 0,-517 134,-517 134,-245 0,-245"/>
</a>
</g>
</g>
<!-- Node2&#45;&gt;Node1 -->
<g id="edge1_Node000001_Node000002" class="edge">
<title>Node2&#45;&gt;Node1</title>
<g id="a_edge1_Node000001_Node000002"><a xlink:title=" ">
<path fill="none" stroke="#63b8ff" d="M139,-248.01C146.39,-234.45 153.83,-220.82 161.01,-207.64"/>
<polygon fill="none" stroke="#63b8ff" points="135.6,-245.92 133.88,-256.38 141.75,-249.28 135.6,-245.92"/>
</a>
</g>
</g>
<!-- Node3 -->
<g id="Node000003" class="node">
<title>Node3</title>
<g id="a_Node000003"><a xlink:title=" ">
<polygon fill="white" stroke="none" points="203.5,-952 150.5,-952 150.5,-891 203.5,-891 203.5,-952"/>
<text text-anchor="start" x="155.25" y="-938.5" font-family="Helvetica,sans-Serif" font-size="10.00">std::string</text>
<text text-anchor="start" x="175.5" y="-919.5" font-family="Helvetica,sans-Serif" font-size="10.00"> </text>
<text text-anchor="start" x="175.5" y="-900.5" font-family="Helvetica,sans-Serif" font-size="10.00"> </text>
<polygon fill="#666666" stroke="#666666" points="150.5,-931 150.5,-931 203.5,-931 203.5,-931 150.5,-931"/>
<polygon fill="#666666" stroke="#666666" points="150.5,-912 150.5,-912 203.5,-912 203.5,-912 150.5,-912"/>
<polygon fill="none" stroke="#666666" points="150.5,-891 150.5,-952 203.5,-952 203.5,-891 150.5,-891"/>
</a>
</g>
</g>
<!-- Node3&#45;&gt;Node2 -->
<g id="edge2_Node000002_Node000003" class="edge">
<title>Node3&#45;&gt;Node2</title>
<g id="a_edge2_Node000002_Node000003"><a xlink:title=" ">
<path fill="none" stroke="#63b8ff" d="M150.59,-906.26C128.19,-892.56 97.48,-869.58 83.25,-840 37.04,-743.95 34.75,-623 43.06,-529.52"/>
<polygon fill="none" stroke="#63b8ff" points="43.05,-529.65 39.63,-523.3 44.18,-517.7 47.6,-524.06 43.05,-529.65"/>
</a>
</g>
<text text-anchor="middle" x="93.38" y="-702" font-family="Helvetica,sans-Serif" font-size="10.00" fill="grey"> &#45;_id</text>
</g>
<!-- Node5 -->
<g id="Node000005" class="node">
<title>Node5</title>
<g id="a_Node000005"><a xlink:href="structcore_1_1SubscriberBase.html" target="_top" xlink:title=" ">
<polygon fill="white" stroke="none" points="243,-840 111,-840 111,-568 243,-568 243,-840"/>
<text text-anchor="start" x="130.12" y="-826.5" font-family="Helvetica,sans-Serif" font-size="10.00">core::SubscriberBase</text>
<text text-anchor="start" x="145.12" y="-811.5" font-family="Helvetica,sans-Serif" font-size="10.00">&lt; EventType &gt;</text>
<text text-anchor="start" x="175.5" y="-792.5" font-family="Helvetica,sans-Serif" font-size="10.00"> </text>
<text text-anchor="start" x="115" y="-773.5" font-family="Helvetica,sans-Serif" font-size="10.00">+</text>
<text text-anchor="start" x="125" y="-773.5" font-family="Helvetica,sans-Serif" font-size="10.00">virtual ~SubscriberBase</text>
<text text-anchor="start" x="125" y="-758.5" font-family="Helvetica,sans-Serif" font-size="10.00">()=default</text>
<text text-anchor="start" x="115" y="-739.5" font-family="Helvetica,sans-Serif" font-size="10.00">+</text>
<text text-anchor="start" x="125" y="-739.5" font-family="Helvetica,sans-Serif" font-size="10.00">virtual SubscriptionStatus</text>
<text text-anchor="start" x="125" y="-724.5" font-family="Helvetica,sans-Serif" font-size="10.00"> onEvent(EventType const</text>
<text text-anchor="start" x="125" y="-709.5" font-family="Helvetica,sans-Serif" font-size="10.00"> &amp;event)=0</text>
<text text-anchor="start" x="115" y="-690.5" font-family="Helvetica,sans-Serif" font-size="10.00">+</text>
<text text-anchor="start" x="125" y="-690.5" font-family="Helvetica,sans-Serif" font-size="10.00">virtual SubscriptionStatus</text>
<text text-anchor="start" x="125" y="-675.5" font-family="Helvetica,sans-Serif" font-size="10.00"> getSubscriptionStatus()</text>
<text text-anchor="start" x="125" y="-660.5" font-family="Helvetica,sans-Serif" font-size="10.00"> noexcept</text>
<text text-anchor="start" x="115" y="-641.5" font-family="Helvetica,sans-Serif" font-size="10.00">+</text>
<text text-anchor="start" x="125" y="-641.5" font-family="Helvetica,sans-Serif" font-size="10.00">virtual std::string</text>
<text text-anchor="start" x="125" y="-626.5" font-family="Helvetica,sans-Serif" font-size="10.00"> getSubscriberName()</text>
<text text-anchor="start" x="125" y="-611.5" font-family="Helvetica,sans-Serif" font-size="10.00"> const noexcept</text>
<text text-anchor="start" x="115" y="-592.5" font-family="Helvetica,sans-Serif" font-size="10.00">+</text>
<text text-anchor="start" x="125" y="-592.5" font-family="Helvetica,sans-Serif" font-size="10.00">virtual std::string</text>
<text text-anchor="start" x="125" y="-577.5" font-family="Helvetica,sans-Serif" font-size="10.00"> _subscriberID() final</text>
<polygon fill="#666666" stroke="#666666" points="111,-804 111,-804 243,-804 243,-804 111,-804"/>
<polygon fill="#666666" stroke="#666666" points="111,-785 111,-785 243,-785 243,-785 111,-785"/>
<polygon fill="none" stroke="#666666" points="111,-568 111,-840 243,-840 243,-568 111,-568"/>
</a>
</g>
</g>
<!-- Node3&#45;&gt;Node5 -->
<g id="edge5_Node000005_Node000003" class="edge">
<title>Node3&#45;&gt;Node5</title>
<g id="a_edge5_Node000005_Node000003"><a xlink:title=" ">
<path fill="none" stroke="#63b8ff" d="M177,-891.44C177,-880.51 177,-867.2 177,-852.78"/>
<polygon fill="none" stroke="#63b8ff" points="177,-852.76 173,-846.76 177,-840.76 181,-846.76 177,-852.76"/>
</a>
</g>
<text text-anchor="middle" x="186.38" y="-863.5" font-family="Helvetica,sans-Serif" font-size="10.00" fill="grey"> &#45;_id</text>
</g>
<!-- Node6 -->
<g id="Node000006" class="node">
<title>Node6</title>
<g id="a_Node000006"><a xlink:href="structcore_1_1SubscriberBase.html" target="_top" xlink:title=" ">
<polygon fill="white" stroke="none" points="282,-517 152,-517 152,-245 282,-245 282,-517"/>
<text text-anchor="start" x="170.12" y="-503.5" font-family="Helvetica,sans-Serif" font-size="10.00">core::SubscriberBase</text>
<text text-anchor="start" x="173.88" y="-488.5" font-family="Helvetica,sans-Serif" font-size="10.00">&lt; bulk::BulkEvent &gt;</text>
<text text-anchor="start" x="215.5" y="-469.5" font-family="Helvetica,sans-Serif" font-size="10.00"> </text>
<text text-anchor="start" x="156" y="-450.5" font-family="Helvetica,sans-Serif" font-size="10.00">+</text>
<text text-anchor="start" x="166" y="-450.5" font-family="Helvetica,sans-Serif" font-size="10.00">virtual ~SubscriberBase</text>
<text text-anchor="start" x="166" y="-435.5" font-family="Helvetica,sans-Serif" font-size="10.00">()=default</text>
<text text-anchor="start" x="156" y="-416.5" font-family="Helvetica,sans-Serif" font-size="10.00">+</text>
<text text-anchor="start" x="166" y="-416.5" font-family="Helvetica,sans-Serif" font-size="10.00">virtual SubscriptionStatus</text>
<text text-anchor="start" x="166" y="-401.5" font-family="Helvetica,sans-Serif" font-size="10.00"> onEvent(bulk::BulkEvent</text>
<text text-anchor="start" x="166" y="-386.5" font-family="Helvetica,sans-Serif" font-size="10.00"> const &amp;event)=0</text>
<text text-anchor="start" x="156" y="-367.5" font-family="Helvetica,sans-Serif" font-size="10.00">+</text>
<text text-anchor="start" x="166" y="-367.5" font-family="Helvetica,sans-Serif" font-size="10.00">virtual SubscriptionStatus</text>
<text text-anchor="start" x="166" y="-352.5" font-family="Helvetica,sans-Serif" font-size="10.00"> getSubscriptionStatus()</text>
<text text-anchor="start" x="166" y="-337.5" font-family="Helvetica,sans-Serif" font-size="10.00"> noexcept</text>
<text text-anchor="start" x="156" y="-318.5" font-family="Helvetica,sans-Serif" font-size="10.00">+</text>
<text text-anchor="start" x="166" y="-318.5" font-family="Helvetica,sans-Serif" font-size="10.00">virtual std::string</text>
<text text-anchor="start" x="166" y="-303.5" font-family="Helvetica,sans-Serif" font-size="10.00"> getSubscriberName()</text>
<text text-anchor="start" x="166" y="-288.5" font-family="Helvetica,sans-Serif" font-size="10.00"> const noexcept</text>
<text text-anchor="start" x="156" y="-269.5" font-family="Helvetica,sans-Serif" font-size="10.00">+</text>
<text text-anchor="start" x="166" y="-269.5" font-family="Helvetica,sans-Serif" font-size="10.00">virtual std::string</text>
<text text-anchor="start" x="166" y="-254.5" font-family="Helvetica,sans-Serif" font-size="10.00"> _subscriberID() final</text>
<polygon fill="#666666" stroke="#666666" points="152,-481 152,-481 282,-481 282,-481 152,-481"/>
<polygon fill="#666666" stroke="#666666" points="152,-462 152,-462 282,-462 282,-462 152,-462"/>
<polygon fill="none" stroke="#666666" points="152,-245 152,-517 282,-517 282,-245 152,-245"/>
</a>
</g>
</g>
<!-- Node3&#45;&gt;Node6 -->
<g id="edge7_Node000006_Node000003" class="edge">
<title>Node3&#45;&gt;Node6</title>
<g id="a_edge7_Node000006_Node000003"><a xlink:title=" ">
<path fill="none" stroke="#63b8ff" d="M203.32,-899.83C220.15,-885.06 240.85,-863.67 252,-840 307.39,-722.4 281.54,-679.71 290,-550 290.98,-535 289.11,-519.81 285.41,-505.02"/>
<polygon fill="none" stroke="#63b8ff" points="285.43,-505.1 279.94,-500.43 282.13,-493.56 287.63,-498.23 285.43,-505.1"/>
</a>
</g>
<text text-anchor="middle" x="298.38" y="-702" font-family="Helvetica,sans-Serif" font-size="10.00" fill="grey"> &#45;_id</text>
</g>
<!-- Node4 -->
<g id="Node000004" class="node">
<title>Node4</title>
<g id="a_Node000004"><a xlink:title=" ">
<polygon fill="white" stroke="none" points="221,-1065 133,-1065 133,-989 221,-989 221,-1065"/>
<text text-anchor="start" x="138" y="-1051.5" font-family="Helvetica,sans-Serif" font-size="10.00">std::basic_string&lt;</text>
<text text-anchor="start" x="160.5" y="-1036.5" font-family="Helvetica,sans-Serif" font-size="10.00"> Char &gt;</text>
<text text-anchor="start" x="175.5" y="-1017.5" font-family="Helvetica,sans-Serif" font-size="10.00"> </text>
<text text-anchor="start" x="175.5" y="-998.5" font-family="Helvetica,sans-Serif" font-size="10.00"> </text>
<polygon fill="#666666" stroke="#666666" points="133,-1029 133,-1029 221,-1029 221,-1029 133,-1029"/>
<polygon fill="#666666" stroke="#666666" points="133,-1010 133,-1010 221,-1010 221,-1010 133,-1010"/>
<polygon fill="none" stroke="#666666" points="133,-989 133,-1065 221,-1065 221,-989 133,-989"/>
</a>
</g>
</g>
<!-- Node4&#45;&gt;Node3 -->
<g id="edge3_Node000003_Node000004" class="edge">
<title>Node4&#45;&gt;Node3</title>
<g id="a_edge3_Node000003_Node000004"><a xlink:title=" ">
<path fill="none" stroke="#63b8ff" d="M177,-978.3C177,-969.22 177,-959.98 177,-951.69"/>
<polygon fill="none" stroke="#63b8ff" points="173.5,-978.22 177,-988.22 180.5,-978.22 173.5,-978.22"/>
</a>
</g>
</g>
<!-- Node5&#45;&gt;Node2 -->
<g id="edge4_Node000002_Node000005" class="edge">
<title>Node5&#45;&gt;Node2</title>
<g id="a_edge4_Node000002_Node000005"><a xlink:title=" ">
<path fill="none" stroke="orange" d="M106.77,-575.56C103.19,-567.03 99.89,-558.46 97,-550 93.36,-539.35 90.14,-528.15 87.29,-516.82"/>
<polygon fill="orange" stroke="orange" points="103.91,-576.76 111.1,-584.55 110.34,-573.98 103.91,-576.76"/>
</a>
</g>
<text text-anchor="middle" x="145" y="-540.5" font-family="Helvetica,sans-Serif" font-size="10.00" fill="grey"> &lt; cmd::TokenEvent &gt;</text>
</g>
<!-- Node5&#45;&gt;Node6 -->
<g id="edge8_Node000006_Node000005" class="edge">
<title>Node5&#45;&gt;Node6</title>
<g id="a_edge8_Node000006_Node000005"><a xlink:title=" ">
<path fill="none" stroke="orange" d="M195.13,-557.47C196.82,-543.96 198.52,-530.31 200.19,-516.91"/>
<polygon fill="orange" stroke="orange" points="191.55,-556.91 193.79,-567.26 198.5,-557.77 191.55,-556.91"/>
</a>
</g>
<text text-anchor="middle" x="241.62" y="-540.5" font-family="Helvetica,sans-Serif" font-size="10.00" fill="grey"> &lt; bulk::BulkEvent &gt;</text>
</g>
<!-- Node6&#45;&gt;Node1 -->
<g id="edge6_Node000001_Node000006" class="edge">
<title>Node6&#45;&gt;Node1</title>
<g id="a_edge6_Node000001_Node000006"><a xlink:title=" ">
<path fill="none" stroke="#63b8ff" d="M217,-234.35C217,-225.36 217,-216.42 217,-207.68"/>
<polygon fill="none" stroke="#63b8ff" points="213.5,-234.32 217,-244.32 220.5,-234.32 213.5,-234.32"/>
</a>
</g>
</g>
<!-- Node7 -->
<g id="Node000007" class="node">
<title>Node7</title>
<g id="a_Node000007"><a xlink:title=" ">
<polygon fill="white" stroke="none" points="435.5,-419 300.5,-419 300.5,-343 435.5,-343 435.5,-419"/>
<text text-anchor="start" x="305.38" y="-405.5" font-family="Helvetica,sans-Serif" font-size="10.00">std::enable_shared</text>
<text text-anchor="start" x="305.38" y="-390.5" font-family="Helvetica,sans-Serif" font-size="10.00">_from_this&lt; ConsoleWriter &gt;</text>
<text text-anchor="start" x="366.5" y="-371.5" font-family="Helvetica,sans-Serif" font-size="10.00"> </text>
<text text-anchor="start" x="366.5" y="-352.5" font-family="Helvetica,sans-Serif" font-size="10.00"> </text>
<polygon fill="#666666" stroke="#666666" points="300.5,-383 300.5,-383 435.5,-383 435.5,-383 300.5,-383"/>
<polygon fill="#666666" stroke="#666666" points="300.5,-364 300.5,-364 435.5,-364 435.5,-364 300.5,-364"/>
<polygon fill="none" stroke="#666666" points="300.5,-343 300.5,-419 435.5,-419 435.5,-343 300.5,-343"/>
</a>
</g>
</g>
<!-- Node7&#45;&gt;Node1 -->
<g id="edge9_Node000001_Node000007" class="edge">
<title>Node7&#45;&gt;Node1</title>
<g id="a_edge9_Node000001_Node000007"><a xlink:title=" ">
<path fill="none" stroke="#63b8ff" d="M342.68,-333.89C323.82,-299.54 297.32,-251.27 273.51,-207.92"/>
<polygon fill="none" stroke="#63b8ff" points="339.91,-335.12 347.79,-342.2 346.05,-331.75 339.91,-335.12"/>
</a>
</g>
</g>
</g>
</svg>

<g id="navigator" transform="translate(0 0)" fill="#404254">
  <rect fill="#f2f5e9" fill-opacity="0.5" stroke="#606060" stroke-width=".5" x="0" y="0" width="60" height="60"/>
  <use id="zoomplus" xlink:href="#zoomPlus" x="17" y="9" onmousedown="handleZoom(evt,'in')"/>
  <use id="zoomminus" xlink:href="#zoomMin" x="42" y="9" onmousedown="handleZoom(evt,'out')"/>
  <use id="reset" xlink:href="#resetDef" x="30" y="36" onmousedown="handleReset()"/>
   <use id="arrowup" xlink:href="#arrowUp" x="0" y="0" onmousedown="handlePan(0,-1)"/>
  <use id="arrowright" xlink:href="#arrowRight" x="0" y="0" onmousedown="handlePan(1,0)"/>
  <use id="arrowdown" xlink:href="#arrowDown" x="0" y="0" onmousedown="handlePan(0,1)"/>
  <use id="arrowleft" xlink:href="#arrowLeft" x="0" y="0" onmousedown="handlePan(-1,0)"/>
</g>
<svg viewBox="0 0 15 15" width="100%" height="30px" preserveAspectRatio="xMaxYMin meet">
 <g id="arrow_out" transform="scale(0.3 0.3)">
  <a xlink:href="classlogs_1_1ConsoleWriter__coll__graph_org.svg" target="_base">
   <rect id="button" ry="5" rx="5" y="6" x="6" height="38" width="38"
        fill="#f2f5e9" fill-opacity="0.5" stroke="#606060" stroke-width="1.0"/>
   <path id="arrow"
     d="M 11.500037,31.436501 C 11.940474,20.09759 22.043105,11.32322 32.158766,21.979434 L 37.068811,17.246167 C 37.068811,17.246167 37.088388,32 37.088388,32 L 22.160133,31.978069 C 22.160133,31.978069 26.997745,27.140456 26.997745,27.140456 C 18.528582,18.264221 13.291696,25.230495 11.500037,31.436501 z"
     style="fill:#404040;"/>
  </a>
 </g>
</svg>

<style type='text/css'>
<![CDATA[
[data-mouse-over-selected='false'] { opacity: 0.7; }
[data-mouse-over-selected='true']  { opacity: 1.0; }
]]>
</style>
<script type="application/ecmascript"><![CDATA[
document.addEventListener('DOMContentLoaded', (event) => {
  highlightEdges();
  highlightAdjacentNodes();
});
]]></script>
</svg>
