<?xml version="1.0" encoding="UTF-8" standalone="no"?>
<!DOCTYPE svg PUBLIC "-//W3C//DTD SVG 1.1//EN"
 "http://www.w3.org/Graphics/SVG/1.1/DTD/svg11.dtd">
<!-- Generated by graphviz version 8.1.0 (20230707.0739)
 -->
<!-- Title: cmd::provider::ConsoleParser::run Pages: 1 -->
<svg width="558pt" height="172pt"
 viewBox="0.00 0.00 558.00 171.50" xmlns="http://www.w3.org/2000/svg" xmlns:xlink="http://www.w3.org/1999/xlink">
<g id="graph0" class="graph" transform="scale(1 1) rotate(0) translate(4 167.5)">
<title>cmd::provider::ConsoleParser::run</title>
<!-- Node1 -->
<g id="Node000001" class="node">
<title>Node1</title>
<g id="a_Node000001"><a xlink:title="parse all input stream passed to ctor while at least one subscriber is alive">
<polygon fill="#999999" stroke="#666666" points="165.25,-86.5 0,-86.5 0,-63.5 165.25,-63.5 165.25,-86.5"/>
<text text-anchor="middle" x="82.62" y="-73" font-family="Helvetica,sans-Serif" font-size="10.00">cmd::provider::ConsoleParser::run</text>
</a>
</g>
</g>
<!-- Node2 -->
<g id="Node000002" class="node">
<title>Node2</title>
<g id="a_Node000002"><a xlink:href="classcmd_1_1provider_1_1ConsoleParser.html#a6fe1081ace8221b60aa8f996d9c91099" target="_top" xlink:title=" ">
<polygon fill="white" stroke="#666666" points="354.12,-150 208.38,-150 208.38,-112 354.12,-112 354.12,-150"/>
<text text-anchor="start" x="216.38" y="-136.5" font-family="Helvetica,sans-Serif" font-size="10.00">cmd::provider::ConsoleParser</text>
<text text-anchor="middle" x="281.25" y="-121.5" font-family="Helvetica,sans-Serif" font-size="10.00">::advance</text>
</a>
</g>
</g>
<!-- Node1&#45;&gt;Node2 -->
<g id="edge1_Node000001_Node000002" class="edge">
<title>Node1&#45;&gt;Node2</title>
<g id="a_edge1_Node000001_Node000002"><a xlink:title=" ">
<path fill="none" stroke="#63b8ff" d="M125.32,-86.88C147.52,-93.2 175.55,-101.18 201.65,-108.61"/>
<polygon fill="#63b8ff" stroke="#63b8ff" points="200.34,-112.17 210.92,-111.54 202.26,-105.43 200.34,-112.17"/>
</a>
</g>
</g>
<!-- Node6 -->
<g id="Node000006" class="node">
<title>Node6</title>
<g id="a_Node000006"><a xlink:href="classcore_1_1PublisherMixin.html#a49835882356b1bcd3e414c3ee2d49b81" target="_top" xlink:title=" ">
<polygon fill="white" stroke="#666666" points="361.25,-94 201.25,-94 201.25,-56 361.25,-56 361.25,-94"/>
<text text-anchor="start" x="209.25" y="-80.5" font-family="Helvetica,sans-Serif" font-size="10.00">core::PublisherMixin</text>
<text text-anchor="middle" x="281.25" y="-65.5" font-family="Helvetica,sans-Serif" font-size="10.00">&lt; TokenEvent &gt;::hasSubscription</text>
</a>
</g>
</g>
<!-- Node1&#45;&gt;Node6 -->
<g id="edge5_Node000001_Node000006" class="edge">
<title>Node1&#45;&gt;Node6</title>
<g id="a_edge5_Node000001_Node000006"><a xlink:title=" ">
<path fill="none" stroke="#63b8ff" d="M165.59,-75C173.72,-75 182.01,-75 190.22,-75"/>
<polygon fill="#63b8ff" stroke="#63b8ff" points="189.94,-78.5 199.94,-75 189.94,-71.5 189.94,-78.5"/>
</a>
</g>
</g>
<!-- Node7 -->
<g id="Node000007" class="node">
<title>Node7</title>
<g id="a_Node000007"><a xlink:href="classcore_1_1PublisherMixin.html#a27f123fa8c1a5dfd358bb3a3eed8f5a0" target="_top" xlink:title=" ">
<polygon fill="white" stroke="#666666" points="338.38,-38 224.12,-38 224.12,0 338.38,0 338.38,-38"/>
<text text-anchor="start" x="232.12" y="-24.5" font-family="Helvetica,sans-Serif" font-size="10.00">core::PublisherMixin</text>
<text text-anchor="middle" x="281.25" y="-9.5" font-family="Helvetica,sans-Serif" font-size="10.00">&lt; TokenEvent &gt;::notify</text>
</a>
</g>
</g>
<!-- Node1&#45;&gt;Node7 -->
<g id="edge6_Node000001_Node000007" class="edge">
<title>Node1&#45;&gt;Node7</title>
<g id="a_edge6_Node000001_Node000007"><a xlink:title=" ">
<path fill="none" stroke="#63b8ff" d="M125.32,-63.12C150.83,-55.86 184.04,-46.4 213.17,-38.11"/>
<polygon fill="#63b8ff" stroke="#63b8ff" points="214.03,-41.21 222.69,-35.11 212.11,-34.48 214.03,-41.21"/>
</a>
</g>
</g>
<!-- Node3 -->
<g id="Node000003" class="node">
<title>Node3</title>
<g id="a_Node000003"><a xlink:href="namespaceutils.html#af77d46f5a6a71518d18de591874f0456" target="_top" xlink:title=" ">
<polygon fill="white" stroke="#666666" points="453.75,-142.5 397.25,-142.5 397.25,-119.5 453.75,-119.5 453.75,-142.5"/>
<text text-anchor="middle" x="425.5" y="-129" font-family="Helvetica,sans-Serif" font-size="10.00">utils::trim</text>
</a>
</g>
</g>
<!-- Node2&#45;&gt;Node3 -->
<g id="edge2_Node000002_Node000003" class="edge">
<title>Node2&#45;&gt;Node3</title>
<g id="a_edge2_Node000002_Node000003"><a xlink:title=" ">
<path fill="none" stroke="#63b8ff" d="M354.21,-131C365.11,-131 375.98,-131 385.8,-131"/>
<polygon fill="#63b8ff" stroke="#63b8ff" points="385.78,-134.5 395.78,-131 385.78,-127.5 385.78,-134.5"/>
</a>
</g>
</g>
<!-- Node4 -->
<g id="Node000004" class="node">
<title>Node4</title>
<g id="a_Node000004"><a xlink:href="namespaceutils.html#abc67f95c776ecd87a570bc5c477a88ce" target="_top" xlink:title=" ">
<polygon fill="white" stroke="#666666" points="549.25,-163.5 490.5,-163.5 490.5,-140.5 549.25,-140.5 549.25,-163.5"/>
<text text-anchor="middle" x="519.88" y="-150" font-family="Helvetica,sans-Serif" font-size="10.00">utils::ltrim</text>
</a>
</g>
</g>
<!-- Node3&#45;&gt;Node4 -->
<g id="edge3_Node000003_Node000004" class="edge">
<title>Node3&#45;&gt;Node4</title>
<g id="a_edge3_Node000003_Node000004"><a xlink:title=" ">
<path fill="none" stroke="#63b8ff" d="M454.22,-137.3C462.21,-139.12 471.09,-141.14 479.65,-143.08"/>
<polygon fill="#63b8ff" stroke="#63b8ff" points="478.69,-146.68 489.22,-145.49 480.24,-139.86 478.69,-146.68"/>
</a>
</g>
</g>
<!-- Node5 -->
<g id="Node000005" class="node">
<title>Node5</title>
<g id="a_Node000005"><a xlink:href="namespaceutils.html#aaf24e560b46e53b9e45345d9e6c3244a" target="_top" xlink:title=" ">
<polygon fill="white" stroke="#666666" points="550,-122.5 489.75,-122.5 489.75,-99.5 550,-99.5 550,-122.5"/>
<text text-anchor="middle" x="519.88" y="-109" font-family="Helvetica,sans-Serif" font-size="10.00">utils::rtrim</text>
</a>
</g>
</g>
<!-- Node3&#45;&gt;Node5 -->
<g id="edge4_Node000003_Node000005" class="edge">
<title>Node3&#45;&gt;Node5</title>
<g id="a_edge4_Node000003_Node000005"><a xlink:title=" ">
<path fill="none" stroke="#63b8ff" d="M454.22,-125C461.98,-123.32 470.57,-121.46 478.89,-119.66"/>
<polygon fill="#63b8ff" stroke="#63b8ff" points="479.54,-122.88 488.57,-117.34 478.06,-116.04 479.54,-122.88"/>
</a>
</g>
</g>
</g>
</svg>
