<?xml version="1.0" encoding="UTF-8" standalone="no"?>
<!DOCTYPE svg PUBLIC "-//W3C//DTD SVG 1.1//EN"
 "http://www.w3.org/Graphics/SVG/1.1/DTD/svg11.dtd">
<!-- Generated by graphviz version 8.1.0 (20230707.0739)
 -->
<!-- Title: bulk::provider::BulkTranslator::onEvent Pages: 1 -->
<svg width="330pt" height="158pt"
 viewBox="0.00 0.00 329.50 158.00" xmlns="http://www.w3.org/2000/svg" xmlns:xlink="http://www.w3.org/1999/xlink">
<g id="graph0" class="graph" transform="scale(1 1) rotate(0) translate(4 154)">
<title>bulk::provider::BulkTranslator::onEvent</title>
<!-- Node1 -->
<g id="Node000001" class="node">
<title>Node1</title>
<g id="a_Node000001"><a xlink:title="Main Subscription Method.">
<polygon fill="#999999" stroke="#666666" points="142.75,-94 0,-94 0,-56 142.75,-56 142.75,-94"/>
<text text-anchor="start" x="8" y="-80.5" font-family="Helvetica,sans-Serif" font-size="10.00">bulk::provider::BulkTranslator</text>
<text text-anchor="middle" x="71.38" y="-65.5" font-family="Helvetica,sans-Serif" font-size="10.00">::onEvent</text>
</a>
</g>
</g>
<!-- Node2 -->
<g id="Node000002" class="node">
<title>Node2</title>
<g id="a_Node000002"><a xlink:href="classcore_1_1PublisherMixin.html#a01f5e05834197f4dfab5b323116940e1" target="_top" xlink:title=" ">
<polygon fill="white" stroke="#666666" points="302.75,-150 197.5,-150 197.5,-112 302.75,-112 302.75,-150"/>
<text text-anchor="start" x="205.5" y="-136.5" font-family="Helvetica,sans-Serif" font-size="10.00">core::PublisherMixin</text>
<text text-anchor="middle" x="250.12" y="-121.5" font-family="Helvetica,sans-Serif" font-size="10.00">&lt; BulkEvent &gt;::clear</text>
</a>
</g>
</g>
<!-- Node1&#45;&gt;Node2 -->
<g id="edge1_Node000001_Node000002" class="edge">
<title>Node1&#45;&gt;Node2</title>
<g id="a_edge1_Node000001_Node000002"><a xlink:title=" ">
<path fill="none" stroke="#63b8ff" d="M133.7,-94.43C150.79,-99.84 169.38,-105.73 186.54,-111.17"/>
<polygon fill="#63b8ff" stroke="#63b8ff" points="185.43,-114.81 196.02,-114.49 187.54,-108.13 185.43,-114.81"/>
</a>
</g>
</g>
<!-- Node3 -->
<g id="Node000003" class="node">
<title>Node3</title>
<g id="a_Node000003"><a xlink:href="classbulk_1_1provider_1_1BulkTranslator.html#a29f69e9d7f98712ab854468395d9f985" target="_top" xlink:title="Get Subscriber current State object.">
<polygon fill="white" stroke="#666666" points="321.5,-94 178.75,-94 178.75,-56 321.5,-56 321.5,-94"/>
<text text-anchor="start" x="186.75" y="-80.5" font-family="Helvetica,sans-Serif" font-size="10.00">bulk::provider::BulkTranslator</text>
<text text-anchor="middle" x="250.12" y="-65.5" font-family="Helvetica,sans-Serif" font-size="10.00">::getSubscriptionStatus</text>
</a>
</g>
</g>
<!-- Node1&#45;&gt;Node3 -->
<g id="edge2_Node000001_Node000003" class="edge">
<title>Node1&#45;&gt;Node3</title>
<g id="a_edge2_Node000001_Node000003"><a xlink:title=" ">
<path fill="none" stroke="#63b8ff" d="M143.25,-75C151.24,-75 159.43,-75 167.54,-75"/>
<polygon fill="#63b8ff" stroke="#63b8ff" points="167.52,-78.5 177.52,-75 167.52,-71.5 167.52,-78.5"/>
</a>
</g>
</g>
<!-- Node4 -->
<g id="Node000004" class="node">
<title>Node4</title>
<g id="a_Node000004"><a xlink:href="classcore_1_1PublisherMixin.html#a27f123fa8c1a5dfd358bb3a3eed8f5a0" target="_top" xlink:title=" ">
<polygon fill="white" stroke="#666666" points="304.25,-38 196,-38 196,0 304.25,0 304.25,-38"/>
<text text-anchor="start" x="204" y="-24.5" font-family="Helvetica,sans-Serif" font-size="10.00">core::PublisherMixin</text>
<text text-anchor="middle" x="250.12" y="-9.5" font-family="Helvetica,sans-Serif" font-size="10.00">&lt; BulkEvent &gt;::notify</text>
</a>
</g>
</g>
<!-- Node1&#45;&gt;Node4 -->
<g id="edge3_Node000001_Node000004" class="edge">
<title>Node1&#45;&gt;Node4</title>
<g id="a_edge3_Node000001_Node000004"><a xlink:title=" ">
<path fill="none" stroke="#63b8ff" d="M133.7,-55.57C150.38,-50.29 168.48,-44.55 185.29,-39.22"/>
<polygon fill="#63b8ff" stroke="#63b8ff" points="186.1,-42.32 194.57,-35.97 183.98,-35.65 186.1,-42.32"/>
</a>
</g>
</g>
</g>
</svg>
