<?xml version="1.0" encoding="UTF-8" standalone="no"?>
<!DOCTYPE svg PUBLIC "-//W3C//DTD SVG 1.1//EN"
 "http://www.w3.org/Graphics/SVG/1.1/DTD/svg11.dtd">
<!-- Generated by graphviz version 8.1.0 (20230707.0739)
 -->
<!-- Title: bulk::provider::BulkTranslator Pages: 1 -->
<!--zoomable 1521 -->

<svg id="main" version="1.1" xmlns="http://www.w3.org/2000/svg" xmlns:xlink="http://www.w3.org/1999/xlink" xml:space="preserve" onload="init(evt)">
<style type="text/css"><![CDATA[
.node, .edge {opacity: 0.7;}
.node.selected, .edge.selected {opacity: 1;}
.edge:hover path { stroke: red; }
.edge:hover polygon { stroke: red; fill: red; }
]]></style>

<defs>
  <circle id="rim" cx="0" cy="0" r="7"/>
  <circle id="rim2" cx="0" cy="0" r="3.5"/>
  <g id="zoomPlus">
    <use xlink:href="#rim" fill="#404040"><set attributeName="fill" to="#808080" begin="zoomplus.mouseover" end="zoomplus.mouseout"/></use>
    <path d="M-4,0h8M0,-4v8" fill="none" stroke="white" stroke-width="1.5" pointer-events="none"/>
  </g>
  <g id="zoomMin">
    <use xlink:href="#rim" fill="#404040"><set attributeName="fill" to="#808080" begin="zoomminus.mouseover" end="zoomminus.mouseout"/></use>
    <path d="M-4,0h8" fill="none" stroke="white" stroke-width="1.5" pointer-events="none"/>
  </g>
  <g id="arrowUp" transform="translate(30 24)">
    <use xlink:href="#rim"/>
    <path pointer-events="none" fill="none" stroke="white" stroke-width="1.5" d="M0,-3.0v7 M-2.5,-0.5L0,-3.0L2.5,-0.5"/>
  </g>
  <g id="arrowRight" transform="rotate(90) translate(36 -43)">
    <use xlink:href="#rim"/>
    <path pointer-events="none" fill="none" stroke="white" stroke-width="1.5" d="M0,-3.0v7 M-2.5,-0.5L0,-3.0L2.5,-0.5"/>
  </g>
  <g id="arrowDown" transform="rotate(180) translate(-30 -48)">
    <use xlink:href="#rim"/>
    <path pointer-events="none" fill="none" stroke="white" stroke-width="1.5" d="M0,-3.0v7 M-2.5,-0.5L0,-3.0L2.5,-0.5"/>
  </g>
  <g id="arrowLeft" transform="rotate(270) translate(-36 17)">
    <use xlink:href="#rim"/>
    <path pointer-events="none" fill="none" stroke="white" stroke-width="1.5" d="M0,-3.0v7 M-2.5,-0.5L0,-3.0L2.5,-0.5"/>
  </g>
  <g id="resetDef">
    <use xlink:href="#rim2" fill="#404040"><set attributeName="fill" to="#808080" begin="reset.mouseover" end="reset.mouseout"/></use>
  </g>
</defs>
<script type="application/ecmascript">
var viewWidth = 713;
var viewHeight = 1521;
var sectionId = 'dynsection-1';
</script>
<script type="application/ecmascript" xlink:href="svg.min.js"/>
<svg id="graph" class="graph">
<g id="viewport">
<title>bulk::provider::BulkTranslator</title>
<!-- Node1 -->
<g id="Node000001" class="node">
<title>Node1</title>
<g id="a_Node000001"><a xlink:title=" ">
<polygon fill="#999999" stroke="none" points="495.61,-242 349.61,-242 349.61,0 495.61,0 495.61,-242"/>
<text text-anchor="start" x="359.24" y="-228.5" font-family="Helvetica,sans-Serif" font-size="10.00">bulk::provider::BulkTranslator</text>
<text text-anchor="start" x="355.11" y="-209.5" font-family="Helvetica,sans-Serif" font-size="10.00">&#45;</text>
<text text-anchor="start" x="363.61" y="-209.5" font-family="Helvetica,sans-Serif" font-size="10.00">const size_t _BULK_SIZE</text>
<text text-anchor="start" x="355.11" y="-190.5" font-family="Helvetica,sans-Serif" font-size="10.00">&#45;</text>
<text text-anchor="start" x="363.61" y="-190.5" font-family="Helvetica,sans-Serif" font-size="10.00">VState _state</text>
<text text-anchor="start" x="353.61" y="-171.5" font-family="Helvetica,sans-Serif" font-size="10.00">+</text>
<text text-anchor="start" x="363.61" y="-171.5" font-family="Helvetica,sans-Serif" font-size="10.00">core::SubscriptionStatus</text>
<text text-anchor="start" x="363.61" y="-156.5" font-family="Helvetica,sans-Serif" font-size="10.00"> getSubscriptionStatus</text>
<text text-anchor="start" x="363.61" y="-141.5" font-family="Helvetica,sans-Serif" font-size="10.00">() noexcept override</text>
<text text-anchor="start" x="353.61" y="-122.5" font-family="Helvetica,sans-Serif" font-size="10.00">+</text>
<text text-anchor="start" x="363.61" y="-122.5" font-family="Helvetica,sans-Serif" font-size="10.00">core::SubscriptionStatus</text>
<text text-anchor="start" x="363.61" y="-107.5" font-family="Helvetica,sans-Serif" font-size="10.00"> onEvent(cmd::TokenEvent</text>
<text text-anchor="start" x="363.61" y="-92.5" font-family="Helvetica,sans-Serif" font-size="10.00"> const &amp;event) override</text>
<text text-anchor="start" x="353.61" y="-73.5" font-family="Helvetica,sans-Serif" font-size="10.00">+</text>
<text text-anchor="start" x="363.61" y="-73.5" font-family="Helvetica,sans-Serif" font-size="10.00">static std::shared</text>
<text text-anchor="start" x="363.61" y="-58.5" font-family="Helvetica,sans-Serif" font-size="10.00">_ptr&lt; BulkTranslator</text>
<text text-anchor="start" x="363.61" y="-43.5" font-family="Helvetica,sans-Serif" font-size="10.00"> &gt; create(size_t BULK_SIZE)</text>
<text text-anchor="start" x="355.11" y="-24.5" font-family="Helvetica,sans-Serif" font-size="10.00">&#45;</text>
<text text-anchor="start" x="363.61" y="-24.5" font-family="Helvetica,sans-Serif" font-size="10.00">BulkTranslator(size</text>
<text text-anchor="start" x="363.61" y="-9.5" font-family="Helvetica,sans-Serif" font-size="10.00">_t BULK_SIZE)</text>
<polygon fill="#666666" stroke="#666666" points="349.61,-221 349.61,-221 495.61,-221 495.61,-221 349.61,-221"/>
<polygon fill="#666666" stroke="#666666" points="349.61,-183 349.61,-183 361.61,-183 361.61,-183 349.61,-183"/>
<polygon fill="#666666" stroke="#666666" points="361.61,-183 361.61,-183 495.61,-183 495.61,-183 361.61,-183"/>
<polygon fill="none" stroke="#666666" points="349.61,0 349.61,-242 495.61,-242 495.61,0 349.61,0"/>
</a>
</g>
</g>
<!-- Node2 -->
<g id="Node000002" class="node">
<title>Node2</title>
<g id="a_Node000002"><a xlink:href="structcore_1_1SubscriberBase.html" target="_top" xlink:title=" ">
<polygon fill="white" stroke="none" points="550.61,-622 416.61,-622 416.61,-350 550.61,-350 550.61,-622"/>
<text text-anchor="start" x="436.74" y="-608.5" font-family="Helvetica,sans-Serif" font-size="10.00">core::SubscriberBase</text>
<text text-anchor="start" x="437.11" y="-593.5" font-family="Helvetica,sans-Serif" font-size="10.00">&lt; cmd::TokenEvent &gt;</text>
<text text-anchor="start" x="482.11" y="-574.5" font-family="Helvetica,sans-Serif" font-size="10.00"> </text>
<text text-anchor="start" x="420.61" y="-555.5" font-family="Helvetica,sans-Serif" font-size="10.00">+</text>
<text text-anchor="start" x="430.61" y="-555.5" font-family="Helvetica,sans-Serif" font-size="10.00">virtual ~SubscriberBase</text>
<text text-anchor="start" x="430.61" y="-540.5" font-family="Helvetica,sans-Serif" font-size="10.00">()=default</text>
<text text-anchor="start" x="420.61" y="-521.5" font-family="Helvetica,sans-Serif" font-size="10.00">+</text>
<text text-anchor="start" x="430.61" y="-521.5" font-family="Helvetica,sans-Serif" font-size="10.00">virtual SubscriptionStatus</text>
<text text-anchor="start" x="430.61" y="-506.5" font-family="Helvetica,sans-Serif" font-size="10.00"> onEvent(cmd::TokenEvent</text>
<text text-anchor="start" x="430.61" y="-491.5" font-family="Helvetica,sans-Serif" font-size="10.00"> const &amp;event)=0</text>
<text text-anchor="start" x="420.61" y="-472.5" font-family="Helvetica,sans-Serif" font-size="10.00">+</text>
<text text-anchor="start" x="430.61" y="-472.5" font-family="Helvetica,sans-Serif" font-size="10.00">virtual SubscriptionStatus</text>
<text text-anchor="start" x="430.61" y="-457.5" font-family="Helvetica,sans-Serif" font-size="10.00"> getSubscriptionStatus()</text>
<text text-anchor="start" x="430.61" y="-442.5" font-family="Helvetica,sans-Serif" font-size="10.00"> noexcept</text>
<text text-anchor="start" x="420.61" y="-423.5" font-family="Helvetica,sans-Serif" font-size="10.00">+</text>
<text text-anchor="start" x="430.61" y="-423.5" font-family="Helvetica,sans-Serif" font-size="10.00">virtual std::string</text>
<text text-anchor="start" x="430.61" y="-408.5" font-family="Helvetica,sans-Serif" font-size="10.00"> getSubscriberID() final</text>
<text text-anchor="start" x="420.99" y="-389.5" font-family="Helvetica,sans-Serif" font-size="10.00">#</text>
<text text-anchor="start" x="430.61" y="-389.5" font-family="Helvetica,sans-Serif" font-size="10.00">virtual std::string</text>
<text text-anchor="start" x="430.61" y="-374.5" font-family="Helvetica,sans-Serif" font-size="10.00"> getSubscriberName()</text>
<text text-anchor="start" x="430.61" y="-359.5" font-family="Helvetica,sans-Serif" font-size="10.00"> const noexcept</text>
<polygon fill="#666666" stroke="#666666" points="416.61,-586 416.61,-586 550.61,-586 550.61,-586 416.61,-586"/>
<polygon fill="#666666" stroke="#666666" points="416.61,-567 416.61,-567 550.61,-567 550.61,-567 416.61,-567"/>
<polygon fill="none" stroke="#666666" points="416.61,-350 416.61,-622 550.61,-622 550.61,-350 416.61,-350"/>
</a>
</g>
</g>
<!-- Node2&#45;&gt;Node1 -->
<g id="edge1_Node000001_Node000002" class="edge">
<title>Node2&#45;&gt;Node1</title>
<g id="a_edge1_Node000001_Node000002"><a xlink:title=" ">
<path fill="none" stroke="#63b8ff" d="M459.18,-339.62C453.74,-307.2 448.02,-273.17 442.76,-241.91"/>
<polygon fill="none" stroke="#63b8ff" points="455.83,-339.81 460.94,-349.09 462.74,-338.65 455.83,-339.81"/>
</a>
</g>
</g>
<!-- Node3 -->
<g id="Node000003" class="node">
<title>Node3</title>
<g id="a_Node000003"><a xlink:title=" ">
<polygon fill="white" stroke="none" points="444.11,-1228 391.11,-1228 391.11,-1167 444.11,-1167 444.11,-1228"/>
<text text-anchor="start" x="395.86" y="-1214.5" font-family="Helvetica,sans-Serif" font-size="10.00">std::string</text>
<text text-anchor="start" x="416.11" y="-1195.5" font-family="Helvetica,sans-Serif" font-size="10.00"> </text>
<text text-anchor="start" x="416.11" y="-1176.5" font-family="Helvetica,sans-Serif" font-size="10.00"> </text>
<polygon fill="#666666" stroke="#666666" points="391.11,-1207 391.11,-1207 444.11,-1207 444.11,-1207 391.11,-1207"/>
<polygon fill="#666666" stroke="#666666" points="391.11,-1188 391.11,-1188 444.11,-1188 444.11,-1188 391.11,-1188"/>
<polygon fill="none" stroke="#666666" points="391.11,-1167 391.11,-1228 444.11,-1228 444.11,-1167 391.11,-1167"/>
</a>
</g>
</g>
<!-- Node3&#45;&gt;Node2 -->
<g id="edge2_Node000002_Node000003" class="edge">
<title>Node3&#45;&gt;Node2</title>
<g id="a_edge2_Node000002_Node000003"><a xlink:title=" ">
<path fill="none" stroke="#63b8ff" d="M416.07,-1167.14C412.66,-1093.33 406.3,-894.17 426.86,-730 430.79,-698.69 437.07,-665.53 444.05,-634.1"/>
<polygon fill="none" stroke="#63b8ff" points="444.02,-634.27 441.44,-627.53 446.67,-622.57 449.24,-629.3 444.02,-634.27"/>
</a>
</g>
<text text-anchor="middle" x="436.99" y="-921" font-family="Helvetica,sans-Serif" font-size="10.00" fill="grey"> &#45;_id</text>
</g>
<!-- Node5 -->
<g id="Node000005" class="node">
<title>Node5</title>
<g id="a_Node000005"><a xlink:href="structcore_1_1SubscriberBase.html" target="_top" xlink:title=" ">
<polygon fill="white" stroke="none" points="586.61,-1059 454.61,-1059 454.61,-787 586.61,-787 586.61,-1059"/>
<text text-anchor="start" x="473.74" y="-1045.5" font-family="Helvetica,sans-Serif" font-size="10.00">core::SubscriberBase</text>
<text text-anchor="start" x="488.74" y="-1030.5" font-family="Helvetica,sans-Serif" font-size="10.00">&lt; EventType &gt;</text>
<text text-anchor="start" x="519.11" y="-1011.5" font-family="Helvetica,sans-Serif" font-size="10.00"> </text>
<text text-anchor="start" x="458.61" y="-992.5" font-family="Helvetica,sans-Serif" font-size="10.00">+</text>
<text text-anchor="start" x="468.61" y="-992.5" font-family="Helvetica,sans-Serif" font-size="10.00">virtual ~SubscriberBase</text>
<text text-anchor="start" x="468.61" y="-977.5" font-family="Helvetica,sans-Serif" font-size="10.00">()=default</text>
<text text-anchor="start" x="458.61" y="-958.5" font-family="Helvetica,sans-Serif" font-size="10.00">+</text>
<text text-anchor="start" x="468.61" y="-958.5" font-family="Helvetica,sans-Serif" font-size="10.00">virtual SubscriptionStatus</text>
<text text-anchor="start" x="468.61" y="-943.5" font-family="Helvetica,sans-Serif" font-size="10.00"> onEvent(EventType const</text>
<text text-anchor="start" x="468.61" y="-928.5" font-family="Helvetica,sans-Serif" font-size="10.00"> &amp;event)=0</text>
<text text-anchor="start" x="458.61" y="-909.5" font-family="Helvetica,sans-Serif" font-size="10.00">+</text>
<text text-anchor="start" x="468.61" y="-909.5" font-family="Helvetica,sans-Serif" font-size="10.00">virtual SubscriptionStatus</text>
<text text-anchor="start" x="468.61" y="-894.5" font-family="Helvetica,sans-Serif" font-size="10.00"> getSubscriptionStatus()</text>
<text text-anchor="start" x="468.61" y="-879.5" font-family="Helvetica,sans-Serif" font-size="10.00"> noexcept</text>
<text text-anchor="start" x="458.61" y="-860.5" font-family="Helvetica,sans-Serif" font-size="10.00">+</text>
<text text-anchor="start" x="468.61" y="-860.5" font-family="Helvetica,sans-Serif" font-size="10.00">virtual std::string</text>
<text text-anchor="start" x="468.61" y="-845.5" font-family="Helvetica,sans-Serif" font-size="10.00"> getSubscriberID() final</text>
<text text-anchor="start" x="458.99" y="-826.5" font-family="Helvetica,sans-Serif" font-size="10.00">#</text>
<text text-anchor="start" x="468.61" y="-826.5" font-family="Helvetica,sans-Serif" font-size="10.00">virtual std::string</text>
<text text-anchor="start" x="468.61" y="-811.5" font-family="Helvetica,sans-Serif" font-size="10.00"> getSubscriberName()</text>
<text text-anchor="start" x="468.61" y="-796.5" font-family="Helvetica,sans-Serif" font-size="10.00"> const noexcept</text>
<polygon fill="#666666" stroke="#666666" points="454.61,-1023 454.61,-1023 586.61,-1023 586.61,-1023 454.61,-1023"/>
<polygon fill="#666666" stroke="#666666" points="454.61,-1004 454.61,-1004 586.61,-1004 586.61,-1004 454.61,-1004"/>
<polygon fill="none" stroke="#666666" points="454.61,-787 454.61,-1059 586.61,-1059 586.61,-787 454.61,-787"/>
</a>
</g>
</g>
<!-- Node3&#45;&gt;Node5 -->
<g id="edge5_Node000005_Node000003" class="edge">
<title>Node3&#45;&gt;Node5</title>
<g id="a_edge5_Node000005_Node000003"><a xlink:title=" ">
<path fill="none" stroke="#63b8ff" d="M428.74,-1167.08C437.77,-1143.17 451.25,-1107.51 465.12,-1070.82"/>
<polygon fill="none" stroke="#63b8ff" points="465.07,-1070.95 463.45,-1063.93 469.31,-1059.73 470.93,-1066.75 465.07,-1070.95"/>
</a>
</g>
<text text-anchor="middle" x="449.99" y="-1139.5" font-family="Helvetica,sans-Serif" font-size="10.00" fill="grey"> &#45;_id</text>
</g>
<!-- Node13 -->
<g id="Node000013" class="node">
<title>Node13</title>
<g id="a_Node000013"><a xlink:title=" ">
<polygon fill="white" stroke="none" points="381.11,-953.5 264.11,-953.5 264.11,-892.5 381.11,-892.5 381.11,-953.5"/>
<text text-anchor="start" x="268.99" y="-940" font-family="Helvetica,sans-Serif" font-size="10.00">std::vector&lt; std::string &gt;</text>
<text text-anchor="start" x="321.11" y="-921" font-family="Helvetica,sans-Serif" font-size="10.00"> </text>
<text text-anchor="start" x="321.11" y="-902" font-family="Helvetica,sans-Serif" font-size="10.00"> </text>
<polygon fill="#666666" stroke="#666666" points="264.11,-932.5 264.11,-932.5 381.11,-932.5 381.11,-932.5 264.11,-932.5"/>
<polygon fill="#666666" stroke="#666666" points="264.11,-913.5 264.11,-913.5 381.11,-913.5 381.11,-913.5 264.11,-913.5"/>
<polygon fill="none" stroke="#666666" points="264.11,-892.5 264.11,-953.5 381.11,-953.5 381.11,-892.5 264.11,-892.5"/>
</a>
</g>
</g>
<!-- Node3&#45;&gt;Node13 -->
<g id="edge15_Node000013_Node000003" class="edge">
<title>Node3&#45;&gt;Node13</title>
<g id="a_edge15_Node000013_Node000003"><a xlink:title=" ">
<path fill="none" stroke="#63b8ff" d="M391.43,-1178.12C375.31,-1166.55 357.26,-1153.06 354.86,-1149 321.42,-1092.26 317.88,-1013.85 319.46,-966.16"/>
<polygon fill="none" stroke="#63b8ff" points="319.46,-966.16 315.74,-959.99 320,-954.18 323.73,-960.35 319.46,-966.16"/>
</a>
</g>
<text text-anchor="middle" x="379.99" y="-1139.5" font-family="Helvetica,sans-Serif" font-size="10.00" fill="grey"> +elements</text>
</g>
<!-- Node4 -->
<g id="Node000004" class="node">
<title>Node4</title>
<g id="a_Node000004"><a xlink:title=" ">
<polygon fill="white" stroke="none" points="461.61,-1401 373.61,-1401 373.61,-1325 461.61,-1325 461.61,-1401"/>
<text text-anchor="start" x="378.61" y="-1387.5" font-family="Helvetica,sans-Serif" font-size="10.00">std::basic_string&lt;</text>
<text text-anchor="start" x="401.11" y="-1372.5" font-family="Helvetica,sans-Serif" font-size="10.00"> Char &gt;</text>
<text text-anchor="start" x="416.11" y="-1353.5" font-family="Helvetica,sans-Serif" font-size="10.00"> </text>
<text text-anchor="start" x="416.11" y="-1334.5" font-family="Helvetica,sans-Serif" font-size="10.00"> </text>
<polygon fill="#666666" stroke="#666666" points="373.61,-1365 373.61,-1365 461.61,-1365 461.61,-1365 373.61,-1365"/>
<polygon fill="#666666" stroke="#666666" points="373.61,-1346 373.61,-1346 461.61,-1346 461.61,-1346 373.61,-1346"/>
<polygon fill="none" stroke="#666666" points="373.61,-1325 373.61,-1401 461.61,-1401 461.61,-1325 373.61,-1325"/>
</a>
</g>
</g>
<!-- Node4&#45;&gt;Node3 -->
<g id="edge3_Node000003_Node000004" class="edge">
<title>Node4&#45;&gt;Node3</title>
<g id="a_edge3_Node000003_Node000004"><a xlink:title=" ">
<path fill="none" stroke="#63b8ff" d="M417.61,-1314.55C417.61,-1286.59 417.61,-1252.07 417.61,-1227.98"/>
<polygon fill="none" stroke="#63b8ff" points="414.11,-1314.31 417.61,-1324.31 421.11,-1314.31 414.11,-1314.31"/>
</a>
</g>
</g>
<!-- Node5&#45;&gt;Node2 -->
<g id="edge4_Node000002_Node000005" class="edge">
<title>Node5&#45;&gt;Node2</title>
<g id="a_edge4_Node000002_Node000005"><a xlink:title=" ">
<path fill="none" stroke="orange" d="M508.21,-776.18C503.97,-726.36 499.26,-670.89 495.09,-621.97"/>
<polygon fill="orange" stroke="orange" points="504.8,-776.38 509.14,-786.05 511.78,-775.78 504.8,-776.38"/>
</a>
</g>
<text text-anchor="middle" x="550.61" y="-702.5" font-family="Helvetica,sans-Serif" font-size="10.00" fill="grey"> &lt; cmd::TokenEvent &gt;</text>
</g>
<!-- Node6 -->
<g id="Node000006" class="node">
<title>Node6</title>
<g id="a_Node000006"><a xlink:href="classcore_1_1PublisherMixin.html" target="_top" xlink:title=" ">
<polygon fill="white" stroke="none" points="229.11,-679 70.11,-679 70.11,-293 229.11,-293 229.11,-679"/>
<text text-anchor="start" x="105.36" y="-665.5" font-family="Helvetica,sans-Serif" font-size="10.00">core::PublisherMixin</text>
<text text-anchor="start" x="118.49" y="-650.5" font-family="Helvetica,sans-Serif" font-size="10.00">&lt; BulkEvent &gt;</text>
<text text-anchor="start" x="148.11" y="-631.5" font-family="Helvetica,sans-Serif" font-size="10.00"> </text>
<text text-anchor="start" x="74.11" y="-612.5" font-family="Helvetica,sans-Serif" font-size="10.00">+</text>
<text text-anchor="start" x="84.11" y="-612.5" font-family="Helvetica,sans-Serif" font-size="10.00">virtual ~PublisherMixin</text>
<text text-anchor="start" x="84.11" y="-597.5" font-family="Helvetica,sans-Serif" font-size="10.00">()=default</text>
<text text-anchor="start" x="74.11" y="-578.5" font-family="Helvetica,sans-Serif" font-size="10.00">+</text>
<text text-anchor="start" x="84.11" y="-578.5" font-family="Helvetica,sans-Serif" font-size="10.00">void subscribe(SPtrSubscriber</text>
<text text-anchor="start" x="84.11" y="-563.5" font-family="Helvetica,sans-Serif" font-size="10.00"> const &amp;subscriber, bool own)</text>
<text text-anchor="start" x="74.11" y="-544.5" font-family="Helvetica,sans-Serif" font-size="10.00">+</text>
<text text-anchor="start" x="84.11" y="-544.5" font-family="Helvetica,sans-Serif" font-size="10.00">void subscribe(SPtrSubscriber</text>
<text text-anchor="start" x="84.11" y="-529.5" font-family="Helvetica,sans-Serif" font-size="10.00"> &amp;&amp;subscriber)</text>
<text text-anchor="start" x="74.11" y="-510.5" font-family="Helvetica,sans-Serif" font-size="10.00">+</text>
<text text-anchor="start" x="84.11" y="-510.5" font-family="Helvetica,sans-Serif" font-size="10.00">bool hasSubscription()</text>
<text text-anchor="start" x="74.11" y="-491.5" font-family="Helvetica,sans-Serif" font-size="10.00">+</text>
<text text-anchor="start" x="84.11" y="-491.5" font-family="Helvetica,sans-Serif" font-size="10.00">void unsubscribe(SPtrSubscriber</text>
<text text-anchor="start" x="84.11" y="-476.5" font-family="Helvetica,sans-Serif" font-size="10.00"> const &amp;subscriber)</text>
<text text-anchor="start" x="74.11" y="-457.5" font-family="Helvetica,sans-Serif" font-size="10.00">+</text>
<text text-anchor="start" x="84.11" y="-457.5" font-family="Helvetica,sans-Serif" font-size="10.00">void clear()</text>
<text text-anchor="start" x="74.49" y="-438.5" font-family="Helvetica,sans-Serif" font-size="10.00">#</text>
<text text-anchor="start" x="84.11" y="-438.5" font-family="Helvetica,sans-Serif" font-size="10.00">PublisherMixin()</text>
<text text-anchor="start" x="74.49" y="-419.5" font-family="Helvetica,sans-Serif" font-size="10.00">#</text>
<text text-anchor="start" x="84.11" y="-419.5" font-family="Helvetica,sans-Serif" font-size="10.00">void notify(BulkEvent</text>
<text text-anchor="start" x="84.11" y="-404.5" font-family="Helvetica,sans-Serif" font-size="10.00"> const &amp;event)</text>
<text text-anchor="start" x="75.61" y="-385.5" font-family="Helvetica,sans-Serif" font-size="10.00">&#45;</text>
<text text-anchor="start" x="84.11" y="-385.5" font-family="Helvetica,sans-Serif" font-size="10.00">std::optional&lt; SPtrSubscriber</text>
<text text-anchor="start" x="84.11" y="-370.5" font-family="Helvetica,sans-Serif" font-size="10.00"> &gt; _getShared(VPtrSubscriber</text>
<text text-anchor="start" x="84.11" y="-355.5" font-family="Helvetica,sans-Serif" font-size="10.00"> const &amp;vptr)</text>
<text text-anchor="start" x="75.61" y="-336.5" font-family="Helvetica,sans-Serif" font-size="10.00">&#45;</text>
<text text-anchor="start" x="84.11" y="-336.5" font-family="Helvetica,sans-Serif" font-size="10.00">auto _findSteady(std</text>
<text text-anchor="start" x="84.11" y="-321.5" font-family="Helvetica,sans-Serif" font-size="10.00">::string_view id)</text>
<text text-anchor="start" x="75.61" y="-302.5" font-family="Helvetica,sans-Serif" font-size="10.00">&#45;</text>
<text text-anchor="start" x="84.11" y="-302.5" font-family="Helvetica,sans-Serif" font-size="10.00">void _refresh()</text>
<polygon fill="#666666" stroke="#666666" points="70.11,-643 70.11,-643 229.11,-643 229.11,-643 70.11,-643"/>
<polygon fill="#666666" stroke="#666666" points="70.11,-624 70.11,-624 229.11,-624 229.11,-624 70.11,-624"/>
<polygon fill="none" stroke="#666666" points="70.11,-293 70.11,-679 229.11,-679 229.11,-293 70.11,-293"/>
</a>
</g>
</g>
<!-- Node6&#45;&gt;Node1 -->
<g id="edge6_Node000001_Node000006" class="edge">
<title>Node6&#45;&gt;Node1</title>
<g id="a_edge6_Node000001_Node000006"><a xlink:title=" ">
<path fill="none" stroke="#63b8ff" d="M235.18,-296.41C235.99,-295.26 236.8,-294.13 237.61,-293 269.06,-249.62 312.77,-208.6 349.81,-177.62"/>
<polygon fill="none" stroke="#63b8ff" points="231.83,-294.1 229.09,-304.33 237.61,-298.05 231.83,-294.1"/>
</a>
</g>
</g>
<!-- Node7 -->
<g id="Node000007" class="node">
<title>Node7</title>
<g id="a_Node000007"><a xlink:title=" ">
<polygon fill="white" stroke="none" points="229.61,-1228 103.61,-1228 103.61,-1167 229.61,-1167 229.61,-1228"/>
<text text-anchor="start" x="108.49" y="-1214.5" font-family="Helvetica,sans-Serif" font-size="10.00">std::list&lt; VPtrSubscriber &gt;</text>
<text text-anchor="start" x="107.61" y="-1195.5" font-family="Helvetica,sans-Serif" font-size="10.00">+</text>
<text text-anchor="start" x="117.61" y="-1195.5" font-family="Helvetica,sans-Serif" font-size="10.00">VPtrSubscriber elements</text>
<text text-anchor="start" x="165.11" y="-1176.5" font-family="Helvetica,sans-Serif" font-size="10.00"> </text>
<polygon fill="#666666" stroke="#666666" points="103.61,-1207 103.61,-1207 229.61,-1207 229.61,-1207 103.61,-1207"/>
<polygon fill="#666666" stroke="#666666" points="103.61,-1188 103.61,-1188 115.61,-1188 115.61,-1188 103.61,-1188"/>
<polygon fill="#666666" stroke="#666666" points="115.61,-1188 115.61,-1188 229.61,-1188 229.61,-1188 115.61,-1188"/>
<polygon fill="none" stroke="#666666" points="103.61,-1167 103.61,-1228 229.61,-1228 229.61,-1167 103.61,-1167"/>
</a>
</g>
</g>
<!-- Node7&#45;&gt;Node6 -->
<g id="edge7_Node000006_Node000007" class="edge">
<title>Node7&#45;&gt;Node6</title>
<g id="a_edge7_Node000006_Node000007"><a xlink:title=" ">
<path fill="none" stroke="#63b8ff" d="M103.87,-1170.47C81.21,-1157.63 58.08,-1139.71 45.36,-1116 -35.73,-964.82 10.84,-898.05 45.36,-730 50.18,-706.55 57.37,-682.56 65.75,-659.24"/>
<polygon fill="none" stroke="#63b8ff" points="65.76,-659.21 64.09,-652.19 69.92,-647.95 71.59,-654.97 65.76,-659.21"/>
</a>
</g>
<text text-anchor="middle" x="61.74" y="-921" font-family="Helvetica,sans-Serif" font-size="10.00" fill="grey"> &#45;_subs</text>
</g>
<!-- Node10 -->
<g id="Node000010" class="node">
<title>Node10</title>
<g id="a_Node000010"><a xlink:href="classcore_1_1PublisherMixin.html" target="_top" xlink:title=" ">
<polygon fill="white" stroke="none" points="246.11,-1116 87.11,-1116 87.11,-730 246.11,-730 246.11,-1116"/>
<text text-anchor="start" x="122.36" y="-1102.5" font-family="Helvetica,sans-Serif" font-size="10.00">core::PublisherMixin</text>
<text text-anchor="start" x="134.74" y="-1087.5" font-family="Helvetica,sans-Serif" font-size="10.00">&lt; EventType &gt;</text>
<text text-anchor="start" x="165.11" y="-1068.5" font-family="Helvetica,sans-Serif" font-size="10.00"> </text>
<text text-anchor="start" x="91.11" y="-1049.5" font-family="Helvetica,sans-Serif" font-size="10.00">+</text>
<text text-anchor="start" x="101.11" y="-1049.5" font-family="Helvetica,sans-Serif" font-size="10.00">virtual ~PublisherMixin</text>
<text text-anchor="start" x="101.11" y="-1034.5" font-family="Helvetica,sans-Serif" font-size="10.00">()=default</text>
<text text-anchor="start" x="91.11" y="-1015.5" font-family="Helvetica,sans-Serif" font-size="10.00">+</text>
<text text-anchor="start" x="101.11" y="-1015.5" font-family="Helvetica,sans-Serif" font-size="10.00">void subscribe(SPtrSubscriber</text>
<text text-anchor="start" x="101.11" y="-1000.5" font-family="Helvetica,sans-Serif" font-size="10.00"> const &amp;subscriber, bool own)</text>
<text text-anchor="start" x="91.11" y="-981.5" font-family="Helvetica,sans-Serif" font-size="10.00">+</text>
<text text-anchor="start" x="101.11" y="-981.5" font-family="Helvetica,sans-Serif" font-size="10.00">void subscribe(SPtrSubscriber</text>
<text text-anchor="start" x="101.11" y="-966.5" font-family="Helvetica,sans-Serif" font-size="10.00"> &amp;&amp;subscriber)</text>
<text text-anchor="start" x="91.11" y="-947.5" font-family="Helvetica,sans-Serif" font-size="10.00">+</text>
<text text-anchor="start" x="101.11" y="-947.5" font-family="Helvetica,sans-Serif" font-size="10.00">bool hasSubscription()</text>
<text text-anchor="start" x="91.11" y="-928.5" font-family="Helvetica,sans-Serif" font-size="10.00">+</text>
<text text-anchor="start" x="101.11" y="-928.5" font-family="Helvetica,sans-Serif" font-size="10.00">void unsubscribe(SPtrSubscriber</text>
<text text-anchor="start" x="101.11" y="-913.5" font-family="Helvetica,sans-Serif" font-size="10.00"> const &amp;subscriber)</text>
<text text-anchor="start" x="91.11" y="-894.5" font-family="Helvetica,sans-Serif" font-size="10.00">+</text>
<text text-anchor="start" x="101.11" y="-894.5" font-family="Helvetica,sans-Serif" font-size="10.00">void clear()</text>
<text text-anchor="start" x="91.49" y="-875.5" font-family="Helvetica,sans-Serif" font-size="10.00">#</text>
<text text-anchor="start" x="101.11" y="-875.5" font-family="Helvetica,sans-Serif" font-size="10.00">PublisherMixin()</text>
<text text-anchor="start" x="91.49" y="-856.5" font-family="Helvetica,sans-Serif" font-size="10.00">#</text>
<text text-anchor="start" x="101.11" y="-856.5" font-family="Helvetica,sans-Serif" font-size="10.00">void notify(EventType</text>
<text text-anchor="start" x="101.11" y="-841.5" font-family="Helvetica,sans-Serif" font-size="10.00"> const &amp;event)</text>
<text text-anchor="start" x="92.61" y="-822.5" font-family="Helvetica,sans-Serif" font-size="10.00">&#45;</text>
<text text-anchor="start" x="101.11" y="-822.5" font-family="Helvetica,sans-Serif" font-size="10.00">std::optional&lt; SPtrSubscriber</text>
<text text-anchor="start" x="101.11" y="-807.5" font-family="Helvetica,sans-Serif" font-size="10.00"> &gt; _getShared(VPtrSubscriber</text>
<text text-anchor="start" x="101.11" y="-792.5" font-family="Helvetica,sans-Serif" font-size="10.00"> const &amp;vptr)</text>
<text text-anchor="start" x="92.61" y="-773.5" font-family="Helvetica,sans-Serif" font-size="10.00">&#45;</text>
<text text-anchor="start" x="101.11" y="-773.5" font-family="Helvetica,sans-Serif" font-size="10.00">auto _findSteady(std</text>
<text text-anchor="start" x="101.11" y="-758.5" font-family="Helvetica,sans-Serif" font-size="10.00">::string_view id)</text>
<text text-anchor="start" x="92.61" y="-739.5" font-family="Helvetica,sans-Serif" font-size="10.00">&#45;</text>
<text text-anchor="start" x="101.11" y="-739.5" font-family="Helvetica,sans-Serif" font-size="10.00">void _refresh()</text>
<polygon fill="#666666" stroke="#666666" points="87.11,-1080 87.11,-1080 246.11,-1080 246.11,-1080 87.11,-1080"/>
<polygon fill="#666666" stroke="#666666" points="87.11,-1061 87.11,-1061 246.11,-1061 246.11,-1061 87.11,-1061"/>
<polygon fill="none" stroke="#666666" points="87.11,-730 87.11,-1116 246.11,-1116 246.11,-730 87.11,-730"/>
</a>
</g>
</g>
<!-- Node7&#45;&gt;Node10 -->
<g id="edge11_Node000010_Node000007" class="edge">
<title>Node7&#45;&gt;Node10</title>
<g id="a_edge11_Node000010_Node000007"><a xlink:title=" ">
<path fill="none" stroke="#63b8ff" d="M166.61,-1167.08C166.61,-1156.38 166.61,-1143.33 166.61,-1128.88"/>
<polygon fill="none" stroke="#63b8ff" points="166.61,-1128.76 162.61,-1122.76 166.61,-1116.76 170.61,-1122.76 166.61,-1128.76"/>
</a>
</g>
<text text-anchor="middle" x="182.74" y="-1139.5" font-family="Helvetica,sans-Serif" font-size="10.00" fill="grey"> &#45;_subs</text>
</g>
<!-- Node8 -->
<g id="Node000008" class="node">
<title>Node8</title>
<g id="a_Node000008"><a xlink:title=" ">
<polygon fill="white" stroke="none" points="211.61,-1393.5 145.61,-1393.5 145.61,-1332.5 211.61,-1332.5 211.61,-1393.5"/>
<text text-anchor="start" x="150.49" y="-1380" font-family="Helvetica,sans-Serif" font-size="10.00">std::list&lt; T &gt;</text>
<text text-anchor="start" x="177.11" y="-1361" font-family="Helvetica,sans-Serif" font-size="10.00"> </text>
<text text-anchor="start" x="177.11" y="-1342" font-family="Helvetica,sans-Serif" font-size="10.00"> </text>
<polygon fill="#666666" stroke="#666666" points="145.61,-1372.5 145.61,-1372.5 211.61,-1372.5 211.61,-1372.5 145.61,-1372.5"/>
<polygon fill="#666666" stroke="#666666" points="145.61,-1353.5 145.61,-1353.5 211.61,-1353.5 211.61,-1353.5 145.61,-1353.5"/>
<polygon fill="none" stroke="#666666" points="145.61,-1332.5 145.61,-1393.5 211.61,-1393.5 211.61,-1332.5 145.61,-1332.5"/>
</a>
</g>
</g>
<!-- Node8&#45;&gt;Node7 -->
<g id="edge8_Node000007_Node000008" class="edge">
<title>Node8&#45;&gt;Node7</title>
<g id="a_edge8_Node000007_Node000008"><a xlink:title=" ">
<path fill="none" stroke="orange" d="M171.41,-1321.92C170.7,-1316.91 170.08,-1311.84 169.61,-1307 167.06,-1280.17 166.42,-1249.46 166.36,-1227.58"/>
<polygon fill="orange" stroke="orange" points="168.09,-1322.34 173.07,-1331.7 175.01,-1321.28 168.09,-1322.34"/>
</a>
</g>
<text text-anchor="middle" x="213.11" y="-1274.5" font-family="Helvetica,sans-Serif" font-size="10.00" fill="grey"> &lt; VPtrSubscriber &gt;</text>
</g>
<!-- Node9 -->
<g id="Node000009" class="node">
<title>Node9</title>
<g id="a_Node000009"><a xlink:title=" ">
<polygon fill="white" stroke="none" points="252.61,-1513 236.61,-1513 236.61,-1452 252.61,-1452 252.61,-1513"/>
<text text-anchor="start" x="241.61" y="-1499.5" font-family="Helvetica,sans-Serif" font-size="10.00">T</text>
<text text-anchor="start" x="243.11" y="-1480.5" font-family="Helvetica,sans-Serif" font-size="10.00"> </text>
<text text-anchor="start" x="243.11" y="-1461.5" font-family="Helvetica,sans-Serif" font-size="10.00"> </text>
<polygon fill="#666666" stroke="#666666" points="236.61,-1492 236.61,-1492 252.61,-1492 252.61,-1492 236.61,-1492"/>
<polygon fill="#666666" stroke="#666666" points="236.61,-1473 236.61,-1473 252.61,-1473 252.61,-1473 236.61,-1473"/>
<polygon fill="none" stroke="#666666" points="236.61,-1452 236.61,-1513 252.61,-1513 252.61,-1452 236.61,-1452"/>
</a>
</g>
</g>
<!-- Node9&#45;&gt;Node8 -->
<g id="edge9_Node000008_Node000009" class="edge">
<title>Node9&#45;&gt;Node8</title>
<g id="a_edge9_Node000008_Node000009"><a xlink:title=" ">
<path fill="none" stroke="#63b8ff" d="M236.78,-1467.56C228.1,-1452.1 213.69,-1426.45 201.39,-1404.55"/>
<polygon fill="none" stroke="#63b8ff" points="201.32,-1404.43 194.9,-1401.16 195.45,-1393.97 201.87,-1397.24 201.32,-1404.43"/>
</a>
</g>
<text text-anchor="middle" x="241.99" y="-1424.5" font-family="Helvetica,sans-Serif" font-size="10.00" fill="grey"> +elements</text>
</g>
<!-- Node14 -->
<g id="Node000014" class="node">
<title>Node14</title>
<g id="a_Node000014"><a xlink:title=" ">
<polygon fill="white" stroke="none" points="345.11,-1307 266.11,-1307 266.11,-1246 345.11,-1246 345.11,-1307"/>
<text text-anchor="start" x="270.74" y="-1293.5" font-family="Helvetica,sans-Serif" font-size="10.00">std::vector&lt; T &gt;</text>
<text text-anchor="start" x="304.11" y="-1274.5" font-family="Helvetica,sans-Serif" font-size="10.00"> </text>
<text text-anchor="start" x="304.11" y="-1255.5" font-family="Helvetica,sans-Serif" font-size="10.00"> </text>
<polygon fill="#666666" stroke="#666666" points="266.11,-1286 266.11,-1286 345.11,-1286 345.11,-1286 266.11,-1286"/>
<polygon fill="#666666" stroke="#666666" points="266.11,-1267 266.11,-1267 345.11,-1267 345.11,-1267 266.11,-1267"/>
<polygon fill="none" stroke="#666666" points="266.11,-1246 266.11,-1307 345.11,-1307 345.11,-1246 266.11,-1246"/>
</a>
</g>
</g>
<!-- Node9&#45;&gt;Node14 -->
<g id="edge17_Node000014_Node000009" class="edge">
<title>Node9&#45;&gt;Node14</title>
<g id="a_edge17_Node000014_Node000009"><a xlink:title=" ">
<path fill="none" stroke="#63b8ff" d="M252.45,-1469.45C258.21,-1460.11 265.84,-1446.67 270.61,-1434 284.81,-1396.33 294.14,-1351.3 299.56,-1319.23"/>
<polygon fill="none" stroke="#63b8ff" points="299.52,-1319.5 296.53,-1312.93 301.44,-1307.65 304.43,-1314.22 299.52,-1319.5"/>
</a>
</g>
<text text-anchor="middle" x="300.99" y="-1424.5" font-family="Helvetica,sans-Serif" font-size="10.00" fill="grey"> +elements</text>
</g>
<!-- Node10&#45;&gt;Node6 -->
<g id="edge10_Node000006_Node000010" class="edge">
<title>Node10&#45;&gt;Node6</title>
<g id="a_edge10_Node000006_Node000010"><a xlink:title=" ">
<path fill="none" stroke="orange" d="M158.7,-719.42C158.17,-705.88 157.64,-692.27 157.11,-678.79"/>
<polygon fill="orange" stroke="orange" points="155.23,-719.4 159.12,-729.25 162.23,-719.12 155.23,-719.4"/>
</a>
</g>
<text text-anchor="middle" x="191.24" y="-702.5" font-family="Helvetica,sans-Serif" font-size="10.00" fill="grey"> &lt; BulkEvent &gt;</text>
</g>
<!-- Node11 -->
<g id="Node000011" class="node">
<title>Node11</title>
<g id="a_Node000011"><a xlink:title=" ">
<polygon fill="white" stroke="none" points="704.61,-524 568.61,-524 568.61,-448 704.61,-448 704.61,-524"/>
<text text-anchor="start" x="573.61" y="-510.5" font-family="Helvetica,sans-Serif" font-size="10.00">std::enable_shared</text>
<text text-anchor="start" x="573.61" y="-495.5" font-family="Helvetica,sans-Serif" font-size="10.00">_from_this&lt; BulkTranslator &gt;</text>
<text text-anchor="start" x="635.11" y="-476.5" font-family="Helvetica,sans-Serif" font-size="10.00"> </text>
<text text-anchor="start" x="635.11" y="-457.5" font-family="Helvetica,sans-Serif" font-size="10.00"> </text>
<polygon fill="#666666" stroke="#666666" points="568.61,-488 568.61,-488 704.61,-488 704.61,-488 568.61,-488"/>
<polygon fill="#666666" stroke="#666666" points="568.61,-469 568.61,-469 704.61,-469 704.61,-469 568.61,-469"/>
<polygon fill="none" stroke="#666666" points="568.61,-448 568.61,-524 704.61,-524 704.61,-448 568.61,-448"/>
</a>
</g>
</g>
<!-- Node11&#45;&gt;Node1 -->
<g id="edge12_Node000001_Node000011" class="edge">
<title>Node11&#45;&gt;Node1</title>
<g id="a_edge12_Node000001_Node000011"><a xlink:title=" ">
<path fill="none" stroke="#63b8ff" d="M622.06,-437.87C608.7,-397.87 586.87,-339.69 559.61,-293 541.39,-261.79 517.83,-230.2 495.4,-202.8"/>
<polygon fill="none" stroke="#63b8ff" points="618.99,-438.73 625.43,-447.14 625.64,-436.55 618.99,-438.73"/>
</a>
</g>
</g>
<!-- Node12 -->
<g id="Node000012" class="node">
<title>Node12</title>
<g id="a_Node000012"><a xlink:href="namespacebulk.html#structbulk_1_1BulkEvent" target="_top" xlink:title=" ">
<polygon fill="white" stroke="none" points="398.11,-524 247.11,-524 247.11,-448 398.11,-448 398.11,-524"/>
<text text-anchor="start" x="288.49" y="-510.5" font-family="Helvetica,sans-Serif" font-size="10.00">bulk::BulkEvent</text>
<text text-anchor="start" x="251.11" y="-491.5" font-family="Helvetica,sans-Serif" font-size="10.00">+</text>
<text text-anchor="start" x="261.11" y="-491.5" font-family="Helvetica,sans-Serif" font-size="10.00">std::chrono::system</text>
<text text-anchor="start" x="261.11" y="-476.5" font-family="Helvetica,sans-Serif" font-size="10.00">_clock::time_point time_stamp</text>
<text text-anchor="start" x="321.11" y="-457.5" font-family="Helvetica,sans-Serif" font-size="10.00"> </text>
<polygon fill="#666666" stroke="#666666" points="247.11,-503 247.11,-503 398.11,-503 398.11,-503 247.11,-503"/>
<polygon fill="#666666" stroke="#666666" points="247.11,-469 247.11,-469 259.11,-469 259.11,-469 247.11,-469"/>
<polygon fill="#666666" stroke="#666666" points="259.11,-469 259.11,-469 398.11,-469 398.11,-469 259.11,-469"/>
<polygon fill="none" stroke="#666666" points="247.11,-448 247.11,-524 398.11,-524 398.11,-448 247.11,-448"/>
</a>
</g>
</g>
<!-- Node12&#45;&gt;Node1 -->
<g id="edge13_Node000001_Node000012" class="edge">
<title>Node12&#45;&gt;Node1</title>
<g id="a_edge13_Node000001_Node000012"><a xlink:title=" ">
<path fill="none" stroke="#63b8ff" d="M332.75,-448.2C345.24,-402.88 367.13,-323.42 386.18,-254.27"/>
<polygon fill="none" stroke="#63b8ff" points="386.15,-254.38 383.88,-247.53 389.33,-242.81 391.6,-249.65 386.15,-254.38"/>
</a>
</g>
<text text-anchor="middle" x="399.24" y="-265.5" font-family="Helvetica,sans-Serif" font-size="10.00" fill="grey"> &#45;_bulk</text>
</g>
<!-- Node13&#45;&gt;Node12 -->
<g id="edge14_Node000012_Node000013" class="edge">
<title>Node13&#45;&gt;Node12</title>
<g id="a_edge14_Node000012_Node000013"><a xlink:title=" ">
<path fill="none" stroke="#63b8ff" d="M322.61,-892.78C322.61,-819.69 322.61,-628.24 322.61,-536.89"/>
<polygon fill="none" stroke="#63b8ff" points="322.61,-536.81 318.61,-530.81 322.61,-524.81 326.61,-530.81 322.61,-536.81"/>
</a>
</g>
<text text-anchor="middle" x="351.11" y="-702.5" font-family="Helvetica,sans-Serif" font-size="10.00" fill="grey"> +commands</text>
</g>
<!-- Node14&#45;&gt;Node13 -->
<g id="edge16_Node000013_Node000014" class="edge">
<title>Node14&#45;&gt;Node13</title>
<g id="a_edge16_Node000013_Node000014"><a xlink:title=" ">
<path fill="none" stroke="orange" d="M307.56,-1235.33C311.02,-1163.72 318.18,-1015.7 321.21,-953.03"/>
<polygon fill="orange" stroke="orange" points="304.02,-1234.98 307.03,-1245.14 311.01,-1235.32 304.02,-1234.98"/>
</a>
</g>
<text text-anchor="middle" x="342.86" y="-1195.5" font-family="Helvetica,sans-Serif" font-size="10.00" fill="grey"> &lt; std::string &gt;</text>
</g>
</g>
</svg>

<g id="navigator" transform="translate(0 0)" fill="#404254">
  <rect fill="#f2f5e9" fill-opacity="0.5" stroke="#606060" stroke-width=".5" x="0" y="0" width="60" height="60"/>
  <use id="zoomplus" xlink:href="#zoomPlus" x="17" y="9" onmousedown="handleZoom(evt,'in')"/>
  <use id="zoomminus" xlink:href="#zoomMin" x="42" y="9" onmousedown="handleZoom(evt,'out')"/>
  <use id="reset" xlink:href="#resetDef" x="30" y="36" onmousedown="handleReset()"/>
   <use id="arrowup" xlink:href="#arrowUp" x="0" y="0" onmousedown="handlePan(0,-1)"/>
  <use id="arrowright" xlink:href="#arrowRight" x="0" y="0" onmousedown="handlePan(1,0)"/>
  <use id="arrowdown" xlink:href="#arrowDown" x="0" y="0" onmousedown="handlePan(0,1)"/>
  <use id="arrowleft" xlink:href="#arrowLeft" x="0" y="0" onmousedown="handlePan(-1,0)"/>
</g>
<svg viewBox="0 0 15 15" width="100%" height="30px" preserveAspectRatio="xMaxYMin meet">
 <g id="arrow_out" transform="scale(0.3 0.3)">
  <a xlink:href="classbulk_1_1provider_1_1BulkTranslator__coll__graph_org.svg" target="_base">
   <rect id="button" ry="5" rx="5" y="6" x="6" height="38" width="38"
        fill="#f2f5e9" fill-opacity="0.5" stroke="#606060" stroke-width="1.0"/>
   <path id="arrow"
     d="M 11.500037,31.436501 C 11.940474,20.09759 22.043105,11.32322 32.158766,21.979434 L 37.068811,17.246167 C 37.068811,17.246167 37.088388,32 37.088388,32 L 22.160133,31.978069 C 22.160133,31.978069 26.997745,27.140456 26.997745,27.140456 C 18.528582,18.264221 13.291696,25.230495 11.500037,31.436501 z"
     style="fill:#404040;"/>
  </a>
 </g>
</svg>

<style type='text/css'>
<![CDATA[
[data-mouse-over-selected='false'] { opacity: 0.7; }
[data-mouse-over-selected='true']  { opacity: 1.0; }
]]>
</style>
<script type="application/ecmascript"><![CDATA[
document.addEventListener('DOMContentLoaded', (event) => {
  highlightEdges();
  highlightAdjacentNodes();
});
]]></script>
</svg>
