<?xml version="1.0" encoding="UTF-8" standalone="no"?>
<!DOCTYPE svg PUBLIC "-//W3C//DTD SVG 1.1//EN"
 "http://www.w3.org/Graphics/SVG/1.1/DTD/svg11.dtd">
<!-- Generated by graphviz version 8.1.0 (20230707.0739)
 -->
<!-- Title: src/cmd/command.hpp Pages: 1 -->
<svg width="545pt" height="282pt"
 viewBox="0.00 0.00 545.12 282.00" xmlns="http://www.w3.org/2000/svg" xmlns:xlink="http://www.w3.org/1999/xlink">
<g id="graph0" class="graph" transform="scale(1 1) rotate(0) translate(4 278)">
<title>src/cmd/command.hpp</title>
<!-- Node1 -->
<g id="Node000001" class="node">
<title>Node1</title>
<g id="a_Node000001"><a xlink:title=" ">
<polygon fill="#999999" stroke="#666666" points="315,-274 199.25,-274 199.25,-251 315,-251 315,-274"/>
<text text-anchor="middle" x="257.12" y="-260.5" font-family="Helvetica,sans-Serif" font-size="10.00">src/cmd/command.hpp</text>
</a>
</g>
</g>
<!-- Node2 -->
<g id="Node000002" class="node">
<title>Node2</title>
<g id="a_Node000002"><a xlink:href="bulk__event_8hpp.html" target="_top" xlink:title=" ">
<polygon fill="white" stroke="#666666" points="246.5,-156 127.75,-156 127.75,-133 246.5,-133 246.5,-156"/>
<text text-anchor="middle" x="187.12" y="-142.5" font-family="Helvetica,sans-Serif" font-size="10.00">src/bulk/bulk_event.hpp</text>
</a>
</g>
</g>
<!-- Node1&#45;&gt;Node2 -->
<g id="edge1_Node000001_Node000002" class="edge">
<title>Node1&#45;&gt;Node2</title>
<g id="a_edge1_Node000001_Node000002"><a xlink:title=" ">
<path fill="none" stroke="#63b8ff" d="M245.13,-241.62C230.21,-216.9 205.28,-175.58 193.57,-156.18"/>
<polygon fill="#63b8ff" stroke="#63b8ff" points="242.5,-243.04 250.67,-249.79 248.5,-239.42 242.5,-243.04"/>
</a>
</g>
</g>
<!-- Node7 -->
<g id="Node000007" class="node">
<title>Node7</title>
<g id="a_Node000007"><a xlink:href="token_8hpp.html" target="_top" xlink:title=" ">
<polygon fill="white" stroke="#666666" points="359.25,-215 263,-215 263,-192 359.25,-192 359.25,-215"/>
<text text-anchor="middle" x="311.12" y="-201.5" font-family="Helvetica,sans-Serif" font-size="10.00">src/cmd/token.hpp</text>
</a>
</g>
</g>
<!-- Node1&#45;&gt;Node7 -->
<g id="edge8_Node000001_Node000007" class="edge">
<title>Node1&#45;&gt;Node7</title>
<g id="a_edge8_Node000001_Node000007"><a xlink:title=" ">
<path fill="none" stroke="#63b8ff" d="M274.89,-242.75C283.46,-233.71 293.43,-223.18 300.75,-215.46"/>
<polygon fill="#63b8ff" stroke="#63b8ff" points="272.87,-239.84 268.54,-249.51 277.96,-244.66 272.87,-239.84"/>
</a>
</g>
</g>
<!-- Node3 -->
<g id="Node000003" class="node">
<title>Node3</title>
<g id="a_Node000003"><a xlink:href="bulk__translator_8hpp.html" target="_top" xlink:title=" ">
<polygon fill="white" stroke="#666666" points="241.62,-97 132.62,-97 132.62,-59 241.62,-59 241.62,-97"/>
<text text-anchor="start" x="140.62" y="-83.5" font-family="Helvetica,sans-Serif" font-size="10.00">src/bulk/provider/bulk</text>
<text text-anchor="middle" x="187.12" y="-68.5" font-family="Helvetica,sans-Serif" font-size="10.00">_translator.hpp</text>
</a>
</g>
</g>
<!-- Node2&#45;&gt;Node3 -->
<g id="edge2_Node000002_Node000003" class="edge">
<title>Node2&#45;&gt;Node3</title>
<g id="a_edge2_Node000002_Node000003"><a xlink:title=" ">
<path fill="none" stroke="#63b8ff" d="M187.12,-121.58C187.12,-113.69 187.12,-104.88 187.12,-97.33"/>
<polygon fill="#63b8ff" stroke="#63b8ff" points="183.63,-121.56 187.12,-131.56 190.63,-121.56 183.63,-121.56"/>
</a>
</g>
</g>
<!-- Node5 -->
<g id="Node000005" class="node">
<title>Node5</title>
<g id="a_Node000005"><a xlink:href="console__writer_8hpp.html" target="_top" xlink:title=" ">
<polygon fill="white" stroke="#666666" points="394.75,-89.5 259.5,-89.5 259.5,-66.5 394.75,-66.5 394.75,-89.5"/>
<text text-anchor="middle" x="327.12" y="-76" font-family="Helvetica,sans-Serif" font-size="10.00">src/logs/console_writer.hpp</text>
</a>
</g>
</g>
<!-- Node2&#45;&gt;Node5 -->
<g id="edge4_Node000002_Node000005" class="edge">
<title>Node2&#45;&gt;Node5</title>
<g id="a_edge4_Node000002_Node000005"><a xlink:title=" ">
<path fill="none" stroke="#63b8ff" d="M220.84,-127.97C246.29,-116.24 280.59,-100.44 303.26,-90"/>
<polygon fill="#63b8ff" stroke="#63b8ff" points="219.49,-125.2 211.87,-132.56 222.42,-131.55 219.49,-125.2"/>
</a>
</g>
</g>
<!-- Node6 -->
<g id="Node000006" class="node">
<title>Node6</title>
<g id="a_Node000006"><a xlink:href="file__writer_8hpp.html" target="_top" xlink:title=" ">
<polygon fill="white" stroke="#666666" points="114.25,-89.5 0,-89.5 0,-66.5 114.25,-66.5 114.25,-89.5"/>
<text text-anchor="middle" x="57.12" y="-76" font-family="Helvetica,sans-Serif" font-size="10.00">src/logs/file_writer.hpp</text>
</a>
</g>
</g>
<!-- Node2&#45;&gt;Node6 -->
<g id="edge6_Node000002_Node000006" class="edge">
<title>Node2&#45;&gt;Node6</title>
<g id="a_edge6_Node000002_Node000006"><a xlink:title=" ">
<path fill="none" stroke="#63b8ff" d="M155.5,-127.81C131.9,-116.1 100.24,-100.39 79.29,-90"/>
<polygon fill="#63b8ff" stroke="#63b8ff" points="153.56,-131.25 164.07,-132.56 156.67,-124.98 153.56,-131.25"/>
</a>
</g>
</g>
<!-- Node4 -->
<g id="Node000004" class="node">
<title>Node4</title>
<g id="a_Node000004"><a xlink:href="main_8cpp.html" target="_top" xlink:title=" ">
<polygon fill="white" stroke="#666666" points="293.25,-23 221,-23 221,0 293.25,0 293.25,-23"/>
<text text-anchor="middle" x="257.12" y="-9.5" font-family="Helvetica,sans-Serif" font-size="10.00">src/main.cpp</text>
</a>
</g>
</g>
<!-- Node3&#45;&gt;Node4 -->
<g id="edge3_Node000003_Node000004" class="edge">
<title>Node3&#45;&gt;Node4</title>
<g id="a_edge3_Node000003_Node000004"><a xlink:title=" ">
<path fill="none" stroke="#63b8ff" d="M214.91,-51.4C225.58,-41.57 237.18,-30.87 245.52,-23.19"/>
<polygon fill="#63b8ff" stroke="#63b8ff" points="212.98,-48.34 208,-57.69 217.72,-53.49 212.98,-48.34"/>
</a>
</g>
</g>
<!-- Node5&#45;&gt;Node4 -->
<g id="edge5_Node000005_Node000004" class="edge">
<title>Node5&#45;&gt;Node4</title>
<g id="a_edge5_Node000005_Node000004"><a xlink:title=" ">
<path fill="none" stroke="#63b8ff" d="M307.26,-58.7C294.85,-47.26 279.29,-32.92 268.82,-23.28"/>
<polygon fill="#63b8ff" stroke="#63b8ff" points="304.52,-60.86 314.25,-65.06 309.27,-55.71 304.52,-60.86"/>
</a>
</g>
</g>
<!-- Node6&#45;&gt;Node4 -->
<g id="edge7_Node000006_Node000004" class="edge">
<title>Node6&#45;&gt;Node4</title>
<g id="a_edge7_Node000006_Node000004"><a xlink:title=" ">
<path fill="none" stroke="#63b8ff" d="M101.46,-62.7C138.14,-50.87 189.5,-34.31 223.03,-23.5"/>
<polygon fill="#63b8ff" stroke="#63b8ff" points="100.5,-59.66 92.05,-66.06 102.64,-66.32 100.5,-59.66"/>
</a>
</g>
</g>
<!-- Node8 -->
<g id="Node000008" class="node">
<title>Node8</title>
<g id="a_Node000008"><a xlink:href="token__event_8hpp.html" target="_top" xlink:title=" ">
<polygon fill="white" stroke="#666666" points="389.5,-156 264.75,-156 264.75,-133 389.5,-133 389.5,-156"/>
<text text-anchor="middle" x="327.12" y="-142.5" font-family="Helvetica,sans-Serif" font-size="10.00">src/cmd/token_event.hpp</text>
</a>
</g>
</g>
<!-- Node7&#45;&gt;Node8 -->
<g id="edge9_Node000007_Node000008" class="edge">
<title>Node7&#45;&gt;Node8</title>
<g id="a_edge9_Node000007_Node000008"><a xlink:title=" ">
<path fill="none" stroke="#63b8ff" d="M317.18,-180.94C319.52,-172.59 322.1,-163.39 324.05,-156.46"/>
<polygon fill="#63b8ff" stroke="#63b8ff" points="313.54,-179.94 314.21,-190.51 320.28,-181.83 313.54,-179.94"/>
</a>
</g>
</g>
<!-- Node8&#45;&gt;Node3 -->
<g id="edge10_Node000008_Node000003" class="edge">
<title>Node8&#45;&gt;Node3</title>
<g id="a_edge10_Node000008_Node000003"><a xlink:title=" ">
<path fill="none" stroke="#63b8ff" d="M293.5,-128.01C273.56,-118.82 248.17,-107.13 227.2,-97.46"/>
<polygon fill="#63b8ff" stroke="#63b8ff" points="291.83,-131.55 302.38,-132.56 294.76,-125.2 291.83,-131.55"/>
</a>
</g>
</g>
<!-- Node8&#45;&gt;Node5 -->
<g id="edge13_Node000008_Node000005" class="edge">
<title>Node8&#45;&gt;Node5</title>
<g id="a_edge13_Node000008_Node000005"><a xlink:title=" ">
<path fill="none" stroke="#63b8ff" d="M327.12,-121.82C327.12,-111.05 327.12,-98.5 327.12,-89.78"/>
<polygon fill="#63b8ff" stroke="#63b8ff" points="323.63,-121.56 327.12,-131.56 330.63,-121.56 323.63,-121.56"/>
</a>
</g>
</g>
<!-- Node9 -->
<g id="Node000009" class="node">
<title>Node9</title>
<g id="a_Node000009"><a xlink:href="istream__parser_8hpp.html" target="_top" xlink:title=" ">
<polygon fill="white" stroke="#666666" points="537.12,-97 413.12,-97 413.12,-59 537.12,-59 537.12,-97"/>
<text text-anchor="start" x="421.12" y="-83.5" font-family="Helvetica,sans-Serif" font-size="10.00">src/cmd/provider/istream</text>
<text text-anchor="middle" x="475.12" y="-68.5" font-family="Helvetica,sans-Serif" font-size="10.00">_parser.hpp</text>
</a>
</g>
</g>
<!-- Node8&#45;&gt;Node9 -->
<g id="edge11_Node000008_Node000009" class="edge">
<title>Node8&#45;&gt;Node9</title>
<g id="a_edge11_Node000008_Node000009"><a xlink:title=" ">
<path fill="none" stroke="#63b8ff" d="M362.09,-128.26C383.26,-119.04 410.39,-107.21 432.76,-97.46"/>
<polygon fill="#63b8ff" stroke="#63b8ff" points="361,-125.35 353.23,-132.56 363.8,-131.77 361,-125.35"/>
</a>
</g>
</g>
<!-- Node9&#45;&gt;Node4 -->
<g id="edge12_Node000009_Node000004" class="edge">
<title>Node9&#45;&gt;Node4</title>
<g id="a_edge12_Node000009_Node000004"><a xlink:title=" ">
<path fill="none" stroke="#63b8ff" d="M402.53,-55.52C366.01,-44.72 323.33,-32.09 293.7,-23.32"/>
<polygon fill="#63b8ff" stroke="#63b8ff" points="401.07,-59.04 411.65,-58.52 403.06,-52.32 401.07,-59.04"/>
</a>
</g>
</g>
</g>
</svg>
