<?xml version="1.0" encoding="UTF-8" standalone="no"?>
<!DOCTYPE svg PUBLIC "-//W3C//DTD SVG 1.1//EN"
 "http://www.w3.org/Graphics/SVG/1.1/DTD/svg11.dtd">
<!-- Generated by graphviz version 8.1.0 (20230707.0739)
 -->
<!-- Title: src/logs/console_writer.hpp Pages: 1 -->
<svg width="711pt" height="267pt"
 viewBox="0.00 0.00 710.88 267.00" xmlns="http://www.w3.org/2000/svg" xmlns:xlink="http://www.w3.org/1999/xlink">
<g id="graph0" class="graph" transform="scale(1 1) rotate(0) translate(4 263)">
<title>src/logs/console_writer.hpp</title>
<!-- Node1 -->
<g id="Node000001" class="node">
<title>Node1</title>
<g id="a_Node000001"><a xlink:title=" ">
<polygon fill="#999999" stroke="#666666" points="418.25,-259 283,-259 283,-236 418.25,-236 418.25,-259"/>
<text text-anchor="middle" x="350.62" y="-245.5" font-family="Helvetica,sans-Serif" font-size="10.00">src/logs/console_writer.hpp</text>
</a>
</g>
</g>
<!-- Node2 -->
<g id="Node000002" class="node">
<title>Node2</title>
<g id="a_Node000002"><a xlink:title=" ">
<polygon fill="#e0e0e0" stroke="#999999" points="252.38,-200 198.88,-200 198.88,-177 252.38,-177 252.38,-200"/>
<text text-anchor="middle" x="225.62" y="-186.5" font-family="Helvetica,sans-Serif" font-size="10.00">iostream</text>
</a>
</g>
</g>
<!-- Node1&#45;&gt;Node2 -->
<g id="edge1_Node000001_Node000002" class="edge">
<title>Node1&#45;&gt;Node2</title>
<g id="a_edge1_Node000001_Node000002"><a xlink:title=" ">
<path fill="none" stroke="#63b8ff" d="M326.52,-235.51C307.5,-226.84 280.73,-214.63 259.55,-204.97"/>
<polygon fill="#63b8ff" stroke="#63b8ff" points="261.2,-201.42 250.65,-200.46 258.3,-207.79 261.2,-201.42"/>
</a>
</g>
</g>
<!-- Node3 -->
<g id="Node000003" class="node">
<title>Node3</title>
<g id="a_Node000003"><a xlink:title=" ">
<polygon fill="#e0e0e0" stroke="#999999" points="322.62,-200 270.62,-200 270.62,-177 322.62,-177 322.62,-200"/>
<text text-anchor="middle" x="296.62" y="-186.5" font-family="Helvetica,sans-Serif" font-size="10.00">memory</text>
</a>
</g>
</g>
<!-- Node1&#45;&gt;Node3 -->
<g id="edge2_Node000001_Node000003" class="edge">
<title>Node1&#45;&gt;Node3</title>
<g id="a_edge2_Node000001_Node000003"><a xlink:title=" ">
<path fill="none" stroke="#63b8ff" d="M340.21,-235.51C332.89,-227.78 322.91,-217.25 314.35,-208.21"/>
<polygon fill="#63b8ff" stroke="#63b8ff" points="317.42,-206.31 308,-201.46 312.34,-211.12 317.42,-206.31"/>
</a>
</g>
</g>
<!-- Node4 -->
<g id="Node000004" class="node">
<title>Node4</title>
<g id="a_Node000004"><a xlink:href="bulk__event_8hpp.html" target="_top" xlink:title=" ">
<polygon fill="white" stroke="#666666" points="256.25,-141 145,-141 145,-118 256.25,-118 256.25,-141"/>
<text text-anchor="middle" x="200.62" y="-127.5" font-family="Helvetica,sans-Serif" font-size="10.00">../bulk/bulk_event.hpp</text>
</a>
</g>
</g>
<!-- Node1&#45;&gt;Node4 -->
<g id="edge3_Node000001_Node000004" class="edge">
<title>Node1&#45;&gt;Node4</title>
<g id="a_edge3_Node000001_Node000004"><a xlink:title=" ">
<path fill="none" stroke="#63b8ff" d="M350.63,-235.62C350.04,-220.54 346.77,-193.32 331.62,-177 314.75,-158.83 290.32,-147.75 267.11,-141"/>
<polygon fill="#63b8ff" stroke="#63b8ff" points="268.13,-137.38 257.56,-138.2 266.33,-144.15 268.13,-137.38"/>
</a>
</g>
</g>
<!-- Node11 -->
<g id="Node000011" class="node">
<title>Node11</title>
<g id="a_Node000011"><a xlink:href="token__event_8hpp.html" target="_top" xlink:title=" ">
<polygon fill="white" stroke="#666666" points="496.25,-200 379,-200 379,-177 496.25,-177 496.25,-200"/>
<text text-anchor="middle" x="437.62" y="-186.5" font-family="Helvetica,sans-Serif" font-size="10.00">../cmd/token_event.hpp</text>
</a>
</g>
</g>
<!-- Node1&#45;&gt;Node11 -->
<g id="edge10_Node000001_Node000011" class="edge">
<title>Node1&#45;&gt;Node11</title>
<g id="a_edge10_Node000001_Node000011"><a xlink:title=" ">
<path fill="none" stroke="#63b8ff" d="M367.4,-235.51C380.04,-227.23 397.59,-215.73 411.98,-206.3"/>
<polygon fill="#63b8ff" stroke="#63b8ff" points="413.46,-208.86 419.9,-200.46 409.62,-203.01 413.46,-208.86"/>
</a>
</g>
</g>
<!-- Node16 -->
<g id="Node000016" class="node">
<title>Node16</title>
<g id="a_Node000016"><a xlink:href="subscriber_8hpp.html" target="_top" xlink:title=" ">
<polygon fill="white" stroke="#666666" points="679.88,-200 569.38,-200 569.38,-177 679.88,-177 679.88,-200"/>
<text text-anchor="middle" x="624.62" y="-186.5" font-family="Helvetica,sans-Serif" font-size="10.00">../core/subscriber.hpp</text>
</a>
</g>
</g>
<!-- Node1&#45;&gt;Node16 -->
<g id="edge18_Node000001_Node000016" class="edge">
<title>Node1&#45;&gt;Node16</title>
<g id="a_edge18_Node000001_Node000016"><a xlink:title=" ">
<path fill="none" stroke="#63b8ff" d="M403.45,-235.51C448.56,-226.13 513.55,-212.61 561.41,-202.65"/>
<polygon fill="#63b8ff" stroke="#63b8ff" points="561.88,-205.92 570.96,-200.46 560.45,-199.07 561.88,-205.92"/>
</a>
</g>
</g>
<!-- Node5 -->
<g id="Node000005" class="node">
<title>Node5</title>
<g id="a_Node000005"><a xlink:title=" ">
<polygon fill="#e0e0e0" stroke="#999999" points="45.25,-82 0,-82 0,-59 45.25,-59 45.25,-82"/>
<text text-anchor="middle" x="22.62" y="-68.5" font-family="Helvetica,sans-Serif" font-size="10.00">chrono</text>
</a>
</g>
</g>
<!-- Node4&#45;&gt;Node5 -->
<g id="edge4_Node000004_Node000005" class="edge">
<title>Node4&#45;&gt;Node5</title>
<g id="a_edge4_Node000004_Node000005"><a xlink:title=" ">
<path fill="none" stroke="#63b8ff" d="M165.21,-117.52C137.61,-108.91 98.07,-96.47 55.84,-82.69"/>
<polygon fill="#63b8ff" stroke="#63b8ff" points="57.22,-79.13 46.63,-79.35 55.05,-85.79 57.22,-79.13"/>
</a>
</g>
</g>
<!-- Node6 -->
<g id="Node000006" class="node">
<title>Node6</title>
<g id="a_Node000006"><a xlink:title=" ">
<polygon fill="#e0e0e0" stroke="#999999" points="258.25,-82 207,-82 207,-59 258.25,-59 258.25,-82"/>
<text text-anchor="middle" x="232.62" y="-68.5" font-family="Helvetica,sans-Serif" font-size="10.00">ostream</text>
</a>
</g>
</g>
<!-- Node4&#45;&gt;Node6 -->
<g id="edge5_Node000004_Node000006" class="edge">
<title>Node4&#45;&gt;Node6</title>
<g id="a_edge5_Node000004_Node000006"><a xlink:title=" ">
<path fill="none" stroke="#63b8ff" d="M206.79,-117.51C210.87,-110.26 216.33,-100.53 221.18,-91.89"/>
<polygon fill="#63b8ff" stroke="#63b8ff" points="224.63,-93.89 226.47,-83.46 218.53,-90.46 224.63,-93.89"/>
</a>
</g>
</g>
<!-- Node7 -->
<g id="Node000007" class="node">
<title>Node7</title>
<g id="a_Node000007"><a xlink:title=" ">
<polygon fill="#e0e0e0" stroke="#999999" points="128.38,-82 62.88,-82 62.88,-59 128.38,-59 128.38,-82"/>
<text text-anchor="middle" x="95.62" y="-68.5" font-family="Helvetica,sans-Serif" font-size="10.00">string_view</text>
</a>
</g>
</g>
<!-- Node4&#45;&gt;Node7 -->
<g id="edge6_Node000004_Node000007" class="edge">
<title>Node4&#45;&gt;Node7</title>
<g id="a_edge6_Node000004_Node000007"><a xlink:title=" ">
<path fill="none" stroke="#63b8ff" d="M180.38,-117.51C164.69,-108.99 142.73,-97.07 125.09,-87.5"/>
<polygon fill="#63b8ff" stroke="#63b8ff" points="127.27,-84.15 116.81,-82.46 123.93,-90.3 127.27,-84.15"/>
</a>
</g>
</g>
<!-- Node8 -->
<g id="Node000008" class="node">
<title>Node8</title>
<g id="a_Node000008"><a xlink:title=" ">
<polygon fill="#e0e0e0" stroke="#999999" points="188.75,-82 146.5,-82 146.5,-59 188.75,-59 188.75,-82"/>
<text text-anchor="middle" x="167.62" y="-68.5" font-family="Helvetica,sans-Serif" font-size="10.00">vector</text>
</a>
</g>
</g>
<!-- Node4&#45;&gt;Node8 -->
<g id="edge7_Node000004_Node000008" class="edge">
<title>Node4&#45;&gt;Node8</title>
<g id="a_edge7_Node000004_Node000008"><a xlink:title=" ">
<path fill="none" stroke="#63b8ff" d="M194.26,-117.51C190.06,-110.26 184.43,-100.53 179.43,-91.89"/>
<polygon fill="#63b8ff" stroke="#63b8ff" points="182.01,-90.36 173.97,-83.46 175.95,-93.86 182.01,-90.36"/>
</a>
</g>
</g>
<!-- Node9 -->
<g id="Node000009" class="node">
<title>Node9</title>
<g id="a_Node000009"><a xlink:href="command_8hpp.html" target="_top" xlink:title=" ">
<polygon fill="white" stroke="#666666" points="384.75,-82 276.5,-82 276.5,-59 384.75,-59 384.75,-82"/>
<text text-anchor="middle" x="330.62" y="-68.5" font-family="Helvetica,sans-Serif" font-size="10.00">../cmd/command.hpp</text>
</a>
</g>
</g>
<!-- Node4&#45;&gt;Node9 -->
<g id="edge8_Node000004_Node000009" class="edge">
<title>Node4&#45;&gt;Node9</title>
<g id="a_edge8_Node000004_Node000009"><a xlink:title=" ">
<path fill="none" stroke="#63b8ff" d="M225.69,-117.51C245.56,-108.8 273.57,-96.52 295.65,-86.84"/>
<polygon fill="#63b8ff" stroke="#63b8ff" points="296.88,-89.68 304.64,-82.46 294.07,-83.27 296.88,-89.68"/>
</a>
</g>
</g>
<!-- Node10 -->
<g id="Node000010" class="node">
<title>Node10</title>
<g id="a_Node000010"><a xlink:title=" ">
<polygon fill="#e0e0e0" stroke="#999999" points="391.62,-23 351.62,-23 351.62,0 391.62,0 391.62,-23"/>
<text text-anchor="middle" x="371.62" y="-9.5" font-family="Helvetica,sans-Serif" font-size="10.00">string</text>
</a>
</g>
</g>
<!-- Node9&#45;&gt;Node10 -->
<g id="edge9_Node000009_Node000010" class="edge">
<title>Node9&#45;&gt;Node10</title>
<g id="a_edge9_Node000009_Node000010"><a xlink:title=" ">
<path fill="none" stroke="#63b8ff" d="M338.53,-58.51C343.86,-51.1 351.05,-41.11 357.36,-32.33"/>
<polygon fill="#63b8ff" stroke="#63b8ff" points="360.75,-34.62 363.74,-24.46 355.06,-30.53 360.75,-34.62"/>
</a>
</g>
</g>
<!-- Node12 -->
<g id="Node000012" class="node">
<title>Node12</title>
<g id="a_Node000012"><a xlink:href="token_8hpp.html" target="_top" xlink:title=" ">
<polygon fill="white" stroke="#666666" points="466.62,-141 408.62,-141 408.62,-118 466.62,-118 466.62,-141"/>
<text text-anchor="middle" x="437.62" y="-127.5" font-family="Helvetica,sans-Serif" font-size="10.00">token.hpp</text>
</a>
</g>
</g>
<!-- Node11&#45;&gt;Node12 -->
<g id="edge11_Node000011_Node000012" class="edge">
<title>Node11&#45;&gt;Node12</title>
<g id="a_edge11_Node000011_Node000012"><a xlink:title=" ">
<path fill="none" stroke="#63b8ff" d="M437.62,-176.51C437.62,-169.65 437.62,-160.58 437.62,-152.31"/>
<polygon fill="#63b8ff" stroke="#63b8ff" points="441.13,-152.46 437.62,-142.46 434.13,-152.46 441.13,-152.46"/>
</a>
</g>
</g>
<!-- Node12&#45;&gt;Node6 -->
<g id="edge13_Node000012_Node000006" class="edge">
<title>Node12&#45;&gt;Node6</title>
<g id="a_edge13_Node000012_Node000006"><a xlink:title=" ">
<path fill="none" stroke="#63b8ff" d="M408.39,-120.74C376.45,-112.2 323.56,-97.93 268.83,-82.3"/>
<polygon fill="#63b8ff" stroke="#63b8ff" points="270.18,-78.76 259.6,-79.37 268.25,-85.49 270.18,-78.76"/>
</a>
</g>
</g>
<!-- Node12&#45;&gt;Node9 -->
<g id="edge17_Node000012_Node000009" class="edge">
<title>Node12&#45;&gt;Node9</title>
<g id="a_edge17_Node000012_Node000009"><a xlink:title=" ">
<path fill="none" stroke="#63b8ff" d="M416.99,-117.51C401.01,-108.99 378.63,-97.07 360.66,-87.5"/>
<polygon fill="#63b8ff" stroke="#63b8ff" points="362.66,-84.07 352.19,-82.46 359.37,-90.25 362.66,-84.07"/>
</a>
</g>
</g>
<!-- Node12&#45;&gt;Node10 -->
<g id="edge14_Node000012_Node000010" class="edge">
<title>Node12&#45;&gt;Node10</title>
<g id="a_edge14_Node000012_Node000010"><a xlink:title=" ">
<path fill="none" stroke="#63b8ff" d="M431.53,-117.79C420.53,-98.46 397.18,-57.42 383.1,-32.68"/>
<polygon fill="#63b8ff" stroke="#63b8ff" points="385.69,-31.14 377.7,-24.18 379.6,-34.6 385.69,-31.14"/>
</a>
</g>
</g>
<!-- Node13 -->
<g id="Node000013" class="node">
<title>Node13</title>
<g id="a_Node000013"><a xlink:title=" ">
<polygon fill="#e0e0e0" stroke="#999999" points="676.5,-82 632.75,-82 632.75,-59 676.5,-59 676.5,-82"/>
<text text-anchor="middle" x="654.62" y="-68.5" font-family="Helvetica,sans-Serif" font-size="10.00">format</text>
</a>
</g>
</g>
<!-- Node12&#45;&gt;Node13 -->
<g id="edge12_Node000012_Node000013" class="edge">
<title>Node12&#45;&gt;Node13</title>
<g id="a_edge12_Node000012_Node000013"><a xlink:title=" ">
<path fill="none" stroke="#63b8ff" d="M466.82,-121.98C501.6,-114.04 561.66,-99.81 621.89,-82.35"/>
<polygon fill="#63b8ff" stroke="#63b8ff" points="622.73,-85.46 631.34,-79.29 620.76,-78.74 622.73,-85.46"/>
</a>
</g>
</g>
<!-- Node14 -->
<g id="Node000014" class="node">
<title>Node14</title>
<g id="a_Node000014"><a xlink:title=" ">
<polygon fill="#e0e0e0" stroke="#999999" points="484.88,-82 440.38,-82 440.38,-59 484.88,-59 484.88,-82"/>
<text text-anchor="middle" x="462.62" y="-68.5" font-family="Helvetica,sans-Serif" font-size="10.00">variant</text>
</a>
</g>
</g>
<!-- Node12&#45;&gt;Node14 -->
<g id="edge15_Node000012_Node000014" class="edge">
<title>Node12&#45;&gt;Node14</title>
<g id="a_edge15_Node000012_Node000014"><a xlink:title=" ">
<path fill="none" stroke="#63b8ff" d="M442.45,-117.51C445.56,-110.41 449.71,-100.95 453.43,-92.45"/>
<polygon fill="#63b8ff" stroke="#63b8ff" points="457.01,-94.02 457.82,-83.46 450.6,-91.21 457.01,-94.02"/>
</a>
</g>
</g>
<!-- Node15 -->
<g id="Node000015" class="node">
<title>Node15</title>
<g id="a_Node000015"><a xlink:href="overloaded_8hpp.html" target="_top" xlink:title=" ">
<polygon fill="white" stroke="#666666" points="614.25,-82 503,-82 503,-59 614.25,-59 614.25,-82"/>
<text text-anchor="middle" x="558.62" y="-68.5" font-family="Helvetica,sans-Serif" font-size="10.00">../utils/overloaded.hpp</text>
</a>
</g>
</g>
<!-- Node12&#45;&gt;Node15 -->
<g id="edge16_Node000012_Node000015" class="edge">
<title>Node12&#45;&gt;Node15</title>
<g id="a_edge16_Node000012_Node000015"><a xlink:title=" ">
<path fill="none" stroke="#63b8ff" d="M460.96,-117.51C479.28,-108.88 505.05,-96.74 525.51,-87.1"/>
<polygon fill="#63b8ff" stroke="#63b8ff" points="526.81,-89.88 534.37,-82.46 523.83,-83.55 526.81,-89.88"/>
</a>
</g>
</g>
<!-- Node16&#45;&gt;Node13 -->
<g id="edge19_Node000016_Node000013" class="edge">
<title>Node16&#45;&gt;Node13</title>
<g id="a_edge19_Node000016_Node000013"><a xlink:title=" ">
<path fill="none" stroke="#63b8ff" d="M627.39,-176.79C632.33,-157.72 642.72,-117.52 649.15,-92.68"/>
<polygon fill="#63b8ff" stroke="#63b8ff" points="652.75,-93.74 651.86,-83.18 645.97,-91.98 652.75,-93.74"/>
</a>
</g>
</g>
<!-- Node17 -->
<g id="Node000017" class="node">
<title>Node17</title>
<g id="a_Node000017"><a xlink:title=" ">
<polygon fill="#e0e0e0" stroke="#999999" points="702.88,-141 652.38,-141 652.38,-118 702.88,-118 702.88,-141"/>
<text text-anchor="middle" x="677.62" y="-127.5" font-family="Helvetica,sans-Serif" font-size="10.00">typeinfo</text>
</a>
</g>
</g>
<!-- Node16&#45;&gt;Node17 -->
<g id="edge20_Node000016_Node000017" class="edge">
<title>Node16&#45;&gt;Node17</title>
<g id="a_edge20_Node000016_Node000017"><a xlink:title=" ">
<path fill="none" stroke="#63b8ff" d="M634.84,-176.51C641.96,-168.86 651.62,-158.46 659.97,-149.49"/>
<polygon fill="#63b8ff" stroke="#63b8ff" points="662.19,-152.16 666.44,-142.46 657.06,-147.4 662.19,-152.16"/>
</a>
</g>
</g>
</g>
</svg>
