<?xml version="1.0" encoding="UTF-8" standalone="no"?>
<!DOCTYPE svg PUBLIC "-//W3C//DTD SVG 1.1//EN"
 "http://www.w3.org/Graphics/SVG/1.1/DTD/svg11.dtd">
<!-- Generated by graphviz version 8.1.0 (20230707.0739)
 -->
<!-- Title: src/cmd/provider/console_parser.hpp Pages: 1 -->
<svg width="566pt" height="223pt"
 viewBox="0.00 0.00 565.50 223.00" xmlns="http://www.w3.org/2000/svg" xmlns:xlink="http://www.w3.org/1999/xlink">
<g id="graph0" class="graph" transform="scale(1 1) rotate(0) translate(4 219)">
<title>src/cmd/provider/console_parser.hpp</title>
<!-- Node1 -->
<g id="Node000001" class="node">
<title>Node1</title>
<g id="a_Node000001"><a xlink:title=" ">
<polygon fill="#999999" stroke="#666666" points="254.5,-215 129,-215 129,-177 254.5,-177 254.5,-215"/>
<text text-anchor="start" x="137" y="-201.5" font-family="Helvetica,sans-Serif" font-size="10.00">src/cmd/provider/console</text>
<text text-anchor="middle" x="191.75" y="-186.5" font-family="Helvetica,sans-Serif" font-size="10.00">_parser.hpp</text>
</a>
</g>
</g>
<!-- Node2 -->
<g id="Node000002" class="node">
<title>Node2</title>
<g id="a_Node000002"><a xlink:title=" ">
<polygon fill="#e0e0e0" stroke="#999999" points="53.5,-141 0,-141 0,-118 53.5,-118 53.5,-141"/>
<text text-anchor="middle" x="26.75" y="-127.5" font-family="Helvetica,sans-Serif" font-size="10.00">iostream</text>
</a>
</g>
</g>
<!-- Node1&#45;&gt;Node2 -->
<g id="edge1_Node000001_Node000002" class="edge">
<title>Node1&#45;&gt;Node2</title>
<g id="a_edge1_Node000001_Node000002"><a xlink:title=" ">
<path fill="none" stroke="#63b8ff" d="M144.47,-176.52C118.92,-166.53 87.82,-154.37 64.01,-145.06"/>
<polygon fill="#63b8ff" stroke="#63b8ff" points="65.54,-141.51 54.95,-141.13 62.99,-148.03 65.54,-141.51"/>
</a>
</g>
</g>
<!-- Node3 -->
<g id="Node000003" class="node">
<title>Node3</title>
<g id="a_Node000003"><a xlink:href="publisher_8hpp.html" target="_top" xlink:title=" ">
<polygon fill="white" stroke="#666666" points="167.5,-141 72,-141 72,-118 167.5,-118 167.5,-141"/>
<text text-anchor="middle" x="119.75" y="-127.5" font-family="Helvetica,sans-Serif" font-size="10.00">core/publisher.hpp</text>
</a>
</g>
</g>
<!-- Node1&#45;&gt;Node3 -->
<g id="edge2_Node000001_Node000003" class="edge">
<title>Node1&#45;&gt;Node3</title>
<g id="a_edge2_Node000001_Node000003"><a xlink:title=" ">
<path fill="none" stroke="#63b8ff" d="M171.31,-176.69C161.41,-167.82 149.56,-157.2 139.72,-148.39"/>
<polygon fill="#63b8ff" stroke="#63b8ff" points="142.47,-146.26 132.68,-142.19 137.8,-151.47 142.47,-146.26"/>
</a>
</g>
</g>
<!-- Node8 -->
<g id="Node000008" class="node">
<title>Node8</title>
<g id="a_Node000008"><a xlink:href="string__utils_8hpp.html" target="_top" xlink:title=" ">
<polygon fill="white" stroke="#666666" points="484.25,-141 381.25,-141 381.25,-118 484.25,-118 484.25,-141"/>
<text text-anchor="middle" x="432.75" y="-127.5" font-family="Helvetica,sans-Serif" font-size="10.00">utils/string_utils.hpp</text>
</a>
</g>
</g>
<!-- Node1&#45;&gt;Node8 -->
<g id="edge7_Node000001_Node000008" class="edge">
<title>Node1&#45;&gt;Node8</title>
<g id="a_edge7_Node000001_Node000008"><a xlink:title=" ">
<path fill="none" stroke="#63b8ff" d="M254.76,-178.14C294.1,-167.61 344.14,-154.22 381.13,-144.31"/>
<polygon fill="#63b8ff" stroke="#63b8ff" points="381.93,-147.46 390.68,-141.49 380.12,-140.7 381.93,-147.46"/>
</a>
</g>
</g>
<!-- Node12 -->
<g id="Node000012" class="node">
<title>Node12</title>
<g id="a_Node000012"><a xlink:href="token__event_8hpp.html" target="_top" xlink:title=" ">
<polygon fill="white" stroke="#666666" points="318.88,-141 210.62,-141 210.62,-118 318.88,-118 318.88,-141"/>
<text text-anchor="middle" x="264.75" y="-127.5" font-family="Helvetica,sans-Serif" font-size="10.00">cmd/token_event.hpp</text>
</a>
</g>
</g>
<!-- Node1&#45;&gt;Node12 -->
<g id="edge11_Node000001_Node000012" class="edge">
<title>Node1&#45;&gt;Node12</title>
<g id="a_edge11_Node000001_Node000012"><a xlink:title=" ">
<path fill="none" stroke="#63b8ff" d="M212.47,-176.69C222.52,-167.82 234.53,-157.2 244.51,-148.39"/>
<polygon fill="#63b8ff" stroke="#63b8ff" points="246.47,-151.44 251.65,-142.19 241.84,-146.19 246.47,-151.44"/>
</a>
</g>
</g>
<!-- Node4 -->
<g id="Node000004" class="node">
<title>Node4</title>
<g id="a_Node000004"><a xlink:title=" ">
<polygon fill="#e0e0e0" stroke="#999999" points="49.15,-82 20.35,-82 20.35,-59 49.15,-59 49.15,-82"/>
<text text-anchor="middle" x="34.75" y="-68.5" font-family="Helvetica,sans-Serif" font-size="10.00">list</text>
</a>
</g>
</g>
<!-- Node3&#45;&gt;Node4 -->
<g id="edge3_Node000003_Node000004" class="edge">
<title>Node3&#45;&gt;Node4</title>
<g id="a_edge3_Node000003_Node000004"><a xlink:title=" ">
<path fill="none" stroke="#63b8ff" d="M103.36,-117.51C90.54,-108.91 72.54,-96.84 58.19,-87.22"/>
<polygon fill="#63b8ff" stroke="#63b8ff" points="60.64,-83.98 50.39,-81.31 56.74,-89.79 60.64,-83.98"/>
</a>
</g>
</g>
<!-- Node5 -->
<g id="Node000005" class="node">
<title>Node5</title>
<g id="a_Node000005"><a xlink:href="subscriber_8hpp.html" target="_top" xlink:title=" ">
<polygon fill="white" stroke="#666666" points="146.62,-82 66.88,-82 66.88,-59 146.62,-59 146.62,-82"/>
<text text-anchor="middle" x="106.75" y="-68.5" font-family="Helvetica,sans-Serif" font-size="10.00">subscriber.hpp</text>
</a>
</g>
</g>
<!-- Node3&#45;&gt;Node5 -->
<g id="edge4_Node000003_Node000005" class="edge">
<title>Node3&#45;&gt;Node5</title>
<g id="a_edge4_Node000003_Node000005"><a xlink:title=" ">
<path fill="none" stroke="#63b8ff" d="M117.24,-117.51C115.66,-110.57 113.56,-101.37 111.66,-93.02"/>
<polygon fill="#63b8ff" stroke="#63b8ff" points="114.88,-92.43 109.25,-83.46 108.06,-93.98 114.88,-92.43"/>
</a>
</g>
</g>
<!-- Node6 -->
<g id="Node000006" class="node">
<title>Node6</title>
<g id="a_Node000006"><a xlink:title=" ">
<polygon fill="#e0e0e0" stroke="#999999" points="122.62,-23 78.88,-23 78.88,0 122.62,0 122.62,-23"/>
<text text-anchor="middle" x="100.75" y="-9.5" font-family="Helvetica,sans-Serif" font-size="10.00">format</text>
</a>
</g>
</g>
<!-- Node5&#45;&gt;Node6 -->
<g id="edge5_Node000005_Node000006" class="edge">
<title>Node5&#45;&gt;Node6</title>
<g id="a_edge5_Node000005_Node000006"><a xlink:title=" ">
<path fill="none" stroke="#63b8ff" d="M105.59,-58.51C104.87,-51.65 103.92,-42.58 103.05,-34.31"/>
<polygon fill="#63b8ff" stroke="#63b8ff" points="106.43,-34.04 101.9,-24.46 99.47,-34.77 106.43,-34.04"/>
</a>
</g>
</g>
<!-- Node7 -->
<g id="Node000007" class="node">
<title>Node7</title>
<g id="a_Node000007"><a xlink:title=" ">
<polygon fill="#e0e0e0" stroke="#999999" points="61,-23 10.5,-23 10.5,0 61,0 61,-23"/>
<text text-anchor="middle" x="35.75" y="-9.5" font-family="Helvetica,sans-Serif" font-size="10.00">typeinfo</text>
</a>
</g>
</g>
<!-- Node5&#45;&gt;Node7 -->
<g id="edge6_Node000005_Node000007" class="edge">
<title>Node5&#45;&gt;Node7</title>
<g id="a_edge6_Node000005_Node000007"><a xlink:title=" ">
<path fill="none" stroke="#63b8ff" d="M93.06,-58.51C83.04,-50.47 69.24,-39.39 57.69,-30.11"/>
<polygon fill="#63b8ff" stroke="#63b8ff" points="60.39,-26.99 50.4,-23.46 56,-32.45 60.39,-26.99"/>
</a>
</g>
</g>
<!-- Node9 -->
<g id="Node000009" class="node">
<title>Node9</title>
<g id="a_Node000009"><a xlink:title=" ">
<polygon fill="#e0e0e0" stroke="#999999" points="473.62,-82 417.88,-82 417.88,-59 473.62,-59 473.62,-82"/>
<text text-anchor="middle" x="445.75" y="-68.5" font-family="Helvetica,sans-Serif" font-size="10.00">algorithm</text>
</a>
</g>
</g>
<!-- Node8&#45;&gt;Node9 -->
<g id="edge8_Node000008_Node000009" class="edge">
<title>Node8&#45;&gt;Node9</title>
<g id="a_edge8_Node000008_Node000009"><a xlink:title=" ">
<path fill="none" stroke="#63b8ff" d="M435.26,-117.51C436.84,-110.57 438.94,-101.37 440.84,-93.02"/>
<polygon fill="#63b8ff" stroke="#63b8ff" points="444.44,-93.98 443.25,-83.46 437.62,-92.43 444.44,-93.98"/>
</a>
</g>
</g>
<!-- Node10 -->
<g id="Node000010" class="node">
<title>Node10</title>
<g id="a_Node000010"><a xlink:title=" ">
<polygon fill="#e0e0e0" stroke="#999999" points="422.75,-23 382.75,-23 382.75,0 422.75,0 422.75,-23"/>
<text text-anchor="middle" x="402.75" y="-9.5" font-family="Helvetica,sans-Serif" font-size="10.00">string</text>
</a>
</g>
</g>
<!-- Node8&#45;&gt;Node10 -->
<g id="edge9_Node000008_Node000010" class="edge">
<title>Node8&#45;&gt;Node10</title>
<g id="a_edge9_Node000008_Node000010"><a xlink:title=" ">
<path fill="none" stroke="#63b8ff" d="M425.53,-117.55C419.92,-108.44 412.48,-94.92 408.75,-82 404.23,-66.34 402.8,-47.94 402.47,-34.01"/>
<polygon fill="#63b8ff" stroke="#63b8ff" points="405.96,-34.07 402.4,-24.09 398.96,-34.11 405.96,-34.07"/>
</a>
</g>
</g>
<!-- Node11 -->
<g id="Node000011" class="node">
<title>Node11</title>
<g id="a_Node000011"><a xlink:title=" ">
<polygon fill="#e0e0e0" stroke="#999999" points="557.5,-82 492,-82 492,-59 557.5,-59 557.5,-82"/>
<text text-anchor="middle" x="524.75" y="-68.5" font-family="Helvetica,sans-Serif" font-size="10.00">string_view</text>
</a>
</g>
</g>
<!-- Node8&#45;&gt;Node11 -->
<g id="edge10_Node000008_Node000011" class="edge">
<title>Node8&#45;&gt;Node11</title>
<g id="a_edge10_Node000008_Node000011"><a xlink:title=" ">
<path fill="none" stroke="#63b8ff" d="M450.49,-117.51C463.98,-109.15 482.77,-97.51 498.07,-88.03"/>
<polygon fill="#63b8ff" stroke="#63b8ff" points="499.41,-90.7 506.07,-82.46 495.72,-84.75 499.41,-90.7"/>
</a>
</g>
</g>
<!-- Node13 -->
<g id="Node000013" class="node">
<title>Node13</title>
<g id="a_Node000013"><a xlink:href="token_8hpp.html" target="_top" xlink:title=" ">
<polygon fill="white" stroke="#666666" points="298.75,-82 240.75,-82 240.75,-59 298.75,-59 298.75,-82"/>
<text text-anchor="middle" x="269.75" y="-68.5" font-family="Helvetica,sans-Serif" font-size="10.00">token.hpp</text>
</a>
</g>
</g>
<!-- Node12&#45;&gt;Node13 -->
<g id="edge12_Node000012_Node000013" class="edge">
<title>Node12&#45;&gt;Node13</title>
<g id="a_edge12_Node000012_Node000013"><a xlink:title=" ">
<path fill="none" stroke="#63b8ff" d="M265.71,-117.51C266.32,-110.65 267.11,-101.58 267.84,-93.31"/>
<polygon fill="#63b8ff" stroke="#63b8ff" points="271.4,-93.72 268.79,-83.46 264.43,-93.11 271.4,-93.72"/>
</a>
</g>
</g>
<!-- Node13&#45;&gt;Node6 -->
<g id="edge13_Node000013_Node000006" class="edge">
<title>Node13&#45;&gt;Node6</title>
<g id="a_edge13_Node000013_Node000006"><a xlink:title=" ">
<path fill="none" stroke="#63b8ff" d="M240.4,-59.63C214.54,-50.92 175.57,-37.8 133.32,-23.53"/>
<polygon fill="#63b8ff" stroke="#63b8ff" points="134.69,-19.96 124.1,-20.07 132.45,-26.59 134.69,-19.96"/>
</a>
</g>
</g>
<!-- Node13&#45;&gt;Node10 -->
<g id="edge15_Node000013_Node000010" class="edge">
<title>Node13&#45;&gt;Node10</title>
<g id="a_edge15_Node000013_Node000010"><a xlink:title=" ">
<path fill="none" stroke="#63b8ff" d="M295.39,-58.51C317.39,-49.08 349.12,-35.49 372.38,-25.52"/>
<polygon fill="#63b8ff" stroke="#63b8ff" points="373.59,-28.38 381.41,-21.22 370.84,-21.94 373.59,-28.38"/>
</a>
</g>
</g>
<!-- Node14 -->
<g id="Node000014" class="node">
<title>Node14</title>
<g id="a_Node000014"><a xlink:title=" ">
<polygon fill="#e0e0e0" stroke="#999999" points="302.38,-23 251.12,-23 251.12,0 302.38,0 302.38,-23"/>
<text text-anchor="middle" x="276.75" y="-9.5" font-family="Helvetica,sans-Serif" font-size="10.00">ostream</text>
</a>
</g>
</g>
<!-- Node13&#45;&gt;Node14 -->
<g id="edge14_Node000013_Node000014" class="edge">
<title>Node13&#45;&gt;Node14</title>
<g id="a_edge14_Node000013_Node000014"><a xlink:title=" ">
<path fill="none" stroke="#63b8ff" d="M271.1,-58.51C271.94,-51.65 273.06,-42.58 274.07,-34.31"/>
<polygon fill="#63b8ff" stroke="#63b8ff" points="277.66,-34.81 275.4,-24.46 270.71,-33.96 277.66,-34.81"/>
</a>
</g>
</g>
<!-- Node15 -->
<g id="Node000015" class="node">
<title>Node15</title>
<g id="a_Node000015"><a xlink:title=" ">
<polygon fill="#e0e0e0" stroke="#999999" points="365,-23 320.5,-23 320.5,0 365,0 365,-23"/>
<text text-anchor="middle" x="342.75" y="-9.5" font-family="Helvetica,sans-Serif" font-size="10.00">variant</text>
</a>
</g>
</g>
<!-- Node13&#45;&gt;Node15 -->
<g id="edge16_Node000013_Node000015" class="edge">
<title>Node13&#45;&gt;Node15</title>
<g id="a_edge16_Node000013_Node000015"><a xlink:title=" ">
<path fill="none" stroke="#63b8ff" d="M283.83,-58.51C294.13,-50.47 308.32,-39.39 320.19,-30.11"/>
<polygon fill="#63b8ff" stroke="#63b8ff" points="321.99,-32.37 327.72,-23.46 317.68,-26.85 321.99,-32.37"/>
</a>
</g>
</g>
<!-- Node16 -->
<g id="Node000016" class="node">
<title>Node16</title>
<g id="a_Node000016"><a xlink:href="overload_8hpp.html" target="_top" xlink:title=" ">
<polygon fill="white" stroke="#666666" points="232.62,-23 140.88,-23 140.88,0 232.62,0 232.62,-23"/>
<text text-anchor="middle" x="186.75" y="-9.5" font-family="Helvetica,sans-Serif" font-size="10.00">utils/overload.hpp</text>
</a>
</g>
</g>
<!-- Node13&#45;&gt;Node16 -->
<g id="edge17_Node000013_Node000016" class="edge">
<title>Node13&#45;&gt;Node16</title>
<g id="a_edge17_Node000013_Node000016"><a xlink:title=" ">
<path fill="none" stroke="#63b8ff" d="M253.75,-58.51C241.81,-50.31 225.26,-38.95 211.61,-29.57"/>
<polygon fill="#63b8ff" stroke="#63b8ff" points="213.93,-26.23 203.7,-23.46 209.97,-32 213.93,-26.23"/>
</a>
</g>
</g>
</g>
</svg>
