<?xml version="1.0" encoding="UTF-8" standalone="no"?>
<!DOCTYPE svg PUBLIC "-//W3C//DTD SVG 1.1//EN"
 "http://www.w3.org/Graphics/SVG/1.1/DTD/svg11.dtd">
<!-- Generated by graphviz version 8.1.0 (20230707.0739)
 -->
<!-- Title: src/cmd/provider/console_parser.hpp Pages: 1 -->
<!--zoomable 238 -->

<svg id="main" version="1.1" xmlns="http://www.w3.org/2000/svg" xmlns:xlink="http://www.w3.org/1999/xlink" xml:space="preserve" onload="init(evt)">
<style type="text/css"><![CDATA[
.node, .edge {opacity: 0.7;}
.node.selected, .edge.selected {opacity: 1;}
.edge:hover path { stroke: red; }
.edge:hover polygon { stroke: red; fill: red; }
]]></style>

<defs>
  <circle id="rim" cx="0" cy="0" r="7"/>
  <circle id="rim2" cx="0" cy="0" r="3.5"/>
  <g id="zoomPlus">
    <use xlink:href="#rim" fill="#404040"><set attributeName="fill" to="#808080" begin="zoomplus.mouseover" end="zoomplus.mouseout"/></use>
    <path d="M-4,0h8M0,-4v8" fill="none" stroke="white" stroke-width="1.5" pointer-events="none"/>
  </g>
  <g id="zoomMin">
    <use xlink:href="#rim" fill="#404040"><set attributeName="fill" to="#808080" begin="zoomminus.mouseover" end="zoomminus.mouseout"/></use>
    <path d="M-4,0h8" fill="none" stroke="white" stroke-width="1.5" pointer-events="none"/>
  </g>
  <g id="arrowUp" transform="translate(30 24)">
    <use xlink:href="#rim"/>
    <path pointer-events="none" fill="none" stroke="white" stroke-width="1.5" d="M0,-3.0v7 M-2.5,-0.5L0,-3.0L2.5,-0.5"/>
  </g>
  <g id="arrowRight" transform="rotate(90) translate(36 -43)">
    <use xlink:href="#rim"/>
    <path pointer-events="none" fill="none" stroke="white" stroke-width="1.5" d="M0,-3.0v7 M-2.5,-0.5L0,-3.0L2.5,-0.5"/>
  </g>
  <g id="arrowDown" transform="rotate(180) translate(-30 -48)">
    <use xlink:href="#rim"/>
    <path pointer-events="none" fill="none" stroke="white" stroke-width="1.5" d="M0,-3.0v7 M-2.5,-0.5L0,-3.0L2.5,-0.5"/>
  </g>
  <g id="arrowLeft" transform="rotate(270) translate(-36 17)">
    <use xlink:href="#rim"/>
    <path pointer-events="none" fill="none" stroke="white" stroke-width="1.5" d="M0,-3.0v7 M-2.5,-0.5L0,-3.0L2.5,-0.5"/>
  </g>
  <g id="resetDef">
    <use xlink:href="#rim2" fill="#404040"><set attributeName="fill" to="#808080" begin="reset.mouseover" end="reset.mouseout"/></use>
  </g>
</defs>
<script type="application/ecmascript">
var viewWidth = 554;
var viewHeight = 238;
var sectionId = 'dynsection-0';
</script>
<script type="application/ecmascript" xlink:href="svg.min.js"/>
<svg id="graph" class="graph">
<g id="viewport">
<title>src/cmd/provider/console_parser.hpp</title>
<!-- Node1 -->
<g id="Node000001" class="node">
<title>Node1</title>
<g id="a_Node000001"><a xlink:title=" ">
<polygon fill="#999999" stroke="#666666" points="267.5,-230 142,-230 142,-192 267.5,-192 267.5,-230"/>
<text text-anchor="start" x="150" y="-216.5" font-family="Helvetica,sans-Serif" font-size="10.00">src/cmd/provider/console</text>
<text text-anchor="middle" x="204.75" y="-201.5" font-family="Helvetica,sans-Serif" font-size="10.00">_parser.hpp</text>
</a>
</g>
</g>
<!-- Node2 -->
<g id="Node000002" class="node">
<title>Node2</title>
<g id="a_Node000002"><a xlink:title=" ">
<polygon fill="#e0e0e0" stroke="#999999" points="53.5,-148.5 0,-148.5 0,-125.5 53.5,-125.5 53.5,-148.5"/>
<text text-anchor="middle" x="26.75" y="-135" font-family="Helvetica,sans-Serif" font-size="10.00">iostream</text>
</a>
</g>
</g>
<!-- Node1&#45;&gt;Node2 -->
<g id="edge1_Node000001_Node000002" class="edge">
<title>Node1&#45;&gt;Node2</title>
<g id="a_edge1_Node000001_Node000002"><a xlink:title=" ">
<path fill="none" stroke="#63b8ff" d="M152.65,-191.61C125.57,-181.69 92.09,-168.88 62.75,-156 60.88,-155.18 58.96,-154.31 57.04,-153.42"/>
<polygon fill="#63b8ff" stroke="#63b8ff" points="59.05,-150.02 48.52,-148.83 56.01,-156.32 59.05,-150.02"/>
</a>
</g>
</g>
<!-- Node3 -->
<g id="Node000003" class="node">
<title>Node3</title>
<g id="a_Node000003"><a xlink:href="publisher_8hpp.html" target="_top" xlink:title=" ">
<polygon fill="white" stroke="#666666" points="185.5,-148.5 72,-148.5 72,-125.5 185.5,-125.5 185.5,-148.5"/>
<text text-anchor="middle" x="128.75" y="-135" font-family="Helvetica,sans-Serif" font-size="10.00">../../core/publisher.hpp</text>
</a>
</g>
</g>
<!-- Node1&#45;&gt;Node3 -->
<g id="edge2_Node000001_Node000003" class="edge">
<title>Node1&#45;&gt;Node3</title>
<g id="a_edge2_Node000001_Node000003"><a xlink:title=" ">
<path fill="none" stroke="#63b8ff" d="M185.57,-191.83C174.11,-180.97 159.58,-167.21 148.09,-156.32"/>
<polygon fill="#63b8ff" stroke="#63b8ff" points="151.01,-154.32 141.34,-149.98 146.2,-159.4 151.01,-154.32"/>
</a>
</g>
</g>
<!-- Node8 -->
<g id="Node000008" class="node">
<title>Node8</title>
<g id="a_Node000008"><a xlink:href="string__utils_8hpp.html" target="_top" xlink:title=" ">
<polygon fill="white" stroke="#666666" points="442.25,-156 363.25,-156 363.25,-118 442.25,-118 442.25,-156"/>
<text text-anchor="start" x="371.25" y="-142.5" font-family="Helvetica,sans-Serif" font-size="10.00">../../utils/string</text>
<text text-anchor="middle" x="402.75" y="-127.5" font-family="Helvetica,sans-Serif" font-size="10.00">_utils.hpp</text>
</a>
</g>
</g>
<!-- Node1&#45;&gt;Node8 -->
<g id="edge7_Node000001_Node000008" class="edge">
<title>Node1&#45;&gt;Node8</title>
<g id="a_edge7_Node000001_Node000008"><a xlink:title=" ">
<path fill="none" stroke="#63b8ff" d="M255.48,-191.55C285.31,-180.71 322.87,-167.05 352.6,-156.24"/>
<polygon fill="#63b8ff" stroke="#63b8ff" points="353.56,-159.25 361.76,-152.54 351.17,-152.67 353.56,-159.25"/>
</a>
</g>
</g>
<!-- Node12 -->
<g id="Node000012" class="node">
<title>Node12</title>
<g id="a_Node000012"><a xlink:href="token__event_8hpp.html" target="_top" xlink:title=" ">
<polygon fill="white" stroke="#666666" points="329.5,-148.5 234,-148.5 234,-125.5 329.5,-125.5 329.5,-148.5"/>
<text text-anchor="middle" x="281.75" y="-135" font-family="Helvetica,sans-Serif" font-size="10.00">../token_event.hpp</text>
</a>
</g>
</g>
<!-- Node1&#45;&gt;Node12 -->
<g id="edge11_Node000001_Node000012" class="edge">
<title>Node1&#45;&gt;Node12</title>
<g id="a_edge11_Node000001_Node000012"><a xlink:title=" ">
<path fill="none" stroke="#63b8ff" d="M224.18,-191.83C235.8,-180.97 250.51,-167.21 262.15,-156.32"/>
<polygon fill="#63b8ff" stroke="#63b8ff" points="264.09,-159.37 269,-149.98 259.31,-154.26 264.09,-159.37"/>
</a>
</g>
</g>
<!-- Node4 -->
<g id="Node000004" class="node">
<title>Node4</title>
<g id="a_Node000004"><a xlink:title=" ">
<polygon fill="#e0e0e0" stroke="#999999" points="63.15,-82 34.35,-82 34.35,-59 63.15,-59 63.15,-82"/>
<text text-anchor="middle" x="48.75" y="-68.5" font-family="Helvetica,sans-Serif" font-size="10.00">list</text>
</a>
</g>
</g>
<!-- Node3&#45;&gt;Node4 -->
<g id="edge3_Node000003_Node000004" class="edge">
<title>Node3&#45;&gt;Node4</title>
<g id="a_edge3_Node000003_Node000004"><a xlink:title=" ">
<path fill="none" stroke="#63b8ff" d="M115.18,-125.06C103,-115.24 84.89,-100.64 70.66,-89.17"/>
<polygon fill="#63b8ff" stroke="#63b8ff" points="73.37,-86.05 63.39,-82.5 68.98,-91.5 73.37,-86.05"/>
</a>
</g>
</g>
<!-- Node5 -->
<g id="Node000005" class="node">
<title>Node5</title>
<g id="a_Node000005"><a xlink:href="subscriber_8hpp.html" target="_top" xlink:title=" ">
<polygon fill="white" stroke="#666666" points="160.62,-82 80.88,-82 80.88,-59 160.62,-59 160.62,-82"/>
<text text-anchor="middle" x="120.75" y="-68.5" font-family="Helvetica,sans-Serif" font-size="10.00">subscriber.hpp</text>
</a>
</g>
</g>
<!-- Node3&#45;&gt;Node5 -->
<g id="edge4_Node000003_Node000005" class="edge">
<title>Node3&#45;&gt;Node5</title>
<g id="a_edge4_Node000003_Node000005"><a xlink:title=" ">
<path fill="none" stroke="#63b8ff" d="M127.39,-125.06C126.31,-116.3 124.75,-103.73 123.41,-92.98"/>
<polygon fill="#63b8ff" stroke="#63b8ff" points="126.79,-92.77 122.09,-83.28 119.84,-93.63 126.79,-92.77"/>
</a>
</g>
</g>
<!-- Node6 -->
<g id="Node000006" class="node">
<title>Node6</title>
<g id="a_Node000006"><a xlink:title=" ">
<polygon fill="#e0e0e0" stroke="#999999" points="138.62,-23 94.88,-23 94.88,0 138.62,0 138.62,-23"/>
<text text-anchor="middle" x="116.75" y="-9.5" font-family="Helvetica,sans-Serif" font-size="10.00">format</text>
</a>
</g>
</g>
<!-- Node5&#45;&gt;Node6 -->
<g id="edge5_Node000005_Node000006" class="edge">
<title>Node5&#45;&gt;Node6</title>
<g id="a_edge5_Node000005_Node000006"><a xlink:title=" ">
<path fill="none" stroke="#63b8ff" d="M119.98,-58.51C119.5,-51.65 118.86,-42.58 118.28,-34.31"/>
<polygon fill="#63b8ff" stroke="#63b8ff" points="121.71,-34.19 117.52,-24.46 114.73,-34.68 121.71,-34.19"/>
</a>
</g>
</g>
<!-- Node7 -->
<g id="Node000007" class="node">
<title>Node7</title>
<g id="a_Node000007"><a xlink:title=" ">
<polygon fill="#e0e0e0" stroke="#999999" points="77,-23 26.5,-23 26.5,0 77,0 77,-23"/>
<text text-anchor="middle" x="51.75" y="-9.5" font-family="Helvetica,sans-Serif" font-size="10.00">typeinfo</text>
</a>
</g>
</g>
<!-- Node5&#45;&gt;Node7 -->
<g id="edge6_Node000005_Node000007" class="edge">
<title>Node5&#45;&gt;Node7</title>
<g id="a_edge6_Node000005_Node000007"><a xlink:title=" ">
<path fill="none" stroke="#63b8ff" d="M107.45,-58.51C97.81,-50.55 84.56,-39.6 73.4,-30.39"/>
<polygon fill="#63b8ff" stroke="#63b8ff" points="75.95,-27.13 66.01,-23.46 71.49,-32.52 75.95,-27.13"/>
</a>
</g>
</g>
<!-- Node9 -->
<g id="Node000009" class="node">
<title>Node9</title>
<g id="a_Node000009"><a xlink:title=" ">
<polygon fill="#e0e0e0" stroke="#999999" points="461.62,-82 405.88,-82 405.88,-59 461.62,-59 461.62,-82"/>
<text text-anchor="middle" x="433.75" y="-68.5" font-family="Helvetica,sans-Serif" font-size="10.00">algorithm</text>
</a>
</g>
</g>
<!-- Node8&#45;&gt;Node9 -->
<g id="edge8_Node000008_Node000009" class="edge">
<title>Node8&#45;&gt;Node9</title>
<g id="a_edge8_Node000008_Node000009"><a xlink:title=" ">
<path fill="none" stroke="#63b8ff" d="M411.55,-117.69C415.43,-109.62 420,-100.12 423.98,-91.83"/>
<polygon fill="#63b8ff" stroke="#63b8ff" points="427.43,-93.72 428.61,-83.19 421.12,-90.69 427.43,-93.72"/>
</a>
</g>
</g>
<!-- Node10 -->
<g id="Node000010" class="node">
<title>Node10</title>
<g id="a_Node000010"><a xlink:title=" ">
<polygon fill="#e0e0e0" stroke="#999999" points="446.75,-23 406.75,-23 406.75,0 446.75,0 446.75,-23"/>
<text text-anchor="middle" x="426.75" y="-9.5" font-family="Helvetica,sans-Serif" font-size="10.00">string</text>
</a>
</g>
</g>
<!-- Node8&#45;&gt;Node10 -->
<g id="edge9_Node000008_Node000010" class="edge">
<title>Node8&#45;&gt;Node10</title>
<g id="a_edge9_Node000008_Node000010"><a xlink:title=" ">
<path fill="none" stroke="#63b8ff" d="M397.66,-117.57C394.14,-101.72 391.03,-78.42 396.75,-59 399.57,-49.43 405.03,-39.98 410.53,-32.12"/>
<polygon fill="#63b8ff" stroke="#63b8ff" points="413.87,-34.52 417.09,-24.43 408.27,-30.3 413.87,-34.52"/>
</a>
</g>
</g>
<!-- Node11 -->
<g id="Node000011" class="node">
<title>Node11</title>
<g id="a_Node000011"><a xlink:title=" ">
<polygon fill="#e0e0e0" stroke="#999999" points="545.5,-82 480,-82 480,-59 545.5,-59 545.5,-82"/>
<text text-anchor="middle" x="512.75" y="-68.5" font-family="Helvetica,sans-Serif" font-size="10.00">string_view</text>
</a>
</g>
</g>
<!-- Node8&#45;&gt;Node11 -->
<g id="edge10_Node000008_Node000011" class="edge">
<title>Node8&#45;&gt;Node11</title>
<g id="a_edge10_Node000008_Node000011"><a xlink:title=" ">
<path fill="none" stroke="#63b8ff" d="M434.27,-117.52C450.36,-108.08 469.75,-96.72 485.23,-87.64"/>
<polygon fill="#63b8ff" stroke="#63b8ff" points="486.44,-90.4 493.29,-82.32 482.9,-84.36 486.44,-90.4"/>
</a>
</g>
</g>
<!-- Node13 -->
<g id="Node000013" class="node">
<title>Node13</title>
<g id="a_Node000013"><a xlink:href="token_8hpp.html" target="_top" xlink:title=" ">
<polygon fill="white" stroke="#666666" points="325.75,-82 267.75,-82 267.75,-59 325.75,-59 325.75,-82"/>
<text text-anchor="middle" x="296.75" y="-68.5" font-family="Helvetica,sans-Serif" font-size="10.00">token.hpp</text>
</a>
</g>
</g>
<!-- Node12&#45;&gt;Node13 -->
<g id="edge12_Node000012_Node000013" class="edge">
<title>Node12&#45;&gt;Node13</title>
<g id="a_edge12_Node000012_Node000013"><a xlink:title=" ">
<path fill="none" stroke="#63b8ff" d="M284.29,-125.06C286.33,-116.3 289.25,-103.73 291.76,-92.98"/>
<polygon fill="#63b8ff" stroke="#63b8ff" points="295.39,-93.81 294.24,-83.28 288.57,-92.23 295.39,-93.81"/>
</a>
</g>
</g>
<!-- Node13&#45;&gt;Node6 -->
<g id="edge13_Node000013_Node000006" class="edge">
<title>Node13&#45;&gt;Node6</title>
<g id="a_edge13_Node000013_Node000006"><a xlink:title=" ">
<path fill="none" stroke="#63b8ff" d="M267.28,-60.53C239.23,-51.95 195.6,-38.46 149.31,-23.46"/>
<polygon fill="#63b8ff" stroke="#63b8ff" points="150.67,-19.9 140.08,-20.13 148.51,-26.56 150.67,-19.9"/>
</a>
</g>
</g>
<!-- Node13&#45;&gt;Node10 -->
<g id="edge15_Node000013_Node000010" class="edge">
<title>Node13&#45;&gt;Node10</title>
<g id="a_edge15_Node000013_Node000010"><a xlink:title=" ">
<path fill="none" stroke="#63b8ff" d="M321.82,-58.51C343.19,-49.14 373.96,-35.65 396.66,-25.69"/>
<polygon fill="#63b8ff" stroke="#63b8ff" points="397.7,-28.62 405.46,-21.4 394.89,-22.21 397.7,-28.62"/>
</a>
</g>
</g>
<!-- Node14 -->
<g id="Node000014" class="node">
<title>Node14</title>
<g id="a_Node000014"><a xlink:title=" ">
<polygon fill="#e0e0e0" stroke="#999999" points="326.38,-23 275.12,-23 275.12,0 326.38,0 326.38,-23"/>
<text text-anchor="middle" x="300.75" y="-9.5" font-family="Helvetica,sans-Serif" font-size="10.00">ostream</text>
</a>
</g>
</g>
<!-- Node13&#45;&gt;Node14 -->
<g id="edge14_Node000013_Node000014" class="edge">
<title>Node13&#45;&gt;Node14</title>
<g id="a_edge14_Node000013_Node000014"><a xlink:title=" ">
<path fill="none" stroke="#63b8ff" d="M297.52,-58.51C298,-51.65 298.64,-42.58 299.22,-34.31"/>
<polygon fill="#63b8ff" stroke="#63b8ff" points="302.77,-34.68 299.98,-24.46 295.79,-34.19 302.77,-34.68"/>
</a>
</g>
</g>
<!-- Node15 -->
<g id="Node000015" class="node">
<title>Node15</title>
<g id="a_Node000015"><a xlink:title=" ">
<polygon fill="#e0e0e0" stroke="#999999" points="389,-23 344.5,-23 344.5,0 389,0 389,-23"/>
<text text-anchor="middle" x="366.75" y="-9.5" font-family="Helvetica,sans-Serif" font-size="10.00">variant</text>
</a>
</g>
</g>
<!-- Node13&#45;&gt;Node15 -->
<g id="edge16_Node000013_Node000015" class="edge">
<title>Node13&#45;&gt;Node15</title>
<g id="a_edge16_Node000013_Node000015"><a xlink:title=" ">
<path fill="none" stroke="#63b8ff" d="M310.25,-58.51C320.03,-50.55 333.47,-39.6 344.78,-30.39"/>
<polygon fill="#63b8ff" stroke="#63b8ff" points="346.75,-32.48 352.29,-23.46 342.33,-27.06 346.75,-32.48"/>
</a>
</g>
</g>
<!-- Node16 -->
<g id="Node000016" class="node">
<title>Node16</title>
<g id="a_Node000016"><a xlink:href="overload_8hpp.html" target="_top" xlink:title=" ">
<polygon fill="white" stroke="#666666" points="257.12,-23 156.38,-23 156.38,0 257.12,0 257.12,-23"/>
<text text-anchor="middle" x="206.75" y="-9.5" font-family="Helvetica,sans-Serif" font-size="10.00">../utils/overload.hpp</text>
</a>
</g>
</g>
<!-- Node13&#45;&gt;Node16 -->
<g id="edge17_Node000013_Node000016" class="edge">
<title>Node13&#45;&gt;Node16</title>
<g id="a_edge17_Node000013_Node000016"><a xlink:title=" ">
<path fill="none" stroke="#63b8ff" d="M279.4,-58.51C266.32,-50.23 248.17,-38.73 233.28,-29.3"/>
<polygon fill="#63b8ff" stroke="#63b8ff" points="235.37,-25.85 225.05,-23.46 231.63,-31.76 235.37,-25.85"/>
</a>
</g>
</g>
</g>
</svg>

<g id="navigator" transform="translate(0 0)" fill="#404254">
  <rect fill="#f2f5e9" fill-opacity="0.5" stroke="#606060" stroke-width=".5" x="0" y="0" width="60" height="60"/>
  <use id="zoomplus" xlink:href="#zoomPlus" x="17" y="9" onmousedown="handleZoom(evt,'in')"/>
  <use id="zoomminus" xlink:href="#zoomMin" x="42" y="9" onmousedown="handleZoom(evt,'out')"/>
  <use id="reset" xlink:href="#resetDef" x="30" y="36" onmousedown="handleReset()"/>
   <use id="arrowup" xlink:href="#arrowUp" x="0" y="0" onmousedown="handlePan(0,-1)"/>
  <use id="arrowright" xlink:href="#arrowRight" x="0" y="0" onmousedown="handlePan(1,0)"/>
  <use id="arrowdown" xlink:href="#arrowDown" x="0" y="0" onmousedown="handlePan(0,1)"/>
  <use id="arrowleft" xlink:href="#arrowLeft" x="0" y="0" onmousedown="handlePan(-1,0)"/>
</g>
<svg viewBox="0 0 15 15" width="100%" height="30px" preserveAspectRatio="xMaxYMin meet">
 <g id="arrow_out" transform="scale(0.3 0.3)">
  <a xlink:href="console__parser_8hpp__incl_org.svg" target="_base">
   <rect id="button" ry="5" rx="5" y="6" x="6" height="38" width="38"
        fill="#f2f5e9" fill-opacity="0.5" stroke="#606060" stroke-width="1.0"/>
   <path id="arrow"
     d="M 11.500037,31.436501 C 11.940474,20.09759 22.043105,11.32322 32.158766,21.979434 L 37.068811,17.246167 C 37.068811,17.246167 37.088388,32 37.088388,32 L 22.160133,31.978069 C 22.160133,31.978069 26.997745,27.140456 26.997745,27.140456 C 18.528582,18.264221 13.291696,25.230495 11.500037,31.436501 z"
     style="fill:#404040;"/>
  </a>
 </g>
</svg>

<style type='text/css'>
<![CDATA[
[data-mouse-over-selected='false'] { opacity: 0.7; }
[data-mouse-over-selected='true']  { opacity: 1.0; }
]]>
</style>
<script type="application/ecmascript"><![CDATA[
document.addEventListener('DOMContentLoaded', (event) => {
  highlightEdges();
  highlightAdjacentNodes();
});
]]></script>
</svg>
