<?xml version="1.0" encoding="UTF-8" standalone="no"?>
<!DOCTYPE svg PUBLIC "-//W3C//DTD SVG 1.1//EN"
 "http://www.w3.org/Graphics/SVG/1.1/DTD/svg11.dtd">
<!-- Generated by graphviz version 8.1.0 (20230707.0739)
 -->
<!-- Title: src/bulk Pages: 1 -->
<svg width="179pt" height="153pt"
 viewBox="0.00 0.00 179.00 153.00" xmlns="http://www.w3.org/2000/svg" xmlns:xlink="http://www.w3.org/1999/xlink">
<g id="graph0" class="graph" transform="scale(1 1) rotate(0) translate(4 149)">
<title>src/bulk</title>
<g id="clust1" class="cluster">
<title>clusterdir_68267d1309a1af8e8297ef4c3efbcdba</title>
<g id="a_clust1"><a xlink:href="dir_68267d1309a1af8e8297ef4c3efbcdba.html" target="_top" xlink:title="src">
<polygon fill="#edf0f7" stroke="#404040" stroke-dasharray="5,2" points="8,-8 8,-137 163,-137 163,-8 8,-8"/>
<text text-anchor="middle" x="85.5" y="-123.5" font-family="Helvetica,sans-Serif" font-size="10.00">src</text>
</a>
</g>
</g>
<g id="clust2" class="cluster">
<title>clusterdir_6e22baae89fb4f62b43e7345b371b522</title>
<g id="a_clust2"><a xlink:href="dir_6e22baae89fb4f62b43e7345b371b522.html" target="_top">
<polygon fill="#edf0f7" stroke="#404040" stroke-width="2" points="37,-67 37,-106 155,-106 155,-67 37,-67"/>
</a>
</g>
</g>
<!-- dir_8a0776572ba2252f65a895457421e228 -->
<g id="node1" class="node">
<title>dir_8a0776572ba2252f65a895457421e228</title>
<g id="a_node1"><a xlink:href="dir_8a0776572ba2252f65a895457421e228.html" target="_top" xlink:title="cmd">
<polygon fill="#e9edf5" stroke="red" points="50.38,-39 15.62,-39 15.62,-16 50.38,-16 50.38,-39"/>
<text text-anchor="middle" x="33" y="-25.5" font-family="Helvetica,sans-Serif" font-size="10.00">cmd</text>
</a>
</g>
</g>
<!-- dir_aebb8dcc11953d78e620bbef0b9e2183 -->
<g id="node2" class="node">
<title>dir_aebb8dcc11953d78e620bbef0b9e2183</title>
<g id="a_node2"><a xlink:href="dir_aebb8dcc11953d78e620bbef0b9e2183.html" target="_top" xlink:title="core">
<polygon fill="#e9edf5" stroke="#404040" points="103.38,-39 68.62,-39 68.62,-16 103.38,-16 103.38,-39"/>
<text text-anchor="middle" x="86" y="-25.5" font-family="Helvetica,sans-Serif" font-size="10.00">core</text>
</a>
</g>
</g>
<!-- dir_313caf1132e152dd9b58bea13a4052ca -->
<g id="node3" class="node">
<title>dir_313caf1132e152dd9b58bea13a4052ca</title>
<g id="a_node3"><a xlink:href="dir_313caf1132e152dd9b58bea13a4052ca.html" target="_top" xlink:title="utils">
<polygon fill="#e9edf5" stroke="#404040" points="155,-39 121,-39 121,-16 155,-16 155,-39"/>
<text text-anchor="middle" x="138" y="-25.5" font-family="Helvetica,sans-Serif" font-size="10.00">utils</text>
</a>
</g>
</g>
<!-- dir_6e22baae89fb4f62b43e7345b371b522 -->
<g id="node4" class="node">
<title>dir_6e22baae89fb4f62b43e7345b371b522</title>
<text text-anchor="middle" x="130" y="-84.5" font-family="Helvetica,sans-Serif" font-size="10.00">bulk</text>
</g>
<!-- dir_acbc1d10486dee7ed605fd17535f782c -->
<g id="node5" class="node">
<title>dir_acbc1d10486dee7ed605fd17535f782c</title>
<g id="a_node5"><a xlink:href="dir_acbc1d10486dee7ed605fd17535f782c.html" target="_top" xlink:title="provider">
<polygon fill="#e9edf5" stroke="#404040" points="95.25,-98 44.75,-98 44.75,-75 95.25,-75 95.25,-98"/>
<text text-anchor="middle" x="70" y="-84.5" font-family="Helvetica,sans-Serif" font-size="10.00">provider</text>
</a>
</g>
</g>
<!-- dir_acbc1d10486dee7ed605fd17535f782c&#45;&gt;dir_8a0776572ba2252f65a895457421e228 -->
<g id="edge2" class="edge">
<title>dir_acbc1d10486dee7ed605fd17535f782c&#45;&gt;dir_8a0776572ba2252f65a895457421e228</title>
<path fill="none" stroke="#63b8ff" d="M62.87,-74.51C58.11,-67.18 51.71,-57.32 46.05,-48.61"/>
<polygon fill="#63b8ff" stroke="#63b8ff" points="48.49,-46.94 40.11,-40.46 42.62,-50.75 48.49,-46.94"/>
<g id="a_edge2&#45;headlabel"><a xlink:href="dir_000009_000002.html" target="_top" xlink:title="1">
<text text-anchor="middle" x="52.83" y="-45.41" font-family="Helvetica,sans-Serif" font-size="10.00" fill="#63b8ff">1</text>
</a>
</g>
</g>
<!-- dir_acbc1d10486dee7ed605fd17535f782c&#45;&gt;dir_aebb8dcc11953d78e620bbef0b9e2183 -->
<g id="edge3" class="edge">
<title>dir_acbc1d10486dee7ed605fd17535f782c&#45;&gt;dir_aebb8dcc11953d78e620bbef0b9e2183</title>
<path fill="none" stroke="#63b8ff" d="M73.08,-74.51C75.03,-67.57 77.62,-58.37 79.96,-50.02"/>
<polygon fill="#63b8ff" stroke="#63b8ff" points="83.59,-51.03 82.92,-40.46 76.85,-49.14 83.59,-51.03"/>
<g id="a_edge3&#45;headlabel"><a xlink:href="dir_000009_000003.html" target="_top" xlink:title="2">
<text text-anchor="middle" x="85.35" y="-52.26" font-family="Helvetica,sans-Serif" font-size="10.00" fill="#63b8ff">2</text>
</a>
</g>
</g>
<!-- dir_acbc1d10486dee7ed605fd17535f782c&#45;&gt;dir_313caf1132e152dd9b58bea13a4052ca -->
<g id="edge1" class="edge">
<title>dir_acbc1d10486dee7ed605fd17535f782c&#45;&gt;dir_313caf1132e152dd9b58bea13a4052ca</title>
<path fill="none" stroke="#63b8ff" d="M83.11,-74.51C92.61,-66.55 105.67,-55.6 116.66,-46.39"/>
<polygon fill="#63b8ff" stroke="#63b8ff" points="118.51,-48.56 123.93,-39.46 114.02,-43.2 118.51,-48.56"/>
<g id="a_edge1&#45;headlabel"><a xlink:href="dir_000009_000014.html" target="_top" xlink:title="1">
<text text-anchor="middle" x="118.58" y="-51.05" font-family="Helvetica,sans-Serif" font-size="10.00" fill="#63b8ff">1</text>
</a>
</g>
</g>
</g>
</svg>
