<?xml version="1.0" encoding="UTF-8" standalone="no"?>
<!DOCTYPE svg PUBLIC "-//W3C//DTD SVG 1.1//EN"
 "http://www.w3.org/Graphics/SVG/1.1/DTD/svg11.dtd">
<!-- Generated by graphviz version 8.1.0 (20230707.0739)
 -->
<!-- Title: src Pages: 1 -->
<svg width="426pt" height="299pt"
 viewBox="0.00 0.00 426.00 299.00" xmlns="http://www.w3.org/2000/svg" xmlns:xlink="http://www.w3.org/1999/xlink">

<svg id="main" version="1.1" xmlns="http://www.w3.org/2000/svg" xmlns:xlink="http://www.w3.org/1999/xlink" xml:space="preserve" onload="init(evt)">
<style type="text/css"><![CDATA[
.node, .edge {opacity: 0.7;}
.node.selected, .edge.selected {opacity: 1;}
.edge:hover path { stroke: red; }
.edge:hover polygon { stroke: red; fill: red; }
]]></style>
<script type="application/ecmascript" xlink:href="svg.min.js"/>
<svg id="graph" class="graph">
<g id="graph0" class="graph" transform="scale(1 1) rotate(0) translate(4 295)">
<title>src</title>
<g id="clust1" class="cluster">
<title>clusterdir_68267d1309a1af8e8297ef4c3efbcdba</title>
<g id="a_clust1"><a xlink:href="dir_68267d1309a1af8e8297ef4c3efbcdba.html" target="_top">
<polygon fill="#edf0f7" stroke="#404040" stroke-width="2" points="8,-8 8,-283 410,-283 410,-8 8,-8"/>
</a>
</g>
</g>
<g id="clust2" class="cluster">
<title>clusterdir_6e22baae89fb4f62b43e7345b371b522</title>
<g id="a_clust2"><a xlink:href="dir_6e22baae89fb4f62b43e7345b371b522.html" target="_top">
<polygon fill="#e9edf5" stroke="#404040" points="48,-126 48,-165 166,-165 166,-126 48,-126"/>
</a>
</g>
</g>
<g id="clust3" class="cluster">
<title>clusterdir_8a0776572ba2252f65a895457421e228</title>
<g id="a_clust3"><a xlink:href="dir_8a0776572ba2252f65a895457421e228.html" target="_top">
<polygon fill="#e9edf5" stroke="#404040" points="48,-67 48,-106 167,-106 167,-67 48,-67"/>
</a>
</g>
</g>
<g id="clust4" class="cluster">
<title>clusterdir_4b9d01165433dba703e06bc6af058de1</title>
<g id="a_clust4"><a xlink:href="dir_4b9d01165433dba703e06bc6af058de1.html" target="_top">
<polygon fill="#e9edf5" stroke="#404040" points="206,-118 206,-224 358,-224 358,-118 206,-118"/>
</a>
</g>
</g>
<g id="clust5" class="cluster">
<title>clusterdir_e307ad8ef99ef159cd3a817b3316e956</title>
<g id="a_clust5"><a xlink:href="dir_e307ad8ef99ef159cd3a817b3316e956.html" target="_top">
<polygon fill="#e5e9f3" stroke="#404040" points="238,-126 238,-165 350,-165 350,-126 238,-126"/>
</a>
</g>
</g>
<!-- dir_68267d1309a1af8e8297ef4c3efbcdba -->
<g id="node1" class="node">
<title>dir_68267d1309a1af8e8297ef4c3efbcdba</title>
<text text-anchor="middle" x="111" y="-261.5" font-family="Helvetica,sans-Serif" font-size="10.00">src</text>
</g>
<!-- dir_6a31b2397dc4c9d870dd3b4cb40afb8c -->
<g id="node2" class="node">
<title>dir_6a31b2397dc4c9d870dd3b4cb40afb8c</title>
<g id="a_node2"><a xlink:href="dir_6a31b2397dc4c9d870dd3b4cb40afb8c.html" target="_top" xlink:title="args">
<polygon fill="#e9edf5" stroke="#404040" points="402.38,-216 367.62,-216 367.62,-193 402.38,-193 402.38,-216"/>
<text text-anchor="middle" x="385" y="-202.5" font-family="Helvetica,sans-Serif" font-size="10.00">args</text>
</a>
</g>
</g>
<!-- dir_68267d1309a1af8e8297ef4c3efbcdba&#45;&gt;dir_6a31b2397dc4c9d870dd3b4cb40afb8c -->
<g id="edge3" class="edge">
<title>dir_68267d1309a1af8e8297ef4c3efbcdba&#45;&gt;dir_6a31b2397dc4c9d870dd3b4cb40afb8c</title>
<path fill="none" stroke="#63b8ff" d="M125.6,-262.85C165.37,-263.26 278.28,-260.87 362,-224 363.08,-223.53 364.15,-222.99 365.2,-222.4"/>
<polygon fill="#63b8ff" stroke="#63b8ff" points="366.88,-224.8 373.09,-216.21 362.88,-219.05 366.88,-224.8"/>
<g id="a_edge3&#45;headlabel"><a xlink:href="dir_000011_000000.html" target="_top" xlink:title="1">
<text text-anchor="middle" x="366.56" y="-227.18" font-family="Helvetica,sans-Serif" font-size="10.00" fill="#63b8ff">1</text>
</a>
</g>
</g>
<!-- dir_acbc1d10486dee7ed605fd17535f782c -->
<g id="node4" class="node">
<title>dir_acbc1d10486dee7ed605fd17535f782c</title>
<g id="a_node4"><a xlink:href="dir_acbc1d10486dee7ed605fd17535f782c.html" target="_top" xlink:title="provider">
<polygon fill="#e5e9f3" stroke="#404040" points="106.25,-157 55.75,-157 55.75,-134 106.25,-134 106.25,-157"/>
<text text-anchor="middle" x="81" y="-143.5" font-family="Helvetica,sans-Serif" font-size="10.00">provider</text>
</a>
</g>
</g>
<!-- dir_68267d1309a1af8e8297ef4c3efbcdba&#45;&gt;dir_acbc1d10486dee7ed605fd17535f782c -->
<g id="edge4" class="edge">
<title>dir_68267d1309a1af8e8297ef4c3efbcdba&#45;&gt;dir_acbc1d10486dee7ed605fd17535f782c</title>
<path fill="none" stroke="#63b8ff" d="M108.34,-252.21C103.46,-233.35 93,-192.89 86.52,-167.86"/>
<polygon fill="#63b8ff" stroke="#63b8ff" points="89.68,-167.08 83.79,-158.27 82.9,-168.83 89.68,-167.08"/>
<g id="a_edge4&#45;headlabel"><a xlink:href="dir_000011_000009.html" target="_top" xlink:title="1">
<text text-anchor="middle" x="93.33" y="-166.85" font-family="Helvetica,sans-Serif" font-size="10.00" fill="#63b8ff">1</text>
</a>
</g>
</g>
<!-- dir_55ab1c35dad40407dfccc3d3afe53c52 -->
<g id="node6" class="node">
<title>dir_55ab1c35dad40407dfccc3d3afe53c52</title>
<g id="a_node6"><a xlink:href="dir_55ab1c35dad40407dfccc3d3afe53c52.html" target="_top" xlink:title="provider">
<polygon fill="#e5e9f3" stroke="#404040" points="106.25,-98 55.75,-98 55.75,-75 106.25,-75 106.25,-98"/>
<text text-anchor="middle" x="81" y="-84.5" font-family="Helvetica,sans-Serif" font-size="10.00">provider</text>
</a>
</g>
</g>
<!-- dir_68267d1309a1af8e8297ef4c3efbcdba&#45;&gt;dir_55ab1c35dad40407dfccc3d3afe53c52 -->
<g id="edge2" class="edge">
<title>dir_68267d1309a1af8e8297ef4c3efbcdba&#45;&gt;dir_55ab1c35dad40407dfccc3d3afe53c52</title>
<path fill="none" stroke="#63b8ff" d="M100.74,-252.27C84.92,-235.67 55.21,-201.09 44,-165 37.81,-145.05 35.09,-136.89 44,-118 46.23,-113.26 49.61,-109.01 53.42,-105.29"/>
<polygon fill="#63b8ff" stroke="#63b8ff" points="55.22,-107.52 60.65,-98.42 50.73,-102.14 55.22,-107.52"/>
<g id="a_edge2&#45;headlabel"><a xlink:href="dir_000011_000010.html" target="_top" xlink:title="1">
<text text-anchor="middle" x="55.28" y="-110" font-family="Helvetica,sans-Serif" font-size="10.00" fill="#63b8ff">1</text>
</a>
</g>
</g>
<!-- dir_c184e51c84f2c3f0345bbc8a0d75d3e1 -->
<g id="node13" class="node">
<title>dir_c184e51c84f2c3f0345bbc8a0d75d3e1</title>
<g id="a_node13"><a xlink:href="dir_c184e51c84f2c3f0345bbc8a0d75d3e1.html" target="_top" xlink:title="io">
<polygon fill="#e9edf5" stroke="#404040" points="196.4,-216 167.6,-216 167.6,-193 196.4,-193 196.4,-216"/>
<text text-anchor="middle" x="182" y="-202.5" font-family="Helvetica,sans-Serif" font-size="10.00">io</text>
</a>
</g>
</g>
<!-- dir_68267d1309a1af8e8297ef4c3efbcdba&#45;&gt;dir_c184e51c84f2c3f0345bbc8a0d75d3e1 -->
<g id="edge5" class="edge">
<title>dir_68267d1309a1af8e8297ef4c3efbcdba&#45;&gt;dir_c184e51c84f2c3f0345bbc8a0d75d3e1</title>
<path fill="none" stroke="#63b8ff" d="M124.04,-252.05C133.7,-244.31 147.17,-233.5 159,-224 159.28,-223.77 159.57,-223.54 159.86,-223.31"/>
<polygon fill="#63b8ff" stroke="#63b8ff" points="161.78,-225.45 167.38,-216.46 157.39,-220 161.78,-225.45"/>
<g id="a_edge5&#45;headlabel"><a xlink:href="dir_000011_000007.html" target="_top" xlink:title="1">
<text text-anchor="middle" x="161.76" y="-227.92" font-family="Helvetica,sans-Serif" font-size="10.00" fill="#63b8ff">1</text>
</a>
</g>
</g>
<!-- dir_c647613bd4231a608201612dac91c27a -->
<g id="node14" class="node">
<title>dir_c647613bd4231a608201612dac91c27a</title>
<g id="a_node14"><a xlink:href="dir_c647613bd4231a608201612dac91c27a.html" target="_top" xlink:title="logs">
<polygon fill="#e9edf5" stroke="#404040" points="150,-216 116,-216 116,-193 150,-193 150,-216"/>
<text text-anchor="middle" x="133" y="-202.5" font-family="Helvetica,sans-Serif" font-size="10.00">logs</text>
</a>
</g>
</g>
<!-- dir_68267d1309a1af8e8297ef4c3efbcdba&#45;&gt;dir_c647613bd4231a608201612dac91c27a -->
<g id="edge6" class="edge">
<title>dir_68267d1309a1af8e8297ef4c3efbcdba&#45;&gt;dir_c647613bd4231a608201612dac91c27a</title>
<path fill="none" stroke="#63b8ff" d="M115.04,-252.05C117.79,-244.9 121.54,-235.2 124.9,-226.49"/>
<polygon fill="#63b8ff" stroke="#63b8ff" points="128.51,-227.87 128.84,-217.28 121.97,-225.34 128.51,-227.87"/>
<g id="a_edge6&#45;headlabel"><a xlink:href="dir_000011_000008.html" target="_top" xlink:title="2">
<text text-anchor="middle" x="129.86" y="-229.24" font-family="Helvetica,sans-Serif" font-size="10.00" fill="#63b8ff">2</text>
</a>
</g>
</g>
<!-- dir_313caf1132e152dd9b58bea13a4052ca -->
<g id="node15" class="node">
<title>dir_313caf1132e152dd9b58bea13a4052ca</title>
<g id="a_node15"><a xlink:href="dir_313caf1132e152dd9b58bea13a4052ca.html" target="_top" xlink:title="utils">
<polygon fill="#e9edf5" stroke="#404040" points="76,-39 42,-39 42,-16 76,-16 76,-39"/>
<text text-anchor="middle" x="59" y="-25.5" font-family="Helvetica,sans-Serif" font-size="10.00">utils</text>
</a>
</g>
</g>
<!-- dir_68267d1309a1af8e8297ef4c3efbcdba&#45;&gt;dir_313caf1132e152dd9b58bea13a4052ca -->
<g id="edge1" class="edge">
<title>dir_68267d1309a1af8e8297ef4c3efbcdba&#45;&gt;dir_313caf1132e152dd9b58bea13a4052ca</title>
<path fill="none" stroke="#63b8ff" d="M96.27,-256.45C82.86,-250.21 63.46,-239.25 52,-224 35.53,-202.08 38.04,-192.12 34,-165 27.57,-121.91 23.59,-108.76 36,-67 37.93,-60.5 41.21,-53.96 44.7,-48.17"/>
<polygon fill="#63b8ff" stroke="#63b8ff" points="47.99,-50.53 50.56,-40.26 42.14,-46.69 47.99,-50.53"/>
<g id="a_edge1&#45;headlabel"><a xlink:href="dir_000011_000014.html" target="_top" xlink:title="4">
<text text-anchor="middle" x="48.39" y="-52.1" font-family="Helvetica,sans-Serif" font-size="10.00" fill="#63b8ff">4</text>
</a>
</g>
</g>
<!-- dir_55243687adda8a5165b7d7e63c20f3e3 -->
<g id="node10" class="node">
<title>dir_55243687adda8a5165b7d7e63c20f3e3</title>
<g id="a_node10"><a xlink:href="dir_55243687adda8a5165b7d7e63c20f3e3.html" target="_top" xlink:title="info">
<polygon fill="#e1e7f2" stroke="#404040" points="277.88,-157 246.12,-157 246.12,-134 277.88,-134 277.88,-157"/>
<text text-anchor="middle" x="262" y="-143.5" font-family="Helvetica,sans-Serif" font-size="10.00">info</text>
</a>
</g>
</g>
<!-- dir_6a31b2397dc4c9d870dd3b4cb40afb8c&#45;&gt;dir_55243687adda8a5165b7d7e63c20f3e3 -->
<g id="edge7" class="edge">
<title>dir_6a31b2397dc4c9d870dd3b4cb40afb8c&#45;&gt;dir_55243687adda8a5165b7d7e63c20f3e3</title>
<path fill="none" stroke="#63b8ff" d="M367.22,-195.23C365.47,-194.46 363.7,-193.71 362,-193 329.13,-179.38 318.27,-181.97 287,-165 286.13,-164.53 285.25,-164.03 284.38,-163.5"/>
<polygon fill="#63b8ff" stroke="#63b8ff" points="286.55,-160.07 276.29,-157.4 282.64,-165.88 286.55,-160.07"/>
<g id="a_edge7&#45;headlabel"><a xlink:href="dir_000000_000006.html" target="_top" xlink:title="1">
<text text-anchor="middle" x="290.11" y="-157.72" font-family="Helvetica,sans-Serif" font-size="10.00" fill="#63b8ff">1</text>
</a>
</g>
</g>
<!-- dir_6e22baae89fb4f62b43e7345b371b522 -->
<g id="node3" class="node">
<title>dir_6e22baae89fb4f62b43e7345b371b522</title>
<text text-anchor="middle" x="141" y="-143.5" font-family="Helvetica,sans-Serif" font-size="10.00">bulk</text>
</g>
<!-- dir_8a0776572ba2252f65a895457421e228 -->
<g id="node5" class="node">
<title>dir_8a0776572ba2252f65a895457421e228</title>
<text text-anchor="middle" x="142" y="-84.5" font-family="Helvetica,sans-Serif" font-size="10.00">cmd</text>
</g>
<!-- dir_acbc1d10486dee7ed605fd17535f782c&#45;&gt;dir_8a0776572ba2252f65a895457421e228 -->
<g id="edge9" class="edge">
<title>dir_acbc1d10486dee7ed605fd17535f782c&#45;&gt;dir_8a0776572ba2252f65a895457421e228</title>
<path fill="none" stroke="#63b8ff" d="M92.76,-133.51C101.42,-125.42 113.36,-114.26 123.31,-104.96"/>
<polygon fill="#63b8ff" stroke="#63b8ff" points="125.18,-108.08 130.09,-98.69 120.4,-102.96 125.18,-108.08"/>
<g id="a_edge9&#45;headlabel"><a xlink:href="dir_000009_000002.html" target="_top" xlink:title="1">
<text text-anchor="middle" x="125.49" y="-109.6" font-family="Helvetica,sans-Serif" font-size="10.00" fill="#63b8ff">1</text>
</a>
</g>
</g>
<!-- dir_aebb8dcc11953d78e620bbef0b9e2183 -->
<g id="node7" class="node">
<title>dir_aebb8dcc11953d78e620bbef0b9e2183</title>
<g id="a_node7"><a xlink:href="dir_aebb8dcc11953d78e620bbef0b9e2183.html" target="_top" xlink:title="core">
<polygon fill="#e9edf5" stroke="#404040" points="195.38,-39 160.62,-39 160.62,-16 195.38,-16 195.38,-39"/>
<text text-anchor="middle" x="178" y="-25.5" font-family="Helvetica,sans-Serif" font-size="10.00">core</text>
</a>
</g>
</g>
<!-- dir_acbc1d10486dee7ed605fd17535f782c&#45;&gt;dir_aebb8dcc11953d78e620bbef0b9e2183 -->
<g id="edge10" class="edge">
<title>dir_acbc1d10486dee7ed605fd17535f782c&#45;&gt;dir_aebb8dcc11953d78e620bbef0b9e2183</title>
<path fill="none" stroke="#63b8ff" d="M92.09,-133.76C98.35,-128.26 106.59,-121.92 115,-118 138.07,-107.24 154.12,-125.05 171,-106 184.32,-90.96 184.53,-67.25 182.36,-50.01"/>
<polygon fill="#63b8ff" stroke="#63b8ff" points="185.68,-49.6 180.62,-40.3 178.77,-50.73 185.68,-49.6"/>
<g id="a_edge10&#45;headlabel"><a xlink:href="dir_000009_000003.html" target="_top" xlink:title="2">
<text text-anchor="middle" x="189.06" y="-49.69" font-family="Helvetica,sans-Serif" font-size="10.00" fill="#63b8ff">2</text>
</a>
</g>
</g>
<!-- dir_acbc1d10486dee7ed605fd17535f782c&#45;&gt;dir_313caf1132e152dd9b58bea13a4052ca -->
<g id="edge8" class="edge">
<title>dir_acbc1d10486dee7ed605fd17535f782c&#45;&gt;dir_313caf1132e152dd9b58bea13a4052ca</title>
<path fill="none" stroke="#63b8ff" d="M68.94,-133.84C59.18,-124.88 46.63,-112.54 44,-106 36.6,-87.61 42.35,-65.27 48.75,-49.3"/>
<polygon fill="#63b8ff" stroke="#63b8ff" points="52.29,-50.96 53.13,-40.4 45.89,-48.13 52.29,-50.96"/>
<g id="a_edge8&#45;headlabel"><a xlink:href="dir_000009_000014.html" target="_top" xlink:title="1">
<text text-anchor="middle" x="53.43" y="-52.39" font-family="Helvetica,sans-Serif" font-size="10.00" fill="#63b8ff">1</text>
</a>
</g>
</g>
<!-- dir_8a0776572ba2252f65a895457421e228&#45;&gt;dir_313caf1132e152dd9b58bea13a4052ca -->
<g id="edge11" class="edge">
<title>dir_8a0776572ba2252f65a895457421e228&#45;&gt;dir_313caf1132e152dd9b58bea13a4052ca</title>
<path fill="none" stroke="#63b8ff" d="M126.78,-75.05C114.72,-66.77 97.64,-55.04 83.65,-45.42"/>
<polygon fill="#63b8ff" stroke="#63b8ff" points="86.2,-42.25 75.98,-39.47 82.24,-48.02 86.2,-42.25"/>
<g id="a_edge11&#45;headlabel"><a xlink:href="dir_000002_000014.html" target="_top" xlink:title="2">
<text text-anchor="middle" x="89.77" y="-39.94" font-family="Helvetica,sans-Serif" font-size="10.00" fill="#63b8ff">2</text>
</a>
</g>
</g>
<!-- dir_55ab1c35dad40407dfccc3d3afe53c52&#45;&gt;dir_aebb8dcc11953d78e620bbef0b9e2183 -->
<g id="edge13" class="edge">
<title>dir_55ab1c35dad40407dfccc3d3afe53c52&#45;&gt;dir_aebb8dcc11953d78e620bbef0b9e2183</title>
<path fill="none" stroke="#63b8ff" d="M99.7,-74.51C114.34,-65.91 134.88,-53.84 151.25,-44.22"/>
<polygon fill="#63b8ff" stroke="#63b8ff" points="152.49,-46.96 159.34,-38.88 148.94,-40.93 152.49,-46.96"/>
<g id="a_edge13&#45;headlabel"><a xlink:href="dir_000010_000003.html" target="_top" xlink:title="1">
<text text-anchor="middle" x="151.83" y="-49.23" font-family="Helvetica,sans-Serif" font-size="10.00" fill="#63b8ff">1</text>
</a>
</g>
</g>
<!-- dir_55ab1c35dad40407dfccc3d3afe53c52&#45;&gt;dir_313caf1132e152dd9b58bea13a4052ca -->
<g id="edge12" class="edge">
<title>dir_55ab1c35dad40407dfccc3d3afe53c52&#45;&gt;dir_313caf1132e152dd9b58bea13a4052ca</title>
<path fill="none" stroke="#63b8ff" d="M76.76,-74.51C74.02,-67.41 70.37,-57.95 67.09,-49.45"/>
<polygon fill="#63b8ff" stroke="#63b8ff" points="70.09,-48.53 63.23,-40.46 63.56,-51.05 70.09,-48.53"/>
<g id="a_edge12&#45;headlabel"><a xlink:href="dir_000010_000014.html" target="_top" xlink:title="1">
<text text-anchor="middle" x="74.04" y="-47.86" font-family="Helvetica,sans-Serif" font-size="10.00" fill="#63b8ff">1</text>
</a>
</g>
</g>
<!-- dir_4b9d01165433dba703e06bc6af058de1 -->
<g id="node8" class="node">
<title>dir_4b9d01165433dba703e06bc6af058de1</title>
<text text-anchor="middle" x="334" y="-202.5" font-family="Helvetica,sans-Serif" font-size="10.00">info</text>
</g>
<!-- dir_e307ad8ef99ef159cd3a817b3316e956 -->
<g id="node9" class="node">
<title>dir_e307ad8ef99ef159cd3a817b3316e956</title>
<text text-anchor="middle" x="319" y="-143.5" font-family="Helvetica,sans-Serif" font-size="10.00">include</text>
</g>
<!-- dir_5a39514f9f31a40f7d76cd75ab81b250 -->
<g id="node11" class="node">
<title>dir_5a39514f9f31a40f7d76cd75ab81b250</title>
<g id="a_node11"><a xlink:href="dir_5a39514f9f31a40f7d76cd75ab81b250.html" target="_top" xlink:title="src">
<polygon fill="#e5e9f3" stroke="#404040" points="299.75,-216 270.25,-216 270.25,-193 299.75,-193 299.75,-216"/>
<text text-anchor="middle" x="285" y="-202.5" font-family="Helvetica,sans-Serif" font-size="10.00">src</text>
</a>
</g>
</g>
<!-- dir_5a39514f9f31a40f7d76cd75ab81b250&#45;&gt;dir_55243687adda8a5165b7d7e63c20f3e3 -->
<g id="edge14" class="edge">
<title>dir_5a39514f9f31a40f7d76cd75ab81b250&#45;&gt;dir_55243687adda8a5165b7d7e63c20f3e3</title>
<path fill="none" stroke="#63b8ff" d="M280.57,-192.51C277.7,-185.41 273.88,-175.95 270.45,-167.45"/>
<polygon fill="#63b8ff" stroke="#63b8ff" points="273.41,-166.42 266.42,-158.46 266.92,-169.04 273.41,-166.42"/>
<g id="a_edge14&#45;headlabel"><a xlink:href="dir_000012_000006.html" target="_top" xlink:title="1">
<text text-anchor="middle" x="277.39" y="-165.69" font-family="Helvetica,sans-Serif" font-size="10.00" fill="#63b8ff">1</text>
</a>
</g>
</g>
<!-- dir_7d3730c0e184c233f92515fc7143aa77 -->
<g id="node12" class="node">
<title>dir_7d3730c0e184c233f92515fc7143aa77</title>
<g id="a_node12"><a xlink:href="dir_7d3730c0e184c233f92515fc7143aa77.html" target="_top" xlink:title="tests">
<polygon fill="#e5e9f3" stroke="#404040" points="251.88,-216 214.12,-216 214.12,-193 251.88,-193 251.88,-216"/>
<text text-anchor="middle" x="233" y="-202.5" font-family="Helvetica,sans-Serif" font-size="10.00">tests</text>
</a>
</g>
</g>
<!-- dir_7d3730c0e184c233f92515fc7143aa77&#45;&gt;dir_55243687adda8a5165b7d7e63c20f3e3 -->
<g id="edge15" class="edge">
<title>dir_7d3730c0e184c233f92515fc7143aa77&#45;&gt;dir_55243687adda8a5165b7d7e63c20f3e3</title>
<path fill="none" stroke="#63b8ff" d="M238.59,-192.51C242.24,-185.33 247.12,-175.74 251.48,-167.17"/>
<polygon fill="#63b8ff" stroke="#63b8ff" points="255.01,-168.96 256.43,-158.46 248.77,-165.78 255.01,-168.96"/>
<g id="a_edge15&#45;headlabel"><a xlink:href="dir_000013_000006.html" target="_top" xlink:title="1">
<text text-anchor="middle" x="255.91" y="-170.45" font-family="Helvetica,sans-Serif" font-size="10.00" fill="#63b8ff">1</text>
</a>
</g>
</g>
<!-- dir_c647613bd4231a608201612dac91c27a&#45;&gt;dir_6e22baae89fb4f62b43e7345b371b522 -->
<g id="edge16" class="edge">
<title>dir_c647613bd4231a608201612dac91c27a&#45;&gt;dir_6e22baae89fb4f62b43e7345b371b522</title>
<path fill="none" stroke="#63b8ff" d="M134.54,-192.51C135.54,-185.39 136.87,-175.9 138.07,-167.38"/>
<polygon fill="#63b8ff" stroke="#63b8ff" points="141.65,-168.08 139.57,-157.69 134.71,-167.11 141.65,-168.08"/>
<g id="a_edge16&#45;headlabel"><a xlink:href="dir_000008_000001.html" target="_top" xlink:title="2">
<text text-anchor="middle" x="143.96" y="-169.03" font-family="Helvetica,sans-Serif" font-size="10.00" fill="#63b8ff">2</text>
</a>
</g>
</g>
<!-- dir_c647613bd4231a608201612dac91c27a&#45;&gt;dir_8a0776572ba2252f65a895457421e228 -->
<g id="edge17" class="edge">
<title>dir_c647613bd4231a608201612dac91c27a&#45;&gt;dir_8a0776572ba2252f65a895457421e228</title>
<path fill="none" stroke="#63b8ff" d="M148.18,-192.51C156.32,-185.63 165.57,-176.01 170,-165 177.8,-145.62 177.58,-137.47 170,-118 168.3,-113.63 165.64,-109.51 162.64,-105.79"/>
<polygon fill="#63b8ff" stroke="#63b8ff" points="165.64,-103.81 156.25,-98.92 160.54,-108.6 165.64,-103.81"/>
<g id="a_edge17&#45;headlabel"><a xlink:href="dir_000008_000002.html" target="_top" xlink:title="1">
<text text-anchor="middle" x="169.17" y="-101.49" font-family="Helvetica,sans-Serif" font-size="10.00" fill="#63b8ff">1</text>
</a>
</g>
</g>
<!-- dir_c647613bd4231a608201612dac91c27a&#45;&gt;dir_aebb8dcc11953d78e620bbef0b9e2183 -->
<g id="edge18" class="edge">
<title>dir_c647613bd4231a608201612dac91c27a&#45;&gt;dir_aebb8dcc11953d78e620bbef0b9e2183</title>
<path fill="none" stroke="#63b8ff" d="M150.16,-193.26C159.79,-186.52 171.04,-176.78 177,-165 195.72,-127.99 189.31,-77.79 183.38,-49.73"/>
<polygon fill="#63b8ff" stroke="#63b8ff" points="186.61,-49.12 180.95,-40.17 179.78,-50.7 186.61,-49.12"/>
<g id="a_edge18&#45;headlabel"><a xlink:href="dir_000008_000003.html" target="_top" xlink:title="2">
<text text-anchor="middle" x="190.18" y="-48.99" font-family="Helvetica,sans-Serif" font-size="10.00" fill="#63b8ff">2</text>
</a>
</g>
</g>
</g>
</svg>
</svg>

<style type='text/css'>
<![CDATA[
[data-mouse-over-selected='false'] { opacity: 0.7; }
[data-mouse-over-selected='true']  { opacity: 1.0; }
]]>
</style>
<script type="application/ecmascript"><![CDATA[
document.addEventListener('DOMContentLoaded', (event) => {
  highlightEdges();
  highlightAdjacentNodes();
});
]]></script>
</svg>
