<?xml version="1.0" encoding="UTF-8" standalone="no"?>
<!DOCTYPE svg PUBLIC "-//W3C//DTD SVG 1.1//EN"
 "http://www.w3.org/Graphics/SVG/1.1/DTD/svg11.dtd">
<!-- Generated by graphviz version 8.1.0 (20230707.0739)
 -->
<!-- Title: src/logs/file_writer.hpp Pages: 1 -->
<svg width="610pt" height="149pt"
 viewBox="0.00 0.00 610.12 149.00" xmlns="http://www.w3.org/2000/svg" xmlns:xlink="http://www.w3.org/1999/xlink">
<g id="graph0" class="graph" transform="scale(1 1) rotate(0) translate(4 145)">
<title>src/logs/file_writer.hpp</title>
<!-- Node1 -->
<g id="Node000001" class="node">
<title>Node1</title>
<g id="a_Node000001"><a xlink:title=" ">
<polygon fill="#999999" stroke="#666666" points="233.62,-141 119.38,-141 119.38,-118 233.62,-118 233.62,-141"/>
<text text-anchor="middle" x="176.5" y="-127.5" font-family="Helvetica,sans-Serif" font-size="10.00">src/logs/file_writer.hpp</text>
</a>
</g>
</g>
<!-- Node2 -->
<g id="Node000002" class="node">
<title>Node2</title>
<g id="a_Node000002"><a xlink:title=" ">
<polygon fill="#e0e0e0" stroke="#999999" points="61,-82 0,-82 0,-59 61,-59 61,-82"/>
<text text-anchor="middle" x="30.5" y="-68.5" font-family="Helvetica,sans-Serif" font-size="10.00">filesystem</text>
</a>
</g>
</g>
<!-- Node1&#45;&gt;Node2 -->
<g id="edge1_Node000001_Node000002" class="edge">
<title>Node1&#45;&gt;Node2</title>
<g id="a_edge1_Node000001_Node000002"><a xlink:title=" ">
<path fill="none" stroke="#63b8ff" d="M148.35,-117.51C125.73,-108.68 93.72,-96.18 68.78,-86.44"/>
<polygon fill="#63b8ff" stroke="#63b8ff" points="70.15,-82.83 59.56,-82.46 67.61,-89.35 70.15,-82.83"/>
</a>
</g>
</g>
<!-- Node3 -->
<g id="Node000003" class="node">
<title>Node3</title>
<g id="a_Node000003"><a xlink:title=" ">
<polygon fill="#e0e0e0" stroke="#999999" points="189.38,-23 145.62,-23 145.62,0 189.38,0 189.38,-23"/>
<text text-anchor="middle" x="167.5" y="-9.5" font-family="Helvetica,sans-Serif" font-size="10.00">format</text>
</a>
</g>
</g>
<!-- Node1&#45;&gt;Node3 -->
<g id="edge2_Node000001_Node000003" class="edge">
<title>Node1&#45;&gt;Node3</title>
<g id="a_edge2_Node000001_Node000003"><a xlink:title=" ">
<path fill="none" stroke="#63b8ff" d="M149.26,-117.57C134.31,-110 117.11,-98.32 108.5,-82 97.85,-61.82 117.91,-42.33 137.46,-29.15"/>
<polygon fill="#63b8ff" stroke="#63b8ff" points="139.01,-31.68 145.59,-23.38 135.27,-25.76 139.01,-31.68"/>
</a>
</g>
</g>
<!-- Node4 -->
<g id="Node000004" class="node">
<title>Node4</title>
<g id="a_Node000004"><a xlink:title=" ">
<polygon fill="#e0e0e0" stroke="#999999" points="167,-82 118,-82 118,-59 167,-59 167,-82"/>
<text text-anchor="middle" x="142.5" y="-68.5" font-family="Helvetica,sans-Serif" font-size="10.00">fstream</text>
</a>
</g>
</g>
<!-- Node1&#45;&gt;Node4 -->
<g id="edge3_Node000001_Node000004" class="edge">
<title>Node1&#45;&gt;Node4</title>
<g id="a_edge3_Node000001_Node000004"><a xlink:title=" ">
<path fill="none" stroke="#63b8ff" d="M169.94,-117.51C165.62,-110.26 159.82,-100.53 154.66,-91.89"/>
<polygon fill="#63b8ff" stroke="#63b8ff" points="157.16,-90.25 149.04,-83.46 151.15,-93.84 157.16,-90.25"/>
</a>
</g>
</g>
<!-- Node5 -->
<g id="Node000005" class="node">
<title>Node5</title>
<g id="a_Node000005"><a xlink:title=" ">
<polygon fill="#e0e0e0" stroke="#999999" points="237.5,-82 185.5,-82 185.5,-59 237.5,-59 237.5,-82"/>
<text text-anchor="middle" x="211.5" y="-68.5" font-family="Helvetica,sans-Serif" font-size="10.00">memory</text>
</a>
</g>
</g>
<!-- Node1&#45;&gt;Node5 -->
<g id="edge4_Node000001_Node000005" class="edge">
<title>Node1&#45;&gt;Node5</title>
<g id="a_edge4_Node000001_Node000005"><a xlink:title=" ">
<path fill="none" stroke="#63b8ff" d="M183.25,-117.51C187.75,-110.18 193.81,-100.32 199.15,-91.61"/>
<polygon fill="#63b8ff" stroke="#63b8ff" points="202.52,-93.81 204.77,-83.46 196.56,-90.15 202.52,-93.81"/>
</a>
</g>
</g>
<!-- Node6 -->
<g id="Node000006" class="node">
<title>Node6</title>
<g id="a_Node000006"><a xlink:href="bulk__event_8hpp.html" target="_top" xlink:title=" ">
<polygon fill="white" stroke="#666666" points="504.12,-82 392.88,-82 392.88,-59 504.12,-59 504.12,-82"/>
<text text-anchor="middle" x="448.5" y="-68.5" font-family="Helvetica,sans-Serif" font-size="10.00">../bulk/bulk_event.hpp</text>
</a>
</g>
</g>
<!-- Node1&#45;&gt;Node6 -->
<g id="edge5_Node000001_Node000006" class="edge">
<title>Node1&#45;&gt;Node6</title>
<g id="a_edge5_Node000001_Node000006"><a xlink:title=" ">
<path fill="none" stroke="#63b8ff" d="M228.94,-117.51C273.72,-108.13 338.23,-94.61 385.74,-84.65"/>
<polygon fill="#63b8ff" stroke="#63b8ff" points="386.15,-87.93 395.22,-82.46 384.71,-81.08 386.15,-87.93"/>
</a>
</g>
</g>
<!-- Node11 -->
<g id="Node000011" class="node">
<title>Node11</title>
<g id="a_Node000011"><a xlink:href="subscriber_8hpp.html" target="_top" xlink:title=" ">
<polygon fill="white" stroke="#666666" points="365.75,-82 255.25,-82 255.25,-59 365.75,-59 365.75,-82"/>
<text text-anchor="middle" x="310.5" y="-68.5" font-family="Helvetica,sans-Serif" font-size="10.00">../core/subscriber.hpp</text>
</a>
</g>
</g>
<!-- Node1&#45;&gt;Node11 -->
<g id="edge10_Node000001_Node000011" class="edge">
<title>Node1&#45;&gt;Node11</title>
<g id="a_edge10_Node000001_Node000011"><a xlink:title=" ">
<path fill="none" stroke="#63b8ff" d="M202.34,-117.51C222.91,-108.76 251.95,-96.41 274.75,-86.71"/>
<polygon fill="#63b8ff" stroke="#63b8ff" points="275.91,-89.59 283.74,-82.46 273.17,-83.15 275.91,-89.59"/>
</a>
</g>
</g>
<!-- Node7 -->
<g id="Node000007" class="node">
<title>Node7</title>
<g id="a_Node000007"><a xlink:title=" ">
<polygon fill="#e0e0e0" stroke="#999999" points="533.12,-23 487.88,-23 487.88,0 533.12,0 533.12,-23"/>
<text text-anchor="middle" x="510.5" y="-9.5" font-family="Helvetica,sans-Serif" font-size="10.00">chrono</text>
</a>
</g>
</g>
<!-- Node6&#45;&gt;Node7 -->
<g id="edge6_Node000006_Node000007" class="edge">
<title>Node6&#45;&gt;Node7</title>
<g id="a_edge6_Node000006_Node000007"><a xlink:title=" ">
<path fill="none" stroke="#63b8ff" d="M460.45,-58.51C469.03,-50.62 480.78,-39.82 490.75,-30.66"/>
<polygon fill="#63b8ff" stroke="#63b8ff" points="492.59,-33.8 497.58,-24.46 487.85,-28.65 492.59,-33.8"/>
</a>
</g>
</g>
<!-- Node8 -->
<g id="Node000008" class="node">
<title>Node8</title>
<g id="a_Node000008"><a xlink:title=" ">
<polygon fill="#e0e0e0" stroke="#999999" points="602.12,-23 550.88,-23 550.88,0 602.12,0 602.12,-23"/>
<text text-anchor="middle" x="576.5" y="-9.5" font-family="Helvetica,sans-Serif" font-size="10.00">ostream</text>
</a>
</g>
</g>
<!-- Node6&#45;&gt;Node8 -->
<g id="edge7_Node000006_Node000008" class="edge">
<title>Node6&#45;&gt;Node8</title>
<g id="a_edge7_Node000006_Node000008"><a xlink:title=" ">
<path fill="none" stroke="#63b8ff" d="M473.18,-58.51C492.75,-49.8 520.32,-37.52 542.06,-27.84"/>
<polygon fill="#63b8ff" stroke="#63b8ff" points="543.18,-30.72 550.9,-23.46 540.34,-24.33 543.18,-30.72"/>
</a>
</g>
</g>
<!-- Node9 -->
<g id="Node000009" class="node">
<title>Node9</title>
<g id="a_Node000009"><a xlink:title=" ">
<polygon fill="#e0e0e0" stroke="#999999" points="409.25,-23 343.75,-23 343.75,0 409.25,0 409.25,-23"/>
<text text-anchor="middle" x="376.5" y="-9.5" font-family="Helvetica,sans-Serif" font-size="10.00">string_view</text>
</a>
</g>
</g>
<!-- Node6&#45;&gt;Node9 -->
<g id="edge8_Node000006_Node000009" class="edge">
<title>Node6&#45;&gt;Node9</title>
<g id="a_edge8_Node000006_Node000009"><a xlink:title=" ">
<path fill="none" stroke="#63b8ff" d="M434.62,-58.51C424.46,-50.47 410.46,-39.39 398.75,-30.11"/>
<polygon fill="#63b8ff" stroke="#63b8ff" points="401.35,-26.92 391.34,-23.46 397.01,-32.41 401.35,-26.92"/>
</a>
</g>
</g>
<!-- Node10 -->
<g id="Node000010" class="node">
<title>Node10</title>
<g id="a_Node000010"><a xlink:title=" ">
<polygon fill="#e0e0e0" stroke="#999999" points="469.62,-23 427.38,-23 427.38,0 469.62,0 469.62,-23"/>
<text text-anchor="middle" x="448.5" y="-9.5" font-family="Helvetica,sans-Serif" font-size="10.00">vector</text>
</a>
</g>
</g>
<!-- Node6&#45;&gt;Node10 -->
<g id="edge9_Node000006_Node000010" class="edge">
<title>Node6&#45;&gt;Node10</title>
<g id="a_edge9_Node000006_Node000010"><a xlink:title=" ">
<path fill="none" stroke="#63b8ff" d="M448.5,-58.51C448.5,-51.65 448.5,-42.58 448.5,-34.31"/>
<polygon fill="#63b8ff" stroke="#63b8ff" points="452,-34.46 448.5,-24.46 445,-34.46 452,-34.46"/>
</a>
</g>
</g>
<!-- Node11&#45;&gt;Node3 -->
<g id="edge11_Node000011_Node000003" class="edge">
<title>Node11&#45;&gt;Node3</title>
<g id="a_edge11_Node000011_Node000003"><a xlink:title=" ">
<path fill="none" stroke="#63b8ff" d="M282.93,-58.51C259.21,-49.06 224.96,-35.4 199.93,-25.43"/>
<polygon fill="#63b8ff" stroke="#63b8ff" points="201.41,-21.85 190.82,-21.4 198.82,-28.35 201.41,-21.85"/>
</a>
</g>
</g>
<!-- Node12 -->
<g id="Node000012" class="node">
<title>Node12</title>
<g id="a_Node000012"><a xlink:title=" ">
<polygon fill="#e0e0e0" stroke="#999999" points="325.75,-23 275.25,-23 275.25,0 325.75,0 325.75,-23"/>
<text text-anchor="middle" x="300.5" y="-9.5" font-family="Helvetica,sans-Serif" font-size="10.00">typeinfo</text>
</a>
</g>
</g>
<!-- Node11&#45;&gt;Node12 -->
<g id="edge12_Node000011_Node000012" class="edge">
<title>Node11&#45;&gt;Node12</title>
<g id="a_edge12_Node000011_Node000012"><a xlink:title=" ">
<path fill="none" stroke="#63b8ff" d="M308.57,-58.51C307.35,-51.57 305.74,-42.37 304.28,-34.02"/>
<polygon fill="#63b8ff" stroke="#63b8ff" points="307.6,-33.7 302.42,-24.46 300.7,-34.91 307.6,-33.7"/>
</a>
</g>
</g>
</g>
</svg>
