<?xml version="1.0" encoding="UTF-8" standalone="no"?>
<!DOCTYPE svg PUBLIC "-//W3C//DTD SVG 1.1//EN"
 "http://www.w3.org/Graphics/SVG/1.1/DTD/svg11.dtd">
<!-- Generated by graphviz version 8.1.0 (20230707.0739)
 -->
<!-- Title: Graphical Class Hierarchy Pages: 1 -->
<svg width="297pt" height="214pt"
 viewBox="0.00 0.00 296.50 214.00" xmlns="http://www.w3.org/2000/svg" xmlns:xlink="http://www.w3.org/1999/xlink">
<g id="graph0" class="graph" transform="scale(1 1) rotate(0) translate(4 210)">
<title>Graphical Class Hierarchy</title>
<!-- Node0 -->
<g id="Node000000" class="node">
<title>Node0</title>
<g id="a_Node000000"><a xlink:title=" ">
<polygon fill="#e0e0e0" stroke="#999999" points="104.12,-94 5.62,-94 5.62,-56 104.12,-56 104.12,-94"/>
<text text-anchor="start" x="13.62" y="-80.5" font-family="Helvetica,sans-Serif" font-size="10.00">std::enable_shared</text>
<text text-anchor="middle" x="54.88" y="-65.5" font-family="Helvetica,sans-Serif" font-size="10.00">_from_this</text>
</a>
</g>
</g>
<!-- Node1 -->
<g id="Node000001" class="node">
<title>Node1</title>
<g id="a_Node000001"><a xlink:href="classbulk_1_1provider_1_1BulkTranslator.html" target="_top" xlink:title=" ">
<polygon fill="white" stroke="#666666" points="288.5,-142.5 145.75,-142.5 145.75,-119.5 288.5,-119.5 288.5,-142.5"/>
<text text-anchor="middle" x="217.12" y="-129" font-family="Helvetica,sans-Serif" font-size="10.00">bulk::provider::BulkTranslator</text>
</a>
</g>
</g>
<!-- Node0&#45;&gt;Node1 -->
<g id="edge2_Node000000_Node000001" class="edge">
<title>Node0&#45;&gt;Node1</title>
<g id="a_edge2_Node000000_Node000001"><a xlink:title=" ">
<path fill="none" stroke="#63b8ff" d="M114.6,-95.52C137.28,-103.45 162.42,-112.23 182.01,-119.08"/>
<polygon fill="#63b8ff" stroke="#63b8ff" points="115.98,-91.95 105.39,-91.95 113.68,-98.56 115.98,-91.95"/>
</a>
</g>
</g>
<!-- Node6 -->
<g id="Node000006" class="node">
<title>Node6</title>
<g id="a_Node000006"><a xlink:href="classlogs_1_1FileWriter.html" target="_top" xlink:title=" ">
<polygon fill="white" stroke="#666666" points="257.75,-38.5 176.5,-38.5 176.5,-15.5 257.75,-15.5 257.75,-38.5"/>
<text text-anchor="middle" x="217.12" y="-25" font-family="Helvetica,sans-Serif" font-size="10.00">logs::FileWriter</text>
</a>
</g>
</g>
<!-- Node0&#45;&gt;Node6 -->
<g id="edge3_Node000000_Node000006" class="edge">
<title>Node0&#45;&gt;Node6</title>
<g id="a_edge3_Node000000_Node000006"><a xlink:title=" ">
<path fill="none" stroke="#63b8ff" d="M114.85,-57.34C135.24,-51.23 157.61,-44.53 176.12,-38.98"/>
<polygon fill="#63b8ff" stroke="#63b8ff" points="113.97,-54.25 105.39,-60.47 115.97,-60.95 113.97,-54.25"/>
</a>
</g>
</g>
<!-- Node4 -->
<g id="Node000004" class="node">
<title>Node4</title>
<g id="a_Node000004"><a xlink:href="classlogs_1_1OutputStreamWriter.html" target="_top" xlink:title=" ">
<polygon fill="white" stroke="#666666" points="280.25,-86.5 154,-86.5 154,-63.5 280.25,-63.5 280.25,-86.5"/>
<text text-anchor="middle" x="217.12" y="-73" font-family="Helvetica,sans-Serif" font-size="10.00">logs::OutputStreamWriter</text>
</a>
</g>
</g>
<!-- Node0&#45;&gt;Node4 -->
<g id="edge4_Node000000_Node000004" class="edge">
<title>Node0&#45;&gt;Node4</title>
<g id="a_edge4_Node000000_Node000004"><a xlink:title=" ">
<path fill="none" stroke="#63b8ff" d="M115.16,-75C127.68,-75 140.92,-75 153.54,-75"/>
<polygon fill="#63b8ff" stroke="#63b8ff" points="115.39,-71.5 105.39,-75 115.39,-78.5 115.39,-71.5"/>
</a>
</g>
</g>
<!-- Node2 -->
<g id="Node000002" class="node">
<title>Node2</title>
<g id="a_Node000002"><a xlink:href="classcore_1_1PublisherMixin.html" target="_top" xlink:title=" ">
<polygon fill="white" stroke="#666666" points="107.12,-206 2.62,-206 2.62,-168 107.12,-168 107.12,-206"/>
<text text-anchor="start" x="10.62" y="-192.5" font-family="Helvetica,sans-Serif" font-size="10.00">core::PublisherMixin</text>
<text text-anchor="middle" x="54.88" y="-177.5" font-family="Helvetica,sans-Serif" font-size="10.00">&lt; BulkEvent &gt;</text>
</a>
</g>
</g>
<!-- Node2&#45;&gt;Node1 -->
<g id="edge5_Node000002_Node000001" class="edge">
<title>Node2&#45;&gt;Node1</title>
<g id="a_edge5_Node000002_Node000001"><a xlink:title=" ">
<path fill="none" stroke="#63b8ff" d="M117.64,-165.42C139.43,-157.8 163.14,-149.52 181.83,-142.98"/>
<polygon fill="#63b8ff" stroke="#63b8ff" points="116.75,-162.37 108.46,-168.97 119.06,-168.98 116.75,-162.37"/>
</a>
</g>
</g>
<!-- Node5 -->
<g id="Node000005" class="node">
<title>Node5</title>
<g id="a_Node000005"><a xlink:href="structcore_1_1SubscriberBase.html" target="_top" xlink:title=" ">
<polygon fill="white" stroke="#666666" points="109.75,-38 0,-38 0,0 109.75,0 109.75,-38"/>
<text text-anchor="start" x="8" y="-24.5" font-family="Helvetica,sans-Serif" font-size="10.00">core::SubscriberBase</text>
<text text-anchor="middle" x="54.88" y="-9.5" font-family="Helvetica,sans-Serif" font-size="10.00">&lt; bulk::BulkEvent &gt;</text>
</a>
</g>
</g>
<!-- Node5&#45;&gt;Node6 -->
<g id="edge6_Node000005_Node000006" class="edge">
<title>Node5&#45;&gt;Node6</title>
<g id="a_edge6_Node000005_Node000006"><a xlink:title=" ">
<path fill="none" stroke="#63b8ff" d="M120.96,-22.25C139.63,-23.18 159.44,-24.17 176.11,-25"/>
<polygon fill="#63b8ff" stroke="#63b8ff" points="121.29,-18.71 111.13,-21.71 120.94,-25.7 121.29,-18.71"/>
</a>
</g>
</g>
<!-- Node5&#45;&gt;Node4 -->
<g id="edge7_Node000005_Node000004" class="edge">
<title>Node5&#45;&gt;Node4</title>
<g id="a_edge7_Node000005_Node000004"><a xlink:title=" ">
<path fill="none" stroke="#63b8ff" d="M120.34,-41.53C141.44,-48.9 164.05,-56.8 182.01,-63.08"/>
<polygon fill="#63b8ff" stroke="#63b8ff" points="121.72,-37.95 111.13,-37.96 119.41,-44.56 121.72,-37.95"/>
</a>
</g>
</g>
<!-- Node3 -->
<g id="Node000003" class="node">
<title>Node3</title>
<g id="a_Node000003"><a xlink:href="structcore_1_1SubscriberBase.html" target="_top" xlink:title=" ">
<polygon fill="white" stroke="#666666" points="109.75,-150 0,-150 0,-112 109.75,-112 109.75,-150"/>
<text text-anchor="start" x="8" y="-136.5" font-family="Helvetica,sans-Serif" font-size="10.00">core::SubscriberBase</text>
<text text-anchor="middle" x="54.88" y="-121.5" font-family="Helvetica,sans-Serif" font-size="10.00">&lt; cmd::TokenEvent &gt;</text>
</a>
</g>
</g>
<!-- Node3&#45;&gt;Node1 -->
<g id="edge8_Node000003_Node000001" class="edge">
<title>Node3&#45;&gt;Node1</title>
<g id="a_edge8_Node000003_Node000001"><a xlink:title=" ">
<path fill="none" stroke="#63b8ff" d="M120.96,-131C129.03,-131 137.31,-131 145.45,-131"/>
<polygon fill="#63b8ff" stroke="#63b8ff" points="121.13,-127.5 111.13,-131 121.13,-134.5 121.13,-127.5"/>
</a>
</g>
</g>
<!-- Node3&#45;&gt;Node4 -->
<g id="edge9_Node000003_Node000004" class="edge">
<title>Node3&#45;&gt;Node4</title>
<g id="a_edge9_Node000003_Node000004"><a xlink:title=" ">
<path fill="none" stroke="#63b8ff" d="M120.34,-108.47C141.44,-101.1 164.05,-93.2 182.01,-86.92"/>
<polygon fill="#63b8ff" stroke="#63b8ff" points="119.41,-105.44 111.13,-112.04 121.72,-112.05 119.41,-105.44"/>
</a>
</g>
</g>
</g>
</svg>
