<?xml version="1.0" encoding="UTF-8" standalone="no"?>
<!DOCTYPE svg PUBLIC "-//W3C//DTD SVG 1.1//EN"
 "http://www.w3.org/Graphics/SVG/1.1/DTD/svg11.dtd">
<!-- Generated by graphviz version 8.1.0 (20230707.0739)
 -->
<!-- Title: src/cmd/provider/istream_parser.hpp Pages: 1 -->
<svg width="554pt" height="282pt"
 viewBox="0.00 0.00 553.89 282.00" xmlns="http://www.w3.org/2000/svg" xmlns:xlink="http://www.w3.org/1999/xlink">
<g id="graph0" class="graph" transform="scale(1 1) rotate(0) translate(4 278)">
<title>src/cmd/provider/istream_parser.hpp</title>
<!-- Node1 -->
<g id="Node000001" class="node">
<title>Node1</title>
<g id="a_Node000001"><a xlink:title=" ">
<polygon fill="#999999" stroke="#666666" points="243.75,-274 119.75,-274 119.75,-236 243.75,-236 243.75,-274"/>
<text text-anchor="start" x="127.75" y="-260.5" font-family="Helvetica,sans-Serif" font-size="10.00">src/cmd/provider/istream</text>
<text text-anchor="middle" x="181.75" y="-245.5" font-family="Helvetica,sans-Serif" font-size="10.00">_parser.hpp</text>
</a>
</g>
</g>
<!-- Node2 -->
<g id="Node000002" class="node">
<title>Node2</title>
<g id="a_Node000002"><a xlink:title=" ">
<polygon fill="#e0e0e0" stroke="#999999" points="53.5,-141 0,-141 0,-118 53.5,-118 53.5,-141"/>
<text text-anchor="middle" x="26.75" y="-127.5" font-family="Helvetica,sans-Serif" font-size="10.00">iostream</text>
</a>
</g>
</g>
<!-- Node1&#45;&gt;Node2 -->
<g id="edge1_Node000001_Node000002" class="edge">
<title>Node1&#45;&gt;Node2</title>
<g id="a_edge1_Node000001_Node000002"><a xlink:title=" ">
<path fill="none" stroke="#63b8ff" d="M119.47,-240.99C94.52,-232.94 67.35,-220.14 48.75,-200 36.69,-186.94 31.24,-167.29 28.78,-152.22"/>
<polygon fill="#63b8ff" stroke="#63b8ff" points="32.12,-151.79 27.37,-142.32 25.18,-152.68 32.12,-151.79"/>
</a>
</g>
</g>
<!-- Node3 -->
<g id="Node000003" class="node">
<title>Node3</title>
<g id="a_Node000003"><a xlink:href="publisher_8hpp.html" target="_top" xlink:title=" ">
<polygon fill="white" stroke="#666666" points="171.5,-200 58,-200 58,-177 171.5,-177 171.5,-200"/>
<text text-anchor="middle" x="114.75" y="-186.5" font-family="Helvetica,sans-Serif" font-size="10.00">../../core/publisher.hpp</text>
</a>
</g>
</g>
<!-- Node1&#45;&gt;Node3 -->
<g id="edge2_Node000001_Node000003" class="edge">
<title>Node1&#45;&gt;Node3</title>
<g id="a_edge2_Node000001_Node000003"><a xlink:title=" ">
<path fill="none" stroke="#63b8ff" d="M162.73,-235.69C153.61,-226.91 142.71,-216.42 133.61,-207.65"/>
<polygon fill="#63b8ff" stroke="#63b8ff" points="136.49,-205.61 126.86,-201.19 131.63,-210.65 136.49,-205.61"/>
</a>
</g>
</g>
<!-- Node8 -->
<g id="Node000008" class="node">
<title>Node8</title>
<g id="a_Node000008"><a xlink:href="str__utils_8hpp.html" target="_top" xlink:title=" ">
<polygon fill="white" stroke="#666666" points="466.88,-200 358.62,-200 358.62,-177 466.88,-177 466.88,-200"/>
<text text-anchor="middle" x="412.75" y="-186.5" font-family="Helvetica,sans-Serif" font-size="10.00">../../utils/str_utils.hpp</text>
</a>
</g>
</g>
<!-- Node1&#45;&gt;Node8 -->
<g id="edge8_Node000001_Node000008" class="edge">
<title>Node1&#45;&gt;Node8</title>
<g id="a_edge8_Node000001_Node000008"><a xlink:title=" ">
<path fill="none" stroke="#63b8ff" d="M243.96,-236.63C281.38,-226.18 328.36,-213.06 363.25,-203.32"/>
<polygon fill="#63b8ff" stroke="#63b8ff" points="363.97,-206.47 372.66,-200.41 362.09,-199.73 363.97,-206.47"/>
</a>
</g>
</g>
<!-- Node12 -->
<g id="Node000012" class="node">
<title>Node12</title>
<g id="a_Node000012"><a xlink:href="token__event_8hpp.html" target="_top" xlink:title=" ">
<polygon fill="white" stroke="#666666" points="288.5,-200 193,-200 193,-177 288.5,-177 288.5,-200"/>
<text text-anchor="middle" x="240.75" y="-186.5" font-family="Helvetica,sans-Serif" font-size="10.00">../token_event.hpp</text>
</a>
</g>
</g>
<!-- Node1&#45;&gt;Node12 -->
<g id="edge12_Node000001_Node000012" class="edge">
<title>Node1&#45;&gt;Node12</title>
<g id="a_edge12_Node000001_Node000012"><a xlink:title=" ">
<path fill="none" stroke="#63b8ff" d="M198.5,-235.69C206.37,-227.09 215.74,-216.84 223.65,-208.19"/>
<polygon fill="#63b8ff" stroke="#63b8ff" points="225.8,-210.93 229.97,-201.19 220.64,-206.21 225.8,-210.93"/>
</a>
</g>
</g>
<!-- Node3&#45;&gt;Node2 -->
<g id="edge3_Node000003_Node000002" class="edge">
<title>Node3&#45;&gt;Node2</title>
<g id="a_edge3_Node000003_Node000002"><a xlink:title=" ">
<path fill="none" stroke="#63b8ff" d="M97.78,-176.51C85,-168.23 67.25,-156.73 52.69,-147.3"/>
<polygon fill="#63b8ff" stroke="#63b8ff" points="54.96,-143.96 44.67,-141.46 51.16,-149.83 54.96,-143.96"/>
</a>
</g>
</g>
<!-- Node4 -->
<g id="Node000004" class="node">
<title>Node4</title>
<g id="a_Node000004"><a xlink:title=" ">
<polygon fill="#e0e0e0" stroke="#999999" points="198.15,-141 169.35,-141 169.35,-118 198.15,-118 198.15,-141"/>
<text text-anchor="middle" x="183.75" y="-127.5" font-family="Helvetica,sans-Serif" font-size="10.00">list</text>
</a>
</g>
</g>
<!-- Node3&#45;&gt;Node4 -->
<g id="edge4_Node000003_Node000004" class="edge">
<title>Node3&#45;&gt;Node4</title>
<g id="a_edge4_Node000003_Node000004"><a xlink:title=" ">
<path fill="none" stroke="#63b8ff" d="M128.05,-176.51C137.69,-168.55 150.94,-157.6 162.1,-148.39"/>
<polygon fill="#63b8ff" stroke="#63b8ff" points="164.01,-150.52 169.49,-141.46 159.55,-145.13 164.01,-150.52"/>
</a>
</g>
</g>
<!-- Node5 -->
<g id="Node000005" class="node">
<title>Node5</title>
<g id="a_Node000005"><a xlink:href="subscriber_8hpp.html" target="_top" xlink:title=" ">
<polygon fill="white" stroke="#666666" points="151.62,-141 71.88,-141 71.88,-118 151.62,-118 151.62,-141"/>
<text text-anchor="middle" x="111.75" y="-127.5" font-family="Helvetica,sans-Serif" font-size="10.00">subscriber.hpp</text>
</a>
</g>
</g>
<!-- Node3&#45;&gt;Node5 -->
<g id="edge5_Node000003_Node000005" class="edge">
<title>Node3&#45;&gt;Node5</title>
<g id="a_edge5_Node000003_Node000005"><a xlink:title=" ">
<path fill="none" stroke="#63b8ff" d="M114.17,-176.51C113.81,-169.65 113.33,-160.58 112.9,-152.31"/>
<polygon fill="#63b8ff" stroke="#63b8ff" points="116.35,-152.26 112.33,-142.46 109.36,-152.63 116.35,-152.26"/>
</a>
</g>
</g>
<!-- Node6 -->
<g id="Node000006" class="node">
<title>Node6</title>
<g id="a_Node000006"><a xlink:title=" ">
<polygon fill="#e0e0e0" stroke="#999999" points="133.62,-82 89.88,-82 89.88,-59 133.62,-59 133.62,-82"/>
<text text-anchor="middle" x="111.75" y="-68.5" font-family="Helvetica,sans-Serif" font-size="10.00">format</text>
</a>
</g>
</g>
<!-- Node5&#45;&gt;Node6 -->
<g id="edge6_Node000005_Node000006" class="edge">
<title>Node5&#45;&gt;Node6</title>
<g id="a_edge6_Node000005_Node000006"><a xlink:title=" ">
<path fill="none" stroke="#63b8ff" d="M111.75,-117.51C111.75,-110.65 111.75,-101.58 111.75,-93.31"/>
<polygon fill="#63b8ff" stroke="#63b8ff" points="115.25,-93.46 111.75,-83.46 108.25,-93.46 115.25,-93.46"/>
</a>
</g>
</g>
<!-- Node7 -->
<g id="Node000007" class="node">
<title>Node7</title>
<g id="a_Node000007"><a xlink:title=" ">
<polygon fill="#e0e0e0" stroke="#999999" points="72,-82 21.5,-82 21.5,-59 72,-59 72,-82"/>
<text text-anchor="middle" x="46.75" y="-68.5" font-family="Helvetica,sans-Serif" font-size="10.00">typeinfo</text>
</a>
</g>
</g>
<!-- Node5&#45;&gt;Node7 -->
<g id="edge7_Node000005_Node000007" class="edge">
<title>Node5&#45;&gt;Node7</title>
<g id="a_edge7_Node000005_Node000007"><a xlink:title=" ">
<path fill="none" stroke="#63b8ff" d="M99.22,-117.51C90.23,-109.62 77.9,-98.82 67.46,-89.66"/>
<polygon fill="#63b8ff" stroke="#63b8ff" points="70.07,-86.42 60.24,-82.46 65.46,-91.68 70.07,-86.42"/>
</a>
</g>
</g>
<!-- Node9 -->
<g id="Node000009" class="node">
<title>Node9</title>
<g id="a_Node000009"><a xlink:title=" ">
<polygon fill="#e0e0e0" stroke="#999999" points="480.62,-141 424.88,-141 424.88,-118 480.62,-118 480.62,-141"/>
<text text-anchor="middle" x="452.75" y="-127.5" font-family="Helvetica,sans-Serif" font-size="10.00">algorithm</text>
</a>
</g>
</g>
<!-- Node8&#45;&gt;Node9 -->
<g id="edge9_Node000008_Node000009" class="edge">
<title>Node8&#45;&gt;Node9</title>
<g id="a_edge9_Node000008_Node000009"><a xlink:title=" ">
<path fill="none" stroke="#63b8ff" d="M420.46,-176.51C425.66,-169.1 432.68,-159.11 438.84,-150.33"/>
<polygon fill="#63b8ff" stroke="#63b8ff" points="442.18,-152.65 445.06,-142.46 436.45,-148.63 442.18,-152.65"/>
</a>
</g>
</g>
<!-- Node10 -->
<g id="Node000010" class="node">
<title>Node10</title>
<g id="a_Node000010"><a xlink:title=" ">
<polygon fill="#e0e0e0" stroke="#999999" points="377.75,-23 337.75,-23 337.75,0 377.75,0 377.75,-23"/>
<text text-anchor="middle" x="357.75" y="-9.5" font-family="Helvetica,sans-Serif" font-size="10.00">string</text>
</a>
</g>
</g>
<!-- Node8&#45;&gt;Node10 -->
<g id="edge10_Node000008_Node000010" class="edge">
<title>Node8&#45;&gt;Node10</title>
<g id="a_edge10_Node000008_Node000010"><a xlink:title=" ">
<path fill="none" stroke="#63b8ff" d="M438.23,-176.58C484.29,-155.33 573.36,-106.33 536.75,-59 518.78,-35.77 435.11,-22 388.79,-16.03"/>
<polygon fill="#63b8ff" stroke="#63b8ff" points="389.51,-12.46 379.16,-14.71 388.65,-19.41 389.51,-12.46"/>
</a>
</g>
</g>
<!-- Node11 -->
<g id="Node000011" class="node">
<title>Node11</title>
<g id="a_Node000011"><a xlink:title=" ">
<polygon fill="#e0e0e0" stroke="#999999" points="406.5,-141 341,-141 341,-118 406.5,-118 406.5,-141"/>
<text text-anchor="middle" x="373.75" y="-127.5" font-family="Helvetica,sans-Serif" font-size="10.00">string_view</text>
</a>
</g>
</g>
<!-- Node8&#45;&gt;Node11 -->
<g id="edge11_Node000008_Node000011" class="edge">
<title>Node8&#45;&gt;Node11</title>
<g id="a_edge11_Node000008_Node000011"><a xlink:title=" ">
<path fill="none" stroke="#63b8ff" d="M405.23,-176.51C400.16,-169.1 393.32,-159.11 387.32,-150.33"/>
<polygon fill="#63b8ff" stroke="#63b8ff" points="389.78,-148.73 381.25,-142.46 384,-152.69 389.78,-148.73"/>
</a>
</g>
</g>
<!-- Node13 -->
<g id="Node000013" class="node">
<title>Node13</title>
<g id="a_Node000013"><a xlink:href="token_8hpp.html" target="_top" xlink:title=" ">
<polygon fill="white" stroke="#666666" points="274.75,-141 216.75,-141 216.75,-118 274.75,-118 274.75,-141"/>
<text text-anchor="middle" x="245.75" y="-127.5" font-family="Helvetica,sans-Serif" font-size="10.00">token.hpp</text>
</a>
</g>
</g>
<!-- Node12&#45;&gt;Node13 -->
<g id="edge13_Node000012_Node000013" class="edge">
<title>Node12&#45;&gt;Node13</title>
<g id="a_edge13_Node000012_Node000013"><a xlink:title=" ">
<path fill="none" stroke="#63b8ff" d="M241.71,-176.51C242.32,-169.65 243.11,-160.58 243.84,-152.31"/>
<polygon fill="#63b8ff" stroke="#63b8ff" points="247.4,-152.72 244.79,-142.46 240.43,-152.11 247.4,-152.72"/>
</a>
</g>
</g>
<!-- Node13&#45;&gt;Node6 -->
<g id="edge14_Node000013_Node000006" class="edge">
<title>Node13&#45;&gt;Node6</title>
<g id="a_edge14_Node000013_Node000006"><a xlink:title=" ">
<path fill="none" stroke="#63b8ff" d="M219.91,-117.51C198.28,-108.31 167.3,-95.13 144.04,-85.23"/>
<polygon fill="#63b8ff" stroke="#63b8ff" points="145.52,-81.64 134.95,-80.94 142.78,-88.08 145.52,-81.64"/>
</a>
</g>
</g>
<!-- Node13&#45;&gt;Node10 -->
<g id="edge16_Node000013_Node000010" class="edge">
<title>Node13&#45;&gt;Node10</title>
<g id="a_edge16_Node000013_Node000010"><a xlink:title=" ">
<path fill="none" stroke="#63b8ff" d="M222.42,-117.54C197.49,-104.32 163.7,-81.11 180.75,-59 198.46,-36.04 280.9,-22.18 326.76,-16.12"/>
<polygon fill="#63b8ff" stroke="#63b8ff" points="327.09,-19.48 336.57,-14.74 326.21,-12.53 327.09,-19.48"/>
</a>
</g>
</g>
<!-- Node14 -->
<g id="Node000014" class="node">
<title>Node14</title>
<g id="a_Node000014"><a xlink:title=" ">
<polygon fill="#e0e0e0" stroke="#999999" points="465.38,-82 414.12,-82 414.12,-59 465.38,-59 465.38,-82"/>
<text text-anchor="middle" x="439.75" y="-68.5" font-family="Helvetica,sans-Serif" font-size="10.00">ostream</text>
</a>
</g>
</g>
<!-- Node13&#45;&gt;Node14 -->
<g id="edge15_Node000013_Node000014" class="edge">
<title>Node13&#45;&gt;Node14</title>
<g id="a_edge15_Node000013_Node000014"><a xlink:title=" ">
<path fill="none" stroke="#63b8ff" d="M274.99,-120.16C305.03,-111.56 353.41,-97.61 403.42,-82.67"/>
<polygon fill="#63b8ff" stroke="#63b8ff" points="404.2,-85.79 412.77,-79.57 402.19,-79.09 404.2,-85.79"/>
</a>
</g>
</g>
<!-- Node15 -->
<g id="Node000015" class="node">
<title>Node15</title>
<g id="a_Node000015"><a xlink:title=" ">
<polygon fill="#e0e0e0" stroke="#999999" points="528,-82 483.5,-82 483.5,-59 528,-59 528,-82"/>
<text text-anchor="middle" x="505.75" y="-68.5" font-family="Helvetica,sans-Serif" font-size="10.00">variant</text>
</a>
</g>
</g>
<!-- Node13&#45;&gt;Node15 -->
<g id="edge17_Node000013_Node000015" class="edge">
<title>Node13&#45;&gt;Node15</title>
<g id="a_edge17_Node000013_Node000015"><a xlink:title=" ">
<path fill="none" stroke="#63b8ff" d="M274.94,-123.79C316.85,-116.76 396.62,-102.42 472.91,-82.27"/>
<polygon fill="#63b8ff" stroke="#63b8ff" points="473.41,-85.49 482.16,-79.52 471.6,-78.73 473.41,-85.49"/>
</a>
</g>
</g>
<!-- Node16 -->
<g id="Node000016" class="node">
<title>Node16</title>
<g id="a_Node000016"><a xlink:href="overloaded_8hpp.html" target="_top" xlink:title=" ">
<polygon fill="white" stroke="#666666" points="301.38,-82 190.12,-82 190.12,-59 301.38,-59 301.38,-82"/>
<text text-anchor="middle" x="245.75" y="-68.5" font-family="Helvetica,sans-Serif" font-size="10.00">../utils/overloaded.hpp</text>
</a>
</g>
</g>
<!-- Node13&#45;&gt;Node16 -->
<g id="edge18_Node000013_Node000016" class="edge">
<title>Node13&#45;&gt;Node16</title>
<g id="a_edge18_Node000013_Node000016"><a xlink:title=" ">
<path fill="none" stroke="#63b8ff" d="M245.75,-117.51C245.75,-110.65 245.75,-101.58 245.75,-93.31"/>
<polygon fill="#63b8ff" stroke="#63b8ff" points="249.25,-93.46 245.75,-83.46 242.25,-93.46 249.25,-93.46"/>
</a>
</g>
</g>
<!-- Node17 -->
<g id="Node000017" class="node">
<title>Node17</title>
<g id="a_Node000017"><a xlink:href="command_8hpp.html" target="_top" xlink:title=" ">
<polygon fill="white" stroke="#666666" points="396.5,-82 319,-82 319,-59 396.5,-59 396.5,-82"/>
<text text-anchor="middle" x="357.75" y="-68.5" font-family="Helvetica,sans-Serif" font-size="10.00">command.hpp</text>
</a>
</g>
</g>
<!-- Node13&#45;&gt;Node17 -->
<g id="edge19_Node000013_Node000017" class="edge">
<title>Node13&#45;&gt;Node17</title>
<g id="a_edge19_Node000013_Node000017"><a xlink:title=" ">
<path fill="none" stroke="#63b8ff" d="M267.34,-117.51C284.16,-108.95 307.72,-96.96 326.58,-87.36"/>
<polygon fill="#63b8ff" stroke="#63b8ff" points="327.9,-90.11 335.22,-82.46 324.72,-83.87 327.9,-90.11"/>
</a>
</g>
</g>
<!-- Node17&#45;&gt;Node10 -->
<g id="edge20_Node000017_Node000010" class="edge">
<title>Node17&#45;&gt;Node10</title>
<g id="a_edge20_Node000017_Node000010"><a xlink:title=" ">
<path fill="none" stroke="#63b8ff" d="M357.75,-58.51C357.75,-51.65 357.75,-42.58 357.75,-34.31"/>
<polygon fill="#63b8ff" stroke="#63b8ff" points="361.25,-34.46 357.75,-24.46 354.25,-34.46 361.25,-34.46"/>
</a>
</g>
</g>
</g>
</svg>
