<?xml version="1.0" encoding="UTF-8" standalone="no"?>
<!DOCTYPE svg PUBLIC "-//W3C//DTD SVG 1.1//EN"
 "http://www.w3.org/Graphics/SVG/1.1/DTD/svg11.dtd">
<!-- Generated by graphviz version 8.1.0 (20230707.0739)
 -->
<!-- Title: main Pages: 1 -->
<svg width="504pt" height="326pt"
 viewBox="0.00 0.00 504.00 326.00" xmlns="http://www.w3.org/2000/svg" xmlns:xlink="http://www.w3.org/1999/xlink">
<g id="graph0" class="graph" transform="scale(1 1) rotate(0) translate(4 322)">
<title>main</title>
<!-- Node1 -->
<g id="Node000001" class="node">
<title>Node1</title>
<g id="a_Node000001"><a xlink:title="course c++ developer: hw7 &#45; bulk">
<polygon fill="#999999" stroke="#666666" points="37,-165.5 0,-165.5 0,-142.5 37,-142.5 37,-165.5"/>
<text text-anchor="middle" x="18.5" y="-152" font-family="Helvetica,sans-Serif" font-size="10.00">main</text>
</a>
</g>
</g>
<!-- Node2 -->
<g id="Node000002" class="node">
<title>Node2</title>
<g id="a_Node000002"><a xlink:href="classbulk_1_1provider_1_1BulkTranslator.html#a5170e68c8bd3126c2e5f31ff7142e594" target="_top" xlink:title=" ">
<polygon fill="white" stroke="#666666" points="217.25,-299 74.5,-299 74.5,-261 217.25,-261 217.25,-299"/>
<text text-anchor="start" x="82.5" y="-285.5" font-family="Helvetica,sans-Serif" font-size="10.00">bulk::provider::BulkTranslator</text>
<text text-anchor="middle" x="145.88" y="-270.5" font-family="Helvetica,sans-Serif" font-size="10.00">::create</text>
</a>
</g>
</g>
<!-- Node1&#45;&gt;Node2 -->
<g id="edge1_Node000001_Node000002" class="edge">
<title>Node1&#45;&gt;Node2</title>
<g id="a_edge1_Node000001_Node000002"><a xlink:title=" ">
<path fill="none" stroke="#63b8ff" d="M23.03,-165.98C29.61,-186.36 45.63,-227.94 73,-252 74.02,-252.9 75.07,-253.76 76.15,-254.61"/>
<polygon fill="#63b8ff" stroke="#63b8ff" points="73.65,-257.82 83.89,-260.56 77.59,-252.04 73.65,-257.82"/>
</a>
</g>
</g>
<!-- Node3 -->
<g id="Node000003" class="node">
<title>Node3</title>
<g id="a_Node000003"><a xlink:href="classlogs_1_1OutputStreamWriter.html#ad80e0504664be4be8e232874cbf9ae53" target="_top" xlink:title=" ">
<polygon fill="white" stroke="#666666" points="209,-243 82.75,-243 82.75,-205 209,-205 209,-243"/>
<text text-anchor="start" x="90.75" y="-229.5" font-family="Helvetica,sans-Serif" font-size="10.00">logs::OutputStreamWriter</text>
<text text-anchor="middle" x="145.88" y="-214.5" font-family="Helvetica,sans-Serif" font-size="10.00">::create</text>
</a>
</g>
</g>
<!-- Node1&#45;&gt;Node3 -->
<g id="edge2_Node000001_Node000003" class="edge">
<title>Node1&#45;&gt;Node3</title>
<g id="a_edge2_Node000001_Node000003"><a xlink:title=" ">
<path fill="none" stroke="#63b8ff" d="M32.35,-165.87C42.73,-175 58.03,-187.46 73,-196 75.34,-197.34 77.76,-198.63 80.22,-199.89"/>
<polygon fill="#63b8ff" stroke="#63b8ff" points="78.4,-203.38 88.93,-204.55 81.43,-197.07 78.4,-203.38"/>
</a>
</g>
</g>
<!-- Node4 -->
<g id="Node000004" class="node">
<title>Node4</title>
<g id="a_Node000004"><a xlink:href="classlogs_1_1FileWriter.html#a02edbc213561fecc4ab73d33e38f3d4b" target="_top" xlink:title=" ">
<polygon fill="white" stroke="#666666" points="203,-186.5 88.75,-186.5 88.75,-163.5 203,-163.5 203,-186.5"/>
<text text-anchor="middle" x="145.88" y="-173" font-family="Helvetica,sans-Serif" font-size="10.00">logs::FileWriter::create</text>
</a>
</g>
</g>
<!-- Node1&#45;&gt;Node4 -->
<g id="edge3_Node000001_Node000004" class="edge">
<title>Node1&#45;&gt;Node4</title>
<g id="a_edge3_Node000001_Node000004"><a xlink:title=" ">
<path fill="none" stroke="#63b8ff" d="M37.46,-157.01C48.25,-158.82 62.73,-161.24 77.55,-163.72"/>
<polygon fill="#63b8ff" stroke="#63b8ff" points="76.92,-167.33 87.36,-165.53 78.07,-160.43 76.92,-167.33"/>
</a>
</g>
</g>
<!-- Node5 -->
<g id="Node000005" class="node">
<title>Node5</title>
<g id="a_Node000005"><a xlink:href="namespaceargs.html#ac5abfe1ee497dcb11ea7435db4aed06d" target="_top" xlink:title=" ">
<polygon fill="white" stroke="#666666" points="198.12,-145.5 93.62,-145.5 93.62,-122.5 198.12,-122.5 198.12,-145.5"/>
<text text-anchor="middle" x="145.88" y="-132" font-family="Helvetica,sans-Serif" font-size="10.00">args::info_requested</text>
</a>
</g>
</g>
<!-- Node1&#45;&gt;Node5 -->
<g id="edge4_Node000001_Node000005" class="edge">
<title>Node1&#45;&gt;Node5</title>
<g id="a_edge4_Node000001_Node000005"><a xlink:title=" ">
<path fill="none" stroke="#63b8ff" d="M37.46,-151.13C49.46,-149.22 66.02,-146.58 82.54,-143.94"/>
<polygon fill="#63b8ff" stroke="#63b8ff" points="83.02,-147.25 92.35,-142.22 81.92,-140.34 83.02,-147.25"/>
</a>
</g>
</g>
<!-- Node14 -->
<g id="Node000014" class="node">
<title>Node14</title>
<g id="a_Node000014"><a xlink:href="classcmd_1_1provider_1_1ConsoleParser.html#a8ba802522fec0844de7cf95655b51c4f" target="_top" xlink:title=" ">
<polygon fill="white" stroke="#666666" points="218.75,-104 73,-104 73,-66 218.75,-66 218.75,-104"/>
<text text-anchor="start" x="81" y="-90.5" font-family="Helvetica,sans-Serif" font-size="10.00">cmd::provider::ConsoleParser</text>
<text text-anchor="middle" x="145.88" y="-75.5" font-family="Helvetica,sans-Serif" font-size="10.00">::instance</text>
</a>
</g>
</g>
<!-- Node1&#45;&gt;Node14 -->
<g id="edge13_Node000001_Node000014" class="edge">
<title>Node1&#45;&gt;Node14</title>
<g id="a_edge13_Node000001_Node000014"><a xlink:title=" ">
<path fill="none" stroke="#63b8ff" d="M33.34,-142.07C43.76,-133.5 58.65,-122.08 73,-114 76.05,-112.28 79.22,-110.62 82.46,-109.01"/>
<polygon fill="#63b8ff" stroke="#63b8ff" points="83.76,-111.79 91.31,-104.36 80.77,-105.46 83.76,-111.79"/>
</a>
</g>
</g>
<!-- Node15 -->
<g id="Node000015" class="node">
<title>Node15</title>
<g id="a_Node000015"><a xlink:href="namespaceargs.html#a5a8c271969692f3fe8100517303b959e" target="_top" xlink:title=" ">
<polygon fill="white" stroke="#666666" points="178.62,-47.5 113.12,-47.5 113.12,-24.5 178.62,-24.5 178.62,-47.5"/>
<text text-anchor="middle" x="145.88" y="-34" font-family="Helvetica,sans-Serif" font-size="10.00">args::parse</text>
</a>
</g>
</g>
<!-- Node1&#45;&gt;Node15 -->
<g id="edge14_Node000001_Node000015" class="edge">
<title>Node1&#45;&gt;Node15</title>
<g id="a_edge14_Node000001_Node000015"><a xlink:title=" ">
<path fill="none" stroke="#63b8ff" d="M22.75,-142.22C28.99,-121.77 44.63,-79.73 73,-57 81.36,-50.3 91.78,-45.74 102.07,-42.63"/>
<polygon fill="#63b8ff" stroke="#63b8ff" points="102.85,-45.79 111.66,-39.9 101.1,-39.01 102.85,-45.79"/>
</a>
</g>
</g>
<!-- Node6 -->
<g id="Node000006" class="node">
<title>Node6</title>
<g id="a_Node000006"><a xlink:href="namespaceinfo.html#adf619fee1b67e68e79a217741803d1c1" target="_top" xlink:title=" ">
<polygon fill="white" stroke="#666666" points="360.75,-170.5 254.75,-170.5 254.75,-147.5 360.75,-147.5 360.75,-170.5"/>
<text text-anchor="middle" x="307.75" y="-157" font-family="Helvetica,sans-Serif" font-size="10.00">info::info_project_full</text>
</a>
</g>
</g>
<!-- Node5&#45;&gt;Node6 -->
<g id="edge5_Node000005_Node000006" class="edge">
<title>Node5&#45;&gt;Node6</title>
<g id="a_edge5_Node000005_Node000006"><a xlink:title=" ">
<path fill="none" stroke="#63b8ff" d="M198.34,-142.05C212.74,-144.3 228.55,-146.77 243.54,-149.12"/>
<polygon fill="#63b8ff" stroke="#63b8ff" points="242.86,-152.71 253.28,-150.8 243.94,-145.79 242.86,-152.71"/>
</a>
</g>
</g>
<!-- Node13 -->
<g id="Node000013" class="node">
<title>Node13</title>
<g id="a_Node000013"><a xlink:href="namespaceinfo.html#a0b0e75f2a6d438265b88d1b0e2b21b52" target="_top" xlink:title=" ">
<polygon fill="white" stroke="#666666" points="351.75,-129 263.75,-129 263.75,-91 351.75,-91 351.75,-129"/>
<text text-anchor="start" x="271.75" y="-115.5" font-family="Helvetica,sans-Serif" font-size="10.00">info::info_project</text>
<text text-anchor="middle" x="307.75" y="-100.5" font-family="Helvetica,sans-Serif" font-size="10.00">_version</text>
</a>
</g>
</g>
<!-- Node5&#45;&gt;Node13 -->
<g id="edge12_Node000005_Node000013" class="edge">
<title>Node5&#45;&gt;Node13</title>
<g id="a_edge12_Node000005_Node000013"><a xlink:title=" ">
<path fill="none" stroke="#63b8ff" d="M198.34,-126.27C215.73,-123.66 235.18,-120.74 252.76,-118.11"/>
<polygon fill="#63b8ff" stroke="#63b8ff" points="253.05,-121.45 262.42,-116.5 252.01,-114.53 253.05,-121.45"/>
</a>
</g>
</g>
<!-- Node7 -->
<g id="Node000007" class="node">
<title>Node7</title>
<g id="a_Node000007"><a xlink:href="namespaceinfo.html#a28d71fb524538a7bdfbb1483a8a3a4cb" target="_top" xlink:title=" ">
<polygon fill="white" stroke="#666666" points="490.38,-318 402.38,-318 402.38,-280 490.38,-280 490.38,-318"/>
<text text-anchor="start" x="410.38" y="-304.5" font-family="Helvetica,sans-Serif" font-size="10.00">info::info_project</text>
<text text-anchor="middle" x="446.38" y="-289.5" font-family="Helvetica,sans-Serif" font-size="10.00">_author</text>
</a>
</g>
</g>
<!-- Node6&#45;&gt;Node7 -->
<g id="edge6_Node000006_Node000007" class="edge">
<title>Node6&#45;&gt;Node7</title>
<g id="a_edge6_Node000006_Node000007"><a xlink:title=" ">
<path fill="none" stroke="#63b8ff" d="M315.77,-170.67C329.3,-192.46 360.86,-239.92 396.75,-271 397.63,-271.77 398.54,-272.52 399.47,-273.26"/>
<polygon fill="#63b8ff" stroke="#63b8ff" points="397.09,-276.59 407.24,-279.65 401.21,-270.93 397.09,-276.59"/>
</a>
</g>
</g>
<!-- Node8 -->
<g id="Node000008" class="node">
<title>Node8</title>
<g id="a_Node000008"><a xlink:href="namespaceinfo.html#aae86ae087e0d5fde160d4328e106c21f" target="_top" xlink:title=" ">
<polygon fill="white" stroke="#666666" points="496,-262 396.75,-262 396.75,-224 496,-224 496,-262"/>
<text text-anchor="start" x="404.75" y="-248.5" font-family="Helvetica,sans-Serif" font-size="10.00">info::info_project</text>
<text text-anchor="middle" x="446.38" y="-233.5" font-family="Helvetica,sans-Serif" font-size="10.00">_repository_branch</text>
</a>
</g>
</g>
<!-- Node6&#45;&gt;Node8 -->
<g id="edge7_Node000006_Node000008" class="edge">
<title>Node6&#45;&gt;Node8</title>
<g id="a_edge7_Node000006_Node000008"><a xlink:title=" ">
<path fill="none" stroke="#63b8ff" d="M326.81,-170.82C344.49,-182.32 372.28,-200.18 396.75,-215 398.5,-216.06 400.29,-217.13 402.1,-218.21"/>
<polygon fill="#63b8ff" stroke="#63b8ff" points="399.86,-221.55 410.26,-223.61 403.42,-215.52 399.86,-221.55"/>
</a>
</g>
</g>
<!-- Node9 -->
<g id="Node000009" class="node">
<title>Node9</title>
<g id="a_Node000009"><a xlink:href="namespaceinfo.html#ace228211052ca615450b84d638e882a7" target="_top" xlink:title=" ">
<polygon fill="white" stroke="#666666" points="490.38,-206 402.38,-206 402.38,-168 490.38,-168 490.38,-206"/>
<text text-anchor="start" x="410.38" y="-192.5" font-family="Helvetica,sans-Serif" font-size="10.00">info::info_project</text>
<text text-anchor="middle" x="446.38" y="-177.5" font-family="Helvetica,sans-Serif" font-size="10.00">_repository_url</text>
</a>
</g>
</g>
<!-- Node6&#45;&gt;Node9 -->
<g id="edge8_Node000006_Node000009" class="edge">
<title>Node6&#45;&gt;Node9</title>
<g id="a_edge8_Node000006_Node000009"><a xlink:title=" ">
<path fill="none" stroke="#63b8ff" d="M361.18,-169.75C371.13,-171.78 381.55,-173.92 391.54,-175.97"/>
<polygon fill="#63b8ff" stroke="#63b8ff" points="390.67,-179.57 401.17,-178.15 392.08,-172.71 390.67,-179.57"/>
</a>
</g>
</g>
<!-- Node10 -->
<g id="Node000010" class="node">
<title>Node10</title>
<g id="a_Node000010"><a xlink:href="namespaceinfo.html#ab6318ad2c6e0287114caeea0c9434a94" target="_top" xlink:title=" ">
<polygon fill="white" stroke="#666666" points="490.38,-150 402.38,-150 402.38,-112 490.38,-112 490.38,-150"/>
<text text-anchor="start" x="410.38" y="-136.5" font-family="Helvetica,sans-Serif" font-size="10.00">info::info_project</text>
<text text-anchor="middle" x="446.38" y="-121.5" font-family="Helvetica,sans-Serif" font-size="10.00">_revision</text>
</a>
</g>
</g>
<!-- Node6&#45;&gt;Node10 -->
<g id="edge9_Node000006_Node000010" class="edge">
<title>Node6&#45;&gt;Node10</title>
<g id="a_edge9_Node000006_Node000010"><a xlink:title=" ">
<path fill="none" stroke="#63b8ff" d="M361.18,-148.25C371.13,-146.22 381.55,-144.08 391.54,-142.03"/>
<polygon fill="#63b8ff" stroke="#63b8ff" points="392.08,-145.29 401.17,-139.85 390.67,-138.43 392.08,-145.29"/>
</a>
</g>
</g>
<!-- Node11 -->
<g id="Node000011" class="node">
<title>Node11</title>
<g id="a_Node000011"><a xlink:href="namespaceinfo.html#a5600a5c71779aaecafbe4fff68152d02" target="_top" xlink:title=" ">
<polygon fill="white" stroke="#666666" points="495.25,-94 397.5,-94 397.5,-56 495.25,-56 495.25,-94"/>
<text text-anchor="start" x="405.5" y="-80.5" font-family="Helvetica,sans-Serif" font-size="10.00">info::info_project</text>
<text text-anchor="middle" x="446.38" y="-65.5" font-family="Helvetica,sans-Serif" font-size="10.00">_revision_datetime</text>
</a>
</g>
</g>
<!-- Node6&#45;&gt;Node11 -->
<g id="edge10_Node000006_Node000011" class="edge">
<title>Node6&#45;&gt;Node11</title>
<g id="a_edge10_Node000006_Node000011"><a xlink:title=" ">
<path fill="none" stroke="#63b8ff" d="M343.82,-147.02C349.67,-144.42 355.53,-141.4 360.75,-138 379.45,-125.82 378.94,-116.45 396.75,-103 397.99,-102.06 399.26,-101.14 400.56,-100.22"/>
<polygon fill="#63b8ff" stroke="#63b8ff" points="402,-102.8 408.4,-94.35 398.13,-96.97 402,-102.8"/>
</a>
</g>
</g>
<!-- Node12 -->
<g id="Node000012" class="node">
<title>Node12</title>
<g id="a_Node000012"><a xlink:href="namespaceinfo.html#a9d8c1cc05c7db3face2e4a8b5fc29539" target="_top" xlink:title=" ">
<polygon fill="white" stroke="#666666" points="491.5,-38 401.25,-38 401.25,0 491.5,0 491.5,-38"/>
<text text-anchor="start" x="409.25" y="-24.5" font-family="Helvetica,sans-Serif" font-size="10.00">info::info_project</text>
<text text-anchor="middle" x="446.38" y="-9.5" font-family="Helvetica,sans-Serif" font-size="10.00">_revision_history</text>
</a>
</g>
</g>
<!-- Node6&#45;&gt;Node12 -->
<g id="edge11_Node000006_Node000012" class="edge">
<title>Node6&#45;&gt;Node12</title>
<g id="a_edge11_Node000006_Node000012"><a xlink:title=" ">
<path fill="none" stroke="#63b8ff" d="M348.39,-147.09C352.92,-144.59 357.18,-141.59 360.75,-138 391.4,-107.14 368.32,-79.91 396.75,-47 397.08,-46.61 397.43,-46.23 397.77,-45.85"/>
<polygon fill="#63b8ff" stroke="#63b8ff" points="399.81,-48.82 404.85,-39.5 395.1,-43.64 399.81,-48.82"/>
</a>
</g>
</g>
</g>
</svg>
