<?xml version="1.0" encoding="UTF-8" standalone="no"?>
<!DOCTYPE svg PUBLIC "-//W3C//DTD SVG 1.1//EN"
 "http://www.w3.org/Graphics/SVG/1.1/DTD/svg11.dtd">
<!-- Generated by graphviz version 8.1.0 (20230707.0739)
 -->
<!-- Title: src/main.cpp Pages: 1 -->
<svg width="1712pt" height="282pt"
 viewBox="0.00 0.00 1711.82 282.00" xmlns="http://www.w3.org/2000/svg" xmlns:xlink="http://www.w3.org/1999/xlink">
<g id="graph0" class="graph" transform="scale(1 1) rotate(0) translate(4 278)">
<title>src/main.cpp</title>
<!-- Node1 -->
<g id="Node000001" class="node">
<title>Node1</title>
<g id="a_Node000001"><a xlink:title=" ">
<polygon fill="#999999" stroke="#666666" points="1054.94,-274 982.69,-274 982.69,-251 1054.94,-251 1054.94,-274"/>
<text text-anchor="middle" x="1018.82" y="-260.5" font-family="Helvetica,sans-Serif" font-size="10.00">src/main.cpp</text>
</a>
</g>
</g>
<!-- Node2 -->
<g id="Node000002" class="node">
<title>Node2</title>
<g id="a_Node000002"><a xlink:href="options_8hpp.html" target="_top" xlink:title=" ">
<polygon fill="white" stroke="#666666" points="1062.82,-207.5 974.82,-207.5 974.82,-184.5 1062.82,-184.5 1062.82,-207.5"/>
<text text-anchor="middle" x="1018.82" y="-194" font-family="Helvetica,sans-Serif" font-size="10.00">args/options.hpp</text>
</a>
</g>
</g>
<!-- Node1&#45;&gt;Node2 -->
<g id="edge1_Node000001_Node000002" class="edge">
<title>Node1&#45;&gt;Node2</title>
<g id="a_edge1_Node000001_Node000002"><a xlink:title=" ">
<path fill="none" stroke="#63b8ff" d="M1018.82,-250.56C1018.82,-241.8 1018.82,-229.23 1018.82,-218.48"/>
<polygon fill="#63b8ff" stroke="#63b8ff" points="1022.32,-218.78 1018.82,-208.78 1015.32,-218.78 1022.32,-218.78"/>
</a>
</g>
</g>
<!-- Node12 -->
<g id="Node000012" class="node">
<title>Node12</title>
<g id="a_Node000012"><a xlink:href="bulk__translator_8hpp.html" target="_top" xlink:title=" ">
<polygon fill="white" stroke="#666666" points="268.07,-215 175.57,-215 175.57,-177 268.07,-177 268.07,-215"/>
<text text-anchor="start" x="183.57" y="-201.5" font-family="Helvetica,sans-Serif" font-size="10.00">bulk/provider/bulk</text>
<text text-anchor="middle" x="221.82" y="-186.5" font-family="Helvetica,sans-Serif" font-size="10.00">_translator.hpp</text>
</a>
</g>
</g>
<!-- Node1&#45;&gt;Node12 -->
<g id="edge11_Node000001_Node000012" class="edge">
<title>Node1&#45;&gt;Node12</title>
<g id="a_edge11_Node000001_Node000012"><a xlink:title=" ">
<path fill="none" stroke="#63b8ff" d="M982.24,-258.54C855.36,-248.27 433.57,-214.14 279.12,-201.64"/>
<polygon fill="#63b8ff" stroke="#63b8ff" points="279.72,-198.09 269.47,-200.78 279.16,-205.07 279.72,-198.09"/>
</a>
</g>
</g>
<!-- Node27 -->
<g id="Node000027" class="node">
<title>Node27</title>
<g id="a_Node000027"><a xlink:href="console__parser_8hpp.html" target="_top" xlink:title=" ">
<polygon fill="white" stroke="#666666" points="679.32,-215 570.32,-215 570.32,-177 679.32,-177 679.32,-215"/>
<text text-anchor="start" x="578.32" y="-201.5" font-family="Helvetica,sans-Serif" font-size="10.00">cmd/provider/console</text>
<text text-anchor="middle" x="624.82" y="-186.5" font-family="Helvetica,sans-Serif" font-size="10.00">_parser.hpp</text>
</a>
</g>
</g>
<!-- Node1&#45;&gt;Node27 -->
<g id="edge34_Node000001_Node000027" class="edge">
<title>Node1&#45;&gt;Node27</title>
<g id="a_edge34_Node000001_Node000027"><a xlink:title=" ">
<path fill="none" stroke="#63b8ff" d="M982.41,-257.98C923.15,-251.91 802.04,-238.06 689.98,-215.08"/>
<polygon fill="#63b8ff" stroke="#63b8ff" points="691.02,-211.51 680.51,-212.9 689.59,-218.37 691.02,-211.51"/>
</a>
</g>
</g>
<!-- Node30 -->
<g id="Node000030" class="node">
<title>Node30</title>
<g id="a_Node000030"><a xlink:href="redirection_8hpp.html" target="_top" xlink:title=" ">
<polygon fill="white" stroke="#666666" points="1425.94,-207.5 1335.69,-207.5 1335.69,-184.5 1425.94,-184.5 1425.94,-207.5"/>
<text text-anchor="middle" x="1380.82" y="-194" font-family="Helvetica,sans-Serif" font-size="10.00">io/redirection.hpp</text>
</a>
</g>
</g>
<!-- Node1&#45;&gt;Node30 -->
<g id="edge42_Node000001_Node000030" class="edge">
<title>Node1&#45;&gt;Node30</title>
<g id="a_edge42_Node000001_Node000030"><a xlink:title=" ">
<path fill="none" stroke="#63b8ff" d="M1055.19,-255.02C1118.59,-243.72 1249.74,-220.36 1324.81,-206.98"/>
<polygon fill="#63b8ff" stroke="#63b8ff" points="1325.24,-210.28 1334.47,-205.08 1324.01,-203.39 1325.24,-210.28"/>
</a>
</g>
</g>
<!-- Node33 -->
<g id="Node000033" class="node">
<title>Node33</title>
<g id="a_Node000033"><a xlink:href="file__writer_8hpp.html" target="_top" xlink:title=" ">
<polygon fill="white" stroke="#666666" points="1185.69,-207.5 1087.94,-207.5 1087.94,-184.5 1185.69,-184.5 1185.69,-207.5"/>
<text text-anchor="middle" x="1136.82" y="-194" font-family="Helvetica,sans-Serif" font-size="10.00">logs/file_writer.hpp</text>
</a>
</g>
</g>
<!-- Node1&#45;&gt;Node33 -->
<g id="edge49_Node000001_Node000033" class="edge">
<title>Node1&#45;&gt;Node33</title>
<g id="a_edge49_Node000001_Node000033"><a xlink:title=" ">
<path fill="none" stroke="#63b8ff" d="M1038.84,-250.56C1057.57,-240.32 1085.79,-224.89 1107.14,-213.22"/>
<polygon fill="#63b8ff" stroke="#63b8ff" points="1108.61,-215.86 1115.7,-208 1105.25,-209.72 1108.61,-215.86"/>
</a>
</g>
</g>
<!-- Node35 -->
<g id="Node000035" class="node">
<title>Node35</title>
<g id="a_Node000035"><a xlink:href="ostream__writer_8hpp.html" target="_top" xlink:title=" ">
<polygon fill="white" stroke="#666666" points="817.94,-207.5 697.69,-207.5 697.69,-184.5 817.94,-184.5 817.94,-207.5"/>
<text text-anchor="middle" x="757.82" y="-194" font-family="Helvetica,sans-Serif" font-size="10.00">logs/ostream_writer.hpp</text>
</a>
</g>
</g>
<!-- Node1&#45;&gt;Node35 -->
<g id="edge56_Node000001_Node000035" class="edge">
<title>Node1&#45;&gt;Node35</title>
<g id="a_edge56_Node000001_Node000035"><a xlink:title=" ">
<path fill="none" stroke="#63b8ff" d="M982.25,-252.46C938.11,-241.56 863.47,-223.11 812.49,-210.51"/>
<polygon fill="#63b8ff" stroke="#63b8ff" points="813.53,-206.92 802.98,-207.91 811.85,-213.71 813.53,-206.92"/>
</a>
</g>
</g>
<!-- Node36 -->
<g id="Node000036" class="node">
<title>Node36</title>
<g id="a_Node000036"><a xlink:href="defer_8hpp.html" target="_top" xlink:title=" ">
<polygon fill="white" stroke="#666666" points="1521.57,-207.5 1444.07,-207.5 1444.07,-184.5 1521.57,-184.5 1521.57,-207.5"/>
<text text-anchor="middle" x="1482.82" y="-194" font-family="Helvetica,sans-Serif" font-size="10.00">utils/defer.hpp</text>
</a>
</g>
</g>
<!-- Node1&#45;&gt;Node36 -->
<g id="edge62_Node000001_Node000036" class="edge">
<title>Node1&#45;&gt;Node36</title>
<g id="a_edge62_Node000001_Node000036"><a xlink:title=" ">
<path fill="none" stroke="#63b8ff" d="M1055.23,-260.45C1128.21,-257.68 1297.18,-247.96 1434.82,-215 1438.89,-214.03 1443.08,-212.8 1447.22,-211.45"/>
<polygon fill="#63b8ff" stroke="#63b8ff" points="1448.01,-214.53 1456.28,-207.91 1445.68,-207.93 1448.01,-214.53"/>
</a>
</g>
</g>
<!-- Node3 -->
<g id="Node000003" class="node">
<title>Node3</title>
<g id="a_Node000003"><a xlink:href="version_8h.html" target="_top" xlink:title=" ">
<polygon fill="white" stroke="#666666" points="1239.07,-141 1164.57,-141 1164.57,-118 1239.07,-118 1239.07,-141"/>
<text text-anchor="middle" x="1201.82" y="-127.5" font-family="Helvetica,sans-Serif" font-size="10.00">info/version.h</text>
</a>
</g>
</g>
<!-- Node2&#45;&gt;Node3 -->
<g id="edge2_Node000002_Node000003" class="edge">
<title>Node2&#45;&gt;Node3</title>
<g id="a_edge2_Node000002_Node000003"><a xlink:title=" ">
<path fill="none" stroke="#63b8ff" d="M1049.86,-184.06C1080.36,-173.31 1127.07,-156.84 1160.66,-145.01"/>
<polygon fill="#63b8ff" stroke="#63b8ff" points="1161.36,-148.12 1169.62,-141.5 1159.03,-141.52 1161.36,-148.12"/>
</a>
</g>
</g>
<!-- Node6 -->
<g id="Node000006" class="node">
<title>Node6</title>
<g id="a_Node000006"><a xlink:title=" ">
<polygon fill="#e0e0e0" stroke="#999999" points="990.69,-141 856.94,-141 856.94,-118 990.69,-118 990.69,-141"/>
<text text-anchor="middle" x="923.82" y="-127.5" font-family="Helvetica,sans-Serif" font-size="10.00">boost/program_options.hpp</text>
</a>
</g>
</g>
<!-- Node2&#45;&gt;Node6 -->
<g id="edge5_Node000002_Node000006" class="edge">
<title>Node2&#45;&gt;Node6</title>
<g id="a_edge5_Node000002_Node000006"><a xlink:title=" ">
<path fill="none" stroke="#63b8ff" d="M1002.7,-184.06C987.96,-174.05 965.93,-159.09 948.89,-147.52"/>
<polygon fill="#63b8ff" stroke="#63b8ff" points="951.25,-144.22 941.01,-141.5 947.32,-150.01 951.25,-144.22"/>
</a>
</g>
</g>
<!-- Node7 -->
<g id="Node000007" class="node">
<title>Node7</title>
<g id="a_Node000007"><a xlink:title=" ">
<polygon fill="#e0e0e0" stroke="#999999" points="1108.32,-141 1047.32,-141 1047.32,-118 1108.32,-118 1108.32,-141"/>
<text text-anchor="middle" x="1077.82" y="-127.5" font-family="Helvetica,sans-Serif" font-size="10.00">filesystem</text>
</a>
</g>
</g>
<!-- Node2&#45;&gt;Node7 -->
<g id="edge6_Node000002_Node000007" class="edge">
<title>Node2&#45;&gt;Node7</title>
<g id="a_edge6_Node000002_Node000007"><a xlink:title=" ">
<path fill="none" stroke="#63b8ff" d="M1028.83,-184.06C1037.53,-174.55 1050.32,-160.57 1060.65,-149.27"/>
<polygon fill="#63b8ff" stroke="#63b8ff" points="1062.79,-152.02 1066.96,-142.28 1057.63,-147.3 1062.79,-152.02"/>
</a>
</g>
</g>
<!-- Node8 -->
<g id="Node000008" class="node">
<title>Node8</title>
<g id="a_Node000008"><a xlink:title=" ">
<polygon fill="#e0e0e0" stroke="#999999" points="1344.32,-141 1295.32,-141 1295.32,-118 1344.32,-118 1344.32,-141"/>
<text text-anchor="middle" x="1319.82" y="-127.5" font-family="Helvetica,sans-Serif" font-size="10.00">fstream</text>
</a>
</g>
</g>
<!-- Node2&#45;&gt;Node8 -->
<g id="edge7_Node000002_Node000008" class="edge">
<title>Node2&#45;&gt;Node8</title>
<g id="a_edge7_Node000002_Node000008"><a xlink:title=" ">
<path fill="none" stroke="#63b8ff" d="M1053.24,-184.03C1061.57,-181.55 1070.48,-179.05 1078.82,-177 1151.22,-159.2 1237.24,-144.01 1284.43,-136.18"/>
<polygon fill="#63b8ff" stroke="#63b8ff" points="1284.71,-139.51 1294.01,-134.44 1283.57,-132.61 1284.71,-139.51"/>
</a>
</g>
</g>
<!-- Node9 -->
<g id="Node000009" class="node">
<title>Node9</title>
<g id="a_Node000009"><a xlink:title=" ">
<polygon fill="#e0e0e0" stroke="#999999" points="784.57,-141 731.07,-141 731.07,-118 784.57,-118 784.57,-141"/>
<text text-anchor="middle" x="757.82" y="-127.5" font-family="Helvetica,sans-Serif" font-size="10.00">iostream</text>
</a>
</g>
</g>
<!-- Node2&#45;&gt;Node9 -->
<g id="edge8_Node000002_Node000009" class="edge">
<title>Node2&#45;&gt;Node9</title>
<g id="a_edge8_Node000002_Node000009"><a xlink:title=" ">
<path fill="none" stroke="#63b8ff" d="M974.69,-185.07C931.43,-175.19 863.38,-159.26 795.38,-141.33"/>
<polygon fill="#63b8ff" stroke="#63b8ff" points="796.47,-137.73 785.91,-138.55 794.68,-144.5 796.47,-137.73"/>
</a>
</g>
</g>
<!-- Node10 -->
<g id="Node000010" class="node">
<title>Node10</title>
<g id="a_Node000010"><a xlink:title=" ">
<polygon fill="#e0e0e0" stroke="#999999" points="744.82,-23 704.82,-23 704.82,0 744.82,0 744.82,-23"/>
<text text-anchor="middle" x="724.82" y="-9.5" font-family="Helvetica,sans-Serif" font-size="10.00">string</text>
</a>
</g>
</g>
<!-- Node2&#45;&gt;Node10 -->
<g id="edge9_Node000002_Node000010" class="edge">
<title>Node2&#45;&gt;Node10</title>
<g id="a_edge9_Node000002_Node000010"><a xlink:title=" ">
<path fill="none" stroke="#63b8ff" d="M1019.13,-184.13C1019.01,-167.78 1016.4,-136.79 999.82,-118 934.92,-44.48 812.92,-21.9 755.8,-15.21"/>
<polygon fill="#63b8ff" stroke="#63b8ff" points="756.27,-11.63 745.95,-14.04 755.52,-18.59 756.27,-11.63"/>
</a>
</g>
</g>
<!-- Node11 -->
<g id="Node000011" class="node">
<title>Node11</title>
<g id="a_Node000011"><a xlink:title=" ">
<polygon fill="#e0e0e0" stroke="#999999" points="839.32,-141 802.32,-141 802.32,-118 839.32,-118 839.32,-141"/>
<text text-anchor="middle" x="820.82" y="-127.5" font-family="Helvetica,sans-Serif" font-size="10.00">tuple</text>
</a>
</g>
</g>
<!-- Node2&#45;&gt;Node11 -->
<g id="edge10_Node000002_Node000011" class="edge">
<title>Node2&#45;&gt;Node11</title>
<g id="a_edge10_Node000002_Node000011"><a xlink:title=" ">
<path fill="none" stroke="#63b8ff" d="M981.9,-184.1C949.28,-174.3 900.24,-159.16 849.76,-141.55"/>
<polygon fill="#63b8ff" stroke="#63b8ff" points="851.24,-138.01 840.64,-138 848.92,-144.62 851.24,-138.01"/>
</a>
</g>
</g>
<!-- Node4 -->
<g id="Node000004" class="node">
<title>Node4</title>
<g id="a_Node000004"><a xlink:title=" ">
<polygon fill="#e0e0e0" stroke="#999999" points="1135.57,-82 1070.07,-82 1070.07,-59 1135.57,-59 1135.57,-82"/>
<text text-anchor="middle" x="1102.82" y="-68.5" font-family="Helvetica,sans-Serif" font-size="10.00">string_view</text>
</a>
</g>
</g>
<!-- Node3&#45;&gt;Node4 -->
<g id="edge3_Node000003_Node000004" class="edge">
<title>Node3&#45;&gt;Node4</title>
<g id="a_edge3_Node000003_Node000004"><a xlink:title=" ">
<path fill="none" stroke="#63b8ff" d="M1182.73,-117.51C1168.08,-109.07 1147.62,-97.29 1131.07,-87.76"/>
<polygon fill="#63b8ff" stroke="#63b8ff" points="1133.26,-84.41 1122.85,-82.46 1129.77,-90.48 1133.26,-84.41"/>
</a>
</g>
</g>
<!-- Node5 -->
<g id="Node000005" class="node">
<title>Node5</title>
<g id="a_Node000005"><a xlink:href="config_8h.html" target="_top" xlink:title=" ">
<polygon fill="white" stroke="#666666" points="1227.07,-82 1176.57,-82 1176.57,-59 1227.07,-59 1227.07,-82"/>
<text text-anchor="middle" x="1201.82" y="-68.5" font-family="Helvetica,sans-Serif" font-size="10.00">config.h</text>
</a>
</g>
</g>
<!-- Node3&#45;&gt;Node5 -->
<g id="edge4_Node000003_Node000005" class="edge">
<title>Node3&#45;&gt;Node5</title>
<g id="a_edge4_Node000003_Node000005"><a xlink:title=" ">
<path fill="none" stroke="#63b8ff" d="M1201.82,-117.51C1201.82,-110.65 1201.82,-101.58 1201.82,-93.31"/>
<polygon fill="#63b8ff" stroke="#63b8ff" points="1205.32,-93.46 1201.82,-83.46 1198.32,-93.46 1205.32,-93.46"/>
</a>
</g>
</g>
<!-- Node13 -->
<g id="Node000013" class="node">
<title>Node13</title>
<g id="a_Node000013"><a xlink:title=" ">
<polygon fill="#e0e0e0" stroke="#999999" points="79.69,-141 17.94,-141 17.94,-118 79.69,-118 79.69,-141"/>
<text text-anchor="middle" x="48.82" y="-127.5" font-family="Helvetica,sans-Serif" font-size="10.00">type_traits</text>
</a>
</g>
</g>
<!-- Node12&#45;&gt;Node13 -->
<g id="edge12_Node000012_Node000013" class="edge">
<title>Node12&#45;&gt;Node13</title>
<g id="a_edge12_Node000012_Node000013"><a xlink:title=" ">
<path fill="none" stroke="#63b8ff" d="M175.46,-177.72C148.28,-167.58 114.3,-154.91 88.38,-145.25"/>
<polygon fill="#63b8ff" stroke="#63b8ff" points="89.76,-141.66 79.17,-141.44 87.32,-148.22 89.76,-141.66"/>
</a>
</g>
</g>
<!-- Node14 -->
<g id="Node000014" class="node">
<title>Node14</title>
<g id="a_Node000014"><a xlink:title=" ">
<polygon fill="#e0e0e0" stroke="#999999" points="299.07,-23 254.57,-23 254.57,0 299.07,0 299.07,-23"/>
<text text-anchor="middle" x="276.82" y="-9.5" font-family="Helvetica,sans-Serif" font-size="10.00">variant</text>
</a>
</g>
</g>
<!-- Node12&#45;&gt;Node14 -->
<g id="edge13_Node000012_Node000014" class="edge">
<title>Node12&#45;&gt;Node14</title>
<g id="a_edge13_Node000012_Node000014"><a xlink:title=" ">
<path fill="none" stroke="#63b8ff" d="M187.87,-176.56C175.04,-167.66 161.85,-155.69 154.82,-141 150.41,-131.78 151.6,-127.7 154.82,-118 168.98,-75.31 213.4,-44.66 244.53,-27.75"/>
<polygon fill="#63b8ff" stroke="#63b8ff" points="245.87,-30.47 253.12,-22.74 242.63,-24.27 245.87,-30.47"/>
</a>
</g>
</g>
<!-- Node15 -->
<g id="Node000015" class="node">
<title>Node15</title>
<g id="a_Node000015"><a xlink:title=" ">
<polygon fill="#e0e0e0" stroke="#999999" points="422.94,-82 380.69,-82 380.69,-59 422.94,-59 422.94,-82"/>
<text text-anchor="middle" x="401.82" y="-68.5" font-family="Helvetica,sans-Serif" font-size="10.00">vector</text>
</a>
</g>
</g>
<!-- Node12&#45;&gt;Node15 -->
<g id="edge14_Node000012_Node000015" class="edge">
<title>Node12&#45;&gt;Node15</title>
<g id="a_edge14_Node000012_Node000015"><a xlink:title=" ">
<path fill="none" stroke="#63b8ff" d="M193.18,-176.78C171.69,-160.87 148.55,-137.35 164.82,-118 193.05,-84.43 311.05,-92.53 369.75,-81.82"/>
<polygon fill="#63b8ff" stroke="#63b8ff" points="370.3,-85.06 379.32,-79.5 368.8,-78.23 370.3,-85.06"/>
</a>
</g>
</g>
<!-- Node16 -->
<g id="Node000016" class="node">
<title>Node16</title>
<g id="a_Node000016"><a xlink:href="bulk__event_8hpp.html" target="_top" xlink:title=" ">
<polygon fill="white" stroke="#666666" points="553.94,-141 451.69,-141 451.69,-118 553.94,-118 553.94,-141"/>
<text text-anchor="middle" x="502.82" y="-127.5" font-family="Helvetica,sans-Serif" font-size="10.00">bulk/bulk_event.hpp</text>
</a>
</g>
</g>
<!-- Node12&#45;&gt;Node16 -->
<g id="edge15_Node000012_Node000016" class="edge">
<title>Node12&#45;&gt;Node16</title>
<g id="a_edge15_Node000012_Node000016"><a xlink:title=" ">
<path fill="none" stroke="#63b8ff" d="M268.54,-184.28C316.86,-173.18 392.43,-155.84 444.61,-143.86"/>
<polygon fill="#63b8ff" stroke="#63b8ff" points="445.09,-147.11 454.05,-141.46 443.52,-140.29 445.09,-147.11"/>
</a>
</g>
</g>
<!-- Node19 -->
<g id="Node000019" class="node">
<title>Node19</title>
<g id="a_Node000019"><a xlink:href="token__event_8hpp.html" target="_top" xlink:title=" ">
<polygon fill="white" stroke="#666666" points="433.94,-141 325.69,-141 325.69,-118 433.94,-118 433.94,-141"/>
<text text-anchor="middle" x="379.82" y="-127.5" font-family="Helvetica,sans-Serif" font-size="10.00">cmd/token_event.hpp</text>
</a>
</g>
</g>
<!-- Node12&#45;&gt;Node19 -->
<g id="edge20_Node000012_Node000019" class="edge">
<title>Node12&#45;&gt;Node19</title>
<g id="a_edge20_Node000012_Node000019"><a xlink:title=" ">
<path fill="none" stroke="#63b8ff" d="M267.1,-176.52C291.29,-166.64 320.69,-154.64 343.39,-145.37"/>
<polygon fill="#63b8ff" stroke="#63b8ff" points="344.38,-148.34 352.31,-141.32 341.73,-141.86 344.38,-148.34"/>
</a>
</g>
</g>
<!-- Node22 -->
<g id="Node000022" class="node">
<title>Node22</title>
<g id="a_Node000022"><a xlink:href="overload_8hpp.html" target="_top" xlink:title=" ">
<polygon fill="white" stroke="#666666" points="141.69,-23 49.94,-23 49.94,0 141.69,0 141.69,-23"/>
<text text-anchor="middle" x="95.82" y="-9.5" font-family="Helvetica,sans-Serif" font-size="10.00">utils/overload.hpp</text>
</a>
</g>
</g>
<!-- Node12&#45;&gt;Node22 -->
<g id="edge33_Node000012_Node000022" class="edge">
<title>Node12&#45;&gt;Node22</title>
<g id="a_edge33_Node000012_Node000022"><a xlink:title=" ">
<path fill="none" stroke="#63b8ff" d="M175.56,-189.86C119.23,-182.55 29.08,-167.04 8.82,-141 -20.95,-102.74 34.1,-54.79 69.45,-29.66"/>
<polygon fill="#63b8ff" stroke="#63b8ff" points="71.14,-32.06 77.38,-23.5 67.16,-26.3 71.14,-32.06"/>
</a>
</g>
</g>
<!-- Node23 -->
<g id="Node000023" class="node">
<title>Node23</title>
<g id="a_Node000023"><a xlink:href="publisher_8hpp.html" target="_top" xlink:title=" ">
<polygon fill="white" stroke="#666666" points="269.57,-141 174.07,-141 174.07,-118 269.57,-118 269.57,-141"/>
<text text-anchor="middle" x="221.82" y="-127.5" font-family="Helvetica,sans-Serif" font-size="10.00">core/publisher.hpp</text>
</a>
</g>
</g>
<!-- Node12&#45;&gt;Node23 -->
<g id="edge27_Node000012_Node000023" class="edge">
<title>Node12&#45;&gt;Node23</title>
<g id="a_edge27_Node000012_Node000023"><a xlink:title=" ">
<path fill="none" stroke="#63b8ff" d="M221.82,-176.69C221.82,-168.98 221.82,-159.96 221.82,-151.94"/>
<polygon fill="#63b8ff" stroke="#63b8ff" points="225.32,-152.19 221.82,-142.19 218.32,-152.19 225.32,-152.19"/>
</a>
</g>
</g>
<!-- Node25 -->
<g id="Node000025" class="node">
<title>Node25</title>
<g id="a_Node000025"><a xlink:href="subscriber_8hpp.html" target="_top" xlink:title=" ">
<polygon fill="white" stroke="#666666" points="622.69,-82 542.94,-82 542.94,-59 622.69,-59 622.69,-82"/>
<text text-anchor="middle" x="582.82" y="-68.5" font-family="Helvetica,sans-Serif" font-size="10.00">subscriber.hpp</text>
</a>
</g>
</g>
<!-- Node12&#45;&gt;Node25 -->
<g id="edge32_Node000012_Node000025" class="edge">
<title>Node12&#45;&gt;Node25</title>
<g id="a_edge32_Node000012_Node000025"><a xlink:title=" ">
<path fill="none" stroke="#63b8ff" d="M238.81,-176.52C256.48,-158.53 285.84,-131.94 316.82,-118 402.84,-79.3 435.47,-98.75 531.7,-82.25"/>
<polygon fill="#63b8ff" stroke="#63b8ff" points="532.26,-85.53 541.47,-80.3 531.01,-78.64 532.26,-85.53"/>
</a>
</g>
</g>
<!-- Node16&#45;&gt;Node4 -->
<g id="edge18_Node000016_Node000004" class="edge">
<title>Node16&#45;&gt;Node4</title>
<g id="a_edge18_Node000016_Node000004"><a xlink:title=" ">
<path fill="none" stroke="#63b8ff" d="M554.19,-122.92C569.51,-121.29 586.34,-119.54 601.82,-118 770.66,-101.21 971.7,-83.13 1058.89,-75.38"/>
<polygon fill="#63b8ff" stroke="#63b8ff" points="1059.03,-78.79 1068.68,-74.42 1058.41,-71.82 1059.03,-78.79"/>
</a>
</g>
</g>
<!-- Node16&#45;&gt;Node15 -->
<g id="edge19_Node000016_Node000015" class="edge">
<title>Node16&#45;&gt;Node15</title>
<g id="a_edge19_Node000016_Node000015"><a xlink:title=" ">
<path fill="none" stroke="#63b8ff" d="M483.35,-117.51C468.39,-109.07 447.52,-97.29 430.64,-87.76"/>
<polygon fill="#63b8ff" stroke="#63b8ff" points="432.66,-84.32 422.23,-82.46 429.22,-90.42 432.66,-84.32"/>
</a>
</g>
</g>
<!-- Node17 -->
<g id="Node000017" class="node">
<title>Node17</title>
<g id="a_Node000017"><a xlink:title=" ">
<polygon fill="#e0e0e0" stroke="#999999" points="524.44,-82 479.19,-82 479.19,-59 524.44,-59 524.44,-82"/>
<text text-anchor="middle" x="501.82" y="-68.5" font-family="Helvetica,sans-Serif" font-size="10.00">chrono</text>
</a>
</g>
</g>
<!-- Node16&#45;&gt;Node17 -->
<g id="edge16_Node000016_Node000017" class="edge">
<title>Node16&#45;&gt;Node17</title>
<g id="a_edge16_Node000016_Node000017"><a xlink:title=" ">
<path fill="none" stroke="#63b8ff" d="M502.63,-117.51C502.51,-110.65 502.35,-101.58 502.2,-93.31"/>
<polygon fill="#63b8ff" stroke="#63b8ff" points="505.69,-93.39 502.01,-83.46 498.69,-93.52 505.69,-93.39"/>
</a>
</g>
</g>
<!-- Node18 -->
<g id="Node000018" class="node">
<title>Node18</title>
<g id="a_Node000018"><a xlink:title=" ">
<polygon fill="#e0e0e0" stroke="#999999" points="416.44,-23 365.19,-23 365.19,0 416.44,0 416.44,-23"/>
<text text-anchor="middle" x="390.82" y="-9.5" font-family="Helvetica,sans-Serif" font-size="10.00">ostream</text>
</a>
</g>
</g>
<!-- Node16&#45;&gt;Node18 -->
<g id="edge17_Node000016_Node000018" class="edge">
<title>Node16&#45;&gt;Node18</title>
<g id="a_edge17_Node000016_Node000018"><a xlink:title=" ">
<path fill="none" stroke="#63b8ff" d="M492.48,-117.79C473.4,-98.03 432.41,-55.58 408.72,-31.04"/>
<polygon fill="#63b8ff" stroke="#63b8ff" points="411.59,-28.94 402.13,-24.18 406.56,-33.8 411.59,-28.94"/>
</a>
</g>
</g>
<!-- Node20 -->
<g id="Node000020" class="node">
<title>Node20</title>
<g id="a_Node000020"><a xlink:href="token_8hpp.html" target="_top" xlink:title=" ">
<polygon fill="white" stroke="#666666" points="362.82,-82 304.82,-82 304.82,-59 362.82,-59 362.82,-82"/>
<text text-anchor="middle" x="333.82" y="-68.5" font-family="Helvetica,sans-Serif" font-size="10.00">token.hpp</text>
</a>
</g>
</g>
<!-- Node19&#45;&gt;Node20 -->
<g id="edge21_Node000019_Node000020" class="edge">
<title>Node19&#45;&gt;Node20</title>
<g id="a_edge21_Node000019_Node000020"><a xlink:title=" ">
<path fill="none" stroke="#63b8ff" d="M370.95,-117.51C364.84,-109.94 356.56,-99.68 349.37,-90.77"/>
<polygon fill="#63b8ff" stroke="#63b8ff" points="351.67,-89.04 342.66,-83.46 346.22,-93.44 351.67,-89.04"/>
</a>
</g>
</g>
<!-- Node20&#45;&gt;Node10 -->
<g id="edge24_Node000020_Node000010" class="edge">
<title>Node20&#45;&gt;Node10</title>
<g id="a_edge24_Node000020_Node000010"><a xlink:title=" ">
<path fill="none" stroke="#63b8ff" d="M363.18,-60.95C366.09,-60.24 369,-59.57 371.82,-59 433.35,-46.51 619.49,-24.56 693.75,-16.03"/>
<polygon fill="#63b8ff" stroke="#63b8ff" points="694.13,-19.4 703.67,-14.78 693.33,-12.44 694.13,-19.4"/>
</a>
</g>
</g>
<!-- Node20&#45;&gt;Node14 -->
<g id="edge25_Node000020_Node000014" class="edge">
<title>Node20&#45;&gt;Node14</title>
<g id="a_edge25_Node000020_Node000014"><a xlink:title=" ">
<path fill="none" stroke="#63b8ff" d="M322.83,-58.51C315.1,-50.78 304.57,-40.25 295.53,-31.21"/>
<polygon fill="#63b8ff" stroke="#63b8ff" points="298.32,-29.05 288.78,-24.46 293.37,-34 298.32,-29.05"/>
</a>
</g>
</g>
<!-- Node20&#45;&gt;Node18 -->
<g id="edge23_Node000020_Node000018" class="edge">
<title>Node20&#45;&gt;Node18</title>
<g id="a_edge23_Node000020_Node000018"><a xlink:title=" ">
<path fill="none" stroke="#63b8ff" d="M344.81,-58.51C352.54,-50.78 363.07,-40.25 372.11,-31.21"/>
<polygon fill="#63b8ff" stroke="#63b8ff" points="374.27,-34 378.86,-24.46 369.32,-29.05 374.27,-34"/>
</a>
</g>
</g>
<!-- Node21 -->
<g id="Node000021" class="node">
<title>Node21</title>
<g id="a_Node000021"><a xlink:title=" ">
<polygon fill="#e0e0e0" stroke="#999999" points="1047.69,-23 1003.94,-23 1003.94,0 1047.69,0 1047.69,-23"/>
<text text-anchor="middle" x="1025.82" y="-9.5" font-family="Helvetica,sans-Serif" font-size="10.00">format</text>
</a>
</g>
</g>
<!-- Node20&#45;&gt;Node21 -->
<g id="edge22_Node000020_Node000021" class="edge">
<title>Node20&#45;&gt;Node21</title>
<g id="a_edge22_Node000020_Node000021"><a xlink:title=" ">
<path fill="none" stroke="#63b8ff" d="M363.15,-60.78C366.06,-60.1 368.99,-59.49 371.82,-59 493.29,-38.11 877.27,-19.29 992.69,-13.98"/>
<polygon fill="#63b8ff" stroke="#63b8ff" points="992.78,-17.44 1002.61,-13.49 992.46,-10.44 992.78,-17.44"/>
</a>
</g>
</g>
<!-- Node20&#45;&gt;Node22 -->
<g id="edge26_Node000020_Node000022" class="edge">
<title>Node20&#45;&gt;Node22</title>
<g id="a_edge26_Node000020_Node000022"><a xlink:title=" ">
<path fill="none" stroke="#63b8ff" d="M304.64,-62.51C266.78,-53.45 199.95,-37.44 152.08,-25.97"/>
<polygon fill="#63b8ff" stroke="#63b8ff" points="153.11,-22.38 142.57,-23.46 151.48,-29.19 153.11,-22.38"/>
</a>
</g>
</g>
<!-- Node24 -->
<g id="Node000024" class="node">
<title>Node24</title>
<g id="a_Node000024"><a xlink:title=" ">
<polygon fill="#e0e0e0" stroke="#999999" points="236.22,-82 207.42,-82 207.42,-59 236.22,-59 236.22,-82"/>
<text text-anchor="middle" x="221.82" y="-68.5" font-family="Helvetica,sans-Serif" font-size="10.00">list</text>
</a>
</g>
</g>
<!-- Node23&#45;&gt;Node24 -->
<g id="edge28_Node000023_Node000024" class="edge">
<title>Node23&#45;&gt;Node24</title>
<g id="a_edge28_Node000023_Node000024"><a xlink:title=" ">
<path fill="none" stroke="#63b8ff" d="M221.82,-117.51C221.82,-110.65 221.82,-101.58 221.82,-93.31"/>
<polygon fill="#63b8ff" stroke="#63b8ff" points="225.32,-93.46 221.82,-83.46 218.32,-93.46 225.32,-93.46"/>
</a>
</g>
</g>
<!-- Node23&#45;&gt;Node25 -->
<g id="edge29_Node000023_Node000025" class="edge">
<title>Node23&#45;&gt;Node25</title>
<g id="a_edge29_Node000023_Node000025"><a xlink:title=" ">
<path fill="none" stroke="#63b8ff" d="M269.86,-120.24C274.58,-119.47 279.29,-118.71 283.82,-118 391.37,-101.15 421.51,-101.72 531.91,-82.25"/>
<polygon fill="#63b8ff" stroke="#63b8ff" points="532.25,-85.57 541.49,-80.37 531.03,-78.68 532.25,-85.57"/>
</a>
</g>
</g>
<!-- Node25&#45;&gt;Node21 -->
<g id="edge30_Node000025_Node000021" class="edge">
<title>Node25&#45;&gt;Node21</title>
<g id="a_edge30_Node000025_Node000021"><a xlink:title=" ">
<path fill="none" stroke="#63b8ff" d="M623.14,-60.55C626.07,-59.99 628.99,-59.47 631.82,-59 764.78,-36.96 924.68,-21.44 992.65,-15.36"/>
<polygon fill="#63b8ff" stroke="#63b8ff" points="992.85,-18.76 1002.5,-14.4 992.23,-11.79 992.85,-18.76"/>
</a>
</g>
</g>
<!-- Node26 -->
<g id="Node000026" class="node">
<title>Node26</title>
<g id="a_Node000026"><a xlink:title=" ">
<polygon fill="#e0e0e0" stroke="#999999" points="608.07,-23 557.57,-23 557.57,0 608.07,0 608.07,-23"/>
<text text-anchor="middle" x="582.82" y="-9.5" font-family="Helvetica,sans-Serif" font-size="10.00">typeinfo</text>
</a>
</g>
</g>
<!-- Node25&#45;&gt;Node26 -->
<g id="edge31_Node000025_Node000026" class="edge">
<title>Node25&#45;&gt;Node26</title>
<g id="a_edge31_Node000025_Node000026"><a xlink:title=" ">
<path fill="none" stroke="#63b8ff" d="M582.82,-58.51C582.82,-51.65 582.82,-42.58 582.82,-34.31"/>
<polygon fill="#63b8ff" stroke="#63b8ff" points="586.32,-34.46 582.82,-24.46 579.32,-34.46 586.32,-34.46"/>
</a>
</g>
</g>
<!-- Node27&#45;&gt;Node9 -->
<g id="edge35_Node000027_Node000009" class="edge">
<title>Node27&#45;&gt;Node9</title>
<g id="a_edge35_Node000027_Node000009"><a xlink:title=" ">
<path fill="none" stroke="#63b8ff" d="M662.93,-176.52C682.84,-166.86 706.93,-155.18 725.86,-146"/>
<polygon fill="#63b8ff" stroke="#63b8ff" points="727.03,-148.83 734.51,-141.32 723.98,-142.54 727.03,-148.83"/>
</a>
</g>
</g>
<!-- Node27&#45;&gt;Node19 -->
<g id="edge41_Node000027_Node000019" class="edge">
<title>Node27&#45;&gt;Node19</title>
<g id="a_edge41_Node000027_Node000019"><a xlink:title=" ">
<path fill="none" stroke="#63b8ff" d="M569.84,-180.52C528.52,-169.65 472.31,-154.85 431.75,-144.17"/>
<polygon fill="#63b8ff" stroke="#63b8ff" points="432.84,-140.58 422.28,-141.42 431.06,-147.35 432.84,-140.58"/>
</a>
</g>
</g>
<!-- Node27&#45;&gt;Node23 -->
<g id="edge36_Node000027_Node000023" class="edge">
<title>Node27&#45;&gt;Node23</title>
<g id="a_edge36_Node000027_Node000023"><a xlink:title=" ">
<path fill="none" stroke="#63b8ff" d="M570.05,-186.23C494.31,-174.11 358.15,-152.32 280.43,-139.88"/>
<polygon fill="#63b8ff" stroke="#63b8ff" points="281.29,-136.31 270.86,-138.19 280.18,-143.23 281.29,-136.31"/>
</a>
</g>
</g>
<!-- Node28 -->
<g id="Node000028" class="node">
<title>Node28</title>
<g id="a_Node000028"><a xlink:href="string__utils_8hpp.html" target="_top" xlink:title=" ">
<polygon fill="white" stroke="#666666" points="713.32,-141 610.32,-141 610.32,-118 713.32,-118 713.32,-141"/>
<text text-anchor="middle" x="661.82" y="-127.5" font-family="Helvetica,sans-Serif" font-size="10.00">utils/string_utils.hpp</text>
</a>
</g>
</g>
<!-- Node27&#45;&gt;Node28 -->
<g id="edge37_Node000027_Node000028" class="edge">
<title>Node27&#45;&gt;Node28</title>
<g id="a_edge37_Node000027_Node000028"><a xlink:title=" ">
<path fill="none" stroke="#63b8ff" d="M635.32,-176.69C640,-168.53 645.52,-158.91 650.31,-150.56"/>
<polygon fill="#63b8ff" stroke="#63b8ff" points="653.75,-152.61 655.69,-142.19 647.67,-149.12 653.75,-152.61"/>
</a>
</g>
</g>
<!-- Node28&#45;&gt;Node4 -->
<g id="edge40_Node000028_Node000004" class="edge">
<title>Node28&#45;&gt;Node4</title>
<g id="a_edge40_Node000028_Node000004"><a xlink:title=" ">
<path fill="none" stroke="#63b8ff" d="M713.5,-119.28C716.31,-118.83 719.1,-118.4 721.82,-118 843.51,-99.94 987.84,-83.74 1058.86,-76.12"/>
<polygon fill="#63b8ff" stroke="#63b8ff" points="1059.04,-79.51 1068.62,-74.97 1058.3,-72.55 1059.04,-79.51"/>
</a>
</g>
</g>
<!-- Node28&#45;&gt;Node10 -->
<g id="edge39_Node000028_Node000010" class="edge">
<title>Node28&#45;&gt;Node10</title>
<g id="a_edge39_Node000028_Node000010"><a xlink:title=" ">
<path fill="none" stroke="#63b8ff" d="M675.21,-117.6C685.03,-108.92 697.97,-95.95 705.82,-82 714.15,-67.18 719,-48.5 721.7,-34.24"/>
<polygon fill="#63b8ff" stroke="#63b8ff" points="725.3,-34.93 723.5,-24.48 718.4,-33.77 725.3,-34.93"/>
</a>
</g>
</g>
<!-- Node29 -->
<g id="Node000029" class="node">
<title>Node29</title>
<g id="a_Node000029"><a xlink:title=" ">
<polygon fill="#e0e0e0" stroke="#999999" points="696.69,-82 640.94,-82 640.94,-59 696.69,-59 696.69,-82"/>
<text text-anchor="middle" x="668.82" y="-68.5" font-family="Helvetica,sans-Serif" font-size="10.00">algorithm</text>
</a>
</g>
</g>
<!-- Node28&#45;&gt;Node29 -->
<g id="edge38_Node000028_Node000029" class="edge">
<title>Node28&#45;&gt;Node29</title>
<g id="a_edge38_Node000028_Node000029"><a xlink:title=" ">
<path fill="none" stroke="#63b8ff" d="M663.17,-117.51C664.01,-110.65 665.13,-101.58 666.14,-93.31"/>
<polygon fill="#63b8ff" stroke="#63b8ff" points="669.73,-93.81 667.47,-83.46 662.78,-92.96 669.73,-93.81"/>
</a>
</g>
</g>
<!-- Node30&#45;&gt;Node4 -->
<g id="edge48_Node000030_Node000004" class="edge">
<title>Node30&#45;&gt;Node4</title>
<g id="a_edge48_Node000030_Node000004"><a xlink:title=" ">
<path fill="none" stroke="#63b8ff" d="M1394.72,-184.17C1413.3,-168.42 1441.9,-138.8 1423.82,-118 1386.13,-74.64 1224.62,-90.58 1167.82,-82 1161,-80.97 1153.77,-79.84 1146.72,-78.72"/>
<polygon fill="#63b8ff" stroke="#63b8ff" points="1147.29,-75.1 1136.87,-76.97 1146.18,-82.01 1147.29,-75.1"/>
</a>
</g>
</g>
<!-- Node30&#45;&gt;Node8 -->
<g id="edge46_Node000030_Node000008" class="edge">
<title>Node30&#45;&gt;Node8</title>
<g id="a_edge46_Node000030_Node000008"><a xlink:title=" ">
<path fill="none" stroke="#63b8ff" d="M1370.47,-184.06C1361.39,-174.46 1348,-160.29 1337.26,-148.94"/>
<polygon fill="#63b8ff" stroke="#63b8ff" points="1340.43,-147.14 1331.01,-142.28 1335.34,-151.95 1340.43,-147.14"/>
</a>
</g>
</g>
<!-- Node30&#45;&gt;Node9 -->
<g id="edge47_Node000030_Node000009" class="edge">
<title>Node30&#45;&gt;Node9</title>
<g id="a_edge47_Node000030_Node000009"><a xlink:title=" ">
<path fill="none" stroke="#63b8ff" d="M1335.35,-190.51C1297.69,-186.81 1242.79,-181.47 1194.82,-177 1020.13,-160.71 971.54,-173.68 795.48,-140.99"/>
<polygon fill="#63b8ff" stroke="#63b8ff" points="796.28,-137.39 785.81,-138.98 794.99,-144.27 796.28,-137.39"/>
</a>
</g>
</g>
<!-- Node30&#45;&gt;Node21 -->
<g id="edge45_Node000030_Node000021" class="edge">
<title>Node30&#45;&gt;Node21</title>
<g id="a_edge45_Node000030_Node000021"><a xlink:title=" ">
<path fill="none" stroke="#63b8ff" d="M1399.63,-184.15C1422.86,-169.35 1457.31,-141.93 1439.82,-118 1394.28,-55.68 1149.15,-24.96 1059.06,-15.65"/>
<polygon fill="#63b8ff" stroke="#63b8ff" points="1059.44,-12.07 1049.14,-14.55 1058.74,-19.03 1059.44,-12.07"/>
</a>
</g>
</g>
<!-- Node31 -->
<g id="Node000031" class="node">
<title>Node31</title>
<g id="a_Node000031"><a xlink:title=" ">
<polygon fill="#e0e0e0" stroke="#999999" points="1552.32,-141 1509.32,-141 1509.32,-118 1552.32,-118 1552.32,-141"/>
<text text-anchor="middle" x="1530.82" y="-127.5" font-family="Helvetica,sans-Serif" font-size="10.00">cerrno</text>
</a>
</g>
</g>
<!-- Node30&#45;&gt;Node31 -->
<g id="edge43_Node000030_Node000031" class="edge">
<title>Node30&#45;&gt;Node31</title>
<g id="a_edge43_Node000030_Node000031"><a xlink:title=" ">
<path fill="none" stroke="#63b8ff" d="M1406.26,-184.06C1431.91,-173.03 1471.54,-155.99 1499.19,-144.1"/>
<polygon fill="#63b8ff" stroke="#63b8ff" points="1500.35,-146.98 1508.15,-139.82 1497.58,-140.55 1500.35,-146.98"/>
</a>
</g>
</g>
<!-- Node32 -->
<g id="Node000032" class="node">
<title>Node32</title>
<g id="a_Node000032"><a xlink:title=" ">
<polygon fill="#e0e0e0" stroke="#999999" points="1627.44,-141 1570.19,-141 1570.19,-118 1627.44,-118 1627.44,-141"/>
<text text-anchor="middle" x="1598.82" y="-127.5" font-family="Helvetica,sans-Serif" font-size="10.00">exception</text>
</a>
</g>
</g>
<!-- Node30&#45;&gt;Node32 -->
<g id="edge44_Node000030_Node000032" class="edge">
<title>Node30&#45;&gt;Node32</title>
<g id="a_edge44_Node000030_Node000032"><a xlink:title=" ">
<path fill="none" stroke="#63b8ff" d="M1413.01,-184C1420.17,-181.63 1427.74,-179.18 1434.82,-177 1487.71,-160.7 1503.6,-157.36 1559.26,-141.71"/>
<polygon fill="#63b8ff" stroke="#63b8ff" points="1560.06,-144.84 1568.73,-138.75 1558.16,-138.1 1560.06,-144.84"/>
</a>
</g>
</g>
<!-- Node33&#45;&gt;Node7 -->
<g id="edge50_Node000033_Node000007" class="edge">
<title>Node33&#45;&gt;Node7</title>
<g id="a_edge50_Node000033_Node000007"><a xlink:title=" ">
<path fill="none" stroke="#63b8ff" d="M1126.81,-184.06C1118.11,-174.55 1105.32,-160.57 1094.99,-149.27"/>
<polygon fill="#63b8ff" stroke="#63b8ff" points="1098.01,-147.3 1088.68,-142.28 1092.85,-152.02 1098.01,-147.3"/>
</a>
</g>
</g>
<!-- Node33&#45;&gt;Node8 -->
<g id="edge52_Node000033_Node000008" class="edge">
<title>Node33&#45;&gt;Node8</title>
<g id="a_edge52_Node000033_Node000008"><a xlink:title=" ">
<path fill="none" stroke="#63b8ff" d="M1167.86,-184.06C1200.25,-172.64 1250.94,-154.78 1284.75,-142.86"/>
<polygon fill="#63b8ff" stroke="#63b8ff" points="1285.82,-145.84 1294.09,-139.22 1283.5,-139.24 1285.82,-145.84"/>
</a>
</g>
</g>
<!-- Node33&#45;&gt;Node16 -->
<g id="edge54_Node000033_Node000016" class="edge">
<title>Node33&#45;&gt;Node16</title>
<g id="a_edge54_Node000033_Node000016"><a xlink:title=" ">
<path fill="none" stroke="#63b8ff" d="M1102.02,-184.03C1092.33,-181.34 1081.74,-178.74 1071.82,-177 865.46,-140.88 810.45,-160.05 601.82,-141 590.02,-139.92 577.45,-138.67 565.36,-137.41"/>
<polygon fill="#63b8ff" stroke="#63b8ff" points="565.74,-133.83 555.43,-136.26 565.01,-140.79 565.74,-133.83"/>
</a>
</g>
</g>
<!-- Node33&#45;&gt;Node21 -->
<g id="edge51_Node000033_Node000021" class="edge">
<title>Node33&#45;&gt;Node21</title>
<g id="a_edge51_Node000033_Node000021"><a xlink:title=" ">
<path fill="none" stroke="#63b8ff" d="M1185.68,-184.03C1208.73,-176.14 1234.12,-162.89 1247.82,-141 1259.5,-122.33 1248.36,-71.76 1235.82,-59 1211.49,-34.25 1111.8,-20.93 1058.99,-15.49"/>
<polygon fill="#63b8ff" stroke="#63b8ff" points="1059.47,-11.92 1049.18,-14.41 1058.78,-18.88 1059.47,-11.92"/>
</a>
</g>
</g>
<!-- Node33&#45;&gt;Node25 -->
<g id="edge55_Node000033_Node000025" class="edge">
<title>Node33&#45;&gt;Node25</title>
<g id="a_edge55_Node000033_Node000025"><a xlink:title=" ">
<path fill="none" stroke="#63b8ff" d="M1137.75,-184.03C1138.52,-166.97 1137.17,-134.35 1117.82,-118 1078.39,-84.7 721.31,-89.16 633.98,-81.77"/>
<polygon fill="#63b8ff" stroke="#63b8ff" points="634.44,-78.2 624.12,-80.59 633.68,-85.15 634.44,-78.2"/>
</a>
</g>
</g>
<!-- Node34 -->
<g id="Node000034" class="node">
<title>Node34</title>
<g id="a_Node000034"><a xlink:title=" ">
<polygon fill="#e0e0e0" stroke="#999999" points="1414.82,-141 1362.82,-141 1362.82,-118 1414.82,-118 1414.82,-141"/>
<text text-anchor="middle" x="1388.82" y="-127.5" font-family="Helvetica,sans-Serif" font-size="10.00">memory</text>
</a>
</g>
</g>
<!-- Node33&#45;&gt;Node34 -->
<g id="edge53_Node000033_Node000034" class="edge">
<title>Node33&#45;&gt;Node34</title>
<g id="a_edge53_Node000033_Node000034"><a xlink:title=" ">
<path fill="none" stroke="#63b8ff" d="M1183.55,-184.05C1225.37,-174.1 1288.59,-158.68 1352.26,-141.35"/>
<polygon fill="#63b8ff" stroke="#63b8ff" points="1352.76,-144.56 1361.48,-138.55 1350.92,-137.81 1352.76,-144.56"/>
</a>
</g>
</g>
<!-- Node35&#45;&gt;Node9 -->
<g id="edge57_Node000035_Node000009" class="edge">
<title>Node35&#45;&gt;Node9</title>
<g id="a_edge57_Node000035_Node000009"><a xlink:title=" ">
<path fill="none" stroke="#63b8ff" d="M757.82,-184.06C757.82,-175.3 757.82,-162.73 757.82,-151.98"/>
<polygon fill="#63b8ff" stroke="#63b8ff" points="761.32,-152.28 757.82,-142.28 754.32,-152.28 761.32,-152.28"/>
</a>
</g>
</g>
<!-- Node35&#45;&gt;Node16 -->
<g id="edge59_Node000035_Node000016" class="edge">
<title>Node35&#45;&gt;Node16</title>
<g id="a_edge59_Node000035_Node000016"><a xlink:title=" ">
<path fill="none" stroke="#63b8ff" d="M716.24,-184.08C707.21,-181.73 697.7,-179.27 688.82,-177 644.79,-165.75 594.82,-153.28 557.77,-144.08"/>
<polygon fill="#63b8ff" stroke="#63b8ff" points="558.75,-140.47 548.2,-141.46 557.06,-147.26 558.75,-140.47"/>
</a>
</g>
</g>
<!-- Node35&#45;&gt;Node19 -->
<g id="edge60_Node000035_Node000019" class="edge">
<title>Node35&#45;&gt;Node19</title>
<g id="a_edge60_Node000035_Node000019"><a xlink:title=" ">
<path fill="none" stroke="#63b8ff" d="M718.95,-184.06C709.16,-181.53 698.65,-178.99 688.82,-177 583.91,-155.71 553.85,-157.92 444.9,-141.29"/>
<polygon fill="#63b8ff" stroke="#63b8ff" points="445.52,-137.69 435.1,-139.62 444.45,-144.61 445.52,-137.69"/>
</a>
</g>
</g>
<!-- Node35&#45;&gt;Node25 -->
<g id="edge61_Node000035_Node000025" class="edge">
<title>Node35&#45;&gt;Node25</title>
<g id="a_edge61_Node000035_Node000025"><a xlink:title=" ">
<path fill="none" stroke="#63b8ff" d="M720.41,-184.05C676.98,-171.03 610.19,-149.95 601.82,-141 589.82,-128.17 585.26,-108.5 583.6,-93.35"/>
<polygon fill="#63b8ff" stroke="#63b8ff" points="587.02,-93.11 582.8,-83.4 580.04,-93.63 587.02,-93.11"/>
</a>
</g>
</g>
<!-- Node35&#45;&gt;Node34 -->
<g id="edge58_Node000035_Node000034" class="edge">
<title>Node35&#45;&gt;Node34</title>
<g id="a_edge58_Node000035_Node000034"><a xlink:title=" ">
<path fill="none" stroke="#63b8ff" d="M818.35,-189.68C955.99,-177.55 1285.18,-148.44 1351.74,-140.5"/>
<polygon fill="#63b8ff" stroke="#63b8ff" points="1352.17,-143.83 1361.59,-138.99 1351.2,-136.9 1352.17,-143.83"/>
</a>
</g>
</g>
<!-- Node36&#45;&gt;Node34 -->
<g id="edge64_Node000036_Node000034" class="edge">
<title>Node36&#45;&gt;Node34</title>
<g id="a_edge64_Node000036_Node000034"><a xlink:title=" ">
<path fill="none" stroke="#63b8ff" d="M1466.87,-184.06C1452.29,-174.05 1430.48,-159.09 1413.62,-147.52"/>
<polygon fill="#63b8ff" stroke="#63b8ff" points="1416.07,-144.27 1405.84,-141.5 1412.11,-150.04 1416.07,-144.27"/>
</a>
</g>
</g>
<!-- Node37 -->
<g id="Node000037" class="node">
<title>Node37</title>
<g id="a_Node000037"><a xlink:title=" ">
<polygon fill="#e0e0e0" stroke="#999999" points="1703.82,-141 1645.82,-141 1645.82,-118 1703.82,-118 1703.82,-141"/>
<text text-anchor="middle" x="1674.82" y="-127.5" font-family="Helvetica,sans-Serif" font-size="10.00">functional</text>
</a>
</g>
</g>
<!-- Node36&#45;&gt;Node37 -->
<g id="edge63_Node000036_Node000037" class="edge">
<title>Node36&#45;&gt;Node37</title>
<g id="a_edge63_Node000036_Node000037"><a xlink:title=" ">
<path fill="none" stroke="#63b8ff" d="M1515.39,-184.06C1548.59,-172.9 1600.13,-155.59 1635.56,-143.69"/>
<polygon fill="#63b8ff" stroke="#63b8ff" points="1636.19,-146.83 1644.56,-140.33 1633.96,-140.2 1636.19,-146.83"/>
</a>
</g>
</g>
</g>
</svg>
