<?xml version="1.0" encoding="UTF-8" standalone="no"?>
<!DOCTYPE svg PUBLIC "-//W3C//DTD SVG 1.1//EN"
 "http://www.w3.org/Graphics/SVG/1.1/DTD/svg11.dtd">
<!-- Generated by graphviz version 8.1.0 (20230707.0739)
 -->
<!-- Title: src/main.cpp Pages: 1 -->
<!--zoomable 297 -->

<svg id="main" version="1.1" xmlns="http://www.w3.org/2000/svg" xmlns:xlink="http://www.w3.org/1999/xlink" xml:space="preserve" onload="init(evt)">
<style type="text/css"><![CDATA[
.node, .edge {opacity: 0.7;}
.node.selected, .edge.selected {opacity: 1;}
.edge:hover path { stroke: red; }
.edge:hover polygon { stroke: red; fill: red; }
]]></style>

<defs>
  <circle id="rim" cx="0" cy="0" r="7"/>
  <circle id="rim2" cx="0" cy="0" r="3.5"/>
  <g id="zoomPlus">
    <use xlink:href="#rim" fill="#404040"><set attributeName="fill" to="#808080" begin="zoomplus.mouseover" end="zoomplus.mouseout"/></use>
    <path d="M-4,0h8M0,-4v8" fill="none" stroke="white" stroke-width="1.5" pointer-events="none"/>
  </g>
  <g id="zoomMin">
    <use xlink:href="#rim" fill="#404040"><set attributeName="fill" to="#808080" begin="zoomminus.mouseover" end="zoomminus.mouseout"/></use>
    <path d="M-4,0h8" fill="none" stroke="white" stroke-width="1.5" pointer-events="none"/>
  </g>
  <g id="arrowUp" transform="translate(30 24)">
    <use xlink:href="#rim"/>
    <path pointer-events="none" fill="none" stroke="white" stroke-width="1.5" d="M0,-3.0v7 M-2.5,-0.5L0,-3.0L2.5,-0.5"/>
  </g>
  <g id="arrowRight" transform="rotate(90) translate(36 -43)">
    <use xlink:href="#rim"/>
    <path pointer-events="none" fill="none" stroke="white" stroke-width="1.5" d="M0,-3.0v7 M-2.5,-0.5L0,-3.0L2.5,-0.5"/>
  </g>
  <g id="arrowDown" transform="rotate(180) translate(-30 -48)">
    <use xlink:href="#rim"/>
    <path pointer-events="none" fill="none" stroke="white" stroke-width="1.5" d="M0,-3.0v7 M-2.5,-0.5L0,-3.0L2.5,-0.5"/>
  </g>
  <g id="arrowLeft" transform="rotate(270) translate(-36 17)">
    <use xlink:href="#rim"/>
    <path pointer-events="none" fill="none" stroke="white" stroke-width="1.5" d="M0,-3.0v7 M-2.5,-0.5L0,-3.0L2.5,-0.5"/>
  </g>
  <g id="resetDef">
    <use xlink:href="#rim2" fill="#404040"><set attributeName="fill" to="#808080" begin="reset.mouseover" end="reset.mouseout"/></use>
  </g>
</defs>
<script type="application/ecmascript">
var viewWidth = 1713;
var viewHeight = 297;
var sectionId = 'dynsection-0';
</script>
<script type="application/ecmascript" xlink:href="svg.min.js"/>
<svg id="graph" class="graph">
<g id="viewport">
<title>src/main.cpp</title>
<!-- Node1 -->
<g id="Node000001" class="node">
<title>Node1</title>
<g id="a_Node000001"><a xlink:title=" ">
<polygon fill="#999999" stroke="#666666" points="1056.07,-289 983.82,-289 983.82,-266 1056.07,-266 1056.07,-289"/>
<text text-anchor="middle" x="1019.94" y="-275.5" font-family="Helvetica,sans-Serif" font-size="10.00">src/main.cpp</text>
</a>
</g>
</g>
<!-- Node2 -->
<g id="Node000002" class="node">
<title>Node2</title>
<g id="a_Node000002"><a xlink:href="options_8hpp.html" target="_top" xlink:title=" ">
<polygon fill="white" stroke="#666666" points="1063.94,-222.5 975.94,-222.5 975.94,-199.5 1063.94,-199.5 1063.94,-222.5"/>
<text text-anchor="middle" x="1019.94" y="-209" font-family="Helvetica,sans-Serif" font-size="10.00">args/options.hpp</text>
</a>
</g>
</g>
<!-- Node1&#45;&gt;Node2 -->
<g id="edge1_Node000001_Node000002" class="edge">
<title>Node1&#45;&gt;Node2</title>
<g id="a_edge1_Node000001_Node000002"><a xlink:title=" ">
<path fill="none" stroke="#63b8ff" d="M1019.94,-265.56C1019.94,-256.8 1019.94,-244.23 1019.94,-233.48"/>
<polygon fill="#63b8ff" stroke="#63b8ff" points="1023.44,-233.78 1019.94,-223.78 1016.44,-233.78 1023.44,-233.78"/>
</a>
</g>
</g>
<!-- Node12 -->
<g id="Node000012" class="node">
<title>Node12</title>
<g id="a_Node000012"><a xlink:href="bulk__translator_8hpp.html" target="_top" xlink:title=" ">
<polygon fill="white" stroke="#666666" points="278.19,-230 185.69,-230 185.69,-192 278.19,-192 278.19,-230"/>
<text text-anchor="start" x="193.69" y="-216.5" font-family="Helvetica,sans-Serif" font-size="10.00">bulk/provider/bulk</text>
<text text-anchor="middle" x="231.94" y="-201.5" font-family="Helvetica,sans-Serif" font-size="10.00">_translator.hpp</text>
</a>
</g>
</g>
<!-- Node1&#45;&gt;Node12 -->
<g id="edge11_Node000001_Node000012" class="edge">
<title>Node1&#45;&gt;Node12</title>
<g id="a_edge11_Node000001_Node000012"><a xlink:title=" ">
<path fill="none" stroke="#63b8ff" d="M983.52,-273.52C857.89,-263.24 442.07,-229.2 289.08,-216.68"/>
<polygon fill="#63b8ff" stroke="#63b8ff" points="289.78,-213.14 279.53,-215.81 289.21,-220.12 289.78,-213.14"/>
</a>
</g>
</g>
<!-- Node27 -->
<g id="Node000027" class="node">
<title>Node27</title>
<g id="a_Node000027"><a xlink:href="console__parser_8hpp.html" target="_top" xlink:title=" ">
<polygon fill="white" stroke="#666666" points="680.44,-230 571.44,-230 571.44,-192 680.44,-192 680.44,-230"/>
<text text-anchor="start" x="579.44" y="-216.5" font-family="Helvetica,sans-Serif" font-size="10.00">cmd/provider/console</text>
<text text-anchor="middle" x="625.94" y="-201.5" font-family="Helvetica,sans-Serif" font-size="10.00">_parser.hpp</text>
</a>
</g>
</g>
<!-- Node1&#45;&gt;Node27 -->
<g id="edge34_Node000001_Node000027" class="edge">
<title>Node1&#45;&gt;Node27</title>
<g id="a_edge34_Node000001_Node000027"><a xlink:title=" ">
<path fill="none" stroke="#63b8ff" d="M983.53,-272.98C924.27,-266.91 803.16,-253.06 691.1,-230.08"/>
<polygon fill="#63b8ff" stroke="#63b8ff" points="692.14,-226.51 681.64,-227.9 690.71,-233.37 692.14,-226.51"/>
</a>
</g>
</g>
<!-- Node30 -->
<g id="Node000030" class="node">
<title>Node30</title>
<g id="a_Node000030"><a xlink:href="redirection_8hpp.html" target="_top" xlink:title=" ">
<polygon fill="white" stroke="#666666" points="1427.07,-222.5 1336.82,-222.5 1336.82,-199.5 1427.07,-199.5 1427.07,-222.5"/>
<text text-anchor="middle" x="1381.94" y="-209" font-family="Helvetica,sans-Serif" font-size="10.00">io/redirection.hpp</text>
</a>
</g>
</g>
<!-- Node1&#45;&gt;Node30 -->
<g id="edge42_Node000001_Node000030" class="edge">
<title>Node1&#45;&gt;Node30</title>
<g id="a_edge42_Node000001_Node000030"><a xlink:title=" ">
<path fill="none" stroke="#63b8ff" d="M1056.31,-270.02C1119.71,-258.72 1250.86,-235.36 1325.94,-221.98"/>
<polygon fill="#63b8ff" stroke="#63b8ff" points="1326.36,-225.28 1335.59,-220.08 1325.13,-218.39 1326.36,-225.28"/>
</a>
</g>
</g>
<!-- Node33 -->
<g id="Node000033" class="node">
<title>Node33</title>
<g id="a_Node000033"><a xlink:href="file__writer_8hpp.html" target="_top" xlink:title=" ">
<polygon fill="white" stroke="#666666" points="1186.82,-222.5 1089.07,-222.5 1089.07,-199.5 1186.82,-199.5 1186.82,-222.5"/>
<text text-anchor="middle" x="1137.94" y="-209" font-family="Helvetica,sans-Serif" font-size="10.00">logs/file_writer.hpp</text>
</a>
</g>
</g>
<!-- Node1&#45;&gt;Node33 -->
<g id="edge49_Node000001_Node000033" class="edge">
<title>Node1&#45;&gt;Node33</title>
<g id="a_edge49_Node000001_Node000033"><a xlink:title=" ">
<path fill="none" stroke="#63b8ff" d="M1039.96,-265.56C1058.69,-255.32 1086.91,-239.89 1108.27,-228.22"/>
<polygon fill="#63b8ff" stroke="#63b8ff" points="1109.73,-230.86 1116.83,-223 1106.37,-224.72 1109.73,-230.86"/>
</a>
</g>
</g>
<!-- Node35 -->
<g id="Node000035" class="node">
<title>Node35</title>
<g id="a_Node000035"><a xlink:href="ostream__writer_8hpp.html" target="_top" xlink:title=" ">
<polygon fill="white" stroke="#666666" points="819.07,-222.5 698.82,-222.5 698.82,-199.5 819.07,-199.5 819.07,-222.5"/>
<text text-anchor="middle" x="758.94" y="-209" font-family="Helvetica,sans-Serif" font-size="10.00">logs/ostream_writer.hpp</text>
</a>
</g>
</g>
<!-- Node1&#45;&gt;Node35 -->
<g id="edge56_Node000001_Node000035" class="edge">
<title>Node1&#45;&gt;Node35</title>
<g id="a_edge56_Node000001_Node000035"><a xlink:title=" ">
<path fill="none" stroke="#63b8ff" d="M983.38,-267.46C939.24,-256.56 864.6,-238.11 813.61,-225.51"/>
<polygon fill="#63b8ff" stroke="#63b8ff" points="814.66,-221.92 804.11,-222.91 812.98,-228.71 814.66,-221.92"/>
</a>
</g>
</g>
<!-- Node36 -->
<g id="Node000036" class="node">
<title>Node36</title>
<g id="a_Node000036"><a xlink:href="defer_8hpp.html" target="_top" xlink:title=" ">
<polygon fill="white" stroke="#666666" points="1522.69,-222.5 1445.19,-222.5 1445.19,-199.5 1522.69,-199.5 1522.69,-222.5"/>
<text text-anchor="middle" x="1483.94" y="-209" font-family="Helvetica,sans-Serif" font-size="10.00">utils/defer.hpp</text>
</a>
</g>
</g>
<!-- Node1&#45;&gt;Node36 -->
<g id="edge62_Node000001_Node000036" class="edge">
<title>Node1&#45;&gt;Node36</title>
<g id="a_edge62_Node000001_Node000036"><a xlink:title=" ">
<path fill="none" stroke="#63b8ff" d="M1056.35,-275.45C1129.33,-272.68 1298.31,-262.96 1435.94,-230 1440.01,-229.03 1444.21,-227.8 1448.35,-226.45"/>
<polygon fill="#63b8ff" stroke="#63b8ff" points="1449.13,-229.53 1457.4,-222.91 1446.81,-222.93 1449.13,-229.53"/>
</a>
</g>
</g>
<!-- Node3 -->
<g id="Node000003" class="node">
<title>Node3</title>
<g id="a_Node000003"><a xlink:href="version_8h.html" target="_top" xlink:title=" ">
<polygon fill="white" stroke="#666666" points="1240.19,-148.5 1165.69,-148.5 1165.69,-125.5 1240.19,-125.5 1240.19,-148.5"/>
<text text-anchor="middle" x="1202.94" y="-135" font-family="Helvetica,sans-Serif" font-size="10.00">info/version.h</text>
</a>
</g>
</g>
<!-- Node2&#45;&gt;Node3 -->
<g id="edge2_Node000002_Node000003" class="edge">
<title>Node2&#45;&gt;Node3</title>
<g id="a_edge2_Node000002_Node000003"><a xlink:title=" ">
<path fill="none" stroke="#63b8ff" d="M1047.74,-199.06C1079.13,-186.71 1130.4,-166.54 1165.35,-152.79"/>
<polygon fill="#63b8ff" stroke="#63b8ff" points="1166.16,-155.84 1174.19,-148.92 1163.6,-149.32 1166.16,-155.84"/>
</a>
</g>
</g>
<!-- Node6 -->
<g id="Node000006" class="node">
<title>Node6</title>
<g id="a_Node000006"><a xlink:title=" ">
<polygon fill="#e0e0e0" stroke="#999999" points="991.82,-148.5 858.07,-148.5 858.07,-125.5 991.82,-125.5 991.82,-148.5"/>
<text text-anchor="middle" x="924.94" y="-135" font-family="Helvetica,sans-Serif" font-size="10.00">boost/program_options.hpp</text>
</a>
</g>
</g>
<!-- Node2&#45;&gt;Node6 -->
<g id="edge5_Node000002_Node000006" class="edge">
<title>Node2&#45;&gt;Node6</title>
<g id="a_edge5_Node000002_Node000006"><a xlink:title=" ">
<path fill="none" stroke="#63b8ff" d="M1005.51,-199.06C990.22,-187.47 965.85,-169 947.91,-155.41"/>
<polygon fill="#63b8ff" stroke="#63b8ff" points="950.28,-152.05 940.2,-148.8 946.05,-157.63 950.28,-152.05"/>
</a>
</g>
</g>
<!-- Node7 -->
<g id="Node000007" class="node">
<title>Node7</title>
<g id="a_Node000007"><a xlink:title=" ">
<polygon fill="#e0e0e0" stroke="#999999" points="1109.44,-148.5 1048.44,-148.5 1048.44,-125.5 1109.44,-125.5 1109.44,-148.5"/>
<text text-anchor="middle" x="1078.94" y="-135" font-family="Helvetica,sans-Serif" font-size="10.00">filesystem</text>
</a>
</g>
</g>
<!-- Node2&#45;&gt;Node7 -->
<g id="edge6_Node000002_Node000007" class="edge">
<title>Node2&#45;&gt;Node7</title>
<g id="a_edge6_Node000002_Node000007"><a xlink:title=" ">
<path fill="none" stroke="#63b8ff" d="M1028.9,-199.06C1038.02,-187.94 1052.33,-170.48 1063.31,-157.07"/>
<polygon fill="#63b8ff" stroke="#63b8ff" points="1066.65,-159.52 1070.28,-149.57 1061.24,-155.08 1066.65,-159.52"/>
</a>
</g>
</g>
<!-- Node8 -->
<g id="Node000008" class="node">
<title>Node8</title>
<g id="a_Node000008"><a xlink:title=" ">
<polygon fill="#e0e0e0" stroke="#999999" points="1345.44,-148.5 1296.44,-148.5 1296.44,-125.5 1345.44,-125.5 1345.44,-148.5"/>
<text text-anchor="middle" x="1320.94" y="-135" font-family="Helvetica,sans-Serif" font-size="10.00">fstream</text>
</a>
</g>
</g>
<!-- Node2&#45;&gt;Node8 -->
<g id="edge7_Node000002_Node000008" class="edge">
<title>Node2&#45;&gt;Node8</title>
<g id="a_edge7_Node000002_Node000008"><a xlink:title=" ">
<path fill="none" stroke="#63b8ff" d="M1054.71,-199.05C1062.95,-196.6 1071.73,-194.1 1079.94,-192 1154.34,-172.95 1174.12,-173.32 1248.94,-156 1260.83,-153.25 1273.78,-150.07 1285.38,-147.15"/>
<polygon fill="#63b8ff" stroke="#63b8ff" points="1286.17,-150.31 1295,-144.46 1284.45,-143.53 1286.17,-150.31"/>
</a>
</g>
</g>
<!-- Node9 -->
<g id="Node000009" class="node">
<title>Node9</title>
<g id="a_Node000009"><a xlink:title=" ">
<polygon fill="#e0e0e0" stroke="#999999" points="785.69,-148.5 732.19,-148.5 732.19,-125.5 785.69,-125.5 785.69,-148.5"/>
<text text-anchor="middle" x="758.94" y="-135" font-family="Helvetica,sans-Serif" font-size="10.00">iostream</text>
</a>
</g>
</g>
<!-- Node2&#45;&gt;Node9 -->
<g id="edge8_Node000002_Node000009" class="edge">
<title>Node2&#45;&gt;Node9</title>
<g id="a_edge8_Node000002_Node000009"><a xlink:title=" ">
<path fill="none" stroke="#63b8ff" d="M975.52,-202.44C929.49,-193.9 855.9,-178.22 794.94,-156 792.84,-155.23 790.7,-154.38 788.56,-153.46"/>
<polygon fill="#63b8ff" stroke="#63b8ff" points="790.31,-149.95 779.77,-148.92 787.37,-156.3 790.31,-149.95"/>
</a>
</g>
</g>
<!-- Node10 -->
<g id="Node000010" class="node">
<title>Node10</title>
<g id="a_Node000010"><a xlink:title=" ">
<polygon fill="#e0e0e0" stroke="#999999" points="772.94,-23 732.94,-23 732.94,0 772.94,0 772.94,-23"/>
<text text-anchor="middle" x="752.94" y="-9.5" font-family="Helvetica,sans-Serif" font-size="10.00">string</text>
</a>
</g>
</g>
<!-- Node2&#45;&gt;Node10 -->
<g id="edge9_Node000002_Node000010" class="edge">
<title>Node2&#45;&gt;Node10</title>
<g id="a_edge9_Node000002_Node000010"><a xlink:title=" ">
<path fill="none" stroke="#63b8ff" d="M1020.73,-199.29C1021.52,-180.63 1020.47,-141.85 1000.94,-118 945.16,-49.87 837.37,-24.9 784.18,-16.44"/>
<polygon fill="#63b8ff" stroke="#63b8ff" points="784.81,-12.85 774.4,-14.84 783.78,-19.77 784.81,-12.85"/>
</a>
</g>
</g>
<!-- Node11 -->
<g id="Node000011" class="node">
<title>Node11</title>
<g id="a_Node000011"><a xlink:title=" ">
<polygon fill="#e0e0e0" stroke="#999999" points="840.44,-148.5 803.44,-148.5 803.44,-125.5 840.44,-125.5 840.44,-148.5"/>
<text text-anchor="middle" x="821.94" y="-135" font-family="Helvetica,sans-Serif" font-size="10.00">tuple</text>
</a>
</g>
</g>
<!-- Node2&#45;&gt;Node11 -->
<g id="edge10_Node000002_Node000011" class="edge">
<title>Node2&#45;&gt;Node11</title>
<g id="a_edge10_Node000002_Node000011"><a xlink:title=" ">
<path fill="none" stroke="#63b8ff" d="M975.79,-199.73C940.47,-190.65 890.21,-175.78 848.94,-156 847.9,-155.5 846.85,-154.97 845.81,-154.4"/>
<polygon fill="#63b8ff" stroke="#63b8ff" points="848.01,-151.04 837.63,-148.88 844.39,-157.04 848.01,-151.04"/>
</a>
</g>
</g>
<!-- Node4 -->
<g id="Node000004" class="node">
<title>Node4</title>
<g id="a_Node000004"><a xlink:title=" ">
<polygon fill="#e0e0e0" stroke="#999999" points="1136.69,-82 1071.19,-82 1071.19,-59 1136.69,-59 1136.69,-82"/>
<text text-anchor="middle" x="1103.94" y="-68.5" font-family="Helvetica,sans-Serif" font-size="10.00">string_view</text>
</a>
</g>
</g>
<!-- Node3&#45;&gt;Node4 -->
<g id="edge3_Node000003_Node000004" class="edge">
<title>Node3&#45;&gt;Node4</title>
<g id="a_edge3_Node000003_Node000004"><a xlink:title=" ">
<path fill="none" stroke="#63b8ff" d="M1186.15,-125.06C1170.65,-114.96 1147.4,-99.81 1129.58,-88.2"/>
<polygon fill="#63b8ff" stroke="#63b8ff" points="1132.11,-85.02 1121.82,-82.5 1128.29,-90.89 1132.11,-85.02"/>
</a>
</g>
</g>
<!-- Node5 -->
<g id="Node000005" class="node">
<title>Node5</title>
<g id="a_Node000005"><a xlink:href="config_8h.html" target="_top" xlink:title=" ">
<polygon fill="white" stroke="#666666" points="1228.19,-82 1177.69,-82 1177.69,-59 1228.19,-59 1228.19,-82"/>
<text text-anchor="middle" x="1202.94" y="-68.5" font-family="Helvetica,sans-Serif" font-size="10.00">config.h</text>
</a>
</g>
</g>
<!-- Node3&#45;&gt;Node5 -->
<g id="edge4_Node000003_Node000005" class="edge">
<title>Node3&#45;&gt;Node5</title>
<g id="a_edge4_Node000003_Node000005"><a xlink:title=" ">
<path fill="none" stroke="#63b8ff" d="M1202.94,-125.06C1202.94,-116.3 1202.94,-103.73 1202.94,-92.98"/>
<polygon fill="#63b8ff" stroke="#63b8ff" points="1206.44,-93.28 1202.94,-83.28 1199.44,-93.28 1206.44,-93.28"/>
</a>
</g>
</g>
<!-- Node13 -->
<g id="Node000013" class="node">
<title>Node13</title>
<g id="a_Node000013"><a xlink:title=" ">
<polygon fill="#e0e0e0" stroke="#999999" points="80.82,-148.5 19.07,-148.5 19.07,-125.5 80.82,-125.5 80.82,-148.5"/>
<text text-anchor="middle" x="49.94" y="-135" font-family="Helvetica,sans-Serif" font-size="10.00">type_traits</text>
</a>
</g>
</g>
<!-- Node12&#45;&gt;Node13 -->
<g id="edge12_Node000012_Node000013" class="edge">
<title>Node12&#45;&gt;Node13</title>
<g id="a_edge12_Node000012_Node000013"><a xlink:title=" ">
<path fill="none" stroke="#63b8ff" d="M185.31,-191.69C158.81,-181.26 125,-167.94 94.94,-156 92.41,-154.99 89.8,-153.96 87.17,-152.91"/>
<polygon fill="#63b8ff" stroke="#63b8ff" points="88.65,-149.33 78.06,-148.87 86.05,-155.83 88.65,-149.33"/>
</a>
</g>
</g>
<!-- Node14 -->
<g id="Node000014" class="node">
<title>Node14</title>
<g id="a_Node000014"><a xlink:title=" ">
<polygon fill="#e0e0e0" stroke="#999999" points="324.19,-23 279.69,-23 279.69,0 324.19,0 324.19,-23"/>
<text text-anchor="middle" x="301.94" y="-9.5" font-family="Helvetica,sans-Serif" font-size="10.00">variant</text>
</a>
</g>
</g>
<!-- Node12&#45;&gt;Node14 -->
<g id="edge13_Node000012_Node000014" class="edge">
<title>Node12&#45;&gt;Node14</title>
<g id="a_edge13_Node000012_Node000014"><a xlink:title=" ">
<path fill="none" stroke="#63b8ff" d="M191.43,-191.68C177.23,-183.03 162.85,-171.21 154.94,-156 147.15,-141.02 148.83,-133.74 154.94,-118 174.23,-68.35 232.46,-38.19 269.58,-23.48"/>
<polygon fill="#63b8ff" stroke="#63b8ff" points="270.33,-26.56 278.44,-19.74 267.85,-20.01 270.33,-26.56"/>
</a>
</g>
</g>
<!-- Node15 -->
<g id="Node000015" class="node">
<title>Node15</title>
<g id="a_Node000015"><a xlink:title=" ">
<polygon fill="#e0e0e0" stroke="#999999" points="451.07,-82 408.82,-82 408.82,-59 451.07,-59 451.07,-82"/>
<text text-anchor="middle" x="429.94" y="-68.5" font-family="Helvetica,sans-Serif" font-size="10.00">vector</text>
</a>
</g>
</g>
<!-- Node12&#45;&gt;Node15 -->
<g id="edge14_Node000012_Node000015" class="edge">
<title>Node12&#45;&gt;Node15</title>
<g id="a_edge14_Node000012_Node000015"><a xlink:title=" ">
<path fill="none" stroke="#63b8ff" d="M198.83,-191.7C186.08,-182.76 172.92,-170.72 165.94,-156 158.71,-140.74 154.95,-130.82 165.94,-118 198.33,-80.25 332.98,-93.09 397.92,-81.77"/>
<polygon fill="#63b8ff" stroke="#63b8ff" points="398.39,-85.04 407.46,-79.55 396.95,-78.19 398.39,-85.04"/>
</a>
</g>
</g>
<!-- Node16 -->
<g id="Node000016" class="node">
<title>Node16</title>
<g id="a_Node000016"><a xlink:href="token__event_8hpp.html" target="_top" xlink:title=" ">
<polygon fill="white" stroke="#666666" points="471.07,-148.5 344.82,-148.5 344.82,-125.5 471.07,-125.5 471.07,-148.5"/>
<text text-anchor="middle" x="407.94" y="-135" font-family="Helvetica,sans-Serif" font-size="10.00">../../cmd/token_event.hpp</text>
</a>
</g>
</g>
<!-- Node12&#45;&gt;Node16 -->
<g id="edge15_Node000012_Node000016" class="edge">
<title>Node12&#45;&gt;Node16</title>
<g id="a_edge15_Node000012_Node000016"><a xlink:title=" ">
<path fill="none" stroke="#63b8ff" d="M276.81,-191.65C306.07,-179.68 343.78,-164.25 371.25,-153.01"/>
<polygon fill="#63b8ff" stroke="#63b8ff" points="372.3,-155.95 380.23,-148.93 369.65,-149.47 372.3,-155.95"/>
</a>
</g>
</g>
<!-- Node20 -->
<g id="Node000020" class="node">
<title>Node20</title>
<g id="a_Node000020"><a xlink:href="overload_8hpp.html" target="_top" xlink:title=" ">
<polygon fill="white" stroke="#666666" points="156.32,-23 55.57,-23 55.57,0 156.32,0 156.32,-23"/>
<text text-anchor="middle" x="105.94" y="-9.5" font-family="Helvetica,sans-Serif" font-size="10.00">../utils/overload.hpp</text>
</a>
</g>
</g>
<!-- Node12&#45;&gt;Node20 -->
<g id="edge28_Node000012_Node000020" class="edge">
<title>Node12&#45;&gt;Node20</title>
<g id="a_edge28_Node000012_Node000020"><a xlink:title=" ">
<path fill="none" stroke="#63b8ff" d="M185.27,-205.34C126.71,-198.42 31.33,-183.21 9.94,-156 -24.35,-112.36 41.18,-56.78 80.08,-29.36"/>
<polygon fill="#63b8ff" stroke="#63b8ff" points="81.6,-31.88 87.85,-23.33 77.63,-26.11 81.6,-31.88"/>
</a>
</g>
</g>
<!-- Node21 -->
<g id="Node000021" class="node">
<title>Node21</title>
<g id="a_Node000021"><a xlink:href="publisher_8hpp.html" target="_top" xlink:title=" ">
<polygon fill="white" stroke="#666666" points="288.69,-148.5 175.19,-148.5 175.19,-125.5 288.69,-125.5 288.69,-148.5"/>
<text text-anchor="middle" x="231.94" y="-135" font-family="Helvetica,sans-Serif" font-size="10.00">../../core/publisher.hpp</text>
</a>
</g>
</g>
<!-- Node12&#45;&gt;Node21 -->
<g id="edge22_Node000012_Node000021" class="edge">
<title>Node12&#45;&gt;Node21</title>
<g id="a_edge22_Node000012_Node000021"><a xlink:title=" ">
<path fill="none" stroke="#63b8ff" d="M231.94,-191.83C231.94,-182.13 231.94,-170.12 231.94,-159.9"/>
<polygon fill="#63b8ff" stroke="#63b8ff" points="235.44,-159.98 231.94,-149.98 228.44,-159.98 235.44,-159.98"/>
</a>
</g>
</g>
<!-- Node23 -->
<g id="Node000023" class="node">
<title>Node23</title>
<g id="a_Node000023"><a xlink:href="subscriber_8hpp.html" target="_top" xlink:title=" ">
<polygon fill="white" stroke="#666666" points="650.82,-82 571.07,-82 571.07,-59 650.82,-59 650.82,-82"/>
<text text-anchor="middle" x="610.94" y="-68.5" font-family="Helvetica,sans-Serif" font-size="10.00">subscriber.hpp</text>
</a>
</g>
</g>
<!-- Node12&#45;&gt;Node23 -->
<g id="edge27_Node000012_Node000023" class="edge">
<title>Node12&#45;&gt;Node23</title>
<g id="a_edge27_Node000012_Node000023"><a xlink:title=" ">
<path fill="none" stroke="#63b8ff" d="M255.63,-191.56C268.42,-181.37 284.33,-168.32 297.94,-156 315.65,-139.97 314.67,-128.85 335.94,-118 423.54,-73.32 459.55,-98.83 560.02,-82.19"/>
<polygon fill="#63b8ff" stroke="#63b8ff" points="560.36,-85.51 569.6,-80.32 559.14,-78.61 560.36,-85.51"/>
</a>
</g>
</g>
<!-- Node25 -->
<g id="Node000025" class="node">
<title>Node25</title>
<g id="a_Node000025"><a xlink:href="bulk__event_8hpp.html" target="_top" xlink:title=" ">
<polygon fill="white" stroke="#666666" points="579.07,-148.5 488.82,-148.5 488.82,-125.5 579.07,-125.5 579.07,-148.5"/>
<text text-anchor="middle" x="533.94" y="-135" font-family="Helvetica,sans-Serif" font-size="10.00">../bulk_event.hpp</text>
</a>
</g>
</g>
<!-- Node12&#45;&gt;Node25 -->
<g id="edge29_Node000012_Node000025" class="edge">
<title>Node12&#45;&gt;Node25</title>
<g id="a_edge29_Node000012_Node000025"><a xlink:title=" ">
<path fill="none" stroke="#63b8ff" d="M278.47,-201.42C328.58,-191.82 410.47,-175.08 479.94,-156 484.06,-154.87 488.33,-153.61 492.57,-152.29"/>
<polygon fill="#63b8ff" stroke="#63b8ff" points="493.54,-155.34 501.99,-148.95 491.4,-148.67 493.54,-155.34"/>
</a>
</g>
</g>
<!-- Node17 -->
<g id="Node000017" class="node">
<title>Node17</title>
<g id="a_Node000017"><a xlink:href="token_8hpp.html" target="_top" xlink:title=" ">
<polygon fill="white" stroke="#666666" points="390.94,-82 332.94,-82 332.94,-59 390.94,-59 390.94,-82"/>
<text text-anchor="middle" x="361.94" y="-68.5" font-family="Helvetica,sans-Serif" font-size="10.00">token.hpp</text>
</a>
</g>
</g>
<!-- Node16&#45;&gt;Node17 -->
<g id="edge16_Node000016_Node000017" class="edge">
<title>Node16&#45;&gt;Node17</title>
<g id="a_edge16_Node000016_Node000017"><a xlink:title=" ">
<path fill="none" stroke="#63b8ff" d="M400.14,-125.06C393.49,-115.74 383.78,-102.11 375.81,-90.94"/>
<polygon fill="#63b8ff" stroke="#63b8ff" points="378.29,-89.39 369.63,-83.28 372.59,-93.45 378.29,-89.39"/>
</a>
</g>
</g>
<!-- Node17&#45;&gt;Node10 -->
<g id="edge19_Node000017_Node000010" class="edge">
<title>Node17&#45;&gt;Node10</title>
<g id="a_edge19_Node000017_Node000010"><a xlink:title=" ">
<path fill="none" stroke="#63b8ff" d="M391.3,-60.95C394.21,-60.24 397.13,-59.57 399.94,-59 461.47,-46.51 647.61,-24.56 721.87,-16.03"/>
<polygon fill="#63b8ff" stroke="#63b8ff" points="722.25,-19.4 731.79,-14.78 721.46,-12.44 722.25,-19.4"/>
</a>
</g>
</g>
<!-- Node17&#45;&gt;Node14 -->
<g id="edge20_Node000017_Node000014" class="edge">
<title>Node17&#45;&gt;Node14</title>
<g id="a_edge20_Node000017_Node000014"><a xlink:title=" ">
<path fill="none" stroke="#63b8ff" d="M350.37,-58.51C342.16,-50.7 330.93,-40.03 321.35,-30.94"/>
<polygon fill="#63b8ff" stroke="#63b8ff" points="324.14,-28.81 314.48,-24.46 319.32,-33.88 324.14,-28.81"/>
</a>
</g>
</g>
<!-- Node18 -->
<g id="Node000018" class="node">
<title>Node18</title>
<g id="a_Node000018"><a xlink:title=" ">
<polygon fill="#e0e0e0" stroke="#999999" points="1063.82,-23 1020.07,-23 1020.07,0 1063.82,0 1063.82,-23"/>
<text text-anchor="middle" x="1041.94" y="-9.5" font-family="Helvetica,sans-Serif" font-size="10.00">format</text>
</a>
</g>
</g>
<!-- Node17&#45;&gt;Node18 -->
<g id="edge17_Node000017_Node000018" class="edge">
<title>Node17&#45;&gt;Node18</title>
<g id="a_edge17_Node000017_Node000018"><a xlink:title=" ">
<path fill="none" stroke="#63b8ff" d="M391.27,-60.78C394.18,-60.1 397.11,-59.49 399.94,-59 519.05,-38.44 895.27,-19.42 1009.04,-14.02"/>
<polygon fill="#63b8ff" stroke="#63b8ff" points="1008.99,-17.48 1018.81,-13.52 1008.66,-10.49 1008.99,-17.48"/>
</a>
</g>
</g>
<!-- Node19 -->
<g id="Node000019" class="node">
<title>Node19</title>
<g id="a_Node000019"><a xlink:title=" ">
<polygon fill="#e0e0e0" stroke="#999999" points="445.57,-23 394.32,-23 394.32,0 445.57,0 445.57,-23"/>
<text text-anchor="middle" x="419.94" y="-9.5" font-family="Helvetica,sans-Serif" font-size="10.00">ostream</text>
</a>
</g>
</g>
<!-- Node17&#45;&gt;Node19 -->
<g id="edge18_Node000017_Node000019" class="edge">
<title>Node17&#45;&gt;Node19</title>
<g id="a_edge18_Node000017_Node000019"><a xlink:title=" ">
<path fill="none" stroke="#63b8ff" d="M373.13,-58.51C381.07,-50.7 391.93,-40.03 401.18,-30.94"/>
<polygon fill="#63b8ff" stroke="#63b8ff" points="403.12,-33.96 407.79,-24.46 398.21,-28.97 403.12,-33.96"/>
</a>
</g>
</g>
<!-- Node17&#45;&gt;Node20 -->
<g id="edge21_Node000017_Node000020" class="edge">
<title>Node17&#45;&gt;Node20</title>
<g id="a_edge21_Node000017_Node000020"><a xlink:title=" ">
<path fill="none" stroke="#63b8ff" d="M332.58,-62.96C292.03,-53.93 217.98,-37.45 165.57,-25.78"/>
<polygon fill="#63b8ff" stroke="#63b8ff" points="166.59,-22.19 156.07,-23.44 165.07,-29.03 166.59,-22.19"/>
</a>
</g>
</g>
<!-- Node22 -->
<g id="Node000022" class="node">
<title>Node22</title>
<g id="a_Node000022"><a xlink:title=" ">
<polygon fill="#e0e0e0" stroke="#999999" points="246.34,-82 217.54,-82 217.54,-59 246.34,-59 246.34,-82"/>
<text text-anchor="middle" x="231.94" y="-68.5" font-family="Helvetica,sans-Serif" font-size="10.00">list</text>
</a>
</g>
</g>
<!-- Node21&#45;&gt;Node22 -->
<g id="edge23_Node000021_Node000022" class="edge">
<title>Node21&#45;&gt;Node22</title>
<g id="a_edge23_Node000021_Node000022"><a xlink:title=" ">
<path fill="none" stroke="#63b8ff" d="M231.94,-125.06C231.94,-116.3 231.94,-103.73 231.94,-92.98"/>
<polygon fill="#63b8ff" stroke="#63b8ff" points="235.44,-93.28 231.94,-83.28 228.44,-93.28 235.44,-93.28"/>
</a>
</g>
</g>
<!-- Node21&#45;&gt;Node23 -->
<g id="edge24_Node000021_Node000023" class="edge">
<title>Node21&#45;&gt;Node23</title>
<g id="a_edge24_Node000021_Node000023"><a xlink:title=" ">
<path fill="none" stroke="#63b8ff" d="M271.95,-125.04C282.01,-122.51 292.83,-119.98 302.94,-118 413.66,-96.34 445.63,-101.83 560.03,-82.23"/>
<polygon fill="#63b8ff" stroke="#63b8ff" points="560.36,-85.55 569.61,-80.39 559.16,-78.65 560.36,-85.55"/>
</a>
</g>
</g>
<!-- Node23&#45;&gt;Node18 -->
<g id="edge25_Node000023_Node000018" class="edge">
<title>Node23&#45;&gt;Node18</title>
<g id="a_edge25_Node000023_Node000018"><a xlink:title=" ">
<path fill="none" stroke="#63b8ff" d="M651.26,-60.56C654.2,-60 657.11,-59.47 659.94,-59 788.56,-37.44 943.14,-21.72 1009.31,-15.47"/>
<polygon fill="#63b8ff" stroke="#63b8ff" points="1009.25,-18.9 1018.88,-14.48 1008.6,-11.93 1009.25,-18.9"/>
</a>
</g>
</g>
<!-- Node24 -->
<g id="Node000024" class="node">
<title>Node24</title>
<g id="a_Node000024"><a xlink:title=" ">
<polygon fill="#e0e0e0" stroke="#999999" points="636.19,-23 585.69,-23 585.69,0 636.19,0 636.19,-23"/>
<text text-anchor="middle" x="610.94" y="-9.5" font-family="Helvetica,sans-Serif" font-size="10.00">typeinfo</text>
</a>
</g>
</g>
<!-- Node23&#45;&gt;Node24 -->
<g id="edge26_Node000023_Node000024" class="edge">
<title>Node23&#45;&gt;Node24</title>
<g id="a_edge26_Node000023_Node000024"><a xlink:title=" ">
<path fill="none" stroke="#63b8ff" d="M610.94,-58.51C610.94,-51.65 610.94,-42.58 610.94,-34.31"/>
<polygon fill="#63b8ff" stroke="#63b8ff" points="614.44,-34.46 610.94,-24.46 607.44,-34.46 614.44,-34.46"/>
</a>
</g>
</g>
<!-- Node25&#45;&gt;Node4 -->
<g id="edge32_Node000025_Node000004" class="edge">
<title>Node25&#45;&gt;Node4</title>
<g id="a_edge32_Node000025_Node000004"><a xlink:title=" ">
<path fill="none" stroke="#63b8ff" d="M579.21,-126.35C594.34,-123.37 611.32,-120.27 626.94,-118 785.57,-94.97 975.58,-80.27 1059.91,-74.4"/>
<polygon fill="#63b8ff" stroke="#63b8ff" points="1060.12,-77.83 1069.85,-73.65 1059.63,-70.84 1060.12,-77.83"/>
</a>
</g>
</g>
<!-- Node25&#45;&gt;Node15 -->
<g id="edge33_Node000025_Node000015" class="edge">
<title>Node25&#45;&gt;Node15</title>
<g id="a_edge33_Node000025_Node000015"><a xlink:title=" ">
<path fill="none" stroke="#63b8ff" d="M516.3,-125.06C500.02,-114.96 475.59,-99.81 456.87,-88.2"/>
<polygon fill="#63b8ff" stroke="#63b8ff" points="459.02,-84.79 448.67,-82.5 455.33,-90.74 459.02,-84.79"/>
</a>
</g>
</g>
<!-- Node25&#45;&gt;Node19 -->
<g id="edge31_Node000025_Node000019" class="edge">
<title>Node25&#45;&gt;Node19</title>
<g id="a_edge31_Node000025_Node000019"><a xlink:title=" ">
<path fill="none" stroke="#63b8ff" d="M523.83,-125.04C504.34,-103.93 461.4,-57.41 437.28,-31.28"/>
<polygon fill="#63b8ff" stroke="#63b8ff" points="440.23,-29.23 430.87,-24.26 435.09,-33.98 440.23,-29.23"/>
</a>
</g>
</g>
<!-- Node26 -->
<g id="Node000026" class="node">
<title>Node26</title>
<g id="a_Node000026"><a xlink:title=" ">
<polygon fill="#e0e0e0" stroke="#999999" points="552.57,-82 507.32,-82 507.32,-59 552.57,-59 552.57,-82"/>
<text text-anchor="middle" x="529.94" y="-68.5" font-family="Helvetica,sans-Serif" font-size="10.00">chrono</text>
</a>
</g>
</g>
<!-- Node25&#45;&gt;Node26 -->
<g id="edge30_Node000025_Node000026" class="edge">
<title>Node25&#45;&gt;Node26</title>
<g id="a_edge30_Node000025_Node000026"><a xlink:title=" ">
<path fill="none" stroke="#63b8ff" d="M533.26,-125.06C532.72,-116.3 531.94,-103.73 531.28,-92.98"/>
<polygon fill="#63b8ff" stroke="#63b8ff" points="534.72,-93.04 530.61,-83.28 527.74,-93.48 534.72,-93.04"/>
</a>
</g>
</g>
<!-- Node27&#45;&gt;Node9 -->
<g id="edge35_Node000027_Node000009" class="edge">
<title>Node27&#45;&gt;Node9</title>
<g id="a_edge35_Node000027_Node000009"><a xlink:title=" ">
<path fill="none" stroke="#63b8ff" d="M659.85,-191.65C681.28,-180.04 708.71,-165.2 729.27,-154.06"/>
<polygon fill="#63b8ff" stroke="#63b8ff" points="730.63,-156.77 737.76,-148.93 727.3,-150.61 730.63,-156.77"/>
</a>
</g>
</g>
<!-- Node27&#45;&gt;Node16 -->
<g id="edge41_Node000027_Node000016" class="edge">
<title>Node27&#45;&gt;Node16</title>
<g id="a_edge41_Node000027_Node000016"><a xlink:title=" ">
<path fill="none" stroke="#63b8ff" d="M571.21,-191.92C534.07,-179.66 485.63,-163.66 451.18,-152.28"/>
<polygon fill="#63b8ff" stroke="#63b8ff" points="452.56,-148.72 441.97,-148.91 450.37,-155.37 452.56,-148.72"/>
</a>
</g>
</g>
<!-- Node27&#45;&gt;Node21 -->
<g id="edge36_Node000027_Node000021" class="edge">
<title>Node27&#45;&gt;Node21</title>
<g id="a_edge36_Node000027_Node000021"><a xlink:title=" ">
<path fill="none" stroke="#63b8ff" d="M571.16,-199.99C500.17,-187.02 376.44,-164.41 299.65,-150.37"/>
<polygon fill="#63b8ff" stroke="#63b8ff" points="300.6,-146.81 290.14,-148.45 299.34,-153.69 300.6,-146.81"/>
</a>
</g>
</g>
<!-- Node28 -->
<g id="Node000028" class="node">
<title>Node28</title>
<g id="a_Node000028"><a xlink:href="string__utils_8hpp.html" target="_top" xlink:title=" ">
<polygon fill="white" stroke="#666666" points="714.44,-156 635.44,-156 635.44,-118 714.44,-118 714.44,-156"/>
<text text-anchor="start" x="643.44" y="-142.5" font-family="Helvetica,sans-Serif" font-size="10.00">../../utils/string</text>
<text text-anchor="middle" x="674.94" y="-127.5" font-family="Helvetica,sans-Serif" font-size="10.00">_utils.hpp</text>
</a>
</g>
</g>
<!-- Node27&#45;&gt;Node28 -->
<g id="edge37_Node000027_Node000028" class="edge">
<title>Node27&#45;&gt;Node28</title>
<g id="a_edge37_Node000027_Node000028"><a xlink:title=" ">
<path fill="none" stroke="#63b8ff" d="M638.31,-191.83C643.78,-183.79 650.33,-174.17 656.37,-165.29"/>
<polygon fill="#63b8ff" stroke="#63b8ff" points="659.68,-167.65 662.41,-157.41 653.89,-163.71 659.68,-167.65"/>
</a>
</g>
</g>
<!-- Node28&#45;&gt;Node4 -->
<g id="edge40_Node000028_Node000004" class="edge">
<title>Node28&#45;&gt;Node4</title>
<g id="a_edge40_Node000028_Node000004"><a xlink:title=" ">
<path fill="none" stroke="#63b8ff" d="M714.79,-120.25C717.53,-119.42 720.26,-118.66 722.94,-118 842.75,-88.67 988.49,-77.44 1060.02,-73.47"/>
<polygon fill="#63b8ff" stroke="#63b8ff" points="1060.05,-76.93 1069.85,-72.9 1059.68,-69.94 1060.05,-76.93"/>
</a>
</g>
</g>
<!-- Node28&#45;&gt;Node10 -->
<g id="edge39_Node000028_Node000010" class="edge">
<title>Node28&#45;&gt;Node10</title>
<g id="a_edge39_Node000028_Node000010"><a xlink:title=" ">
<path fill="none" stroke="#63b8ff" d="M701.05,-117.55C712.65,-108.12 725.55,-95.75 733.94,-82 742.86,-67.4 747.67,-48.58 750.22,-34.2"/>
<polygon fill="#63b8ff" stroke="#63b8ff" points="753.82,-34.77 751.87,-24.36 746.9,-33.72 753.82,-34.77"/>
</a>
</g>
</g>
<!-- Node29 -->
<g id="Node000029" class="node">
<title>Node29</title>
<g id="a_Node000029"><a xlink:title=" ">
<polygon fill="#e0e0e0" stroke="#999999" points="724.82,-82 669.07,-82 669.07,-59 724.82,-59 724.82,-82"/>
<text text-anchor="middle" x="696.94" y="-68.5" font-family="Helvetica,sans-Serif" font-size="10.00">algorithm</text>
</a>
</g>
</g>
<!-- Node28&#45;&gt;Node29 -->
<g id="edge38_Node000028_Node000029" class="edge">
<title>Node28&#45;&gt;Node29</title>
<g id="a_edge38_Node000028_Node000029"><a xlink:title=" ">
<path fill="none" stroke="#63b8ff" d="M681.19,-117.69C683.88,-109.8 687.04,-100.54 689.82,-92.39"/>
<polygon fill="#63b8ff" stroke="#63b8ff" points="693.38,-93.79 693.3,-83.19 686.76,-91.53 693.38,-93.79"/>
</a>
</g>
</g>
<!-- Node30&#45;&gt;Node4 -->
<g id="edge48_Node000030_Node000004" class="edge">
<title>Node30&#45;&gt;Node4</title>
<g id="a_edge48_Node000030_Node000004"><a xlink:title=" ">
<path fill="none" stroke="#63b8ff" d="M1394.04,-199.27C1413.3,-180.91 1446.69,-143.02 1424.94,-118 1387.26,-74.64 1225.75,-90.58 1168.94,-82 1162.12,-80.97 1154.9,-79.84 1147.85,-78.72"/>
<polygon fill="#63b8ff" stroke="#63b8ff" points="1148.42,-75.1 1137.99,-76.97 1147.31,-82.01 1148.42,-75.1"/>
</a>
</g>
</g>
<!-- Node30&#45;&gt;Node8 -->
<g id="edge46_Node000030_Node000008" class="edge">
<title>Node30&#45;&gt;Node8</title>
<g id="a_edge46_Node000030_Node000008"><a xlink:title=" ">
<path fill="none" stroke="#63b8ff" d="M1372.68,-199.06C1363.16,-187.83 1348.18,-170.14 1336.78,-156.69"/>
<polygon fill="#63b8ff" stroke="#63b8ff" points="1339.03,-154.94 1329.9,-149.57 1333.69,-159.46 1339.03,-154.94"/>
</a>
</g>
</g>
<!-- Node30&#45;&gt;Node9 -->
<g id="edge47_Node000030_Node000009" class="edge">
<title>Node30&#45;&gt;Node9</title>
<g id="a_edge47_Node000030_Node000009"><a xlink:title=" ">
<path fill="none" stroke="#63b8ff" d="M1336.47,-205.51C1298.82,-201.81 1243.91,-196.47 1195.94,-192 1017.78,-175.38 967.08,-204.86 794.94,-156 792.45,-155.29 789.92,-154.41 787.42,-153.42"/>
<polygon fill="#63b8ff" stroke="#63b8ff" points="789.02,-149.85 778.46,-148.91 786.13,-156.23 789.02,-149.85"/>
</a>
</g>
</g>
<!-- Node30&#45;&gt;Node18 -->
<g id="edge45_Node000030_Node000018" class="edge">
<title>Node30&#45;&gt;Node18</title>
<g id="a_edge45_Node000030_Node000018"><a xlink:title=" ">
<path fill="none" stroke="#63b8ff" d="M1401.05,-199.01C1415.27,-189.63 1433.62,-174.69 1441.94,-156 1448.81,-140.57 1451.89,-131.65 1441.94,-118 1398.14,-57.86 1163.21,-25.96 1075.24,-15.98"/>
<polygon fill="#63b8ff" stroke="#63b8ff" points="1075.63,-12.39 1065.3,-14.77 1074.86,-19.35 1075.63,-12.39"/>
</a>
</g>
</g>
<!-- Node31 -->
<g id="Node000031" class="node">
<title>Node31</title>
<g id="a_Node000031"><a xlink:title=" ">
<polygon fill="#e0e0e0" stroke="#999999" points="1553.44,-148.5 1510.44,-148.5 1510.44,-125.5 1553.44,-125.5 1553.44,-148.5"/>
<text text-anchor="middle" x="1531.94" y="-135" font-family="Helvetica,sans-Serif" font-size="10.00">cerrno</text>
</a>
</g>
</g>
<!-- Node30&#45;&gt;Node31 -->
<g id="edge43_Node000030_Node000031" class="edge">
<title>Node30&#45;&gt;Node31</title>
<g id="a_edge43_Node000030_Node000031"><a xlink:title=" ">
<path fill="none" stroke="#63b8ff" d="M1405.16,-199.18C1428.24,-188.38 1464.63,-171.24 1495.94,-156 1497.54,-155.22 1499.18,-154.42 1500.83,-153.61"/>
<polygon fill="#63b8ff" stroke="#63b8ff" points="1501.87,-156.5 1509.28,-148.93 1498.76,-150.23 1501.87,-156.5"/>
</a>
</g>
</g>
<!-- Node32 -->
<g id="Node000032" class="node">
<title>Node32</title>
<g id="a_Node000032"><a xlink:title=" ">
<polygon fill="#e0e0e0" stroke="#999999" points="1628.57,-148.5 1571.32,-148.5 1571.32,-125.5 1628.57,-125.5 1628.57,-148.5"/>
<text text-anchor="middle" x="1599.94" y="-135" font-family="Helvetica,sans-Serif" font-size="10.00">exception</text>
</a>
</g>
</g>
<!-- Node30&#45;&gt;Node32 -->
<g id="edge44_Node000030_Node000032" class="edge">
<title>Node30&#45;&gt;Node32</title>
<g id="a_edge44_Node000030_Node000032"><a xlink:title=" ">
<path fill="none" stroke="#63b8ff" d="M1414.13,-199C1421.29,-196.63 1428.86,-194.18 1435.94,-192 1492.01,-174.72 1508.13,-176.91 1562.94,-156 1565.03,-155.2 1567.16,-154.33 1569.29,-153.42"/>
<polygon fill="#63b8ff" stroke="#63b8ff" points="1570.46,-156.28 1578.1,-148.94 1567.55,-149.91 1570.46,-156.28"/>
</a>
</g>
</g>
<!-- Node33&#45;&gt;Node7 -->
<g id="edge50_Node000033_Node000007" class="edge">
<title>Node33&#45;&gt;Node7</title>
<g id="a_edge50_Node000033_Node000007"><a xlink:title=" ">
<path fill="none" stroke="#63b8ff" d="M1128.98,-199.06C1119.87,-187.94 1105.56,-170.48 1094.57,-157.07"/>
<polygon fill="#63b8ff" stroke="#63b8ff" points="1096.65,-155.08 1087.6,-149.57 1091.23,-159.52 1096.65,-155.08"/>
</a>
</g>
</g>
<!-- Node33&#45;&gt;Node8 -->
<g id="edge52_Node000033_Node000008" class="edge">
<title>Node33&#45;&gt;Node8</title>
<g id="a_edge52_Node000033_Node000008"><a xlink:title=" ">
<path fill="none" stroke="#63b8ff" d="M1169.1,-199.07C1198.44,-188.59 1243.51,-172.05 1281.94,-156 1283.9,-155.18 1285.91,-154.32 1287.93,-153.44"/>
<polygon fill="#63b8ff" stroke="#63b8ff" points="1289.28,-156.23 1296.97,-148.94 1286.41,-149.84 1289.28,-156.23"/>
</a>
</g>
</g>
<!-- Node33&#45;&gt;Node18 -->
<g id="edge51_Node000033_Node000018" class="edge">
<title>Node33&#45;&gt;Node18</title>
<g id="a_edge51_Node000033_Node000018"><a xlink:title=" ">
<path fill="none" stroke="#63b8ff" d="M1186.81,-199.03C1209.85,-191.14 1235.25,-177.89 1248.94,-156 1271.98,-119.17 1267.14,-90.23 1236.94,-59 1214.78,-36.08 1124.45,-22.15 1074.88,-16.08"/>
<polygon fill="#63b8ff" stroke="#63b8ff" points="1075.44,-12.5 1065.09,-14.8 1074.61,-19.45 1075.44,-12.5"/>
</a>
</g>
</g>
<!-- Node33&#45;&gt;Node23 -->
<g id="edge55_Node000033_Node000023" class="edge">
<title>Node33&#45;&gt;Node23</title>
<g id="a_edge55_Node000033_Node000023"><a xlink:title=" ">
<path fill="none" stroke="#63b8ff" d="M1139.41,-199.2C1141.38,-179.68 1142.31,-138.6 1118.94,-118 1082.45,-85.82 745.91,-88.96 662.08,-81.77"/>
<polygon fill="#63b8ff" stroke="#63b8ff" points="662.57,-78.2 652.24,-80.58 661.8,-85.15 662.57,-78.2"/>
</a>
</g>
</g>
<!-- Node33&#45;&gt;Node25 -->
<g id="edge54_Node000033_Node000025" class="edge">
<title>Node33&#45;&gt;Node25</title>
<g id="a_edge54_Node000033_Node000025"><a xlink:title=" ">
<path fill="none" stroke="#63b8ff" d="M1103.14,-199.05C1093.45,-196.36 1082.86,-193.76 1072.94,-192 877.13,-157.31 823.98,-182.94 626.94,-156 614.85,-154.35 601.94,-152.14 589.72,-149.83"/>
<polygon fill="#63b8ff" stroke="#63b8ff" points="590.67,-146.26 580.19,-147.8 589.34,-153.13 590.67,-146.26"/>
</a>
</g>
</g>
<!-- Node34 -->
<g id="Node000034" class="node">
<title>Node34</title>
<g id="a_Node000034"><a xlink:title=" ">
<polygon fill="#e0e0e0" stroke="#999999" points="1415.94,-148.5 1363.94,-148.5 1363.94,-125.5 1415.94,-125.5 1415.94,-148.5"/>
<text text-anchor="middle" x="1389.94" y="-135" font-family="Helvetica,sans-Serif" font-size="10.00">memory</text>
</a>
</g>
</g>
<!-- Node33&#45;&gt;Node34 -->
<g id="edge53_Node000033_Node000034" class="edge">
<title>Node33&#45;&gt;Node34</title>
<g id="a_edge53_Node000033_Node000034"><a xlink:title=" ">
<path fill="none" stroke="#63b8ff" d="M1187.19,-201.13C1231.82,-192.3 1298.98,-177.03 1354.94,-156 1356.91,-155.26 1358.91,-154.44 1360.91,-153.57"/>
<polygon fill="#63b8ff" stroke="#63b8ff" points="1362.16,-156.37 1369.68,-148.91 1359.15,-150.05 1362.16,-156.37"/>
</a>
</g>
</g>
<!-- Node35&#45;&gt;Node9 -->
<g id="edge57_Node000035_Node000009" class="edge">
<title>Node35&#45;&gt;Node9</title>
<g id="a_edge57_Node000035_Node000009"><a xlink:title=" ">
<path fill="none" stroke="#63b8ff" d="M758.94,-199.06C758.94,-188.58 758.94,-172.47 758.94,-159.43"/>
<polygon fill="#63b8ff" stroke="#63b8ff" points="762.44,-159.57 758.94,-149.57 755.44,-159.57 762.44,-159.57"/>
</a>
</g>
</g>
<!-- Node35&#45;&gt;Node16 -->
<g id="edge60_Node000035_Node000016" class="edge">
<title>Node35&#45;&gt;Node16</title>
<g id="a_edge60_Node000035_Node000016"><a xlink:title=" ">
<path fill="none" stroke="#63b8ff" d="M719.31,-199.04C709.73,-196.57 699.5,-194.06 689.94,-192 597.38,-172.03 572.61,-175.5 479.94,-156 473.41,-154.62 466.56,-153.07 459.81,-151.46"/>
<polygon fill="#63b8ff" stroke="#63b8ff" points="460.86,-147.87 450.32,-148.91 459.21,-154.67 460.86,-147.87"/>
</a>
</g>
</g>
<!-- Node35&#45;&gt;Node23 -->
<g id="edge61_Node000035_Node000023" class="edge">
<title>Node35&#45;&gt;Node23</title>
<g id="a_edge61_Node000035_Node000023"><a xlink:title=" ">
<path fill="none" stroke="#63b8ff" d="M721.49,-199.08C687,-188.28 639.35,-171.2 626.94,-156 612.61,-138.45 609.65,-112.01 609.61,-93.39"/>
<polygon fill="#63b8ff" stroke="#63b8ff" points="613.14,-93.55 609.92,-83.46 606.14,-93.35 613.14,-93.55"/>
</a>
</g>
</g>
<!-- Node35&#45;&gt;Node25 -->
<g id="edge59_Node000035_Node000025" class="edge">
<title>Node35&#45;&gt;Node25</title>
<g id="a_edge59_Node000035_Node000025"><a xlink:title=" ">
<path fill="none" stroke="#63b8ff" d="M724.77,-199.06C685.67,-186.55 621.51,-166.02 578.52,-152.26"/>
<polygon fill="#63b8ff" stroke="#63b8ff" points="579.66,-148.63 569.07,-148.92 577.53,-155.3 579.66,-148.63"/>
</a>
</g>
</g>
<!-- Node35&#45;&gt;Node34 -->
<g id="edge58_Node000035_Node000034" class="edge">
<title>Node35&#45;&gt;Node34</title>
<g id="a_edge58_Node000035_Node000034"><a xlink:title=" ">
<path fill="none" stroke="#63b8ff" d="M819.44,-204.67C969.75,-191.41 1348.55,-157.86 1354.94,-156 1357.29,-155.32 1359.66,-154.48 1362.01,-153.53"/>
<polygon fill="#63b8ff" stroke="#63b8ff" points="1363.37,-156.3 1370.97,-148.91 1360.42,-149.95 1363.37,-156.3"/>
</a>
</g>
</g>
<!-- Node36&#45;&gt;Node34 -->
<g id="edge64_Node000036_Node000034" class="edge">
<title>Node36&#45;&gt;Node34</title>
<g id="a_edge64_Node000036_Node000034"><a xlink:title=" ">
<path fill="none" stroke="#63b8ff" d="M1469.67,-199.06C1454.53,-187.47 1430.42,-169 1412.67,-155.41"/>
<polygon fill="#63b8ff" stroke="#63b8ff" points="1415.11,-152.1 1405.05,-148.8 1410.86,-157.66 1415.11,-152.1"/>
</a>
</g>
</g>
<!-- Node37 -->
<g id="Node000037" class="node">
<title>Node37</title>
<g id="a_Node000037"><a xlink:title=" ">
<polygon fill="#e0e0e0" stroke="#999999" points="1704.94,-148.5 1646.94,-148.5 1646.94,-125.5 1704.94,-125.5 1704.94,-148.5"/>
<text text-anchor="middle" x="1675.94" y="-135" font-family="Helvetica,sans-Serif" font-size="10.00">functional</text>
</a>
</g>
</g>
<!-- Node36&#45;&gt;Node37 -->
<g id="edge63_Node000036_Node000037" class="edge">
<title>Node36&#45;&gt;Node37</title>
<g id="a_edge63_Node000036_Node000037"><a xlink:title=" ">
<path fill="none" stroke="#63b8ff" d="M1518.58,-199.01C1550.05,-188.75 1597.59,-172.58 1637.94,-156 1640,-155.15 1642.11,-154.26 1644.22,-153.33"/>
<polygon fill="#63b8ff" stroke="#63b8ff" points="1645.37,-156.2 1653.02,-148.87 1642.46,-149.83 1645.37,-156.2"/>
</a>
</g>
</g>
</g>
</svg>

<g id="navigator" transform="translate(0 0)" fill="#404254">
  <rect fill="#f2f5e9" fill-opacity="0.5" stroke="#606060" stroke-width=".5" x="0" y="0" width="60" height="60"/>
  <use id="zoomplus" xlink:href="#zoomPlus" x="17" y="9" onmousedown="handleZoom(evt,'in')"/>
  <use id="zoomminus" xlink:href="#zoomMin" x="42" y="9" onmousedown="handleZoom(evt,'out')"/>
  <use id="reset" xlink:href="#resetDef" x="30" y="36" onmousedown="handleReset()"/>
   <use id="arrowup" xlink:href="#arrowUp" x="0" y="0" onmousedown="handlePan(0,-1)"/>
  <use id="arrowright" xlink:href="#arrowRight" x="0" y="0" onmousedown="handlePan(1,0)"/>
  <use id="arrowdown" xlink:href="#arrowDown" x="0" y="0" onmousedown="handlePan(0,1)"/>
  <use id="arrowleft" xlink:href="#arrowLeft" x="0" y="0" onmousedown="handlePan(-1,0)"/>
</g>
<svg viewBox="0 0 15 15" width="100%" height="30px" preserveAspectRatio="xMaxYMin meet">
 <g id="arrow_out" transform="scale(0.3 0.3)">
  <a xlink:href="main_8cpp__incl_org.svg" target="_base">
   <rect id="button" ry="5" rx="5" y="6" x="6" height="38" width="38"
        fill="#f2f5e9" fill-opacity="0.5" stroke="#606060" stroke-width="1.0"/>
   <path id="arrow"
     d="M 11.500037,31.436501 C 11.940474,20.09759 22.043105,11.32322 32.158766,21.979434 L 37.068811,17.246167 C 37.068811,17.246167 37.088388,32 37.088388,32 L 22.160133,31.978069 C 22.160133,31.978069 26.997745,27.140456 26.997745,27.140456 C 18.528582,18.264221 13.291696,25.230495 11.500037,31.436501 z"
     style="fill:#404040;"/>
  </a>
 </g>
</svg>

<style type='text/css'>
<![CDATA[
[data-mouse-over-selected='false'] { opacity: 0.7; }
[data-mouse-over-selected='true']  { opacity: 1.0; }
]]>
</style>
<script type="application/ecmascript"><![CDATA[
document.addEventListener('DOMContentLoaded', (event) => {
  highlightEdges();
  highlightAdjacentNodes();
});
]]></script>
</svg>
