<?xml version="1.0" encoding="UTF-8" standalone="no"?>
<!DOCTYPE svg PUBLIC "-//W3C//DTD SVG 1.1//EN"
 "http://www.w3.org/Graphics/SVG/1.1/DTD/svg11.dtd">
<!-- Generated by graphviz version 8.1.0 (20230707.0739)
 -->
<!-- Title: main Pages: 1 -->
<svg width="530pt" height="604pt"
 viewBox="0.00 0.00 529.50 603.50" xmlns="http://www.w3.org/2000/svg" xmlns:xlink="http://www.w3.org/1999/xlink">
<g id="graph0" class="graph" transform="scale(1 1) rotate(0) translate(4 599.5)">
<title>main</title>
<!-- Node1 -->
<g id="Node000001" class="node">
<title>Node1</title>
<g id="a_Node000001"><a xlink:title="course c++ developer: hw7 &#45; bulk">
<polygon fill="#999999" stroke="#666666" points="37,-250.5 0,-250.5 0,-227.5 37,-227.5 37,-250.5"/>
<text text-anchor="middle" x="18.5" y="-237" font-family="Helvetica,sans-Serif" font-size="10.00">main</text>
</a>
</g>
</g>
<!-- Node2 -->
<g id="Node000002" class="node">
<title>Node2</title>
<g id="a_Node000002"><a xlink:href="classbulk_1_1provider_1_1BulkTranslator.html#a5170e68c8bd3126c2e5f31ff7142e594" target="_top" xlink:title=" ">
<polygon fill="white" stroke="#666666" points="217.25,-384 74.5,-384 74.5,-346 217.25,-346 217.25,-384"/>
<text text-anchor="start" x="82.5" y="-370.5" font-family="Helvetica,sans-Serif" font-size="10.00">bulk::provider::BulkTranslator</text>
<text text-anchor="middle" x="145.88" y="-355.5" font-family="Helvetica,sans-Serif" font-size="10.00">::create</text>
</a>
</g>
</g>
<!-- Node1&#45;&gt;Node2 -->
<g id="edge1_Node000001_Node000002" class="edge">
<title>Node1&#45;&gt;Node2</title>
<g id="a_edge1_Node000001_Node000002"><a xlink:title=" ">
<path fill="none" stroke="#63b8ff" d="M23.03,-250.98C29.61,-271.36 45.63,-312.94 73,-337 74.02,-337.9 75.07,-338.76 76.15,-339.61"/>
<polygon fill="#63b8ff" stroke="#63b8ff" points="73.65,-342.82 83.89,-345.56 77.59,-337.04 73.65,-342.82"/>
</a>
</g>
</g>
<!-- Node3 -->
<g id="Node000003" class="node">
<title>Node3</title>
<g id="a_Node000003"><a xlink:href="classlogs_1_1OutputStreamWriter.html#ad80e0504664be4be8e232874cbf9ae53" target="_top" xlink:title=" ">
<polygon fill="white" stroke="#666666" points="209,-328 82.75,-328 82.75,-290 209,-290 209,-328"/>
<text text-anchor="start" x="90.75" y="-314.5" font-family="Helvetica,sans-Serif" font-size="10.00">logs::OutputStreamWriter</text>
<text text-anchor="middle" x="145.88" y="-299.5" font-family="Helvetica,sans-Serif" font-size="10.00">::create</text>
</a>
</g>
</g>
<!-- Node1&#45;&gt;Node3 -->
<g id="edge2_Node000001_Node000003" class="edge">
<title>Node1&#45;&gt;Node3</title>
<g id="a_edge2_Node000001_Node000003"><a xlink:title=" ">
<path fill="none" stroke="#63b8ff" d="M32.35,-250.87C42.73,-260 58.03,-272.46 73,-281 75.34,-282.34 77.76,-283.63 80.22,-284.89"/>
<polygon fill="#63b8ff" stroke="#63b8ff" points="78.4,-288.38 88.93,-289.55 81.43,-282.07 78.4,-288.38"/>
</a>
</g>
</g>
<!-- Node4 -->
<g id="Node000004" class="node">
<title>Node4</title>
<g id="a_Node000004"><a xlink:href="classlogs_1_1FileWriter.html#a02edbc213561fecc4ab73d33e38f3d4b" target="_top" xlink:title=" ">
<polygon fill="white" stroke="#666666" points="203,-271.5 88.75,-271.5 88.75,-248.5 203,-248.5 203,-271.5"/>
<text text-anchor="middle" x="145.88" y="-258" font-family="Helvetica,sans-Serif" font-size="10.00">logs::FileWriter::create</text>
</a>
</g>
</g>
<!-- Node1&#45;&gt;Node4 -->
<g id="edge3_Node000001_Node000004" class="edge">
<title>Node1&#45;&gt;Node4</title>
<g id="a_edge3_Node000001_Node000004"><a xlink:title=" ">
<path fill="none" stroke="#63b8ff" d="M37.46,-242.01C48.25,-243.82 62.73,-246.24 77.55,-248.72"/>
<polygon fill="#63b8ff" stroke="#63b8ff" points="76.92,-252.33 87.36,-250.53 78.07,-245.43 76.92,-252.33"/>
</a>
</g>
</g>
<!-- Node5 -->
<g id="Node000005" class="node">
<title>Node5</title>
<g id="a_Node000005"><a xlink:href="namespaceargs.html#ac5abfe1ee497dcb11ea7435db4aed06d" target="_top" xlink:title=" ">
<polygon fill="white" stroke="#666666" points="198.12,-230.5 93.62,-230.5 93.62,-207.5 198.12,-207.5 198.12,-230.5"/>
<text text-anchor="middle" x="145.88" y="-217" font-family="Helvetica,sans-Serif" font-size="10.00">args::info_requested</text>
</a>
</g>
</g>
<!-- Node1&#45;&gt;Node5 -->
<g id="edge4_Node000001_Node000005" class="edge">
<title>Node1&#45;&gt;Node5</title>
<g id="a_edge4_Node000001_Node000005"><a xlink:title=" ">
<path fill="none" stroke="#63b8ff" d="M37.46,-236.13C49.46,-234.22 66.02,-231.58 82.54,-228.94"/>
<polygon fill="#63b8ff" stroke="#63b8ff" points="83.02,-232.25 92.35,-227.22 81.92,-225.34 83.02,-232.25"/>
</a>
</g>
</g>
<!-- Node19 -->
<g id="Node000019" class="node">
<title>Node19</title>
<g id="a_Node000019"><a xlink:href="classcmd_1_1provider_1_1ConsoleParser.html#a8ba802522fec0844de7cf95655b51c4f" target="_top" xlink:title=" ">
<polygon fill="white" stroke="#666666" points="218.75,-189 73,-189 73,-151 218.75,-151 218.75,-189"/>
<text text-anchor="start" x="81" y="-175.5" font-family="Helvetica,sans-Serif" font-size="10.00">cmd::provider::ConsoleParser</text>
<text text-anchor="middle" x="145.88" y="-160.5" font-family="Helvetica,sans-Serif" font-size="10.00">::instance</text>
</a>
</g>
</g>
<!-- Node1&#45;&gt;Node19 -->
<g id="edge19_Node000001_Node000019" class="edge">
<title>Node1&#45;&gt;Node19</title>
<g id="a_edge19_Node000001_Node000019"><a xlink:title=" ">
<path fill="none" stroke="#63b8ff" d="M33.34,-227.07C43.76,-218.5 58.65,-207.08 73,-199 76.05,-197.28 79.22,-195.62 82.46,-194.01"/>
<polygon fill="#63b8ff" stroke="#63b8ff" points="83.76,-196.79 91.31,-189.36 80.77,-190.46 83.76,-196.79"/>
</a>
</g>
</g>
<!-- Node20 -->
<g id="Node000020" class="node">
<title>Node20</title>
<g id="a_Node000020"><a xlink:href="namespaceargs.html#a5a8c271969692f3fe8100517303b959e" target="_top" xlink:title=" ">
<polygon fill="white" stroke="#666666" points="178.62,-132.5 113.12,-132.5 113.12,-109.5 178.62,-109.5 178.62,-132.5"/>
<text text-anchor="middle" x="145.88" y="-119" font-family="Helvetica,sans-Serif" font-size="10.00">args::parse</text>
</a>
</g>
</g>
<!-- Node1&#45;&gt;Node20 -->
<g id="edge20_Node000001_Node000020" class="edge">
<title>Node1&#45;&gt;Node20</title>
<g id="a_edge20_Node000001_Node000020"><a xlink:title=" ">
<path fill="none" stroke="#63b8ff" d="M22.75,-227.22C28.99,-206.77 44.63,-164.73 73,-142 81.36,-135.3 91.78,-130.74 102.07,-127.63"/>
<polygon fill="#63b8ff" stroke="#63b8ff" points="102.85,-130.79 111.66,-124.9 101.1,-124.01 102.85,-130.79"/>
</a>
</g>
</g>
<!-- Node6 -->
<g id="Node000006" class="node">
<title>Node6</title>
<g id="a_Node000006"><a xlink:href="namespaceinfo.html#adf619fee1b67e68e79a217741803d1c1" target="_top" xlink:title=" ">
<polygon fill="white" stroke="#666666" points="360.75,-310.5 254.75,-310.5 254.75,-287.5 360.75,-287.5 360.75,-310.5"/>
<text text-anchor="middle" x="307.75" y="-297" font-family="Helvetica,sans-Serif" font-size="10.00">info::info_project_full</text>
</a>
</g>
</g>
<!-- Node5&#45;&gt;Node6 -->
<g id="edge5_Node000005_Node000006" class="edge">
<title>Node5&#45;&gt;Node6</title>
<g id="a_edge5_Node000005_Node000006"><a xlink:title=" ">
<path fill="none" stroke="#63b8ff" d="M195.18,-230.89C203.21,-233.5 211.33,-236.53 218.75,-240 242.09,-250.91 266.23,-267.55 283.31,-280.37"/>
<polygon fill="#63b8ff" stroke="#63b8ff" points="280.96,-283.74 291.02,-287.05 285.21,-278.19 280.96,-283.74"/>
</a>
</g>
</g>
<!-- Node18 -->
<g id="Node000018" class="node">
<title>Node18</title>
<g id="a_Node000018"><a xlink:href="namespaceinfo.html#a0b0e75f2a6d438265b88d1b0e2b21b52" target="_top" xlink:title=" ">
<polygon fill="white" stroke="#666666" points="503.12,-38 415.12,-38 415.12,0 503.12,0 503.12,-38"/>
<text text-anchor="start" x="423.12" y="-24.5" font-family="Helvetica,sans-Serif" font-size="10.00">info::info_project</text>
<text text-anchor="middle" x="459.12" y="-9.5" font-family="Helvetica,sans-Serif" font-size="10.00">_version</text>
</a>
</g>
</g>
<!-- Node5&#45;&gt;Node18 -->
<g id="edge18_Node000005_Node000018" class="edge">
<title>Node5&#45;&gt;Node18</title>
<g id="a_edge18_Node000005_Node000018"><a xlink:title=" ">
<path fill="none" stroke="#63b8ff" d="M197.82,-207.03C205.04,-204.5 212.23,-201.51 218.75,-198 310.09,-148.82 309.17,-102.61 396.75,-47 399.48,-45.27 402.33,-43.58 405.26,-41.95"/>
<polygon fill="#63b8ff" stroke="#63b8ff" points="406.52,-44.72 413.74,-36.97 403.26,-38.52 406.52,-44.72"/>
</a>
</g>
</g>
<!-- Node7 -->
<g id="Node000007" class="node">
<title>Node7</title>
<g id="a_Node000007"><a xlink:href="namespaceinfo.html#a4f6b5083c272141764c35b0cff843ae7" target="_top" xlink:title=" ">
<polygon fill="white" stroke="#666666" points="520,-595.5 398.25,-595.5 398.25,-572.5 520,-572.5 520,-595.5"/>
<text text-anchor="middle" x="459.12" y="-582" font-family="Helvetica,sans-Serif" font-size="10.00">info::info_boost_libraries</text>
</a>
</g>
</g>
<!-- Node6&#45;&gt;Node7 -->
<g id="edge6_Node000006_Node000007" class="edge">
<title>Node6&#45;&gt;Node7</title>
<g id="a_edge6_Node000006_Node000007"><a xlink:title=" ">
<path fill="none" stroke="#63b8ff" d="M309.09,-310.98C310.9,-352.27 322.5,-490.17 396.75,-564 397.35,-564.59 397.96,-565.17 398.59,-565.73"/>
<polygon fill="#63b8ff" stroke="#63b8ff" points="396.38,-569.15 406.57,-572.06 400.42,-563.44 396.38,-569.15"/>
</a>
</g>
</g>
<!-- Node8 -->
<g id="Node000008" class="node">
<title>Node8</title>
<g id="a_Node000008"><a xlink:href="namespaceinfo.html#a35557f9934568e2d7c71bc382a94c359" target="_top" xlink:title=" ">
<polygon fill="white" stroke="#666666" points="518.88,-554.5 399.38,-554.5 399.38,-531.5 518.88,-531.5 518.88,-554.5"/>
<text text-anchor="middle" x="459.12" y="-541" font-family="Helvetica,sans-Serif" font-size="10.00">info::info_boost_version</text>
</a>
</g>
</g>
<!-- Node6&#45;&gt;Node8 -->
<g id="edge7_Node000006_Node000008" class="edge">
<title>Node6&#45;&gt;Node8</title>
<g id="a_edge7_Node000006_Node000008"><a xlink:title=" ">
<path fill="none" stroke="#63b8ff" d="M309.91,-310.93C314.16,-347.96 332.13,-462.11 396.75,-523 397.48,-523.69 398.24,-524.35 399.01,-525"/>
<polygon fill="#63b8ff" stroke="#63b8ff" points="396.79,-528.39 407.04,-531.04 400.68,-522.57 396.79,-528.39"/>
</a>
</g>
</g>
<!-- Node9 -->
<g id="Node000009" class="node">
<title>Node9</title>
<g id="a_Node000009"><a xlink:href="namespaceinfo.html#ad14822b50a586b36ccf5978ab1ac4ec7" target="_top" xlink:title=" ">
<polygon fill="white" stroke="#666666" points="521.5,-513.5 396.75,-513.5 396.75,-490.5 521.5,-490.5 521.5,-513.5"/>
<text text-anchor="middle" x="459.12" y="-500" font-family="Helvetica,sans-Serif" font-size="10.00">info::info_compiler_name</text>
</a>
</g>
</g>
<!-- Node6&#45;&gt;Node9 -->
<g id="edge8_Node000006_Node000009" class="edge">
<title>Node6&#45;&gt;Node9</title>
<g id="a_edge8_Node000006_Node000009"><a xlink:title=" ">
<path fill="none" stroke="#63b8ff" d="M311.11,-310.69C318.17,-342.7 342.11,-432.59 396.75,-481 398.14,-482.23 399.61,-483.39 401.13,-484.49"/>
<polygon fill="#63b8ff" stroke="#63b8ff" points="399.05,-487.91 409.43,-490.04 402.64,-481.9 399.05,-487.91"/>
</a>
</g>
</g>
<!-- Node10 -->
<g id="Node000010" class="node">
<title>Node10</title>
<g id="a_Node000010"><a xlink:href="namespaceinfo.html#ad680bf7ac70dbb1d24b428f55159b013" target="_top" xlink:title=" ">
<polygon fill="white" stroke="#666666" points="506.88,-472 411.38,-472 411.38,-434 506.88,-434 506.88,-472"/>
<text text-anchor="start" x="419.38" y="-458.5" font-family="Helvetica,sans-Serif" font-size="10.00">info::info_compiler</text>
<text text-anchor="middle" x="459.12" y="-443.5" font-family="Helvetica,sans-Serif" font-size="10.00">_version</text>
</a>
</g>
</g>
<!-- Node6&#45;&gt;Node10 -->
<g id="edge9_Node000006_Node000010" class="edge">
<title>Node6&#45;&gt;Node10</title>
<g id="a_edge9_Node000006_Node000010"><a xlink:title=" ">
<path fill="none" stroke="#63b8ff" d="M314.18,-310.63C326.02,-334.88 356.36,-391.36 396.75,-425 398.37,-426.35 400.07,-427.65 401.82,-428.89"/>
<polygon fill="#63b8ff" stroke="#63b8ff" points="399.65,-432.3 409.97,-434.71 403.41,-426.39 399.65,-432.3"/>
</a>
</g>
</g>
<!-- Node11 -->
<g id="Node000011" class="node">
<title>Node11</title>
<g id="a_Node000011"><a xlink:href="namespaceinfo.html#af138dcf75a98d5fb9358ac1ed3800394" target="_top" xlink:title=" ">
<polygon fill="white" stroke="#666666" points="516.62,-415.5 401.62,-415.5 401.62,-392.5 516.62,-392.5 516.62,-415.5"/>
<text text-anchor="middle" x="459.12" y="-402" font-family="Helvetica,sans-Serif" font-size="10.00">info::info_host_system</text>
</a>
</g>
</g>
<!-- Node6&#45;&gt;Node11 -->
<g id="edge10_Node000006_Node000011" class="edge">
<title>Node6&#45;&gt;Node11</title>
<g id="a_edge10_Node000006_Node000011"><a xlink:title=" ">
<path fill="none" stroke="#63b8ff" d="M318.32,-311C333.28,-329.01 363.9,-363.04 396.75,-383 399.55,-384.7 402.5,-386.28 405.54,-387.76"/>
<polygon fill="#63b8ff" stroke="#63b8ff" points="403.88,-391.29 414.44,-392.09 406.68,-384.87 403.88,-391.29"/>
</a>
</g>
</g>
<!-- Node12 -->
<g id="Node000012" class="node">
<title>Node12</title>
<g id="a_Node000012"><a xlink:href="namespaceinfo.html#a28d71fb524538a7bdfbb1483a8a3a4cb" target="_top" xlink:title=" ">
<polygon fill="white" stroke="#666666" points="503.12,-374 415.12,-374 415.12,-336 503.12,-336 503.12,-374"/>
<text text-anchor="start" x="423.12" y="-360.5" font-family="Helvetica,sans-Serif" font-size="10.00">info::info_project</text>
<text text-anchor="middle" x="459.12" y="-345.5" font-family="Helvetica,sans-Serif" font-size="10.00">_author</text>
</a>
</g>
</g>
<!-- Node6&#45;&gt;Node12 -->
<g id="edge11_Node000006_Node000012" class="edge">
<title>Node6&#45;&gt;Node12</title>
<g id="a_edge11_Node000006_Node000012"><a xlink:title=" ">
<path fill="none" stroke="#63b8ff" d="M340.43,-310.88C359.13,-317.89 383.3,-326.95 404.86,-335.03"/>
<polygon fill="#63b8ff" stroke="#63b8ff" points="403.28,-338.55 413.88,-338.79 405.74,-332 403.28,-338.55"/>
</a>
</g>
</g>
<!-- Node13 -->
<g id="Node000013" class="node">
<title>Node13</title>
<g id="a_Node000013"><a xlink:href="namespaceinfo.html#aae86ae087e0d5fde160d4328e106c21f" target="_top" xlink:title=" ">
<polygon fill="white" stroke="#666666" points="508.75,-318 409.5,-318 409.5,-280 508.75,-280 508.75,-318"/>
<text text-anchor="start" x="417.5" y="-304.5" font-family="Helvetica,sans-Serif" font-size="10.00">info::info_project</text>
<text text-anchor="middle" x="459.12" y="-289.5" font-family="Helvetica,sans-Serif" font-size="10.00">_repository_branch</text>
</a>
</g>
</g>
<!-- Node6&#45;&gt;Node13 -->
<g id="edge12_Node000006_Node000013" class="edge">
<title>Node6&#45;&gt;Node13</title>
<g id="a_edge12_Node000006_Node000013"><a xlink:title=" ">
<path fill="none" stroke="#63b8ff" d="M360.99,-299C373.1,-299 386.07,-299 398.46,-299"/>
<polygon fill="#63b8ff" stroke="#63b8ff" points="398.17,-302.5 408.17,-299 398.17,-295.5 398.17,-302.5"/>
</a>
</g>
</g>
<!-- Node14 -->
<g id="Node000014" class="node">
<title>Node14</title>
<g id="a_Node000014"><a xlink:href="namespaceinfo.html#ace228211052ca615450b84d638e882a7" target="_top" xlink:title=" ">
<polygon fill="white" stroke="#666666" points="503.12,-262 415.12,-262 415.12,-224 503.12,-224 503.12,-262"/>
<text text-anchor="start" x="423.12" y="-248.5" font-family="Helvetica,sans-Serif" font-size="10.00">info::info_project</text>
<text text-anchor="middle" x="459.12" y="-233.5" font-family="Helvetica,sans-Serif" font-size="10.00">_repository_url</text>
</a>
</g>
</g>
<!-- Node6&#45;&gt;Node14 -->
<g id="edge13_Node000006_Node000014" class="edge">
<title>Node6&#45;&gt;Node14</title>
<g id="a_edge13_Node000006_Node000014"><a xlink:title=" ">
<path fill="none" stroke="#63b8ff" d="M340.43,-287.12C359.13,-280.11 383.3,-271.05 404.86,-262.97"/>
<polygon fill="#63b8ff" stroke="#63b8ff" points="405.74,-266 413.88,-259.21 403.28,-259.45 405.74,-266"/>
</a>
</g>
</g>
<!-- Node15 -->
<g id="Node000015" class="node">
<title>Node15</title>
<g id="a_Node000015"><a xlink:href="namespaceinfo.html#ab6318ad2c6e0287114caeea0c9434a94" target="_top" xlink:title=" ">
<polygon fill="white" stroke="#666666" points="503.12,-206 415.12,-206 415.12,-168 503.12,-168 503.12,-206"/>
<text text-anchor="start" x="423.12" y="-192.5" font-family="Helvetica,sans-Serif" font-size="10.00">info::info_project</text>
<text text-anchor="middle" x="459.12" y="-177.5" font-family="Helvetica,sans-Serif" font-size="10.00">_revision</text>
</a>
</g>
</g>
<!-- Node6&#45;&gt;Node15 -->
<g id="edge14_Node000006_Node000015" class="edge">
<title>Node6&#45;&gt;Node15</title>
<g id="a_edge14_Node000006_Node000015"><a xlink:title=" ">
<path fill="none" stroke="#63b8ff" d="M318.83,-287.11C334.21,-269.55 365.09,-236.43 396.75,-215 399.47,-213.16 402.34,-211.38 405.28,-209.68"/>
<polygon fill="#63b8ff" stroke="#63b8ff" points="406.73,-212.33 413.87,-204.51 403.41,-206.17 406.73,-212.33"/>
</a>
</g>
</g>
<!-- Node16 -->
<g id="Node000016" class="node">
<title>Node16</title>
<g id="a_Node000016"><a xlink:href="namespaceinfo.html#a5600a5c71779aaecafbe4fff68152d02" target="_top" xlink:title=" ">
<polygon fill="white" stroke="#666666" points="508,-150 410.25,-150 410.25,-112 508,-112 508,-150"/>
<text text-anchor="start" x="418.25" y="-136.5" font-family="Helvetica,sans-Serif" font-size="10.00">info::info_project</text>
<text text-anchor="middle" x="459.12" y="-121.5" font-family="Helvetica,sans-Serif" font-size="10.00">_revision_datetime</text>
</a>
</g>
</g>
<!-- Node6&#45;&gt;Node16 -->
<g id="edge15_Node000006_Node000016" class="edge">
<title>Node6&#45;&gt;Node16</title>
<g id="a_edge15_Node000006_Node000016"><a xlink:title=" ">
<path fill="none" stroke="#63b8ff" d="M313.34,-287.26C324.13,-260.99 353.54,-196.81 396.75,-159 398.11,-157.81 399.54,-156.66 401.01,-155.55"/>
<polygon fill="#63b8ff" stroke="#63b8ff" points="402.48,-158.1 408.86,-149.64 398.6,-152.28 402.48,-158.1"/>
</a>
</g>
</g>
<!-- Node17 -->
<g id="Node000017" class="node">
<title>Node17</title>
<g id="a_Node000017"><a xlink:href="namespaceinfo.html#a9d8c1cc05c7db3face2e4a8b5fc29539" target="_top" xlink:title=" ">
<polygon fill="white" stroke="#666666" points="504.25,-94 414,-94 414,-56 504.25,-56 504.25,-94"/>
<text text-anchor="start" x="422" y="-80.5" font-family="Helvetica,sans-Serif" font-size="10.00">info::info_project</text>
<text text-anchor="middle" x="459.12" y="-65.5" font-family="Helvetica,sans-Serif" font-size="10.00">_revision_history</text>
</a>
</g>
</g>
<!-- Node6&#45;&gt;Node17 -->
<g id="edge16_Node000006_Node000017" class="edge">
<title>Node6&#45;&gt;Node17</title>
<g id="a_edge16_Node000006_Node000017"><a xlink:title=" ">
<path fill="none" stroke="#63b8ff" d="M312.81,-287.19C326.02,-249.25 368.61,-131.31 396.75,-103 399.11,-100.63 401.71,-98.43 404.46,-96.41"/>
<polygon fill="#63b8ff" stroke="#63b8ff" points="406.14,-98.85 412.68,-90.52 402.37,-92.95 406.14,-98.85"/>
</a>
</g>
</g>
<!-- Node6&#45;&gt;Node18 -->
<g id="edge17_Node000006_Node000018" class="edge">
<title>Node6&#45;&gt;Node18</title>
<g id="a_edge17_Node000006_Node000018"><a xlink:title=" ">
<path fill="none" stroke="#63b8ff" d="M312.99,-287.29C321.93,-262.53 343.33,-203.06 360.75,-153 377.1,-106.01 363.38,-83.91 396.75,-47 399.42,-44.05 402.46,-41.38 405.74,-38.99"/>
<polygon fill="#63b8ff" stroke="#63b8ff" points="407.24,-41.54 413.82,-33.24 403.5,-35.63 407.24,-41.54"/>
</a>
</g>
</g>
</g>
</svg>
