<?xml version="1.0" encoding="UTF-8" standalone="no"?>
<!DOCTYPE svg PUBLIC "-//W3C//DTD SVG 1.1//EN"
 "http://www.w3.org/Graphics/SVG/1.1/DTD/svg11.dtd">
<!-- Generated by graphviz version 8.1.0 (20230707.0739)
 -->
<!-- Title: info::info_project_version Pages: 1 -->
<svg width="310pt" height="72pt"
 viewBox="0.00 0.00 309.50 72.00" xmlns="http://www.w3.org/2000/svg" xmlns:xlink="http://www.w3.org/1999/xlink">
<g id="graph0" class="graph" transform="scale(1 1) rotate(0) translate(4 68)">
<title>info::info_project_version</title>
<!-- Node1 -->
<g id="Node000001" class="node">
<title>Node1</title>
<g id="a_Node000001"><a xlink:title=" ">
<polygon fill="#999999" stroke="#666666" points="301.5,-50.5 213.5,-50.5 213.5,-12.5 301.5,-12.5 301.5,-50.5"/>
<text text-anchor="start" x="221.5" y="-37" font-family="Helvetica,sans-Serif" font-size="10.00">info::info_project</text>
<text text-anchor="middle" x="257.5" y="-22" font-family="Helvetica,sans-Serif" font-size="10.00">_version</text>
</a>
</g>
</g>
<!-- Node2 -->
<g id="Node000002" class="node">
<title>Node2</title>
<g id="a_Node000002"><a xlink:href="namespaceargs.html#ac5abfe1ee497dcb11ea7435db4aed06d" target="_top" xlink:title=" ">
<polygon fill="white" stroke="#666666" points="177.5,-64 73,-64 73,-41 177.5,-41 177.5,-64"/>
<text text-anchor="middle" x="125.25" y="-50.5" font-family="Helvetica,sans-Serif" font-size="10.00">args::info_requested</text>
</a>
</g>
</g>
<!-- Node1&#45;&gt;Node2 -->
<g id="edge1_Node000001_Node000002" class="edge">
<title>Node1&#45;&gt;Node2</title>
<g id="a_edge1_Node000001_Node000002"><a xlink:title=" ">
<path fill="none" stroke="#63b8ff" d="M202.48,-40.21C194.23,-41.54 185.75,-42.91 177.56,-44.23"/>
<polygon fill="#63b8ff" stroke="#63b8ff" points="202.81,-43.54 212.13,-38.49 201.7,-36.63 202.81,-43.54"/>
</a>
</g>
</g>
<!-- Node4 -->
<g id="Node000004" class="node">
<title>Node4</title>
<g id="a_Node000004"><a xlink:href="version_8gtest_8cpp.html#a2bdf8dc253b15de63889849be5642724" target="_top" xlink:title=" ">
<polygon fill="white" stroke="#666666" points="145.62,-23 104.88,-23 104.88,0 145.62,0 145.62,-23"/>
<text text-anchor="middle" x="125.25" y="-9.5" font-family="Helvetica,sans-Serif" font-size="10.00">TEST</text>
</a>
</g>
</g>
<!-- Node1&#45;&gt;Node4 -->
<g id="edge3_Node000001_Node000004" class="edge">
<title>Node1&#45;&gt;Node4</title>
<g id="a_edge3_Node000001_Node000004"><a xlink:title=" ">
<path fill="none" stroke="#63b8ff" d="M202.48,-23.2C182.38,-20.12 160.82,-16.81 145.78,-14.5"/>
<polygon fill="#63b8ff" stroke="#63b8ff" points="201.71,-26.78 212.13,-24.84 202.78,-19.86 201.71,-26.78"/>
</a>
</g>
</g>
<!-- Node3 -->
<g id="Node000003" class="node">
<title>Node3</title>
<g id="a_Node000003"><a xlink:href="main_8cpp.html#abf9e6b7e6f15df4b525a2e7705ba3089" target="_top" xlink:title="course c++ developer: hw7 &#45; bulk">
<polygon fill="white" stroke="#666666" points="37,-64 0,-64 0,-41 37,-41 37,-64"/>
<text text-anchor="middle" x="18.5" y="-50.5" font-family="Helvetica,sans-Serif" font-size="10.00">main</text>
</a>
</g>
</g>
<!-- Node2&#45;&gt;Node3 -->
<g id="edge2_Node000002_Node000003" class="edge">
<title>Node2&#45;&gt;Node3</title>
<g id="a_edge2_Node000002_Node000003"><a xlink:title=" ">
<path fill="none" stroke="#63b8ff" d="M62.02,-52.5C52.94,-52.5 44.28,-52.5 37.16,-52.5"/>
<polygon fill="#63b8ff" stroke="#63b8ff" points="61.8,-56 71.8,-52.5 61.8,-49 61.8,-56"/>
</a>
</g>
</g>
</g>
</svg>
