<?xml version="1.0" encoding="UTF-8" standalone="no"?>
<!DOCTYPE svg PUBLIC "-//W3C//DTD SVG 1.1//EN"
 "http://www.w3.org/Graphics/SVG/1.1/DTD/svg11.dtd">
<!-- Generated by graphviz version 8.1.0 (20230707.0739)
 -->
<!-- Title: args::info_requested Pages: 1 -->
<svg width="415pt" height="604pt"
 viewBox="0.00 0.00 415.25 603.50" xmlns="http://www.w3.org/2000/svg" xmlns:xlink="http://www.w3.org/1999/xlink">
<g id="graph0" class="graph" transform="scale(1 1) rotate(0) translate(4 599.5)">
<title>args::info_requested</title>
<!-- Node1 -->
<g id="Node000001" class="node">
<title>Node1</title>
<g id="a_Node000001"><a xlink:title=" ">
<polygon fill="#999999" stroke="#666666" points="104.5,-170.5 0,-170.5 0,-147.5 104.5,-147.5 104.5,-170.5"/>
<text text-anchor="middle" x="52.25" y="-157" font-family="Helvetica,sans-Serif" font-size="10.00">args::info_requested</text>
</a>
</g>
</g>
<!-- Node2 -->
<g id="Node000002" class="node">
<title>Node2</title>
<g id="a_Node000002"><a xlink:href="namespaceinfo.html#adf619fee1b67e68e79a217741803d1c1" target="_top" xlink:title=" ">
<polygon fill="white" stroke="#666666" points="246.5,-310.5 140.5,-310.5 140.5,-287.5 246.5,-287.5 246.5,-310.5"/>
<text text-anchor="middle" x="193.5" y="-297" font-family="Helvetica,sans-Serif" font-size="10.00">info::info_project_full</text>
</a>
</g>
</g>
<!-- Node1&#45;&gt;Node2 -->
<g id="edge1_Node000001_Node000002" class="edge">
<title>Node1&#45;&gt;Node2</title>
<g id="a_edge1_Node000001_Node000002"><a xlink:title=" ">
<path fill="none" stroke="#63b8ff" d="M65.12,-170.94C89.17,-195.11 143.83,-250.07 173.12,-279.51"/>
<polygon fill="#63b8ff" stroke="#63b8ff" points="170.12,-281.47 179.66,-286.09 175.09,-276.54 170.12,-281.47"/>
</a>
</g>
</g>
<!-- Node14 -->
<g id="Node000014" class="node">
<title>Node14</title>
<g id="a_Node000014"><a xlink:href="namespaceinfo.html#a0b0e75f2a6d438265b88d1b0e2b21b52" target="_top" xlink:title=" ">
<polygon fill="white" stroke="#666666" points="388.88,-38 300.88,-38 300.88,0 388.88,0 388.88,-38"/>
<text text-anchor="start" x="308.88" y="-24.5" font-family="Helvetica,sans-Serif" font-size="10.00">info::info_project</text>
<text text-anchor="middle" x="344.88" y="-9.5" font-family="Helvetica,sans-Serif" font-size="10.00">_version</text>
</a>
</g>
</g>
<!-- Node1&#45;&gt;Node14 -->
<g id="edge14_Node000001_Node000014" class="edge">
<title>Node1&#45;&gt;Node14</title>
<g id="a_edge14_Node000001_Node000014"><a xlink:title=" ">
<path fill="none" stroke="#63b8ff" d="M77.24,-147.02C118.86,-126.3 207.2,-82.56 282.5,-47 285.28,-45.69 288.14,-44.35 291.02,-43"/>
<polygon fill="#63b8ff" stroke="#63b8ff" points="292.28,-45.82 299.88,-38.44 289.34,-39.46 292.28,-45.82"/>
</a>
</g>
</g>
<!-- Node3 -->
<g id="Node000003" class="node">
<title>Node3</title>
<g id="a_Node000003"><a xlink:href="namespaceinfo.html#a4f6b5083c272141764c35b0cff843ae7" target="_top" xlink:title=" ">
<polygon fill="white" stroke="#666666" points="405.75,-595.5 284,-595.5 284,-572.5 405.75,-572.5 405.75,-595.5"/>
<text text-anchor="middle" x="344.88" y="-582" font-family="Helvetica,sans-Serif" font-size="10.00">info::info_boost_libraries</text>
</a>
</g>
</g>
<!-- Node2&#45;&gt;Node3 -->
<g id="edge2_Node000002_Node000003" class="edge">
<title>Node2&#45;&gt;Node3</title>
<g id="a_edge2_Node000002_Node000003"><a xlink:title=" ">
<path fill="none" stroke="#63b8ff" d="M194.84,-310.98C196.65,-352.27 208.25,-490.17 282.5,-564 283.1,-564.59 283.71,-565.17 284.34,-565.73"/>
<polygon fill="#63b8ff" stroke="#63b8ff" points="282.13,-569.15 292.32,-572.06 286.17,-563.44 282.13,-569.15"/>
</a>
</g>
</g>
<!-- Node4 -->
<g id="Node000004" class="node">
<title>Node4</title>
<g id="a_Node000004"><a xlink:href="namespaceinfo.html#a35557f9934568e2d7c71bc382a94c359" target="_top" xlink:title=" ">
<polygon fill="white" stroke="#666666" points="404.62,-554.5 285.12,-554.5 285.12,-531.5 404.62,-531.5 404.62,-554.5"/>
<text text-anchor="middle" x="344.88" y="-541" font-family="Helvetica,sans-Serif" font-size="10.00">info::info_boost_version</text>
</a>
</g>
</g>
<!-- Node2&#45;&gt;Node4 -->
<g id="edge3_Node000002_Node000004" class="edge">
<title>Node2&#45;&gt;Node4</title>
<g id="a_edge3_Node000002_Node000004"><a xlink:title=" ">
<path fill="none" stroke="#63b8ff" d="M195.66,-310.93C199.91,-347.96 217.88,-462.11 282.5,-523 283.23,-523.69 283.99,-524.35 284.76,-525"/>
<polygon fill="#63b8ff" stroke="#63b8ff" points="282.54,-528.39 292.79,-531.04 286.43,-522.57 282.54,-528.39"/>
</a>
</g>
</g>
<!-- Node5 -->
<g id="Node000005" class="node">
<title>Node5</title>
<g id="a_Node000005"><a xlink:href="namespaceinfo.html#ad14822b50a586b36ccf5978ab1ac4ec7" target="_top" xlink:title=" ">
<polygon fill="white" stroke="#666666" points="407.25,-513.5 282.5,-513.5 282.5,-490.5 407.25,-490.5 407.25,-513.5"/>
<text text-anchor="middle" x="344.88" y="-500" font-family="Helvetica,sans-Serif" font-size="10.00">info::info_compiler_name</text>
</a>
</g>
</g>
<!-- Node2&#45;&gt;Node5 -->
<g id="edge4_Node000002_Node000005" class="edge">
<title>Node2&#45;&gt;Node5</title>
<g id="a_edge4_Node000002_Node000005"><a xlink:title=" ">
<path fill="none" stroke="#63b8ff" d="M196.86,-310.69C203.92,-342.7 227.86,-432.59 282.5,-481 283.89,-482.23 285.36,-483.39 286.88,-484.49"/>
<polygon fill="#63b8ff" stroke="#63b8ff" points="284.8,-487.91 295.18,-490.04 288.39,-481.9 284.8,-487.91"/>
</a>
</g>
</g>
<!-- Node6 -->
<g id="Node000006" class="node">
<title>Node6</title>
<g id="a_Node000006"><a xlink:href="namespaceinfo.html#ad680bf7ac70dbb1d24b428f55159b013" target="_top" xlink:title=" ">
<polygon fill="white" stroke="#666666" points="392.62,-472 297.12,-472 297.12,-434 392.62,-434 392.62,-472"/>
<text text-anchor="start" x="305.12" y="-458.5" font-family="Helvetica,sans-Serif" font-size="10.00">info::info_compiler</text>
<text text-anchor="middle" x="344.88" y="-443.5" font-family="Helvetica,sans-Serif" font-size="10.00">_version</text>
</a>
</g>
</g>
<!-- Node2&#45;&gt;Node6 -->
<g id="edge5_Node000002_Node000006" class="edge">
<title>Node2&#45;&gt;Node6</title>
<g id="a_edge5_Node000002_Node000006"><a xlink:title=" ">
<path fill="none" stroke="#63b8ff" d="M199.93,-310.63C211.77,-334.88 242.11,-391.36 282.5,-425 284.12,-426.35 285.82,-427.65 287.57,-428.89"/>
<polygon fill="#63b8ff" stroke="#63b8ff" points="285.4,-432.3 295.72,-434.71 289.16,-426.39 285.4,-432.3"/>
</a>
</g>
</g>
<!-- Node7 -->
<g id="Node000007" class="node">
<title>Node7</title>
<g id="a_Node000007"><a xlink:href="namespaceinfo.html#af138dcf75a98d5fb9358ac1ed3800394" target="_top" xlink:title=" ">
<polygon fill="white" stroke="#666666" points="402.38,-415.5 287.38,-415.5 287.38,-392.5 402.38,-392.5 402.38,-415.5"/>
<text text-anchor="middle" x="344.88" y="-402" font-family="Helvetica,sans-Serif" font-size="10.00">info::info_host_system</text>
</a>
</g>
</g>
<!-- Node2&#45;&gt;Node7 -->
<g id="edge6_Node000002_Node000007" class="edge">
<title>Node2&#45;&gt;Node7</title>
<g id="a_edge6_Node000002_Node000007"><a xlink:title=" ">
<path fill="none" stroke="#63b8ff" d="M204.07,-311C219.03,-329.01 249.65,-363.04 282.5,-383 285.3,-384.7 288.25,-386.28 291.29,-387.76"/>
<polygon fill="#63b8ff" stroke="#63b8ff" points="289.63,-391.29 300.19,-392.09 292.43,-384.87 289.63,-391.29"/>
</a>
</g>
</g>
<!-- Node8 -->
<g id="Node000008" class="node">
<title>Node8</title>
<g id="a_Node000008"><a xlink:href="namespaceinfo.html#a28d71fb524538a7bdfbb1483a8a3a4cb" target="_top" xlink:title=" ">
<polygon fill="white" stroke="#666666" points="388.88,-374 300.88,-374 300.88,-336 388.88,-336 388.88,-374"/>
<text text-anchor="start" x="308.88" y="-360.5" font-family="Helvetica,sans-Serif" font-size="10.00">info::info_project</text>
<text text-anchor="middle" x="344.88" y="-345.5" font-family="Helvetica,sans-Serif" font-size="10.00">_author</text>
</a>
</g>
</g>
<!-- Node2&#45;&gt;Node8 -->
<g id="edge7_Node000002_Node000008" class="edge">
<title>Node2&#45;&gt;Node8</title>
<g id="a_edge7_Node000002_Node000008"><a xlink:title=" ">
<path fill="none" stroke="#63b8ff" d="M226.18,-310.88C244.88,-317.89 269.05,-326.95 290.61,-335.03"/>
<polygon fill="#63b8ff" stroke="#63b8ff" points="289.03,-338.55 299.63,-338.79 291.49,-332 289.03,-338.55"/>
</a>
</g>
</g>
<!-- Node9 -->
<g id="Node000009" class="node">
<title>Node9</title>
<g id="a_Node000009"><a xlink:href="namespaceinfo.html#aae86ae087e0d5fde160d4328e106c21f" target="_top" xlink:title=" ">
<polygon fill="white" stroke="#666666" points="394.5,-318 295.25,-318 295.25,-280 394.5,-280 394.5,-318"/>
<text text-anchor="start" x="303.25" y="-304.5" font-family="Helvetica,sans-Serif" font-size="10.00">info::info_project</text>
<text text-anchor="middle" x="344.88" y="-289.5" font-family="Helvetica,sans-Serif" font-size="10.00">_repository_branch</text>
</a>
</g>
</g>
<!-- Node2&#45;&gt;Node9 -->
<g id="edge8_Node000002_Node000009" class="edge">
<title>Node2&#45;&gt;Node9</title>
<g id="a_edge8_Node000002_Node000009"><a xlink:title=" ">
<path fill="none" stroke="#63b8ff" d="M246.74,-299C258.85,-299 271.82,-299 284.21,-299"/>
<polygon fill="#63b8ff" stroke="#63b8ff" points="283.92,-302.5 293.92,-299 283.92,-295.5 283.92,-302.5"/>
</a>
</g>
</g>
<!-- Node10 -->
<g id="Node000010" class="node">
<title>Node10</title>
<g id="a_Node000010"><a xlink:href="namespaceinfo.html#ace228211052ca615450b84d638e882a7" target="_top" xlink:title=" ">
<polygon fill="white" stroke="#666666" points="388.88,-262 300.88,-262 300.88,-224 388.88,-224 388.88,-262"/>
<text text-anchor="start" x="308.88" y="-248.5" font-family="Helvetica,sans-Serif" font-size="10.00">info::info_project</text>
<text text-anchor="middle" x="344.88" y="-233.5" font-family="Helvetica,sans-Serif" font-size="10.00">_repository_url</text>
</a>
</g>
</g>
<!-- Node2&#45;&gt;Node10 -->
<g id="edge9_Node000002_Node000010" class="edge">
<title>Node2&#45;&gt;Node10</title>
<g id="a_edge9_Node000002_Node000010"><a xlink:title=" ">
<path fill="none" stroke="#63b8ff" d="M226.18,-287.12C244.88,-280.11 269.05,-271.05 290.61,-262.97"/>
<polygon fill="#63b8ff" stroke="#63b8ff" points="291.49,-266 299.63,-259.21 289.03,-259.45 291.49,-266"/>
</a>
</g>
</g>
<!-- Node11 -->
<g id="Node000011" class="node">
<title>Node11</title>
<g id="a_Node000011"><a xlink:href="namespaceinfo.html#ab6318ad2c6e0287114caeea0c9434a94" target="_top" xlink:title=" ">
<polygon fill="white" stroke="#666666" points="388.88,-206 300.88,-206 300.88,-168 388.88,-168 388.88,-206"/>
<text text-anchor="start" x="308.88" y="-192.5" font-family="Helvetica,sans-Serif" font-size="10.00">info::info_project</text>
<text text-anchor="middle" x="344.88" y="-177.5" font-family="Helvetica,sans-Serif" font-size="10.00">_revision</text>
</a>
</g>
</g>
<!-- Node2&#45;&gt;Node11 -->
<g id="edge10_Node000002_Node000011" class="edge">
<title>Node2&#45;&gt;Node11</title>
<g id="a_edge10_Node000002_Node000011"><a xlink:title=" ">
<path fill="none" stroke="#63b8ff" d="M204.58,-287.11C219.96,-269.55 250.84,-236.43 282.5,-215 285.22,-213.16 288.09,-211.38 291.03,-209.68"/>
<polygon fill="#63b8ff" stroke="#63b8ff" points="292.48,-212.33 299.62,-204.51 289.16,-206.17 292.48,-212.33"/>
</a>
</g>
</g>
<!-- Node12 -->
<g id="Node000012" class="node">
<title>Node12</title>
<g id="a_Node000012"><a xlink:href="namespaceinfo.html#a5600a5c71779aaecafbe4fff68152d02" target="_top" xlink:title=" ">
<polygon fill="white" stroke="#666666" points="393.75,-150 296,-150 296,-112 393.75,-112 393.75,-150"/>
<text text-anchor="start" x="304" y="-136.5" font-family="Helvetica,sans-Serif" font-size="10.00">info::info_project</text>
<text text-anchor="middle" x="344.88" y="-121.5" font-family="Helvetica,sans-Serif" font-size="10.00">_revision_datetime</text>
</a>
</g>
</g>
<!-- Node2&#45;&gt;Node12 -->
<g id="edge11_Node000002_Node000012" class="edge">
<title>Node2&#45;&gt;Node12</title>
<g id="a_edge11_Node000002_Node000012"><a xlink:title=" ">
<path fill="none" stroke="#63b8ff" d="M199.09,-287.26C209.88,-260.99 239.29,-196.81 282.5,-159 283.86,-157.81 285.29,-156.66 286.76,-155.55"/>
<polygon fill="#63b8ff" stroke="#63b8ff" points="288.23,-158.1 294.61,-149.64 284.35,-152.28 288.23,-158.1"/>
</a>
</g>
</g>
<!-- Node13 -->
<g id="Node000013" class="node">
<title>Node13</title>
<g id="a_Node000013"><a xlink:href="namespaceinfo.html#a9d8c1cc05c7db3face2e4a8b5fc29539" target="_top" xlink:title=" ">
<polygon fill="white" stroke="#666666" points="390,-94 299.75,-94 299.75,-56 390,-56 390,-94"/>
<text text-anchor="start" x="307.75" y="-80.5" font-family="Helvetica,sans-Serif" font-size="10.00">info::info_project</text>
<text text-anchor="middle" x="344.88" y="-65.5" font-family="Helvetica,sans-Serif" font-size="10.00">_revision_history</text>
</a>
</g>
</g>
<!-- Node2&#45;&gt;Node13 -->
<g id="edge12_Node000002_Node000013" class="edge">
<title>Node2&#45;&gt;Node13</title>
<g id="a_edge12_Node000002_Node000013"><a xlink:title=" ">
<path fill="none" stroke="#63b8ff" d="M198.56,-287.19C211.77,-249.25 254.36,-131.31 282.5,-103 284.86,-100.63 287.46,-98.43 290.21,-96.41"/>
<polygon fill="#63b8ff" stroke="#63b8ff" points="291.89,-98.85 298.43,-90.52 288.12,-92.95 291.89,-98.85"/>
</a>
</g>
</g>
<!-- Node2&#45;&gt;Node14 -->
<g id="edge13_Node000002_Node000014" class="edge">
<title>Node2&#45;&gt;Node14</title>
<g id="a_edge13_Node000002_Node000014"><a xlink:title=" ">
<path fill="none" stroke="#63b8ff" d="M198.74,-287.29C207.68,-262.53 229.08,-203.06 246.5,-153 262.85,-106.01 249.13,-83.91 282.5,-47 285.17,-44.05 288.21,-41.38 291.49,-38.99"/>
<polygon fill="#63b8ff" stroke="#63b8ff" points="292.99,-41.54 299.57,-33.24 289.25,-35.63 292.99,-41.54"/>
</a>
</g>
</g>
</g>
</svg>
