<?xml version="1.0" encoding="UTF-8" standalone="no"?>
<!DOCTYPE svg PUBLIC "-//W3C//DTD SVG 1.1//EN"
 "http://www.w3.org/Graphics/SVG/1.1/DTD/svg11.dtd">
<!-- Generated by graphviz version 8.1.0 (20230707.0739)
 -->
<!-- Title: info::info_project_full Pages: 1 -->
<svg width="275pt" height="604pt"
 viewBox="0.00 0.00 274.75 603.50" xmlns="http://www.w3.org/2000/svg" xmlns:xlink="http://www.w3.org/1999/xlink">
<g id="graph0" class="graph" transform="scale(1 1) rotate(0) translate(4 599.5)">
<title>info::info_project_full</title>
<!-- Node1 -->
<g id="Node000001" class="node">
<title>Node1</title>
<g id="a_Node000001"><a xlink:title=" ">
<polygon fill="#999999" stroke="#666666" points="106,-338.5 0,-338.5 0,-315.5 106,-315.5 106,-338.5"/>
<text text-anchor="middle" x="53" y="-325" font-family="Helvetica,sans-Serif" font-size="10.00">info::info_project_full</text>
</a>
</g>
</g>
<!-- Node2 -->
<g id="Node000002" class="node">
<title>Node2</title>
<g id="a_Node000002"><a xlink:href="namespaceinfo.html#a4f6b5083c272141764c35b0cff843ae7" target="_top" xlink:title=" ">
<polygon fill="white" stroke="#666666" points="265.25,-595.5 143.5,-595.5 143.5,-572.5 265.25,-572.5 265.25,-595.5"/>
<text text-anchor="middle" x="204.38" y="-582" font-family="Helvetica,sans-Serif" font-size="10.00">info::info_boost_libraries</text>
</a>
</g>
</g>
<!-- Node1&#45;&gt;Node2 -->
<g id="edge1_Node000001_Node000002" class="edge">
<title>Node1&#45;&gt;Node2</title>
<g id="a_edge1_Node000001_Node000002"><a xlink:title=" ">
<path fill="none" stroke="#63b8ff" d="M54.86,-338.79C58.28,-377.04 74.25,-498.94 142,-564 142.72,-564.7 143.47,-565.37 144.25,-566.02"/>
<polygon fill="#63b8ff" stroke="#63b8ff" points="141.99,-569.39 152.23,-572.11 145.92,-563.6 141.99,-569.39"/>
</a>
</g>
</g>
<!-- Node3 -->
<g id="Node000003" class="node">
<title>Node3</title>
<g id="a_Node000003"><a xlink:href="namespaceinfo.html#a35557f9934568e2d7c71bc382a94c359" target="_top" xlink:title=" ">
<polygon fill="white" stroke="#666666" points="264.12,-554.5 144.62,-554.5 144.62,-531.5 264.12,-531.5 264.12,-554.5"/>
<text text-anchor="middle" x="204.38" y="-541" font-family="Helvetica,sans-Serif" font-size="10.00">info::info_boost_version</text>
</a>
</g>
</g>
<!-- Node1&#45;&gt;Node3 -->
<g id="edge2_Node000001_Node000003" class="edge">
<title>Node1&#45;&gt;Node3</title>
<g id="a_edge2_Node000001_Node000003"><a xlink:title=" ">
<path fill="none" stroke="#63b8ff" d="M55.86,-338.64C61.84,-372.3 83.73,-470.65 142,-523 142.88,-523.79 143.78,-524.54 144.72,-525.27"/>
<polygon fill="#63b8ff" stroke="#63b8ff" points="142.44,-528.61 152.75,-531.03 146.21,-522.7 142.44,-528.61"/>
</a>
</g>
</g>
<!-- Node4 -->
<g id="Node000004" class="node">
<title>Node4</title>
<g id="a_Node000004"><a xlink:href="namespaceinfo.html#ad14822b50a586b36ccf5978ab1ac4ec7" target="_top" xlink:title=" ">
<polygon fill="white" stroke="#666666" points="266.75,-513.5 142,-513.5 142,-490.5 266.75,-490.5 266.75,-513.5"/>
<text text-anchor="middle" x="204.38" y="-500" font-family="Helvetica,sans-Serif" font-size="10.00">info::info_compiler_name</text>
</a>
</g>
</g>
<!-- Node1&#45;&gt;Node4 -->
<g id="edge3_Node000001_Node000004" class="edge">
<title>Node1&#45;&gt;Node4</title>
<g id="a_edge3_Node000001_Node000004"><a xlink:title=" ">
<path fill="none" stroke="#63b8ff" d="M57.56,-338.95C66.71,-367.68 93.82,-441.18 142,-481 143.63,-482.35 145.35,-483.61 147.13,-484.79"/>
<polygon fill="#63b8ff" stroke="#63b8ff" points="145.11,-488.22 155.54,-490.06 148.53,-482.12 145.11,-488.22"/>
</a>
</g>
</g>
<!-- Node5 -->
<g id="Node000005" class="node">
<title>Node5</title>
<g id="a_Node000005"><a xlink:href="namespaceinfo.html#ad680bf7ac70dbb1d24b428f55159b013" target="_top" xlink:title=" ">
<polygon fill="white" stroke="#666666" points="252.12,-472 156.62,-472 156.62,-434 252.12,-434 252.12,-472"/>
<text text-anchor="start" x="164.62" y="-458.5" font-family="Helvetica,sans-Serif" font-size="10.00">info::info_compiler</text>
<text text-anchor="middle" x="204.38" y="-443.5" font-family="Helvetica,sans-Serif" font-size="10.00">_version</text>
</a>
</g>
</g>
<!-- Node1&#45;&gt;Node5 -->
<g id="edge4_Node000001_Node000005" class="edge">
<title>Node1&#45;&gt;Node5</title>
<g id="a_edge4_Node000001_Node000005"><a xlink:title=" ">
<path fill="none" stroke="#63b8ff" d="M61.99,-338.68C76.14,-358.63 107.35,-399.55 142,-425 143.66,-426.22 145.39,-427.41 147.16,-428.56"/>
<polygon fill="#63b8ff" stroke="#63b8ff" points="144.93,-431.9 155.32,-434 148.51,-425.88 144.93,-431.9"/>
</a>
</g>
</g>
<!-- Node6 -->
<g id="Node000006" class="node">
<title>Node6</title>
<g id="a_Node000006"><a xlink:href="namespaceinfo.html#af138dcf75a98d5fb9358ac1ed3800394" target="_top" xlink:title=" ">
<polygon fill="white" stroke="#666666" points="261.88,-415.5 146.88,-415.5 146.88,-392.5 261.88,-392.5 261.88,-415.5"/>
<text text-anchor="middle" x="204.38" y="-402" font-family="Helvetica,sans-Serif" font-size="10.00">info::info_host_system</text>
</a>
</g>
</g>
<!-- Node1&#45;&gt;Node6 -->
<g id="edge5_Node000001_Node000006" class="edge">
<title>Node1&#45;&gt;Node6</title>
<g id="a_edge5_Node000001_Node000006"><a xlink:title=" ">
<path fill="none" stroke="#63b8ff" d="M70.19,-338.96C87.34,-351.24 115.56,-370.29 142,-383 145.77,-384.81 149.75,-386.55 153.78,-388.18"/>
<polygon fill="#63b8ff" stroke="#63b8ff" points="152.27,-391.73 162.86,-392.03 154.76,-385.19 152.27,-391.73"/>
</a>
</g>
</g>
<!-- Node7 -->
<g id="Node000007" class="node">
<title>Node7</title>
<g id="a_Node000007"><a xlink:href="namespaceinfo.html#a28d71fb524538a7bdfbb1483a8a3a4cb" target="_top" xlink:title=" ">
<polygon fill="white" stroke="#666666" points="248.38,-374 160.38,-374 160.38,-336 248.38,-336 248.38,-374"/>
<text text-anchor="start" x="168.38" y="-360.5" font-family="Helvetica,sans-Serif" font-size="10.00">info::info_project</text>
<text text-anchor="middle" x="204.38" y="-345.5" font-family="Helvetica,sans-Serif" font-size="10.00">_author</text>
</a>
</g>
</g>
<!-- Node1&#45;&gt;Node7 -->
<g id="edge6_Node000001_Node000007" class="edge">
<title>Node1&#45;&gt;Node7</title>
<g id="a_edge6_Node000001_Node000007"><a xlink:title=" ">
<path fill="none" stroke="#63b8ff" d="M106.24,-336.79C120.32,-339.43 135.57,-342.29 149.73,-344.94"/>
<polygon fill="#63b8ff" stroke="#63b8ff" points="148.83,-348.52 159.3,-346.93 150.12,-341.64 148.83,-348.52"/>
</a>
</g>
</g>
<!-- Node8 -->
<g id="Node000008" class="node">
<title>Node8</title>
<g id="a_Node000008"><a xlink:href="namespaceinfo.html#aae86ae087e0d5fde160d4328e106c21f" target="_top" xlink:title=" ">
<polygon fill="white" stroke="#666666" points="254,-318 154.75,-318 154.75,-280 254,-280 254,-318"/>
<text text-anchor="start" x="162.75" y="-304.5" font-family="Helvetica,sans-Serif" font-size="10.00">info::info_project</text>
<text text-anchor="middle" x="204.38" y="-289.5" font-family="Helvetica,sans-Serif" font-size="10.00">_repository_branch</text>
</a>
</g>
</g>
<!-- Node1&#45;&gt;Node8 -->
<g id="edge7_Node000001_Node000008" class="edge">
<title>Node1&#45;&gt;Node8</title>
<g id="a_edge7_Node000001_Node000008"><a xlink:title=" ">
<path fill="none" stroke="#63b8ff" d="M106.24,-317.21C118.35,-314.94 131.32,-312.51 143.71,-310.18"/>
<polygon fill="#63b8ff" stroke="#63b8ff" points="144.23,-313.46 153.42,-308.18 142.95,-306.58 144.23,-313.46"/>
</a>
</g>
</g>
<!-- Node9 -->
<g id="Node000009" class="node">
<title>Node9</title>
<g id="a_Node000009"><a xlink:href="namespaceinfo.html#ace228211052ca615450b84d638e882a7" target="_top" xlink:title=" ">
<polygon fill="white" stroke="#666666" points="248.38,-262 160.38,-262 160.38,-224 248.38,-224 248.38,-262"/>
<text text-anchor="start" x="168.38" y="-248.5" font-family="Helvetica,sans-Serif" font-size="10.00">info::info_project</text>
<text text-anchor="middle" x="204.38" y="-233.5" font-family="Helvetica,sans-Serif" font-size="10.00">_repository_url</text>
</a>
</g>
</g>
<!-- Node1&#45;&gt;Node9 -->
<g id="edge8_Node000001_Node000009" class="edge">
<title>Node1&#45;&gt;Node9</title>
<g id="a_edge8_Node000001_Node000009"><a xlink:title=" ">
<path fill="none" stroke="#63b8ff" d="M71.1,-315.11C88.53,-303.24 116.54,-284.82 142,-271 144.7,-269.53 147.49,-268.07 150.33,-266.63"/>
<polygon fill="#63b8ff" stroke="#63b8ff" points="151.65,-269.39 159.08,-261.84 148.56,-263.11 151.65,-269.39"/>
</a>
</g>
</g>
<!-- Node10 -->
<g id="Node000010" class="node">
<title>Node10</title>
<g id="a_Node000010"><a xlink:href="namespaceinfo.html#ab6318ad2c6e0287114caeea0c9434a94" target="_top" xlink:title=" ">
<polygon fill="white" stroke="#666666" points="248.38,-206 160.38,-206 160.38,-168 248.38,-168 248.38,-206"/>
<text text-anchor="start" x="168.38" y="-192.5" font-family="Helvetica,sans-Serif" font-size="10.00">info::info_project</text>
<text text-anchor="middle" x="204.38" y="-177.5" font-family="Helvetica,sans-Serif" font-size="10.00">_revision</text>
</a>
</g>
</g>
<!-- Node1&#45;&gt;Node10 -->
<g id="edge9_Node000001_Node000010" class="edge">
<title>Node1&#45;&gt;Node10</title>
<g id="a_edge9_Node000001_Node000010"><a xlink:title=" ">
<path fill="none" stroke="#63b8ff" d="M60.75,-315C73.84,-292.68 104.68,-244.35 142,-215 144.72,-212.86 147.62,-210.85 150.63,-208.95"/>
<polygon fill="#63b8ff" stroke="#63b8ff" points="151.99,-211.64 158.93,-203.64 148.51,-205.57 151.99,-211.64"/>
</a>
</g>
</g>
<!-- Node11 -->
<g id="Node000011" class="node">
<title>Node11</title>
<g id="a_Node000011"><a xlink:href="namespaceinfo.html#a5600a5c71779aaecafbe4fff68152d02" target="_top" xlink:title=" ">
<polygon fill="white" stroke="#666666" points="253.25,-150 155.5,-150 155.5,-112 253.25,-112 253.25,-150"/>
<text text-anchor="start" x="163.5" y="-136.5" font-family="Helvetica,sans-Serif" font-size="10.00">info::info_project</text>
<text text-anchor="middle" x="204.38" y="-121.5" font-family="Helvetica,sans-Serif" font-size="10.00">_revision_datetime</text>
</a>
</g>
</g>
<!-- Node1&#45;&gt;Node11 -->
<g id="edge10_Node000001_Node000011" class="edge">
<title>Node1&#45;&gt;Node11</title>
<g id="a_edge10_Node000001_Node000011"><a xlink:title=" ">
<path fill="none" stroke="#63b8ff" d="M57.25,-315.18C66.04,-285.22 92.99,-205.41 142,-159 143.34,-157.73 144.76,-156.5 146.22,-155.33"/>
<polygon fill="#63b8ff" stroke="#63b8ff" points="147.92,-157.72 154.13,-149.13 143.92,-151.97 147.92,-157.72"/>
</a>
</g>
</g>
<!-- Node12 -->
<g id="Node000012" class="node">
<title>Node12</title>
<g id="a_Node000012"><a xlink:href="namespaceinfo.html#a9d8c1cc05c7db3face2e4a8b5fc29539" target="_top" xlink:title=" ">
<polygon fill="white" stroke="#666666" points="249.5,-94 159.25,-94 159.25,-56 249.5,-56 249.5,-94"/>
<text text-anchor="start" x="167.25" y="-80.5" font-family="Helvetica,sans-Serif" font-size="10.00">info::info_project</text>
<text text-anchor="middle" x="204.38" y="-65.5" font-family="Helvetica,sans-Serif" font-size="10.00">_revision_history</text>
</a>
</g>
</g>
<!-- Node1&#45;&gt;Node12 -->
<g id="edge11_Node000001_Node000012" class="edge">
<title>Node1&#45;&gt;Node12</title>
<g id="a_edge11_Node000001_Node000012"><a xlink:title=" ">
<path fill="none" stroke="#63b8ff" d="M55.51,-315.12C60.71,-278.72 81.07,-167.29 142,-103 144.42,-100.45 147.11,-98.11 149.98,-95.97"/>
<polygon fill="#63b8ff" stroke="#63b8ff" points="151.53,-98.5 158.03,-90.14 147.73,-92.61 151.53,-98.5"/>
</a>
</g>
</g>
<!-- Node13 -->
<g id="Node000013" class="node">
<title>Node13</title>
<g id="a_Node000013"><a xlink:href="namespaceinfo.html#a0b0e75f2a6d438265b88d1b0e2b21b52" target="_top" xlink:title=" ">
<polygon fill="white" stroke="#666666" points="248.38,-38 160.38,-38 160.38,0 248.38,0 248.38,-38"/>
<text text-anchor="start" x="168.38" y="-24.5" font-family="Helvetica,sans-Serif" font-size="10.00">info::info_project</text>
<text text-anchor="middle" x="204.38" y="-9.5" font-family="Helvetica,sans-Serif" font-size="10.00">_version</text>
</a>
</g>
</g>
<!-- Node1&#45;&gt;Node13 -->
<g id="edge12_Node000001_Node000013" class="edge">
<title>Node1&#45;&gt;Node13</title>
<g id="a_edge12_Node000001_Node000013"><a xlink:title=" ">
<path fill="none" stroke="#63b8ff" d="M54.41,-315.25C56.46,-273.43 68.79,-129.86 142,-47 144.64,-44.02 147.66,-41.33 150.91,-38.92"/>
<polygon fill="#63b8ff" stroke="#63b8ff" points="152.41,-41.47 158.96,-33.15 148.65,-35.57 152.41,-41.47"/>
</a>
</g>
</g>
</g>
</svg>
