<?xml version="1.0" encoding="UTF-8" standalone="no"?>
<!DOCTYPE svg PUBLIC "-//W3C//DTD SVG 1.1//EN"
 "http://www.w3.org/Graphics/SVG/1.1/DTD/svg11.dtd">
<!-- Generated by graphviz version 8.1.0 (20230707.0739)
 -->
<!-- Title: info::info_project_version Pages: 1 -->
<svg width="452pt" height="112pt"
 viewBox="0.00 0.00 451.50 112.00" xmlns="http://www.w3.org/2000/svg" xmlns:xlink="http://www.w3.org/1999/xlink">

<svg id="main" version="1.1" xmlns="http://www.w3.org/2000/svg" xmlns:xlink="http://www.w3.org/1999/xlink" xml:space="preserve" onload="init(evt)">
<style type="text/css"><![CDATA[
.node, .edge {opacity: 0.7;}
.node.selected, .edge.selected {opacity: 1;}
.edge:hover path { stroke: red; }
.edge:hover polygon { stroke: red; fill: red; }
]]></style>
<script type="application/ecmascript" xlink:href="svg.min.js"/>
<svg id="graph" class="graph">
<g id="graph0" class="graph" transform="scale(1 1) rotate(0) translate(4 108)">
<title>info::info_project_version</title>
<!-- Node1 -->
<g id="Node000001" class="node">
<title>Node1</title>
<g id="a_Node000001"><a xlink:title=" ">
<polygon fill="#999999" stroke="#666666" points="443.5,-71.5 355.5,-71.5 355.5,-33.5 443.5,-33.5 443.5,-71.5"/>
<text text-anchor="start" x="363.5" y="-58" font-family="Helvetica,sans-Serif" font-size="10.00">info::info_project</text>
<text text-anchor="middle" x="399.5" y="-43" font-family="Helvetica,sans-Serif" font-size="10.00">_version</text>
</a>
</g>
</g>
<!-- Node2 -->
<g id="Node000002" class="node">
<title>Node2</title>
<g id="a_Node000002"><a xlink:href="namespaceinfo.html#adf619fee1b67e68e79a217741803d1c1" target="_top" xlink:title=" ">
<polygon fill="white" stroke="#666666" points="319.5,-64 213.5,-64 213.5,-41 319.5,-41 319.5,-64"/>
<text text-anchor="middle" x="266.5" y="-50.5" font-family="Helvetica,sans-Serif" font-size="10.00">info::info_project_full</text>
</a>
</g>
</g>
<!-- Node1&#45;&gt;Node2 -->
<g id="edge1_Node000001_Node000002" class="edge">
<title>Node1&#45;&gt;Node2</title>
<g id="a_edge1_Node000001_Node000002"><a xlink:title=" ">
<path fill="none" stroke="#63b8ff" d="M344.38,-52.5C336.26,-52.5 327.91,-52.5 319.83,-52.5"/>
<polygon fill="#63b8ff" stroke="#63b8ff" points="344.24,-56 354.24,-52.5 344.24,-49 344.24,-56"/>
</a>
</g>
</g>
<!-- Node3 -->
<g id="Node000003" class="node">
<title>Node3</title>
<g id="a_Node000003"><a xlink:href="namespaceargs.html#ac5abfe1ee497dcb11ea7435db4aed06d" target="_top" xlink:title=" ">
<polygon fill="white" stroke="#666666" points="177.5,-104 73,-104 73,-81 177.5,-81 177.5,-104"/>
<text text-anchor="middle" x="125.25" y="-90.5" font-family="Helvetica,sans-Serif" font-size="10.00">args::info_requested</text>
</a>
</g>
</g>
<!-- Node1&#45;&gt;Node3 -->
<g id="edge5_Node000001_Node000003" class="edge">
<title>Node1&#45;&gt;Node3</title>
<g id="a_edge5_Node000001_Node000003"><a xlink:title=" ">
<path fill="none" stroke="#63b8ff" d="M344.78,-67.21C336.36,-69.19 327.73,-71.04 319.5,-72.5 271.84,-80.95 216.89,-86.21 177.8,-89.2"/>
<polygon fill="#63b8ff" stroke="#63b8ff" points="345.4,-70.42 354.28,-64.64 343.74,-63.61 345.4,-70.42"/>
</a>
</g>
</g>
<!-- Node6 -->
<g id="Node000006" class="node">
<title>Node6</title>
<g id="a_Node000006"><a xlink:href="version_8gtest_8cpp.html#a2bdf8dc253b15de63889849be5642724" target="_top" xlink:title=" ">
<polygon fill="white" stroke="#666666" points="286.88,-23 246.12,-23 246.12,0 286.88,0 286.88,-23"/>
<text text-anchor="middle" x="266.5" y="-9.5" font-family="Helvetica,sans-Serif" font-size="10.00">TEST</text>
</a>
</g>
</g>
<!-- Node1&#45;&gt;Node6 -->
<g id="edge6_Node000001_Node000006" class="edge">
<title>Node1&#45;&gt;Node6</title>
<g id="a_edge6_Node000001_Node000006"><a xlink:title=" ">
<path fill="none" stroke="#63b8ff" d="M344.79,-35.69C324.45,-29.32 302.54,-22.47 287.26,-17.68"/>
<polygon fill="#63b8ff" stroke="#63b8ff" points="343.65,-39.31 354.24,-38.96 345.74,-32.63 343.65,-39.31"/>
</a>
</g>
</g>
<!-- Node2&#45;&gt;Node3 -->
<g id="edge2_Node000002_Node000003" class="edge">
<title>Node2&#45;&gt;Node3</title>
<g id="a_edge2_Node000002_Node000003"><a xlink:title=" ">
<path fill="none" stroke="#63b8ff" d="M213.81,-67.35C198.62,-71.71 182.2,-76.43 167.73,-80.58"/>
<polygon fill="#63b8ff" stroke="#63b8ff" points="214.45,-70.52 223.1,-64.39 212.52,-63.79 214.45,-70.52"/>
</a>
</g>
</g>
<!-- Node5 -->
<g id="Node000005" class="node">
<title>Node5</title>
<g id="a_Node000005"><a xlink:href="version_8gtest_8cpp.html#a5d030007d0415495a5fe6465d08c90ca" target="_top" xlink:title=" ">
<polygon fill="white" stroke="#666666" points="145.62,-63 104.88,-63 104.88,-40 145.62,-40 145.62,-63"/>
<text text-anchor="middle" x="125.25" y="-49.5" font-family="Helvetica,sans-Serif" font-size="10.00">TEST</text>
</a>
</g>
</g>
<!-- Node2&#45;&gt;Node5 -->
<g id="edge4_Node000002_Node000005" class="edge">
<title>Node2&#45;&gt;Node5</title>
<g id="a_edge4_Node000002_Node000005"><a xlink:title=" ">
<path fill="none" stroke="#63b8ff" d="M202.38,-52.05C181.99,-51.9 160.86,-51.75 146.04,-51.64"/>
<polygon fill="#63b8ff" stroke="#63b8ff" points="202.23,-55.55 212.25,-52.12 202.28,-48.55 202.23,-55.55"/>
</a>
</g>
</g>
<!-- Node4 -->
<g id="Node000004" class="node">
<title>Node4</title>
<g id="a_Node000004"><a xlink:href="main_8cpp.html#abf9e6b7e6f15df4b525a2e7705ba3089" target="_top" xlink:title="course c++ developer: hw7 &#45; bulk">
<polygon fill="white" stroke="#666666" points="37,-104 0,-104 0,-81 37,-81 37,-104"/>
<text text-anchor="middle" x="18.5" y="-90.5" font-family="Helvetica,sans-Serif" font-size="10.00">main</text>
</a>
</g>
</g>
<!-- Node3&#45;&gt;Node4 -->
<g id="edge3_Node000003_Node000004" class="edge">
<title>Node3&#45;&gt;Node4</title>
<g id="a_edge3_Node000003_Node000004"><a xlink:title=" ">
<path fill="none" stroke="#63b8ff" d="M62.02,-92.5C52.94,-92.5 44.28,-92.5 37.16,-92.5"/>
<polygon fill="#63b8ff" stroke="#63b8ff" points="61.8,-96 71.8,-92.5 61.8,-89 61.8,-96"/>
</a>
</g>
</g>
</g>
</svg>
</svg>

<style type='text/css'>
<![CDATA[
[data-mouse-over-selected='false'] { opacity: 0.7; }
[data-mouse-over-selected='true']  { opacity: 1.0; }
]]>
</style>
<script type="application/ecmascript"><![CDATA[
document.addEventListener('DOMContentLoaded', (event) => {
  highlightEdges();
  highlightAdjacentNodes();
});
]]></script>
</svg>
