<?xml version="1.0" encoding="UTF-8" standalone="no"?>
<!DOCTYPE svg PUBLIC "-//W3C//DTD SVG 1.1//EN"
 "http://www.w3.org/Graphics/SVG/1.1/DTD/svg11.dtd">
<!-- Generated by graphviz version 8.1.0 (20230707.0739)
 -->
<!-- Title: utils::rtrim Pages: 1 -->
<svg width="544pt" height="80pt"
 viewBox="0.00 0.00 543.75 79.50" xmlns="http://www.w3.org/2000/svg" xmlns:xlink="http://www.w3.org/1999/xlink">
<g id="graph0" class="graph" transform="scale(1 1) rotate(0) translate(4 75.5)">
<title>utils::rtrim</title>
<!-- Node1 -->
<g id="Node000001" class="node">
<title>Node1</title>
<g id="a_Node000001"><a xlink:title=" ">
<polygon fill="#999999" stroke="#666666" points="535.75,-43 475.5,-43 475.5,-20 535.75,-20 535.75,-43"/>
<text text-anchor="middle" x="505.62" y="-29.5" font-family="Helvetica,sans-Serif" font-size="10.00">utils::rtrim</text>
</a>
</g>
</g>
<!-- Node2 -->
<g id="Node000002" class="node">
<title>Node2</title>
<g id="a_Node000002"><a xlink:href="namespaceutils.html#af77d46f5a6a71518d18de591874f0456" target="_top" xlink:title=" ">
<polygon fill="white" stroke="#666666" points="439.5,-64 383,-64 383,-41 439.5,-41 439.5,-64"/>
<text text-anchor="middle" x="411.25" y="-50.5" font-family="Helvetica,sans-Serif" font-size="10.00">utils::trim</text>
</a>
</g>
</g>
<!-- Node1&#45;&gt;Node2 -->
<g id="edge1_Node000001_Node000002" class="edge">
<title>Node1&#45;&gt;Node2</title>
<g id="a_edge1_Node000001_Node000002"><a xlink:title=" ">
<path fill="none" stroke="#63b8ff" d="M464.48,-40.63C456.18,-42.51 447.61,-44.46 439.88,-46.22"/>
<polygon fill="#63b8ff" stroke="#63b8ff" points="465.17,-43.83 474.14,-38.2 463.62,-37.01 465.17,-43.83"/>
</a>
</g>
</g>
<!-- Node5 -->
<g id="Node000005" class="node">
<title>Node5</title>
<g id="a_Node000005"><a xlink:href="namespaceutils.html#a521bd7cbb9343e872119c6848ccdce91" target="_top" xlink:title=" ">
<polygon fill="white" stroke="#666666" points="439.5,-23 383,-23 383,0 439.5,0 439.5,-23"/>
<text text-anchor="middle" x="411.25" y="-9.5" font-family="Helvetica,sans-Serif" font-size="10.00">utils::trim</text>
</a>
</g>
</g>
<!-- Node1&#45;&gt;Node5 -->
<g id="edge4_Node000001_Node000005" class="edge">
<title>Node1&#45;&gt;Node5</title>
<g id="a_edge4_Node000001_Node000005"><a xlink:title=" ">
<path fill="none" stroke="#63b8ff" d="M464.48,-22.81C456.18,-21.01 447.61,-19.16 439.88,-17.48"/>
<polygon fill="#63b8ff" stroke="#63b8ff" points="463.63,-26.42 474.14,-25.12 465.11,-19.58 463.63,-26.42"/>
</a>
</g>
</g>
<!-- Node3 -->
<g id="Node000003" class="node">
<title>Node3</title>
<g id="a_Node000003"><a xlink:href="classcmd_1_1provider_1_1ConsoleParser.html#a6fe1081ace8221b60aa8f996d9c91099" target="_top" xlink:title=" ">
<polygon fill="white" stroke="#666666" points="347,-71.5 201.25,-71.5 201.25,-33.5 347,-33.5 347,-71.5"/>
<text text-anchor="start" x="209.25" y="-58" font-family="Helvetica,sans-Serif" font-size="10.00">cmd::provider::ConsoleParser</text>
<text text-anchor="middle" x="274.12" y="-43" font-family="Helvetica,sans-Serif" font-size="10.00">::advance</text>
</a>
</g>
</g>
<!-- Node2&#45;&gt;Node3 -->
<g id="edge2_Node000002_Node000003" class="edge">
<title>Node2&#45;&gt;Node3</title>
<g id="a_edge2_Node000002_Node000003"><a xlink:title=" ">
<path fill="none" stroke="#63b8ff" d="M371.83,-52.5C364.14,-52.5 355.84,-52.5 347.43,-52.5"/>
<polygon fill="#63b8ff" stroke="#63b8ff" points="371.58,-56 381.58,-52.5 371.58,-49 371.58,-56"/>
</a>
</g>
</g>
<!-- Node4 -->
<g id="Node000004" class="node">
<title>Node4</title>
<g id="a_Node000004"><a xlink:href="classcmd_1_1provider_1_1ConsoleParser.html#a115637f7e4df3f4706246853783d2fe6" target="_top" xlink:title="parse all input stream passed to ctor while at least one subscriber is alive">
<polygon fill="white" stroke="#666666" points="165.25,-64 0,-64 0,-41 165.25,-41 165.25,-64"/>
<text text-anchor="middle" x="82.62" y="-50.5" font-family="Helvetica,sans-Serif" font-size="10.00">cmd::provider::ConsoleParser::run</text>
</a>
</g>
</g>
<!-- Node3&#45;&gt;Node4 -->
<g id="edge3_Node000003_Node000004" class="edge">
<title>Node3&#45;&gt;Node4</title>
<g id="a_edge3_Node000003_Node000004"><a xlink:title=" ">
<path fill="none" stroke="#63b8ff" d="M190.04,-52.5C181.98,-52.5 173.8,-52.5 165.75,-52.5"/>
<polygon fill="#63b8ff" stroke="#63b8ff" points="189.94,-56 199.94,-52.5 189.94,-49 189.94,-56"/>
</a>
</g>
</g>
</g>
</svg>
