<?xml version="1.0" encoding="UTF-8" standalone="no"?>
<!DOCTYPE svg PUBLIC "-//W3C//DTD SVG 1.1//EN"
 "http://www.w3.org/Graphics/SVG/1.1/DTD/svg11.dtd">
<!-- Generated by graphviz version 8.1.0 (20230707.0739)
 -->
<!-- Title: info::info_compiler_version Pages: 1 -->
<svg width="459pt" height="72pt"
 viewBox="0.00 0.00 459.00 72.00" xmlns="http://www.w3.org/2000/svg" xmlns:xlink="http://www.w3.org/1999/xlink">

<svg id="main" version="1.1" xmlns="http://www.w3.org/2000/svg" xmlns:xlink="http://www.w3.org/1999/xlink" xml:space="preserve" onload="init(evt)">
<style type="text/css"><![CDATA[
.node, .edge {opacity: 0.7;}
.node.selected, .edge.selected {opacity: 1;}
.edge:hover path { stroke: red; }
.edge:hover polygon { stroke: red; fill: red; }
]]></style>
<script type="application/ecmascript" xlink:href="svg.min.js"/>
<svg id="graph" class="graph">
<g id="graph0" class="graph" transform="scale(1 1) rotate(0) translate(4 68)">
<title>info::info_compiler_version</title>
<!-- Node1 -->
<g id="Node000001" class="node">
<title>Node1</title>
<g id="a_Node000001"><a xlink:title=" ">
<polygon fill="#999999" stroke="#666666" points="451,-50.5 355.5,-50.5 355.5,-12.5 451,-12.5 451,-50.5"/>
<text text-anchor="start" x="363.5" y="-37" font-family="Helvetica,sans-Serif" font-size="10.00">info::info_compiler</text>
<text text-anchor="middle" x="403.25" y="-22" font-family="Helvetica,sans-Serif" font-size="10.00">_version</text>
</a>
</g>
</g>
<!-- Node2 -->
<g id="Node000002" class="node">
<title>Node2</title>
<g id="a_Node000002"><a xlink:href="namespaceinfo.html#adf619fee1b67e68e79a217741803d1c1" target="_top" xlink:title=" ">
<polygon fill="white" stroke="#666666" points="319.5,-43 213.5,-43 213.5,-20 319.5,-20 319.5,-43"/>
<text text-anchor="middle" x="266.5" y="-29.5" font-family="Helvetica,sans-Serif" font-size="10.00">info::info_project_full</text>
</a>
</g>
</g>
<!-- Node1&#45;&gt;Node2 -->
<g id="edge1_Node000001_Node000002" class="edge">
<title>Node1&#45;&gt;Node2</title>
<g id="a_edge1_Node000001_Node000002"><a xlink:title=" ">
<path fill="none" stroke="#63b8ff" d="M344.24,-31.5C336.15,-31.5 327.87,-31.5 319.89,-31.5"/>
<polygon fill="#63b8ff" stroke="#63b8ff" points="344.12,-35 354.12,-31.5 344.12,-28 344.12,-35"/>
</a>
</g>
</g>
<!-- Node3 -->
<g id="Node000003" class="node">
<title>Node3</title>
<g id="a_Node000003"><a xlink:href="namespaceargs.html#ac5abfe1ee497dcb11ea7435db4aed06d" target="_top" xlink:title=" ">
<polygon fill="white" stroke="#666666" points="177.5,-64 73,-64 73,-41 177.5,-41 177.5,-64"/>
<text text-anchor="middle" x="125.25" y="-50.5" font-family="Helvetica,sans-Serif" font-size="10.00">args::info_requested</text>
</a>
</g>
</g>
<!-- Node2&#45;&gt;Node3 -->
<g id="edge2_Node000002_Node000003" class="edge">
<title>Node2&#45;&gt;Node3</title>
<g id="a_edge2_Node000002_Node000003"><a xlink:title=" ">
<path fill="none" stroke="#63b8ff" d="M202.52,-41C194.27,-42.24 185.9,-43.5 177.87,-44.72"/>
<polygon fill="#63b8ff" stroke="#63b8ff" points="202.89,-44.33 212.25,-39.38 201.84,-37.41 202.89,-44.33"/>
</a>
</g>
</g>
<!-- Node5 -->
<g id="Node000005" class="node">
<title>Node5</title>
<g id="a_Node000005"><a xlink:href="version_8gtest_8cpp.html#a5d030007d0415495a5fe6465d08c90ca" target="_top" xlink:title=" ">
<polygon fill="white" stroke="#666666" points="145.62,-23 104.88,-23 104.88,0 145.62,0 145.62,-23"/>
<text text-anchor="middle" x="125.25" y="-9.5" font-family="Helvetica,sans-Serif" font-size="10.00">TEST</text>
</a>
</g>
</g>
<!-- Node2&#45;&gt;Node5 -->
<g id="edge4_Node000002_Node000005" class="edge">
<title>Node2&#45;&gt;Node5</title>
<g id="a_edge4_Node000002_Node000005"><a xlink:title=" ">
<path fill="none" stroke="#63b8ff" d="M202.38,-22.43C181.99,-19.51 160.86,-16.47 146.04,-14.34"/>
<polygon fill="#63b8ff" stroke="#63b8ff" points="201.86,-26.04 212.25,-24 202.85,-19.11 201.86,-26.04"/>
</a>
</g>
</g>
<!-- Node4 -->
<g id="Node000004" class="node">
<title>Node4</title>
<g id="a_Node000004"><a xlink:href="main_8cpp.html#abf9e6b7e6f15df4b525a2e7705ba3089" target="_top" xlink:title="course c++ developer: hw7 &#45; bulk">
<polygon fill="white" stroke="#666666" points="37,-64 0,-64 0,-41 37,-41 37,-64"/>
<text text-anchor="middle" x="18.5" y="-50.5" font-family="Helvetica,sans-Serif" font-size="10.00">main</text>
</a>
</g>
</g>
<!-- Node3&#45;&gt;Node4 -->
<g id="edge3_Node000003_Node000004" class="edge">
<title>Node3&#45;&gt;Node4</title>
<g id="a_edge3_Node000003_Node000004"><a xlink:title=" ">
<path fill="none" stroke="#63b8ff" d="M62.02,-52.5C52.94,-52.5 44.28,-52.5 37.16,-52.5"/>
<polygon fill="#63b8ff" stroke="#63b8ff" points="61.8,-56 71.8,-52.5 61.8,-49 61.8,-56"/>
</a>
</g>
</g>
</g>
</svg>
</svg>

<style type='text/css'>
<![CDATA[
[data-mouse-over-selected='false'] { opacity: 0.7; }
[data-mouse-over-selected='true']  { opacity: 1.0; }
]]>
</style>
<script type="application/ecmascript"><![CDATA[
document.addEventListener('DOMContentLoaded', (event) => {
  highlightEdges();
  highlightAdjacentNodes();
});
]]></script>
</svg>
