<?xml version="1.0" encoding="UTF-8" standalone="no"?>
<!DOCTYPE svg PUBLIC "-//W3C//DTD SVG 1.1//EN"
 "http://www.w3.org/Graphics/SVG/1.1/DTD/svg11.dtd">
<!-- Generated by graphviz version 8.1.0 (20230707.0739)
 -->
<!-- Title: info::info_project_full Pages: 1 -->
<svg width="249pt" height="326pt"
 viewBox="0.00 0.00 249.25 326.00" xmlns="http://www.w3.org/2000/svg" xmlns:xlink="http://www.w3.org/1999/xlink">
<g id="graph0" class="graph" transform="scale(1 1) rotate(0) translate(4 322)">
<title>info::info_project_full</title>
<!-- Node1 -->
<g id="Node000001" class="node">
<title>Node1</title>
<g id="a_Node000001"><a xlink:title=" ">
<polygon fill="#999999" stroke="#666666" points="106,-170.5 0,-170.5 0,-147.5 106,-147.5 106,-170.5"/>
<text text-anchor="middle" x="53" y="-157" font-family="Helvetica,sans-Serif" font-size="10.00">info::info_project_full</text>
</a>
</g>
</g>
<!-- Node2 -->
<g id="Node000002" class="node">
<title>Node2</title>
<g id="a_Node000002"><a xlink:href="namespaceinfo.html#a28d71fb524538a7bdfbb1483a8a3a4cb" target="_top" xlink:title=" ">
<polygon fill="white" stroke="#666666" points="235.62,-318 147.62,-318 147.62,-280 235.62,-280 235.62,-318"/>
<text text-anchor="start" x="155.62" y="-304.5" font-family="Helvetica,sans-Serif" font-size="10.00">info::info_project</text>
<text text-anchor="middle" x="191.62" y="-289.5" font-family="Helvetica,sans-Serif" font-size="10.00">_author</text>
</a>
</g>
</g>
<!-- Node1&#45;&gt;Node2 -->
<g id="edge1_Node000001_Node000002" class="edge">
<title>Node1&#45;&gt;Node2</title>
<g id="a_edge1_Node000001_Node000002"><a xlink:title=" ">
<path fill="none" stroke="#63b8ff" d="M61.02,-170.67C74.55,-192.46 106.11,-239.92 142,-271 142.88,-271.77 143.79,-272.52 144.72,-273.26"/>
<polygon fill="#63b8ff" stroke="#63b8ff" points="142.34,-276.59 152.49,-279.65 146.46,-270.93 142.34,-276.59"/>
</a>
</g>
</g>
<!-- Node3 -->
<g id="Node000003" class="node">
<title>Node3</title>
<g id="a_Node000003"><a xlink:href="namespaceinfo.html#aae86ae087e0d5fde160d4328e106c21f" target="_top" xlink:title=" ">
<polygon fill="white" stroke="#666666" points="241.25,-262 142,-262 142,-224 241.25,-224 241.25,-262"/>
<text text-anchor="start" x="150" y="-248.5" font-family="Helvetica,sans-Serif" font-size="10.00">info::info_project</text>
<text text-anchor="middle" x="191.62" y="-233.5" font-family="Helvetica,sans-Serif" font-size="10.00">_repository_branch</text>
</a>
</g>
</g>
<!-- Node1&#45;&gt;Node3 -->
<g id="edge2_Node000001_Node000003" class="edge">
<title>Node1&#45;&gt;Node3</title>
<g id="a_edge2_Node000001_Node000003"><a xlink:title=" ">
<path fill="none" stroke="#63b8ff" d="M72.06,-170.82C89.74,-182.32 117.53,-200.18 142,-215 143.75,-216.06 145.54,-217.13 147.35,-218.21"/>
<polygon fill="#63b8ff" stroke="#63b8ff" points="145.11,-221.55 155.51,-223.61 148.67,-215.52 145.11,-221.55"/>
</a>
</g>
</g>
<!-- Node4 -->
<g id="Node000004" class="node">
<title>Node4</title>
<g id="a_Node000004"><a xlink:href="namespaceinfo.html#ace228211052ca615450b84d638e882a7" target="_top" xlink:title=" ">
<polygon fill="white" stroke="#666666" points="235.62,-206 147.62,-206 147.62,-168 235.62,-168 235.62,-206"/>
<text text-anchor="start" x="155.62" y="-192.5" font-family="Helvetica,sans-Serif" font-size="10.00">info::info_project</text>
<text text-anchor="middle" x="191.62" y="-177.5" font-family="Helvetica,sans-Serif" font-size="10.00">_repository_url</text>
</a>
</g>
</g>
<!-- Node1&#45;&gt;Node4 -->
<g id="edge3_Node000001_Node000004" class="edge">
<title>Node1&#45;&gt;Node4</title>
<g id="a_edge3_Node000001_Node000004"><a xlink:title=" ">
<path fill="none" stroke="#63b8ff" d="M106.43,-169.75C116.38,-171.78 126.8,-173.92 136.79,-175.97"/>
<polygon fill="#63b8ff" stroke="#63b8ff" points="135.92,-179.57 146.42,-178.15 137.33,-172.71 135.92,-179.57"/>
</a>
</g>
</g>
<!-- Node5 -->
<g id="Node000005" class="node">
<title>Node5</title>
<g id="a_Node000005"><a xlink:href="namespaceinfo.html#ab6318ad2c6e0287114caeea0c9434a94" target="_top" xlink:title=" ">
<polygon fill="white" stroke="#666666" points="235.62,-150 147.62,-150 147.62,-112 235.62,-112 235.62,-150"/>
<text text-anchor="start" x="155.62" y="-136.5" font-family="Helvetica,sans-Serif" font-size="10.00">info::info_project</text>
<text text-anchor="middle" x="191.62" y="-121.5" font-family="Helvetica,sans-Serif" font-size="10.00">_revision</text>
</a>
</g>
</g>
<!-- Node1&#45;&gt;Node5 -->
<g id="edge4_Node000001_Node000005" class="edge">
<title>Node1&#45;&gt;Node5</title>
<g id="a_edge4_Node000001_Node000005"><a xlink:title=" ">
<path fill="none" stroke="#63b8ff" d="M106.43,-148.25C116.38,-146.22 126.8,-144.08 136.79,-142.03"/>
<polygon fill="#63b8ff" stroke="#63b8ff" points="137.33,-145.29 146.42,-139.85 135.92,-138.43 137.33,-145.29"/>
</a>
</g>
</g>
<!-- Node6 -->
<g id="Node000006" class="node">
<title>Node6</title>
<g id="a_Node000006"><a xlink:href="namespaceinfo.html#a5600a5c71779aaecafbe4fff68152d02" target="_top" xlink:title=" ">
<polygon fill="white" stroke="#666666" points="240.5,-94 142.75,-94 142.75,-56 240.5,-56 240.5,-94"/>
<text text-anchor="start" x="150.75" y="-80.5" font-family="Helvetica,sans-Serif" font-size="10.00">info::info_project</text>
<text text-anchor="middle" x="191.62" y="-65.5" font-family="Helvetica,sans-Serif" font-size="10.00">_revision_datetime</text>
</a>
</g>
</g>
<!-- Node1&#45;&gt;Node6 -->
<g id="edge5_Node000001_Node000006" class="edge">
<title>Node1&#45;&gt;Node6</title>
<g id="a_edge5_Node000001_Node000006"><a xlink:title=" ">
<path fill="none" stroke="#63b8ff" d="M72.06,-147.18C89.74,-135.68 117.53,-117.82 142,-103 143.75,-101.94 145.54,-100.87 147.35,-99.79"/>
<polygon fill="#63b8ff" stroke="#63b8ff" points="148.67,-102.48 155.51,-94.39 145.11,-96.45 148.67,-102.48"/>
</a>
</g>
</g>
<!-- Node7 -->
<g id="Node000007" class="node">
<title>Node7</title>
<g id="a_Node000007"><a xlink:href="namespaceinfo.html#a9d8c1cc05c7db3face2e4a8b5fc29539" target="_top" xlink:title=" ">
<polygon fill="white" stroke="#666666" points="236.75,-38 146.5,-38 146.5,0 236.75,0 236.75,-38"/>
<text text-anchor="start" x="154.5" y="-24.5" font-family="Helvetica,sans-Serif" font-size="10.00">info::info_project</text>
<text text-anchor="middle" x="191.62" y="-9.5" font-family="Helvetica,sans-Serif" font-size="10.00">_revision_history</text>
</a>
</g>
</g>
<!-- Node1&#45;&gt;Node7 -->
<g id="edge6_Node000001_Node000007" class="edge">
<title>Node1&#45;&gt;Node7</title>
<g id="a_edge6_Node000001_Node000007"><a xlink:title=" ">
<path fill="none" stroke="#63b8ff" d="M61.02,-147.33C74.55,-125.54 106.11,-78.08 142,-47 142.88,-46.23 143.79,-45.48 144.72,-44.74"/>
<polygon fill="#63b8ff" stroke="#63b8ff" points="146.46,-47.07 152.49,-38.35 142.34,-41.41 146.46,-47.07"/>
</a>
</g>
</g>
</g>
</svg>
