<?xml version="1.0" encoding="UTF-8" standalone="no"?>
<!DOCTYPE svg PUBLIC "-//W3C//DTD SVG 1.1//EN"
 "http://www.w3.org/Graphics/SVG/1.1/DTD/svg11.dtd">
<!-- Generated by graphviz version 8.1.0 (20230707.0739)
 -->
<!-- Title: src/args/options.hpp Pages: 1 -->
<svg width="598pt" height="149pt"
 viewBox="0.00 0.00 598.25 149.00" xmlns="http://www.w3.org/2000/svg" xmlns:xlink="http://www.w3.org/1999/xlink">
<g id="graph0" class="graph" transform="scale(1 1) rotate(0) translate(4 145)">
<title>src/args/options.hpp</title>
<!-- Node1 -->
<g id="Node000001" class="node">
<title>Node1</title>
<g id="a_Node000001"><a xlink:title=" ">
<polygon fill="#999999" stroke="#666666" points="433,-141 328.5,-141 328.5,-118 433,-118 433,-141"/>
<text text-anchor="middle" x="380.75" y="-127.5" font-family="Helvetica,sans-Serif" font-size="10.00">src/args/options.hpp</text>
</a>
</g>
</g>
<!-- Node2 -->
<g id="Node000002" class="node">
<title>Node2</title>
<g id="a_Node000002"><a xlink:href="version_8h.html" target="_top" xlink:title=" ">
<polygon fill="white" stroke="#666666" points="108,-82 33.5,-82 33.5,-59 108,-59 108,-82"/>
<text text-anchor="middle" x="70.75" y="-68.5" font-family="Helvetica,sans-Serif" font-size="10.00">info/version.h</text>
</a>
</g>
</g>
<!-- Node1&#45;&gt;Node2 -->
<g id="edge1_Node000001_Node000002" class="edge">
<title>Node1&#45;&gt;Node2</title>
<g id="a_edge1_Node000001_Node000002"><a xlink:title=" ">
<path fill="none" stroke="#63b8ff" d="M328.01,-120.01C276.91,-111.6 196.97,-97.98 118.88,-82.36"/>
<polygon fill="#63b8ff" stroke="#63b8ff" points="119.87,-78.79 109.37,-80.25 118.48,-85.65 119.87,-78.79"/>
</a>
</g>
</g>
<!-- Node5 -->
<g id="Node000005" class="node">
<title>Node5</title>
<g id="a_Node000005"><a xlink:title=" ">
<polygon fill="#e0e0e0" stroke="#999999" points="259.62,-82 125.88,-82 125.88,-59 259.62,-59 259.62,-82"/>
<text text-anchor="middle" x="192.75" y="-68.5" font-family="Helvetica,sans-Serif" font-size="10.00">boost/program_options.hpp</text>
</a>
</g>
</g>
<!-- Node1&#45;&gt;Node5 -->
<g id="edge4_Node000001_Node000005" class="edge">
<title>Node1&#45;&gt;Node5</title>
<g id="a_edge4_Node000001_Node000005"><a xlink:title=" ">
<path fill="none" stroke="#63b8ff" d="M344.5,-117.51C314.46,-108.4 271.58,-95.4 239.05,-85.54"/>
<polygon fill="#63b8ff" stroke="#63b8ff" points="240.47,-82.01 229.89,-82.46 238.44,-88.71 240.47,-82.01"/>
</a>
</g>
</g>
<!-- Node6 -->
<g id="Node000006" class="node">
<title>Node6</title>
<g id="a_Node000006"><a xlink:title=" ">
<polygon fill="#e0e0e0" stroke="#999999" points="338.25,-82 277.25,-82 277.25,-59 338.25,-59 338.25,-82"/>
<text text-anchor="middle" x="307.75" y="-68.5" font-family="Helvetica,sans-Serif" font-size="10.00">filesystem</text>
</a>
</g>
</g>
<!-- Node1&#45;&gt;Node6 -->
<g id="edge5_Node000001_Node000006" class="edge">
<title>Node1&#45;&gt;Node6</title>
<g id="a_edge5_Node000001_Node000006"><a xlink:title=" ">
<path fill="none" stroke="#63b8ff" d="M366.67,-117.51C356.37,-109.47 342.18,-98.39 330.31,-89.11"/>
<polygon fill="#63b8ff" stroke="#63b8ff" points="332.82,-85.85 322.78,-82.46 328.51,-91.37 332.82,-85.85"/>
</a>
</g>
</g>
<!-- Node7 -->
<g id="Node000007" class="node">
<title>Node7</title>
<g id="a_Node000007"><a xlink:title=" ">
<polygon fill="#e0e0e0" stroke="#999999" points="405.25,-82 356.25,-82 356.25,-59 405.25,-59 405.25,-82"/>
<text text-anchor="middle" x="380.75" y="-68.5" font-family="Helvetica,sans-Serif" font-size="10.00">fstream</text>
</a>
</g>
</g>
<!-- Node1&#45;&gt;Node7 -->
<g id="edge6_Node000001_Node000007" class="edge">
<title>Node1&#45;&gt;Node7</title>
<g id="a_edge6_Node000001_Node000007"><a xlink:title=" ">
<path fill="none" stroke="#63b8ff" d="M380.75,-117.51C380.75,-110.65 380.75,-101.58 380.75,-93.31"/>
<polygon fill="#63b8ff" stroke="#63b8ff" points="384.25,-93.46 380.75,-83.46 377.25,-93.46 384.25,-93.46"/>
</a>
</g>
</g>
<!-- Node8 -->
<g id="Node000008" class="node">
<title>Node8</title>
<g id="a_Node000008"><a xlink:title=" ">
<polygon fill="#e0e0e0" stroke="#999999" points="476.5,-82 423,-82 423,-59 476.5,-59 476.5,-82"/>
<text text-anchor="middle" x="449.75" y="-68.5" font-family="Helvetica,sans-Serif" font-size="10.00">iostream</text>
</a>
</g>
</g>
<!-- Node1&#45;&gt;Node8 -->
<g id="edge7_Node000001_Node000008" class="edge">
<title>Node1&#45;&gt;Node8</title>
<g id="a_edge7_Node000001_Node000008"><a xlink:title=" ">
<path fill="none" stroke="#63b8ff" d="M394.05,-117.51C403.69,-109.55 416.94,-98.6 428.1,-89.39"/>
<polygon fill="#63b8ff" stroke="#63b8ff" points="430.01,-91.52 435.49,-82.46 425.55,-86.13 430.01,-91.52"/>
</a>
</g>
</g>
<!-- Node9 -->
<g id="Node000009" class="node">
<title>Node9</title>
<g id="a_Node000009"><a xlink:title=" ">
<polygon fill="#e0e0e0" stroke="#999999" points="534.75,-82 494.75,-82 494.75,-59 534.75,-59 534.75,-82"/>
<text text-anchor="middle" x="514.75" y="-68.5" font-family="Helvetica,sans-Serif" font-size="10.00">string</text>
</a>
</g>
</g>
<!-- Node1&#45;&gt;Node9 -->
<g id="edge8_Node000001_Node000009" class="edge">
<title>Node1&#45;&gt;Node9</title>
<g id="a_edge8_Node000001_Node000009"><a xlink:title=" ">
<path fill="none" stroke="#63b8ff" d="M406.59,-117.51C428.75,-108.08 460.71,-94.49 484.15,-84.52"/>
<polygon fill="#63b8ff" stroke="#63b8ff" points="485.42,-87.35 493.25,-80.22 482.68,-80.91 485.42,-87.35"/>
</a>
</g>
</g>
<!-- Node10 -->
<g id="Node000010" class="node">
<title>Node10</title>
<g id="a_Node000010"><a xlink:title=" ">
<polygon fill="#e0e0e0" stroke="#999999" points="590.25,-82 553.25,-82 553.25,-59 590.25,-59 590.25,-82"/>
<text text-anchor="middle" x="571.75" y="-68.5" font-family="Helvetica,sans-Serif" font-size="10.00">tuple</text>
</a>
</g>
</g>
<!-- Node1&#45;&gt;Node10 -->
<g id="edge9_Node000001_Node000010" class="edge">
<title>Node1&#45;&gt;Node10</title>
<g id="a_edge9_Node000001_Node000010"><a xlink:title=" ">
<path fill="none" stroke="#63b8ff" d="M422.57,-117.57C453.4,-109.29 496.55,-97.24 542.65,-82.19"/>
<polygon fill="#63b8ff" stroke="#63b8ff" points="543.44,-85.28 551.85,-78.83 541.25,-78.63 543.44,-85.28"/>
</a>
</g>
</g>
<!-- Node3 -->
<g id="Node000003" class="node">
<title>Node3</title>
<g id="a_Node000003"><a xlink:title=" ">
<polygon fill="#e0e0e0" stroke="#999999" points="65.5,-23 0,-23 0,0 65.5,0 65.5,-23"/>
<text text-anchor="middle" x="32.75" y="-9.5" font-family="Helvetica,sans-Serif" font-size="10.00">string_view</text>
</a>
</g>
</g>
<!-- Node2&#45;&gt;Node3 -->
<g id="edge2_Node000002_Node000003" class="edge">
<title>Node2&#45;&gt;Node3</title>
<g id="a_edge2_Node000002_Node000003"><a xlink:title=" ">
<path fill="none" stroke="#63b8ff" d="M63.42,-58.51C58.53,-51.18 51.96,-41.32 46.15,-32.61"/>
<polygon fill="#63b8ff" stroke="#63b8ff" points="48.51,-30.84 40.05,-24.46 42.69,-34.72 48.51,-30.84"/>
</a>
</g>
</g>
<!-- Node4 -->
<g id="Node000004" class="node">
<title>Node4</title>
<g id="a_Node000004"><a xlink:href="config_8h.html" target="_top" xlink:title=" ">
<polygon fill="white" stroke="#666666" points="134,-23 83.5,-23 83.5,0 134,0 134,-23"/>
<text text-anchor="middle" x="108.75" y="-9.5" font-family="Helvetica,sans-Serif" font-size="10.00">config.h</text>
</a>
</g>
</g>
<!-- Node2&#45;&gt;Node4 -->
<g id="edge3_Node000002_Node000004" class="edge">
<title>Node2&#45;&gt;Node4</title>
<g id="a_edge3_Node000002_Node000004"><a xlink:title=" ">
<path fill="none" stroke="#63b8ff" d="M78.08,-58.51C82.97,-51.18 89.54,-41.32 95.35,-32.61"/>
<polygon fill="#63b8ff" stroke="#63b8ff" points="98.81,-34.72 101.45,-24.46 92.99,-30.84 98.81,-34.72"/>
</a>
</g>
</g>
</g>
</svg>
