<?xml version="1.0" encoding="UTF-8" standalone="no"?>
<!DOCTYPE svg PUBLIC "-//W3C//DTD SVG 1.1//EN"
 "http://www.w3.org/Graphics/SVG/1.1/DTD/svg11.dtd">
<!-- Generated by graphviz version 8.1.0 (20230707.0739)
 -->
<!-- Title: src/logs/ostream_writer.hpp Pages: 1 -->
<svg width="529pt" height="208pt"
 viewBox="0.00 0.00 528.62 208.00" xmlns="http://www.w3.org/2000/svg" xmlns:xlink="http://www.w3.org/1999/xlink">
<g id="graph0" class="graph" transform="scale(1 1) rotate(0) translate(4 204)">
<title>src/logs/ostream_writer.hpp</title>
<!-- Node1 -->
<g id="Node000001" class="node">
<title>Node1</title>
<g id="a_Node000001"><a xlink:title=" ">
<polygon fill="#999999" stroke="#666666" points="266.12,-200 129.38,-200 129.38,-177 266.12,-177 266.12,-200"/>
<text text-anchor="middle" x="197.75" y="-186.5" font-family="Helvetica,sans-Serif" font-size="10.00">src/logs/ostream_writer.hpp</text>
</a>
</g>
</g>
<!-- Node2 -->
<g id="Node000002" class="node">
<title>Node2</title>
<g id="a_Node000002"><a xlink:title=" ">
<polygon fill="#e0e0e0" stroke="#999999" points="53.5,-141 0,-141 0,-118 53.5,-118 53.5,-141"/>
<text text-anchor="middle" x="26.75" y="-127.5" font-family="Helvetica,sans-Serif" font-size="10.00">iostream</text>
</a>
</g>
</g>
<!-- Node1&#45;&gt;Node2 -->
<g id="edge1_Node000001_Node000002" class="edge">
<title>Node1&#45;&gt;Node2</title>
<g id="a_edge1_Node000001_Node000002"><a xlink:title=" ">
<path fill="none" stroke="#63b8ff" d="M164.78,-176.51C135.96,-166.9 94.13,-152.96 64.08,-142.94"/>
<polygon fill="#63b8ff" stroke="#63b8ff" points="65.58,-139.42 54.99,-139.58 63.37,-146.06 65.58,-139.42"/>
</a>
</g>
</g>
<!-- Node3 -->
<g id="Node000003" class="node">
<title>Node3</title>
<g id="a_Node000003"><a xlink:title=" ">
<polygon fill="#e0e0e0" stroke="#999999" points="123.75,-141 71.75,-141 71.75,-118 123.75,-118 123.75,-141"/>
<text text-anchor="middle" x="97.75" y="-127.5" font-family="Helvetica,sans-Serif" font-size="10.00">memory</text>
</a>
</g>
</g>
<!-- Node1&#45;&gt;Node3 -->
<g id="edge2_Node000001_Node000003" class="edge">
<title>Node1&#45;&gt;Node3</title>
<g id="a_edge2_Node000001_Node000003"><a xlink:title=" ">
<path fill="none" stroke="#63b8ff" d="M178.47,-176.51C163.67,-168.07 143,-156.29 126.28,-146.76"/>
<polygon fill="#63b8ff" stroke="#63b8ff" points="128.39,-143.37 117.97,-141.46 124.93,-149.45 128.39,-143.37"/>
</a>
</g>
</g>
<!-- Node4 -->
<g id="Node000004" class="node">
<title>Node4</title>
<g id="a_Node000004"><a xlink:href="bulk__event_8hpp.html" target="_top" xlink:title=" ">
<polygon fill="white" stroke="#666666" points="253.38,-141 142.12,-141 142.12,-118 253.38,-118 253.38,-141"/>
<text text-anchor="middle" x="197.75" y="-127.5" font-family="Helvetica,sans-Serif" font-size="10.00">../bulk/bulk_event.hpp</text>
</a>
</g>
</g>
<!-- Node1&#45;&gt;Node4 -->
<g id="edge3_Node000001_Node000004" class="edge">
<title>Node1&#45;&gt;Node4</title>
<g id="a_edge3_Node000001_Node000004"><a xlink:title=" ">
<path fill="none" stroke="#63b8ff" d="M197.75,-176.51C197.75,-169.65 197.75,-160.58 197.75,-152.31"/>
<polygon fill="#63b8ff" stroke="#63b8ff" points="201.25,-152.46 197.75,-142.46 194.25,-152.46 201.25,-152.46"/>
</a>
</g>
</g>
<!-- Node9 -->
<g id="Node000009" class="node">
<title>Node9</title>
<g id="a_Node000009"><a xlink:href="token__event_8hpp.html" target="_top" xlink:title=" ">
<polygon fill="white" stroke="#666666" points="388.38,-141 271.12,-141 271.12,-118 388.38,-118 388.38,-141"/>
<text text-anchor="middle" x="329.75" y="-127.5" font-family="Helvetica,sans-Serif" font-size="10.00">../cmd/token_event.hpp</text>
</a>
</g>
</g>
<!-- Node1&#45;&gt;Node9 -->
<g id="edge8_Node000001_Node000009" class="edge">
<title>Node1&#45;&gt;Node9</title>
<g id="a_edge8_Node000001_Node000009"><a xlink:title=" ">
<path fill="none" stroke="#63b8ff" d="M223.2,-176.51C243.47,-167.76 272.07,-155.41 294.54,-145.71"/>
<polygon fill="#63b8ff" stroke="#63b8ff" points="295.58,-148.63 303.38,-141.46 292.81,-142.21 295.58,-148.63"/>
</a>
</g>
</g>
<!-- Node15 -->
<g id="Node000015" class="node">
<title>Node15</title>
<g id="a_Node000015"><a xlink:href="subscriber_8hpp.html" target="_top" xlink:title=" ">
<polygon fill="white" stroke="#666666" points="517,-141 406.5,-141 406.5,-118 517,-118 517,-141"/>
<text text-anchor="middle" x="461.75" y="-127.5" font-family="Helvetica,sans-Serif" font-size="10.00">../core/subscriber.hpp</text>
</a>
</g>
</g>
<!-- Node1&#45;&gt;Node15 -->
<g id="edge15_Node000001_Node000015" class="edge">
<title>Node1&#45;&gt;Node15</title>
<g id="a_edge15_Node000001_Node000015"><a xlink:title=" ">
<path fill="none" stroke="#63b8ff" d="M248.65,-176.51C291.93,-167.17 354.2,-153.72 400.26,-143.78"/>
<polygon fill="#63b8ff" stroke="#63b8ff" points="400.97,-146.99 410,-141.46 399.49,-140.15 400.97,-146.99"/>
</a>
</g>
</g>
<!-- Node5 -->
<g id="Node000005" class="node">
<title>Node5</title>
<g id="a_Node000005"><a xlink:title=" ">
<polygon fill="#e0e0e0" stroke="#999999" points="169.38,-82 124.12,-82 124.12,-59 169.38,-59 169.38,-82"/>
<text text-anchor="middle" x="146.75" y="-68.5" font-family="Helvetica,sans-Serif" font-size="10.00">chrono</text>
</a>
</g>
</g>
<!-- Node4&#45;&gt;Node5 -->
<g id="edge4_Node000004_Node000005" class="edge">
<title>Node4&#45;&gt;Node5</title>
<g id="a_edge4_Node000004_Node000005"><a xlink:title=" ">
<path fill="none" stroke="#63b8ff" d="M187.92,-117.51C181.07,-109.86 171.77,-99.46 163.74,-90.49"/>
<polygon fill="#63b8ff" stroke="#63b8ff" points="166.83,-88.58 157.55,-83.46 161.61,-93.24 166.83,-88.58"/>
</a>
</g>
</g>
<!-- Node6 -->
<g id="Node000006" class="node">
<title>Node6</title>
<g id="a_Node000006"><a xlink:title=" ">
<polygon fill="#e0e0e0" stroke="#999999" points="219.38,-23 168.12,-23 168.12,0 219.38,0 219.38,-23"/>
<text text-anchor="middle" x="193.75" y="-9.5" font-family="Helvetica,sans-Serif" font-size="10.00">ostream</text>
</a>
</g>
</g>
<!-- Node4&#45;&gt;Node6 -->
<g id="edge5_Node000004_Node000006" class="edge">
<title>Node4&#45;&gt;Node6</title>
<g id="a_edge5_Node000004_Node000006"><a xlink:title=" ">
<path fill="none" stroke="#63b8ff" d="M197.38,-117.79C196.73,-98.8 195.35,-58.88 194.49,-34.02"/>
<polygon fill="#63b8ff" stroke="#63b8ff" points="197.96,-34.05 194.12,-24.18 190.97,-34.29 197.96,-34.05"/>
</a>
</g>
</g>
<!-- Node7 -->
<g id="Node000007" class="node">
<title>Node7</title>
<g id="a_Node000007"><a xlink:title=" ">
<polygon fill="#e0e0e0" stroke="#999999" points="291.5,-82 226,-82 226,-59 291.5,-59 291.5,-82"/>
<text text-anchor="middle" x="258.75" y="-68.5" font-family="Helvetica,sans-Serif" font-size="10.00">string_view</text>
</a>
</g>
</g>
<!-- Node4&#45;&gt;Node7 -->
<g id="edge6_Node000004_Node000007" class="edge">
<title>Node4&#45;&gt;Node7</title>
<g id="a_edge6_Node000004_Node000007"><a xlink:title=" ">
<path fill="none" stroke="#63b8ff" d="M209.51,-117.51C217.87,-109.7 229.28,-99.03 239.02,-89.94"/>
<polygon fill="#63b8ff" stroke="#63b8ff" points="241.11,-92.84 246.02,-83.46 236.33,-87.73 241.11,-92.84"/>
</a>
</g>
</g>
<!-- Node8 -->
<g id="Node000008" class="node">
<title>Node8</title>
<g id="a_Node000008"><a xlink:title=" ">
<polygon fill="#e0e0e0" stroke="#999999" points="105.88,-82 63.62,-82 63.62,-59 105.88,-59 105.88,-82"/>
<text text-anchor="middle" x="84.75" y="-68.5" font-family="Helvetica,sans-Serif" font-size="10.00">vector</text>
</a>
</g>
</g>
<!-- Node4&#45;&gt;Node8 -->
<g id="edge7_Node000004_Node000008" class="edge">
<title>Node4&#45;&gt;Node8</title>
<g id="a_edge7_Node000004_Node000008"><a xlink:title=" ">
<path fill="none" stroke="#63b8ff" d="M175.96,-117.51C158.89,-108.9 134.92,-96.81 115.84,-87.18"/>
<polygon fill="#63b8ff" stroke="#63b8ff" points="117.59,-83.64 107.09,-82.26 114.44,-89.89 117.59,-83.64"/>
</a>
</g>
</g>
<!-- Node10 -->
<g id="Node000010" class="node">
<title>Node10</title>
<g id="a_Node000010"><a xlink:href="token_8hpp.html" target="_top" xlink:title=" ">
<polygon fill="white" stroke="#666666" points="375.75,-82 317.75,-82 317.75,-59 375.75,-59 375.75,-82"/>
<text text-anchor="middle" x="346.75" y="-68.5" font-family="Helvetica,sans-Serif" font-size="10.00">token.hpp</text>
</a>
</g>
</g>
<!-- Node9&#45;&gt;Node10 -->
<g id="edge9_Node000009_Node000010" class="edge">
<title>Node9&#45;&gt;Node10</title>
<g id="a_edge9_Node000009_Node000010"><a xlink:title=" ">
<path fill="none" stroke="#63b8ff" d="M333.03,-117.51C335.12,-110.49 337.9,-101.16 340.42,-92.74"/>
<polygon fill="#63b8ff" stroke="#63b8ff" points="343.98,-94.04 343.48,-83.46 337.27,-92.04 343.98,-94.04"/>
</a>
</g>
</g>
<!-- Node10&#45;&gt;Node6 -->
<g id="edge11_Node000010_Node000006" class="edge">
<title>Node10&#45;&gt;Node6</title>
<g id="a_edge11_Node000010_Node000006"><a xlink:title=" ">
<path fill="none" stroke="#63b8ff" d="M317.25,-58.51C292.26,-49.2 256.34,-35.82 229.68,-25.88"/>
<polygon fill="#63b8ff" stroke="#63b8ff" points="231.19,-22.34 220.6,-22.13 228.75,-28.9 231.19,-22.34"/>
</a>
</g>
</g>
<!-- Node11 -->
<g id="Node000011" class="node">
<title>Node11</title>
<g id="a_Node000011"><a xlink:title=" ">
<polygon fill="#e0e0e0" stroke="#999999" points="520.62,-23 476.88,-23 476.88,0 520.62,0 520.62,-23"/>
<text text-anchor="middle" x="498.75" y="-9.5" font-family="Helvetica,sans-Serif" font-size="10.00">format</text>
</a>
</g>
</g>
<!-- Node10&#45;&gt;Node11 -->
<g id="edge10_Node000010_Node000011" class="edge">
<title>Node10&#45;&gt;Node11</title>
<g id="a_edge10_Node000010_Node000011"><a xlink:title=" ">
<path fill="none" stroke="#63b8ff" d="M376.06,-58.51C401.95,-48.8 439.65,-34.66 466.42,-24.62"/>
<polygon fill="#63b8ff" stroke="#63b8ff" points="467.31,-27.65 475.44,-20.86 464.85,-21.1 467.31,-27.65"/>
</a>
</g>
</g>
<!-- Node12 -->
<g id="Node000012" class="node">
<title>Node12</title>
<g id="a_Node000012"><a xlink:title=" ">
<polygon fill="#e0e0e0" stroke="#999999" points="458.75,-23 418.75,-23 418.75,0 458.75,0 458.75,-23"/>
<text text-anchor="middle" x="438.75" y="-9.5" font-family="Helvetica,sans-Serif" font-size="10.00">string</text>
</a>
</g>
</g>
<!-- Node10&#45;&gt;Node12 -->
<g id="edge12_Node000010_Node000012" class="edge">
<title>Node10&#45;&gt;Node12</title>
<g id="a_edge12_Node000010_Node000012"><a xlink:title=" ">
<path fill="none" stroke="#63b8ff" d="M364.49,-58.51C377.98,-50.15 396.77,-38.51 412.07,-29.03"/>
<polygon fill="#63b8ff" stroke="#63b8ff" points="413.41,-31.7 420.07,-23.46 409.72,-25.75 413.41,-31.7"/>
</a>
</g>
</g>
<!-- Node13 -->
<g id="Node000013" class="node">
<title>Node13</title>
<g id="a_Node000013"><a xlink:title=" ">
<polygon fill="#e0e0e0" stroke="#999999" points="282,-23 237.5,-23 237.5,0 282,0 282,-23"/>
<text text-anchor="middle" x="259.75" y="-9.5" font-family="Helvetica,sans-Serif" font-size="10.00">variant</text>
</a>
</g>
</g>
<!-- Node10&#45;&gt;Node13 -->
<g id="edge13_Node000010_Node000013" class="edge">
<title>Node10&#45;&gt;Node13</title>
<g id="a_edge13_Node000010_Node000013"><a xlink:title=" ">
<path fill="none" stroke="#63b8ff" d="M329.98,-58.51C317.34,-50.23 299.79,-38.73 285.39,-29.3"/>
<polygon fill="#63b8ff" stroke="#63b8ff" points="287.76,-26.01 277.47,-23.46 283.92,-31.86 287.76,-26.01"/>
</a>
</g>
</g>
<!-- Node14 -->
<g id="Node000014" class="node">
<title>Node14</title>
<g id="a_Node000014"><a xlink:href="overload_8hpp.html" target="_top" xlink:title=" ">
<polygon fill="white" stroke="#666666" points="401.12,-23 300.38,-23 300.38,0 401.12,0 401.12,-23"/>
<text text-anchor="middle" x="350.75" y="-9.5" font-family="Helvetica,sans-Serif" font-size="10.00">../utils/overload.hpp</text>
</a>
</g>
</g>
<!-- Node10&#45;&gt;Node14 -->
<g id="edge14_Node000010_Node000014" class="edge">
<title>Node10&#45;&gt;Node14</title>
<g id="a_edge14_Node000010_Node000014"><a xlink:title=" ">
<path fill="none" stroke="#63b8ff" d="M347.52,-58.51C348,-51.65 348.64,-42.58 349.22,-34.31"/>
<polygon fill="#63b8ff" stroke="#63b8ff" points="352.77,-34.68 349.98,-24.46 345.79,-34.19 352.77,-34.68"/>
</a>
</g>
</g>
<!-- Node15&#45;&gt;Node11 -->
<g id="edge16_Node000015_Node000011" class="edge">
<title>Node15&#45;&gt;Node11</title>
<g id="a_edge16_Node000015_Node000011"><a xlink:title=" ">
<path fill="none" stroke="#63b8ff" d="M466.36,-117.53C470.21,-108.18 475.69,-94.33 479.75,-82 485.01,-66.03 489.98,-47.68 493.52,-33.85"/>
<polygon fill="#63b8ff" stroke="#63b8ff" points="497.09,-34.99 496.13,-24.44 490.3,-33.29 497.09,-34.99"/>
</a>
</g>
</g>
<!-- Node16 -->
<g id="Node000016" class="node">
<title>Node16</title>
<g id="a_Node000016"><a xlink:title=" ">
<polygon fill="#e0e0e0" stroke="#999999" points="471,-82 420.5,-82 420.5,-59 471,-59 471,-82"/>
<text text-anchor="middle" x="445.75" y="-68.5" font-family="Helvetica,sans-Serif" font-size="10.00">typeinfo</text>
</a>
</g>
</g>
<!-- Node15&#45;&gt;Node16 -->
<g id="edge17_Node000015_Node000016" class="edge">
<title>Node15&#45;&gt;Node16</title>
<g id="a_edge17_Node000015_Node000016"><a xlink:title=" ">
<path fill="none" stroke="#63b8ff" d="M458.67,-117.51C456.72,-110.57 454.13,-101.37 451.79,-93.02"/>
<polygon fill="#63b8ff" stroke="#63b8ff" points="454.9,-92.14 448.83,-83.46 448.16,-94.03 454.9,-92.14"/>
</a>
</g>
</g>
</g>
</svg>
