<?xml version="1.0" encoding="UTF-8" standalone="no"?>
<!DOCTYPE svg PUBLIC "-//W3C//DTD SVG 1.1//EN"
 "http://www.w3.org/Graphics/SVG/1.1/DTD/svg11.dtd">
<!-- Generated by graphviz version 8.1.0 (20230707.0739)
 -->
<!-- Title: src/logs/ostream_writer.hpp Pages: 1 -->
<svg width="516pt" height="208pt"
 viewBox="0.00 0.00 515.62 208.00" xmlns="http://www.w3.org/2000/svg" xmlns:xlink="http://www.w3.org/1999/xlink">
<g id="graph0" class="graph" transform="scale(1 1) rotate(0) translate(4 204)">
<title>src/logs/ostream_writer.hpp</title>
<!-- Node1 -->
<g id="Node000001" class="node">
<title>Node1</title>
<g id="a_Node000001"><a xlink:title=" ">
<polygon fill="#999999" stroke="#666666" points="261.12,-200 124.38,-200 124.38,-177 261.12,-177 261.12,-200"/>
<text text-anchor="middle" x="192.75" y="-186.5" font-family="Helvetica,sans-Serif" font-size="10.00">src/logs/ostream_writer.hpp</text>
</a>
</g>
</g>
<!-- Node2 -->
<g id="Node000002" class="node">
<title>Node2</title>
<g id="a_Node000002"><a xlink:title=" ">
<polygon fill="#e0e0e0" stroke="#999999" points="53.5,-141 0,-141 0,-118 53.5,-118 53.5,-141"/>
<text text-anchor="middle" x="26.75" y="-127.5" font-family="Helvetica,sans-Serif" font-size="10.00">iostream</text>
</a>
</g>
</g>
<!-- Node1&#45;&gt;Node2 -->
<g id="edge1_Node000001_Node000002" class="edge">
<title>Node1&#45;&gt;Node2</title>
<g id="a_edge1_Node000001_Node000002"><a xlink:title=" ">
<path fill="none" stroke="#63b8ff" d="M160.74,-176.51C133.14,-167.03 93.24,-153.33 64.17,-143.35"/>
<polygon fill="#63b8ff" stroke="#63b8ff" points="65.58,-139.79 54.99,-139.85 63.31,-146.41 65.58,-139.79"/>
</a>
</g>
</g>
<!-- Node3 -->
<g id="Node000003" class="node">
<title>Node3</title>
<g id="a_Node000003"><a xlink:title=" ">
<polygon fill="#e0e0e0" stroke="#999999" points="123.75,-141 71.75,-141 71.75,-118 123.75,-118 123.75,-141"/>
<text text-anchor="middle" x="97.75" y="-127.5" font-family="Helvetica,sans-Serif" font-size="10.00">memory</text>
</a>
</g>
</g>
<!-- Node1&#45;&gt;Node3 -->
<g id="edge2_Node000001_Node000003" class="edge">
<title>Node1&#45;&gt;Node3</title>
<g id="a_edge2_Node000001_Node000003"><a xlink:title=" ">
<path fill="none" stroke="#63b8ff" d="M174.43,-176.51C160.5,-168.15 141.1,-156.51 125.3,-147.03"/>
<polygon fill="#63b8ff" stroke="#63b8ff" points="127.39,-143.6 117.01,-141.46 123.78,-149.6 127.39,-143.6"/>
</a>
</g>
</g>
<!-- Node4 -->
<g id="Node000004" class="node">
<title>Node4</title>
<g id="a_Node000004"><a xlink:href="bulk__event_8hpp.html" target="_top" xlink:title=" ">
<polygon fill="white" stroke="#666666" points="243.88,-141 141.62,-141 141.62,-118 243.88,-118 243.88,-141"/>
<text text-anchor="middle" x="192.75" y="-127.5" font-family="Helvetica,sans-Serif" font-size="10.00">bulk/bulk_event.hpp</text>
</a>
</g>
</g>
<!-- Node1&#45;&gt;Node4 -->
<g id="edge3_Node000001_Node000004" class="edge">
<title>Node1&#45;&gt;Node4</title>
<g id="a_edge3_Node000001_Node000004"><a xlink:title=" ">
<path fill="none" stroke="#63b8ff" d="M192.75,-176.51C192.75,-169.65 192.75,-160.58 192.75,-152.31"/>
<polygon fill="#63b8ff" stroke="#63b8ff" points="196.25,-152.46 192.75,-142.46 189.25,-152.46 196.25,-152.46"/>
</a>
</g>
</g>
<!-- Node9 -->
<g id="Node000009" class="node">
<title>Node9</title>
<g id="a_Node000009"><a xlink:href="token__event_8hpp.html" target="_top" xlink:title=" ">
<polygon fill="white" stroke="#666666" points="369.88,-141 261.62,-141 261.62,-118 369.88,-118 369.88,-141"/>
<text text-anchor="middle" x="315.75" y="-127.5" font-family="Helvetica,sans-Serif" font-size="10.00">cmd/token_event.hpp</text>
</a>
</g>
</g>
<!-- Node1&#45;&gt;Node9 -->
<g id="edge8_Node000001_Node000009" class="edge">
<title>Node1&#45;&gt;Node9</title>
<g id="a_edge8_Node000001_Node000009"><a xlink:title=" ">
<path fill="none" stroke="#63b8ff" d="M216.47,-176.51C235.18,-167.84 261.52,-155.63 282.37,-145.97"/>
<polygon fill="#63b8ff" stroke="#63b8ff" points="283.51,-148.84 291.11,-141.46 280.56,-142.49 283.51,-148.84"/>
</a>
</g>
</g>
<!-- Node15 -->
<g id="Node000015" class="node">
<title>Node15</title>
<g id="a_Node000015"><a xlink:href="subscriber_8hpp.html" target="_top" xlink:title=" ">
<polygon fill="white" stroke="#666666" points="489.5,-141 388,-141 388,-118 489.5,-118 489.5,-141"/>
<text text-anchor="middle" x="438.75" y="-127.5" font-family="Helvetica,sans-Serif" font-size="10.00">core/subscriber.hpp</text>
</a>
</g>
</g>
<!-- Node1&#45;&gt;Node15 -->
<g id="edge15_Node000001_Node000015" class="edge">
<title>Node1&#45;&gt;Node15</title>
<g id="a_edge15_Node000001_Node000015"><a xlink:title=" ">
<path fill="none" stroke="#63b8ff" d="M240.18,-176.51C280.34,-167.2 338.04,-153.83 380.91,-143.9"/>
<polygon fill="#63b8ff" stroke="#63b8ff" points="381.51,-147.12 390.46,-141.46 379.93,-140.3 381.51,-147.12"/>
</a>
</g>
</g>
<!-- Node5 -->
<g id="Node000005" class="node">
<title>Node5</title>
<g id="a_Node000005"><a xlink:title=" ">
<polygon fill="#e0e0e0" stroke="#999999" points="164.38,-82 119.12,-82 119.12,-59 164.38,-59 164.38,-82"/>
<text text-anchor="middle" x="141.75" y="-68.5" font-family="Helvetica,sans-Serif" font-size="10.00">chrono</text>
</a>
</g>
</g>
<!-- Node4&#45;&gt;Node5 -->
<g id="edge4_Node000004_Node000005" class="edge">
<title>Node4&#45;&gt;Node5</title>
<g id="a_edge4_Node000004_Node000005"><a xlink:title=" ">
<path fill="none" stroke="#63b8ff" d="M182.92,-117.51C176.07,-109.86 166.77,-99.46 158.74,-90.49"/>
<polygon fill="#63b8ff" stroke="#63b8ff" points="161.83,-88.58 152.55,-83.46 156.61,-93.24 161.83,-88.58"/>
</a>
</g>
</g>
<!-- Node6 -->
<g id="Node000006" class="node">
<title>Node6</title>
<g id="a_Node000006"><a xlink:title=" ">
<polygon fill="#e0e0e0" stroke="#999999" points="215.38,-23 164.12,-23 164.12,0 215.38,0 215.38,-23"/>
<text text-anchor="middle" x="189.75" y="-9.5" font-family="Helvetica,sans-Serif" font-size="10.00">ostream</text>
</a>
</g>
</g>
<!-- Node4&#45;&gt;Node6 -->
<g id="edge5_Node000004_Node000006" class="edge">
<title>Node4&#45;&gt;Node6</title>
<g id="a_edge5_Node000004_Node000006"><a xlink:title=" ">
<path fill="none" stroke="#63b8ff" d="M192.47,-117.79C191.98,-98.8 190.95,-58.88 190.31,-34.02"/>
<polygon fill="#63b8ff" stroke="#63b8ff" points="193.78,-34.09 190.03,-24.18 186.79,-34.27 193.78,-34.09"/>
</a>
</g>
</g>
<!-- Node7 -->
<g id="Node000007" class="node">
<title>Node7</title>
<g id="a_Node000007"><a xlink:title=" ">
<polygon fill="#e0e0e0" stroke="#999999" points="286.5,-82 221,-82 221,-59 286.5,-59 286.5,-82"/>
<text text-anchor="middle" x="253.75" y="-68.5" font-family="Helvetica,sans-Serif" font-size="10.00">string_view</text>
</a>
</g>
</g>
<!-- Node4&#45;&gt;Node7 -->
<g id="edge6_Node000004_Node000007" class="edge">
<title>Node4&#45;&gt;Node7</title>
<g id="a_edge6_Node000004_Node000007"><a xlink:title=" ">
<path fill="none" stroke="#63b8ff" d="M204.51,-117.51C212.87,-109.7 224.28,-99.03 234.02,-89.94"/>
<polygon fill="#63b8ff" stroke="#63b8ff" points="236.11,-92.84 241.02,-83.46 231.33,-87.73 236.11,-92.84"/>
</a>
</g>
</g>
<!-- Node8 -->
<g id="Node000008" class="node">
<title>Node8</title>
<g id="a_Node000008"><a xlink:title=" ">
<polygon fill="#e0e0e0" stroke="#999999" points="100.88,-82 58.62,-82 58.62,-59 100.88,-59 100.88,-82"/>
<text text-anchor="middle" x="79.75" y="-68.5" font-family="Helvetica,sans-Serif" font-size="10.00">vector</text>
</a>
</g>
</g>
<!-- Node4&#45;&gt;Node8 -->
<g id="edge7_Node000004_Node000008" class="edge">
<title>Node4&#45;&gt;Node8</title>
<g id="a_edge7_Node000004_Node000008"><a xlink:title=" ">
<path fill="none" stroke="#63b8ff" d="M170.96,-117.51C153.89,-108.9 129.92,-96.81 110.84,-87.18"/>
<polygon fill="#63b8ff" stroke="#63b8ff" points="112.59,-83.64 102.09,-82.26 109.44,-89.89 112.59,-83.64"/>
</a>
</g>
</g>
<!-- Node10 -->
<g id="Node000010" class="node">
<title>Node10</title>
<g id="a_Node000010"><a xlink:href="token_8hpp.html" target="_top" xlink:title=" ">
<polygon fill="white" stroke="#666666" points="367.75,-82 309.75,-82 309.75,-59 367.75,-59 367.75,-82"/>
<text text-anchor="middle" x="338.75" y="-68.5" font-family="Helvetica,sans-Serif" font-size="10.00">token.hpp</text>
</a>
</g>
</g>
<!-- Node9&#45;&gt;Node10 -->
<g id="edge9_Node000009_Node000010" class="edge">
<title>Node9&#45;&gt;Node10</title>
<g id="a_edge9_Node000009_Node000010"><a xlink:title=" ">
<path fill="none" stroke="#63b8ff" d="M320.18,-117.51C323.05,-110.41 326.87,-100.95 330.3,-92.45"/>
<polygon fill="#63b8ff" stroke="#63b8ff" points="333.83,-94.04 334.33,-83.46 327.34,-91.42 333.83,-94.04"/>
</a>
</g>
</g>
<!-- Node10&#45;&gt;Node6 -->
<g id="edge11_Node000010_Node000006" class="edge">
<title>Node10&#45;&gt;Node6</title>
<g id="a_edge11_Node000010_Node000006"><a xlink:title=" ">
<path fill="none" stroke="#63b8ff" d="M310.02,-58.51C285.94,-49.3 251.44,-36.1 225.56,-26.2"/>
<polygon fill="#63b8ff" stroke="#63b8ff" points="227,-22.62 216.41,-22.31 224.5,-29.16 227,-22.62"/>
</a>
</g>
</g>
<!-- Node11 -->
<g id="Node000011" class="node">
<title>Node11</title>
<g id="a_Node000011"><a xlink:title=" ">
<polygon fill="#e0e0e0" stroke="#999999" points="507.62,-23 463.88,-23 463.88,0 507.62,0 507.62,-23"/>
<text text-anchor="middle" x="485.75" y="-9.5" font-family="Helvetica,sans-Serif" font-size="10.00">format</text>
</a>
</g>
</g>
<!-- Node10&#45;&gt;Node11 -->
<g id="edge10_Node000010_Node000011" class="edge">
<title>Node10&#45;&gt;Node11</title>
<g id="a_edge10_Node000010_Node000011"><a xlink:title=" ">
<path fill="none" stroke="#63b8ff" d="M367.09,-58.51C391.88,-48.9 427.85,-34.95 453.68,-24.94"/>
<polygon fill="#63b8ff" stroke="#63b8ff" points="454.66,-27.92 462.72,-21.04 452.13,-21.39 454.66,-27.92"/>
</a>
</g>
</g>
<!-- Node12 -->
<g id="Node000012" class="node">
<title>Node12</title>
<g id="a_Node000012"><a xlink:title=" ">
<polygon fill="#e0e0e0" stroke="#999999" points="445.75,-23 405.75,-23 405.75,0 445.75,0 445.75,-23"/>
<text text-anchor="middle" x="425.75" y="-9.5" font-family="Helvetica,sans-Serif" font-size="10.00">string</text>
</a>
</g>
</g>
<!-- Node10&#45;&gt;Node12 -->
<g id="edge12_Node000010_Node000012" class="edge">
<title>Node10&#45;&gt;Node12</title>
<g id="a_edge12_Node000010_Node000012"><a xlink:title=" ">
<path fill="none" stroke="#63b8ff" d="M355.52,-58.51C368.16,-50.23 385.71,-38.73 400.11,-29.3"/>
<polygon fill="#63b8ff" stroke="#63b8ff" points="401.58,-31.86 408.03,-23.46 397.74,-26.01 401.58,-31.86"/>
</a>
</g>
</g>
<!-- Node13 -->
<g id="Node000013" class="node">
<title>Node13</title>
<g id="a_Node000013"><a xlink:title=" ">
<polygon fill="#e0e0e0" stroke="#999999" points="278,-23 233.5,-23 233.5,0 278,0 278,-23"/>
<text text-anchor="middle" x="255.75" y="-9.5" font-family="Helvetica,sans-Serif" font-size="10.00">variant</text>
</a>
</g>
</g>
<!-- Node10&#45;&gt;Node13 -->
<g id="edge13_Node000010_Node000013" class="edge">
<title>Node10&#45;&gt;Node13</title>
<g id="a_edge13_Node000010_Node000013"><a xlink:title=" ">
<path fill="none" stroke="#63b8ff" d="M322.75,-58.51C310.81,-50.31 294.26,-38.95 280.61,-29.57"/>
<polygon fill="#63b8ff" stroke="#63b8ff" points="282.93,-26.23 272.7,-23.46 278.97,-32 282.93,-26.23"/>
</a>
</g>
</g>
<!-- Node14 -->
<g id="Node000014" class="node">
<title>Node14</title>
<g id="a_Node000014"><a xlink:href="overload_8hpp.html" target="_top" xlink:title=" ">
<polygon fill="white" stroke="#666666" points="387.62,-23 295.88,-23 295.88,0 387.62,0 387.62,-23"/>
<text text-anchor="middle" x="341.75" y="-9.5" font-family="Helvetica,sans-Serif" font-size="10.00">utils/overload.hpp</text>
</a>
</g>
</g>
<!-- Node10&#45;&gt;Node14 -->
<g id="edge14_Node000010_Node000014" class="edge">
<title>Node10&#45;&gt;Node14</title>
<g id="a_edge14_Node000010_Node000014"><a xlink:title=" ">
<path fill="none" stroke="#63b8ff" d="M339.33,-58.51C339.69,-51.65 340.17,-42.58 340.6,-34.31"/>
<polygon fill="#63b8ff" stroke="#63b8ff" points="344.14,-34.63 341.17,-24.46 337.15,-34.26 344.14,-34.63"/>
</a>
</g>
</g>
<!-- Node15&#45;&gt;Node11 -->
<g id="edge16_Node000015_Node000011" class="edge">
<title>Node15&#45;&gt;Node11</title>
<g id="a_edge16_Node000015_Node000011"><a xlink:title=" ">
<path fill="none" stroke="#63b8ff" d="M446.57,-117.5C452.76,-108.36 461.26,-94.82 466.75,-82 473.44,-66.37 478.38,-47.74 481.55,-33.71"/>
<polygon fill="#63b8ff" stroke="#63b8ff" points="485.13,-34.67 483.79,-24.17 478.29,-33.22 485.13,-34.67"/>
</a>
</g>
</g>
<!-- Node16 -->
<g id="Node000016" class="node">
<title>Node16</title>
<g id="a_Node000016"><a xlink:title=" ">
<polygon fill="#e0e0e0" stroke="#999999" points="458,-82 407.5,-82 407.5,-59 458,-59 458,-82"/>
<text text-anchor="middle" x="432.75" y="-68.5" font-family="Helvetica,sans-Serif" font-size="10.00">typeinfo</text>
</a>
</g>
</g>
<!-- Node15&#45;&gt;Node16 -->
<g id="edge17_Node000015_Node000016" class="edge">
<title>Node15&#45;&gt;Node16</title>
<g id="a_edge17_Node000015_Node000016"><a xlink:title=" ">
<path fill="none" stroke="#63b8ff" d="M437.59,-117.51C436.87,-110.65 435.92,-101.58 435.05,-93.31"/>
<polygon fill="#63b8ff" stroke="#63b8ff" points="438.43,-93.04 433.9,-83.46 431.47,-93.77 438.43,-93.04"/>
</a>
</g>
</g>
</g>
</svg>
