<?xml version="1.0" encoding="UTF-8" standalone="no"?>
<!DOCTYPE svg PUBLIC "-//W3C//DTD SVG 1.1//EN"
 "http://www.w3.org/Graphics/SVG/1.1/DTD/svg11.dtd">
<!-- Generated by graphviz version 8.1.0 (20230707.0739)
 -->
<!-- Title: src/utils/overloaded.hpp Pages: 1 -->
<svg width="413pt" height="282pt"
 viewBox="0.00 0.00 413.12 282.00" xmlns="http://www.w3.org/2000/svg" xmlns:xlink="http://www.w3.org/1999/xlink">
<g id="graph0" class="graph" transform="scale(1 1) rotate(0) translate(4 278)">
<title>src/utils/overloaded.hpp</title>
<!-- Node1 -->
<g id="Node000001" class="node">
<title>Node1</title>
<g id="a_Node000001"><a xlink:title=" ">
<polygon fill="#999999" stroke="#666666" points="173.88,-274 55.12,-274 55.12,-251 173.88,-251 173.88,-274"/>
<text text-anchor="middle" x="114.5" y="-260.5" font-family="Helvetica,sans-Serif" font-size="10.00">src/utils/overloaded.hpp</text>
</a>
</g>
</g>
<!-- Node2 -->
<g id="Node000002" class="node">
<title>Node2</title>
<g id="a_Node000002"><a xlink:href="bulk__translator_8hpp.html" target="_top" xlink:title=" ">
<polygon fill="white" stroke="#666666" points="109,-97 0,-97 0,-59 109,-59 109,-97"/>
<text text-anchor="start" x="8" y="-83.5" font-family="Helvetica,sans-Serif" font-size="10.00">src/bulk/provider/bulk</text>
<text text-anchor="middle" x="54.5" y="-68.5" font-family="Helvetica,sans-Serif" font-size="10.00">_translator.hpp</text>
</a>
</g>
</g>
<!-- Node1&#45;&gt;Node2 -->
<g id="edge1_Node000001_Node000002" class="edge">
<title>Node1&#45;&gt;Node2</title>
<g id="a_edge1_Node000001_Node000002"><a xlink:title=" ">
<path fill="none" stroke="#63b8ff" d="M107.53,-240.29C95.66,-204.18 71.72,-131.37 60.53,-97.33"/>
<polygon fill="#63b8ff" stroke="#63b8ff" points="104.48,-241.22 110.93,-249.63 111.13,-239.04 104.48,-241.22"/>
</a>
</g>
</g>
<!-- Node4 -->
<g id="Node000004" class="node">
<title>Node4</title>
<g id="a_Node000004"><a xlink:href="token_8hpp.html" target="_top" xlink:title=" ">
<polygon fill="white" stroke="#666666" points="207.62,-215 111.38,-215 111.38,-192 207.62,-192 207.62,-215"/>
<text text-anchor="middle" x="159.5" y="-201.5" font-family="Helvetica,sans-Serif" font-size="10.00">src/cmd/token.hpp</text>
</a>
</g>
</g>
<!-- Node1&#45;&gt;Node4 -->
<g id="edge3_Node000001_Node000004" class="edge">
<title>Node1&#45;&gt;Node4</title>
<g id="a_edge3_Node000001_Node000004"><a xlink:title=" ">
<path fill="none" stroke="#63b8ff" d="M129.96,-241.91C136.95,-233.06 144.94,-222.94 150.85,-215.46"/>
<polygon fill="#63b8ff" stroke="#63b8ff" points="126.63,-239.49 123.18,-249.51 132.12,-243.83 126.63,-239.49"/>
</a>
</g>
</g>
<!-- Node3 -->
<g id="Node000003" class="node">
<title>Node3</title>
<g id="a_Node000003"><a xlink:href="main_8cpp.html" target="_top" xlink:title=" ">
<polygon fill="white" stroke="#666666" points="225.62,-23 153.38,-23 153.38,0 225.62,0 225.62,-23"/>
<text text-anchor="middle" x="189.5" y="-9.5" font-family="Helvetica,sans-Serif" font-size="10.00">src/main.cpp</text>
</a>
</g>
</g>
<!-- Node2&#45;&gt;Node3 -->
<g id="edge2_Node000002_Node000003" class="edge">
<title>Node2&#45;&gt;Node3</title>
<g id="a_edge2_Node000002_Node000003"><a xlink:title=" ">
<path fill="none" stroke="#63b8ff" d="M102.96,-53.85C124.76,-43.43 149.44,-31.64 166.85,-23.32"/>
<polygon fill="#63b8ff" stroke="#63b8ff" points="101.7,-51.05 94.19,-58.52 104.72,-57.36 101.7,-51.05"/>
</a>
</g>
</g>
<!-- Node5 -->
<g id="Node000005" class="node">
<title>Node5</title>
<g id="a_Node000005"><a xlink:href="token__event_8hpp.html" target="_top" xlink:title=" ">
<polygon fill="white" stroke="#666666" points="239.88,-156 115.12,-156 115.12,-133 239.88,-133 239.88,-156"/>
<text text-anchor="middle" x="177.5" y="-142.5" font-family="Helvetica,sans-Serif" font-size="10.00">src/cmd/token_event.hpp</text>
</a>
</g>
</g>
<!-- Node4&#45;&gt;Node5 -->
<g id="edge4_Node000004_Node000005" class="edge">
<title>Node4&#45;&gt;Node5</title>
<g id="a_edge4_Node000004_Node000005"><a xlink:title=" ">
<path fill="none" stroke="#63b8ff" d="M166.22,-181.22C168.88,-172.8 171.83,-163.47 174.04,-156.46"/>
<polygon fill="#63b8ff" stroke="#63b8ff" points="162.64,-179.92 162.97,-190.51 169.32,-182.03 162.64,-179.92"/>
</a>
</g>
</g>
<!-- Node5&#45;&gt;Node2 -->
<g id="edge5_Node000005_Node000002" class="edge">
<title>Node5&#45;&gt;Node2</title>
<g id="a_edge5_Node000005_Node000002"><a xlink:title=" ">
<path fill="none" stroke="#63b8ff" d="M146.95,-127.48C129.51,-118.34 107.59,-106.84 89.46,-97.33"/>
<polygon fill="#63b8ff" stroke="#63b8ff" points="145.15,-131.01 155.63,-132.56 148.4,-124.81 145.15,-131.01"/>
</a>
</g>
</g>
<!-- Node6 -->
<g id="Node000006" class="node">
<title>Node6</title>
<g id="a_Node000006"><a xlink:href="istream__parser_8hpp.html" target="_top" xlink:title=" ">
<polygon fill="white" stroke="#666666" points="251.5,-97 127.5,-97 127.5,-59 251.5,-59 251.5,-97"/>
<text text-anchor="start" x="135.5" y="-83.5" font-family="Helvetica,sans-Serif" font-size="10.00">src/cmd/provider/istream</text>
<text text-anchor="middle" x="189.5" y="-68.5" font-family="Helvetica,sans-Serif" font-size="10.00">_parser.hpp</text>
</a>
</g>
</g>
<!-- Node5&#45;&gt;Node6 -->
<g id="edge6_Node000005_Node000006" class="edge">
<title>Node5&#45;&gt;Node6</title>
<g id="a_edge6_Node000005_Node000006"><a xlink:title=" ">
<path fill="none" stroke="#63b8ff" d="M181.53,-121.86C183.01,-113.9 184.67,-104.97 186.09,-97.33"/>
<polygon fill="#63b8ff" stroke="#63b8ff" points="177.92,-121.09 179.54,-131.56 184.81,-122.37 177.92,-121.09"/>
</a>
</g>
</g>
<!-- Node7 -->
<g id="Node000007" class="node">
<title>Node7</title>
<g id="a_Node000007"><a xlink:href="console__writer_8hpp.html" target="_top" xlink:title=" ">
<polygon fill="white" stroke="#666666" points="405.12,-89.5 269.88,-89.5 269.88,-66.5 405.12,-66.5 405.12,-89.5"/>
<text text-anchor="middle" x="337.5" y="-76" font-family="Helvetica,sans-Serif" font-size="10.00">src/logs/console_writer.hpp</text>
</a>
</g>
</g>
<!-- Node5&#45;&gt;Node7 -->
<g id="edge8_Node000005_Node000007" class="edge">
<title>Node5&#45;&gt;Node7</title>
<g id="a_edge8_Node000005_Node000007"><a xlink:title=" ">
<path fill="none" stroke="#63b8ff" d="M214.49,-128.59C243.72,-116.8 283.86,-100.62 310.23,-90"/>
<polygon fill="#63b8ff" stroke="#63b8ff" points="213.61,-125.57 205.64,-132.56 216.23,-132.07 213.61,-125.57"/>
</a>
</g>
</g>
<!-- Node6&#45;&gt;Node3 -->
<g id="edge7_Node000006_Node000003" class="edge">
<title>Node6&#45;&gt;Node3</title>
<g id="a_edge7_Node000006_Node000003"><a xlink:title=" ">
<path fill="none" stroke="#63b8ff" d="M189.5,-47.9C189.5,-39.1 189.5,-29.97 189.5,-23.19"/>
<polygon fill="#63b8ff" stroke="#63b8ff" points="186,-47.69 189.5,-57.69 193,-47.69 186,-47.69"/>
</a>
</g>
</g>
<!-- Node7&#45;&gt;Node3 -->
<g id="edge9_Node000007_Node000003" class="edge">
<title>Node7&#45;&gt;Node3</title>
<g id="a_edge9_Node000007_Node000003"><a xlink:title=" ">
<path fill="none" stroke="#63b8ff" d="M302.58,-61.78C275.6,-50.02 238.9,-34.03 214.73,-23.5"/>
<polygon fill="#63b8ff" stroke="#63b8ff" points="300.83,-65.27 311.39,-66.06 303.62,-58.85 300.83,-65.27"/>
</a>
</g>
</g>
</g>
</svg>
