<?xml version="1.0" encoding="UTF-8" standalone="no"?>
<!DOCTYPE svg PUBLIC "-//W3C//DTD SVG 1.1//EN"
 "http://www.w3.org/Graphics/SVG/1.1/DTD/svg11.dtd">
<!-- Generated by graphviz version 8.1.0 (20230707.0739)
 -->
<!-- Title: src/core/publisher.hpp Pages: 1 -->
<svg width="260pt" height="164pt"
 viewBox="0.00 0.00 260.25 164.00" xmlns="http://www.w3.org/2000/svg" xmlns:xlink="http://www.w3.org/1999/xlink">
<g id="graph0" class="graph" transform="scale(1 1) rotate(0) translate(4 160)">
<title>src/core/publisher.hpp</title>
<!-- Node1 -->
<g id="Node000001" class="node">
<title>Node1</title>
<g id="a_Node000001"><a xlink:title=" ">
<polygon fill="#999999" stroke="#666666" points="177.5,-156 65.5,-156 65.5,-133 177.5,-133 177.5,-156"/>
<text text-anchor="middle" x="121.5" y="-142.5" font-family="Helvetica,sans-Serif" font-size="10.00">src/core/publisher.hpp</text>
</a>
</g>
</g>
<!-- Node2 -->
<g id="Node000002" class="node">
<title>Node2</title>
<g id="a_Node000002"><a xlink:href="bulk__translator_8hpp.html" target="_top" xlink:title=" ">
<polygon fill="white" stroke="#666666" points="109,-97 0,-97 0,-59 109,-59 109,-97"/>
<text text-anchor="start" x="8" y="-83.5" font-family="Helvetica,sans-Serif" font-size="10.00">src/bulk/provider/bulk</text>
<text text-anchor="middle" x="54.5" y="-68.5" font-family="Helvetica,sans-Serif" font-size="10.00">_translator.hpp</text>
</a>
</g>
</g>
<!-- Node1&#45;&gt;Node2 -->
<g id="edge1_Node000001_Node000002" class="edge">
<title>Node1&#45;&gt;Node2</title>
<g id="a_edge1_Node000001_Node000002"><a xlink:title=" ">
<path fill="none" stroke="#63b8ff" d="M102.41,-125.13C93.37,-116.42 82.59,-106.04 73.55,-97.33"/>
<polygon fill="#63b8ff" stroke="#63b8ff" points="99.5,-127.14 109.13,-131.56 104.36,-122.1 99.5,-127.14"/>
</a>
</g>
</g>
<!-- Node4 -->
<g id="Node000004" class="node">
<title>Node4</title>
<g id="a_Node000004"><a xlink:href="console__parser_8hpp.html" target="_top" xlink:title=" ">
<polygon fill="white" stroke="#666666" points="252.25,-97 126.75,-97 126.75,-59 252.25,-59 252.25,-97"/>
<text text-anchor="start" x="134.75" y="-83.5" font-family="Helvetica,sans-Serif" font-size="10.00">src/cmd/provider/console</text>
<text text-anchor="middle" x="189.5" y="-68.5" font-family="Helvetica,sans-Serif" font-size="10.00">_parser.hpp</text>
</a>
</g>
</g>
<!-- Node1&#45;&gt;Node4 -->
<g id="edge3_Node000001_Node000004" class="edge">
<title>Node1&#45;&gt;Node4</title>
<g id="a_edge3_Node000001_Node000004"><a xlink:title=" ">
<path fill="none" stroke="#63b8ff" d="M140.87,-125.13C150.05,-116.42 160.99,-106.04 170.17,-97.33"/>
<polygon fill="#63b8ff" stroke="#63b8ff" points="138.88,-122.14 134.04,-131.56 143.7,-127.22 138.88,-122.14"/>
</a>
</g>
</g>
<!-- Node3 -->
<g id="Node000003" class="node">
<title>Node3</title>
<g id="a_Node000003"><a xlink:href="main_8cpp.html" target="_top" xlink:title=" ">
<polygon fill="white" stroke="#666666" points="157.62,-23 85.38,-23 85.38,0 157.62,0 157.62,-23"/>
<text text-anchor="middle" x="121.5" y="-9.5" font-family="Helvetica,sans-Serif" font-size="10.00">src/main.cpp</text>
</a>
</g>
</g>
<!-- Node2&#45;&gt;Node3 -->
<g id="edge2_Node000002_Node000003" class="edge">
<title>Node2&#45;&gt;Node3</title>
<g id="a_edge2_Node000002_Node000003"><a xlink:title=" ">
<path fill="none" stroke="#63b8ff" d="M81.39,-51.11C91.52,-41.36 102.49,-30.8 110.39,-23.19"/>
<polygon fill="#63b8ff" stroke="#63b8ff" points="79.3,-48.23 74.52,-57.69 84.15,-53.28 79.3,-48.23"/>
</a>
</g>
</g>
<!-- Node4&#45;&gt;Node3 -->
<g id="edge4_Node000004_Node000003" class="edge">
<title>Node4&#45;&gt;Node3</title>
<g id="a_edge4_Node000004_Node000003"><a xlink:title=" ">
<path fill="none" stroke="#63b8ff" d="M162.51,-51.4C152.15,-41.57 140.87,-30.87 132.77,-23.19"/>
<polygon fill="#63b8ff" stroke="#63b8ff" points="159.53,-53.35 169.2,-57.69 164.35,-48.27 159.53,-53.35"/>
</a>
</g>
</g>
</g>
</svg>
