<?xml version="1.0" encoding="UTF-8" standalone="no"?>
<!DOCTYPE svg PUBLIC "-//W3C//DTD SVG 1.1//EN"
 "http://www.w3.org/Graphics/SVG/1.1/DTD/svg11.dtd">
<!-- Generated by graphviz version 8.1.0 (20230707.0739)
 -->
<!-- Title: src/core/publisher.hpp Pages: 1 -->
<svg width="157pt" height="149pt"
 viewBox="0.00 0.00 157.25 149.00" xmlns="http://www.w3.org/2000/svg" xmlns:xlink="http://www.w3.org/1999/xlink">
<g id="graph0" class="graph" transform="scale(1 1) rotate(0) translate(4 145)">
<title>src/core/publisher.hpp</title>
<!-- Node1 -->
<g id="Node000001" class="node">
<title>Node1</title>
<g id="a_Node000001"><a xlink:title=" ">
<polygon fill="#999999" stroke="#666666" points="112,-141 0,-141 0,-118 112,-118 112,-141"/>
<text text-anchor="middle" x="56" y="-127.5" font-family="Helvetica,sans-Serif" font-size="10.00">src/core/publisher.hpp</text>
</a>
</g>
</g>
<!-- Node2 -->
<g id="Node000002" class="node">
<title>Node2</title>
<g id="a_Node000002"><a xlink:title=" ">
<polygon fill="#e0e0e0" stroke="#999999" points="34.4,-82 5.6,-82 5.6,-59 34.4,-59 34.4,-82"/>
<text text-anchor="middle" x="20" y="-68.5" font-family="Helvetica,sans-Serif" font-size="10.00">list</text>
</a>
</g>
</g>
<!-- Node1&#45;&gt;Node2 -->
<g id="edge1_Node000001_Node000002" class="edge">
<title>Node1&#45;&gt;Node2</title>
<g id="a_edge1_Node000001_Node000002"><a xlink:title=" ">
<path fill="none" stroke="#63b8ff" d="M49.06,-117.51C44.43,-110.18 38.2,-100.32 32.7,-91.61"/>
<polygon fill="#63b8ff" stroke="#63b8ff" points="35.22,-90.04 26.92,-83.46 29.3,-93.78 35.22,-90.04"/>
</a>
</g>
</g>
<!-- Node3 -->
<g id="Node000003" class="node">
<title>Node3</title>
<g id="a_Node000003"><a xlink:href="subscriber_8hpp.html" target="_top" xlink:title=" ">
<polygon fill="white" stroke="#666666" points="131.88,-82 52.12,-82 52.12,-59 131.88,-59 131.88,-82"/>
<text text-anchor="middle" x="92" y="-68.5" font-family="Helvetica,sans-Serif" font-size="10.00">subscriber.hpp</text>
</a>
</g>
</g>
<!-- Node1&#45;&gt;Node3 -->
<g id="edge2_Node000001_Node000003" class="edge">
<title>Node1&#45;&gt;Node3</title>
<g id="a_edge2_Node000001_Node000003"><a xlink:title=" ">
<path fill="none" stroke="#63b8ff" d="M62.94,-117.51C67.57,-110.18 73.8,-100.32 79.3,-91.61"/>
<polygon fill="#63b8ff" stroke="#63b8ff" points="82.7,-93.78 85.08,-83.46 76.78,-90.04 82.7,-93.78"/>
</a>
</g>
</g>
<!-- Node4 -->
<g id="Node000004" class="node">
<title>Node4</title>
<g id="a_Node000004"><a xlink:title=" ">
<polygon fill="#e0e0e0" stroke="#999999" points="80.88,-23 37.13,-23 37.13,0 80.88,0 80.88,-23"/>
<text text-anchor="middle" x="59" y="-9.5" font-family="Helvetica,sans-Serif" font-size="10.00">format</text>
</a>
</g>
</g>
<!-- Node3&#45;&gt;Node4 -->
<g id="edge3_Node000003_Node000004" class="edge">
<title>Node3&#45;&gt;Node4</title>
<g id="a_edge3_Node000003_Node000004"><a xlink:title=" ">
<path fill="none" stroke="#63b8ff" d="M85.64,-58.51C81.44,-51.26 75.81,-41.53 70.8,-32.89"/>
<polygon fill="#63b8ff" stroke="#63b8ff" points="73.38,-31.36 65.34,-24.46 67.32,-34.86 73.38,-31.36"/>
</a>
</g>
</g>
<!-- Node5 -->
<g id="Node000005" class="node">
<title>Node5</title>
<g id="a_Node000005"><a xlink:title=" ">
<polygon fill="#e0e0e0" stroke="#999999" points="149.25,-23 98.75,-23 98.75,0 149.25,0 149.25,-23"/>
<text text-anchor="middle" x="124" y="-9.5" font-family="Helvetica,sans-Serif" font-size="10.00">typeinfo</text>
</a>
</g>
</g>
<!-- Node3&#45;&gt;Node5 -->
<g id="edge4_Node000003_Node000005" class="edge">
<title>Node3&#45;&gt;Node5</title>
<g id="a_edge4_Node000003_Node000005"><a xlink:title=" ">
<path fill="none" stroke="#63b8ff" d="M98.17,-58.51C102.24,-51.26 107.7,-41.53 112.55,-32.89"/>
<polygon fill="#63b8ff" stroke="#63b8ff" points="116.01,-34.89 117.85,-24.46 109.9,-31.46 116.01,-34.89"/>
</a>
</g>
</g>
</g>
</svg>
