<?xml version="1.0" encoding="UTF-8" standalone="no"?>
<!DOCTYPE svg PUBLIC "-//W3C//DTD SVG 1.1//EN"
 "http://www.w3.org/Graphics/SVG/1.1/DTD/svg11.dtd">
<!-- Generated by graphviz version 8.1.0 (20230707.0739)
 -->
<!-- Title: src/io/redirection.hpp Pages: 1 -->
<svg width="410pt" height="90pt"
 viewBox="0.00 0.00 410.25 90.00" xmlns="http://www.w3.org/2000/svg" xmlns:xlink="http://www.w3.org/1999/xlink">
<g id="graph0" class="graph" transform="scale(1 1) rotate(0) translate(4 86)">
<title>src/io/redirection.hpp</title>
<!-- Node1 -->
<g id="Node000001" class="node">
<title>Node1</title>
<g id="a_Node000001"><a xlink:title=" ">
<polygon fill="#999999" stroke="#666666" points="243.88,-82 137.12,-82 137.12,-59 243.88,-59 243.88,-82"/>
<text text-anchor="middle" x="190.5" y="-68.5" font-family="Helvetica,sans-Serif" font-size="10.00">src/io/redirection.hpp</text>
</a>
</g>
</g>
<!-- Node2 -->
<g id="Node000002" class="node">
<title>Node2</title>
<g id="a_Node000002"><a xlink:title=" ">
<polygon fill="#e0e0e0" stroke="#999999" points="43,-23 0,-23 0,0 43,0 43,-23"/>
<text text-anchor="middle" x="21.5" y="-9.5" font-family="Helvetica,sans-Serif" font-size="10.00">cerrno</text>
</a>
</g>
</g>
<!-- Node1&#45;&gt;Node2 -->
<g id="edge1_Node000001_Node000002" class="edge">
<title>Node1&#45;&gt;Node2</title>
<g id="a_edge1_Node000001_Node000002"><a xlink:title=" ">
<path fill="none" stroke="#63b8ff" d="M157.32,-58.54C131.33,-49.93 94.02,-37.49 53.74,-23.74"/>
<polygon fill="#63b8ff" stroke="#63b8ff" points="55.04,-20.14 44.44,-20.22 52.77,-26.77 55.04,-20.14"/>
</a>
</g>
</g>
<!-- Node3 -->
<g id="Node000003" class="node">
<title>Node3</title>
<g id="a_Node000003"><a xlink:title=" ">
<polygon fill="#e0e0e0" stroke="#999999" points="118.12,-23 60.88,-23 60.88,0 118.12,0 118.12,-23"/>
<text text-anchor="middle" x="89.5" y="-9.5" font-family="Helvetica,sans-Serif" font-size="10.00">exception</text>
</a>
</g>
</g>
<!-- Node1&#45;&gt;Node3 -->
<g id="edge2_Node000001_Node000003" class="edge">
<title>Node1&#45;&gt;Node3</title>
<g id="a_edge2_Node000001_Node000003"><a xlink:title=" ">
<path fill="none" stroke="#63b8ff" d="M171.03,-58.51C156.08,-50.07 135.2,-38.29 118.32,-28.76"/>
<polygon fill="#63b8ff" stroke="#63b8ff" points="120.34,-25.32 109.91,-23.46 116.9,-31.42 120.34,-25.32"/>
</a>
</g>
</g>
<!-- Node4 -->
<g id="Node000004" class="node">
<title>Node4</title>
<g id="a_Node000004"><a xlink:title=" ">
<polygon fill="#e0e0e0" stroke="#999999" points="180.38,-23 136.62,-23 136.62,0 180.38,0 180.38,-23"/>
<text text-anchor="middle" x="158.5" y="-9.5" font-family="Helvetica,sans-Serif" font-size="10.00">format</text>
</a>
</g>
</g>
<!-- Node1&#45;&gt;Node4 -->
<g id="edge3_Node000001_Node000004" class="edge">
<title>Node1&#45;&gt;Node4</title>
<g id="a_edge3_Node000001_Node000004"><a xlink:title=" ">
<path fill="none" stroke="#63b8ff" d="M184.33,-58.51C180.26,-51.26 174.8,-41.53 169.95,-32.89"/>
<polygon fill="#63b8ff" stroke="#63b8ff" points="172.6,-31.46 164.65,-24.46 166.49,-34.89 172.6,-31.46"/>
</a>
</g>
</g>
<!-- Node5 -->
<g id="Node000005" class="node">
<title>Node5</title>
<g id="a_Node000005"><a xlink:title=" ">
<polygon fill="#e0e0e0" stroke="#999999" points="247,-23 198,-23 198,0 247,0 247,-23"/>
<text text-anchor="middle" x="222.5" y="-9.5" font-family="Helvetica,sans-Serif" font-size="10.00">fstream</text>
</a>
</g>
</g>
<!-- Node1&#45;&gt;Node5 -->
<g id="edge4_Node000001_Node000005" class="edge">
<title>Node1&#45;&gt;Node5</title>
<g id="a_edge4_Node000001_Node000005"><a xlink:title=" ">
<path fill="none" stroke="#63b8ff" d="M196.67,-58.51C200.74,-51.26 206.2,-41.53 211.05,-32.89"/>
<polygon fill="#63b8ff" stroke="#63b8ff" points="214.51,-34.89 216.35,-24.46 208.4,-31.46 214.51,-34.89"/>
</a>
</g>
</g>
<!-- Node6 -->
<g id="Node000006" class="node">
<title>Node6</title>
<g id="a_Node000006"><a xlink:title=" ">
<polygon fill="#e0e0e0" stroke="#999999" points="318.25,-23 264.75,-23 264.75,0 318.25,0 318.25,-23"/>
<text text-anchor="middle" x="291.5" y="-9.5" font-family="Helvetica,sans-Serif" font-size="10.00">iostream</text>
</a>
</g>
</g>
<!-- Node1&#45;&gt;Node6 -->
<g id="edge5_Node000001_Node000006" class="edge">
<title>Node1&#45;&gt;Node6</title>
<g id="a_edge5_Node000001_Node000006"><a xlink:title=" ">
<path fill="none" stroke="#63b8ff" d="M209.97,-58.51C224.92,-50.07 245.8,-38.29 262.68,-28.76"/>
<polygon fill="#63b8ff" stroke="#63b8ff" points="264.1,-31.42 271.09,-23.46 260.66,-25.32 264.1,-31.42"/>
</a>
</g>
</g>
<!-- Node7 -->
<g id="Node000007" class="node">
<title>Node7</title>
<g id="a_Node000007"><a xlink:title=" ">
<polygon fill="#e0e0e0" stroke="#999999" points="402.25,-23 336.75,-23 336.75,0 402.25,0 402.25,-23"/>
<text text-anchor="middle" x="369.5" y="-9.5" font-family="Helvetica,sans-Serif" font-size="10.00">string_view</text>
</a>
</g>
</g>
<!-- Node1&#45;&gt;Node7 -->
<g id="edge6_Node000001_Node000007" class="edge">
<title>Node1&#45;&gt;Node7</title>
<g id="a_edge6_Node000001_Node000007"><a xlink:title=" ">
<path fill="none" stroke="#63b8ff" d="M225.01,-58.51C253.86,-49.33 295.14,-36.18 326.2,-26.29"/>
<polygon fill="#63b8ff" stroke="#63b8ff" points="326.84,-29.44 335.3,-23.07 324.71,-22.77 326.84,-29.44"/>
</a>
</g>
</g>
</g>
</svg>
