<?xml version="1.0" encoding="UTF-8" standalone="no"?>
<!DOCTYPE svg PUBLIC "-//W3C//DTD SVG 1.1//EN"
 "http://www.w3.org/Graphics/SVG/1.1/DTD/svg11.dtd">
<!-- Generated by graphviz version 8.1.0 (20230707.0739)
 -->
<!-- Title: trim Pages: 1 -->
<svg width="113pt" height="72pt"
 viewBox="0.00 0.00 112.75 72.00" xmlns="http://www.w3.org/2000/svg" xmlns:xlink="http://www.w3.org/1999/xlink">
<g id="graph0" class="graph" transform="scale(1 1) rotate(0) translate(4 68)">
<title>trim</title>
<!-- Node1 -->
<g id="Node000001" class="node">
<title>Node1</title>
<g id="a_Node000001"><a xlink:title=" ">
<polygon fill="#999999" stroke="#666666" points="32.5,-43 0,-43 0,-20 32.5,-20 32.5,-43"/>
<text text-anchor="middle" x="16.25" y="-29.5" font-family="Helvetica,sans-Serif" font-size="10.00">trim</text>
</a>
</g>
</g>
<!-- Node2 -->
<g id="Node000002" class="node">
<title>Node2</title>
<g id="a_Node000002"><a xlink:href="str__utils_8hpp.html#a764fb822a1518a1937c49ebde2095dae" target="_top" xlink:title=" ">
<polygon fill="white" stroke="#666666" points="104,-64 69.25,-64 69.25,-41 104,-41 104,-64"/>
<text text-anchor="middle" x="86.62" y="-50.5" font-family="Helvetica,sans-Serif" font-size="10.00">ltrim</text>
</a>
</g>
</g>
<!-- Node1&#45;&gt;Node2 -->
<g id="edge1_Node000001_Node000002" class="edge">
<title>Node1&#45;&gt;Node2</title>
<g id="a_edge1_Node000001_Node000002"><a xlink:title=" ">
<path fill="none" stroke="#63b8ff" d="M32.77,-36.27C40.5,-38.64 50.07,-41.58 58.93,-44.3"/>
<polygon fill="#63b8ff" stroke="#63b8ff" points="57.63,-47.87 68.22,-47.46 59.69,-41.18 57.63,-47.87"/>
</a>
</g>
</g>
<!-- Node3 -->
<g id="Node000003" class="node">
<title>Node3</title>
<g id="a_Node000003"><a xlink:href="str__utils_8hpp.html#a5be516a938c0d307178060719c609cab" target="_top" xlink:title=" ">
<polygon fill="white" stroke="#666666" points="104.75,-23 68.5,-23 68.5,0 104.75,0 104.75,-23"/>
<text text-anchor="middle" x="86.62" y="-9.5" font-family="Helvetica,sans-Serif" font-size="10.00">rtrim</text>
</a>
</g>
</g>
<!-- Node1&#45;&gt;Node3 -->
<g id="edge2_Node000001_Node000003" class="edge">
<title>Node1&#45;&gt;Node3</title>
<g id="a_edge2_Node000001_Node000003"><a xlink:title=" ">
<path fill="none" stroke="#63b8ff" d="M32.77,-26.96C40.19,-24.79 49.31,-22.12 57.87,-19.62"/>
<polygon fill="#63b8ff" stroke="#63b8ff" points="58.63,-22.75 67.25,-16.58 56.67,-16.03 58.63,-22.75"/>
</a>
</g>
</g>
</g>
</svg>
