<?xml version="1.0" encoding="UTF-8" standalone="no"?>
<!DOCTYPE svg PUBLIC "-//W3C//DTD SVG 1.1//EN"
 "http://www.w3.org/Graphics/SVG/1.1/DTD/svg11.dtd">
<!-- Generated by graphviz version 8.1.0 (20230707.0739)
 -->
<!-- Title: trim Pages: 1 -->
<svg width="382pt" height="46pt"
 viewBox="0.00 0.00 381.50 46.00" xmlns="http://www.w3.org/2000/svg" xmlns:xlink="http://www.w3.org/1999/xlink">
<g id="graph0" class="graph" transform="scale(1 1) rotate(0) translate(4 42)">
<title>trim</title>
<!-- Node1 -->
<g id="Node000001" class="node">
<title>Node1</title>
<g id="a_Node000001"><a xlink:title=" ">
<polygon fill="#999999" stroke="#666666" points="373.5,-30.5 341,-30.5 341,-7.5 373.5,-7.5 373.5,-30.5"/>
<text text-anchor="middle" x="357.25" y="-17" font-family="Helvetica,sans-Serif" font-size="10.00">trim</text>
</a>
</g>
</g>
<!-- Node2 -->
<g id="Node000002" class="node">
<title>Node2</title>
<g id="a_Node000002"><a xlink:href="classcmd_1_1provider_1_1InputStreamParser.html#a383e3dafa0cde3d6cedce8f64a139695" target="_top" xlink:title=" ">
<polygon fill="white" stroke="#666666" points="305,-38 170.5,-38 170.5,0 305,0 305,-38"/>
<text text-anchor="start" x="178.5" y="-24.5" font-family="Helvetica,sans-Serif" font-size="10.00">cmd::provider::InputStream</text>
<text text-anchor="middle" x="237.75" y="-9.5" font-family="Helvetica,sans-Serif" font-size="10.00">Parser::advance</text>
</a>
</g>
</g>
<!-- Node1&#45;&gt;Node2 -->
<g id="edge1_Node000001_Node000002" class="edge">
<title>Node1&#45;&gt;Node2</title>
<g id="a_edge1_Node000001_Node000002"><a xlink:title=" ">
<path fill="none" stroke="#63b8ff" d="M330.13,-19C322.67,-19 314.19,-19 305.47,-19"/>
<polygon fill="#63b8ff" stroke="#63b8ff" points="329.89,-22.5 339.89,-19 329.89,-15.5 329.89,-22.5"/>
</a>
</g>
</g>
<!-- Node3 -->
<g id="Node000003" class="node">
<title>Node3</title>
<g id="a_Node000003"><a xlink:href="classcmd_1_1provider_1_1InputStreamParser.html#ae63959998d53ecaa321be35f3fec6267" target="_top" xlink:title=" ">
<polygon fill="white" stroke="#666666" points="134.5,-38 0,-38 0,0 134.5,0 134.5,-38"/>
<text text-anchor="start" x="8" y="-24.5" font-family="Helvetica,sans-Serif" font-size="10.00">cmd::provider::InputStream</text>
<text text-anchor="middle" x="67.25" y="-9.5" font-family="Helvetica,sans-Serif" font-size="10.00">Parser::run</text>
</a>
</g>
</g>
<!-- Node2&#45;&gt;Node3 -->
<g id="edge2_Node000002_Node000003" class="edge">
<title>Node2&#45;&gt;Node3</title>
<g id="a_edge2_Node000002_Node000003"><a xlink:title=" ">
<path fill="none" stroke="#63b8ff" d="M159.18,-19C151.07,-19 142.88,-19 134.91,-19"/>
<polygon fill="#63b8ff" stroke="#63b8ff" points="159.15,-22.5 169.15,-19 159.15,-15.5 159.15,-22.5"/>
</a>
</g>
</g>
</g>
</svg>
