<?xml version="1.0" encoding="UTF-8" standalone="no"?>
<!DOCTYPE svg PUBLIC "-//W3C//DTD SVG 1.1//EN"
 "http://www.w3.org/Graphics/SVG/1.1/DTD/svg11.dtd">
<!-- Generated by graphviz version 8.1.0 (20230707.0739)
 -->
<!-- Title: ltrim Pages: 1 -->
<svg width="452pt" height="80pt"
 viewBox="0.00 0.00 452.25 79.50" xmlns="http://www.w3.org/2000/svg" xmlns:xlink="http://www.w3.org/1999/xlink">

<svg id="main" version="1.1" xmlns="http://www.w3.org/2000/svg" xmlns:xlink="http://www.w3.org/1999/xlink" xml:space="preserve" onload="init(evt)">
<style type="text/css"><![CDATA[
.node, .edge {opacity: 0.7;}
.node.selected, .edge.selected {opacity: 1;}
.edge:hover path { stroke: red; }
.edge:hover polygon { stroke: red; fill: red; }
]]></style>
<script type="application/ecmascript" xlink:href="svg.min.js"/>
<svg id="graph" class="graph">
<g id="graph0" class="graph" transform="scale(1 1) rotate(0) translate(4 75.5)">
<title>ltrim</title>
<!-- Node1 -->
<g id="Node000001" class="node">
<title>Node1</title>
<g id="a_Node000001"><a xlink:title=" ">
<polygon fill="#999999" stroke="#666666" points="444.25,-43 409.5,-43 409.5,-20 444.25,-20 444.25,-43"/>
<text text-anchor="middle" x="426.88" y="-29.5" font-family="Helvetica,sans-Serif" font-size="10.00">ltrim</text>
</a>
</g>
</g>
<!-- Node2 -->
<g id="Node000002" class="node">
<title>Node2</title>
<g id="a_Node000002"><a xlink:href="str__utils_8hpp.html#a12812f4bf3870494fc2b1ddc24f4436f" target="_top" xlink:title=" ">
<polygon fill="white" stroke="#666666" points="373.5,-64 341,-64 341,-41 373.5,-41 373.5,-64"/>
<text text-anchor="middle" x="357.25" y="-50.5" font-family="Helvetica,sans-Serif" font-size="10.00">trim</text>
</a>
</g>
</g>
<!-- Node1&#45;&gt;Node2 -->
<g id="edge1_Node000001_Node000002" class="edge">
<title>Node1&#45;&gt;Node2</title>
<g id="a_edge1_Node000001_Node000002"><a xlink:title=" ">
<path fill="none" stroke="#63b8ff" d="M398.88,-39.88C390.38,-42.52 381.28,-45.35 373.85,-47.66"/>
<polygon fill="#63b8ff" stroke="#63b8ff" points="399.65,-43 408.16,-36.69 397.57,-36.31 399.65,-43"/>
</a>
</g>
</g>
<!-- Node5 -->
<g id="Node000005" class="node">
<title>Node5</title>
<g id="a_Node000005"><a xlink:href="str__utils_8hpp.html#a15e8a49b1193744455b90b491243661a" target="_top" xlink:title=" ">
<polygon fill="white" stroke="#666666" points="373.5,-23 341,-23 341,0 373.5,0 373.5,-23"/>
<text text-anchor="middle" x="357.25" y="-9.5" font-family="Helvetica,sans-Serif" font-size="10.00">trim</text>
</a>
</g>
</g>
<!-- Node1&#45;&gt;Node5 -->
<g id="edge4_Node000001_Node000005" class="edge">
<title>Node1&#45;&gt;Node5</title>
<g id="a_edge4_Node000001_Node000005"><a xlink:title=" ">
<path fill="none" stroke="#63b8ff" d="M398.88,-23.52C390.38,-21 381.28,-18.31 373.85,-16.11"/>
<polygon fill="#63b8ff" stroke="#63b8ff" points="397.58,-27.08 408.16,-26.56 399.56,-20.36 397.58,-27.08"/>
</a>
</g>
</g>
<!-- Node3 -->
<g id="Node000003" class="node">
<title>Node3</title>
<g id="a_Node000003"><a xlink:href="classcmd_1_1provider_1_1InputStreamParser.html#a383e3dafa0cde3d6cedce8f64a139695" target="_top" xlink:title=" ">
<polygon fill="white" stroke="#666666" points="305,-71.5 170.5,-71.5 170.5,-33.5 305,-33.5 305,-71.5"/>
<text text-anchor="start" x="178.5" y="-58" font-family="Helvetica,sans-Serif" font-size="10.00">cmd::provider::InputStream</text>
<text text-anchor="middle" x="237.75" y="-43" font-family="Helvetica,sans-Serif" font-size="10.00">Parser::advance</text>
</a>
</g>
</g>
<!-- Node2&#45;&gt;Node3 -->
<g id="edge2_Node000002_Node000003" class="edge">
<title>Node2&#45;&gt;Node3</title>
<g id="a_edge2_Node000002_Node000003"><a xlink:title=" ">
<path fill="none" stroke="#63b8ff" d="M330.13,-52.5C322.67,-52.5 314.19,-52.5 305.47,-52.5"/>
<polygon fill="#63b8ff" stroke="#63b8ff" points="329.89,-56 339.89,-52.5 329.89,-49 329.89,-56"/>
</a>
</g>
</g>
<!-- Node4 -->
<g id="Node000004" class="node">
<title>Node4</title>
<g id="a_Node000004"><a xlink:href="classcmd_1_1provider_1_1InputStreamParser.html#ae63959998d53ecaa321be35f3fec6267" target="_top" xlink:title=" ">
<polygon fill="white" stroke="#666666" points="134.5,-71.5 0,-71.5 0,-33.5 134.5,-33.5 134.5,-71.5"/>
<text text-anchor="start" x="8" y="-58" font-family="Helvetica,sans-Serif" font-size="10.00">cmd::provider::InputStream</text>
<text text-anchor="middle" x="67.25" y="-43" font-family="Helvetica,sans-Serif" font-size="10.00">Parser::run</text>
</a>
</g>
</g>
<!-- Node3&#45;&gt;Node4 -->
<g id="edge3_Node000003_Node000004" class="edge">
<title>Node3&#45;&gt;Node4</title>
<g id="a_edge3_Node000003_Node000004"><a xlink:title=" ">
<path fill="none" stroke="#63b8ff" d="M159.18,-52.5C151.07,-52.5 142.88,-52.5 134.91,-52.5"/>
<polygon fill="#63b8ff" stroke="#63b8ff" points="159.15,-56 169.15,-52.5 159.15,-49 159.15,-56"/>
</a>
</g>
</g>
</g>
</svg>
</svg>

<style type='text/css'>
<![CDATA[
[data-mouse-over-selected='false'] { opacity: 0.7; }
[data-mouse-over-selected='true']  { opacity: 1.0; }
]]>
</style>
<script type="application/ecmascript"><![CDATA[
document.addEventListener('DOMContentLoaded', (event) => {
  highlightEdges();
  highlightAdjacentNodes();
});
]]></script>
</svg>
