<?xml version="1.0" encoding="UTF-8" standalone="no"?>
<!DOCTYPE svg PUBLIC "-//W3C//DTD SVG 1.1//EN"
 "http://www.w3.org/Graphics/SVG/1.1/DTD/svg11.dtd">
<!-- Generated by graphviz version 8.1.0 (20230707.0739)
 -->
<!-- Title: src/utils/string_utils.hpp Pages: 1 -->
<svg width="134pt" height="164pt"
 viewBox="0.00 0.00 133.50 164.00" xmlns="http://www.w3.org/2000/svg" xmlns:xlink="http://www.w3.org/1999/xlink">
<g id="graph0" class="graph" transform="scale(1 1) rotate(0) translate(4 160)">
<title>src/utils/string_utils.hpp</title>
<!-- Node1 -->
<g id="Node000001" class="node">
<title>Node1</title>
<g id="a_Node000001"><a xlink:title=" ">
<polygon fill="#999999" stroke="#666666" points="122.5,-156 3,-156 3,-133 122.5,-133 122.5,-156"/>
<text text-anchor="middle" x="62.75" y="-142.5" font-family="Helvetica,sans-Serif" font-size="10.00">src/utils/string_utils.hpp</text>
</a>
</g>
</g>
<!-- Node2 -->
<g id="Node000002" class="node">
<title>Node2</title>
<g id="a_Node000002"><a xlink:href="console__parser_8hpp.html" target="_top" xlink:title=" ">
<polygon fill="white" stroke="#666666" points="125.5,-97 0,-97 0,-59 125.5,-59 125.5,-97"/>
<text text-anchor="start" x="8" y="-83.5" font-family="Helvetica,sans-Serif" font-size="10.00">src/cmd/provider/console</text>
<text text-anchor="middle" x="62.75" y="-68.5" font-family="Helvetica,sans-Serif" font-size="10.00">_parser.hpp</text>
</a>
</g>
</g>
<!-- Node1&#45;&gt;Node2 -->
<g id="edge1_Node000001_Node000002" class="edge">
<title>Node1&#45;&gt;Node2</title>
<g id="a_edge1_Node000001_Node000002"><a xlink:title=" ">
<path fill="none" stroke="#63b8ff" d="M62.75,-121.58C62.75,-113.69 62.75,-104.88 62.75,-97.33"/>
<polygon fill="#63b8ff" stroke="#63b8ff" points="59.25,-121.56 62.75,-131.56 66.25,-121.56 59.25,-121.56"/>
</a>
</g>
</g>
<!-- Node3 -->
<g id="Node000003" class="node">
<title>Node3</title>
<g id="a_Node000003"><a xlink:href="main_8cpp.html" target="_top" xlink:title=" ">
<polygon fill="white" stroke="#666666" points="98.88,-23 26.62,-23 26.62,0 98.88,0 98.88,-23"/>
<text text-anchor="middle" x="62.75" y="-9.5" font-family="Helvetica,sans-Serif" font-size="10.00">src/main.cpp</text>
</a>
</g>
</g>
<!-- Node2&#45;&gt;Node3 -->
<g id="edge2_Node000002_Node000003" class="edge">
<title>Node2&#45;&gt;Node3</title>
<g id="a_edge2_Node000002_Node000003"><a xlink:title=" ">
<path fill="none" stroke="#63b8ff" d="M62.75,-47.9C62.75,-39.1 62.75,-29.97 62.75,-23.19"/>
<polygon fill="#63b8ff" stroke="#63b8ff" points="59.25,-47.69 62.75,-57.69 66.25,-47.69 59.25,-47.69"/>
</a>
</g>
</g>
</g>
</svg>
