<?xml version="1.0" encoding="UTF-8" standalone="no"?>
<!DOCTYPE svg PUBLIC "-//W3C//DTD SVG 1.1//EN"
 "http://www.w3.org/Graphics/SVG/1.1/DTD/svg11.dtd">
<!-- Generated by graphviz version 8.1.0 (20230707.0739)
 -->
<!-- Title: core::SubscriberBase&lt; EventType &gt; Pages: 1 -->
<svg width="502pt" height="1116pt"
 viewBox="0.00 0.00 502.00 1116.00" xmlns="http://www.w3.org/2000/svg" xmlns:xlink="http://www.w3.org/1999/xlink">
<g id="graph0" class="graph" transform="scale(1 1) rotate(0) translate(4 1112)">
<title>core::SubscriberBase&lt; EventType &gt;</title>
<!-- Node1 -->
<g id="Node000001" class="node">
<title>Node1</title>
<g id="a_Node000001"><a xlink:title=" ">
<polygon fill="#999999" stroke="none" points="383,-1108 251,-1108 251,-836 383,-836 383,-1108"/>
<text text-anchor="start" x="270.12" y="-1094.5" font-family="Helvetica,sans-Serif" font-size="10.00">core::SubscriberBase</text>
<text text-anchor="start" x="285.12" y="-1079.5" font-family="Helvetica,sans-Serif" font-size="10.00">&lt; EventType &gt;</text>
<text text-anchor="start" x="256.5" y="-1060.5" font-family="Helvetica,sans-Serif" font-size="10.00">&#45;</text>
<text text-anchor="start" x="265" y="-1060.5" font-family="Helvetica,sans-Serif" font-size="10.00">std::string _id</text>
<text text-anchor="start" x="255" y="-1041.5" font-family="Helvetica,sans-Serif" font-size="10.00">+</text>
<text text-anchor="start" x="265" y="-1041.5" font-family="Helvetica,sans-Serif" font-size="10.00">virtual ~SubscriberBase</text>
<text text-anchor="start" x="265" y="-1026.5" font-family="Helvetica,sans-Serif" font-size="10.00">()=default</text>
<text text-anchor="start" x="255" y="-1007.5" font-family="Helvetica,sans-Serif" font-size="10.00">+</text>
<text text-anchor="start" x="265" y="-1007.5" font-family="Helvetica,sans-Serif" font-size="10.00">virtual SubscriptionStatus</text>
<text text-anchor="start" x="265" y="-992.5" font-family="Helvetica,sans-Serif" font-size="10.00"> onEvent(EventType const</text>
<text text-anchor="start" x="265" y="-977.5" font-family="Helvetica,sans-Serif" font-size="10.00"> &amp;event)=0</text>
<text text-anchor="start" x="255" y="-958.5" font-family="Helvetica,sans-Serif" font-size="10.00">+</text>
<text text-anchor="start" x="265" y="-958.5" font-family="Helvetica,sans-Serif" font-size="10.00">virtual SubscriptionStatus</text>
<text text-anchor="start" x="265" y="-943.5" font-family="Helvetica,sans-Serif" font-size="10.00"> getSubscriptionStatus()</text>
<text text-anchor="start" x="265" y="-928.5" font-family="Helvetica,sans-Serif" font-size="10.00"> noexcept</text>
<text text-anchor="start" x="255" y="-909.5" font-family="Helvetica,sans-Serif" font-size="10.00">+</text>
<text text-anchor="start" x="265" y="-909.5" font-family="Helvetica,sans-Serif" font-size="10.00">virtual std::string</text>
<text text-anchor="start" x="265" y="-894.5" font-family="Helvetica,sans-Serif" font-size="10.00"> getSubscriberID() final</text>
<text text-anchor="start" x="255.38" y="-875.5" font-family="Helvetica,sans-Serif" font-size="10.00">#</text>
<text text-anchor="start" x="265" y="-875.5" font-family="Helvetica,sans-Serif" font-size="10.00">virtual std::string</text>
<text text-anchor="start" x="265" y="-860.5" font-family="Helvetica,sans-Serif" font-size="10.00"> getSubscriberName()</text>
<text text-anchor="start" x="265" y="-845.5" font-family="Helvetica,sans-Serif" font-size="10.00"> const noexcept</text>
<polygon fill="#666666" stroke="#666666" points="251,-1072 251,-1072 383,-1072 383,-1072 251,-1072"/>
<polygon fill="#666666" stroke="#666666" points="251,-1053 251,-1053 263,-1053 263,-1053 251,-1053"/>
<polygon fill="#666666" stroke="#666666" points="263,-1053 263,-1053 383,-1053 383,-1053 263,-1053"/>
<polygon fill="none" stroke="#666666" points="251,-836 251,-1108 383,-1108 383,-836 251,-836"/>
</a>
</g>
</g>
<!-- Node2 -->
<g id="Node000002" class="node">
<title>Node2</title>
<g id="a_Node000002"><a xlink:href="structcore_1_1SubscriberBase.html" target="_top" xlink:title=" ">
<polygon fill="white" stroke="none" points="309,-785 175,-785 175,-513 309,-513 309,-785"/>
<text text-anchor="start" x="195.12" y="-771.5" font-family="Helvetica,sans-Serif" font-size="10.00">core::SubscriberBase</text>
<text text-anchor="start" x="195.5" y="-756.5" font-family="Helvetica,sans-Serif" font-size="10.00">&lt; cmd::TokenEvent &gt;</text>
<text text-anchor="start" x="180.5" y="-737.5" font-family="Helvetica,sans-Serif" font-size="10.00">&#45;</text>
<text text-anchor="start" x="189" y="-737.5" font-family="Helvetica,sans-Serif" font-size="10.00">std::string _id</text>
<text text-anchor="start" x="179" y="-718.5" font-family="Helvetica,sans-Serif" font-size="10.00">+</text>
<text text-anchor="start" x="189" y="-718.5" font-family="Helvetica,sans-Serif" font-size="10.00">virtual ~SubscriberBase</text>
<text text-anchor="start" x="189" y="-703.5" font-family="Helvetica,sans-Serif" font-size="10.00">()=default</text>
<text text-anchor="start" x="179" y="-684.5" font-family="Helvetica,sans-Serif" font-size="10.00">+</text>
<text text-anchor="start" x="189" y="-684.5" font-family="Helvetica,sans-Serif" font-size="10.00">virtual SubscriptionStatus</text>
<text text-anchor="start" x="189" y="-669.5" font-family="Helvetica,sans-Serif" font-size="10.00"> onEvent(cmd::TokenEvent</text>
<text text-anchor="start" x="189" y="-654.5" font-family="Helvetica,sans-Serif" font-size="10.00"> const &amp;event)=0</text>
<text text-anchor="start" x="179" y="-635.5" font-family="Helvetica,sans-Serif" font-size="10.00">+</text>
<text text-anchor="start" x="189" y="-635.5" font-family="Helvetica,sans-Serif" font-size="10.00">virtual SubscriptionStatus</text>
<text text-anchor="start" x="189" y="-620.5" font-family="Helvetica,sans-Serif" font-size="10.00"> getSubscriptionStatus()</text>
<text text-anchor="start" x="189" y="-605.5" font-family="Helvetica,sans-Serif" font-size="10.00"> noexcept</text>
<text text-anchor="start" x="179" y="-586.5" font-family="Helvetica,sans-Serif" font-size="10.00">+</text>
<text text-anchor="start" x="189" y="-586.5" font-family="Helvetica,sans-Serif" font-size="10.00">virtual std::string</text>
<text text-anchor="start" x="189" y="-571.5" font-family="Helvetica,sans-Serif" font-size="10.00"> getSubscriberID() final</text>
<text text-anchor="start" x="179.38" y="-552.5" font-family="Helvetica,sans-Serif" font-size="10.00">#</text>
<text text-anchor="start" x="189" y="-552.5" font-family="Helvetica,sans-Serif" font-size="10.00">virtual std::string</text>
<text text-anchor="start" x="189" y="-537.5" font-family="Helvetica,sans-Serif" font-size="10.00"> getSubscriberName()</text>
<text text-anchor="start" x="189" y="-522.5" font-family="Helvetica,sans-Serif" font-size="10.00"> const noexcept</text>
<polygon fill="#666666" stroke="#666666" points="175,-749 175,-749 309,-749 309,-749 175,-749"/>
<polygon fill="#666666" stroke="#666666" points="175,-730 175,-730 187,-730 187,-730 175,-730"/>
<polygon fill="#666666" stroke="#666666" points="187,-730 187,-730 309,-730 309,-730 187,-730"/>
<polygon fill="none" stroke="#666666" points="175,-513 175,-785 309,-785 309,-513 175,-513"/>
</a>
</g>
</g>
<!-- Node1&#45;&gt;Node2 -->
<g id="edge1_Node000001_Node000002" class="edge">
<title>Node1&#45;&gt;Node2</title>
<g id="a_edge1_Node000001_Node000002"><a xlink:title=" ">
<path fill="none" stroke="orange" d="M267.86,-825.64C267.22,-823.08 266.6,-820.53 266,-818 263.46,-807.25 261.15,-796.04 259.06,-784.74"/>
<polygon fill="orange" stroke="orange" points="264.71,-826.43 270.61,-835.22 271.48,-824.66 264.71,-826.43"/>
</a>
</g>
<text text-anchor="middle" x="314" y="-808.5" font-family="Helvetica,sans-Serif" font-size="10.00" fill="grey"> &lt; cmd::TokenEvent &gt;</text>
</g>
<!-- Node5 -->
<g id="Node000005" class="node">
<title>Node5</title>
<g id="a_Node000005"><a xlink:href="structcore_1_1SubscriberBase.html" target="_top" xlink:title=" ">
<polygon fill="white" stroke="none" points="457,-785 327,-785 327,-513 457,-513 457,-785"/>
<text text-anchor="start" x="345.12" y="-771.5" font-family="Helvetica,sans-Serif" font-size="10.00">core::SubscriberBase</text>
<text text-anchor="start" x="348.88" y="-756.5" font-family="Helvetica,sans-Serif" font-size="10.00">&lt; bulk::BulkEvent &gt;</text>
<text text-anchor="start" x="332.5" y="-737.5" font-family="Helvetica,sans-Serif" font-size="10.00">&#45;</text>
<text text-anchor="start" x="341" y="-737.5" font-family="Helvetica,sans-Serif" font-size="10.00">std::string _id</text>
<text text-anchor="start" x="331" y="-718.5" font-family="Helvetica,sans-Serif" font-size="10.00">+</text>
<text text-anchor="start" x="341" y="-718.5" font-family="Helvetica,sans-Serif" font-size="10.00">virtual ~SubscriberBase</text>
<text text-anchor="start" x="341" y="-703.5" font-family="Helvetica,sans-Serif" font-size="10.00">()=default</text>
<text text-anchor="start" x="331" y="-684.5" font-family="Helvetica,sans-Serif" font-size="10.00">+</text>
<text text-anchor="start" x="341" y="-684.5" font-family="Helvetica,sans-Serif" font-size="10.00">virtual SubscriptionStatus</text>
<text text-anchor="start" x="341" y="-669.5" font-family="Helvetica,sans-Serif" font-size="10.00"> onEvent(bulk::BulkEvent</text>
<text text-anchor="start" x="341" y="-654.5" font-family="Helvetica,sans-Serif" font-size="10.00"> const &amp;event)=0</text>
<text text-anchor="start" x="331" y="-635.5" font-family="Helvetica,sans-Serif" font-size="10.00">+</text>
<text text-anchor="start" x="341" y="-635.5" font-family="Helvetica,sans-Serif" font-size="10.00">virtual SubscriptionStatus</text>
<text text-anchor="start" x="341" y="-620.5" font-family="Helvetica,sans-Serif" font-size="10.00"> getSubscriptionStatus()</text>
<text text-anchor="start" x="341" y="-605.5" font-family="Helvetica,sans-Serif" font-size="10.00"> noexcept</text>
<text text-anchor="start" x="331" y="-586.5" font-family="Helvetica,sans-Serif" font-size="10.00">+</text>
<text text-anchor="start" x="341" y="-586.5" font-family="Helvetica,sans-Serif" font-size="10.00">virtual std::string</text>
<text text-anchor="start" x="341" y="-571.5" font-family="Helvetica,sans-Serif" font-size="10.00"> getSubscriberID() final</text>
<text text-anchor="start" x="331.38" y="-552.5" font-family="Helvetica,sans-Serif" font-size="10.00">#</text>
<text text-anchor="start" x="341" y="-552.5" font-family="Helvetica,sans-Serif" font-size="10.00">virtual std::string</text>
<text text-anchor="start" x="341" y="-537.5" font-family="Helvetica,sans-Serif" font-size="10.00"> getSubscriberName()</text>
<text text-anchor="start" x="341" y="-522.5" font-family="Helvetica,sans-Serif" font-size="10.00"> const noexcept</text>
<polygon fill="#666666" stroke="#666666" points="327,-749 327,-749 457,-749 457,-749 327,-749"/>
<polygon fill="#666666" stroke="#666666" points="327,-730 327,-730 339,-730 339,-730 327,-730"/>
<polygon fill="#666666" stroke="#666666" points="339,-730 339,-730 457,-730 457,-730 339,-730"/>
<polygon fill="none" stroke="#666666" points="327,-513 327,-785 457,-785 457,-513 327,-513"/>
</a>
</g>
</g>
<!-- Node1&#45;&gt;Node5 -->
<g id="edge4_Node000001_Node000005" class="edge">
<title>Node1&#45;&gt;Node5</title>
<g id="a_edge4_Node000001_Node000005"><a xlink:title=" ">
<path fill="none" stroke="orange" d="M360.18,-825.56C360.8,-823.02 361.41,-820.5 362,-818 364.55,-807.19 366.99,-795.93 369.31,-784.61"/>
<polygon fill="orange" stroke="orange" points="356.59,-824.51 357.56,-835.06 363.38,-826.2 356.59,-824.51"/>
</a>
</g>
<text text-anchor="middle" x="409.62" y="-808.5" font-family="Helvetica,sans-Serif" font-size="10.00" fill="grey"> &lt; bulk::BulkEvent &gt;</text>
</g>
<!-- Node3 -->
<g id="Node000003" class="node">
<title>Node3</title>
<g id="a_Node000003"><a xlink:href="classbulk_1_1provider_1_1BulkTranslator.html" target="_top" xlink:title=" ">
<polygon fill="white" stroke="none" points="146,-368.5 0,-368.5 0,-107.5 146,-107.5 146,-368.5"/>
<text text-anchor="start" x="9.62" y="-355" font-family="Helvetica,sans-Serif" font-size="10.00">bulk::provider::BulkTranslator</text>
<text text-anchor="start" x="5.5" y="-336" font-family="Helvetica,sans-Serif" font-size="10.00">&#45;</text>
<text text-anchor="start" x="14" y="-336" font-family="Helvetica,sans-Serif" font-size="10.00">const size_t _BULK_SIZE</text>
<text text-anchor="start" x="5.5" y="-317" font-family="Helvetica,sans-Serif" font-size="10.00">&#45;</text>
<text text-anchor="start" x="14" y="-317" font-family="Helvetica,sans-Serif" font-size="10.00">VState _state</text>
<text text-anchor="start" x="5.5" y="-298" font-family="Helvetica,sans-Serif" font-size="10.00">&#45;</text>
<text text-anchor="start" x="14" y="-298" font-family="Helvetica,sans-Serif" font-size="10.00">BulkEvent _bulk</text>
<text text-anchor="start" x="4" y="-279" font-family="Helvetica,sans-Serif" font-size="10.00">+</text>
<text text-anchor="start" x="14" y="-279" font-family="Helvetica,sans-Serif" font-size="10.00">core::SubscriptionStatus</text>
<text text-anchor="start" x="14" y="-264" font-family="Helvetica,sans-Serif" font-size="10.00"> getSubscriptionStatus</text>
<text text-anchor="start" x="14" y="-249" font-family="Helvetica,sans-Serif" font-size="10.00">() noexcept override</text>
<text text-anchor="start" x="4" y="-230" font-family="Helvetica,sans-Serif" font-size="10.00">+</text>
<text text-anchor="start" x="14" y="-230" font-family="Helvetica,sans-Serif" font-size="10.00">core::SubscriptionStatus</text>
<text text-anchor="start" x="14" y="-215" font-family="Helvetica,sans-Serif" font-size="10.00"> onEvent(cmd::TokenEvent</text>
<text text-anchor="start" x="14" y="-200" font-family="Helvetica,sans-Serif" font-size="10.00"> const &amp;event) override</text>
<text text-anchor="start" x="4" y="-181" font-family="Helvetica,sans-Serif" font-size="10.00">+</text>
<text text-anchor="start" x="14" y="-181" font-family="Helvetica,sans-Serif" font-size="10.00">static std::shared</text>
<text text-anchor="start" x="14" y="-166" font-family="Helvetica,sans-Serif" font-size="10.00">_ptr&lt; BulkTranslator</text>
<text text-anchor="start" x="14" y="-151" font-family="Helvetica,sans-Serif" font-size="10.00"> &gt; create(size_t BULK_SIZE)</text>
<text text-anchor="start" x="5.5" y="-132" font-family="Helvetica,sans-Serif" font-size="10.00">&#45;</text>
<text text-anchor="start" x="14" y="-132" font-family="Helvetica,sans-Serif" font-size="10.00">BulkTranslator(size</text>
<text text-anchor="start" x="14" y="-117" font-family="Helvetica,sans-Serif" font-size="10.00">_t BULK_SIZE)</text>
<polygon fill="#666666" stroke="#666666" points="0,-347.5 0,-347.5 146,-347.5 146,-347.5 0,-347.5"/>
<polygon fill="#666666" stroke="#666666" points="0,-290.5 0,-290.5 12,-290.5 12,-290.5 0,-290.5"/>
<polygon fill="#666666" stroke="#666666" points="12,-290.5 12,-290.5 146,-290.5 146,-290.5 12,-290.5"/>
<polygon fill="none" stroke="#666666" points="0,-107.5 0,-368.5 146,-368.5 146,-107.5 0,-107.5"/>
</a>
</g>
</g>
<!-- Node2&#45;&gt;Node3 -->
<g id="edge2_Node000002_Node000003" class="edge">
<title>Node2&#45;&gt;Node3</title>
<g id="a_edge2_Node000002_Node000003"><a xlink:title=" ">
<path fill="none" stroke="#63b8ff" d="M170.58,-510.87C165.11,-499.17 159.84,-487.43 155,-476 140.44,-441.62 126.43,-403.68 114.24,-368.43"/>
<polygon fill="none" stroke="#63b8ff" points="167.78,-512.14 175.21,-519.69 174.11,-509.16 167.78,-512.14"/>
</a>
</g>
</g>
<!-- Node4 -->
<g id="Node000004" class="node">
<title>Node4</title>
<g id="a_Node000004"><a xlink:href="classlogs_1_1OutputStreamWriter.html" target="_top" xlink:title=" ">
<polygon fill="white" stroke="none" points="320,-398.5 164,-398.5 164,-77.5 320,-77.5 320,-398.5"/>
<text text-anchor="start" x="186.88" y="-385" font-family="Helvetica,sans-Serif" font-size="10.00">logs::OutputStreamWriter</text>
<text text-anchor="start" x="169.5" y="-366" font-family="Helvetica,sans-Serif" font-size="10.00">&#45;</text>
<text text-anchor="start" x="178" y="-366" font-family="Helvetica,sans-Serif" font-size="10.00">std::ostream &amp; _out</text>
<text text-anchor="start" x="169.5" y="-347" font-family="Helvetica,sans-Serif" font-size="10.00">&#45;</text>
<text text-anchor="start" x="178" y="-347" font-family="Helvetica,sans-Serif" font-size="10.00">std::string const _name</text>
<text text-anchor="start" x="168" y="-328" font-family="Helvetica,sans-Serif" font-size="10.00">+</text>
<text text-anchor="start" x="178" y="-328" font-family="Helvetica,sans-Serif" font-size="10.00">core::SubscriptionStatus</text>
<text text-anchor="start" x="178" y="-313" font-family="Helvetica,sans-Serif" font-size="10.00"> onEvent(bulk::BulkEvent</text>
<text text-anchor="start" x="178" y="-298" font-family="Helvetica,sans-Serif" font-size="10.00"> const &amp;event) override</text>
<text text-anchor="start" x="168" y="-279" font-family="Helvetica,sans-Serif" font-size="10.00">+</text>
<text text-anchor="start" x="178" y="-279" font-family="Helvetica,sans-Serif" font-size="10.00">core::SubscriptionStatus</text>
<text text-anchor="start" x="178" y="-264" font-family="Helvetica,sans-Serif" font-size="10.00"> onEvent(cmd::TokenEvent</text>
<text text-anchor="start" x="178" y="-249" font-family="Helvetica,sans-Serif" font-size="10.00"> const &amp;event) override</text>
<text text-anchor="start" x="168" y="-230" font-family="Helvetica,sans-Serif" font-size="10.00">+</text>
<text text-anchor="start" x="178" y="-230" font-family="Helvetica,sans-Serif" font-size="10.00">static std::shared</text>
<text text-anchor="start" x="178" y="-215" font-family="Helvetica,sans-Serif" font-size="10.00">_ptr&lt; OutputStreamWriter</text>
<text text-anchor="start" x="178" y="-200" font-family="Helvetica,sans-Serif" font-size="10.00"> &gt; create(std::ostream</text>
<text text-anchor="start" x="178" y="-185" font-family="Helvetica,sans-Serif" font-size="10.00"> &amp;out, std::string_view</text>
<text text-anchor="start" x="178" y="-170" font-family="Helvetica,sans-Serif" font-size="10.00"> local_name=&quot;&quot;)</text>
<text text-anchor="start" x="169.5" y="-151" font-family="Helvetica,sans-Serif" font-size="10.00">&#45;</text>
<text text-anchor="start" x="178" y="-151" font-family="Helvetica,sans-Serif" font-size="10.00">OutputStreamWriter</text>
<text text-anchor="start" x="178" y="-136" font-family="Helvetica,sans-Serif" font-size="10.00">(std::ostream &amp;out,</text>
<text text-anchor="start" x="178" y="-121" font-family="Helvetica,sans-Serif" font-size="10.00"> std::string_view local_name)</text>
<text text-anchor="start" x="169.5" y="-102" font-family="Helvetica,sans-Serif" font-size="10.00">&#45;</text>
<text text-anchor="start" x="178" y="-102" font-family="Helvetica,sans-Serif" font-size="10.00">std::string getSubscriber</text>
<text text-anchor="start" x="178" y="-87" font-family="Helvetica,sans-Serif" font-size="10.00">Name() const noexcept override</text>
<polygon fill="#666666" stroke="#666666" points="164,-377.5 164,-377.5 320,-377.5 320,-377.5 164,-377.5"/>
<polygon fill="#666666" stroke="#666666" points="164,-339.5 164,-339.5 176,-339.5 176,-339.5 164,-339.5"/>
<polygon fill="#666666" stroke="#666666" points="176,-339.5 176,-339.5 320,-339.5 320,-339.5 176,-339.5"/>
<polygon fill="none" stroke="#666666" points="164,-77.5 164,-398.5 320,-398.5 320,-77.5 164,-77.5"/>
</a>
</g>
</g>
<!-- Node2&#45;&gt;Node4 -->
<g id="edge3_Node000002_Node000004" class="edge">
<title>Node2&#45;&gt;Node4</title>
<g id="a_edge3_Node000002_Node000004"><a xlink:title=" ">
<path fill="none" stroke="#63b8ff" d="M242,-502.36C242,-468.62 242,-432.55 242,-398.26"/>
<polygon fill="none" stroke="#63b8ff" points="238.5,-502.23 242,-512.23 245.5,-502.23 238.5,-502.23"/>
</a>
</g>
</g>
<!-- Node5&#45;&gt;Node4 -->
<g id="edge6_Node000005_Node000004" class="edge">
<title>Node5&#45;&gt;Node4</title>
<g id="a_edge6_Node000005_Node000004"><a xlink:title=" ">
<path fill="none" stroke="#63b8ff" d="M338.91,-503.24C326.44,-469.25 313.09,-432.85 300.41,-398.26"/>
<polygon fill="none" stroke="#63b8ff" points="335.84,-504.04 342.57,-512.23 342.42,-501.63 335.84,-504.04"/>
</a>
</g>
</g>
<!-- Node6 -->
<g id="Node000006" class="node">
<title>Node6</title>
<g id="a_Node000006"><a xlink:href="classlogs_1_1FileWriter.html" target="_top" xlink:title=" ">
<polygon fill="white" stroke="none" points="494,-476 338,-476 338,0 494,0 494,-476"/>
<text text-anchor="start" x="383.38" y="-462.5" font-family="Helvetica,sans-Serif" font-size="10.00">logs::FileWriter</text>
<text text-anchor="start" x="343.5" y="-443.5" font-family="Helvetica,sans-Serif" font-size="10.00">&#45;</text>
<text text-anchor="start" x="352" y="-443.5" font-family="Helvetica,sans-Serif" font-size="10.00">fs::path const _output_dir</text>
<text text-anchor="start" x="343.5" y="-424.5" font-family="Helvetica,sans-Serif" font-size="10.00">&#45;</text>
<text text-anchor="start" x="352" y="-424.5" font-family="Helvetica,sans-Serif" font-size="10.00">std::string const </text>
<text text-anchor="start" x="352" y="-409.5" font-family="Helvetica,sans-Serif" font-size="10.00">_local_name</text>
<text text-anchor="start" x="343.5" y="-390.5" font-family="Helvetica,sans-Serif" font-size="10.00">&#45;</text>
<text text-anchor="start" x="352" y="-390.5" font-family="Helvetica,sans-Serif" font-size="10.00">std::string const _name</text>
<text text-anchor="start" x="343.5" y="-371.5" font-family="Helvetica,sans-Serif" font-size="10.00">&#45;</text>
<text text-anchor="start" x="352" y="-371.5" font-family="Helvetica,sans-Serif" font-size="10.00">size_t _bulk_counter</text>
<text text-anchor="start" x="343.5" y="-352.5" font-family="Helvetica,sans-Serif" font-size="10.00">&#45;</text>
<text text-anchor="start" x="352" y="-352.5" font-family="Helvetica,sans-Serif" font-size="10.00">core::SubscriptionStatus</text>
<text text-anchor="start" x="352" y="-337.5" font-family="Helvetica,sans-Serif" font-size="10.00"> _subs_state</text>
<text text-anchor="start" x="342" y="-318.5" font-family="Helvetica,sans-Serif" font-size="10.00">+</text>
<text text-anchor="start" x="352" y="-318.5" font-family="Helvetica,sans-Serif" font-size="10.00">core::SubscriptionStatus</text>
<text text-anchor="start" x="352" y="-303.5" font-family="Helvetica,sans-Serif" font-size="10.00"> getSubscriptionStatus</text>
<text text-anchor="start" x="352" y="-288.5" font-family="Helvetica,sans-Serif" font-size="10.00">() noexcept override</text>
<text text-anchor="start" x="342" y="-269.5" font-family="Helvetica,sans-Serif" font-size="10.00">+</text>
<text text-anchor="start" x="352" y="-269.5" font-family="Helvetica,sans-Serif" font-size="10.00">void setSubscriptionStatus</text>
<text text-anchor="start" x="352" y="-254.5" font-family="Helvetica,sans-Serif" font-size="10.00">(core::SubscriptionStatus</text>
<text text-anchor="start" x="352" y="-239.5" font-family="Helvetica,sans-Serif" font-size="10.00"> state) noexcept</text>
<text text-anchor="start" x="342" y="-220.5" font-family="Helvetica,sans-Serif" font-size="10.00">+</text>
<text text-anchor="start" x="352" y="-220.5" font-family="Helvetica,sans-Serif" font-size="10.00">core::SubscriptionStatus</text>
<text text-anchor="start" x="352" y="-205.5" font-family="Helvetica,sans-Serif" font-size="10.00"> onEvent(bulk::BulkEvent</text>
<text text-anchor="start" x="352" y="-190.5" font-family="Helvetica,sans-Serif" font-size="10.00"> const &amp;event) override</text>
<text text-anchor="start" x="342" y="-171.5" font-family="Helvetica,sans-Serif" font-size="10.00">+</text>
<text text-anchor="start" x="352" y="-171.5" font-family="Helvetica,sans-Serif" font-size="10.00">static auto create</text>
<text text-anchor="start" x="352" y="-156.5" font-family="Helvetica,sans-Serif" font-size="10.00">(std::string_view output</text>
<text text-anchor="start" x="352" y="-141.5" font-family="Helvetica,sans-Serif" font-size="10.00">_directory, std::string</text>
<text text-anchor="start" x="352" y="-126.5" font-family="Helvetica,sans-Serif" font-size="10.00">_view name=&quot;&quot;)</text>
<text text-anchor="start" x="343.5" y="-107.5" font-family="Helvetica,sans-Serif" font-size="10.00">&#45;</text>
<text text-anchor="start" x="352" y="-107.5" font-family="Helvetica,sans-Serif" font-size="10.00">FileWriter(std::string</text>
<text text-anchor="start" x="352" y="-92.5" font-family="Helvetica,sans-Serif" font-size="10.00">_view output_directory,</text>
<text text-anchor="start" x="352" y="-77.5" font-family="Helvetica,sans-Serif" font-size="10.00"> std::string_view local_name)</text>
<text text-anchor="start" x="343.5" y="-58.5" font-family="Helvetica,sans-Serif" font-size="10.00">&#45;</text>
<text text-anchor="start" x="352" y="-58.5" font-family="Helvetica,sans-Serif" font-size="10.00">std::string getSubscriber</text>
<text text-anchor="start" x="352" y="-43.5" font-family="Helvetica,sans-Serif" font-size="10.00">Name() const noexcept override</text>
<text text-anchor="start" x="343.5" y="-24.5" font-family="Helvetica,sans-Serif" font-size="10.00">&#45;</text>
<text text-anchor="start" x="352" y="-24.5" font-family="Helvetica,sans-Serif" font-size="10.00">size_t _instanceNum</text>
<text text-anchor="start" x="352" y="-9.5" font-family="Helvetica,sans-Serif" font-size="10.00">() const</text>
<polygon fill="#666666" stroke="#666666" points="338,-455 338,-455 494,-455 494,-455 338,-455"/>
<polygon fill="#666666" stroke="#666666" points="338,-330 338,-330 350,-330 350,-330 338,-330"/>
<polygon fill="#666666" stroke="#666666" points="350,-330 350,-330 494,-330 494,-330 350,-330"/>
<polygon fill="none" stroke="#666666" points="338,0 338,-476 494,-476 494,0 338,0"/>
</a>
</g>
</g>
<!-- Node5&#45;&gt;Node6 -->
<g id="edge5_Node000005_Node000006" class="edge">
<title>Node5&#45;&gt;Node6</title>
<g id="a_edge5_Node000005_Node000006"><a xlink:title=" ">
<path fill="none" stroke="#63b8ff" d="M400.55,-502.25C401.07,-493.51 401.59,-484.62 402.11,-475.64"/>
<polygon fill="none" stroke="#63b8ff" points="397,-502.04 399.91,-512.23 403.99,-502.45 397,-502.04"/>
</a>
</g>
</g>
</g>
</svg>
