<?xml version="1.0" encoding="UTF-8" standalone="no"?>
<!DOCTYPE svg PUBLIC "-//W3C//DTD SVG 1.1//EN"
 "http://www.w3.org/Graphics/SVG/1.1/DTD/svg11.dtd">
<!-- Generated by graphviz version 8.1.0 (20230707.0739)
 -->
<!-- Title: overloaded&lt; Ts &gt; Pages: 1 -->
<svg width="93pt" height="166pt"
 viewBox="0.00 0.00 93.00 166.00" xmlns="http://www.w3.org/2000/svg" xmlns:xlink="http://www.w3.org/1999/xlink">

<svg id="main" version="1.1" xmlns="http://www.w3.org/2000/svg" xmlns:xlink="http://www.w3.org/1999/xlink" xml:space="preserve" onload="init(evt)">
<style type="text/css"><![CDATA[
.node, .edge {opacity: 0.7;}
.node.selected, .edge.selected {opacity: 1;}
.edge:hover path { stroke: red; }
.edge:hover polygon { stroke: red; fill: red; }
]]></style>
<script type="application/ecmascript" xlink:href="svg.min.js"/>
<svg id="graph" class="graph">
<g id="graph0" class="graph" transform="scale(1 1) rotate(0) translate(4 162)">
<title>overloaded&lt; Ts &gt;</title>
<!-- Node1 -->
<g id="Node000001" class="node">
<title>Node1</title>
<g id="a_Node000001"><a xlink:title=" ">
<polygon fill="#999999" stroke="none" points="85,-61 0,-61 0,0 85,0 85,-61"/>
<text text-anchor="start" x="5" y="-47.5" font-family="Helvetica,sans-Serif" font-size="10.00">overloaded&lt; Ts &gt;</text>
<text text-anchor="start" x="41" y="-28.5" font-family="Helvetica,sans-Serif" font-size="10.00"> </text>
<text text-anchor="start" x="41" y="-9.5" font-family="Helvetica,sans-Serif" font-size="10.00"> </text>
<polygon fill="#666666" stroke="#666666" points="0,-40 0,-40 85,-40 85,-40 0,-40"/>
<polygon fill="#666666" stroke="#666666" points="0,-21 0,-21 85,-21 85,-21 0,-21"/>
<polygon fill="none" stroke="#666666" points="0,0 0,-61 85,-61 85,0 0,0"/>
</a>
</g>
</g>
<!-- Node2 -->
<g id="Node000002" class="node">
<title>Node2</title>
<g id="a_Node000002"><a xlink:title=" ">
<polygon fill="white" stroke="none" points="52.5,-158 32.5,-158 32.5,-97 52.5,-97 52.5,-158"/>
<text text-anchor="start" x="37.25" y="-144.5" font-family="Helvetica,sans-Serif" font-size="10.00">Ts</text>
<text text-anchor="start" x="41" y="-125.5" font-family="Helvetica,sans-Serif" font-size="10.00"> </text>
<text text-anchor="start" x="41" y="-106.5" font-family="Helvetica,sans-Serif" font-size="10.00"> </text>
<polygon fill="#666666" stroke="#666666" points="32.5,-137 32.5,-137 52.5,-137 52.5,-137 32.5,-137"/>
<polygon fill="#666666" stroke="#666666" points="32.5,-118 32.5,-118 52.5,-118 52.5,-118 32.5,-118"/>
<polygon fill="none" stroke="#666666" points="32.5,-97 32.5,-158 52.5,-158 52.5,-97 32.5,-97"/>
</a>
</g>
</g>
<!-- Node2&#45;&gt;Node1 -->
<g id="edge1_Node000001_Node000002" class="edge">
<title>Node2&#45;&gt;Node1</title>
<g id="a_edge1_Node000001_Node000002"><a xlink:title=" ">
<path fill="none" stroke="#63b8ff" d="M42.5,-86.28C42.5,-77.74 42.5,-68.89 42.5,-60.85"/>
<polygon fill="none" stroke="#63b8ff" points="39,-86.22 42.5,-96.22 46,-86.22 39,-86.22"/>
</a>
</g>
</g>
</g>
</svg>
</svg>

<style type='text/css'>
<![CDATA[
[data-mouse-over-selected='false'] { opacity: 0.7; }
[data-mouse-over-selected='true']  { opacity: 1.0; }
]]>
</style>
<script type="application/ecmascript"><![CDATA[
document.addEventListener('DOMContentLoaded', (event) => {
  highlightEdges();
  highlightAdjacentNodes();
});
]]></script>
</svg>
