<?xml version="1.0" encoding="UTF-8" standalone="no"?>
<!DOCTYPE svg PUBLIC "-//W3C//DTD SVG 1.1//EN"
 "http://www.w3.org/Graphics/SVG/1.1/DTD/svg11.dtd">
<!-- Generated by graphviz version 8.1.0 (20230707.0739)
 -->
<!-- Title: utils::overload&lt; Ts &gt; Pages: 1 -->
<svg width="106pt" height="166pt"
 viewBox="0.00 0.00 106.00 166.00" xmlns="http://www.w3.org/2000/svg" xmlns:xlink="http://www.w3.org/1999/xlink">
<g id="graph0" class="graph" transform="scale(1 1) rotate(0) translate(4 162)">
<title>utils::overload&lt; Ts &gt;</title>
<!-- Node1 -->
<g id="Node000001" class="node">
<title>Node1</title>
<g id="a_Node000001"><a xlink:title=" ">
<polygon fill="#999999" stroke="none" points="98,-61 0,-61 0,0 98,0 98,-61"/>
<text text-anchor="start" x="4.75" y="-47.5" font-family="Helvetica,sans-Serif" font-size="10.00">utils::overload&lt; Ts &gt;</text>
<text text-anchor="start" x="47.5" y="-28.5" font-family="Helvetica,sans-Serif" font-size="10.00"> </text>
<text text-anchor="start" x="47.5" y="-9.5" font-family="Helvetica,sans-Serif" font-size="10.00"> </text>
<polygon fill="#666666" stroke="#666666" points="0,-40 0,-40 98,-40 98,-40 0,-40"/>
<polygon fill="#666666" stroke="#666666" points="0,-21 0,-21 98,-21 98,-21 0,-21"/>
<polygon fill="none" stroke="#666666" points="0,0 0,-61 98,-61 98,0 0,0"/>
</a>
</g>
</g>
<!-- Node2 -->
<g id="Node000002" class="node">
<title>Node2</title>
<g id="a_Node000002"><a xlink:title=" ">
<polygon fill="white" stroke="none" points="59,-158 39,-158 39,-97 59,-97 59,-158"/>
<text text-anchor="start" x="43.75" y="-144.5" font-family="Helvetica,sans-Serif" font-size="10.00">Ts</text>
<text text-anchor="start" x="47.5" y="-125.5" font-family="Helvetica,sans-Serif" font-size="10.00"> </text>
<text text-anchor="start" x="47.5" y="-106.5" font-family="Helvetica,sans-Serif" font-size="10.00"> </text>
<polygon fill="#666666" stroke="#666666" points="39,-137 39,-137 59,-137 59,-137 39,-137"/>
<polygon fill="#666666" stroke="#666666" points="39,-118 39,-118 59,-118 59,-118 39,-118"/>
<polygon fill="none" stroke="#666666" points="39,-97 39,-158 59,-158 59,-97 39,-97"/>
</a>
</g>
</g>
<!-- Node2&#45;&gt;Node1 -->
<g id="edge1_Node000001_Node000002" class="edge">
<title>Node2&#45;&gt;Node1</title>
<g id="a_edge1_Node000001_Node000002"><a xlink:title=" ">
<path fill="none" stroke="#63b8ff" d="M49,-86.28C49,-77.74 49,-68.89 49,-60.85"/>
<polygon fill="none" stroke="#63b8ff" points="45.5,-86.22 49,-96.22 52.5,-86.22 45.5,-86.22"/>
</a>
</g>
</g>
</g>
</svg>
