<?xml version="1.0" encoding="UTF-8" standalone="no"?>
<!DOCTYPE svg PUBLIC "-//W3C//DTD SVG 1.1//EN"
 "http://www.w3.org/Graphics/SVG/1.1/DTD/svg11.dtd">
<!-- Generated by graphviz version 8.1.0 (20230707.0739)
 -->
<!-- Title: bulk::BulkEvent Pages: 1 -->
<svg width="185pt" height="435pt"
 viewBox="0.00 0.00 184.75 435.00" xmlns="http://www.w3.org/2000/svg" xmlns:xlink="http://www.w3.org/1999/xlink">

<svg id="main" version="1.1" xmlns="http://www.w3.org/2000/svg" xmlns:xlink="http://www.w3.org/1999/xlink" xml:space="preserve" onload="init(evt)">
<style type="text/css"><![CDATA[
.node, .edge {opacity: 0.7;}
.node.selected, .edge.selected {opacity: 1;}
.edge:hover path { stroke: red; }
.edge:hover polygon { stroke: red; fill: red; }
]]></style>
<script type="application/ecmascript" xlink:href="svg.min.js"/>
<svg id="graph" class="graph">
<g id="graph0" class="graph" transform="scale(1 1) rotate(0) translate(4 431)">
<title>bulk::BulkEvent</title>
<!-- Node1 -->
<g id="Node000001" class="node">
<title>Node1</title>
<g id="a_Node000001"><a xlink:title=" ">
<polygon fill="#999999" stroke="none" points="161.5,-76 10.5,-76 10.5,0 161.5,0 161.5,-76"/>
<text text-anchor="start" x="51.88" y="-62.5" font-family="Helvetica,sans-Serif" font-size="10.00">bulk::BulkEvent</text>
<text text-anchor="start" x="14.5" y="-43.5" font-family="Helvetica,sans-Serif" font-size="10.00">+</text>
<text text-anchor="start" x="24.5" y="-43.5" font-family="Helvetica,sans-Serif" font-size="10.00">std::chrono::system</text>
<text text-anchor="start" x="24.5" y="-28.5" font-family="Helvetica,sans-Serif" font-size="10.00">_clock::time_point time_stamp</text>
<text text-anchor="start" x="84.5" y="-9.5" font-family="Helvetica,sans-Serif" font-size="10.00"> </text>
<polygon fill="#666666" stroke="#666666" points="10.5,-55 10.5,-55 161.5,-55 161.5,-55 10.5,-55"/>
<polygon fill="#666666" stroke="#666666" points="10.5,-21 10.5,-21 22.5,-21 22.5,-21 10.5,-21"/>
<polygon fill="#666666" stroke="#666666" points="22.5,-21 22.5,-21 161.5,-21 161.5,-21 22.5,-21"/>
<polygon fill="none" stroke="#666666" points="10.5,0 10.5,-76 161.5,-76 161.5,0 10.5,0"/>
</a>
</g>
</g>
<!-- Node2 -->
<g id="Node000002" class="node">
<title>Node2</title>
<g id="a_Node000002"><a xlink:title=" ">
<polygon fill="white" stroke="none" points="144.5,-188 27.5,-188 27.5,-127 144.5,-127 144.5,-188"/>
<text text-anchor="start" x="32.38" y="-174.5" font-family="Helvetica,sans-Serif" font-size="10.00">std::vector&lt; std::string &gt;</text>
<text text-anchor="start" x="84.5" y="-155.5" font-family="Helvetica,sans-Serif" font-size="10.00"> </text>
<text text-anchor="start" x="84.5" y="-136.5" font-family="Helvetica,sans-Serif" font-size="10.00"> </text>
<polygon fill="#666666" stroke="#666666" points="27.5,-167 27.5,-167 144.5,-167 144.5,-167 27.5,-167"/>
<polygon fill="#666666" stroke="#666666" points="27.5,-148 27.5,-148 144.5,-148 144.5,-148 27.5,-148"/>
<polygon fill="none" stroke="#666666" points="27.5,-127 27.5,-188 144.5,-188 144.5,-127 27.5,-127"/>
</a>
</g>
</g>
<!-- Node2&#45;&gt;Node1 -->
<g id="edge1_Node000001_Node000002" class="edge">
<title>Node2&#45;&gt;Node1</title>
<g id="a_edge1_Node000001_Node000002"><a xlink:title=" ">
<path fill="none" stroke="#63b8ff" d="M86,-127.15C86,-115.53 86,-101.84 86,-88.75"/>
<polygon fill="none" stroke="#63b8ff" points="86,-88.88 82,-82.88 86,-76.88 90,-82.88 86,-88.88"/>
</a>
</g>
<text text-anchor="middle" x="114.5" y="-99.5" font-family="Helvetica,sans-Serif" font-size="10.00" fill="grey"> +commands</text>
</g>
<!-- Node3 -->
<g id="Node000003" class="node">
<title>Node3</title>
<g id="a_Node000003"><a xlink:title=" ">
<polygon fill="white" stroke="none" points="70.5,-300 17.5,-300 17.5,-239 70.5,-239 70.5,-300"/>
<text text-anchor="start" x="22.25" y="-286.5" font-family="Helvetica,sans-Serif" font-size="10.00">std::string</text>
<text text-anchor="start" x="42.5" y="-267.5" font-family="Helvetica,sans-Serif" font-size="10.00"> </text>
<text text-anchor="start" x="42.5" y="-248.5" font-family="Helvetica,sans-Serif" font-size="10.00"> </text>
<polygon fill="#666666" stroke="#666666" points="17.5,-279 17.5,-279 70.5,-279 70.5,-279 17.5,-279"/>
<polygon fill="#666666" stroke="#666666" points="17.5,-260 17.5,-260 70.5,-260 70.5,-260 17.5,-260"/>
<polygon fill="none" stroke="#666666" points="17.5,-239 17.5,-300 70.5,-300 70.5,-239 17.5,-239"/>
</a>
</g>
</g>
<!-- Node3&#45;&gt;Node2 -->
<g id="edge2_Node000002_Node000003" class="edge">
<title>Node3&#45;&gt;Node2</title>
<g id="a_edge2_Node000002_Node000003"><a xlink:title=" ">
<path fill="none" stroke="#63b8ff" d="M46.2,-239.19C47.67,-228.47 50.13,-216.43 54.25,-206 55.16,-203.68 56.21,-201.36 57.34,-199.06"/>
<polygon fill="none" stroke="#63b8ff" points="57.32,-199.09 56.76,-191.9 63.18,-188.62 63.74,-195.81 57.32,-199.09"/>
</a>
</g>
<text text-anchor="middle" x="79.38" y="-211.5" font-family="Helvetica,sans-Serif" font-size="10.00" fill="grey"> +elements</text>
</g>
<!-- Node4 -->
<g id="Node000004" class="node">
<title>Node4</title>
<g id="a_Node000004"><a xlink:title=" ">
<polygon fill="white" stroke="none" points="88,-427 0,-427 0,-351 88,-351 88,-427"/>
<text text-anchor="start" x="5" y="-413.5" font-family="Helvetica,sans-Serif" font-size="10.00">std::basic_string&lt;</text>
<text text-anchor="start" x="27.5" y="-398.5" font-family="Helvetica,sans-Serif" font-size="10.00"> Char &gt;</text>
<text text-anchor="start" x="42.5" y="-379.5" font-family="Helvetica,sans-Serif" font-size="10.00"> </text>
<text text-anchor="start" x="42.5" y="-360.5" font-family="Helvetica,sans-Serif" font-size="10.00"> </text>
<polygon fill="#666666" stroke="#666666" points="0,-391 0,-391 88,-391 88,-391 0,-391"/>
<polygon fill="#666666" stroke="#666666" points="0,-372 0,-372 88,-372 88,-372 0,-372"/>
<polygon fill="none" stroke="#666666" points="0,-351 0,-427 88,-427 88,-351 0,-351"/>
</a>
</g>
</g>
<!-- Node4&#45;&gt;Node3 -->
<g id="edge3_Node000003_Node000004" class="edge">
<title>Node4&#45;&gt;Node3</title>
<g id="a_edge3_Node000003_Node000004"><a xlink:title=" ">
<path fill="none" stroke="#63b8ff" d="M44,-340.37C44,-326.63 44,-312.05 44,-299.78"/>
<polygon fill="none" stroke="#63b8ff" points="40.5,-340.14 44,-350.14 47.5,-340.14 40.5,-340.14"/>
</a>
</g>
</g>
<!-- Node5 -->
<g id="Node000005" class="node">
<title>Node5</title>
<g id="a_Node000005"><a xlink:title=" ">
<polygon fill="white" stroke="none" points="167.5,-300 88.5,-300 88.5,-239 167.5,-239 167.5,-300"/>
<text text-anchor="start" x="93.12" y="-286.5" font-family="Helvetica,sans-Serif" font-size="10.00">std::vector&lt; T &gt;</text>
<text text-anchor="start" x="126.5" y="-267.5" font-family="Helvetica,sans-Serif" font-size="10.00"> </text>
<text text-anchor="start" x="126.5" y="-248.5" font-family="Helvetica,sans-Serif" font-size="10.00"> </text>
<polygon fill="#666666" stroke="#666666" points="88.5,-279 88.5,-279 167.5,-279 167.5,-279 88.5,-279"/>
<polygon fill="#666666" stroke="#666666" points="88.5,-260 88.5,-260 167.5,-260 167.5,-260 88.5,-260"/>
<polygon fill="none" stroke="#666666" points="88.5,-239 88.5,-300 167.5,-300 167.5,-239 88.5,-239"/>
</a>
</g>
</g>
<!-- Node5&#45;&gt;Node2 -->
<g id="edge4_Node000002_Node000005" class="edge">
<title>Node5&#45;&gt;Node2</title>
<g id="a_edge4_Node000002_Node000005"><a xlink:title=" ">
<path fill="none" stroke="orange" d="M112.89,-228.94C107.69,-215.31 101.97,-200.32 97.14,-187.68"/>
<polygon fill="orange" stroke="orange" points="109.91,-229.93 116.74,-238.02 116.45,-227.43 109.91,-229.93"/>
</a>
</g>
<text text-anchor="middle" x="142.25" y="-211.5" font-family="Helvetica,sans-Serif" font-size="10.00" fill="grey"> &lt; std::string &gt;</text>
</g>
<!-- Node6 -->
<g id="Node000006" class="node">
<title>Node6</title>
<g id="a_Node000006"><a xlink:title=" ">
<polygon fill="white" stroke="none" points="136,-419.5 120,-419.5 120,-358.5 136,-358.5 136,-419.5"/>
<text text-anchor="start" x="125" y="-406" font-family="Helvetica,sans-Serif" font-size="10.00">T</text>
<text text-anchor="start" x="126.5" y="-387" font-family="Helvetica,sans-Serif" font-size="10.00"> </text>
<text text-anchor="start" x="126.5" y="-368" font-family="Helvetica,sans-Serif" font-size="10.00"> </text>
<polygon fill="#666666" stroke="#666666" points="120,-398.5 120,-398.5 136,-398.5 136,-398.5 120,-398.5"/>
<polygon fill="#666666" stroke="#666666" points="120,-379.5 120,-379.5 136,-379.5 136,-379.5 120,-379.5"/>
<polygon fill="none" stroke="#666666" points="120,-358.5 120,-419.5 136,-419.5 136,-358.5 120,-358.5"/>
</a>
</g>
</g>
<!-- Node6&#45;&gt;Node5 -->
<g id="edge5_Node000005_Node000006" class="edge">
<title>Node6&#45;&gt;Node5</title>
<g id="a_edge5_Node000005_Node000006"><a xlink:title=" ">
<path fill="none" stroke="#63b8ff" d="M128,-358.65C128,-344.77 128,-327.94 128,-312.73"/>
<polygon fill="none" stroke="#63b8ff" points="128,-312.78 124,-306.78 128,-300.78 132,-306.78 128,-312.78"/>
</a>
</g>
<text text-anchor="middle" x="152.38" y="-323.5" font-family="Helvetica,sans-Serif" font-size="10.00" fill="grey"> +elements</text>
</g>
</g>
</svg>
</svg>

<style type='text/css'>
<![CDATA[
[data-mouse-over-selected='false'] { opacity: 0.7; }
[data-mouse-over-selected='true']  { opacity: 1.0; }
]]>
</style>
<script type="application/ecmascript"><![CDATA[
document.addEventListener('DOMContentLoaded', (event) => {
  highlightEdges();
  highlightAdjacentNodes();
});
]]></script>
</svg>
