<?xml version="1.0" encoding="UTF-8" standalone="no"?>
<!DOCTYPE svg PUBLIC "-//W3C//DTD SVG 1.1//EN"
 "http://www.w3.org/Graphics/SVG/1.1/DTD/svg11.dtd">
<!-- Generated by graphviz version 8.1.0 (20230707.0739)
 -->
<!-- Title: cmd::TokenCommand Pages: 1 -->
<svg width="113pt" height="294pt"
 viewBox="0.00 0.00 113.00 294.00" xmlns="http://www.w3.org/2000/svg" xmlns:xlink="http://www.w3.org/1999/xlink">

<svg id="main" version="1.1" xmlns="http://www.w3.org/2000/svg" xmlns:xlink="http://www.w3.org/1999/xlink" xml:space="preserve" onload="init(evt)">
<style type="text/css"><![CDATA[
.node, .edge {opacity: 0.7;}
.node.selected, .edge.selected {opacity: 1;}
.edge:hover path { stroke: red; }
.edge:hover polygon { stroke: red; fill: red; }
]]></style>
<script type="application/ecmascript" xlink:href="svg.min.js"/>
<svg id="graph" class="graph">
<g id="graph0" class="graph" transform="scale(1 1) rotate(0) translate(4 290)">
<title>cmd::TokenCommand</title>
<!-- Node1 -->
<g id="Node000001" class="node">
<title>Node1</title>
<g id="a_Node000001"><a xlink:title="any string (f.e. cmdN ...)">
<polygon fill="#999999" stroke="none" points="105,-61 0,-61 0,0 105,0 105,-61"/>
<text text-anchor="start" x="4.88" y="-47.5" font-family="Helvetica,sans-Serif" font-size="10.00">cmd::TokenCommand</text>
<text text-anchor="start" x="51" y="-28.5" font-family="Helvetica,sans-Serif" font-size="10.00"> </text>
<text text-anchor="start" x="51" y="-9.5" font-family="Helvetica,sans-Serif" font-size="10.00"> </text>
<polygon fill="#666666" stroke="#666666" points="0,-40 0,-40 105,-40 105,-40 0,-40"/>
<polygon fill="#666666" stroke="#666666" points="0,-21 0,-21 105,-21 105,-21 0,-21"/>
<polygon fill="none" stroke="#666666" points="0,0 0,-61 105,-61 105,0 0,0"/>
</a>
</g>
</g>
<!-- Node2 -->
<g id="Node000002" class="node">
<title>Node2</title>
<g id="a_Node000002"><a xlink:title=" ">
<polygon fill="white" stroke="none" points="79,-173 26,-173 26,-112 79,-112 79,-173"/>
<text text-anchor="start" x="30.75" y="-159.5" font-family="Helvetica,sans-Serif" font-size="10.00">std::string</text>
<text text-anchor="start" x="51" y="-140.5" font-family="Helvetica,sans-Serif" font-size="10.00"> </text>
<text text-anchor="start" x="51" y="-121.5" font-family="Helvetica,sans-Serif" font-size="10.00"> </text>
<polygon fill="#666666" stroke="#666666" points="26,-152 26,-152 79,-152 79,-152 26,-152"/>
<polygon fill="#666666" stroke="#666666" points="26,-133 26,-133 79,-133 79,-133 26,-133"/>
<polygon fill="none" stroke="#666666" points="26,-112 26,-173 79,-173 79,-112 26,-112"/>
</a>
</g>
</g>
<!-- Node2&#45;&gt;Node1 -->
<g id="edge1_Node000001_Node000002" class="edge">
<title>Node2&#45;&gt;Node1</title>
<g id="a_edge1_Node000001_Node000002"><a xlink:title=" ">
<path fill="none" stroke="#63b8ff" d="M52.5,-112.02C52.5,-100.21 52.5,-86.39 52.5,-73.56"/>
<polygon fill="none" stroke="#63b8ff" points="52.5,-73.58 48.5,-67.58 52.5,-61.58 56.5,-67.58 52.5,-73.58"/>
</a>
</g>
<text text-anchor="middle" x="68.25" y="-84.5" font-family="Helvetica,sans-Serif" font-size="10.00" fill="grey"> +value</text>
</g>
<!-- Node3 -->
<g id="Node000003" class="node">
<title>Node3</title>
<g id="a_Node000003"><a xlink:title=" ">
<polygon fill="white" stroke="none" points="96.5,-286 8.5,-286 8.5,-210 96.5,-210 96.5,-286"/>
<text text-anchor="start" x="13.5" y="-272.5" font-family="Helvetica,sans-Serif" font-size="10.00">std::basic_string&lt;</text>
<text text-anchor="start" x="36" y="-257.5" font-family="Helvetica,sans-Serif" font-size="10.00"> Char &gt;</text>
<text text-anchor="start" x="51" y="-238.5" font-family="Helvetica,sans-Serif" font-size="10.00"> </text>
<text text-anchor="start" x="51" y="-219.5" font-family="Helvetica,sans-Serif" font-size="10.00"> </text>
<polygon fill="#666666" stroke="#666666" points="8.5,-250 8.5,-250 96.5,-250 96.5,-250 8.5,-250"/>
<polygon fill="#666666" stroke="#666666" points="8.5,-231 8.5,-231 96.5,-231 96.5,-231 8.5,-231"/>
<polygon fill="none" stroke="#666666" points="8.5,-210 8.5,-286 96.5,-286 96.5,-210 8.5,-210"/>
</a>
</g>
</g>
<!-- Node3&#45;&gt;Node2 -->
<g id="edge2_Node000002_Node000003" class="edge">
<title>Node3&#45;&gt;Node2</title>
<g id="a_edge2_Node000002_Node000003"><a xlink:title=" ">
<path fill="none" stroke="#63b8ff" d="M52.5,-199.3C52.5,-190.22 52.5,-180.98 52.5,-172.69"/>
<polygon fill="none" stroke="#63b8ff" points="49,-199.22 52.5,-209.22 56,-199.22 49,-199.22"/>
</a>
</g>
</g>
</g>
</svg>
</svg>

<style type='text/css'>
<![CDATA[
[data-mouse-over-selected='false'] { opacity: 0.7; }
[data-mouse-over-selected='true']  { opacity: 1.0; }
]]>
</style>
<script type="application/ecmascript"><![CDATA[
document.addEventListener('DOMContentLoaded', (event) => {
  highlightEdges();
  highlightAdjacentNodes();
});
]]></script>
</svg>
