<?xml version="1.0" encoding="UTF-8" standalone="no"?>
<!DOCTYPE svg PUBLIC "-//W3C//DTD SVG 1.1//EN"
 "http://www.w3.org/Graphics/SVG/1.1/DTD/svg11.dtd">
<!-- Generated by graphviz version 8.1.0 (20230707.0739)
 -->
<!-- Title: src/core/subscriber.hpp Pages: 1 -->
<svg width="478pt" height="223pt"
 viewBox="0.00 0.00 477.88 223.00" xmlns="http://www.w3.org/2000/svg" xmlns:xlink="http://www.w3.org/1999/xlink">
<g id="graph0" class="graph" transform="scale(1 1) rotate(0) translate(4 219)">
<title>src/core/subscriber.hpp</title>
<!-- Node1 -->
<g id="Node000001" class="node">
<title>Node1</title>
<g id="a_Node000001"><a xlink:title=" ">
<polygon fill="#999999" stroke="#666666" points="290.5,-215 172.5,-215 172.5,-192 290.5,-192 290.5,-215"/>
<text text-anchor="middle" x="231.5" y="-201.5" font-family="Helvetica,sans-Serif" font-size="10.00">src/core/subscriber.hpp</text>
</a>
</g>
</g>
<!-- Node2 -->
<g id="Node000002" class="node">
<title>Node2</title>
<g id="a_Node000002"><a xlink:href="bulk__translator_8hpp.html" target="_top" xlink:title=" ">
<polygon fill="white" stroke="#666666" points="109,-97 0,-97 0,-59 109,-59 109,-97"/>
<text text-anchor="start" x="8" y="-83.5" font-family="Helvetica,sans-Serif" font-size="10.00">src/bulk/provider/bulk</text>
<text text-anchor="middle" x="54.5" y="-68.5" font-family="Helvetica,sans-Serif" font-size="10.00">_translator.hpp</text>
</a>
</g>
</g>
<!-- Node1&#45;&gt;Node2 -->
<g id="edge1_Node000001_Node000002" class="edge">
<title>Node1&#45;&gt;Node2</title>
<g id="a_edge1_Node000001_Node000002"><a xlink:title=" ">
<path fill="none" stroke="#63b8ff" d="M186.64,-187.88C166.59,-180.16 143.29,-169.46 124.5,-156 101.44,-139.49 80.34,-114.27 67.46,-97.23"/>
<polygon fill="#63b8ff" stroke="#63b8ff" points="185.2,-191.45 195.79,-191.65 187.64,-184.89 185.2,-191.45"/>
</a>
</g>
</g>
<!-- Node4 -->
<g id="Node000004" class="node">
<title>Node4</title>
<g id="a_Node000004"><a xlink:href="publisher_8hpp.html" target="_top" xlink:title=" ">
<polygon fill="white" stroke="#666666" points="245.5,-156 133.5,-156 133.5,-133 245.5,-133 245.5,-156"/>
<text text-anchor="middle" x="189.5" y="-142.5" font-family="Helvetica,sans-Serif" font-size="10.00">src/core/publisher.hpp</text>
</a>
</g>
</g>
<!-- Node1&#45;&gt;Node4 -->
<g id="edge3_Node000001_Node000004" class="edge">
<title>Node1&#45;&gt;Node4</title>
<g id="a_edge3_Node000001_Node000004"><a xlink:title=" ">
<path fill="none" stroke="#63b8ff" d="M217.07,-182.91C210.55,-174.06 203.09,-163.94 197.57,-156.46"/>
<polygon fill="#63b8ff" stroke="#63b8ff" points="214.65,-184.54 223.4,-190.51 220.29,-180.38 214.65,-184.54"/>
</a>
</g>
</g>
<!-- Node6 -->
<g id="Node000006" class="node">
<title>Node6</title>
<g id="a_Node000006"><a xlink:href="file__writer_8hpp.html" target="_top" xlink:title=" ">
<polygon fill="white" stroke="#666666" points="384.62,-89.5 270.38,-89.5 270.38,-66.5 384.62,-66.5 384.62,-89.5"/>
<text text-anchor="middle" x="327.5" y="-76" font-family="Helvetica,sans-Serif" font-size="10.00">src/logs/file_writer.hpp</text>
</a>
</g>
</g>
<!-- Node1&#45;&gt;Node6 -->
<g id="edge7_Node000001_Node000006" class="edge">
<title>Node1&#45;&gt;Node6</title>
<g id="a_edge7_Node000001_Node000006"><a xlink:title=" ">
<path fill="none" stroke="#63b8ff" d="M246.56,-183.13C267.02,-156.8 302.93,-110.61 319.14,-89.76"/>
<polygon fill="#63b8ff" stroke="#63b8ff" points="243.39,-180.5 240.02,-190.54 248.92,-184.79 243.39,-180.5"/>
</a>
</g>
</g>
<!-- Node7 -->
<g id="Node000007" class="node">
<title>Node7</title>
<g id="a_Node000007"><a xlink:href="ostream__writer_8hpp.html" target="_top" xlink:title=" ">
<polygon fill="white" stroke="#666666" points="469.88,-156 333.12,-156 333.12,-133 469.88,-133 469.88,-156"/>
<text text-anchor="middle" x="401.5" y="-142.5" font-family="Helvetica,sans-Serif" font-size="10.00">src/logs/ostream_writer.hpp</text>
</a>
</g>
</g>
<!-- Node1&#45;&gt;Node7 -->
<g id="edge9_Node000001_Node000007" class="edge">
<title>Node1&#45;&gt;Node7</title>
<g id="a_edge9_Node000001_Node000007"><a xlink:title=" ">
<path fill="none" stroke="#63b8ff" d="M274.63,-188.04C303.92,-178.22 342.04,-165.44 368.82,-156.46"/>
<polygon fill="#63b8ff" stroke="#63b8ff" points="273.65,-185.01 265.28,-191.51 275.87,-191.65 273.65,-185.01"/>
</a>
</g>
</g>
<!-- Node3 -->
<g id="Node000003" class="node">
<title>Node3</title>
<g id="a_Node000003"><a xlink:href="main_8cpp.html" target="_top" xlink:title=" ">
<polygon fill="white" stroke="#666666" points="294.62,-23 222.38,-23 222.38,0 294.62,0 294.62,-23"/>
<text text-anchor="middle" x="258.5" y="-9.5" font-family="Helvetica,sans-Serif" font-size="10.00">src/main.cpp</text>
</a>
</g>
</g>
<!-- Node2&#45;&gt;Node3 -->
<g id="edge2_Node000002_Node000003" class="edge">
<title>Node2&#45;&gt;Node3</title>
<g id="a_edge2_Node000002_Node000003"><a xlink:title=" ">
<path fill="none" stroke="#63b8ff" d="M119.5,-56.45C154.18,-45.48 195.46,-32.43 223.98,-23.41"/>
<polygon fill="#63b8ff" stroke="#63b8ff" points="118.92,-53.28 110.44,-59.63 121.03,-59.95 118.92,-53.28"/>
</a>
</g>
</g>
<!-- Node4&#45;&gt;Node2 -->
<g id="edge4_Node000004_Node000002" class="edge">
<title>Node4&#45;&gt;Node2</title>
<g id="a_edge4_Node000004_Node000002"><a xlink:title=" ">
<path fill="none" stroke="#63b8ff" d="M156.81,-127.88C137.62,-118.72 113.27,-107.08 93.14,-97.46"/>
<polygon fill="#63b8ff" stroke="#63b8ff" points="155.07,-131.41 165.6,-132.56 158.08,-125.09 155.07,-131.41"/>
</a>
</g>
</g>
<!-- Node5 -->
<g id="Node000005" class="node">
<title>Node5</title>
<g id="a_Node000005"><a xlink:href="console__parser_8hpp.html" target="_top" xlink:title=" ">
<polygon fill="white" stroke="#666666" points="252.25,-97 126.75,-97 126.75,-59 252.25,-59 252.25,-97"/>
<text text-anchor="start" x="134.75" y="-83.5" font-family="Helvetica,sans-Serif" font-size="10.00">src/cmd/provider/console</text>
<text text-anchor="middle" x="189.5" y="-68.5" font-family="Helvetica,sans-Serif" font-size="10.00">_parser.hpp</text>
</a>
</g>
</g>
<!-- Node4&#45;&gt;Node5 -->
<g id="edge5_Node000004_Node000005" class="edge">
<title>Node4&#45;&gt;Node5</title>
<g id="a_edge5_Node000004_Node000005"><a xlink:title=" ">
<path fill="none" stroke="#63b8ff" d="M189.5,-121.58C189.5,-113.69 189.5,-104.88 189.5,-97.33"/>
<polygon fill="#63b8ff" stroke="#63b8ff" points="186,-121.56 189.5,-131.56 193,-121.56 186,-121.56"/>
</a>
</g>
</g>
<!-- Node5&#45;&gt;Node3 -->
<g id="edge6_Node000005_Node000003" class="edge">
<title>Node5&#45;&gt;Node3</title>
<g id="a_edge6_Node000005_Node000003"><a xlink:title=" ">
<path fill="none" stroke="#63b8ff" d="M216.88,-51.4C227.4,-41.57 238.84,-30.87 247.06,-23.19"/>
<polygon fill="#63b8ff" stroke="#63b8ff" points="215,-48.3 210.09,-57.69 219.78,-53.42 215,-48.3"/>
</a>
</g>
</g>
<!-- Node6&#45;&gt;Node3 -->
<g id="edge8_Node000006_Node000003" class="edge">
<title>Node6&#45;&gt;Node3</title>
<g id="a_edge8_Node000006_Node000003"><a xlink:title=" ">
<path fill="none" stroke="#63b8ff" d="M307.92,-58.7C295.68,-47.26 280.35,-32.92 270.03,-23.28"/>
<polygon fill="#63b8ff" stroke="#63b8ff" points="305.1,-60.79 314.8,-65.06 309.88,-55.67 305.1,-60.79"/>
</a>
</g>
</g>
<!-- Node7&#45;&gt;Node3 -->
<g id="edge10_Node000007_Node000003" class="edge">
<title>Node7&#45;&gt;Node3</title>
<g id="a_edge10_Node000007_Node000003"><a xlink:title=" ">
<path fill="none" stroke="#63b8ff" d="M405.45,-121.88C407.58,-103.26 407.4,-76.66 393.5,-59 370.05,-29.2 326.41,-18.41 295.09,-14.55"/>
<polygon fill="#63b8ff" stroke="#63b8ff" points="401.87,-121.15 403.89,-131.55 408.8,-122.16 401.87,-121.15"/>
</a>
</g>
</g>
</g>
</svg>
