<?xml version="1.0" encoding="UTF-8" standalone="no"?>
<!DOCTYPE svg PUBLIC "-//W3C//DTD SVG 1.1//EN"
 "http://www.w3.org/Graphics/SVG/1.1/DTD/svg11.dtd">
<!-- Generated by graphviz version 8.1.0 (20230707.0739)
 -->
<!-- Title: src/cmd/token_event.hpp Pages: 1 -->
<svg width="415pt" height="164pt"
 viewBox="0.00 0.00 414.88 164.00" xmlns="http://www.w3.org/2000/svg" xmlns:xlink="http://www.w3.org/1999/xlink">

<svg id="main" version="1.1" xmlns="http://www.w3.org/2000/svg" xmlns:xlink="http://www.w3.org/1999/xlink" xml:space="preserve" onload="init(evt)">
<style type="text/css"><![CDATA[
.node, .edge {opacity: 0.7;}
.node.selected, .edge.selected {opacity: 1;}
.edge:hover path { stroke: red; }
.edge:hover polygon { stroke: red; fill: red; }
]]></style>
<script type="application/ecmascript" xlink:href="svg.min.js"/>
<svg id="graph" class="graph">
<g id="graph0" class="graph" transform="scale(1 1) rotate(0) translate(4 160)">
<title>src/cmd/token_event.hpp</title>
<!-- Node1 -->
<g id="Node000001" class="node">
<title>Node1</title>
<g id="a_Node000001"><a xlink:title=" ">
<polygon fill="#999999" stroke="#666666" points="251.88,-156 127.12,-156 127.12,-133 251.88,-133 251.88,-156"/>
<text text-anchor="middle" x="189.5" y="-142.5" font-family="Helvetica,sans-Serif" font-size="10.00">src/cmd/token_event.hpp</text>
</a>
</g>
</g>
<!-- Node2 -->
<g id="Node000002" class="node">
<title>Node2</title>
<g id="a_Node000002"><a xlink:href="bulk__translator_8hpp.html" target="_top" xlink:title=" ">
<polygon fill="white" stroke="#666666" points="109,-97 0,-97 0,-59 109,-59 109,-97"/>
<text text-anchor="start" x="8" y="-83.5" font-family="Helvetica,sans-Serif" font-size="10.00">src/bulk/provider/bulk</text>
<text text-anchor="middle" x="54.5" y="-68.5" font-family="Helvetica,sans-Serif" font-size="10.00">_translator.hpp</text>
</a>
</g>
</g>
<!-- Node1&#45;&gt;Node2 -->
<g id="edge1_Node000001_Node000002" class="edge">
<title>Node1&#45;&gt;Node2</title>
<g id="a_edge1_Node000001_Node000002"><a xlink:title=" ">
<path fill="none" stroke="#63b8ff" d="M156.81,-127.88C137.62,-118.72 113.27,-107.08 93.14,-97.46"/>
<polygon fill="#63b8ff" stroke="#63b8ff" points="155.07,-131.41 165.6,-132.56 158.08,-125.09 155.07,-131.41"/>
</a>
</g>
</g>
<!-- Node4 -->
<g id="Node000004" class="node">
<title>Node4</title>
<g id="a_Node000004"><a xlink:href="console__parser_8hpp.html" target="_top" xlink:title=" ">
<polygon fill="white" stroke="#666666" points="252.25,-97 126.75,-97 126.75,-59 252.25,-59 252.25,-97"/>
<text text-anchor="start" x="134.75" y="-83.5" font-family="Helvetica,sans-Serif" font-size="10.00">src/cmd/provider/console</text>
<text text-anchor="middle" x="189.5" y="-68.5" font-family="Helvetica,sans-Serif" font-size="10.00">_parser.hpp</text>
</a>
</g>
</g>
<!-- Node1&#45;&gt;Node4 -->
<g id="edge3_Node000001_Node000004" class="edge">
<title>Node1&#45;&gt;Node4</title>
<g id="a_edge3_Node000001_Node000004"><a xlink:title=" ">
<path fill="none" stroke="#63b8ff" d="M189.5,-121.58C189.5,-113.69 189.5,-104.88 189.5,-97.33"/>
<polygon fill="#63b8ff" stroke="#63b8ff" points="186,-121.56 189.5,-131.56 193,-121.56 186,-121.56"/>
</a>
</g>
</g>
<!-- Node5 -->
<g id="Node000005" class="node">
<title>Node5</title>
<g id="a_Node000005"><a xlink:href="ostream__writer_8hpp.html" target="_top" xlink:title=" ">
<polygon fill="white" stroke="#666666" points="406.88,-89.5 270.12,-89.5 270.12,-66.5 406.88,-66.5 406.88,-89.5"/>
<text text-anchor="middle" x="338.5" y="-76" font-family="Helvetica,sans-Serif" font-size="10.00">src/logs/ostream_writer.hpp</text>
</a>
</g>
</g>
<!-- Node1&#45;&gt;Node5 -->
<g id="edge5_Node000001_Node000005" class="edge">
<title>Node1&#45;&gt;Node5</title>
<g id="a_edge5_Node000001_Node000005"><a xlink:title=" ">
<path fill="none" stroke="#63b8ff" d="M224.66,-128.28C251.82,-116.52 288.76,-100.53 313.1,-90"/>
<polygon fill="#63b8ff" stroke="#63b8ff" points="223.56,-125.37 215.78,-132.56 226.34,-131.8 223.56,-125.37"/>
</a>
</g>
</g>
<!-- Node3 -->
<g id="Node000003" class="node">
<title>Node3</title>
<g id="a_Node000003"><a xlink:href="main_8cpp.html" target="_top" xlink:title=" ">
<polygon fill="white" stroke="#666666" points="225.62,-23 153.38,-23 153.38,0 225.62,0 225.62,-23"/>
<text text-anchor="middle" x="189.5" y="-9.5" font-family="Helvetica,sans-Serif" font-size="10.00">src/main.cpp</text>
</a>
</g>
</g>
<!-- Node2&#45;&gt;Node3 -->
<g id="edge2_Node000002_Node000003" class="edge">
<title>Node2&#45;&gt;Node3</title>
<g id="a_edge2_Node000002_Node000003"><a xlink:title=" ">
<path fill="none" stroke="#63b8ff" d="M102.96,-53.85C124.76,-43.43 149.44,-31.64 166.85,-23.32"/>
<polygon fill="#63b8ff" stroke="#63b8ff" points="101.7,-51.05 94.19,-58.52 104.72,-57.36 101.7,-51.05"/>
</a>
</g>
</g>
<!-- Node4&#45;&gt;Node3 -->
<g id="edge4_Node000004_Node000003" class="edge">
<title>Node4&#45;&gt;Node3</title>
<g id="a_edge4_Node000004_Node000003"><a xlink:title=" ">
<path fill="none" stroke="#63b8ff" d="M189.5,-47.9C189.5,-39.1 189.5,-29.97 189.5,-23.19"/>
<polygon fill="#63b8ff" stroke="#63b8ff" points="186,-47.69 189.5,-57.69 193,-47.69 186,-47.69"/>
</a>
</g>
</g>
<!-- Node5&#45;&gt;Node3 -->
<g id="edge6_Node000005_Node000003" class="edge">
<title>Node5&#45;&gt;Node3</title>
<g id="a_edge6_Node000005_Node000003"><a xlink:title=" ">
<path fill="none" stroke="#63b8ff" d="M303.34,-61.78C276.18,-50.02 239.24,-34.03 214.9,-23.5"/>
<polygon fill="#63b8ff" stroke="#63b8ff" points="301.66,-65.3 312.22,-66.06 304.44,-58.87 301.66,-65.3"/>
</a>
</g>
</g>
</g>
</svg>
</svg>

<style type='text/css'>
<![CDATA[
[data-mouse-over-selected='false'] { opacity: 0.7; }
[data-mouse-over-selected='true']  { opacity: 1.0; }
]]>
</style>
<script type="application/ecmascript"><![CDATA[
document.addEventListener('DOMContentLoaded', (event) => {
  highlightEdges();
  highlightAdjacentNodes();
});
]]></script>
</svg>
