<?xml version="1.0" encoding="UTF-8" standalone="no"?>
<!DOCTYPE svg PUBLIC "-//W3C//DTD SVG 1.1//EN"
 "http://www.w3.org/Graphics/SVG/1.1/DTD/svg11.dtd">
<!-- Generated by graphviz version 8.1.0 (20230707.0739)
 -->
<!-- Title: src/cmd/token_event.hpp Pages: 1 -->
<svg width="361pt" height="149pt"
 viewBox="0.00 0.00 361.25 149.00" xmlns="http://www.w3.org/2000/svg" xmlns:xlink="http://www.w3.org/1999/xlink">
<g id="graph0" class="graph" transform="scale(1 1) rotate(0) translate(4 145)">
<title>src/cmd/token_event.hpp</title>
<!-- Node1 -->
<g id="Node000001" class="node">
<title>Node1</title>
<g id="a_Node000001"><a xlink:title=" ">
<polygon fill="#999999" stroke="#666666" points="214.25,-141 89.5,-141 89.5,-118 214.25,-118 214.25,-141"/>
<text text-anchor="middle" x="151.88" y="-127.5" font-family="Helvetica,sans-Serif" font-size="10.00">src/cmd/token_event.hpp</text>
</a>
</g>
</g>
<!-- Node2 -->
<g id="Node000002" class="node">
<title>Node2</title>
<g id="a_Node000002"><a xlink:href="token_8hpp.html" target="_top" xlink:title=" ">
<polygon fill="white" stroke="#666666" points="180.88,-82 122.88,-82 122.88,-59 180.88,-59 180.88,-82"/>
<text text-anchor="middle" x="151.88" y="-68.5" font-family="Helvetica,sans-Serif" font-size="10.00">token.hpp</text>
</a>
</g>
</g>
<!-- Node1&#45;&gt;Node2 -->
<g id="edge1_Node000001_Node000002" class="edge">
<title>Node1&#45;&gt;Node2</title>
<g id="a_edge1_Node000001_Node000002"><a xlink:title=" ">
<path fill="none" stroke="#63b8ff" d="M151.88,-117.51C151.88,-110.65 151.88,-101.58 151.88,-93.31"/>
<polygon fill="#63b8ff" stroke="#63b8ff" points="155.38,-93.46 151.88,-83.46 148.38,-93.46 155.38,-93.46"/>
</a>
</g>
</g>
<!-- Node3 -->
<g id="Node000003" class="node">
<title>Node3</title>
<g id="a_Node000003"><a xlink:title=" ">
<polygon fill="#e0e0e0" stroke="#999999" points="43.75,-23 0,-23 0,0 43.75,0 43.75,-23"/>
<text text-anchor="middle" x="21.88" y="-9.5" font-family="Helvetica,sans-Serif" font-size="10.00">format</text>
</a>
</g>
</g>
<!-- Node2&#45;&gt;Node3 -->
<g id="edge2_Node000002_Node000003" class="edge">
<title>Node2&#45;&gt;Node3</title>
<g id="a_edge2_Node000002_Node000003"><a xlink:title=" ">
<path fill="none" stroke="#63b8ff" d="M126.81,-58.51C105.95,-49.36 76.14,-36.29 53.61,-26.42"/>
<polygon fill="#63b8ff" stroke="#63b8ff" points="55.4,-22.94 44.84,-22.13 52.59,-29.35 55.4,-22.94"/>
</a>
</g>
</g>
<!-- Node4 -->
<g id="Node000004" class="node">
<title>Node4</title>
<g id="a_Node000004"><a xlink:title=" ">
<polygon fill="#e0e0e0" stroke="#999999" points="113.5,-23 62.25,-23 62.25,0 113.5,0 113.5,-23"/>
<text text-anchor="middle" x="87.88" y="-9.5" font-family="Helvetica,sans-Serif" font-size="10.00">ostream</text>
</a>
</g>
</g>
<!-- Node2&#45;&gt;Node4 -->
<g id="edge3_Node000002_Node000004" class="edge">
<title>Node2&#45;&gt;Node4</title>
<g id="a_edge3_Node000002_Node000004"><a xlink:title=" ">
<path fill="none" stroke="#63b8ff" d="M139.54,-58.51C130.68,-50.62 118.55,-39.82 108.27,-30.66"/>
<polygon fill="#63b8ff" stroke="#63b8ff" points="110.97,-28.49 101.18,-24.46 106.32,-33.72 110.97,-28.49"/>
</a>
</g>
</g>
<!-- Node5 -->
<g id="Node000005" class="node">
<title>Node5</title>
<g id="a_Node000005"><a xlink:title=" ">
<polygon fill="#e0e0e0" stroke="#999999" points="171.88,-23 131.88,-23 131.88,0 171.88,0 171.88,-23"/>
<text text-anchor="middle" x="151.88" y="-9.5" font-family="Helvetica,sans-Serif" font-size="10.00">string</text>
</a>
</g>
</g>
<!-- Node2&#45;&gt;Node5 -->
<g id="edge4_Node000002_Node000005" class="edge">
<title>Node2&#45;&gt;Node5</title>
<g id="a_edge4_Node000002_Node000005"><a xlink:title=" ">
<path fill="none" stroke="#63b8ff" d="M151.88,-58.51C151.88,-51.65 151.88,-42.58 151.88,-34.31"/>
<polygon fill="#63b8ff" stroke="#63b8ff" points="155.38,-34.46 151.88,-24.46 148.38,-34.46 155.38,-34.46"/>
</a>
</g>
</g>
<!-- Node6 -->
<g id="Node000006" class="node">
<title>Node6</title>
<g id="a_Node000006"><a xlink:title=" ">
<polygon fill="#e0e0e0" stroke="#999999" points="234.12,-23 189.62,-23 189.62,0 234.12,0 234.12,-23"/>
<text text-anchor="middle" x="211.88" y="-9.5" font-family="Helvetica,sans-Serif" font-size="10.00">variant</text>
</a>
</g>
</g>
<!-- Node2&#45;&gt;Node6 -->
<g id="edge5_Node000002_Node000006" class="edge">
<title>Node2&#45;&gt;Node6</title>
<g id="a_edge5_Node000002_Node000006"><a xlink:title=" ">
<path fill="none" stroke="#63b8ff" d="M163.44,-58.51C171.66,-50.7 182.89,-40.03 192.47,-30.94"/>
<polygon fill="#63b8ff" stroke="#63b8ff" points="194.5,-33.88 199.34,-24.46 189.68,-28.81 194.5,-33.88"/>
</a>
</g>
</g>
<!-- Node7 -->
<g id="Node000007" class="node">
<title>Node7</title>
<g id="a_Node000007"><a xlink:href="overload_8hpp.html" target="_top" xlink:title=" ">
<polygon fill="white" stroke="#666666" points="353.25,-23 252.5,-23 252.5,0 353.25,0 353.25,-23"/>
<text text-anchor="middle" x="302.88" y="-9.5" font-family="Helvetica,sans-Serif" font-size="10.00">../utils/overload.hpp</text>
</a>
</g>
</g>
<!-- Node2&#45;&gt;Node7 -->
<g id="edge6_Node000002_Node000007" class="edge">
<title>Node2&#45;&gt;Node7</title>
<g id="a_edge6_Node000002_Node000007"><a xlink:title=" ">
<path fill="none" stroke="#63b8ff" d="M180.99,-58.51C204.49,-49.64 237.78,-37.07 263.63,-27.31"/>
<polygon fill="#63b8ff" stroke="#63b8ff" points="264.73,-30.26 272.85,-23.46 262.26,-23.71 264.73,-30.26"/>
</a>
</g>
</g>
</g>
</svg>
