<?xml version="1.0" encoding="UTF-8" standalone="no"?>
<!DOCTYPE svg PUBLIC "-//W3C//DTD SVG 1.1//EN"
 "http://www.w3.org/Graphics/SVG/1.1/DTD/svg11.dtd">
<!-- Generated by graphviz version 8.1.0 (20230707.0739)
 -->
<!-- Title: TEST Pages: 1 -->
<!--zoomable 604 -->

<svg id="main" version="1.1" xmlns="http://www.w3.org/2000/svg" xmlns:xlink="http://www.w3.org/1999/xlink" xml:space="preserve" onload="init(evt)">
<style type="text/css"><![CDATA[
.node, .edge {opacity: 0.7;}
.node.selected, .edge.selected {opacity: 1;}
.edge:hover path { stroke: red; }
.edge:hover polygon { stroke: red; fill: red; }
]]></style>

<defs>
  <circle id="rim" cx="0" cy="0" r="7"/>
  <circle id="rim2" cx="0" cy="0" r="3.5"/>
  <g id="zoomPlus">
    <use xlink:href="#rim" fill="#404040"><set attributeName="fill" to="#808080" begin="zoomplus.mouseover" end="zoomplus.mouseout"/></use>
    <path d="M-4,0h8M0,-4v8" fill="none" stroke="white" stroke-width="1.5" pointer-events="none"/>
  </g>
  <g id="zoomMin">
    <use xlink:href="#rim" fill="#404040"><set attributeName="fill" to="#808080" begin="zoomminus.mouseover" end="zoomminus.mouseout"/></use>
    <path d="M-4,0h8" fill="none" stroke="white" stroke-width="1.5" pointer-events="none"/>
  </g>
  <g id="arrowUp" transform="translate(30 24)">
    <use xlink:href="#rim"/>
    <path pointer-events="none" fill="none" stroke="white" stroke-width="1.5" d="M0,-3.0v7 M-2.5,-0.5L0,-3.0L2.5,-0.5"/>
  </g>
  <g id="arrowRight" transform="rotate(90) translate(36 -43)">
    <use xlink:href="#rim"/>
    <path pointer-events="none" fill="none" stroke="white" stroke-width="1.5" d="M0,-3.0v7 M-2.5,-0.5L0,-3.0L2.5,-0.5"/>
  </g>
  <g id="arrowDown" transform="rotate(180) translate(-30 -48)">
    <use xlink:href="#rim"/>
    <path pointer-events="none" fill="none" stroke="white" stroke-width="1.5" d="M0,-3.0v7 M-2.5,-0.5L0,-3.0L2.5,-0.5"/>
  </g>
  <g id="arrowLeft" transform="rotate(270) translate(-36 17)">
    <use xlink:href="#rim"/>
    <path pointer-events="none" fill="none" stroke="white" stroke-width="1.5" d="M0,-3.0v7 M-2.5,-0.5L0,-3.0L2.5,-0.5"/>
  </g>
  <g id="resetDef">
    <use xlink:href="#rim2" fill="#404040"><set attributeName="fill" to="#808080" begin="reset.mouseover" end="reset.mouseout"/></use>
  </g>
</defs>
<script type="application/ecmascript">
var viewWidth = 352;
var viewHeight = 604;
var sectionId = 'dynsection-1';
</script>
<script type="application/ecmascript" xlink:href="svg.min.js"/>
<svg id="graph" class="graph">
<g id="viewport">
<title>TEST</title>
<!-- Node1 -->
<g id="Node000001" class="node">
<title>Node1</title>
<g id="a_Node000001"><a xlink:title=" ">
<polygon fill="#999999" stroke="#666666" points="40.75,-338.5 0,-338.5 0,-315.5 40.75,-315.5 40.75,-338.5"/>
<text text-anchor="middle" x="20.38" y="-325" font-family="Helvetica,sans-Serif" font-size="10.00">TEST</text>
</a>
</g>
</g>
<!-- Node2 -->
<g id="Node000002" class="node">
<title>Node2</title>
<g id="a_Node000002"><a xlink:href="namespaceinfo.html#adf619fee1b67e68e79a217741803d1c1" target="_top" xlink:title=" ">
<polygon fill="white" stroke="#666666" points="182.75,-338.5 76.75,-338.5 76.75,-315.5 182.75,-315.5 182.75,-338.5"/>
<text text-anchor="middle" x="129.75" y="-325" font-family="Helvetica,sans-Serif" font-size="10.00">info::info_project_full</text>
</a>
</g>
</g>
<!-- Node1&#45;&gt;Node2 -->
<g id="edge1_Node000001_Node000002" class="edge">
<title>Node1&#45;&gt;Node2</title>
<g id="a_edge1_Node000001_Node000002"><a xlink:title=" ">
<path fill="none" stroke="#63b8ff" d="M41.07,-327C48.21,-327 56.72,-327 65.59,-327"/>
<polygon fill="#63b8ff" stroke="#63b8ff" points="65.51,-330.5 75.51,-327 65.51,-323.5 65.51,-330.5"/>
</a>
</g>
</g>
<!-- Node3 -->
<g id="Node000003" class="node">
<title>Node3</title>
<g id="a_Node000003"><a xlink:href="namespaceinfo.html#a4f6b5083c272141764c35b0cff843ae7" target="_top" xlink:title=" ">
<polygon fill="white" stroke="#666666" points="342,-595.5 220.25,-595.5 220.25,-572.5 342,-572.5 342,-595.5"/>
<text text-anchor="middle" x="281.12" y="-582" font-family="Helvetica,sans-Serif" font-size="10.00">info::info_boost_libraries</text>
</a>
</g>
</g>
<!-- Node2&#45;&gt;Node3 -->
<g id="edge2_Node000002_Node000003" class="edge">
<title>Node2&#45;&gt;Node3</title>
<g id="a_edge2_Node000002_Node000003"><a xlink:title=" ">
<path fill="none" stroke="#63b8ff" d="M131.61,-338.79C135.03,-377.04 151,-498.94 218.75,-564 219.47,-564.7 220.22,-565.37 221,-566.02"/>
<polygon fill="#63b8ff" stroke="#63b8ff" points="218.74,-569.39 228.98,-572.11 222.67,-563.6 218.74,-569.39"/>
</a>
</g>
</g>
<!-- Node4 -->
<g id="Node000004" class="node">
<title>Node4</title>
<g id="a_Node000004"><a xlink:href="namespaceinfo.html#a35557f9934568e2d7c71bc382a94c359" target="_top" xlink:title=" ">
<polygon fill="white" stroke="#666666" points="340.88,-554.5 221.38,-554.5 221.38,-531.5 340.88,-531.5 340.88,-554.5"/>
<text text-anchor="middle" x="281.12" y="-541" font-family="Helvetica,sans-Serif" font-size="10.00">info::info_boost_version</text>
</a>
</g>
</g>
<!-- Node2&#45;&gt;Node4 -->
<g id="edge3_Node000002_Node000004" class="edge">
<title>Node2&#45;&gt;Node4</title>
<g id="a_edge3_Node000002_Node000004"><a xlink:title=" ">
<path fill="none" stroke="#63b8ff" d="M132.61,-338.64C138.59,-372.3 160.48,-470.65 218.75,-523 219.63,-523.79 220.53,-524.54 221.47,-525.27"/>
<polygon fill="#63b8ff" stroke="#63b8ff" points="219.19,-528.61 229.5,-531.03 222.96,-522.7 219.19,-528.61"/>
</a>
</g>
</g>
<!-- Node5 -->
<g id="Node000005" class="node">
<title>Node5</title>
<g id="a_Node000005"><a xlink:href="namespaceinfo.html#ad14822b50a586b36ccf5978ab1ac4ec7" target="_top" xlink:title=" ">
<polygon fill="white" stroke="#666666" points="343.5,-513.5 218.75,-513.5 218.75,-490.5 343.5,-490.5 343.5,-513.5"/>
<text text-anchor="middle" x="281.12" y="-500" font-family="Helvetica,sans-Serif" font-size="10.00">info::info_compiler_name</text>
</a>
</g>
</g>
<!-- Node2&#45;&gt;Node5 -->
<g id="edge4_Node000002_Node000005" class="edge">
<title>Node2&#45;&gt;Node5</title>
<g id="a_edge4_Node000002_Node000005"><a xlink:title=" ">
<path fill="none" stroke="#63b8ff" d="M134.31,-338.95C143.46,-367.68 170.57,-441.18 218.75,-481 220.38,-482.35 222.1,-483.61 223.88,-484.79"/>
<polygon fill="#63b8ff" stroke="#63b8ff" points="221.86,-488.22 232.29,-490.06 225.28,-482.12 221.86,-488.22"/>
</a>
</g>
</g>
<!-- Node6 -->
<g id="Node000006" class="node">
<title>Node6</title>
<g id="a_Node000006"><a xlink:href="namespaceinfo.html#ad680bf7ac70dbb1d24b428f55159b013" target="_top" xlink:title=" ">
<polygon fill="white" stroke="#666666" points="328.88,-472 233.38,-472 233.38,-434 328.88,-434 328.88,-472"/>
<text text-anchor="start" x="241.38" y="-458.5" font-family="Helvetica,sans-Serif" font-size="10.00">info::info_compiler</text>
<text text-anchor="middle" x="281.12" y="-443.5" font-family="Helvetica,sans-Serif" font-size="10.00">_version</text>
</a>
</g>
</g>
<!-- Node2&#45;&gt;Node6 -->
<g id="edge5_Node000002_Node000006" class="edge">
<title>Node2&#45;&gt;Node6</title>
<g id="a_edge5_Node000002_Node000006"><a xlink:title=" ">
<path fill="none" stroke="#63b8ff" d="M138.74,-338.68C152.89,-358.63 184.1,-399.55 218.75,-425 220.41,-426.22 222.14,-427.41 223.91,-428.56"/>
<polygon fill="#63b8ff" stroke="#63b8ff" points="221.68,-431.9 232.07,-434 225.26,-425.88 221.68,-431.9"/>
</a>
</g>
</g>
<!-- Node7 -->
<g id="Node000007" class="node">
<title>Node7</title>
<g id="a_Node000007"><a xlink:href="namespaceinfo.html#af138dcf75a98d5fb9358ac1ed3800394" target="_top" xlink:title=" ">
<polygon fill="white" stroke="#666666" points="338.62,-415.5 223.62,-415.5 223.62,-392.5 338.62,-392.5 338.62,-415.5"/>
<text text-anchor="middle" x="281.12" y="-402" font-family="Helvetica,sans-Serif" font-size="10.00">info::info_host_system</text>
</a>
</g>
</g>
<!-- Node2&#45;&gt;Node7 -->
<g id="edge6_Node000002_Node000007" class="edge">
<title>Node2&#45;&gt;Node7</title>
<g id="a_edge6_Node000002_Node000007"><a xlink:title=" ">
<path fill="none" stroke="#63b8ff" d="M146.94,-338.96C164.09,-351.24 192.31,-370.29 218.75,-383 222.52,-384.81 226.5,-386.55 230.53,-388.18"/>
<polygon fill="#63b8ff" stroke="#63b8ff" points="229.02,-391.73 239.61,-392.03 231.51,-385.19 229.02,-391.73"/>
</a>
</g>
</g>
<!-- Node8 -->
<g id="Node000008" class="node">
<title>Node8</title>
<g id="a_Node000008"><a xlink:href="namespaceinfo.html#a28d71fb524538a7bdfbb1483a8a3a4cb" target="_top" xlink:title=" ">
<polygon fill="white" stroke="#666666" points="325.12,-374 237.12,-374 237.12,-336 325.12,-336 325.12,-374"/>
<text text-anchor="start" x="245.12" y="-360.5" font-family="Helvetica,sans-Serif" font-size="10.00">info::info_project</text>
<text text-anchor="middle" x="281.12" y="-345.5" font-family="Helvetica,sans-Serif" font-size="10.00">_author</text>
</a>
</g>
</g>
<!-- Node2&#45;&gt;Node8 -->
<g id="edge7_Node000002_Node000008" class="edge">
<title>Node2&#45;&gt;Node8</title>
<g id="a_edge7_Node000002_Node000008"><a xlink:title=" ">
<path fill="none" stroke="#63b8ff" d="M182.99,-336.79C197.07,-339.43 212.32,-342.29 226.48,-344.94"/>
<polygon fill="#63b8ff" stroke="#63b8ff" points="225.58,-348.52 236.05,-346.93 226.87,-341.64 225.58,-348.52"/>
</a>
</g>
</g>
<!-- Node9 -->
<g id="Node000009" class="node">
<title>Node9</title>
<g id="a_Node000009"><a xlink:href="namespaceinfo.html#aae86ae087e0d5fde160d4328e106c21f" target="_top" xlink:title=" ">
<polygon fill="white" stroke="#666666" points="330.75,-318 231.5,-318 231.5,-280 330.75,-280 330.75,-318"/>
<text text-anchor="start" x="239.5" y="-304.5" font-family="Helvetica,sans-Serif" font-size="10.00">info::info_project</text>
<text text-anchor="middle" x="281.12" y="-289.5" font-family="Helvetica,sans-Serif" font-size="10.00">_repository_branch</text>
</a>
</g>
</g>
<!-- Node2&#45;&gt;Node9 -->
<g id="edge8_Node000002_Node000009" class="edge">
<title>Node2&#45;&gt;Node9</title>
<g id="a_edge8_Node000002_Node000009"><a xlink:title=" ">
<path fill="none" stroke="#63b8ff" d="M182.99,-317.21C195.1,-314.94 208.07,-312.51 220.46,-310.18"/>
<polygon fill="#63b8ff" stroke="#63b8ff" points="220.98,-313.46 230.17,-308.18 219.7,-306.58 220.98,-313.46"/>
</a>
</g>
</g>
<!-- Node10 -->
<g id="Node000010" class="node">
<title>Node10</title>
<g id="a_Node000010"><a xlink:href="namespaceinfo.html#ace228211052ca615450b84d638e882a7" target="_top" xlink:title=" ">
<polygon fill="white" stroke="#666666" points="325.12,-262 237.12,-262 237.12,-224 325.12,-224 325.12,-262"/>
<text text-anchor="start" x="245.12" y="-248.5" font-family="Helvetica,sans-Serif" font-size="10.00">info::info_project</text>
<text text-anchor="middle" x="281.12" y="-233.5" font-family="Helvetica,sans-Serif" font-size="10.00">_repository_url</text>
</a>
</g>
</g>
<!-- Node2&#45;&gt;Node10 -->
<g id="edge9_Node000002_Node000010" class="edge">
<title>Node2&#45;&gt;Node10</title>
<g id="a_edge9_Node000002_Node000010"><a xlink:title=" ">
<path fill="none" stroke="#63b8ff" d="M147.85,-315.11C165.28,-303.24 193.29,-284.82 218.75,-271 221.45,-269.53 224.24,-268.07 227.08,-266.63"/>
<polygon fill="#63b8ff" stroke="#63b8ff" points="228.4,-269.39 235.83,-261.84 225.31,-263.11 228.4,-269.39"/>
</a>
</g>
</g>
<!-- Node11 -->
<g id="Node000011" class="node">
<title>Node11</title>
<g id="a_Node000011"><a xlink:href="namespaceinfo.html#ab6318ad2c6e0287114caeea0c9434a94" target="_top" xlink:title=" ">
<polygon fill="white" stroke="#666666" points="325.12,-206 237.12,-206 237.12,-168 325.12,-168 325.12,-206"/>
<text text-anchor="start" x="245.12" y="-192.5" font-family="Helvetica,sans-Serif" font-size="10.00">info::info_project</text>
<text text-anchor="middle" x="281.12" y="-177.5" font-family="Helvetica,sans-Serif" font-size="10.00">_revision</text>
</a>
</g>
</g>
<!-- Node2&#45;&gt;Node11 -->
<g id="edge10_Node000002_Node000011" class="edge">
<title>Node2&#45;&gt;Node11</title>
<g id="a_edge10_Node000002_Node000011"><a xlink:title=" ">
<path fill="none" stroke="#63b8ff" d="M137.5,-315C150.59,-292.68 181.43,-244.35 218.75,-215 221.47,-212.86 224.37,-210.85 227.38,-208.95"/>
<polygon fill="#63b8ff" stroke="#63b8ff" points="228.74,-211.64 235.68,-203.64 225.26,-205.57 228.74,-211.64"/>
</a>
</g>
</g>
<!-- Node12 -->
<g id="Node000012" class="node">
<title>Node12</title>
<g id="a_Node000012"><a xlink:href="namespaceinfo.html#a5600a5c71779aaecafbe4fff68152d02" target="_top" xlink:title=" ">
<polygon fill="white" stroke="#666666" points="330,-150 232.25,-150 232.25,-112 330,-112 330,-150"/>
<text text-anchor="start" x="240.25" y="-136.5" font-family="Helvetica,sans-Serif" font-size="10.00">info::info_project</text>
<text text-anchor="middle" x="281.12" y="-121.5" font-family="Helvetica,sans-Serif" font-size="10.00">_revision_datetime</text>
</a>
</g>
</g>
<!-- Node2&#45;&gt;Node12 -->
<g id="edge11_Node000002_Node000012" class="edge">
<title>Node2&#45;&gt;Node12</title>
<g id="a_edge11_Node000002_Node000012"><a xlink:title=" ">
<path fill="none" stroke="#63b8ff" d="M134,-315.18C142.79,-285.22 169.74,-205.41 218.75,-159 220.09,-157.73 221.51,-156.5 222.97,-155.33"/>
<polygon fill="#63b8ff" stroke="#63b8ff" points="224.67,-157.72 230.88,-149.13 220.67,-151.97 224.67,-157.72"/>
</a>
</g>
</g>
<!-- Node13 -->
<g id="Node000013" class="node">
<title>Node13</title>
<g id="a_Node000013"><a xlink:href="namespaceinfo.html#a9d8c1cc05c7db3face2e4a8b5fc29539" target="_top" xlink:title=" ">
<polygon fill="white" stroke="#666666" points="326.25,-94 236,-94 236,-56 326.25,-56 326.25,-94"/>
<text text-anchor="start" x="244" y="-80.5" font-family="Helvetica,sans-Serif" font-size="10.00">info::info_project</text>
<text text-anchor="middle" x="281.12" y="-65.5" font-family="Helvetica,sans-Serif" font-size="10.00">_revision_history</text>
</a>
</g>
</g>
<!-- Node2&#45;&gt;Node13 -->
<g id="edge12_Node000002_Node000013" class="edge">
<title>Node2&#45;&gt;Node13</title>
<g id="a_edge12_Node000002_Node000013"><a xlink:title=" ">
<path fill="none" stroke="#63b8ff" d="M132.26,-315.12C137.46,-278.72 157.82,-167.29 218.75,-103 221.17,-100.45 223.86,-98.11 226.73,-95.97"/>
<polygon fill="#63b8ff" stroke="#63b8ff" points="228.28,-98.5 234.78,-90.14 224.48,-92.61 228.28,-98.5"/>
</a>
</g>
</g>
<!-- Node14 -->
<g id="Node000014" class="node">
<title>Node14</title>
<g id="a_Node000014"><a xlink:href="namespaceinfo.html#a0b0e75f2a6d438265b88d1b0e2b21b52" target="_top" xlink:title=" ">
<polygon fill="white" stroke="#666666" points="325.12,-38 237.12,-38 237.12,0 325.12,0 325.12,-38"/>
<text text-anchor="start" x="245.12" y="-24.5" font-family="Helvetica,sans-Serif" font-size="10.00">info::info_project</text>
<text text-anchor="middle" x="281.12" y="-9.5" font-family="Helvetica,sans-Serif" font-size="10.00">_version</text>
</a>
</g>
</g>
<!-- Node2&#45;&gt;Node14 -->
<g id="edge13_Node000002_Node000014" class="edge">
<title>Node2&#45;&gt;Node14</title>
<g id="a_edge13_Node000002_Node000014"><a xlink:title=" ">
<path fill="none" stroke="#63b8ff" d="M131.16,-315.25C133.21,-273.43 145.54,-129.86 218.75,-47 221.39,-44.02 224.41,-41.33 227.66,-38.92"/>
<polygon fill="#63b8ff" stroke="#63b8ff" points="229.16,-41.47 235.71,-33.15 225.4,-35.57 229.16,-41.47"/>
</a>
</g>
</g>
</g>
</svg>

<g id="navigator" transform="translate(0 0)" fill="#404254">
  <rect fill="#f2f5e9" fill-opacity="0.5" stroke="#606060" stroke-width=".5" x="0" y="0" width="60" height="60"/>
  <use id="zoomplus" xlink:href="#zoomPlus" x="17" y="9" onmousedown="handleZoom(evt,'in')"/>
  <use id="zoomminus" xlink:href="#zoomMin" x="42" y="9" onmousedown="handleZoom(evt,'out')"/>
  <use id="reset" xlink:href="#resetDef" x="30" y="36" onmousedown="handleReset()"/>
   <use id="arrowup" xlink:href="#arrowUp" x="0" y="0" onmousedown="handlePan(0,-1)"/>
  <use id="arrowright" xlink:href="#arrowRight" x="0" y="0" onmousedown="handlePan(1,0)"/>
  <use id="arrowdown" xlink:href="#arrowDown" x="0" y="0" onmousedown="handlePan(0,1)"/>
  <use id="arrowleft" xlink:href="#arrowLeft" x="0" y="0" onmousedown="handlePan(-1,0)"/>
</g>
<svg viewBox="0 0 15 15" width="100%" height="30px" preserveAspectRatio="xMaxYMin meet">
 <g id="arrow_out" transform="scale(0.3 0.3)">
  <a xlink:href="version_8gtest_8cpp_a5d030007d0415495a5fe6465d08c90ca_cgraph_org.svg" target="_base">
   <rect id="button" ry="5" rx="5" y="6" x="6" height="38" width="38"
        fill="#f2f5e9" fill-opacity="0.5" stroke="#606060" stroke-width="1.0"/>
   <path id="arrow"
     d="M 11.500037,31.436501 C 11.940474,20.09759 22.043105,11.32322 32.158766,21.979434 L 37.068811,17.246167 C 37.068811,17.246167 37.088388,32 37.088388,32 L 22.160133,31.978069 C 22.160133,31.978069 26.997745,27.140456 26.997745,27.140456 C 18.528582,18.264221 13.291696,25.230495 11.500037,31.436501 z"
     style="fill:#404040;"/>
  </a>
 </g>
</svg>

<style type='text/css'>
<![CDATA[
[data-mouse-over-selected='false'] { opacity: 0.7; }
[data-mouse-over-selected='true']  { opacity: 1.0; }
]]>
</style>
<script type="application/ecmascript"><![CDATA[
document.addEventListener('DOMContentLoaded', (event) => {
  highlightEdges();
  highlightAdjacentNodes();
});
]]></script>
</svg>
