<?xml version="1.0" encoding="UTF-8" standalone="no"?>
<!DOCTYPE svg PUBLIC "-//W3C//DTD SVG 1.1//EN"
 "http://www.w3.org/Graphics/SVG/1.1/DTD/svg11.dtd">
<!-- Generated by graphviz version 8.1.0 (20230707.0739)
 -->
<!-- Title: src/info/include/info/version.h Pages: 1 -->
<svg width="418pt" height="164pt"
 viewBox="0.00 0.00 417.75 164.00" xmlns="http://www.w3.org/2000/svg" xmlns:xlink="http://www.w3.org/1999/xlink">

<svg id="main" version="1.1" xmlns="http://www.w3.org/2000/svg" xmlns:xlink="http://www.w3.org/1999/xlink" xml:space="preserve" onload="init(evt)">
<style type="text/css"><![CDATA[
.node, .edge {opacity: 0.7;}
.node.selected, .edge.selected {opacity: 1;}
.edge:hover path { stroke: red; }
.edge:hover polygon { stroke: red; fill: red; }
]]></style>
<script type="application/ecmascript" xlink:href="svg.min.js"/>
<svg id="graph" class="graph">
<g id="graph0" class="graph" transform="scale(1 1) rotate(0) translate(4 160)">
<title>src/info/include/info/version.h</title>
<!-- Node1 -->
<g id="Node000001" class="node">
<title>Node1</title>
<g id="a_Node000001"><a xlink:title=" ">
<polygon fill="#999999" stroke="#666666" points="231.62,-156 130.88,-156 130.88,-118 231.62,-118 231.62,-156"/>
<text text-anchor="start" x="138.88" y="-142.5" font-family="Helvetica,sans-Serif" font-size="10.00">src/info/include/info</text>
<text text-anchor="middle" x="181.25" y="-127.5" font-family="Helvetica,sans-Serif" font-size="10.00">/version.h</text>
</a>
</g>
</g>
<!-- Node2 -->
<g id="Node000002" class="node">
<title>Node2</title>
<g id="a_Node000002"><a xlink:href="options_8hpp.html" target="_top" xlink:title=" ">
<polygon fill="white" stroke="#666666" points="104.5,-82 0,-82 0,-59 104.5,-59 104.5,-82"/>
<text text-anchor="middle" x="52.25" y="-68.5" font-family="Helvetica,sans-Serif" font-size="10.00">src/args/options.hpp</text>
</a>
</g>
</g>
<!-- Node1&#45;&gt;Node2 -->
<g id="edge1_Node000001_Node000002" class="edge">
<title>Node1&#45;&gt;Node2</title>
<g id="a_edge1_Node000001_Node000002"><a xlink:title=" ">
<path fill="none" stroke="#63b8ff" d="M134.66,-112.71C113.9,-102.33 90.45,-90.6 73.89,-82.32"/>
<polygon fill="#63b8ff" stroke="#63b8ff" points="132.77,-116.18 143.28,-117.52 135.9,-109.91 132.77,-116.18"/>
</a>
</g>
</g>
<!-- Node4 -->
<g id="Node000004" class="node">
<title>Node4</title>
<g id="a_Node000004"><a xlink:href="version_8cpp.html" target="_top" xlink:title=" ">
<polygon fill="white" stroke="#666666" points="240.25,-82 122.25,-82 122.25,-59 240.25,-59 240.25,-82"/>
<text text-anchor="middle" x="181.25" y="-68.5" font-family="Helvetica,sans-Serif" font-size="10.00">src/info/src/version.cpp</text>
</a>
</g>
</g>
<!-- Node1&#45;&gt;Node4 -->
<g id="edge3_Node000001_Node000004" class="edge">
<title>Node1&#45;&gt;Node4</title>
<g id="a_edge3_Node000001_Node000004"><a xlink:title=" ">
<path fill="none" stroke="#63b8ff" d="M181.25,-106.9C181.25,-98.1 181.25,-88.97 181.25,-82.19"/>
<polygon fill="#63b8ff" stroke="#63b8ff" points="177.75,-106.69 181.25,-116.69 184.75,-106.69 177.75,-106.69"/>
</a>
</g>
</g>
<!-- Node5 -->
<g id="Node000005" class="node">
<title>Node5</title>
<g id="a_Node000005"><a xlink:href="version_8gtest_8cpp.html" target="_top" xlink:title=" ">
<polygon fill="white" stroke="#666666" points="409.75,-82 258.75,-82 258.75,-59 409.75,-59 409.75,-82"/>
<text text-anchor="middle" x="334.25" y="-68.5" font-family="Helvetica,sans-Serif" font-size="10.00">src/info/tests/version.gtest.cpp</text>
</a>
</g>
</g>
<!-- Node1&#45;&gt;Node5 -->
<g id="edge4_Node000001_Node000005" class="edge">
<title>Node1&#45;&gt;Node5</title>
<g id="a_edge4_Node000001_Node000005"><a xlink:title=" ">
<path fill="none" stroke="#63b8ff" d="M235.17,-113.27C260.12,-102.75 288.58,-90.75 308.58,-82.32"/>
<polygon fill="#63b8ff" stroke="#63b8ff" points="233.95,-110.41 226.09,-117.52 236.67,-116.86 233.95,-110.41"/>
</a>
</g>
</g>
<!-- Node3 -->
<g id="Node000003" class="node">
<title>Node3</title>
<g id="a_Node000003"><a xlink:href="main_8cpp.html" target="_top" xlink:title=" ">
<polygon fill="white" stroke="#666666" points="88.38,-23 16.12,-23 16.12,0 88.38,0 88.38,-23"/>
<text text-anchor="middle" x="52.25" y="-9.5" font-family="Helvetica,sans-Serif" font-size="10.00">src/main.cpp</text>
</a>
</g>
</g>
<!-- Node2&#45;&gt;Node3 -->
<g id="edge2_Node000002_Node000003" class="edge">
<title>Node2&#45;&gt;Node3</title>
<g id="a_edge2_Node000002_Node000003"><a xlink:title=" ">
<path fill="none" stroke="#63b8ff" d="M52.25,-47.65C52.25,-39.38 52.25,-30.31 52.25,-23.46"/>
<polygon fill="#63b8ff" stroke="#63b8ff" points="48.75,-47.51 52.25,-57.51 55.75,-47.51 48.75,-47.51"/>
</a>
</g>
</g>
</g>
</svg>
</svg>

<style type='text/css'>
<![CDATA[
[data-mouse-over-selected='false'] { opacity: 0.7; }
[data-mouse-over-selected='true']  { opacity: 1.0; }
]]>
</style>
<script type="application/ecmascript"><![CDATA[
document.addEventListener('DOMContentLoaded', (event) => {
  highlightEdges();
  highlightAdjacentNodes();
});
]]></script>
</svg>
