<?xml version="1.0" encoding="UTF-8" standalone="no"?>
<!DOCTYPE svg PUBLIC "-//W3C//DTD SVG 1.1//EN"
 "http://www.w3.org/Graphics/SVG/1.1/DTD/svg11.dtd">
<!-- Generated by graphviz version 8.1.0 (20230707.0739)
 -->
<!-- Title: src/info/include/info/version.h Pages: 1 -->
<svg width="142pt" height="105pt"
 viewBox="0.00 0.00 142.00 105.00" xmlns="http://www.w3.org/2000/svg" xmlns:xlink="http://www.w3.org/1999/xlink">
<g id="graph0" class="graph" transform="scale(1 1) rotate(0) translate(4 101)">
<title>src/info/include/info/version.h</title>
<!-- Node1 -->
<g id="Node000001" class="node">
<title>Node1</title>
<g id="a_Node000001"><a xlink:title=" ">
<polygon fill="#999999" stroke="#666666" points="121.12,-97 20.38,-97 20.38,-59 121.12,-59 121.12,-97"/>
<text text-anchor="start" x="28.38" y="-83.5" font-family="Helvetica,sans-Serif" font-size="10.00">src/info/include/info</text>
<text text-anchor="middle" x="70.75" y="-68.5" font-family="Helvetica,sans-Serif" font-size="10.00">/version.h</text>
</a>
</g>
</g>
<!-- Node2 -->
<g id="Node000002" class="node">
<title>Node2</title>
<g id="a_Node000002"><a xlink:title=" ">
<polygon fill="#e0e0e0" stroke="#999999" points="65.5,-23 0,-23 0,0 65.5,0 65.5,-23"/>
<text text-anchor="middle" x="32.75" y="-9.5" font-family="Helvetica,sans-Serif" font-size="10.00">string_view</text>
</a>
</g>
</g>
<!-- Node1&#45;&gt;Node2 -->
<g id="edge1_Node000001_Node000002" class="edge">
<title>Node1&#45;&gt;Node2</title>
<g id="a_edge1_Node000001_Node000002"><a xlink:title=" ">
<path fill="none" stroke="#63b8ff" d="M59.96,-58.69C55.16,-50.53 49.49,-40.91 44.57,-32.56"/>
<polygon fill="#63b8ff" stroke="#63b8ff" points="47.14,-31.03 39.05,-24.19 41.11,-34.58 47.14,-31.03"/>
</a>
</g>
</g>
<!-- Node3 -->
<g id="Node000003" class="node">
<title>Node3</title>
<g id="a_Node000003"><a xlink:href="config_8h.html" target="_top" xlink:title=" ">
<polygon fill="white" stroke="#666666" points="134,-23 83.5,-23 83.5,0 134,0 134,-23"/>
<text text-anchor="middle" x="108.75" y="-9.5" font-family="Helvetica,sans-Serif" font-size="10.00">config.h</text>
</a>
</g>
</g>
<!-- Node1&#45;&gt;Node3 -->
<g id="edge2_Node000001_Node000003" class="edge">
<title>Node1&#45;&gt;Node3</title>
<g id="a_edge2_Node000001_Node000003"><a xlink:title=" ">
<path fill="none" stroke="#63b8ff" d="M81.54,-58.69C86.34,-50.53 92.01,-40.91 96.93,-32.56"/>
<polygon fill="#63b8ff" stroke="#63b8ff" points="100.39,-34.58 102.45,-24.19 94.36,-31.03 100.39,-34.58"/>
</a>
</g>
</g>
</g>
</svg>
