<?xml version="1.0" encoding="UTF-8" standalone="no"?>
<!DOCTYPE svg PUBLIC "-//W3C//DTD SVG 1.1//EN"
 "http://www.w3.org/Graphics/SVG/1.1/DTD/svg11.dtd">
<!-- Generated by graphviz version 8.1.0 (20230707.0739)
 -->
<!-- Title: src/info/tests/version.gtest.cpp Pages: 1 -->
<svg width="198pt" height="149pt"
 viewBox="0.00 0.00 197.62 149.00" xmlns="http://www.w3.org/2000/svg" xmlns:xlink="http://www.w3.org/1999/xlink">

<svg id="main" version="1.1" xmlns="http://www.w3.org/2000/svg" xmlns:xlink="http://www.w3.org/1999/xlink" xml:space="preserve" onload="init(evt)">
<style type="text/css"><![CDATA[
.node, .edge {opacity: 0.7;}
.node.selected, .edge.selected {opacity: 1;}
.edge:hover path { stroke: red; }
.edge:hover polygon { stroke: red; fill: red; }
]]></style>
<script type="application/ecmascript" xlink:href="svg.min.js"/>
<svg id="graph" class="graph">
<g id="graph0" class="graph" transform="scale(1 1) rotate(0) translate(4 145)">
<title>src/info/tests/version.gtest.cpp</title>
<!-- Node1 -->
<g id="Node000001" class="node">
<title>Node1</title>
<g id="a_Node000001"><a xlink:title=" ">
<polygon fill="#999999" stroke="#666666" points="155.88,-141 4.88,-141 4.88,-118 155.88,-118 155.88,-141"/>
<text text-anchor="middle" x="80.38" y="-127.5" font-family="Helvetica,sans-Serif" font-size="10.00">src/info/tests/version.gtest.cpp</text>
</a>
</g>
</g>
<!-- Node2 -->
<g id="Node000002" class="node">
<title>Node2</title>
<g id="a_Node000002"><a xlink:title=" ">
<polygon fill="#e0e0e0" stroke="#999999" points="70.75,-82 0,-82 0,-59 70.75,-59 70.75,-82"/>
<text text-anchor="middle" x="35.38" y="-68.5" font-family="Helvetica,sans-Serif" font-size="10.00">gtest/gtest.h</text>
</a>
</g>
</g>
<!-- Node1&#45;&gt;Node2 -->
<g id="edge1_Node000001_Node000002" class="edge">
<title>Node1&#45;&gt;Node2</title>
<g id="a_edge1_Node000001_Node000002"><a xlink:title=" ">
<path fill="none" stroke="#63b8ff" d="M71.7,-117.51C65.78,-110.02 57.79,-99.89 50.81,-91.05"/>
<polygon fill="#63b8ff" stroke="#63b8ff" points="52.97,-89.14 44.02,-83.46 47.47,-93.47 52.97,-89.14"/>
</a>
</g>
</g>
<!-- Node3 -->
<g id="Node000003" class="node">
<title>Node3</title>
<g id="a_Node000003"><a xlink:href="version_8h.html" target="_top" xlink:title=" ">
<polygon fill="white" stroke="#666666" points="163.62,-82 89.12,-82 89.12,-59 163.62,-59 163.62,-82"/>
<text text-anchor="middle" x="126.38" y="-68.5" font-family="Helvetica,sans-Serif" font-size="10.00">info/version.h</text>
</a>
</g>
</g>
<!-- Node1&#45;&gt;Node3 -->
<g id="edge2_Node000001_Node000003" class="edge">
<title>Node1&#45;&gt;Node3</title>
<g id="a_edge2_Node000001_Node000003"><a xlink:title=" ">
<path fill="none" stroke="#63b8ff" d="M89.24,-117.51C95.35,-109.94 103.63,-99.68 110.83,-90.77"/>
<polygon fill="#63b8ff" stroke="#63b8ff" points="113.98,-93.44 117.53,-83.46 108.53,-89.04 113.98,-93.44"/>
</a>
</g>
</g>
<!-- Node4 -->
<g id="Node000004" class="node">
<title>Node4</title>
<g id="a_Node000004"><a xlink:title=" ">
<polygon fill="#e0e0e0" stroke="#999999" points="121.12,-23 55.62,-23 55.62,0 121.12,0 121.12,-23"/>
<text text-anchor="middle" x="88.38" y="-9.5" font-family="Helvetica,sans-Serif" font-size="10.00">string_view</text>
</a>
</g>
</g>
<!-- Node3&#45;&gt;Node4 -->
<g id="edge3_Node000003_Node000004" class="edge">
<title>Node3&#45;&gt;Node4</title>
<g id="a_edge3_Node000003_Node000004"><a xlink:title=" ">
<path fill="none" stroke="#63b8ff" d="M119.05,-58.51C114.16,-51.18 107.59,-41.32 101.78,-32.61"/>
<polygon fill="#63b8ff" stroke="#63b8ff" points="104.14,-30.84 95.68,-24.46 98.31,-34.72 104.14,-30.84"/>
</a>
</g>
</g>
<!-- Node5 -->
<g id="Node000005" class="node">
<title>Node5</title>
<g id="a_Node000005"><a xlink:href="config_8h.html" target="_top" xlink:title=" ">
<polygon fill="white" stroke="#666666" points="189.62,-23 139.12,-23 139.12,0 189.62,0 189.62,-23"/>
<text text-anchor="middle" x="164.38" y="-9.5" font-family="Helvetica,sans-Serif" font-size="10.00">config.h</text>
</a>
</g>
</g>
<!-- Node3&#45;&gt;Node5 -->
<g id="edge4_Node000003_Node000005" class="edge">
<title>Node3&#45;&gt;Node5</title>
<g id="a_edge4_Node000003_Node000005"><a xlink:title=" ">
<path fill="none" stroke="#63b8ff" d="M133.7,-58.51C138.59,-51.18 145.16,-41.32 150.97,-32.61"/>
<polygon fill="#63b8ff" stroke="#63b8ff" points="154.44,-34.72 157.07,-24.46 148.61,-30.84 154.44,-34.72"/>
</a>
</g>
</g>
</g>
</svg>
</svg>

<style type='text/css'>
<![CDATA[
[data-mouse-over-selected='false'] { opacity: 0.7; }
[data-mouse-over-selected='true']  { opacity: 1.0; }
]]>
</style>
<script type="application/ecmascript"><![CDATA[
document.addEventListener('DOMContentLoaded', (event) => {
  highlightEdges();
  highlightAdjacentNodes();
});
]]></script>
</svg>
