<?xml version="1.0" encoding="UTF-8" standalone="no"?>
<!DOCTYPE svg PUBLIC "-//W3C//DTD SVG 1.1//EN"
 "http://www.w3.org/Graphics/SVG/1.1/DTD/svg11.dtd">
<!-- Generated by graphviz version 8.1.0 (20230707.0739)
 -->
<!-- Title: src/info/src/version.cpp Pages: 1 -->
<svg width="185pt" height="149pt"
 viewBox="0.00 0.00 185.38 149.00" xmlns="http://www.w3.org/2000/svg" xmlns:xlink="http://www.w3.org/1999/xlink">

<svg id="main" version="1.1" xmlns="http://www.w3.org/2000/svg" xmlns:xlink="http://www.w3.org/1999/xlink" xml:space="preserve" onload="init(evt)">
<style type="text/css"><![CDATA[
.node, .edge {opacity: 0.7;}
.node.selected, .edge.selected {opacity: 1;}
.edge:hover path { stroke: red; }
.edge:hover polygon { stroke: red; fill: red; }
]]></style>
<script type="application/ecmascript" xlink:href="svg.min.js"/>
<svg id="graph" class="graph">
<g id="graph0" class="graph" transform="scale(1 1) rotate(0) translate(4 145)">
<title>src/info/src/version.cpp</title>
<!-- Node1 -->
<g id="Node000001" class="node">
<title>Node1</title>
<g id="a_Node000001"><a xlink:title=" ">
<polygon fill="#999999" stroke="#666666" points="169.75,-141 51.75,-141 51.75,-118 169.75,-118 169.75,-141"/>
<text text-anchor="middle" x="110.75" y="-127.5" font-family="Helvetica,sans-Serif" font-size="10.00">src/info/src/version.cpp</text>
</a>
</g>
</g>
<!-- Node2 -->
<g id="Node000002" class="node">
<title>Node2</title>
<g id="a_Node000002"><a xlink:href="version_8h.html" target="_top" xlink:title=" ">
<polygon fill="white" stroke="#666666" points="108,-82 33.5,-82 33.5,-59 108,-59 108,-82"/>
<text text-anchor="middle" x="70.75" y="-68.5" font-family="Helvetica,sans-Serif" font-size="10.00">info/version.h</text>
</a>
</g>
</g>
<!-- Node1&#45;&gt;Node2 -->
<g id="edge1_Node000001_Node000002" class="edge">
<title>Node1&#45;&gt;Node2</title>
<g id="a_edge1_Node000001_Node000002"><a xlink:title=" ">
<path fill="none" stroke="#63b8ff" d="M103.04,-117.51C97.84,-110.1 90.82,-100.11 84.66,-91.33"/>
<polygon fill="#63b8ff" stroke="#63b8ff" points="87.05,-89.63 78.44,-83.46 81.32,-93.65 87.05,-89.63"/>
</a>
</g>
</g>
<!-- Node5 -->
<g id="Node000005" class="node">
<title>Node5</title>
<g id="a_Node000005"><a xlink:title=" ">
<polygon fill="#e0e0e0" stroke="#999999" points="177.38,-82 126.12,-82 126.12,-59 177.38,-59 177.38,-82"/>
<text text-anchor="middle" x="151.75" y="-68.5" font-family="Helvetica,sans-Serif" font-size="10.00">sstream</text>
</a>
</g>
</g>
<!-- Node1&#45;&gt;Node5 -->
<g id="edge4_Node000001_Node000005" class="edge">
<title>Node1&#45;&gt;Node5</title>
<g id="a_edge4_Node000001_Node000005"><a xlink:title=" ">
<path fill="none" stroke="#63b8ff" d="M118.66,-117.51C123.99,-110.1 131.17,-100.11 137.49,-91.33"/>
<polygon fill="#63b8ff" stroke="#63b8ff" points="140.87,-93.62 143.87,-83.46 135.19,-89.53 140.87,-93.62"/>
</a>
</g>
</g>
<!-- Node3 -->
<g id="Node000003" class="node">
<title>Node3</title>
<g id="a_Node000003"><a xlink:title=" ">
<polygon fill="#e0e0e0" stroke="#999999" points="65.5,-23 0,-23 0,0 65.5,0 65.5,-23"/>
<text text-anchor="middle" x="32.75" y="-9.5" font-family="Helvetica,sans-Serif" font-size="10.00">string_view</text>
</a>
</g>
</g>
<!-- Node2&#45;&gt;Node3 -->
<g id="edge2_Node000002_Node000003" class="edge">
<title>Node2&#45;&gt;Node3</title>
<g id="a_edge2_Node000002_Node000003"><a xlink:title=" ">
<path fill="none" stroke="#63b8ff" d="M63.42,-58.51C58.53,-51.18 51.96,-41.32 46.15,-32.61"/>
<polygon fill="#63b8ff" stroke="#63b8ff" points="48.51,-30.84 40.05,-24.46 42.69,-34.72 48.51,-30.84"/>
</a>
</g>
</g>
<!-- Node4 -->
<g id="Node000004" class="node">
<title>Node4</title>
<g id="a_Node000004"><a xlink:href="config_8h.html" target="_top" xlink:title=" ">
<polygon fill="white" stroke="#666666" points="134,-23 83.5,-23 83.5,0 134,0 134,-23"/>
<text text-anchor="middle" x="108.75" y="-9.5" font-family="Helvetica,sans-Serif" font-size="10.00">config.h</text>
</a>
</g>
</g>
<!-- Node2&#45;&gt;Node4 -->
<g id="edge3_Node000002_Node000004" class="edge">
<title>Node2&#45;&gt;Node4</title>
<g id="a_edge3_Node000002_Node000004"><a xlink:title=" ">
<path fill="none" stroke="#63b8ff" d="M78.08,-58.51C82.97,-51.18 89.54,-41.32 95.35,-32.61"/>
<polygon fill="#63b8ff" stroke="#63b8ff" points="98.81,-34.72 101.45,-24.46 92.99,-30.84 98.81,-34.72"/>
</a>
</g>
</g>
</g>
</svg>
</svg>

<style type='text/css'>
<![CDATA[
[data-mouse-over-selected='false'] { opacity: 0.7; }
[data-mouse-over-selected='true']  { opacity: 1.0; }
]]>
</style>
<script type="application/ecmascript"><![CDATA[
document.addEventListener('DOMContentLoaded', (event) => {
  highlightEdges();
  highlightAdjacentNodes();
});
]]></script>
</svg>
