<?xml version="1.0" encoding="UTF-8" standalone="no"?>
<!DOCTYPE svg PUBLIC "-//W3C//DTD SVG 1.1//EN"
 "http://www.w3.org/Graphics/SVG/1.1/DTD/svg11.dtd">
<!-- Generated by graphviz version 8.1.0 (20230707.0739)
 -->
<!-- Title: TEST Pages: 1 -->
<svg width="326pt" height="326pt"
 viewBox="0.00 0.00 326.00 326.00" xmlns="http://www.w3.org/2000/svg" xmlns:xlink="http://www.w3.org/1999/xlink">
<g id="graph0" class="graph" transform="scale(1 1) rotate(0) translate(4 322)">
<title>TEST</title>
<!-- Node1 -->
<g id="Node000001" class="node">
<title>Node1</title>
<g id="a_Node000001"><a xlink:title=" ">
<polygon fill="#999999" stroke="#666666" points="40.75,-170.5 0,-170.5 0,-147.5 40.75,-147.5 40.75,-170.5"/>
<text text-anchor="middle" x="20.38" y="-157" font-family="Helvetica,sans-Serif" font-size="10.00">TEST</text>
</a>
</g>
</g>
<!-- Node2 -->
<g id="Node000002" class="node">
<title>Node2</title>
<g id="a_Node000002"><a xlink:href="namespaceinfo.html#adf619fee1b67e68e79a217741803d1c1" target="_top" xlink:title=" ">
<polygon fill="white" stroke="#666666" points="182.75,-170.5 76.75,-170.5 76.75,-147.5 182.75,-147.5 182.75,-170.5"/>
<text text-anchor="middle" x="129.75" y="-157" font-family="Helvetica,sans-Serif" font-size="10.00">info::info_project_full</text>
</a>
</g>
</g>
<!-- Node1&#45;&gt;Node2 -->
<g id="edge1_Node000001_Node000002" class="edge">
<title>Node1&#45;&gt;Node2</title>
<g id="a_edge1_Node000001_Node000002"><a xlink:title=" ">
<path fill="none" stroke="#63b8ff" d="M41.07,-159C48.21,-159 56.72,-159 65.59,-159"/>
<polygon fill="#63b8ff" stroke="#63b8ff" points="65.51,-162.5 75.51,-159 65.51,-155.5 65.51,-162.5"/>
</a>
</g>
</g>
<!-- Node3 -->
<g id="Node000003" class="node">
<title>Node3</title>
<g id="a_Node000003"><a xlink:href="namespaceinfo.html#a28d71fb524538a7bdfbb1483a8a3a4cb" target="_top" xlink:title=" ">
<polygon fill="white" stroke="#666666" points="312.38,-318 224.38,-318 224.38,-280 312.38,-280 312.38,-318"/>
<text text-anchor="start" x="232.38" y="-304.5" font-family="Helvetica,sans-Serif" font-size="10.00">info::info_project</text>
<text text-anchor="middle" x="268.38" y="-289.5" font-family="Helvetica,sans-Serif" font-size="10.00">_author</text>
</a>
</g>
</g>
<!-- Node2&#45;&gt;Node3 -->
<g id="edge2_Node000002_Node000003" class="edge">
<title>Node2&#45;&gt;Node3</title>
<g id="a_edge2_Node000002_Node000003"><a xlink:title=" ">
<path fill="none" stroke="#63b8ff" d="M137.77,-170.67C151.3,-192.46 182.86,-239.92 218.75,-271 219.63,-271.77 220.54,-272.52 221.47,-273.26"/>
<polygon fill="#63b8ff" stroke="#63b8ff" points="219.09,-276.59 229.24,-279.65 223.21,-270.93 219.09,-276.59"/>
</a>
</g>
</g>
<!-- Node4 -->
<g id="Node000004" class="node">
<title>Node4</title>
<g id="a_Node000004"><a xlink:href="namespaceinfo.html#aae86ae087e0d5fde160d4328e106c21f" target="_top" xlink:title=" ">
<polygon fill="white" stroke="#666666" points="318,-262 218.75,-262 218.75,-224 318,-224 318,-262"/>
<text text-anchor="start" x="226.75" y="-248.5" font-family="Helvetica,sans-Serif" font-size="10.00">info::info_project</text>
<text text-anchor="middle" x="268.38" y="-233.5" font-family="Helvetica,sans-Serif" font-size="10.00">_repository_branch</text>
</a>
</g>
</g>
<!-- Node2&#45;&gt;Node4 -->
<g id="edge3_Node000002_Node000004" class="edge">
<title>Node2&#45;&gt;Node4</title>
<g id="a_edge3_Node000002_Node000004"><a xlink:title=" ">
<path fill="none" stroke="#63b8ff" d="M148.81,-170.82C166.49,-182.32 194.28,-200.18 218.75,-215 220.5,-216.06 222.29,-217.13 224.1,-218.21"/>
<polygon fill="#63b8ff" stroke="#63b8ff" points="221.86,-221.55 232.26,-223.61 225.42,-215.52 221.86,-221.55"/>
</a>
</g>
</g>
<!-- Node5 -->
<g id="Node000005" class="node">
<title>Node5</title>
<g id="a_Node000005"><a xlink:href="namespaceinfo.html#ace228211052ca615450b84d638e882a7" target="_top" xlink:title=" ">
<polygon fill="white" stroke="#666666" points="312.38,-206 224.38,-206 224.38,-168 312.38,-168 312.38,-206"/>
<text text-anchor="start" x="232.38" y="-192.5" font-family="Helvetica,sans-Serif" font-size="10.00">info::info_project</text>
<text text-anchor="middle" x="268.38" y="-177.5" font-family="Helvetica,sans-Serif" font-size="10.00">_repository_url</text>
</a>
</g>
</g>
<!-- Node2&#45;&gt;Node5 -->
<g id="edge4_Node000002_Node000005" class="edge">
<title>Node2&#45;&gt;Node5</title>
<g id="a_edge4_Node000002_Node000005"><a xlink:title=" ">
<path fill="none" stroke="#63b8ff" d="M183.18,-169.75C193.13,-171.78 203.55,-173.92 213.54,-175.97"/>
<polygon fill="#63b8ff" stroke="#63b8ff" points="212.67,-179.57 223.17,-178.15 214.08,-172.71 212.67,-179.57"/>
</a>
</g>
</g>
<!-- Node6 -->
<g id="Node000006" class="node">
<title>Node6</title>
<g id="a_Node000006"><a xlink:href="namespaceinfo.html#ab6318ad2c6e0287114caeea0c9434a94" target="_top" xlink:title=" ">
<polygon fill="white" stroke="#666666" points="312.38,-150 224.38,-150 224.38,-112 312.38,-112 312.38,-150"/>
<text text-anchor="start" x="232.38" y="-136.5" font-family="Helvetica,sans-Serif" font-size="10.00">info::info_project</text>
<text text-anchor="middle" x="268.38" y="-121.5" font-family="Helvetica,sans-Serif" font-size="10.00">_revision</text>
</a>
</g>
</g>
<!-- Node2&#45;&gt;Node6 -->
<g id="edge5_Node000002_Node000006" class="edge">
<title>Node2&#45;&gt;Node6</title>
<g id="a_edge5_Node000002_Node000006"><a xlink:title=" ">
<path fill="none" stroke="#63b8ff" d="M183.18,-148.25C193.13,-146.22 203.55,-144.08 213.54,-142.03"/>
<polygon fill="#63b8ff" stroke="#63b8ff" points="214.08,-145.29 223.17,-139.85 212.67,-138.43 214.08,-145.29"/>
</a>
</g>
</g>
<!-- Node7 -->
<g id="Node000007" class="node">
<title>Node7</title>
<g id="a_Node000007"><a xlink:href="namespaceinfo.html#a5600a5c71779aaecafbe4fff68152d02" target="_top" xlink:title=" ">
<polygon fill="white" stroke="#666666" points="317.25,-94 219.5,-94 219.5,-56 317.25,-56 317.25,-94"/>
<text text-anchor="start" x="227.5" y="-80.5" font-family="Helvetica,sans-Serif" font-size="10.00">info::info_project</text>
<text text-anchor="middle" x="268.38" y="-65.5" font-family="Helvetica,sans-Serif" font-size="10.00">_revision_datetime</text>
</a>
</g>
</g>
<!-- Node2&#45;&gt;Node7 -->
<g id="edge6_Node000002_Node000007" class="edge">
<title>Node2&#45;&gt;Node7</title>
<g id="a_edge6_Node000002_Node000007"><a xlink:title=" ">
<path fill="none" stroke="#63b8ff" d="M148.81,-147.18C166.49,-135.68 194.28,-117.82 218.75,-103 220.5,-101.94 222.29,-100.87 224.1,-99.79"/>
<polygon fill="#63b8ff" stroke="#63b8ff" points="225.42,-102.48 232.26,-94.39 221.86,-96.45 225.42,-102.48"/>
</a>
</g>
</g>
<!-- Node8 -->
<g id="Node000008" class="node">
<title>Node8</title>
<g id="a_Node000008"><a xlink:href="namespaceinfo.html#a9d8c1cc05c7db3face2e4a8b5fc29539" target="_top" xlink:title=" ">
<polygon fill="white" stroke="#666666" points="313.5,-38 223.25,-38 223.25,0 313.5,0 313.5,-38"/>
<text text-anchor="start" x="231.25" y="-24.5" font-family="Helvetica,sans-Serif" font-size="10.00">info::info_project</text>
<text text-anchor="middle" x="268.38" y="-9.5" font-family="Helvetica,sans-Serif" font-size="10.00">_revision_history</text>
</a>
</g>
</g>
<!-- Node2&#45;&gt;Node8 -->
<g id="edge7_Node000002_Node000008" class="edge">
<title>Node2&#45;&gt;Node8</title>
<g id="a_edge7_Node000002_Node000008"><a xlink:title=" ">
<path fill="none" stroke="#63b8ff" d="M137.77,-147.33C151.3,-125.54 182.86,-78.08 218.75,-47 219.63,-46.23 220.54,-45.48 221.47,-44.74"/>
<polygon fill="#63b8ff" stroke="#63b8ff" points="223.21,-47.07 229.24,-38.35 219.09,-41.41 223.21,-47.07"/>
</a>
</g>
</g>
</g>
</svg>
